  0
SECTION
  2
HEADER
  9
$ACADVER
  1
AC1015
  0
ENDSEC
  0
SECTION
  2
ENTITIES
  0
LINE
  8
0
 10
11872.1092
 20
-1829.676
 30
0
 11
13031.9902
 21
-4923.5232
 31
0
  0
LINE
  8
0
 10
13031.9902
 20
-4923.5232
 30
0
 11
11163.5256
 21
242.8424
 31
0
  0
LINE
  8
0
 10
11163.5256
 20
242.8424
 30
0
 11
11393.6675
 21
481.3895
 31
0
  0
LINE
  8
0
 10
11393.6675
 20
481.3895
 30
0
 11
10934.9028
 21
684.399
 31
0
  0
LINE
  8
0
 10
10934.9028
 20
684.399
 30
0
 11
11236.3456
 21
1326.7339
 31
0
  0
LINE
  8
0
 10
11236.3456
 20
1326.7339
 30
0
 11
9764.2733
 21
852.5684
 31
0
  0
LINE
  8
0
 10
9764.2733
 20
852.5684
 30
0
 11
10836.9662
 21
896.4747
 31
0
  0
LINE
  8
0
 10
10836.9662
 20
896.4747
 30
0
 11
11139.2942
 21
241.8019
 31
0
  0
LINE
  8
0
 10
11139.2942
 20
241.8019
 30
0
 11
11457.3192
 21
-731.0229
 31
0
  0
LINE
  8
0
 10
11457.3192
 20
-731.0229
 30
0
 11
10911.3614
 21
-497.5757
 31
0
  0
LINE
  8
0
 10
10911.3614
 20
-497.5757
 30
0
 11
11156.2473
 21
-236.0858
 31
0
  0
LINE
  8
0
 10
11156.2473
 20
-236.0858
 30
0
 11
11000.0
 21
0.0
 31
0
  0
LINE
  8
0
 10
11000.0
 20
0.0
 30
0
 11
8481.1941
 21
-607.2623
 31
0
  0
LINE
  8
0
 10
8481.1941
 20
-607.2623
 30
0
 11
8269.7429
 21
-119.1748
 31
0
  0
LINE
  8
0
 10
8269.7429
 20
-119.1748
 30
0
 11
8129.9867
 21
997.4894
 31
0
  0
LINE
  8
0
 10
8129.9867
 20
997.4894
 30
0
 11
8180.9551
 21
114.7715
 31
0
  0
LINE
  8
0
 10
8180.9551
 20
114.7715
 30
0
 11
8032.8883
 21
108.4135
 31
0
  0
LINE
  8
0
 10
8032.8883
 20
108.4135
 30
0
 11
7850.223
 21
986.2152
 31
0
  0
LINE
  8
0
 10
7850.223
 20
986.2152
 30
0
 11
7787.4703
 21
771.6559
 31
0
  0
LINE
  8
0
 10
7787.4703
 20
771.6559
 30
0
 11
7484.6811
 21
1949.3791
 31
0
  0
LINE
  8
0
 10
7484.6811
 20
1949.3791
 30
0
 11
5101.2106
 21
1673.7374
 31
0
  0
LINE
  8
0
 10
5101.2106
 20
1673.7374
 30
0
 11
4903.5719
 21
2211.9026
 31
0
  0
LINE
  8
0
 10
4903.5719
 20
2211.9026
 30
0
 11
5323.9733
 21
2732.0415
 31
0
  0
LINE
  8
0
 10
5323.9733
 20
2732.0415
 30
0
 11
4939.5836
 21
3337.4069
 31
0
  0
LINE
  8
0
 10
4939.5836
 20
3337.4069
 30
0
 11
4900.261
 21
4032.7233
 31
0
  0
LINE
  8
0
 10
4900.261
 20
4032.7233
 30
0
 11
4848.913
 21
3480.2016
 31
0
  0
LINE
  8
0
 10
4848.913
 20
3480.2016
 30
0
 11
4517.6544
 21
4151.2197
 31
0
  0
LINE
  8
0
 10
4517.6544
 20
4151.2197
 30
0
 11
4033.4236
 21
4136.4229
 31
0
  0
LINE
  8
0
 10
4033.4236
 20
4136.4229
 30
0
 11
4064.8309
 21
4512.3394
 31
0
  0
LINE
  8
0
 10
4064.8309
 20
4512.3394
 30
0
 11
3996.1178
 21
4135.2829
 31
0
  0
LINE
  8
0
 10
3996.1178
 20
4135.2829
 30
0
 11
2661.0434
 21
4222.703
 31
0
  0
LINE
  8
0
 10
2661.0434
 20
4222.703
 30
0
 11
2562.1757
 21
3826.3615
 31
0
  0
LINE
  8
0
 10
2562.1757
 20
3826.3615
 30
0
 11
2807.0693
 21
3557.0127
 31
0
  0
LINE
  8
0
 10
2807.0693
 20
3557.0127
 30
0
 11
2714.074
 21
2960.0081
 31
0
  0
LINE
  8
0
 10
2714.074
 20
2960.0081
 30
0
 11
3054.5081
 21
2487.784
 31
0
  0
LINE
  8
0
 10
3054.5081
 20
2487.784
 30
0
 11
2370.8417
 21
2463.6396
 31
0
  0
LINE
  8
0
 10
2370.8417
 20
2463.6396
 30
0
 11
2551.5281
 21
2126.4653
 31
0
  0
LINE
  8
0
 10
2551.5281
 20
2126.4653
 30
0
 11
2336.3732
 21
1756.9046
 31
0
  0
LINE
  8
0
 10
2336.3732
 20
1756.9046
 30
0
 11
1716.1599
 21
2096.1209
 31
0
  0
LINE
  8
0
 10
1716.1599
 20
2096.1209
 30
0
 11
3793.4437
 21
1624.1237
 31
0
  0
LINE
  8
0
 10
3793.4437
 20
1624.1237
 30
0
 11
3671.7515
 21
1026.5398
 31
0
  0
LINE
  8
0
 10
3671.7515
 20
1026.5398
 30
0
 11
3237.6851
 21
800.3354
 31
0
  0
LINE
  8
0
 10
3237.6851
 20
800.3354
 30
0
 11
3259.3402
 21
137.7091
 31
0
  0
LINE
  8
0
 10
3259.3402
 20
137.7091
 30
0
 11
3859.6526
 21
610.8865
 31
0
  0
LINE
  8
0
 10
3859.6526
 20
610.8865
 30
0
 11
3838.7075
 21
1625.8409
 31
0
  0
LINE
  8
0
 10
3838.7075
 20
1625.8409
 30
0
 11
3931.025
 21
1036.8288
 31
0
  0
LINE
  8
0
 10
3931.025
 20
1036.8288
 30
0
 11
4501.8321
 21
1459.1184
 31
0
  0
LINE
  8
0
 10
4501.8321
 20
1459.1184
 30
0
 11
4542.2819
 21
1061.086
 31
0
  0
LINE
  8
0
 10
4542.2819
 20
1061.086
 30
0
 11
4456.2503
 21
849.4421
 31
0
  0
LINE
  8
0
 10
4456.2503
 20
849.4421
 30
0
 11
4536.7549
 21
638.601
 31
0
  0
LINE
  8
0
 10
4536.7549
 20
638.601
 30
0
 11
5205.7802
 21
446.1746
 31
0
  0
LINE
  8
0
 10
5205.7802
 20
446.1746
 30
0
 11
4959.1285
 21
-263.6819
 31
0
  0
LINE
  8
0
 10
4959.1285
 20
-263.6819
 30
0
 11
3579.9124
 21
-82.7963
 31
0
  0
LINE
  8
0
 10
3579.9124
 20
-82.7963
 30
0
 11
3425.8782
 21
-1099.7737
 31
0
  0
LINE
  8
0
 10
3425.8782
 20
-1099.7737
 30
0
 11
3402.3761
 21
-90.4196
 31
0
  0
LINE
  8
0
 10
3402.3761
 20
-90.4196
 30
0
 11
3275.4507
 21
-95.8698
 31
0
  0
LINE
  8
0
 10
3275.4507
 20
-95.8698
 30
0
 11
3167.289
 21
-847.1076
 31
0
  0
LINE
  8
0
 10
3167.289
 20
-847.1076
 30
0
 11
2995.8809
 21
-107.8744
 31
0
  0
LINE
  8
0
 10
2995.8809
 20
-107.8744
 30
0
 11
2687.9502
 21
-868.7428
 31
0
  0
LINE
  8
0
 10
2687.9502
 20
-868.7428
 30
0
 11
2542.9549
 21
-369.147
 31
0
  0
LINE
  8
0
 10
2542.9549
 20
-369.147
 30
0
 11
2601.2249
 21
-615.7679
 31
0
  0
LINE
  8
0
 10
2601.2249
 20
-615.7679
 30
0
 11
2425.0451
 21
-1145.7253
 31
0
  0
LINE
  8
0
 10
2425.0451
 20
-1145.7253
 30
0
 11
1026.4995
 21
-943.7331
 31
0
  0
LINE
  8
0
 10
1026.4995
 20
-943.7331
 30
0
 11
2443.5093
 21
-622.7675
 31
0
  0
LINE
  8
0
 10
2443.5093
 20
-622.7675
 30
0
 11
2283.8822
 21
-380.4555
 31
0
  0
LINE
  8
0
 10
2283.8822
 20
-380.4555
 30
0
 11
-32.3244
 21
-237.9049
 31
0
  0
LINE
  8
0
 10
-32.3244
 20
-237.9049
 30
0
 11
-517.7459
 21
-1556.8002
 31
0
  0
LINE
  8
0
 10
-517.7459
 20
-1556.8002
 30
0
 11
0.0
 21
0.0
 31
0
  0
LINE
  8
0
 10
-938.8811
 20
-1576.4741
 30
0
 11
-295.7024
 21
217.4158
 31
0
  0
LINE
  8
0
 10
-295.7024
 20
217.4158
 30
0
 11
-480.5957
 21
1651.5896
 31
0
  0
LINE
  8
0
 10
-480.5957
 20
1651.5896
 30
0
 11
106.771
 21
3177.9181
 31
0
  0
LINE
  8
0
 10
106.771
 20
3177.9181
 30
0
 11
-118.0448
 21
3170.4989
 31
0
  0
LINE
  8
0
 10
-118.0448
 20
3170.4989
 30
0
 11
-110.3434
 21
2864.2775
 31
0
  0
LINE
  8
0
 10
-110.3434
 20
2864.2775
 30
0
 11
-1570.473
 21
-548.6967
 31
0
  0
LINE
  8
0
 10
-848.2385
 20
7937.56
 30
0
 11
-279.1696
 21
8645.7467
 31
0
  0
LINE
  8
0
 10
-279.1696
 20
8645.7467
 30
0
 11
-204.6591
 21
8695.6575
 31
0
  0
LINE
  8
0
 10
-204.6591
 20
8695.6575
 30
0
 11
188.1719
 21
9279.8249
 31
0
  0
LINE
  8
0
 10
188.1719
 20
9279.8249
 30
0
 11
-146.5763
 21
8838.7353
 31
0
  0
LINE
  8
0
 10
-146.5763
 20
8838.7353
 30
0
 11
-281.2907
 21
8742.3715
 31
0
  0
LINE
  8
0
 10
-281.2907
 20
8742.3715
 30
0
 11
-302.5866
 21
8645.3475
 31
0
  0
LINE
  8
0
 10
-302.5866
 20
8645.3475
 30
0
 11
-766.2789
 21
8055.0894
 31
0
  0
LINE
  8
0
 10
17945.9964
 20
-180.0645
 30
0
 11
11485.5689
 21
8339.3834
 31
0
  0
LINE
  8
0
 10
11485.5689
 20
8339.3834
 30
0
 11
11311.2424
 21
8443.3124
 31
0
  0
LINE
  8
0
 10
11311.2424
 20
8443.3124
 30
0
 11
11415.9524
 21
7997.4327
 31
0
  0
LINE
  8
0
 10
11415.9524
 20
7997.4327
 30
0
 11
11201.6097
 21
8223.7887
 31
0
  0
LINE
  8
0
 10
11201.6097
 20
8223.7887
 30
0
 11
11197.1684
 21
8696.4345
 31
0
  0
LINE
  8
0
 10
11197.1684
 20
8696.4345
 30
0
 11
10969.1545
 21
8976.7999
 31
0
  0
LINE
  8
0
 10
10969.1545
 20
8976.7999
 30
0
 11
11030.6389
 21
9023.0447
 31
0
  0
LINE
  8
0
 10
11030.6389
 20
9023.0447
 30
0
 11
10842.4958
 21
9195.1891
 31
0
  0
LINE
  8
0
 10
10842.4958
 20
9195.1891
 30
0
 11
10987.9772
 21
9022.3412
 31
0
  0
LINE
  8
0
 10
10987.9772
 20
9022.3412
 30
0
 11
10915.456
 21
8975.9072
 31
0
  0
LINE
  8
0
 10
10915.456
 20
8975.9072
 30
0
 11
10748.8242
 21
9193.6939
 31
0
  0
LINE
  8
0
 10
10748.8242
 20
9193.6939
 30
0
 11
10562.4969
 21
9554.5465
 31
0
  0
LINE
  8
0
 10
10562.4969
 20
9554.5465
 30
0
 11
10456.2948
 21
9665.6936
 31
0
  0
LINE
  8
0
 10
10456.2948
 20
9665.6936
 30
0
 11
10293.7257
 21
9911.5788
 31
0
  0
LINE
  8
0
 10
10293.7257
 20
9911.5788
 30
0
 11
10292.0757
 21
9877.3044
 31
0
  0
LINE
  8
0
 10
10292.0757
 20
9877.3044
 30
0
 11
10562.3727
 21
9516.0735
 31
0
  0
LINE
  8
0
 10
10562.3727
 20
9516.0735
 30
0
 11
10582.1989
 21
9438.021
 31
0
  0
LINE
  8
0
 10
10582.1989
 20
9438.021
 30
0
 11
10849.2509
 21
9020.0536
 31
0
  0
LINE
  8
0
 10
10849.2509
 20
9020.0536
 30
0
 11
10757.6901
 21
8833.8726
 31
0
  0
LINE
  8
0
 10
10757.6901
 20
8833.8726
 30
0
 11
11117.5731
 21
7683.1265
 31
0
  0
LINE
  8
0
 10
11117.5731
 20
7683.1265
 30
0
 11
11012.3498
 21
7744.5835
 31
0
  0
LINE
  8
0
 10
11012.3498
 20
7744.5835
 30
0
 11
10547.2646
 21
8429.3694
 31
0
  0
LINE
  8
0
 10
10547.2646
 20
8429.3694
 30
0
 11
10931.1131
 21
7867.2936
 31
0
  0
LINE
  8
0
 10
10931.1131
 20
7867.2936
 30
0
 11
10961.7755
 21
7743.555
 31
0
  0
LINE
  8
0
 10
10961.7755
 20
7743.555
 30
0
 11
10135.356
 21
9053.0391
 31
0
  0
LINE
  8
0
 10
10135.356
 20
9053.0391
 30
0
 11
10082.0864
 21
9052.1678
 31
0
  0
LINE
  8
0
 10
10082.0864
 20
9052.1678
 30
0
 11
11022.5168
 21
7550.9276
 31
0
  0
LINE
  8
0
 10
11022.5168
 20
7550.9276
 30
0
 11
10946.2472
 21
7204.8757
 31
0
  0
LINE
  8
0
 10
10946.2472
 20
7204.8757
 30
0
 11
11116.999
 21
7279.729
 31
0
  0
LINE
  8
0
 10
11116.999
 20
7279.729
 30
0
 11
11335.5996
 21
7067.743
 31
0
  0
LINE
  8
0
 10
11335.5996
 20
7067.743
 30
0
 11
11474.7131
 21
6764.4887
 31
0
  0
LINE
  8
0
 10
11474.7131
 20
6764.4887
 30
0
 11
11568.0001
 21
6686.7497
 31
0
  0
LINE
  8
0
 10
11568.0001
 20
6686.7497
 30
0
 11
11570.954
 21
6522.7302
 31
0
  0
LINE
  8
0
 10
11570.954
 20
6522.7302
 30
0
 11
11432.3044
 21
6763.4997
 31
0
  0
LINE
  8
0
 10
11432.3044
 20
6763.4997
 30
0
 11
11475.9985
 21
6603.237
 31
0
  0
LINE
  8
0
 10
11475.9985
 20
6603.237
 30
0
 11
11609.0487
 21
6439.4044
 31
0
  0
LINE
  8
0
 10
11609.0487
 20
6439.4044
 30
0
 11
11456.8488
 21
6173.5412
 31
0
  0
LINE
  8
0
 10
11456.8488
 20
6173.5412
 30
0
 11
13471.552
 21
2855.6741
 31
0
  0
LINE
  8
0
 10
22458.5922
 20
-12130.3274
 30
0
 11
22152.9998
 21
-11408.4647
 31
0
  0
LINE
  8
0
 10
22152.9998
 20
-11408.4647
 30
0
 11
12026.9563
 21
5308.0318
 31
0
  0
LINE
  8
0
 10
12026.9563
 20
5308.0318
 30
0
 11
12342.426
 21
4872.9563
 31
0
  0
LINE
  8
0
 10
12342.426
 20
4872.9563
 30
0
 11
11934.4837
 21
5514.5214
 31
0
  0
LINE
  8
0
 10
11934.4837
 20
5514.5214
 30
0
 11
11687.6793
 21
5996.4823
 31
0
  0
LINE
  8
0
 10
11687.6793
 20
5996.4823
 30
0
 11
11672.4433
 21
6525.1716
 31
0
  0
LINE
  8
0
 10
11672.4433
 20
6525.1716
 30
0
 11
13073.9886
 21
4412.6777
 31
0
  0
LINE
  8
0
 10
13073.9886
 20
4412.6777
 30
0
 11
11720.3357
 21
6609.0538
 31
0
  0
LINE
  8
0
 10
11720.3357
 20
6609.0538
 30
0
 11
13870.4181
 21
3338.1406
 31
0
  0
LINE
  8
0
 10
13870.4181
 20
3338.1406
 30
0
 11
13891.0561
 21
3030.4369
 31
0
  0
LINE
  8
0
 10
13891.0561
 20
3030.4369
 30
0
 11
14893.6328
 21
1471.8701
 31
0
  0
LINE
  8
0
 10
14893.6328
 20
1471.8701
 30
0
 11
15087.1973
 21
1277.8567
 31
0
  0
LINE
  8
0
 10
15087.1973
 20
1277.8567
 30
0
 11
15003.87
 21
1476.2448
 31
0
  0
LINE
  8
0
 10
15003.87
 20
1476.2448
 30
0
 11
14554.813
 21
2032.385
 31
0
  0
LINE
  8
0
 10
14554.813
 20
2032.385
 30
0
 11
14011.6313
 21
2874.7476
 31
0
  0
LINE
  8
0
 10
14011.6313
 20
2874.7476
 30
0
 11
14009.4513
 21
3034.5607
 31
0
  0
LINE
  8
0
 10
14009.4513
 20
3034.5607
 30
0
 11
14682.0977
 21
2037.2139
 31
0
  0
LINE
  8
0
 10
14682.0977
 20
2037.2139
 30
0
 11
13870.4181
 21
3338.1406
 31
0
  0
LINE
  8
0
 10
13870.4181
 20
3338.1406
 30
0
 11
11529.0381
 21
6921.5223
 31
0
  0
LINE
  8
0
 10
11529.0381
 20
6921.5223
 30
0
 11
11667.8732
 21
6924.6947
 31
0
  0
LINE
  8
0
 10
11667.8732
 20
6924.6947
 30
0
 11
11496.4244
 21
7357.8519
 31
0
  0
LINE
  8
0
 10
11496.4244
 20
7357.8519
 30
0
 11
11690.2972
 21
7292.1946
 31
0
  0
LINE
  8
0
 10
11690.2972
 20
7292.1946
 30
0
 11
11640.3254
 21
8060.6774
 31
0
  0
LINE
  8
0
 10
11640.3254
 20
8060.6774
 30
0
 11
11847.4615
 21
7824.0523
 31
0
  0
LINE
  8
0
 10
11847.4615
 20
7824.0523
 30
0
 11
20864.1863
 21
-4067.8574
 31
0
  0
LINE
  8
0
 10
20864.1863
 20
-4067.8574
 30
0
 11
21604.0029
 21
-5700.7071
 31
0
  0
LINE
  8
0
 10
21604.0029
 20
-5700.7071
 30
0
 11
20906.5829
 21
-8287.7651
 31
0
  0
LINE
  8
0
 10
-727.0392
 20
5580.4732
 30
0
 11
-500.9009
 21
5873.397
 31
0
  0
LINE
  8
0
 10
-500.9009
 20
5873.397
 30
0
 11
-238.9573
 21
5690.5406
 31
0
  0
LINE
  8
0
 10
329.5493
 20
6665.6064
 30
0
 11
101.088
 21
6499.2521
 31
0
  0
LINE
  8
0
 10
101.088
 20
6499.2521
 30
0
 11
143.9306
 21
6417.5839
 31
0
  0
LINE
  8
0
 10
143.9306
 20
6417.5839
 30
0
 11
-8.8452
 21
6068.2
 31
0
  0
LINE
  8
0
 10
-8.8452
 20
6068.2
 30
0
 11
-226.5321
 21
5880.2838
 31
0
  0
LINE
  8
0
 10
-226.5321
 20
5880.2838
 30
0
 11
-484.7495
 21
5873.8024
 31
0
  0
LINE
  8
0
 10
-484.7495
 20
5873.8024
 30
0
 11
-252.9897
 21
6408.232
 31
0
  0
LINE
  8
0
 10
-252.9897
 20
6408.232
 30
0
 11
-604.406
 21
5963.0179
 31
0
  0
LINE
  8
0
 10
-604.406
 20
5963.0179
 30
0
 11
-467.5798
 21
6233.1302
 31
0
  0
LINE
  8
0
 10
-467.5798
 20
6233.1302
 30
0
 11
-642.5948
 21
6052.6296
 31
0
  0
LINE
  8
0
 10
-642.5948
 20
6052.6296
 30
0
 11
-535.1417
 21
6484.4151
 31
0
  0
LINE
  8
0
 10
-535.1417
 20
6484.4151
 30
0
 11
-675.8719
 21
6313.9434
 31
0
  0
LINE
  8
0
 10
-675.8719
 20
6313.9434
 30
0
 11
-49.4867
 21
7319.2897
 31
0
  0
LINE
  8
0
 10
-49.4867
 20
7319.2897
 30
0
 11
130.0493
 21
7323.0458
 31
0
  0
LINE
  8
0
 10
130.0493
 20
7323.0458
 30
0
 11
39.6392
 21
7455.7082
 31
0
  0
LINE
  8
0
 10
39.6392
 20
7455.7082
 30
0
 11
898.4633
 21
8855.9677
 31
0
  0
LINE
  8
0
 10
898.4633
 20
8855.9677
 30
0
 11
2.2108
 21
7520.6655
 31
0
  0
LINE
  8
0
 10
2.2108
 20
7520.6655
 30
0
 11
227.5372
 21
7898.9854
 31
0
  0
LINE
  8
0
 10
227.5372
 20
7898.9854
 30
0
 11
77.9195
 21
7713.388
 31
0
  0
LINE
  8
0
 10
77.9195
 20
7713.388
 30
0
 11
177.9031
 21
7957.1341
 31
0
  0
LINE
  8
0
 10
177.9031
 20
7957.1341
 30
0
 11
70.2312
 21
7835.956
 31
0
  0
LINE
  8
0
 10
70.2312
 20
7835.956
 30
0
 11
186.9539
 21
8240.2891
 31
0
  0
LINE
  8
0
 10
186.9539
 20
8240.2891
 30
0
 11
130.612
 21
8934.9168
 31
0
  0
LINE
  8
0
 10
130.612
 20
8934.9168
 30
0
 11
325.5804
 21
9199.1505
 31
0
  0
LINE
  8
0
 10
325.5804
 20
9199.1505
 30
0
 11
-115.3404
 21
8648.5392
 31
0
  0
LINE
  8
0
 10
-115.3404
 20
8648.5392
 30
0
 11
-158.3695
 21
8548.5591
 31
0
  0
LINE
  8
0
 10
-158.3695
 20
8548.5591
 30
0
 11
-141.6807
 21
7385.2013
 31
0
  0
LINE
  8
0
 10
-141.6807
 20
7385.2013
 30
0
 11
2.2108
 21
7520.6655
 31
0
  0
LINE
  8
0
 10
2.2108
 20
7520.6655
 30
0
 11
-245.3488
 21
7105.0161
 31
0
  0
LINE
  8
0
 10
-245.3488
 20
7105.0161
 30
0
 11
-525.3347
 21
6724.7424
 31
0
  0
LINE
  8
0
 10
-525.3347
 20
6724.7424
 30
0
 11
-510.2253
 21
7638.8884
 31
0
  0
LINE
  8
0
 10
-510.2253
 20
7638.8884
 30
0
 11
-397.932
 21
7826.8631
 31
0
  0
LINE
  8
0
 10
-397.932
 20
7826.8631
 30
0
 11
-516.3085
 21
7701.634
 31
0
  0
LINE
  8
0
 10
-516.3085
 20
7701.634
 30
0
 11
-480.4863
 21
8228.108
 31
0
  0
LINE
  8
0
 10
-480.4863
 20
8228.108
 30
0
 11
-606.7302
 21
8114.7889
 31
0
  0
LINE
  8
0
 10
-11653.5713
 20
-11230.9599
 30
0
 11
-10002.2645
 21
-7686.06
 31
0
  0
LINE
  8
0
 10
-10002.2645
 20
-7686.06
 30
0
 11
-11006.4416
 21
-8793.4669
 31
0
  0
LINE
  8
0
 10
-11006.4416
 20
-8793.4669
 30
0
 11
-10124.0212
 21
-7205.0567
 31
0
  0
LINE
  8
0
 10
-10124.0212
 20
-7205.0567
 30
0
 11
-10952.3758
 21
-8256.6009
 31
0
  0
LINE
  8
0
 10
-10952.3758
 20
-8256.6009
 30
0
 11
-10769.7488
 21
-5071.4677
 31
0
  0
LINE
  8
0
 10
-10769.7488
 20
-5071.4677
 30
0
 11
-741.128
 21
7880.3408
 31
0
  0
LINE
  8
0
 10
-741.128
 20
7880.3408
 30
0
 11
-776.9724
 21
6719.0499
 31
0
  0
LINE
  8
0
 10
-776.9724
 20
6719.0499
 30
0
 11
-584.5105
 21
6723.4038
 31
0
  0
LINE
  8
0
 10
-584.5105
 20
6723.4038
 30
0
 11
-815.0364
 21
6310.6304
 31
0
  0
LINE
  8
0
 10
-815.0364
 20
6310.6304
 30
0
 11
-3046.3995
 21
2921.14
 31
0
  0
LINE
  8
0
 10
-3046.3995
 20
2921.14
 30
0
 11
-3678.7305
 21
1900.1531
 31
0
  0
LINE
  8
0
 10
-3678.7305
 20
1900.1531
 30
0
 11
-3217.9336
 21
2598.702
 31
0
  0
LINE
  8
0
 10
-3217.9336
 20
2598.702
 30
0
 11
-3045.8985
 21
2764.7799
 31
0
  0
LINE
  8
0
 10
-3045.8985
 20
2764.7799
 30
0
 11
-4070.3242
 21
1129.0545
 31
0
  0
LINE
  8
0
 10
-4070.3242
 20
1129.0545
 30
0
 11
-3594.2526
 21
1721.5763
 31
0
  0
LINE
  8
0
 10
-3594.2526
 20
1721.5763
 30
0
 11
-3663.3301
 21
1719.0309
 31
0
  0
LINE
  8
0
 10
-3663.3301
 20
1719.0309
 30
0
 11
-821.7719
 21
6137.2095
 31
0
  0
LINE
  8
0
 10
-821.7719
 20
6137.2095
 30
0
 11
-805.373
 21
5479.005
 31
0
  0
LINE
  8
0
 10
11089.5463
 20
5981.139
 30
0
 11
11150.9926
 21
5982.7152
 31
0
  0
LINE
  8
0
 10
11150.9926
 20
5982.7152
 30
0
 11
21704.7162
 21
-12983.3455
 31
0
  0
LINE
  8
0
 10
21704.7162
 20
-12983.3455
 30
0
 11
10934.7182
 21
6423.0114
 31
0
  0
LINE
  8
0
 10
10934.7182
 20
6423.0114
 30
0
 11
11382.3089
 21
6518.1921
 31
0
  0
LINE
  8
0
 10
11382.3089
 20
6518.1921
 30
0
 11
10752.2869
 21
6747.6415
 31
0
  0
LINE
  8
0
 10
10752.2869
 20
6747.6415
 30
0
 11
10769.7126
 21
6586.4228
 31
0
  0
LINE
  8
0
 10
10769.7126
 20
6586.4228
 30
0
 11
9888.2448
 21
8198.9586
 31
0
  0
LINE
  8
0
 10
9888.2448
 20
8198.9586
 30
0
 11
9948.1686
 21
8200.0915
 31
0
  0
LINE
  8
0
 10
9948.1686
 20
8200.0915
 30
0
 11
9844.4498
 21
8363.1056
 31
0
  0
LINE
  8
0
 10
9844.4498
 20
8363.1056
 30
0
 11
9864.2692
 21
8198.5054
 31
0
  0
LINE
  8
0
 10
9864.2692
 20
8198.5054
 30
0
 11
10125.0697
 21
7726.5385
 31
0
  0
LINE
  8
0
 10
10125.0697
 20
7726.5385
 30
0
 11
10215.344
 21
7467.1983
 31
0
  0
LINE
  8
0
 10
10215.344
 20
7467.1983
 30
0
 11
9892.0767
 21
7967.5646
 31
0
  0
LINE
  8
0
 10
9892.0767
 20
7967.5646
 30
0
 11
9853.6374
 21
8084.2661
 31
0
  0
LINE
  8
0
 10
9853.6374
 20
8084.2661
 30
0
 11
9576.9587
 21
8464.3904
 31
0
  0
LINE
  8
0
 10
9576.9587
 20
8464.3904
 30
0
 11
9459.0072
 21
8951.6924
 31
0
  0
LINE
  8
0
 10
9459.0072
 20
8951.6924
 30
0
 11
9665.8348
 21
8619.7974
 31
0
  0
LINE
  8
0
 10
9665.8348
 20
8619.7974
 30
0
 11
9506.0932
 21
8906.4455
 31
0
  0
LINE
  8
0
 10
9506.0932
 20
8906.4455
 30
0
 11
9452.215
 21
9041.8661
 31
0
  0
LINE
  8
0
 10
9452.215
 20
9041.8661
 30
0
 11
9513.1774
 21
8952.593
 31
0
  0
LINE
  8
0
 10
9513.1774
 20
8952.593
 30
0
 11
9276.1878
 21
9337.5384
 31
0
  0
LINE
  8
0
 10
9276.1878
 20
9337.5384
 30
0
 11
9239.7711
 21
9457.1613
 31
0
  0
LINE
  8
0
 10
9239.7711
 20
9457.1613
 30
0
 11
9199.5319
 21
9456.5537
 31
0
  0
LINE
  8
0
 10
9199.5319
 20
9456.5537
 30
0
 11
9153.9261
 21
9609.4956
 31
0
  0
LINE
  8
0
 10
9153.9261
 20
9609.4956
 30
0
 11
8715.3451
 21
10448.7634
 31
0
  0
LINE
  8
0
 10
8715.3451
 20
10448.7634
 30
0
 11
8701.8511
 21
10531.8554
 31
0
  0
LINE
  8
0
 10
8227.9682
 20
10633.536
 30
0
 11
8229.2253
 21
10580.4371
 31
0
  0
LINE
  8
0
 10
8229.2253
 20
10580.4371
 30
0
 11
8546.9158
 21
9955.2056
 31
0
  0
LINE
  8
0
 10
8546.9158
 20
9955.2056
 30
0
 11
8618.2989
 21
9712.3506
 31
0
  0
LINE
  8
0
 10
8618.2989
 20
9712.3506
 30
0
 11
8694.3579
 21
9676.981
 31
0
  0
LINE
  8
0
 10
8694.3579
 20
9676.981
 30
0
 11
8836.3517
 21
9411.4494
 31
0
  0
LINE
  8
0
 10
8836.3517
 20
9411.4494
 30
0
 11
8844.8701
 21
9289.7608
 31
0
  0
LINE
  8
0
 10
8844.8701
 20
9289.7608
 30
0
 11
8896.2988
 21
9248.9443
 31
0
  0
LINE
  8
0
 10
8896.2988
 20
9248.9443
 30
0
 11
9150.1527
 21
8758.5188
 31
0
  0
LINE
  8
0
 10
9150.1527
 20
8758.5188
 30
0
 11
9297.4656
 21
8712.4692
 31
0
  0
LINE
  8
0
 10
9297.4656
 20
8712.4692
 30
0
 11
9307.6001
 21
8511.5537
 31
0
  0
LINE
  8
0
 10
9307.6001
 20
8511.5537
 30
0
 11
9456.1565
 21
8190.7897
 31
0
  0
LINE
  8
0
 10
9456.1565
 20
8190.7897
 30
0
 11
9504.2216
 21
8191.6984
 31
0
  0
LINE
  8
0
 10
9504.2216
 20
8191.6984
 30
0
 11
9918.9068
 21
7527.8389
 31
0
  0
LINE
  8
0
 10
9918.9068
 20
7527.8389
 30
0
 11
9900.4731
 21
7460.5477
 31
0
  0
LINE
  8
0
 10
9900.4731
 20
7460.5477
 30
0
 11
9342.0244
 21
8299.5706
 31
0
  0
LINE
  8
0
 10
9342.0244
 20
8299.5706
 30
0
 11
9335.2253
 21
7710.4751
 31
0
  0
LINE
  8
0
 10
9335.2253
 20
7710.4751
 30
0
 11
10221.6498
 21
6231.8523
 31
0
  0
LINE
  8
0
 10
10221.6498
 20
6231.8523
 30
0
 11
10333.6072
 21
6492.9645
 31
0
  0
LINE
  8
0
 10
10333.6072
 20
6492.9645
 30
0
 11
10194.3476
 21
6654.3847
 31
0
  0
LINE
  8
0
 10
10194.3476
 20
6654.3847
 30
0
 11
10165.8306
 21
6966.5958
 31
0
  0
LINE
  8
0
 10
10165.8306
 20
6966.5958
 30
0
 11
10297.391
 21
6737.0331
 31
0
  0
LINE
  8
0
 10
10297.391
 20
6737.0331
 30
0
 11
10045.1044
 21
7256.4221
 31
0
  0
LINE
  8
0
 10
10045.1044
 20
7256.4221
 30
0
 11
10085.4253
 21
7257.2988
 31
0
  0
LINE
  8
0
 10
10085.4253
 20
7257.2988
 30
0
 11
10196.8619
 21
7042.239
 31
0
  0
LINE
  8
0
 10
10196.8619
 20
7042.239
 30
0
 11
10499.4565
 21
7049.0161
 31
0
  0
LINE
  8
0
 10
10499.4565
 20
7049.0161
 30
0
 11
10652.8847
 21
6745.3234
 31
0
  0
LINE
  8
0
 10
10652.8847
 20
6745.3234
 30
0
 11
10698.4902
 21
6501.7421
 31
0
  0
LINE
  8
0
 10
10698.4902
 20
6501.7421
 30
0
 11
10418.3226
 21
6324.3829
 31
0
  0
LINE
  8
0
 10
10418.3226
 20
6324.3829
 30
0
 11
10725.7474
 21
5583.5726
 31
0
  0
LINE
  8
0
 10
10725.7474
 20
5583.5726
 30
0
 11
10768.5971
 21
4942.1116
 31
0
  0
LINE
  8
0
 10
10768.5971
 20
4942.1116
 30
0
 11
10776.527
 21
6245.6311
 31
0
  0
LINE
  8
0
 10
10776.527
 20
6245.6311
 30
0
 11
10844.2195
 21
6505.2478
 31
0
  0
LINE
  8
0
 10
10844.2195
 20
6505.2478
 30
0
 11
10967.5381
 21
6337.8765
 31
0
  0
LINE
  8
0
 10
10967.5381
 20
6337.8765
 30
0
 11
11023.9433
 21
6071.9178
 31
0
  0
LINE
  8
0
 10
11023.9433
 20
6071.9178
 30
0
 11
11741.1976
 21
4738.4209
 31
0
  0
LINE
  8
0
 10
11741.1976
 20
4738.4209
 30
0
 11
11818.9916
 21
4499.0967
 31
0
  0
LINE
  8
0
 10
11818.9916
 20
4499.0967
 30
0
 11
11786.414
 21
3563.3608
 31
0
  0
LINE
  8
0
 10
11786.414
 20
3563.3608
 30
0
 11
11532.3731
 21
4107.4472
 31
0
  0
LINE
  8
0
 10
11532.3731
 20
4107.4472
 30
0
 11
11605.2922
 21
4109.7321
 31
0
  0
LINE
  8
0
 10
11605.2922
 20
4109.7321
 30
0
 11
11532.3731
 21
4107.4472
 31
0
  0
LINE
  8
0
 10
11532.3731
 20
4107.4472
 30
0
 11
11205.6649
 21
4722.6486
 31
0
  0
LINE
  8
0
 10
11205.6649
 20
4722.6486
 30
0
 11
11153.7473
 21
4721.1196
 31
0
  0
LINE
  8
0
 10
11153.7473
 20
4721.1196
 30
0
 11
11190.2968
 21
4355.1173
 31
0
  0
LINE
  8
0
 10
11190.2968
 20
4355.1173
 30
0
 11
11315.3542
 21
4358.9387
 31
0
  0
LINE
  8
0
 10
11315.3542
 20
4358.9387
 30
0
 11
11834.6367
 21
3269.14
 31
0
  0
LINE
  8
0
 10
11834.6367
 20
3269.14
 30
0
 11
11573.117
 21
3106.8711
 31
0
  0
LINE
  8
0
 10
11573.117
 20
3106.8711
 30
0
 11
20877.1526
 21
-16726.9349
 31
0
  0
LINE
  8
0
 10
-4244.5228
 20
-5104.8103
 30
0
 11
-926.5719
 21
2000.1244
 31
0
  0
LINE
  8
0
 10
-926.5719
 20
2000.1244
 30
0
 11
-302.2043
 21
3164.4214
 31
0
  0
LINE
  8
0
 10
-302.2043
 20
3164.4214
 30
0
 11
-199.8691
 21
3167.7986
 31
0
  0
LINE
  8
0
 10
-199.8691
 20
3167.7986
 30
0
 11
-425.0871
 21
3160.3662
 31
0
  0
LINE
  8
0
 10
-425.0871
 20
3160.3662
 30
0
 11
-396.8748
 21
3868.8189
 31
0
  0
LINE
  8
0
 10
-396.8748
 20
3868.8189
 30
0
 11
297.2611
 21
5303.884
 31
0
  0
LINE
  8
0
 10
297.2611
 20
5303.884
 30
0
 11
399.6744
 21
5409.6041
 31
0
  0
LINE
  8
0
 10
399.6744
 20
5409.6041
 30
0
 11
433.3685
 21
5610.5691
 31
0
  0
LINE
  8
0
 10
433.3685
 20
5610.5691
 30
0
 11
610.0014
 21
5901.2811
 31
0
  0
LINE
  8
0
 10
610.0014
 20
5901.2811
 30
0
 11
1482.6444
 21
7741.1738
 31
0
  0
LINE
  8
0
 10
1482.6444
 20
7741.1738
 30
0
 11
1359.6688
 21
7548.2727
 31
0
  0
LINE
  8
0
 10
1359.6688
 20
7548.2727
 30
0
 11
1474.8128
 21
7802.5855
 31
0
  0
LINE
  8
0
 10
1474.8128
 20
7802.5855
 30
0
 11
528.8674
 21
5991.1595
 31
0
  0
LINE
  8
0
 10
528.8674
 20
5991.1595
 30
0
 11
209.9626
 21
5196.4823
 31
0
  0
LINE
  8
0
 10
209.9626
 20
5196.4823
 30
0
 11
-359.9405
 21
4131.5275
 31
0
  0
LINE
  8
0
 10
-359.9405
 20
4131.5275
 30
0
 11
-350.6576
 21
5286.507
 31
0
  0
LINE
  8
0
 10
-350.6576
 20
5286.507
 30
0
 11
-488.3181
 21
5070.1716
 31
0
  0
LINE
  8
0
 10
12108.9846
 20
733.2188
 30
0
 11
11826.9626
 21
1548.3288
 31
0
  0
LINE
  8
0
 10
11826.9626
 20
1548.3288
 30
0
 11
17646.7102
 21
-11772.1273
 31
0
  0
LINE
  8
0
 10
17646.7102
 20
-11772.1273
 30
0
 11
11022.3563
 21
3538.146
 31
0
  0
LINE
  8
0
 10
11022.3563
 20
3538.146
 30
0
 11
11240.3758
 21
4098.2973
 31
0
  0
LINE
  8
0
 10
11240.3758
 20
4098.2973
 30
0
 11
10840.9177
 21
3952.0659
 31
0
  0
LINE
  8
0
 10
10840.9177
 20
3952.0659
 30
0
 11
10284.4683
 21
5259.6654
 31
0
  0
LINE
  8
0
 10
10284.4683
 20
5259.6654
 30
0
 11
10100.6155
 21
5566.8068
 31
0
  0
LINE
  8
0
 10
10100.6155
 20
5566.8068
 30
0
 11
10231.3477
 21
5149.9257
 31
0
  0
LINE
  8
0
 10
10231.3477
 20
5149.9257
 30
0
 11
10114.4197
 21
5146.6421
 31
0
  0
LINE
  8
0
 10
10114.4197
 20
5146.6421
 30
0
 11
10411.4401
 21
4931.8423
 31
0
  0
LINE
  8
0
 10
10411.4401
 20
4931.8423
 30
0
 11
10581.5484
 21
4461.7497
 31
0
  0
LINE
  8
0
 10
10581.5484
 20
4461.7497
 30
0
 11
10392.4373
 21
4816.2145
 31
0
  0
LINE
  8
0
 10
10392.4373
 20
4816.2145
 30
0
 11
10750.1957
 21
3812.379
 31
0
  0
LINE
  8
0
 10
10750.1957
 20
3812.379
 30
0
 11
10505.5295
 21
3664.4397
 31
0
  0
LINE
  8
0
 10
10505.5295
 20
3664.4397
 30
0
 11
10542.5551
 21
3375.5861
 31
0
  0
LINE
  8
0
 10
10542.5551
 20
3375.5861
 30
0
 11
10581.4258
 21
3523.5947
 31
0
  0
LINE
  8
0
 10
10581.4258
 20
3523.5947
 30
0
 11
10780.1912
 21
3079.6289
 31
0
  0
LINE
  8
0
 10
10780.1912
 20
3079.6289
 30
0
 11
10621.1508
 21
3074.1649
 31
0
  0
LINE
  8
0
 10
10621.1508
 20
3074.1649
 30
0
 11
10911.2954
 21
2599.8009
 31
0
  0
LINE
  8
0
 10
10911.2954
 20
2599.8009
 30
0
 11
10769.3464
 21
2424.9751
 31
0
  0
LINE
  8
0
 10
10769.3464
 20
2424.9751
 30
0
 11
10972.0467
 21
1896.4632
 31
0
  0
LINE
  8
0
 10
10972.0467
 20
1896.4632
 30
0
 11
10907.4437
 21
3534.3537
 31
0
  0
LINE
  8
0
 10
10907.4437
 20
3534.3537
 30
0
 11
11760.4599
 21
1545.7295
 31
0
  0
LINE
  8
0
 10
11760.4599
 20
1545.7295
 30
0
 11
11846.0649
 21
500.5036
 31
0
  0
LINE
  8
0
 10
11846.0649
 20
500.5036
 30
0
 11
11633.6803
 21
1138.6841
 31
0
  0
LINE
  8
0
 10
11633.6803
 20
1138.6841
 30
0
 11
11284.668
 21
1720.286
 31
0
  0
LINE
  8
0
 10
11284.668
 20
1720.286
 30
0
 11
11883.8967
 21
38.5818
 31
0
  0
LINE
  8
0
 10
11883.8967
 20
38.5818
 30
0
 11
11729.5767
 21
-210.6408
 31
0
  0
LINE
  8
0
 10
7983.5069
 20
-1724.6126
 30
0
 11
8121.854
 21
-2321.2502
 31
0
  0
LINE
  8
0
 10
8121.854
 20
-2321.2502
 30
0
 11
7835.2622
 21
99.9275
 31
0
  0
LINE
  8
0
 10
12246.704
 20
1944.8207
 30
0
 11
12022.6387
 21
2804.504
 31
0
  0
LINE
  8
0
 10
12022.6387
 20
2804.504
 30
0
 11
12265.6188
 21
2648.3048
 31
0
  0
LINE
  8
0
 10
12265.6188
 20
2648.3048
 30
0
 11
12029.6044
 21
3275.7482
 31
0
  0
LINE
  8
0
 10
12029.6044
 20
3275.7482
 30
0
 11
12060.3111
 21
4123.9904
 31
0
  0
LINE
  8
0
 10
12060.3111
 20
4123.9904
 30
0
 11
19868.479
 21
-10202.0083
 31
0
  0
LINE
  8
0
 10
19868.479
 20
-10202.0083
 30
0
 11
20231.9888
 21
-13949.3102
 31
0
  0
LINE
  8
0
 10
20231.9888
 20
-13949.3102
 30
0
 11
21365.6096
 21
-16679.6121
 31
0
  0
LINE
  8
0
 10
-10629.8074
 20
-17643.1421
 30
0
 11
-10457.4228
 21
-15732.7963
 31
0
  0
LINE
  8
0
 10
-10457.4228
 20
-15732.7963
 30
0
 11
-9514.4512
 21
-13964.0632
 31
0
  0
LINE
  8
0
 10
-9514.4512
 20
-13964.0632
 30
0
 11
-10165.3954
 21
-12496.5841
 31
0
  0
LINE
  8
0
 10
-10165.3954
 20
-12496.5841
 30
0
 11
-1039.78
 21
3981.3997
 31
0
  0
LINE
  8
0
 10
-1039.78
 20
3981.3997
 30
0
 11
-1076.2959
 21
2831.5375
 31
0
  0
LINE
  8
0
 10
-1076.2959
 20
2831.5375
 30
0
 11
-4893.4908
 21
-4746.5547
 31
0
  0
LINE
  8
0
 10
-4893.4908
 20
-4746.5547
 30
0
 11
-4759.1542
 21
-4739.1269
 31
0
  0
LINE
  8
0
 10
-4759.1542
 20
-4739.1269
 30
0
 11
-6110.7547
 21
-7441.6141
 31
0
  0
LINE
  8
0
 10
-6110.7547
 20
-7441.6141
 30
0
 11
-5996.4763
 21
-7434.4357
 31
0
  0
LINE
  8
0
 10
-5996.4763
 20
-7434.4357
 30
0
 11
-4278.6236
 21
-3966.8092
 31
0
  0
LINE
  8
0
 10
-4278.6236
 20
-3966.8092
 30
0
 11
-4289.1872
 21
-3614.2814
 31
0
  0
LINE
  8
0
 10
-4289.1872
 20
-3614.2814
 30
0
 11
-1221.4494
 21
2504.0614
 31
0
  0
LINE
  8
0
 10
-1221.4494
 20
2504.0614
 30
0
 11
-971.0378
 21
2835.1051
 31
0
  0
LINE
  8
0
 10
-971.0378
 20
2835.1051
 30
0
 11
-1064.1359
 21
2170.9118
 31
0
  0
LINE
  8
0
 10
-1064.1359
 20
2170.9118
 30
0
 11
-7252.9996
 21
-10911.8631
 31
0
  0
LINE
  8
0
 10
-7252.9996
 20
-10911.8631
 30
0
 11
-1261.1423
 21
1622.4081
 31
0
  0
LINE
  8
0
 10
-1261.1423
 20
1622.4081
 30
0
 11
-1038.5068
 21
1996.0584
 31
0
  0
LINE
  8
0
 10
-1038.5068
 20
1996.0584
 30
0
 11
-1426.5333
 21
1030.3011
 31
0
  0
LINE
  8
0
 10
12253.594
 20
-1234.5182
 30
0
 11
12176.2771
 21
-440.4832
 31
0
  0
LINE
  8
0
 10
12176.2771
 20
-440.4832
 30
0
 11
15375.1061
 21
-8678.8751
 31
0
  0
LINE
  8
0
 10
15375.1061
 20
-8678.8751
 30
0
 11
17327.2623
 21
-13357.5617
 31
0
  0
LINE
  8
0
 10
17327.2623
 20
-13357.5617
 30
0
 11
16890.354
 21
-11833.1661
 31
0
  0
LINE
  8
0
 10
16890.354
 20
-11833.1661
 30
0
 11
15266.5174
 21
-8121.4208
 31
0
  0
LINE
  8
0
 10
15266.5174
 20
-8121.4208
 30
0
 11
12176.8901
 21
-190.7885
 31
0
  0
LINE
  8
0
 10
12176.8901
 20
-190.7885
 30
0
 11
12108.9846
 21
733.2188
 31
0
  0
LINE
  8
0
 10
12108.9846
 20
733.2188
 30
0
 11
20508.1223
 21
-18975.0347
 31
0
  0
LINE
  8
0
 10
-2742.6476
 20
-3533.66
 30
0
 11
-3088.6449
 21
-4268.3461
 31
0
  0
LINE
  8
0
 10
-3088.6449
 20
-4268.3461
 30
0
 11
-2402.337
 21
-2533.2175
 31
0
  0
LINE
  8
0
 10
-2402.337
 20
-2533.2175
 30
0
 11
20.2105
 21
3023.6946
 31
0
  0
LINE
  8
0
 10
20.2105
 20
3023.6946
 30
0
 11
-937.4222
 21
632.0835
 31
0
  0
LINE
  8
0
 10
-937.4222
 20
632.0835
 30
0
 11
-895.1245
 21
-37.8196
 31
0
  0
LINE
  8
0
 10
-895.1245
 20
-37.8196
 30
0
 11
-1360.3746
 21
-1319.5268
 31
0
  0
LINE
  8
0
 10
-1360.3746
 20
-1319.5268
 30
0
 11
-1063.5684
 21
-778.4158
 31
0
  0
LINE
  8
0
 10
-1063.5684
 20
-778.4158
 30
0
 11
-6247.9539
 21
-13700.4533
 31
0
  0
LINE
  8
0
 10
-6247.9539
 20
-13700.4533
 30
0
 11
-6006.6098
 21
-13680.9765
 31
0
  0
LINE
  8
0
 10
-6006.6098
 20
-13680.9765
 30
0
 11
-1036.7283
 21
-777.2246
 31
0
  0
LINE
  8
0
 10
-1036.7283
 20
-777.2246
 30
0
 11
-923.3899
 21
-1031.7421
 31
0
  0
LINE
  8
0
 10
-923.3899
 20
-1031.7421
 30
0
 11
-1906.7742
 21
-3840.7541
 31
0
  0
LINE
  8
0
 10
3318.1257
 20
-1950.4246
 30
0
 11
7995.5138
 21
-2020.7409
 31
0
  0
LINE
  8
0
 10
8219.4756
 20
-2009.7026
 30
0
 11
11512.209
 21
-1269.7675
 31
0
  0
LINE
  8
0
 10
11512.209
 20
-1269.7675
 30
0
 11
11973.3777
 21
-2441.6505
 31
0
  0
LINE
  8
0
 10
-533.2607
 20
-1842.4723
 30
0
 11
2992.6702
 21
-1674.8311
 31
0
  0
LINE
  8
0
 10
28285.4487
 20
-16009.2037
 30
0
 11
28470.5606
 21
-14091.0856
 31
0
  0
LINE
  8
0
 10
28706.6837
 20
-19316.0471
 30
0
 11
28921.4853
 21
-18102.2494
 31
0
  0
LINE
  8
0
 10
28921.4853
 20
-18102.2494
 30
0
 11
26903.9074
 21
-15158.8579
 31
0
  0
LINE
  8
0
 10
26903.9074
 20
-15158.8579
 30
0
 11
28641.4903
 21
-17017.6591
 31
0
  0
LINE
  8
0
 10
-18671.8812
 20
-15545.3331
 30
0
 11
-18602.2888
 21
-17370.1541
 31
0
  0
LINE
  8
0
 10
-11164.9004
 20
-9944.7376
 30
0
 11
-11743.6108
 21
-11237.4889
 31
0
  0
LINE
  8
0
 10
-12406.9593
 20
-16824.4183
 30
0
 11
-13692.8783
 21
-18965.6377
 31
0
  0
LINE
  8
0
 10
-13692.8783
 20
-18965.6377
 30
0
 11
-11525.1952
 21
-14951.9538
 31
0
  0
LINE
  8
0
 10
-11525.1952
 20
-14951.9538
 30
0
 11
-11267.9563
 21
-18738.2516
 31
0
  0
LINE
  8
0
 10
28242.7445
 20
-19365.933
 30
0
 11
26075.2898
 21
-16223.3285
 31
0
  0
LINE
  8
0
 10
26075.2898
 20
-16223.3285
 30
0
 11
27524.8077
 21
-18247.1379
 31
0
  0
LINE
  8
0
 10
27524.8077
 20
-18247.1379
 30
0
 11
28242.7445
 21
-19365.933
 31
0
  0
LINE
  8
0
 10
21463.1234
 20
-16670.1648
 30
0
 11
21402.126
 21
-13009.2131
 31
0
  0
LINE
  8
0
 10
21402.126
 20
-13009.2131
 30
0
 11
23256.5294
 21
-16496.4159
 31
0
  0
LINE
  8
0
 10
23256.5294
 20
-16496.4159
 30
0
 11
23001.7474
 21
-18716.351
 31
0
  0
LINE
  8
0
 10
23001.7474
 20
-18716.351
 30
0
 11
22950.1901
 21
-18721.6995
 31
0
  0
LINE
  8
0
 10
27359.8341
 20
-15116.1055
 30
0
 11
26440.068
 21
-14275.5448
 31
0
  0
LINE
  8
0
 10
26440.068
 20
-14275.5448
 30
0
 11
24906.3726
 21
-11927.0916
 31
0
  0
LINE
  8
0
 10
24906.3726
 20
-11927.0916
 30
0
 11
25112.0955
 21
-11910.0107
 31
0
  0
LINE
  8
0
 10
25112.0955
 20
-11910.0107
 30
0
 11
26795.0771
 21
-14243.2942
 31
0
  0
LINE
  8
0
 10
26795.0771
 20
-14243.2942
 30
0
 11
27359.8341
 21
-15116.1055
 31
0
  0
LINE
  8
0
 10
-16891.7094
 20
-18212.0019
 30
0
 11
-14859.6534
 21
-14395.427
 31
0
  0
LINE
  8
0
 10
-14859.6534
 20
-14395.427
 30
0
 11
-14051.458
 21
-13541.8884
 31
0
  0
LINE
  8
0
 10
-14051.458
 20
-13541.8884
 30
0
 11
-16198.3651
 21
-17158.3966
 31
0
  0
LINE
  8
0
 10
-16198.3651
 20
-17158.3966
 30
0
 11
-16891.7094
 21
-18212.0019
 31
0
  0
LINE
  8
0
 10
24349.4982
 20
-13586.6059
 30
0
 11
21664.9754
 21
-9424.425
 31
0
  0
LINE
  8
0
 10
21664.9754
 20
-9424.425
 30
0
 11
22438.9632
 21
-10005.6244
 31
0
  0
LINE
  8
0
 10
22438.9632
 20
-10005.6244
 30
0
 11
21304.8872
 21
-8259.6025
 31
0
  0
LINE
  8
0
 10
21304.8872
 20
-8259.6025
 30
0
 11
23492.7903
 21
-11300.3421
 31
0
  0
LINE
  8
0
 10
23492.7903
 20
-11300.3421
 30
0
 11
24567.8977
 21
-13567.3675
 31
0
  0
LINE
  8
0
 10
24567.8977
 20
-13567.3675
 30
0
 11
22656.4348
 21
-10660.5206
 31
0
  0
LINE
  8
0
 10
22656.4348
 20
-10660.5206
 30
0
 11
24393.202
 21
-13582.7561
 31
0
  0
LINE
  8
0
 10
24393.202
 20
-13582.7561
 30
0
 11
24349.4982
 21
-13586.6059
 31
0
  0
LINE
  8
0
 10
26606.3224
 20
-13387.8062
 30
0
 11
25399.6612
 21
-11886.1346
 31
0
  0
LINE
  8
0
 10
25399.6612
 20
-11886.1346
 30
0
 11
26050.2006
 21
-12611.8623
 31
0
  0
LINE
  8
0
 10
26050.2006
 20
-12611.8623
 30
0
 11
26606.3224
 21
-13387.8062
 31
0
  0
LINE
  8
0
 10
-16408.9728
 20
-16241.5776
 30
0
 11
-16625.2351
 21
-16260.0652
 31
0
  0
LINE
  8
0
 10
-16625.2351
 20
-16260.0652
 30
0
 11
-14196.597
 21
-12804.5663
 31
0
  0
LINE
  8
0
 10
-14196.597
 20
-12804.5663
 30
0
 11
-14004.8322
 21
-12789.9155
 31
0
  0
LINE
  8
0
 10
-14004.8322
 20
-12789.9155
 30
0
 11
-14244.5704
 21
-12808.2314
 31
0
  0
LINE
  8
0
 10
-14244.5704
 20
-12808.2314
 30
0
 11
-11901.6373
 21
-9411.1064
 31
0
  0
LINE
  8
0
 10
-11901.6373
 20
-9411.1064
 30
0
 11
-13190.4837
 21
-11342.4054
 31
0
  0
LINE
  8
0
 10
-13190.4837
 20
-11342.4054
 30
0
 11
-13008.9798
 21
-11329.2441
 31
0
  0
LINE
  8
0
 10
-13008.9798
 20
-11329.2441
 30
0
 11
-11252.0284
 21
-8809.6175
 31
0
  0
LINE
  8
0
 10
-11252.0284
 20
-8809.6175
 30
0
 11
-11481.8001
 21
-9382.8358
 31
0
  0
LINE
  8
0
 10
-11481.8001
 20
-9382.8358
 30
0
 11
-12918.2972
 21
-11322.6685
 31
0
  0
LINE
  8
0
 10
-12918.2972
 20
-11322.6685
 30
0
 11
-11439.8709
 21
-9380.0124
 31
0
  0
LINE
  8
0
 10
-11439.8709
 20
-9380.0124
 30
0
 11
-13214.5444
 21
-12019.7442
 31
0
  0
LINE
  8
0
 10
-13214.5444
 20
-12019.7442
 30
0
 11
-12465.5758
 21
-11289.8405
 31
0
  0
LINE
  8
0
 10
-12465.5758
 20
-11289.8405
 30
0
 11
-14002.2922
 21
-13538.0292
 31
0
  0
LINE
  8
0
 10
-14002.2922
 20
-13538.0292
 30
0
 11
-13813.2731
 21
-12775.2805
 31
0
  0
LINE
  8
0
 10
-13813.2731
 20
-12775.2805
 30
0
 11
-15559.1112
 21
-15286.8842
 31
0
  0
LINE
  8
0
 10
-15559.1112
 20
-15286.8842
 30
0
 11
-13909.027
 21
-12782.5961
 31
0
  0
LINE
  8
0
 10
-13909.027
 20
-12782.5961
 30
0
 11
-15716.0948
 21
-15299.9183
 31
0
  0
LINE
  8
0
 10
-15716.0948
 20
-15299.9183
 30
0
 11
-16408.9728
 21
-16241.5776
 31
0
  0
LINE
  8
0
 10
-17029.654
 20
-15408.9813
 30
0
 11
-16643.4228
 21
-14539.3792
 31
0
  0
LINE
  8
0
 10
-16643.4228
 20
-14539.3792
 30
0
 11
-16387.5113
 21
-14518.7268
 31
0
  0
LINE
  8
0
 10
-16387.5113
 20
-14518.7268
 30
0
 11
-17029.654
 21
-15408.9813
 31
0
  0
LINE
  8
0
 10
-16397.9478
 20
-15356.5316
 30
0
 11
-16766.1736
 21
-15387.1049
 31
0
  0
LINE
  8
0
 10
-16766.1736
 20
-15387.1049
 30
0
 11
-15825.7852
 21
-14473.3949
 31
0
  0
LINE
  8
0
 10
-15825.7852
 20
-14473.3949
 30
0
 11
-16397.9478
 21
-15356.5316
 31
0
  0
LINE
  8
0
 10
-14724.179
 20
-15217.5609
 30
0
 11
-15654.0975
 21
-16177.0454
 31
0
  0
LINE
  8
0
 10
-15654.0975
 20
-16177.0454
 30
0
 11
-12935.6063
 21
-11998.989
 31
0
  0
LINE
  8
0
 10
-12935.6063
 20
-11998.989
 30
0
 11
-12796.301
 21
-11988.6235
 31
0
  0
LINE
  8
0
 10
-12796.301
 20
-11988.6235
 30
0
 11
-11679.5018
 21
-9980.2363
 31
0
  0
LINE
  8
0
 10
-11679.5018
 20
-9980.2363
 30
0
 11
-11021.1243
 21
-9351.8152
 31
0
  0
LINE
  8
0
 10
-11021.1243
 20
-9351.8152
 30
0
 11
-14201.6064
 21
-14342.3219
 31
0
  0
LINE
  8
0
 10
-14201.6064
 20
-14342.3219
 30
0
 11
-14724.179
 21
-15217.5609
 31
0
  0
LINE
  8
0
 10
23654.4297
 20
-11287.2977
 30
0
 11
23998.0217
 21
-12002.5107
 31
0
  0
LINE
  8
0
 10
23998.0217
 20
-12002.5107
 30
0
 11
22156.473
 21
-9387.8535
 31
0
  0
LINE
  8
0
 10
22156.473
 20
-9387.8535
 30
0
 11
21521.7294
 21
-8244.2704
 31
0
  0
LINE
  8
0
 10
21521.7294
 20
-8244.2704
 30
0
 11
23170.237
 21
-10620.19
 31
0
  0
LINE
  8
0
 10
23170.237
 20
-10620.19
 30
0
 11
23654.4297
 21
-11287.2977
 31
0
  0
LINE
  8
0
 10
23896.5825
 20
-11267.7557
 30
0
 11
24163.5618
 21
-11988.7662
 31
0
  0
LINE
  8
0
 10
24163.5618
 20
-11988.7662
 30
0
 11
22747.7624
 21
-9982.0322
 31
0
  0
LINE
  8
0
 10
22747.7624
 20
-9982.0322
 30
0
 11
21666.1287
 21
-8234.0605
 31
0
  0
LINE
  8
0
 10
21666.1287
 20
-8234.0605
 30
0
 11
23017.4745
 21
-9961.4264
 31
0
  0
LINE
  8
0
 10
23017.4745
 20
-9961.4264
 30
0
 11
21525.587
 21
-7689.6518
 31
0
  0
LINE
  8
0
 10
21525.587
 20
-7689.6518
 30
0
 11
21948.4516
 21
-7660.4813
 31
0
  0
LINE
  8
0
 10
21948.4516
 20
-7660.4813
 30
0
 11
23957.4935
 21
-10558.3947
 31
0
  0
LINE
  8
0
 10
23957.4935
 20
-10558.3947
 30
0
 11
23936.9057
 21
-11264.5015
 31
0
  0
LINE
  8
0
 10
23936.9057
 20
-11264.5015
 30
0
 11
23896.5825
 21
-11267.7557
 31
0
  0
LINE
  8
0
 10
-14988.1867
 20
-13615.4164
 30
0
 11
-15334.5367
 21
-13642.603
 31
0
  0
LINE
  8
0
 10
-15334.5367
 20
-13642.603
 30
0
 11
-13463.0866
 21
-11362.1726
 31
0
  0
LINE
  8
0
 10
-13463.0866
 20
-11362.1726
 30
0
 11
-14436.5928
 21
-12822.9019
 31
0
  0
LINE
  8
0
 10
-14436.5928
 20
-12822.9019
 30
0
 11
-14988.1867
 21
-13615.4164
 31
0
  0
LINE
  8
0
 10
-13609.4523
 20
-13507.1934
 30
0
 11
-11754.7686
 21
-10597.1267
 31
0
  0
LINE
  8
0
 10
-11754.7686
 20
-10597.1267
 30
0
 11
-12858.5511
 21
-12702.3401
 31
0
  0
LINE
  8
0
 10
-12858.5511
 20
-12702.3401
 30
0
 11
-14201.6064
 21
-14342.3219
 31
0
  0
LINE
  8
0
 10
-14201.6064
 20
-14342.3219
 30
0
 11
-13609.4523
 21
-13507.1934
 31
0
  0
LINE
  8
0
 10
24975.1549
 20
-10478.5139
 30
0
 11
24701.8079
 21
-10499.9701
 31
0
  0
LINE
  8
0
 10
24701.8079
 20
-10499.9701
 30
0
 11
24473.7396
 21
-9850.1683
 31
0
  0
LINE
  8
0
 10
24473.7396
 20
-9850.1683
 30
0
 11
24975.1549
 21
-10478.5139
 31
0
  0
LINE
  8
0
 10
-14292.5567
 20
-12811.8976
 30
0
 11
-14988.1867
 21
-13615.4164
 31
0
  0
LINE
  8
0
 10
-14988.1867
 20
-13615.4164
 30
0
 11
-12411.0842
 21
-10030.703
 31
0
  0
LINE
  8
0
 10
-12411.0842
 20
-10030.703
 30
0
 11
-13820.4116
 21
-12064.8257
 31
0
  0
LINE
  8
0
 10
-13820.4116
 20
-12064.8257
 30
0
 11
-14292.5567
 21
-12811.8976
 31
0
  0
LINE
  8
0
 10
-13096.7526
 20
-12720.5386
 30
0
 11
-14201.6064
 21
-14342.3219
 31
0
  0
LINE
  8
0
 10
-14201.6064
 20
-14342.3219
 30
0
 11
-11754.7686
 21
-10597.1267
 31
0
  0
LINE
  8
0
 10
-11754.7686
 20
-10597.1267
 30
0
 11
-12858.5511
 21
-12702.3401
 31
0
  0
LINE
  8
0
 10
-12858.5511
 20
-12702.3401
 30
0
 11
-14672.1247
 21
-15213.239
 31
0
  0
LINE
  8
0
 10
-14672.1247
 20
-15213.239
 30
0
 11
-13609.4523
 21
-13507.1934
 31
0
  0
LINE
  8
0
 10
-13609.4523
 20
-13507.1934
 30
0
 11
-13096.7526
 21
-12720.5386
 31
0
  0
LINE
  8
0
 10
24130.0331
 20
-9876.4273
 30
0
 11
24232.119
 21
-10536.8381
 31
0
  0
LINE
  8
0
 10
24232.119
 20
-10536.8381
 30
0
 11
23284.9837
 21
-9303.8832
 31
0
  0
LINE
  8
0
 10
23284.9837
 20
-9303.8832
 30
0
 11
22990.3938
 21
-8718.8363
 31
0
  0
LINE
  8
0
 10
22990.3938
 20
-8718.8363
 30
0
 11
21598.2395
 21
-7155.3231
 31
0
  0
LINE
  8
0
 10
21598.2395
 20
-7155.3231
 30
0
 11
22457.8546
 21
-7097.4391
 31
0
  0
LINE
  8
0
 10
22457.8546
 20
-7097.4391
 30
0
 11
22004.3617
 21
-6622.5602
 31
0
  0
LINE
  8
0
 10
22004.3617
 20
-6622.5602
 30
0
 11
21442.4291
 21
-5710.8564
 31
0
  0
LINE
  8
0
 10
21442.4291
 20
-5710.8564
 30
0
 11
22663.4788
 21
-7083.593
 31
0
  0
LINE
  8
0
 10
22663.4788
 20
-7083.593
 30
0
 11
24107.5288
 21
-9242.6792
 31
0
  0
LINE
  8
0
 10
24107.5288
 20
-9242.6792
 30
0
 11
23659.3929
 21
-9276.0241
 31
0
  0
LINE
  8
0
 10
23659.3929
 20
-9276.0241
 30
0
 11
24130.0331
 21
-9876.4273
 31
0
  0
LINE
  8
0
 10
24968.8991
 20
-9812.3383
 30
0
 11
24702.4661
 21
-9832.6937
 31
0
  0
LINE
  8
0
 10
24702.4661
 20
-9832.6937
 30
0
 11
24480.0164
 21
-9214.9631
 31
0
  0
LINE
  8
0
 10
24480.0164
 20
-9214.9631
 30
0
 11
24968.8991
 21
-9812.3383
 31
0
  0
LINE
  8
0
 10
-16217.3003
 20
-12243.1736
 30
0
 11
-15843.2302
 21
-11534.7629
 31
0
  0
LINE
  8
0
 10
-15843.2302
 20
-11534.7629
 30
0
 11
-11473.008
 21
-5930.652
 31
0
  0
LINE
  8
0
 10
-11473.008
 20
-5930.652
 30
0
 11
-11038.7383
 21
-5905.6357
 31
0
  0
LINE
  8
0
 10
-11038.7383
 20
-5905.6357
 30
0
 11
-14362.2652
 21
-10165.3012
 31
0
  0
LINE
  8
0
 10
-14362.2652
 20
-10165.3012
 30
0
 11
-12790.1899
 21
-7861.184
 31
0
  0
LINE
  8
0
 10
-12790.1899
 20
-7861.184
 30
0
 11
-11858.0413
 21
-6840.3685
 31
0
  0
LINE
  8
0
 10
-11858.0413
 20
-6840.3685
 30
0
 11
-11680.1047
 21
-6377.3462
 31
0
  0
LINE
  8
0
 10
-11680.1047
 20
-6377.3462
 30
0
 11
-14624.0416
 21
-10183.3593
 31
0
  0
LINE
  8
0
 10
-14624.0416
 20
-10183.3593
 30
0
 11
-14994.2145
 21
-10826.1758
 31
0
  0
LINE
  8
0
 10
-14994.2145
 20
-10826.1758
 30
0
 11
-16169.9932
 21
-12239.6536
 31
0
  0
LINE
  8
0
 10
-16169.9932
 20
-12239.6536
 30
0
 11
-16217.3003
 21
-12243.1736
 31
0
  0
LINE
  8
0
 10
24013.2918
 20
-8644.6633
 30
0
 11
23831.111
 21
-8657.8737
 31
0
  0
LINE
  8
0
 10
23831.111
 20
-8657.8737
 30
0
 11
21384.1865
 21
-5269.4396
 31
0
  0
LINE
  8
0
 10
21384.1865
 20
-5269.4396
 30
0
 11
22162.0751
 21
-6128.7442
 31
0
  0
LINE
  8
0
 10
22162.0751
 20
-6128.7442
 30
0
 11
22407.4639
 21
-6596.0508
 31
0
  0
LINE
  8
0
 10
22407.4639
 20
-6596.0508
 30
0
 11
23280.2184
 21
-7568.6121
 31
0
  0
LINE
  8
0
 10
23280.2184
 20
-7568.6121
 30
0
 11
23567.2523
 21
-8099.6392
 31
0
  0
LINE
  8
0
 10
23567.2523
 20
-8099.6392
 30
0
 11
24013.2918
 21
-8644.6633
 31
0
  0
LINE
  8
0
 10
-13433.7091
 20
-10715.8383
 30
0
 11
-12702.0724
 21
-9465.0053
 31
0
  0
LINE
  8
0
 10
-12702.0724
 20
-9465.0053
 30
0
 11
-12972.5679
 21
-10069.4358
 31
0
  0
LINE
  8
0
 10
-12972.5679
 20
-10069.4358
 30
0
 11
-13433.7091
 21
-10715.8383
 31
0
  0
LINE
  8
0
 10
9066.9602
 20
-9124.9004
 30
0
 11
8640.1449
 21
-6052.3336
 31
0
  0
LINE
  8
0
 10
8640.1449
 20
-6052.3336
 30
0
 11
8987.7318
 21
-8554.5498
 31
0
  0
LINE
  8
0
 10
8987.7318
 20
-8554.5498
 30
0
 11
9066.9602
 21
-9124.9004
 31
0
  0
LINE
  8
0
 10
23745.4438
 20
-8087.0399
 30
0
 11
23638.5527
 21
-8094.5978
 31
0
  0
LINE
  8
0
 10
23638.5527
 20
-8094.5978
 30
0
 11
21574.1301
 21
-5257.771
 31
0
  0
LINE
  8
0
 10
21574.1301
 20
-5257.771
 30
0
 11
23384.8878
 21
-7561.3917
 31
0
  0
LINE
  8
0
 10
23384.8878
 20
-7561.3917
 30
0
 11
23745.4438
 21
-8087.0399
 31
0
  0
LINE
  8
0
 10
-13752.9405
 20
-10123.2682
 30
0
 11
-13883.3352
 21
-10132.2632
 31
0
  0
LINE
  8
0
 10
-13883.3352
 20
-10132.2632
 30
0
 11
-11734.9863
 21
-7304.0218
 31
0
  0
LINE
  8
0
 10
-11734.9863
 20
-7304.0218
 30
0
 11
-11518.3546
 21
-6819.9516
 31
0
  0
LINE
  8
0
 10
-11518.3546
 20
-6819.9516
 30
0
 11
-10978.6075
 21
-6336.0768
 31
0
  0
LINE
  8
0
 10
-10978.6075
 20
-6336.0768
 30
0
 11
-13294.1796
 21
-9504.8761
 31
0
  0
LINE
  8
0
 10
-13294.1796
 20
-9504.8761
 30
0
 11
-13752.9405
 21
-10123.2682
 31
0
  0
LINE
  8
0
 10
-12842.8374
 20
-10060.4866
 30
0
 11
-11135.7023
 21
-7757.257
 31
0
  0
LINE
  8
0
 10
-11135.7023
 20
-7757.257
 30
0
 11
-13736.1068
 21
-11381.97
 31
0
  0
LINE
  8
0
 10
-13736.1068
 20
-11381.97
 30
0
 11
-13433.7091
 21
-10715.8383
 31
0
  0
LINE
  8
0
 10
-13433.7091
 20
-10715.8383
 30
0
 11
-12448.9139
 21
-9447.9584
 31
0
  0
LINE
  8
0
 10
-12448.9139
 20
-9447.9584
 30
0
 11
-12842.8374
 21
-10060.4866
 31
0
  0
LINE
  8
0
 10
-13548.5434
 20
-9522.0042
 30
0
 11
-12120.717
 21
-7327.718
 31
0
  0
LINE
  8
0
 10
-12120.717
 20
-7327.718
 30
0
 11
-11236.7309
 21
-6351.2623
 31
0
  0
LINE
  8
0
 10
-11236.7309
 20
-6351.2623
 30
0
 11
-13104.8414
 21
-8931.465
 31
0
  0
LINE
  8
0
 10
-13104.8414
 20
-8931.465
 30
0
 11
-13548.5434
 21
-9522.0042
 31
0
  0
LINE
  8
0
 10
-13040.1783
 20
-9487.7724
 30
0
 11
-13209.4723
 21
-9499.1721
 31
0
  0
LINE
  8
0
 10
-13209.4723
 20
-9499.1721
 30
0
 11
-11580.9284
 21
-7294.5577
 31
0
  0
LINE
  8
0
 10
-11580.9284
 20
-7294.5577
 30
0
 11
-11104.0636
 21
-6795.0507
 31
0
  0
LINE
  8
0
 10
-11104.0636
 20
-6795.0507
 30
0
 11
-12076.2418
 21
-8328.8178
 31
0
  0
LINE
  8
0
 10
-12076.2418
 20
-8328.8178
 30
0
 11
-12567.5977
 21
-8896.134
 31
0
  0
LINE
  8
0
 10
-12567.5977
 20
-8896.134
 30
0
 11
-13040.1783
 21
-9487.7724
 31
0
  0
LINE
  8
0
 10
-2968.8593
 20
-8809.5993
 30
0
 11
-1028.1794
 21
-3106.6729
 31
0
  0
LINE
  8
0
 10
-1028.1794
 20
-3106.6729
 30
0
 11
-2776.2511
 21
-8252.2205
 31
0
  0
LINE
  8
0
 10
-2776.2511
 20
-8252.2205
 30
0
 11
-2968.8593
 21
-8809.5993
 31
0
  0
LINE
  8
0
 10
-12361.3966
 20
-8882.5735
 30
0
 11
-12702.0724
 21
-9465.0053
 31
0
  0
LINE
  8
0
 10
-12702.0724
 20
-9465.0053
 30
0
 11
-13833.6818
 21
-10744.1188
 31
0
  0
LINE
  8
0
 10
-13833.6818
 20
-10744.1188
 30
0
 11
-11995.7291
 21
-8323.6443
 31
0
  0
LINE
  8
0
 10
-11995.7291
 20
-8323.6443
 30
0
 11
-12361.3966
 21
-8882.5735
 31
0
  0
LINE
  8
0
 10
16844.0228
 20
-6961.9222
 30
0
 11
17017.5478
 21
-6950.5106
 31
0
  0
LINE
  8
0
 10
17017.5478
 20
-6950.5106
 30
0
 11
15387.5309
 21
-3625.1663
 31
0
  0
LINE
  8
0
 10
15387.5309
 20
-3625.1663
 30
0
 11
15208.6559
 21
-3635.0568
 31
0
  0
LINE
  8
0
 10
15208.6559
 20
-3635.0568
 30
0
 11
16609.8396
 21
-6485.5178
 31
0
  0
LINE
  8
0
 10
16609.8396
 20
-6485.5178
 30
0
 11
16844.0228
 21
-6961.9222
 31
0
  0
LINE
  8
0
 10
-11915.253
 20
-8318.4731
 30
0
 11
-11388.544
 21
-7282.7391
 31
0
  0
LINE
  8
0
 10
-11388.544
 20
-7282.7391
 30
0
 11
-11081.1626
 21
-7263.856
 31
0
  0
LINE
  8
0
 10
-11081.1626
 20
-7263.856
 30
0
 11
-11875.0286
 21
-8315.8884
 31
0
  0
LINE
  8
0
 10
-11875.0286
 20
-8315.8884
 30
0
 11
-11915.253
 21
-8318.4731
 31
0
  0
LINE
  8
0
 10
16551.8909
 20
-6018.0563
 30
0
 11
16418.5513
 21
-6026.4321
 31
0
  0
LINE
  8
0
 10
16418.5513
 20
-6026.4321
 30
0
 11
15477.6828
 21
-3991.9476
 31
0
  0
LINE
  8
0
 10
15477.6828
 20
-3991.9476
 30
0
 11
16365.678
 21
-5577.7374
 31
0
  0
LINE
  8
0
 10
16365.678
 20
-5577.7374
 30
0
 11
16551.8909
 21
-6018.0563
 31
0
  0
LINE
  8
0
 10
14459.6747
 20
-5694.8273
 30
0
 11
13446.5123
 21
-3372.145
 31
0
  0
LINE
  8
0
 10
13446.5123
 20
-3372.145
 30
0
 11
14285.0347
 21
-5269.0386
 31
0
  0
LINE
  8
0
 10
14285.0347
 20
-5269.0386
 30
0
 11
14459.6747
 21
-5694.8273
 31
0
  0
LINE
  8
0
 10
-5549.7003
 20
-6461.2056
 30
0
 11
-4530.7704
 21
-4346.5089
 31
0
  0
LINE
  8
0
 10
-4530.7704
 20
-4346.5089
 30
0
 11
-5322.1345
 21
-6003.3041
 31
0
  0
LINE
  8
0
 10
-5322.1345
 20
-6003.3041
 30
0
 11
-5549.7003
 21
-6461.2056
 31
0
  0
LINE
  8
0
 10
13308.787
 20
-4114.3317
 30
0
 11
12070.9253
 21
-968.7045
 31
0
  0
LINE
  8
0
 10
12070.9253
 20
-968.7045
 30
0
 11
13167.6783
 21
-3747.9075
 31
0
  0
LINE
  8
0
 10
13167.6783
 20
-3747.9075
 30
0
 11
13308.787
 21
-4114.3317
 31
0
  0
LINE
  8
0
 10
-1811.3009
 20
-3835.6801
 30
0
 11
-889.5191
 21
-1297.9082
 31
0
  0
LINE
  8
0
 10
-889.5191
 20
-1297.9082
 30
0
 11
-1677.6034
 21
-3478.139
 31
0
  0
LINE
  8
0
 10
-1677.6034
 20
-3478.139
 30
0
 11
-1811.3009
 21
-3835.6801
 31
0
  0
LINE
  8
0
 10
14824.8279
 20
-2617.8636
 30
0
 11
13053.5457
 21
987.2015
 31
0
  0
LINE
  8
0
 10
13053.5457
 20
987.2015
 30
0
 11
14668.4784
 21
-2303.7976
 31
0
  0
LINE
  8
0
 10
14668.4784
 20
-2303.7976
 30
0
 11
14824.8279
 21
-2617.8636
 31
0
  0
LINE
  8
0
 10
-3500.7382
 20
-2280.4687
 30
0
 11
-1680.5512
 21
1416.4531
 31
0
  0
LINE
  8
0
 10
-1680.5512
 20
1416.4531
 30
0
 11
-3349.1202
 21
-1976.3531
 31
0
  0
LINE
  8
0
 10
-3349.1202
 20
-1976.3531
 30
0
 11
-3500.7382
 21
-2280.4687
 31
0
  0
LINE
  8
0
 10
6658.2152
 20
-951.3661
 30
0
 11
5169.9363
 21
-1019.698
 31
0
  0
LINE
  8
0
 10
5169.9363
 20
-1019.698
 30
0
 11
6615.5724
 21
-691.4679
 31
0
  0
LINE
  8
0
 10
6615.5724
 20
-691.4679
 30
0
 11
6658.2152
 21
-951.3661
 31
0
  0
LINE
  8
0
 10
7081.0337
 20
-931.9531
 30
0
 11
6764.0195
 21
-946.5083
 31
0
  0
LINE
  8
0
 10
6764.0195
 20
-946.5083
 30
0
 11
7031.95
 21
-672.6745
 31
0
  0
LINE
  8
0
 10
7031.95
 20
-672.6745
 30
0
 11
7081.0337
 21
-931.9531
 31
0
  0
LINE
  8
0
 10
7870.9615
 20
-895.6848
 30
0
 11
7517.321
 21
-152.0177
 31
0
  0
LINE
  8
0
 10
7517.321
 20
-152.0177
 30
0
 11
4959.1285
 21
-263.6819
 31
0
  0
LINE
  8
0
 10
4959.1285
 20
-263.6819
 30
0
 11
5382.2161
 21
886.7574
 31
0
  0
LINE
  8
0
 10
5382.2161
 20
886.7574
 30
0
 11
6074.3166
 21
701.5349
 31
0
  0
LINE
  8
0
 10
6074.3166
 20
701.5349
 30
0
 11
6237.7996
 21
1329.8701
 31
0
  0
LINE
  8
0
 10
6237.7996
 20
1329.8701
 30
0
 11
7531.8402
 21
1765.9498
 31
0
  0
LINE
  8
0
 10
7531.8402
 20
1765.9498
 30
0
 11
7704.0679
 21
1186.5586
 31
0
  0
LINE
  8
0
 10
7704.0679
 20
1186.5586
 30
0
 11
6350.2246
 21
925.767
 31
0
  0
LINE
  8
0
 10
6350.2246
 20
925.767
 30
0
 11
6751.7892
 21
285.2673
 31
0
  0
LINE
  8
0
 10
6751.7892
 20
285.2673
 30
0
 11
7242.1085
 21
749.3337
 31
0
  0
LINE
  8
0
 10
7242.1085
 20
749.3337
 30
0
 11
7414.5319
 21
81.8614
 31
0
  0
LINE
  8
0
 10
7414.5319
 20
81.8614
 30
0
 11
7479.4401
 21
759.0479
 31
0
  0
LINE
  8
0
 10
7479.4401
 20
759.0479
 30
0
 11
7835.7571
 21
-636.3944
 31
0
  0
LINE
  8
0
 10
7835.7571
 20
-636.3944
 30
0
 11
7870.9615
 21
-895.6848
 31
0
  0
LINE
  8
0
 10
-592.1449
 20
-505.993
 30
0
 11
-654.8398
 21
-264.6356
 31
0
  0
LINE
  8
0
 10
-654.8398
 20
-264.6356
 30
0
 11
-498.9993
 21
-257.9438
 31
0
  0
LINE
  8
0
 10
-498.9993
 20
-257.9438
 30
0
 11
-592.1449
 21
-505.993
 31
0
  0
LINE
  8
0
 10
9311.8025
 20
163.3298
 30
0
 11
9154.9002
 21
827.6261
 31
0
  0
LINE
  8
0
 10
9154.9002
 20
827.6261
 30
0
 11
9248.7949
 21
831.4693
 31
0
  0
LINE
  8
0
 10
9248.7949
 20
831.4693
 30
0
 11
8613.9797
 21
805.4857
 31
0
  0
LINE
  8
0
 10
8613.9797
 20
805.4857
 30
0
 11
9233.8389
 21
390.1354
 31
0
  0
LINE
  8
0
 10
9233.8389
 20
390.1354
 30
0
 11
9311.8025
 21
163.3298
 31
0
  0
LINE
  8
0
 10
14908.625
 20
629.8987
 30
0
 11
12689.9609
 21
4273.7528
 31
0
  0
LINE
  8
0
 10
12689.9609
 20
4273.7528
 30
0
 11
14778.1381
 21
844.2057
 31
0
  0
LINE
  8
0
 10
14778.1381
 20
844.2057
 30
0
 11
14908.625
 21
629.8987
 31
0
  0
LINE
  8
0
 10
-497.2992
 20
209.0332
 30
0
 11
-536.515
 21
-22.6681
 31
0
  0
LINE
  8
0
 10
-536.515
 20
-22.6681
 30
0
 11
-623.4174
 21
203.789
 31
0
  0
LINE
  8
0
 10
-623.4174
 20
203.789
 30
0
 11
-434.3548
 21
435.1287
 31
0
  0
LINE
  8
0
 10
-434.3548
 20
435.1287
 30
0
 11
-497.2992
 21
209.0332
 31
0
  0
LINE
  8
0
 10
1099.3255
 20
497.9037
 30
0
 11
2399.5628
 21
551.1237
 31
0
  0
LINE
  8
0
 10
2399.5628
 20
551.1237
 30
0
 11
1017.172
 21
710.8513
 31
0
  0
LINE
  8
0
 10
1017.172
 20
710.8513
 30
0
 11
1138.5972
 21
715.7446
 31
0
  0
LINE
  8
0
 10
1138.5972
 20
715.7446
 30
0
 11
1099.3255
 21
497.9037
 31
0
  0
LINE
  8
0
 10
9553.5882
 20
843.9448
 30
0
 11
9670.6684
 21
848.737
 31
0
  0
LINE
  8
0
 10
9670.6684
 20
848.737
 30
0
 11
9577.0108
 21
844.9035
 31
0
  0
LINE
  8
0
 10
9577.0108
 20
844.9035
 30
0
 11
9553.5882
 21
843.9448
 31
0
  0
LINE
  8
0
 10
311.2024
 20
682.4016
 30
0
 11
457.504
 21
688.2974
 31
0
  0
LINE
  8
0
 10
457.504
 20
688.2974
 30
0
 11
385.0516
 21
896.11
 31
0
  0
LINE
  8
0
 10
385.0516
 20
896.11
 30
0
 11
311.2024
 21
682.4016
 31
0
  0
LINE
  8
0
 10
5713.3805
 20
900.103
 30
0
 11
5595.182
 21
895.3397
 31
0
  0
LINE
  8
0
 10
5595.182
 20
895.3397
 30
0
 11
6014.3096
 21
1119.5021
 31
0
  0
LINE
  8
0
 10
6014.3096
 20
1119.5021
 30
0
 11
5737.0102
 21
901.0552
 31
0
  0
LINE
  8
0
 10
5737.0102
 20
901.0552
 30
0
 11
5713.3805
 21
900.103
 31
0
  0
LINE
  8
0
 10
4659.5789
 20
1065.7408
 30
0
 11
4542.2819
 21
1061.086
 31
0
  0
LINE
  8
0
 10
4542.2819
 20
1061.086
 30
0
 11
4649.0662
 21
1267.7727
 31
0
  0
LINE
  8
0
 10
4649.0662
 20
1267.7727
 30
0
 11
4659.5789
 21
1065.7408
 31
0
  0
LINE
  8
0
 10
-518.02
 20
1065.8113
 30
0
 11
-637.2875
 21
1061.1496
 31
0
  0
LINE
  8
0
 10
-637.2875
 20
1061.1496
 30
0
 11
-458.169
 21
1268.1376
 31
0
  0
LINE
  8
0
 10
-458.169
 20
1268.1376
 30
0
 11
-518.02
 21
1065.8113
 31
0
  0
LINE
  8
0
 10
8920.4846
 20
1434.7259
 30
0
 11
10670.4576
 21
1503.1255
 31
0
  0
LINE
  8
0
 10
10670.4576
 20
1503.1255
 30
0
 11
10517.7133
 21
2241.5808
 31
0
  0
LINE
  8
0
 10
10517.7133
 20
2241.5808
 30
0
 11
8691.9397
 21
2520.3167
 31
0
  0
LINE
  8
0
 10
8691.9397
 20
2520.3167
 30
0
 11
8815.6921
 21
2354.0092
 31
0
  0
LINE
  8
0
 10
8815.6921
 20
2354.0092
 30
0
 11
8573.9263
 21
1990.1015
 31
0
  0
LINE
  8
0
 10
8573.9263
 20
1990.1015
 30
0
 11
8462.0999
 21
2512.0852
 31
0
  0
LINE
  8
0
 10
8462.0999
 20
2512.0852
 30
0
 11
8064.3592
 21
2497.8405
 31
0
  0
LINE
  8
0
 10
8064.3592
 20
2497.8405
 30
0
 11
7637.6021
 21
1955.0962
 31
0
  0
LINE
  8
0
 10
7637.6021
 20
1955.0962
 30
0
 11
8853.8928
 21
1626.691
 31
0
  0
LINE
  8
0
 10
8853.8928
 20
1626.691
 30
0
 11
8920.4846
 21
1434.7259
 31
0
  0
LINE
  8
0
 10
-446.325
 20
1463.2768
 30
0
 11
-608.8294
 21
1457.1118
 31
0
  0
LINE
  8
0
 10
-608.8294
 20
1457.1118
 30
0
 11
-388.9992
 21
1655.014
 31
0
  0
LINE
  8
0
 10
-388.9992
 20
1655.014
 30
0
 11
-446.325
 21
1463.2768
 31
0
  0
LINE
  8
0
 10
706.3628
 20
1695.9652
 30
0
 11
1613.8436
 21
1729.8922
 31
0
  0
LINE
  8
0
 10
1613.8436
 20
1729.8922
 30
0
 11
770.1996
 21
1882.3997
 31
0
  0
LINE
  8
0
 10
770.1996
 20
1882.3997
 30
0
 11
706.3628
 21
1695.9652
 31
0
  0
LINE
  8
0
 10
9412.3925
 20
2200.8514
 30
0
 11
9198.9882
 21
2192.9878
 31
0
  0
LINE
  8
0
 10
9198.9882
 20
2192.9878
 30
0
 11
9343.1211
 21
2373.1679
 31
0
  0
LINE
  8
0
 10
9343.1211
 20
2373.1679
 30
0
 11
9412.3925
 21
2200.8514
 31
0
  0
LINE
  8
0
 10
4817.0385
 20
2208.7593
 30
0
 11
4600.5113
 21
2200.894
 31
0
  0
LINE
  8
0
 10
4600.5113
 20
2200.894
 30
0
 11
4805.3486
 21
2381.122
 31
0
  0
LINE
  8
0
 10
4805.3486
 20
2381.122
 30
0
 11
4817.0385
 21
2208.7593
 31
0
  0
LINE
  8
0
 10
345.4856
 20
2221.3961
 30
0
 11
454.8623
 21
2395.9745
 31
0
  0
LINE
  8
0
 10
454.8623
 20
2395.9745
 30
0
 11
281.5838
 21
2389.855
 31
0
  0
LINE
  8
0
 10
281.5838
 20
2389.855
 30
0
 11
389.9034
 21
2393.6804
 31
0
  0
LINE
  8
0
 10
389.9034
 20
2393.6804
 30
0
 11
345.4856
 21
2221.3961
 31
0
  0
LINE
  8
0
 10
9713.1349
 20
2884.918
 30
0
 11
9895.2284
 21
2891.2604
 31
0
  0
LINE
  8
0
 10
9895.2284
 20
2891.2604
 30
0
 11
9683.7065
 21
3041.9575
 31
0
  0
LINE
  8
0
 10
9683.7065
 20
3041.9575
 30
0
 11
9713.1349
 21
2884.918
 31
0
  0
LINE
  8
0
 10
4998.3714
 20
2880.9857
 30
0
 11
4359.5661
 21
2859.0386
 31
0
  0
LINE
  8
0
 10
4359.5661
 20
2859.0386
 30
0
 11
3922.7159
 21
3732.4972
 31
0
  0
LINE
  8
0
 10
3922.7159
 20
3732.4972
 30
0
 11
4474.7178
 21
3886.292
 31
0
  0
LINE
  8
0
 10
4474.7178
 20
3886.292
 30
0
 11
4985.083
 21
3036.9816
 31
0
  0
LINE
  8
0
 10
4985.083
 20
3036.9816
 30
0
 11
4998.3714
 21
2880.9857
 31
0
  0
LINE
  8
0
 10
9983.4645
 20
3052.2562
 30
0
 11
10036.6581
 21
3358.6677
 31
0
  0
LINE
  8
0
 10
10036.6581
 20
3358.6677
 30
0
 11
10003.4292
 21
3052.9421
 31
0
  0
LINE
  8
0
 10
10003.4292
 20
3052.9421
 30
0
 11
9983.4645
 21
3052.2562
 31
0
  0
LINE
  8
0
 10
2919.9187
 20
2966.985
 30
0
 11
2850.043
 21
3118.3307
 31
0
  0
LINE
  8
0
 10
2850.043
 20
3118.3307
 30
0
 11
2931.3713
 21
3121.0505
 31
0
  0
LINE
  8
0
 10
2931.3713
 20
3121.0505
 30
0
 11
2919.9187
 21
2966.985
 31
0
  0
LINE
  8
0
 10
3965.8669
 20
3002.4363
 30
0
 11
3407.2018
 21
2826.3186
 31
0
  0
LINE
  8
0
 10
3407.2018
 20
2826.3186
 30
0
 11
2974.587
 21
3702.4056
 31
0
  0
LINE
  8
0
 10
2974.587
 20
3702.4056
 30
0
 11
3540.2631
 21
3857.0103
 31
0
  0
LINE
  8
0
 10
3540.2631
 20
3857.0103
 30
0
 11
3964.9109
 21
3155.6145
 31
0
  0
LINE
  8
0
 10
3964.9109
 20
3155.6145
 30
0
 11
3965.8669
 21
3002.4363
 31
0
  0
LINE
  8
0
 10
10325.6614
 20
3217.9948
 30
0
 11
10239.5536
 21
3655.7768
 31
0
  0
LINE
  8
0
 10
10239.5536
 20
3655.7768
 30
0
 11
10443.7375
 21
3221.9969
 31
0
  0
LINE
  8
0
 10
10443.7375
 20
3221.9969
 30
0
 11
10464.8248
 21
3372.9866
 31
0
  0
LINE
  8
0
 10
10464.8248
 20
3372.9866
 30
0
 11
10391.5919
 21
3660.7287
 31
0
  0
LINE
  8
0
 10
10391.5919
 20
3660.7287
 30
0
 11
10243.4828
 21
3796.0885
 31
0
  0
LINE
  8
0
 10
10243.4828
 20
3796.0885
 30
0
 11
10137.3618
 21
4448.3439
 31
0
  0
LINE
  8
0
 10
10137.3618
 20
4448.3439
 30
0
 11
10400.0578
 21
4202.8984
 31
0
  0
LINE
  8
0
 10
10400.0578
 20
4202.8984
 30
0
 11
10019.8572
 21
5252.3206
 31
0
  0
LINE
  8
0
 10
10019.8572
 20
5252.3206
 30
0
 11
10075.84
 21
5035.0212
 31
0
  0
LINE
  8
0
 10
10075.84
 20
5035.0212
 30
0
 11
9852.4107
 21
5458.0431
 31
0
  0
LINE
  8
0
 10
9852.4107
 20
5458.0431
 30
0
 11
9980.6871
 21
5142.8866
 31
0
  0
LINE
  8
0
 10
9980.6871
 20
5142.8866
 30
0
 11
9746.9388
 21
5557.3213
 31
0
  0
LINE
  8
0
 10
9746.9388
 20
5557.3213
 30
0
 11
9731.4083
 21
5755.3284
 31
0
  0
LINE
  8
0
 10
9731.4083
 20
5755.3284
 30
0
 11
9730.8447
 21
5556.8896
 31
0
  0
LINE
  8
0
 10
9730.8447
 20
5556.8896
 30
0
 11
9412.868
 21
6122.2365
 31
0
  0
LINE
  8
0
 10
9412.868
 20
6122.2365
 30
0
 11
9272.5846
 21
6208.285
 31
0
  0
LINE
  8
0
 10
9272.5846
 20
6208.285
 30
0
 11
9310.41
 21
5124.0637
 31
0
  0
LINE
  8
0
 10
9310.41
 20
5124.0637
 30
0
 11
9584.9199
 21
4431.6708
 31
0
  0
LINE
  8
0
 10
9584.9199
 20
4431.6708
 30
0
 11
9536.2085
 21
4673.4804
 31
0
  0
LINE
  8
0
 10
9536.2085
 20
4673.4804
 30
0
 11
9674.1474
 21
4434.3637
 31
0
  0
LINE
  8
0
 10
9674.1474
 20
4434.3637
 30
0
 11
9682.2234
 21
4309.0347
 31
0
  0
LINE
  8
0
 10
9682.2234
 20
4309.0347
 30
0
 11
10254.7675
 21
3512.8146
 31
0
  0
LINE
  8
0
 10
10254.7675
 20
3512.8146
 30
0
 11
10270.3401
 21
3366.4826
 31
0
  0
LINE
  8
0
 10
10270.3401
 20
3366.4826
 30
0
 11
10325.6614
 21
3217.9948
 31
0
  0
LINE
  8
0
 10
-621.9614
 20
3002.2189
 30
0
 11
-671.1166
 21
3152.2469
 31
0
  0
LINE
  8
0
 10
-671.1166
 20
3152.2469
 30
0
 11
-568.5615
 21
3155.6313
 31
0
  0
LINE
  8
0
 10
-568.5615
 20
3155.6313
 30
0
 11
-621.9614
 21
3002.2189
 31
0
  0
LINE
  8
0
 10
5513.5116
 20
3207.4033
 30
0
 11
5808.2563
 21
3511.4478
 31
0
  0
LINE
  8
0
 10
5808.2563
 20
3511.4478
 30
0
 11
5514.3445
 21
3356.3748
 31
0
  0
LINE
  8
0
 10
5514.3445
 20
3356.3748
 30
0
 11
5513.5116
 21
3207.4033
 31
0
  0
LINE
  8
0
 10
5993.3062
 20
3223.4487
 30
0
 11
6479.858
 21
3675.0904
 31
0
  0
LINE
  8
0
 10
6479.858
 20
3675.0904
 30
0
 11
6225.1291
 21
3379.8315
 31
0
  0
LINE
  8
0
 10
6225.1291
 20
3379.8315
 30
0
 11
6253.0281
 21
3942.0162
 31
0
  0
LINE
  8
0
 10
6253.0281
 20
3942.0162
 30
0
 11
6164.7972
 21
4201.5518
 31
0
  0
LINE
  8
0
 10
6164.7972
 20
4201.5518
 30
0
 11
6312.0705
 21
4206.0521
 31
0
  0
LINE
  8
0
 10
6312.0705
 20
4206.0521
 30
0
 11
6324.6654
 21
4578.8952
 31
0
  0
LINE
  8
0
 10
6324.6654
 20
4578.8952
 30
0
 11
6111.8723
 21
4922.3888
 31
0
  0
LINE
  8
0
 10
6111.8723
 20
4922.3888
 30
0
 11
6039.3731
 21
4570.4929
 31
0
  0
LINE
  8
0
 10
6039.3731
 20
4570.4929
 30
0
 11
5982.6509
 21
5140.2596
 31
0
  0
LINE
  8
0
 10
5982.6509
 20
5140.2596
 30
0
 11
6029.0486
 21
5248.9976
 31
0
  0
LINE
  8
0
 10
6029.0486
 20
5248.9976
 30
0
 11
5921.6317
 21
5454.7278
 31
0
  0
LINE
  8
0
 10
5921.6317
 20
5454.7278
 30
0
 11
6119.8993
 21
5758.0526
 31
0
  0
LINE
  8
0
 10
6119.8993
 20
5758.0526
 30
0
 11
6151.9792
 21
5460.9056
 31
0
  0
LINE
  8
0
 10
6151.9792
 20
5460.9056
 30
0
 11
6079.3858
 21
5250.3788
 31
0
  0
LINE
  8
0
 10
6079.3858
 20
5250.3788
 30
0
 11
6257.0117
 21
4812.3912
 31
0
  0
LINE
  8
0
 10
6257.0117
 20
4812.3912
 30
0
 11
6260.4885
 21
5038.4151
 31
0
  0
LINE
  8
0
 10
6260.4885
 20
5038.4151
 30
0
 11
6169.0515
 21
5145.4335
 31
0
  0
LINE
  8
0
 10
6169.0515
 20
5145.4335
 30
0
 11
6356.6834
 21
5363.2181
 31
0
  0
LINE
  8
0
 10
6356.6834
 20
5363.2181
 30
0
 11
6240.5555
 21
5360.068
 31
0
  0
LINE
  8
0
 10
6240.5555
 20
5360.068
 30
0
 11
6254.0033
 21
5664.1347
 31
0
  0
LINE
  8
0
 10
6254.0033
 20
5664.1347
 30
0
 11
6211.6308
 21
5563.7331
 31
0
  0
LINE
  8
0
 10
6211.6308
 20
5563.7331
 30
0
 11
6141.3186
 21
5948.0279
 31
0
  0
LINE
  8
0
 10
6141.3186
 20
5948.0279
 30
0
 11
6282.3657
 21
5951.6068
 31
0
  0
LINE
  8
0
 10
6282.3657
 20
5951.6068
 30
0
 11
6302.7006
 21
6310.4064
 31
0
  0
LINE
  8
0
 10
6302.7006
 20
6310.4064
 30
0
 11
6254.5115
 21
6561.5571
 31
0
  0
LINE
  8
0
 10
6254.5115
 20
6561.5571
 30
0
 11
6221.007
 21
7582.6052
 31
0
  0
LINE
  8
0
 10
6221.007
 20
7582.6052
 30
0
 11
6168.0776
 21
7772.2084
 31
0
  0
LINE
  8
0
 10
6168.0776
 20
7772.2084
 30
0
 11
6170.9239
 21
8240.6726
 31
0
  0
LINE
  8
0
 10
6170.9239
 20
8240.6726
 30
0
 11
6064.4978
 21
9639.0594
 31
0
  0
LINE
  8
0
 10
6064.4978
 20
9639.0594
 30
0
 11
6000.4304
 21
9852.399
 31
0
  0
LINE
  8
0
 10
6000.4304
 20
9852.399
 30
0
 11
5874.4968
 21
9884.9783
 31
0
  0
LINE
  8
0
 10
5874.4968
 20
9884.9783
 30
0
 11
5666.5123
 21
9777.943
 31
0
  0
LINE
  8
0
 10
5666.5123
 20
9777.943
 30
0
 11
5884.6254
 21
9673.23
 31
0
  0
LINE
  8
0
 10
5884.6254
 20
9673.23
 30
0
 11
5828.3973
 21
9598.4506
 31
0
  0
LINE
  8
0
 10
5828.3973
 20
9598.4506
 30
0
 11
5235.7778
 21
9700.3525
 31
0
  0
LINE
  8
0
 10
5235.7778
 20
9700.3525
 30
0
 11
5177.1926
 21
9551.2702
 31
0
  0
LINE
  8
0
 10
5177.1926
 20
9551.2702
 30
0
 11
5172.8415
 21
9147.8411
 31
0
  0
LINE
  8
0
 10
5172.8415
 20
9147.8411
 30
0
 11
5132.1768
 21
9016.0558
 31
0
  0
LINE
  8
0
 10
5132.1768
 20
9016.0558
 30
0
 11
5060.5131
 21
8107.6873
 31
0
  0
LINE
  8
0
 10
5060.5131
 20
8107.6873
 30
0
 11
5093.9449
 21
8050.9097
 31
0
  0
LINE
  8
0
 10
5093.9449
 20
8050.9097
 30
0
 11
5051.6185
 21
7147.8455
 31
0
  0
LINE
  8
0
 10
5051.6185
 20
7147.8455
 30
0
 11
4986.4336
 21
7000.3929
 31
0
  0
LINE
  8
0
 10
4986.4336
 20
7000.3929
 30
0
 11
5004.9595
 21
6849.8476
 31
0
  0
LINE
  8
0
 10
5004.9595
 20
6849.8476
 30
0
 11
4922.8283
 21
6276.8615
 31
0
  0
LINE
  8
0
 10
4922.8283
 20
6276.8615
 30
0
 11
4997.7378
 21
5728.9487
 31
0
  0
LINE
  8
0
 10
4997.7378
 20
5728.9487
 30
0
 11
5170.6427
 21
5635.7239
 31
0
  0
LINE
  8
0
 10
5170.6427
 20
5635.7239
 30
0
 11
5002.7714
 21
5531.675
 31
0
  0
LINE
  8
0
 10
5002.7714
 20
5531.675
 30
0
 11
4933.4404
 21
4291.2856
 31
0
  0
LINE
  8
0
 10
4933.4404
 20
4291.2856
 30
0
 11
5069.0229
 21
4037.9451
 31
0
  0
LINE
  8
0
 10
5069.0229
 20
4037.9451
 30
0
 11
5144.7118
 21
4544.1437
 31
0
  0
LINE
  8
0
 10
5144.7118
 20
4544.1437
 30
0
 11
5252.3217
 21
4547.313
 31
0
  0
LINE
  8
0
 10
5252.3217
 20
4547.313
 30
0
 11
5278.446
 21
4174.4674
 31
0
  0
LINE
  8
0
 10
5278.446
 20
4174.4674
 30
0
 11
5195.8647
 21
3908.8895
 31
0
  0
LINE
  8
0
 10
5195.8647
 20
3908.8895
 30
0
 11
5389.4948
 21
4177.8607
 31
0
  0
LINE
  8
0
 10
5389.4948
 20
4177.8607
 30
0
 11
5382.8738
 21
3778.8394
 31
0
  0
LINE
  8
0
 10
5382.8738
 20
3778.8394
 30
0
 11
5593.1719
 21
3785.5138
 31
0
  0
LINE
  8
0
 10
5593.1719
 20
3785.5138
 30
0
 11
5610.8034
 21
4436.116
 31
0
  0
LINE
  8
0
 10
5610.8034
 20
4436.116
 30
0
 11
5777.5913
 21
4189.7199
 31
0
  0
LINE
  8
0
 10
5777.5913
 20
4189.7199
 30
0
 11
5807.217
 21
4563.6556
 31
0
  0
LINE
  8
0
 10
5807.217
 20
4563.6556
 30
0
 11
5881.8246
 21
4444.1958
 31
0
  0
LINE
  8
0
 10
5881.8246
 20
4444.1958
 30
0
 11
5876.2298
 21
3930.209
 31
0
  0
LINE
  8
0
 10
5876.2298
 20
3930.209
 30
0
 11
5910.9571
 21
4685.8101
 31
0
  0
LINE
  8
0
 10
5910.9571
 20
4685.8101
 30
0
 11
6176.7551
 21
4328.8098
 31
0
  0
LINE
  8
0
 10
6176.7551
 20
4328.8098
 30
0
 11
5968.8023
 21
3371.3724
 31
0
  0
LINE
  8
0
 10
5968.8023
 20
3371.3724
 30
0
 11
5993.3062
 21
3223.4487
 31
0
  0
LINE
  8
0
 10
6372.1778
 20
3236.119
 30
0
 11
6500.7379
 21
3388.927
 31
0
  0
LINE
  8
0
 10
6500.7379
 20
3388.927
 30
0
 11
6392.0948
 21
3236.7851
 31
0
  0
LINE
  8
0
 10
6392.0948
 20
3236.7851
 30
0
 11
6372.1778
 21
3236.119
 31
0
  0
LINE
  8
0
 10
11240.4968
 20
3398.9269
 30
0
 11
11337.2016
 21
3402.1609
 31
0
  0
LINE
  8
0
 10
11337.2016
 20
3402.1609
 30
0
 11
11259.8423
 21
3399.5738
 31
0
  0
LINE
  8
0
 10
11259.8423
 20
3399.5738
 30
0
 11
11240.4968
 21
3398.9269
 31
0
  0
LINE
  8
0
 10
433.2507
 20
3188.6924
 30
0
 11
555.5205
 21
3192.7274
 31
0
  0
LINE
  8
0
 10
555.5205
 20
3192.7274
 30
0
 11
355.3625
 21
3757.2099
 31
0
  0
LINE
  8
0
 10
355.3625
 20
3757.2099
 30
0
 11
473.553
 21
3337.6946
 31
0
  0
LINE
  8
0
 10
473.553
 20
3337.6946
 30
0
 11
433.2507
 21
3188.6924
 31
0
  0
LINE
  8
0
 10
2862.1836
 20
3268.8502
 30
0
 11
2761.6656
 21
3265.5329
 31
0
  0
LINE
  8
0
 10
2761.6656
 20
3265.5329
 30
0
 11
2874.0427
 21
3415.8794
 31
0
  0
LINE
  8
0
 10
2874.0427
 20
3415.8794
 30
0
 11
2862.1836
 21
3268.8502
 31
0
  0
LINE
  8
0
 10
11767.3554
 20
3562.7319
 30
0
 11
11351.0676
 21
4360.03
 31
0
  0
LINE
  8
0
 10
11351.0676
 20
4360.03
 30
0
 11
11697.1812
 21
3703.2522
 31
0
  0
LINE
  8
0
 10
11697.1812
 20
3703.2522
 30
0
 11
11767.3554
 21
3562.7319
 31
0
  0
LINE
  8
0
 10
-2780.2769
 20
3231.7161
 30
0
 11
-1757.1007
 21
4813.2635
 31
0
  0
LINE
  8
0
 10
-1757.1007
 20
4813.2635
 30
0
 11
-2682.3462
 21
3380.5316
 31
0
  0
LINE
  8
0
 10
-2682.3462
 20
3380.5316
 30
0
 11
-2780.2769
 21
3231.7161
 31
0
  0
LINE
  8
0
 10
-565.6203
 20
3448.583
 30
0
 11
-577.208
 21
3303.4709
 31
0
  0
LINE
  8
0
 10
-577.208
 20
3303.4709
 30
0
 11
-753.2047
 21
3149.5379
 31
0
  0
LINE
  8
0
 10
-753.2047
 20
3149.5379
 30
0
 11
-514.6833
 21
3591.6638
 31
0
  0
LINE
  8
0
 10
-514.6833
 20
3591.6638
 30
0
 11
-565.6203
 21
3448.583
 31
0
  0
LINE
  8
0
 10
3768.2805
 20
3727.5957
 30
0
 11
3674.0721
 21
3861.2033
 31
0
  0
LINE
  8
0
 10
3674.0721
 20
3861.2033
 30
0
 11
3788.6817
 21
3864.7947
 31
0
  0
LINE
  8
0
 10
3788.6817
 20
3864.7947
 30
0
 11
3768.2805
 21
3727.5957
 31
0
  0
LINE
  8
0
 10
6203.4622
 20
3804.8831
 30
0
 11
6185.7196
 21
3378.531
 31
0
  0
LINE
  8
0
 10
6185.7196
 20
3378.531
 30
0
 11
6081.356
 21
3520.3427
 31
0
  0
LINE
  8
0
 10
6081.356
 20
3520.3427
 30
0
 11
6133.951
 21
4070.8962
 31
0
  0
LINE
  8
0
 10
6133.951
 20
4070.8962
 30
0
 11
6222.4982
 21
3805.4873
 31
0
  0
LINE
  8
0
 10
6222.4982
 20
3805.4873
 30
0
 11
6203.4622
 21
3804.8831
 31
0
  0
LINE
  8
0
 10
-621.5845
 20
3726.5967
 30
0
 11
-660.6377
 21
4729.9545
 31
0
  0
LINE
  8
0
 10
-660.6377
 20
4729.9545
 30
0
 11
-571.1384
 21
3863.4268
 31
0
  0
LINE
  8
0
 10
-571.1384
 20
3863.4268
 30
0
 11
-621.5845
 21
3726.5967
 31
0
  0
LINE
  8
0
 10
2984.7858
 20
3839.6042
 30
0
 11
2888.8301
 21
3836.5974
 31
0
  0
LINE
  8
0
 10
2888.8301
 20
3836.5974
 30
0
 11
2994.7586
 21
3973.7631
 31
0
  0
LINE
  8
0
 10
2994.7586
 20
3973.7631
 30
0
 11
2984.7858
 21
3839.6042
 31
0
  0
LINE
  8
0
 10
10085.6211
 20
4062.1125
 30
0
 11
10079.9925
 21
3927.9157
 31
0
  0
LINE
  8
0
 10
10079.9925
 20
3927.9157
 30
0
 11
9432.9662
 21
5016.7545
 31
0
  0
LINE
  8
0
 10
9432.9662
 20
5016.7545
 30
0
 11
9397.0262
 21
5445.6904
 31
0
  0
LINE
  8
0
 10
9397.0262
 20
5445.6904
 30
0
 11
10096.5086
 21
4321.6941
 31
0
  0
LINE
  8
0
 10
10096.5086
 20
4321.6941
 30
0
 11
10104.0133
 21
4062.6888
 31
0
  0
LINE
  8
0
 10
10104.0133
 20
4062.6888
 30
0
 11
10085.6211
 21
4062.1125
 31
0
  0
LINE
  8
0
 10
14621.646
 20
4459.9699
 30
0
 11
11924.5737
 21
7887.1262
 31
0
  0
LINE
  8
0
 10
11924.5737
 20
7887.1262
 30
0
 11
14526.5462
 21
4580.8127
 31
0
  0
LINE
  8
0
 10
14526.5462
 20
4580.8127
 30
0
 11
14621.646
 21
4459.9699
 31
0
  0
LINE
  8
0
 10
5409.9071
 20
4305.6658
 30
0
 11
5315.4704
 21
4175.5987
 31
0
  0
LINE
  8
0
 10
5315.4704
 20
4175.5987
 30
0
 11
5252.3217
 21
4547.313
 31
0
  0
LINE
  8
0
 10
5252.3217
 20
4547.313
 30
0
 11
5393.6726
 21
4429.6429
 31
0
  0
LINE
  8
0
 10
5393.6726
 20
4429.6429
 30
0
 11
5409.9071
 21
4305.6658
 31
0
  0
LINE
  8
0
 10
5103.7301
 20
4420.999
 30
0
 11
5000.5044
 21
4165.9742
 31
0
  0
LINE
  8
0
 10
5000.5044
 20
4165.9742
 30
0
 11
4983.1683
 21
4539.386
 31
0
  0
LINE
  8
0
 10
4983.1683
 20
4539.386
 30
0
 11
5153.8418
 21
4780.672
 31
0
  0
LINE
  8
0
 10
5153.8418
 20
4780.672
 30
0
 11
5126.7701
 21
4543.6153
 31
0
  0
LINE
  8
0
 10
5126.7701
 20
4543.6153
 30
0
 11
5103.7301
 21
4420.999
 31
0
  0
LINE
  8
0
 10
6278.5363
 20
4456.0227
 30
0
 11
6146.4143
 21
4573.6455
 31
0
  0
LINE
  8
0
 10
6146.4143
 20
4573.6455
 30
0
 11
6253.3876
 21
4576.796
 31
0
  0
LINE
  8
0
 10
6253.3876
 20
4576.796
 30
0
 11
6278.5363
 21
4456.0227
 31
0
  0
LINE
  8
0
 10
580.8005
 20
4409.7291
 30
0
 11
1537.0012
 21
6613.6564
 31
0
  0
LINE
  8
0
 10
1537.0012
 20
6613.6564
 30
0
 11
1635.3314
 21
6773.6206
 31
0
  0
LINE
  8
0
 10
1635.3314
 20
6773.6206
 30
0
 11
1596.5687
 21
6368.0423
 31
0
  0
LINE
  8
0
 10
1596.5687
 20
6368.0423
 30
0
 11
1722.4799
 21
6454.7766
 31
0
  0
LINE
  8
0
 10
1722.4799
 20
6454.7766
 30
0
 11
1898.0375
 21
6779.5635
 31
0
  0
LINE
  8
0
 10
1898.0375
 20
6779.5635
 30
0
 11
1685.5896
 21
6617.0863
 31
0
  0
LINE
  8
0
 10
1685.5896
 20
6617.0863
 30
0
 11
1842.4447
 21
6855.1272
 31
0
  0
LINE
  8
0
 10
1842.4447
 20
6855.1272
 30
0
 11
1773.4055
 21
6929.1426
 31
0
  0
LINE
  8
0
 10
1773.4055
 20
6929.1426
 30
0
 11
1920.9712
 21
7079.7738
 31
0
  0
LINE
  8
0
 10
1920.9712
 20
7079.7738
 30
0
 11
1894.9897
 21
7151.1041
 31
0
  0
LINE
  8
0
 10
1894.9897
 20
7151.1041
 30
0
 11
1997.0742
 21
7362.1059
 31
0
  0
LINE
  8
0
 10
1997.0742
 20
7362.1059
 30
0
 11
2050.7504
 21
7294.7475
 31
0
  0
LINE
  8
0
 10
2050.7504
 20
7294.7475
 30
0
 11
1933.1562
 21
7006.9683
 31
0
  0
LINE
  8
0
 10
1933.1562
 20
7006.9683
 30
0
 11
1975.8126
 21
7007.9049
 31
0
  0
LINE
  8
0
 10
1975.8126
 20
7007.9049
 30
0
 11
2200.9753
 21
7565.3828
 31
0
  0
LINE
  8
0
 10
2200.9753
 20
7565.3828
 30
0
 11
2292.2826
 21
7694.8353
 31
0
  0
LINE
  8
0
 10
2292.2826
 20
7694.8353
 30
0
 11
2576.3629
 21
8494.801
 31
0
  0
LINE
  8
0
 10
2576.3629
 20
8494.801
 30
0
 11
2652.5079
 21
8597.2836
 31
0
  0
LINE
  8
0
 10
2652.5079
 20
8597.2836
 30
0
 11
2846.7946
 21
9111.0086
 31
0
  0
LINE
  8
0
 10
2846.7946
 20
9111.0086
 30
0
 11
2902.5931
 21
9197.1549
 31
0
  0
LINE
  8
0
 10
2902.5931
 20
9197.1549
 30
0
 11
2819.8312
 21
8933.391
 31
0
  0
LINE
  8
0
 10
2819.8312
 20
8933.391
 30
0
 11
2866.4293
 21
9023.8683
 31
0
  0
LINE
  8
0
 10
2866.4293
 20
9023.8683
 30
0
 11
3080.0016
 21
9741.7547
 31
0
  0
LINE
  8
0
 10
3080.0016
 20
9741.7547
 30
0
 11
3150.2704
 21
9915.7324
 31
0
  0
LINE
  8
0
 10
3150.2704
 20
9915.7324
 30
0
 11
3201.8638
 21
9949.8718
 31
0
  0
LINE
  8
0
 10
3201.8638
 20
9949.8718
 30
0
 11
3127.8449
 21
10110.7269
 31
0
  0
LINE
  8
0
 10
3127.8449
 20
10110.7269
 30
0
 11
3238.8017
 21
10112.1592
 31
0
  0
LINE
  8
0
 10
3238.8017
 20
10112.1592
 30
0
 11
3273.7932
 21
10265.8954
 31
0
  0
LINE
  8
0
 10
3273.7932
 20
10265.8954
 30
0
 11
3116.7002
 21
10233.9147
 31
0
  0
LINE
  8
0
 10
3116.7002
 20
10233.9147
 30
0
 11
2978.7097
 21
9979.9821
 31
0
  0
LINE
  8
0
 10
2978.7097
 20
9979.9821
 30
0
 11
2893.0299
 21
9739.1388
 31
0
  0
LINE
  8
0
 10
2893.0299
 20
9739.1388
 30
0
 11
2755.5826
 21
9515.8142
 31
0
  0
LINE
  8
0
 10
2755.5826
 20
9515.8142
 30
0
 11
2496.8913
 21
8928.1092
 31
0
  0
LINE
  8
0
 10
2496.8913
 20
8928.1092
 30
0
 11
2084.2827
 21
7875.0742
 31
0
  0
LINE
  8
0
 10
2084.2827
 20
7875.0742
 30
0
 11
2018.9868
 21
7813.2514
 31
0
  0
LINE
  8
0
 10
2018.9868
 20
7813.2514
 30
0
 11
633.9608
 21
4532.2573
 31
0
  0
LINE
  8
0
 10
633.9608
 20
4532.2573
 30
0
 11
580.8005
 21
4409.7291
 31
0
  0
LINE
  8
0
 10
5699.9602
 20
4560.4967
 30
0
 11
5592.6351
 21
4557.3358
 31
0
  0
LINE
  8
0
 10
5592.6351
 20
4557.3358
 30
0
 11
5681.0583
 21
4679.1204
 31
0
  0
LINE
  8
0
 10
5681.0583
 20
4679.1204
 30
0
 11
5699.9602
 21
4560.4967
 31
0
  0
LINE
  8
0
 10
5397.6754
 20
4670.8743
 30
0
 11
5309.0206
 21
4668.2946
 31
0
  0
LINE
  8
0
 10
5309.0206
 20
4668.2946
 30
0
 11
5330.3446
 21
5540.362
 31
0
  0
LINE
  8
0
 10
5330.3446
 20
5540.362
 30
0
 11
5437.7429
 21
5015.3106
 31
0
  0
LINE
  8
0
 10
5437.7429
 20
5015.3106
 30
0
 11
5417.156
 21
4788.243
 31
0
  0
LINE
  8
0
 10
5417.156
 20
4788.243
 30
0
 11
5397.6754
 21
4670.8743
 31
0
  0
LINE
  8
0
 10
5875.6084
 20
4684.7815
 30
0
 11
5787.2044
 21
4682.2091
 31
0
  0
LINE
  8
0
 10
5787.2044
 20
4682.2091
 30
0
 11
5855.1026
 21
4800.8352
 31
0
  0
LINE
  8
0
 10
5855.1026
 20
4800.8352
 30
0
 11
5875.6084
 21
4684.7815
 31
0
  0
LINE
  8
0
 10
10082.4413
 20
4807.1941
 30
0
 11
9467.9229
 21
5650.0876
 31
0
  0
LINE
  8
0
 10
9467.9229
 20
5650.0876
 30
0
 11
9489.1304
 21
5845.4356
 31
0
  0
LINE
  8
0
 10
9489.1304
 20
5845.4356
 30
0
 11
10019.3866
 21
4920.5697
 31
0
  0
LINE
  8
0
 10
10019.3866
 20
4920.5697
 30
0
 11
10082.4413
 21
4807.1941
 31
0
  0
LINE
  8
0
 10
11182.0344
 20
4839.1906
 30
0
 11
11223.7391
 21
5285.7368
 31
0
  0
LINE
  8
0
 10
11223.7391
 20
5285.7368
 30
0
 11
11199.158
 21
4839.6889
 31
0
  0
LINE
  8
0
 10
11199.158
 20
4839.6889
 30
0
 11
11182.0344
 21
4839.1906
 31
0
  0
LINE
  8
0
 10
5311.8796
 20
4785.216
 30
0
 11
5248.6308
 21
5009.9999
 31
0
  0
LINE
  8
0
 10
5248.6308
 20
5009.9999
 30
0
 11
5320.1115
 21
5121.8695
 31
0
  0
LINE
  8
0
 10
5320.1115
 20
5121.8695
 30
0
 11
5329.4302
 21
4785.7207
 31
0
  0
LINE
  8
0
 10
5329.4302
 20
4785.7207
 30
0
 11
5311.8796
 21
4785.216
 31
0
  0
LINE
  8
0
 10
12710.9423
 20
4997.9593
 30
0
 11
11980.5142
 21
6096.1894
 31
0
  0
LINE
  8
0
 10
11980.5142
 20
6096.1894
 30
0
 11
12639.3866
 21
5107.8619
 31
0
  0
LINE
  8
0
 10
12639.3866
 20
5107.8619
 30
0
 11
12710.9423
 21
4997.9593
 31
0
  0
LINE
  8
0
 10
5696.4157
 20
4910.584
 30
0
 11
5452.2336
 21
4789.2516
 31
0
  0
LINE
  8
0
 10
5452.2336
 20
4789.2516
 30
0
 11
5644.4116
 21
4909.1064
 31
0
  0
LINE
  8
0
 10
5644.4116
 20
4909.1064
 30
0
 11
5508.7718
 21
5340.2177
 31
0
  0
LINE
  8
0
 10
5508.7718
 20
5340.2177
 30
0
 11
5591.8096
 21
5744.3563
 31
0
  0
LINE
  8
0
 10
5591.8096
 20
5744.3563
 30
0
 11
5723.9403
 21
5449.4258
 31
0
  0
LINE
  8
0
 10
5723.9403
 20
5449.4258
 30
0
 11
5658.7133
 21
5344.285
 31
0
  0
LINE
  8
0
 10
5658.7133
 20
5344.285
 30
0
 11
5695.2822
 21
5022.5429
 31
0
  0
LINE
  8
0
 10
5695.2822
 20
5022.5429
 30
0
 11
5696.4157
 21
4910.584
 31
0
  0
LINE
  8
0
 10
5047.5467
 20
5114.3039
 30
0
 11
5002.2554
 21
5220.8241
 31
0
  0
LINE
  8
0
 10
5002.2554
 20
5220.8241
 30
0
 11
5051.9479
 21
5532.9791
 31
0
  0
LINE
  8
0
 10
5051.9479
 20
5532.9791
 30
0
 11
5291.9543
 21
5334.3363
 31
0
  0
LINE
  8
0
 10
5291.9543
 20
5334.3363
 30
0
 11
5231.4282
 21
5009.5168
 31
0
  0
LINE
  8
0
 10
5231.4282
 20
5009.5168
 30
0
 11
5059.3068
 21
5004.6833
 31
0
  0
LINE
  8
0
 10
5059.3068
 20
5004.6833
 30
0
 11
5047.5467
 21
5114.3039
 31
0
  0
LINE
  8
0
 10
5829.9879
 20
5136.0221
 30
0
 11
5779.0696
 21
5134.6088
 31
0
  0
LINE
  8
0
 10
5779.0696
 20
5134.6088
 30
0
 11
5846.9573
 21
5136.4931
 31
0
  0
LINE
  8
0
 10
5846.9573
 20
5136.4931
 30
0
 11
5829.9879
 21
5136.0221
 31
0
  0
LINE
  8
0
 10
5978.6964
 20
5247.616
 30
0
 11
5894.7426
 21
5245.3125
 31
0
  0
LINE
  8
0
 10
5894.7426
 20
5245.3125
 30
0
 11
5958.1972
 21
5352.4088
 31
0
  0
LINE
  8
0
 10
5958.1972
 20
5352.4088
 30
0
 11
5978.6964
 21
5247.616
 31
0
  0
LINE
  8
0
 10
5459.9909
 20
5442.3467
 30
0
 11
5377.422
 21
5440.1323
 31
0
  0
LINE
  8
0
 10
5377.422
 20
5440.1323
 30
0
 11
5447.4978
 21
5740.6135
 31
0
  0
LINE
  8
0
 10
5447.4978
 20
5740.6135
 30
0
 11
5477.5456
 21
5544.2657
 31
0
  0
LINE
  8
0
 10
5477.5456
 20
5544.2657
 30
0
 11
5459.9909
 21
5442.3467
 31
0
  0
LINE
  8
0
 10
5905.1663
 20
5454.2862
 30
0
 11
5722.5958
 21
5550.7642
 31
0
  0
LINE
  8
0
 10
5722.5958
 20
5550.7642
 30
0
 11
5825.2219
 21
6032.1852
 31
0
  0
LINE
  8
0
 10
5825.2219
 20
6032.1852
 30
0
 11
5880.0635
 21
5751.8323
 31
0
  0
LINE
  8
0
 10
5880.0635
 20
5751.8323
 30
0
 11
5818.2616
 21
5652.7075
 31
0
  0
LINE
  8
0
 10
5818.2616
 20
5652.7075
 30
0
 11
5918.38
 21
5555.9563
 31
0
  0
LINE
  8
0
 10
5918.38
 20
5555.9563
 30
0
 11
5905.1663
 21
5454.2862
 31
0
  0
LINE
  8
0
 10
5248.5108
 20
5538.1918
 30
0
 11
5170.6427
 21
5635.7239
 31
0
  0
LINE
  8
0
 10
5170.6427
 20
5635.7239
 30
0
 11
5308.3065
 21
5926.8914
 31
0
  0
LINE
  8
0
 10
5308.3065
 20
5926.8914
 30
0
 11
5415.4117
 21
5739.7813
 31
0
  0
LINE
  8
0
 10
5415.4117
 20
5739.7813
 30
0
 11
5264.8807
 21
5538.6259
 31
0
  0
LINE
  8
0
 10
5264.8807
 20
5538.6259
 30
0
 11
5248.5108
 21
5538.1918
 31
0
  0
LINE
  8
0
 10
9936.5102
 20
5760.7071
 30
0
 11
10051.9353
 21
5860.0323
 31
0
  0
LINE
  8
0
 10
10051.9353
 20
5860.0323
 30
0
 11
9697.3577
 21
6560.8938
 31
0
  0
LINE
  8
0
 10
9697.3577
 20
6560.8938
 30
0
 11
9705.1128
 21
6642.8577
 31
0
  0
LINE
  8
0
 10
9705.1128
 20
6642.8577
 30
0
 11
9578.545
 21
6799.2832
 31
0
  0
LINE
  8
0
 10
9578.545
 20
6799.2832
 30
0
 11
9049.5756
 21
8010.3583
 31
0
  0
LINE
  8
0
 10
9049.5756
 20
8010.3583
 30
0
 11
8709.6585
 21
8939.2338
 31
0
  0
LINE
  8
0
 10
8709.6585
 20
8939.2338
 30
0
 11
8261.6766
 21
9814.2525
 31
0
  0
LINE
  8
0
 10
8261.6766
 20
9814.2525
 30
0
 11
8206.2395
 21
9983.8993
 31
0
  0
LINE
  8
0
 10
8206.2395
 20
9983.8993
 30
0
 11
8117.8456
 21
10080.5046
 31
0
  0
LINE
  8
0
 10
8117.8456
 20
10080.5046
 30
0
 11
8021.5348
 21
10046.9851
 31
0
  0
LINE
  8
0
 10
8021.5348
 20
10046.9851
 30
0
 11
8118.189
 21
9949.3826
 31
0
  0
LINE
  8
0
 10
8118.189
 20
9949.3826
 30
0
 11
8080.611
 21
9881.0727
 31
0
  0
LINE
  8
0
 10
8080.611
 20
9881.0727
 30
0
 11
8252.1385
 21
9814.119
 31
0
  0
LINE
  8
0
 10
8252.1385
 20
9814.119
 30
0
 11
8099.4196
 21
9741.0246
 31
0
  0
LINE
  8
0
 10
8099.4196
 20
9741.0246
 30
0
 11
8133.3973
 21
9705.4113
 31
0
  0
LINE
  8
0
 10
8133.3973
 20
9705.4113
 30
0
 11
8148.7738
 21
9594.7786
 31
0
  0
LINE
  8
0
 10
8148.7738
 20
9594.7786
 30
0
 11
8292.2857
 21
9239.456
 31
0
  0
LINE
  8
0
 10
8292.2857
 20
9239.456
 30
0
 11
8318.5645
 21
9067.7476
 31
0
  0
LINE
  8
0
 10
8318.5645
 20
9067.7476
 30
0
 11
8371.898
 21
8933.6183
 31
0
  0
LINE
  8
0
 10
8371.898
 20
8933.6183
 30
0
 11
8404.6143
 21
8934.1622
 31
0
  0
LINE
  8
0
 10
8404.6143
 20
8934.1622
 30
0
 11
8991.8932
 21
7441.3569
 31
0
  0
LINE
  8
0
 10
8991.8932
 20
7441.3569
 30
0
 11
9337.7476
 21
7096.8852
 31
0
  0
LINE
  8
0
 10
9337.7476
 20
7096.8852
 30
0
 11
9193.1859
 21
6868.1465
 31
0
  0
LINE
  8
0
 10
9193.1859
 20
6868.1465
 30
0
 11
9333.983
 21
6871.3638
 31
0
  0
LINE
  8
0
 10
9333.983
 20
6871.3638
 30
0
 11
9387.7824
 21
6635.381
 31
0
  0
LINE
  8
0
 10
9387.7824
 20
6635.381
 30
0
 11
9252.2291
 21
6791.7507
 31
0
  0
LINE
  8
0
 10
9252.2291
 20
6791.7507
 30
0
 11
9444.4578
 21
6386.7829
 31
0
  0
LINE
  8
0
 10
9444.4578
 20
6386.7829
 30
0
 11
9697.3577
 21
6560.8938
 31
0
  0
LINE
  8
0
 10
9697.3577
 20
6560.8938
 30
0
 11
9979.6113
 21
5952.667
 31
0
  0
LINE
  8
0
 10
9979.6113
 20
5952.667
 30
0
 11
9952.2768
 21
5761.1206
 31
0
  0
LINE
  8
0
 10
9952.2768
 20
5761.1206
 30
0
 11
9936.5102
 21
5760.7071
 31
0
  0
LINE
  8
0
 10
-1260.1321
 20
5566.6471
 30
0
 11
-727.4429
 21
6397.0533
 31
0
  0
LINE
  8
0
 10
-727.4429
 20
6397.0533
 30
0
 11
-1194.5762
 21
5666.0271
 31
0
  0
LINE
  8
0
 10
-1194.5762
 20
5666.0271
 30
0
 11
-1260.1321
 21
5566.6471
 31
0
  0
LINE
  8
0
 10
10706.1465
 20
5876.9997
 30
0
 11
10707.3239
 21
5780.9214
 31
0
  0
LINE
  8
0
 10
10707.3239
 20
5780.9214
 30
0
 11
10506.1152
 21
6149.6775
 31
0
  0
LINE
  8
0
 10
10506.1152
 20
6149.6775
 30
0
 11
10687.6272
 21
6154.2335
 31
0
  0
LINE
  8
0
 10
10687.6272
 20
6154.2335
 30
0
 11
10674.1882
 21
5970.4843
 31
0
  0
LINE
  8
0
 10
10674.1882
 20
5970.4843
 30
0
 11
10706.1465
 21
5876.9997
 31
0
  0
LINE
  8
0
 10
5146.592
 20
5828.6906
 30
0
 11
4992.8913
 21
5918.8882
 31
0
  0
LINE
  8
0
 10
4992.8913
 20
5918.8882
 30
0
 11
5308.3065
 21
5926.8914
 31
0
  0
LINE
  8
0
 10
5308.3065
 20
5926.8914
 30
0
 11
5162.5105
 21
5829.0989
 31
0
  0
LINE
  8
0
 10
5162.5105
 20
5829.0989
 30
0
 11
5146.592
 21
5828.6906
 31
0
  0
LINE
  8
0
 10
5559.9854
 20
5839.2949
 30
0
 11
5464.6766
 21
5836.8501
 31
0
  0
LINE
  8
0
 10
5464.6766
 20
5836.8501
 30
0
 11
5544.4821
 21
5932.884
 31
0
  0
LINE
  8
0
 10
5544.4821
 20
5932.884
 30
0
 11
5559.9854
 21
5839.2949
 31
0
  0
LINE
  8
0
 10
9731.9508
 20
5946.314
 30
0
 11
9785.9174
 21
6040.5046
 31
0
  0
LINE
  8
0
 10
9785.9174
 20
6040.5046
 30
0
 11
9747.4403
 21
5946.7114
 31
0
  0
LINE
  8
0
 10
9747.4403
 20
5946.7114
 30
0
 11
9731.9508
 21
5946.314
 31
0
  0
LINE
  8
0
 10
369.1122
 20
5895.2347
 30
0
 11
449.4462
 21
5897.2511
 31
0
  0
LINE
  8
0
 10
449.4462
 20
5897.2511
 30
0
 11
385.182
 21
5895.638
 31
0
  0
LINE
  8
0
 10
385.182
 20
5895.638
 30
0
 11
369.1122
 21
5895.2347
 31
0
  0
LINE
  8
0
 10
10384.9971
 20
6146.6373
 30
0
 11
10431.821
 21
6237.0713
 31
0
  0
LINE
  8
0
 10
10431.821
 20
6237.0713
 30
0
 11
10400.1417
 21
6147.0175
 31
0
  0
LINE
  8
0
 10
10400.1417
 20
6147.0175
 30
0
 11
10384.9971
 21
6146.6373
 31
0
  0
LINE
  8
0
 10
5946.3518
 20
6125.6874
 30
0
 11
5884.7008
 21
6124.1565
 31
0
  0
LINE
  8
0
 10
5884.7008
 20
6124.1565
 30
0
 11
6004.1549
 21
6215.9322
 31
0
  0
LINE
  8
0
 10
6004.1549
 20
6215.9322
 30
0
 11
5961.761
 21
6126.07
 31
0
  0
LINE
  8
0
 10
5961.761
 20
6126.07
 30
0
 11
5946.3518
 21
6125.6874
 31
0
  0
LINE
  8
0
 10
6146.562
 20
6130.659
 30
0
 11
6007.9802
 21
6127.2178
 31
0
  0
LINE
  8
0
 10
6007.9802
 20
6127.2178
 30
0
 11
6126.2327
 21
6218.9315
 31
0
  0
LINE
  8
0
 10
6126.2327
 20
6218.9315
 30
0
 11
6146.562
 21
6130.659
 31
0
  0
LINE
  8
0
 10
5820.8723
 20
6211.4291
 30
0
 11
5788.4632
 21
6297.9052
 31
0
  0
LINE
  8
0
 10
5788.4632
 20
6297.9052
 30
0
 11
5894.4639
 21
6300.4821
 31
0
  0
LINE
  8
0
 10
5894.4639
 20
6300.4821
 30
0
 11
5836.1534
 21
6211.8046
 31
0
  0
LINE
  8
0
 10
5836.1534
 20
6211.8046
 30
0
 11
5820.8723
 21
6211.4291
 31
0
  0
LINE
  8
0
 10
6171.9891
 20
6220.0556
 30
0
 11
6121.3841
 21
6305.9985
 31
0
  0
LINE
  8
0
 10
6121.3841
 20
6305.9985
 30
0
 11
6191.5245
 21
6393.3222
 31
0
  0
LINE
  8
0
 10
6191.5245
 20
6393.3222
 30
0
 11
6187.2384
 21
6220.4303
 31
0
  0
LINE
  8
0
 10
6187.2384
 20
6220.4303
 30
0
 11
6171.9891
 21
6220.0556
 31
0
  0
LINE
  8
0
 10
323.9342
 20
6165.0617
 30
0
 11
541.8194
 21
6257.4124
 31
0
  0
LINE
  8
0
 10
541.8194
 20
6257.4124
 30
0
 11
371.9653
 21
6338.8888
 31
0
  0
LINE
  8
0
 10
371.9653
 20
6338.8888
 30
0
 11
355.9153
 21
6252.9403
 31
0
  0
LINE
  8
0
 10
355.9153
 20
6252.9403
 30
0
 11
323.9342
 21
6165.0617
 31
0
  0
LINE
  8
0
 10
5651.48
 20
6380.3308
 30
0
 11
5291.1023
 21
6856.3207
 31
0
  0
LINE
  8
0
 10
5291.1023
 20
6856.3207
 30
0
 11
5533.511
 21
6784.5204
 31
0
  0
LINE
  8
0
 10
5533.511
 20
6784.5204
 30
0
 11
5534.7859
 21
7012.5528
 31
0
  0
LINE
  8
0
 10
5534.7859
 20
7012.5528
 30
0
 11
5707.2168
 21
6709.9195
 31
0
  0
LINE
  8
0
 10
5707.2168
 20
6709.9195
 30
0
 11
5650.892
 21
6464.5616
 31
0
  0
LINE
  8
0
 10
5650.892
 20
6464.5616
 30
0
 11
5651.48
 21
6380.3308
 31
0
  0
LINE
  8
0
 10
9307.6614
 20
6468.2842
 30
0
 11
9318.9401
 21
6551.885
 31
0
  0
LINE
  8
0
 10
9318.9401
 20
6551.885
 30
0
 11
9260.6458
 21
6550.4972
 31
0
  0
LINE
  8
0
 10
9260.6458
 20
6550.4972
 30
0
 11
9307.6614
 21
6468.2842
 31
0
  0
LINE
  8
0
 10
10275.1516
 20
6491.5583
 30
0
 11
10202.0533
 21
6489.7998
 31
0
  0
LINE
  8
0
 10
10202.0533
 20
6489.7998
 30
0
 11
10248.8892
 21
6574.0238
 31
0
  0
LINE
  8
0
 10
10248.8892
 20
6574.0238
 30
0
 11
10275.1516
 21
6491.5583
 31
0
  0
LINE
  8
0
 10
5322.9286
 20
6456.7539
 30
0
 11
5263.2305
 21
6455.3327
 31
0
  0
LINE
  8
0
 10
5263.2305
 20
6455.3327
 30
0
 11
5340.0073
 21
6540.0102
 31
0
  0
LINE
  8
0
 10
5340.0073
 20
6540.0102
 30
0
 11
5322.9286
 21
6456.7539
 31
0
  0
LINE
  8
0
 10
5769.9936
 20
6467.397
 30
0
 11
5709.3556
 21
6548.7125
 31
0
  0
LINE
  8
0
 10
5709.3556
 20
6548.7125
 30
0
 11
5871.6132
 21
6552.5355
 31
0
  0
LINE
  8
0
 10
5871.6132
 20
6552.5355
 30
0
 11
5784.8754
 21
6467.7513
 31
0
  0
LINE
  8
0
 10
5784.8754
 20
6467.7513
 30
0
 11
5769.9936
 21
6467.397
 31
0
  0
LINE
  8
0
 10
6126.7946
 20
6475.8912
 30
0
 11
5889.0111
 21
6470.2304
 31
0
  0
LINE
  8
0
 10
5889.0111
 20
6470.2304
 30
0
 11
6004.2534
 21
6555.6607
 31
0
  0
LINE
  8
0
 10
6004.2534
 20
6555.6607
 30
0
 11
5939.1315
 21
6715.2729
 31
0
  0
LINE
  8
0
 10
5939.1315
 20
6715.2729
 30
0
 11
6146.6103
 21
6640.2356
 31
0
  0
LINE
  8
0
 10
6146.6103
 20
6640.2356
 30
0
 11
6141.6449
 21
6476.2447
 31
0
  0
LINE
  8
0
 10
6141.6449
 20
6476.2447
 30
0
 11
6126.7946
 21
6475.8912
 31
0
  0
LINE
  8
0
 10
5221.6451
 20
6537.2214
 30
0
 11
5092.6915
 21
6615.6579
 31
0
  0
LINE
  8
0
 10
5092.6915
 20
6615.6579
 30
0
 11
5236.8508
 21
6931.1509
 31
0
  0
LINE
  8
0
 10
5236.8508
 20
6931.1509
 30
0
 11
5286.0576
 21
6700.1977
 31
0
  0
LINE
  8
0
 10
5286.0576
 20
6700.1977
 30
0
 11
5239.4631
 21
6619.0807
 31
0
  0
LINE
  8
0
 10
5239.4631
 20
6619.0807
 30
0
 11
5221.6451
 21
6537.2214
 31
0
  0
LINE
  8
0
 10
10079.3627
 20
6651.6755
 30
0
 11
9415.5426
 21
7648.1856
 31
0
  0
LINE
  8
0
 10
9415.5426
 20
7648.1856
 30
0
 11
9411.5494
 21
8133.2699
 31
0
  0
LINE
  8
0
 10
9411.5494
 20
8133.2699
 30
0
 11
10100.4663
 21
7040.08
 31
0
  0
LINE
  8
0
 10
10100.4663
 20
7040.08
 30
0
 11
10093.7402
 21
6652.0143
 31
0
  0
LINE
  8
0
 10
10093.7402
 20
6652.0143
 30
0
 11
10079.3627
 21
6651.6755
 31
0
  0
LINE
  8
0
 10
11234.2535
 20
6758.8811
 30
0
 11
11375.7425
 21
6762.1806
 31
0
  0
LINE
  8
0
 10
11375.7425
 20
6762.1806
 30
0
 11
11272.9827
 21
6991.6416
 31
0
  0
LINE
  8
0
 10
11272.9827
 20
6991.6416
 30
0
 11
11248.4078
 21
6759.2112
 31
0
  0
LINE
  8
0
 10
11248.4078
 20
6759.2112
 30
0
 11
11234.2535
 21
6758.8811
 31
0
  0
LINE
  8
0
 10
6098.388
 20
6718.9491
 30
0
 11
5788.9662
 21
6943.5164
 31
0
  0
LINE
  8
0
 10
5788.9662
 20
6943.5164
 30
0
 11
6165.2948
 21
7026.5346
 31
0
  0
LINE
  8
0
 10
6165.2948
 20
7026.5346
 30
0
 11
6094.0233
 21
6797.3285
 31
0
  0
LINE
  8
0
 10
6094.0233
 20
6797.3285
 30
0
 11
6098.388
 21
6718.9491
 31
0
  0
LINE
  8
0
 10
10651.6963
 20
6901.4744
 30
0
 11
10384.0644
 21
7402.8803
 31
0
  0
LINE
  8
0
 10
10384.0644
 20
7402.8803
 30
0
 11
10609.5765
 21
6976.6342
 31
0
  0
LINE
  8
0
 10
10609.5765
 20
6976.6342
 30
0
 11
10651.6963
 21
6901.4744
 31
0
  0
LINE
  8
0
 10
448.1321
 20
6746.764
 30
0
 11
492.2496
 21
6747.762
 31
0
  0
LINE
  8
0
 10
492.2496
 20
6747.762
 30
0
 11
534.6554
 21
6901.6727
 31
0
  0
LINE
  8
0
 10
534.6554
 20
6901.6727
 30
0
 11
1413.0308
 21
8474.2899
 31
0
  0
LINE
  8
0
 10
1413.0308
 20
8474.2899
 30
0
 11
1489.1595
 21
8526.7213
 31
0
  0
LINE
  8
0
 10
1489.1595
 20
8526.7213
 30
0
 11
1537.5674
 21
8676.7134
 31
0
  0
LINE
  8
0
 10
1537.5674
 20
8676.7134
 30
0
 11
1614.4776
 21
8774.1519
 31
0
  0
LINE
  8
0
 10
1614.4776
 20
8774.1519
 30
0
 11
1595.4784
 21
8677.7005
 31
0
  0
LINE
  8
0
 10
1595.4784
 20
8677.7005
 30
0
 11
1632.9796
 21
8868.0797
 31
0
  0
LINE
  8
0
 10
1632.9796
 20
8868.0797
 30
0
 11
1748.4402
 21
8915.868
 31
0
  0
LINE
  8
0
 10
1748.4402
 20
8915.868
 30
0
 11
1660.1758
 21
8774.9179
 31
0
  0
LINE
  8
0
 10
1660.1758
 20
8774.9179
 30
0
 11
1702.7858
 21
8727.9002
 31
0
  0
LINE
  8
0
 10
1702.7858
 20
8727.9002
 30
0
 11
1759.6353
 21
8916.0511
 31
0
  0
LINE
  8
0
 10
1759.6353
 20
8916.0511
 30
0
 11
1980.7018
 21
9224.7408
 31
0
  0
LINE
  8
0
 10
1980.7018
 20
9224.7408
 30
0
 11
1943.0317
 21
9053.1318
 31
0
  0
LINE
  8
0
 10
1943.0317
 20
9053.1318
 30
0
 11
1875.3399
 21
9007.9199
 31
0
  0
LINE
  8
0
 10
1875.3399
 20
9007.9199
 30
0
 11
1810.971
 21
8824.537
 31
0
  0
LINE
  8
0
 10
1810.971
 20
8824.537
 30
0
 11
1882.8286
 21
8633.6023
 31
0
  0
LINE
  8
0
 10
1882.8286
 20
8633.6023
 30
0
 11
1886.6238
 21
8731.0077
 31
0
  0
LINE
  8
0
 10
1886.6238
 20
8731.0077
 30
0
 11
1992.2844
 21
8827.5515
 31
0
  0
LINE
  8
0
 10
1992.2844
 20
8827.5515
 30
0
 11
2040.1034
 21
8965.8939
 31
0
  0
LINE
  8
0
 10
2040.1034
 20
8965.8939
 30
0
 11
2151.4352
 21
9099.9977
 31
0
  0
LINE
  8
0
 10
2151.4352
 20
9099.9977
 30
0
 11
2395.3436
 21
9586.1515
 31
0
  0
LINE
  8
0
 10
2395.3436
 20
9586.1515
 30
0
 11
2464.3391
 21
9624.2834
 31
0
  0
LINE
  8
0
 10
2464.3391
 20
9624.2834
 30
0
 11
2451.0003
 21
9697.0853
 31
0
  0
LINE
  8
0
 10
2451.0003
 20
9697.0853
 30
0
 11
2711.6092
 21
10198.4543
 31
0
  0
LINE
  8
0
 10
2442.8301
 20
10457.5966
 30
0
 11
2316.4442
 21
10283.7495
 31
0
  0
LINE
  8
0
 10
2316.4442
 20
10283.7495
 30
0
 11
2291.3635
 21
10193.1446
 31
0
  0
LINE
  8
0
 10
2291.3635
 20
10193.1446
 30
0
 11
2074.9118
 21
9798.2888
 31
0
  0
LINE
  8
0
 10
2074.9118
 20
9798.2888
 30
0
 11
2045.5653
 21
9797.8843
 31
0
  0
LINE
  8
0
 10
2045.5653
 20
9797.8843
 30
0
 11
2013.5848
 21
9690.9193
 31
0
  0
LINE
  8
0
 10
2013.5848
 20
9690.9193
 30
0
 11
1929.8094
 21
9579.4386
 31
0
  0
LINE
  8
0
 10
1929.8094
 20
9579.4386
 30
0
 11
1809.4853
 21
9222.0936
 31
0
  0
LINE
  8
0
 10
1809.4853
 20
9222.0936
 30
0
 11
1635.6033
 21
9048.2245
 31
0
  0
LINE
  8
0
 10
1635.6033
 20
9048.2245
 30
0
 11
1514.3976
 21
8676.3184
 31
0
  0
LINE
  8
0
 10
1514.3976
 20
8676.3184
 30
0
 11
477.1796
 21
6824.5497
 31
0
  0
LINE
  8
0
 10
477.1796
 20
6824.5497
 30
0
 11
448.1321
 21
6746.764
 31
0
  0
LINE
  8
0
 10
1687.2717
 20
6927.2325
 30
0
 11
1709.2574
 21
7075.1703
 31
0
  0
LINE
  8
0
 10
1709.2574
 20
7075.1703
 30
0
 11
1719.7143
 21
7002.2815
 31
0
  0
LINE
  8
0
 10
1719.7143
 20
7002.2815
 30
0
 11
1687.2717
 21
6927.2325
 31
0
  0
LINE
  8
0
 10
9420.0659
 20
7098.7106
 30
0
 11
9236.6314
 21
7238.843
 31
0
  0
LINE
  8
0
 10
9236.6314
 20
7238.843
 30
0
 11
9375.2507
 21
7170.3801
 31
0
  0
LINE
  8
0
 10
9375.2507
 20
7170.3801
 30
0
 11
9420.0659
 21
7098.7106
 31
0
  0
LINE
  8
0
 10
11424.2608
 20
7143.1545
 30
0
 11
11231.8699
 21
7352.1552
 31
0
  0
LINE
  8
0
 10
11231.8699
 20
7352.1552
 30
0
 11
11169.43
 21
7487.3503
 31
0
  0
LINE
  8
0
 10
11169.43
 20
7487.3503
 30
0
 11
11167.5991
 21
7872.0146
 31
0
  0
LINE
  8
0
 10
11167.5991
 20
7872.0146
 30
0
 11
11297.3503
 21
7812.9682
 31
0
  0
LINE
  8
0
 10
11297.3503
 20
7812.9682
 30
0
 11
11166.7449
 21
8051.4792
 31
0
  0
LINE
  8
0
 10
11166.7449
 20
8051.4792
 30
0
 11
11305.8176
 21
7995.2741
 31
0
  0
LINE
  8
0
 10
11305.8176
 20
7995.2741
 30
0
 11
11441.611
 21
7753.3136
 31
0
  0
LINE
  8
0
 10
11441.611
 20
7753.3136
 30
0
 11
11339.7506
 21
7623.1363
 31
0
  0
LINE
  8
0
 10
11339.7506
 20
7623.1363
 30
0
 11
11449.7691
 21
7425.6073
 31
0
  0
LINE
  8
0
 10
11449.7691
 20
7425.6073
 30
0
 11
11437.8124
 21
7143.455
 31
0
  0
LINE
  8
0
 10
11437.8124
 20
7143.455
 30
0
 11
11424.2608
 21
7143.1545
 31
0
  0
LINE
  8
0
 10
5493.4259
 20
7085.1438
 30
0
 11
5409.8528
 21
7083.3088
 31
0
  0
LINE
  8
0
 10
5409.8528
 20
7083.3088
 30
0
 11
5480.359
 21
7157.1679
 31
0
  0
LINE
  8
0
 10
5480.359
 20
7157.1679
 30
0
 11
5493.4259
 21
7085.1438
 31
0
  0
LINE
  8
0
 10
63.0917
 20
7039.3767
 30
0
 11
136.8014
 21
7113.245
 31
0
  0
LINE
  8
0
 10
136.8014
 20
7113.245
 30
0
 11
69.0539
 21
7182.905
 31
0
  0
LINE
  8
0
 10
69.0539
 20
7182.905
 30
0
 11
94.3822
 21
7112.3316
 31
0
  0
LINE
  8
0
 10
94.3822
 20
7112.3316
 30
0
 11
63.0917
 21
7039.3767
 31
0
  0
LINE
  8
0
 10
10327.1459
 20
7262.5547
 30
0
 11
10209.383
 21
7330.138
 31
0
  0
LINE
  8
0
 10
10209.383
 20
7330.138
 30
0
 11
10275.9695
 21
7331.5718
 31
0
  0
LINE
  8
0
 10
10275.9695
 20
7331.5718
 30
0
 11
10327.1459
 21
7262.5547
 31
0
  0
LINE
  8
0
 10
574.519
 20
7122.6704
 30
0
 11
747.5951
 21
7403.6302
 31
0
  0
LINE
  8
0
 10
747.5951
 20
7403.6302
 30
0
 11
615.351
 21
7194.5552
 31
0
  0
LINE
  8
0
 10
615.351
 20
7194.5552
 30
0
 11
574.519
 21
7122.6704
 31
0
  0
LINE
  8
0
 10
6042.0083
 20
7240.4019
 30
0
 11
5919.0645
 21
7237.7545
 31
0
  0
LINE
  8
0
 10
5919.0645
 20
7237.7545
 30
0
 11
6024.7938
 21
7309.9156
 31
0
  0
LINE
  8
0
 10
6024.7938
 20
7309.9156
 30
0
 11
6042.0083
 21
7240.4019
 31
0
  0
LINE
  8
0
 10
6151.2164
 20
7242.7534
 30
0
 11
6055.6631
 21
7240.6959
 31
0
  0
LINE
  8
0
 10
6055.6631
 20
7240.6959
 30
0
 11
6133.1362
 21
7312.2261
 31
0
  0
LINE
  8
0
 10
6133.1362
 20
7312.2261
 30
0
 11
6151.2164
 21
7242.7534
 31
0
  0
LINE
  8
0
 10
10036.1336
 20
7326.4074
 30
0
 11
9934.6887
 21
7393.297
 31
0
  0
LINE
  8
0
 10
9934.6887
 20
7393.297
 30
0
 11
10000.8494
 21
7394.708
 31
0
  0
LINE
  8
0
 10
10000.8494
 20
7394.708
 30
0
 11
10036.1336
 21
7326.4074
 31
0
  0
LINE
  8
0
 10
1827.7673
 20
7220.4109
 30
0
 11
1816.7062
 21
7289.8041
 31
0
  0
LINE
  8
0
 10
1816.7062
 20
7289.8041
 30
0
 11
1947.6844
 21
7560.2315
 31
0
  0
LINE
  8
0
 10
1947.6844
 20
7560.2315
 30
0
 11
1858.0315
 21
7290.677
 31
0
  0
LINE
  8
0
 10
1858.0315
 20
7290.677
 30
0
 11
1827.7673
 21
7220.4109
 31
0
  0
LINE
  8
0
 10
10291.645
 20
7400.9094
 30
0
 11
10275.9695
 21
7331.5718
 31
0
  0
LINE
  8
0
 10
10275.9695
 20
7331.5718
 30
0
 11
10254.661
 21
7468.0288
 31
0
  0
LINE
  8
0
 10
10254.661
 20
7468.0288
 30
0
 11
10291.645
 21
7400.9094
 31
0
  0
LINE
  8
0
 10
5577.2049
 20
7369.2325
 30
0
 11
5278.0508
 21
7293.9908
 31
0
  0
LINE
  8
0
 10
5278.0508
 20
7293.9908
 30
0
 11
5125.7591
 21
7494.3609
 31
0
  0
LINE
  8
0
 10
5125.7591
 20
7494.3609
 30
0
 11
5227.2463
 21
7690.6625
 31
0
  0
LINE
  8
0
 10
5227.2463
 20
7690.6625
 30
0
 11
5123.3301
 21
7688.5687
 31
0
  0
LINE
  8
0
 10
5123.3301
 20
7688.5687
 30
0
 11
5168.6896
 21
7814.0847
 31
0
  0
LINE
  8
0
 10
5168.6896
 20
7814.0847
 30
0
 11
5180.3397
 21
8277.2358
 31
0
  0
LINE
  8
0
 10
5180.3397
 20
8277.2358
 30
0
 11
5245.486
 21
8386.0237
 31
0
  0
LINE
  8
0
 10
5245.486
 20
8386.0237
 30
0
 11
5150.3327
 21
8384.3022
 31
0
  0
LINE
  8
0
 10
5150.3327
 20
8384.3022
 30
0
 11
5229.1949
 21
8541.5738
 31
0
  0
LINE
  8
0
 10
5229.1949
 20
8541.5738
 30
0
 11
5165.075
 21
8640.8372
 31
0
  0
LINE
  8
0
 10
5165.075
 20
8640.8372
 30
0
 11
5204.7093
 21
8739.2207
 31
0
  0
LINE
  8
0
 10
5204.7093
 20
8739.2207
 30
0
 11
5187.3561
 21
8834.047
 31
0
  0
LINE
  8
0
 10
5187.3561
 20
8834.047
 30
0
 11
5232.1034
 21
8834.7971
 31
0
  0
LINE
  8
0
 10
5232.1034
 20
8834.7971
 30
0
 11
5187.3561
 21
8834.047
 31
0
  0
LINE
  8
0
 10
5187.3561
 20
8834.047
 30
0
 11
5184.1093
 21
8972.0597
 31
0
  0
LINE
  8
0
 10
5184.1093
 20
8972.0597
 30
0
 11
5362.438
 21
9064.0335
 31
0
  0
LINE
  8
0
 10
5362.438
 20
9064.0335
 30
0
 11
5311.8211
 21
9150.0418
 31
0
  0
LINE
  8
0
 10
5311.8211
 20
9150.0418
 30
0
 11
5367.9809
 21
9235.5761
 31
0
  0
LINE
  8
0
 10
5367.9809
 20
9235.5761
 30
0
 11
5209.6614
 21
9233.1088
 31
0
  0
LINE
  8
0
 10
5209.6614
 20
9233.1088
 30
0
 11
5187.8811
 21
9395.9721
 31
0
  0
LINE
  8
0
 10
5187.8811
 20
9395.9721
 30
0
 11
5215.2336
 21
9513.6626
 31
0
  0
LINE
  8
0
 10
5215.2336
 20
9513.6626
 30
0
 11
5239.394
 21
9396.75
 31
0
  0
LINE
  8
0
 10
5239.394
 20
9396.75
 30
0
 11
5239.5932
 21
9589.8954
 31
0
  0
LINE
  8
0
 10
5239.5932
 20
9589.8954
 30
0
 11
5329.5436
 21
9591.2023
 31
0
  0
LINE
  8
0
 10
5329.5436
 20
9591.2023
 30
0
 11
5345.2856
 21
9476.9734
 31
0
  0
LINE
  8
0
 10
5345.2856
 20
9476.9734
 30
0
 11
5379.4953
 21
9591.9281
 31
0
  0
LINE
  8
0
 10
5379.4953
 20
9591.9281
 30
0
 11
5599.2795
 21
9519.329
 31
0
  0
LINE
  8
0
 10
5599.2795
 20
9519.329
 30
0
 11
5638.6881
 21
9632.9193
 31
0
  0
LINE
  8
0
 10
5638.6881
 20
9632.9193
 30
0
 11
5630.9413
 21
9322.1715
 31
0
  0
LINE
  8
0
 10
5630.9413
 20
9322.1715
 30
0
 11
5649.7469
 21
9520.0736
 31
0
  0
LINE
  8
0
 10
5649.7469
 20
9520.0736
 30
0
 11
5866.5805
 21
9636.2055
 31
0
  0
LINE
  8
0
 10
5866.5805
 20
9636.2055
 30
0
 11
6007.6242
 21
9601.0548
 31
0
  0
LINE
  8
0
 10
6007.6242
 20
9601.0548
 30
0
 11
5851.4656
 21
9523.0499
 31
0
  0
LINE
  8
0
 10
5851.4656
 20
9523.0499
 30
0
 11
6045.6231
 21
9487.3865
 31
0
  0
LINE
  8
0
 10
6045.6231
 20
9487.3865
 30
0
 11
5803.6711
 21
9444.7674
 31
0
  0
LINE
  8
0
 10
5803.6711
 20
9444.7674
 30
0
 11
6012.8064
 21
9368.4753
 31
0
  0
LINE
  8
0
 10
6012.8064
 20
9368.4753
 30
0
 11
5999.7781
 21
9245.4222
 31
0
  0
LINE
  8
0
 10
5999.7781
 20
9245.4222
 30
0
 11
6039.8005
 21
9118.5263
 31
0
  0
LINE
  8
0
 10
6039.8005
 20
9118.5263
 30
0
 11
5991.4104
 21
9029.9949
 31
0
  0
LINE
  8
0
 10
5991.4104
 20
9029.9949
 30
0
 11
6054.6996
 21
8895.0928
 31
0
  0
LINE
  8
0
 10
6054.6996
 20
8895.0928
 30
0
 11
6060.63
 21
8453.3143
 31
0
  0
LINE
  8
0
 10
6060.63
 20
8453.3143
 30
0
 11
6027.8746
 21
8606.0661
 31
0
  0
LINE
  8
0
 10
6027.8746
 20
8606.0661
 30
0
 11
5966.5953
 21
8451.6276
 31
0
  0
LINE
  8
0
 10
5966.5953
 20
8451.6276
 30
0
 11
5790.1388
 21
8448.4626
 31
0
  0
LINE
  8
0
 10
5790.1388
 20
8448.4626
 30
0
 11
6025.3731
 21
8452.6819
 31
0
  0
LINE
  8
0
 10
6025.3731
 20
8452.6819
 30
0
 11
5902.6755
 21
8290.5345
 31
0
  0
LINE
  8
0
 10
5902.6755
 20
8290.5345
 30
0
 11
6034.769
 21
8292.9665
 31
0
  0
LINE
  8
0
 10
6034.769
 20
8292.9665
 30
0
 11
6060.2925
 21
8069.3432
 31
0
  0
LINE
  8
0
 10
6060.2925
 20
8069.3432
 30
0
 11
5976.6626
 21
8009.6431
 31
0
  0
LINE
  8
0
 10
5976.6626
 20
8009.6431
 30
0
 11
6088.6844
 21
8011.7993
 31
0
  0
LINE
  8
0
 10
6088.6844
 20
8011.7993
 30
0
 11
6087.3528
 21
7832.2561
 31
0
  0
LINE
  8
0
 10
6087.3528
 20
7832.2561
 30
0
 11
6023.7181
 21
7830.9974
 31
0
  0
LINE
  8
0
 10
6023.7181
 20
7830.9974
 30
0
 11
6087.3528
 21
7832.2561
 31
0
  0
LINE
  8
0
 10
6087.3528
 20
7832.2561
 30
0
 11
6142.204
 21
7381.1663
 31
0
  0
LINE
  8
0
 10
6142.204
 20
7381.1663
 30
0
 11
5821.4641
 21
7305.5795
 31
0
  0
LINE
  8
0
 10
5821.4641
 20
7305.5795
 30
0
 11
5844.4205
 21
7442.5964
 31
0
  0
LINE
  8
0
 10
5844.4205
 20
7442.5964
 30
0
 11
5789.4061
 21
7508.1139
 31
0
  0
LINE
  8
0
 10
5789.4061
 20
7508.1139
 30
0
 11
5851.4472
 21
7639.624
 31
0
  0
LINE
  8
0
 10
5851.4472
 20
7639.624
 30
0
 11
5693.2489
 21
7762.7293
 31
0
  0
LINE
  8
0
 10
5693.2489
 20
7762.7293
 30
0
 11
5675.5628
 21
8175.7985
 31
0
  0
LINE
  8
0
 10
5675.5628
 20
8175.7985
 30
0
 11
5708.5921
 21
8394.4024
 31
0
  0
LINE
  8
0
 10
5708.5921
 20
8394.4024
 30
0
 11
5672.3985
 21
8446.3508
 31
0
  0
LINE
  8
0
 10
5672.3985
 20
8446.3508
 30
0
 11
5730.2651
 21
8499.2549
 31
0
  0
LINE
  8
0
 10
5730.2651
 20
8499.2549
 30
0
 11
5658.065
 21
8698.494
 31
0
  0
LINE
  8
0
 10
5658.065
 20
8698.494
 30
0
 11
5769.3668
 21
8796.64
 31
0
  0
LINE
  8
0
 10
5769.3668
 20
8796.64
 30
0
 11
5690.0814
 21
8842.4746
 31
0
  0
LINE
  8
0
 10
5690.0814
 20
8842.4746
 30
0
 11
5636.341
 21
8548.7523
 31
0
  0
LINE
  8
0
 10
5636.341
 20
8548.7523
 30
0
 11
5684.8739
 21
8393.9733
 31
0
  0
LINE
  8
0
 10
5684.8739
 20
8393.9733
 30
0
 11
5652.1281
 21
8061.5573
 31
0
  0
LINE
  8
0
 10
5652.1281
 20
8061.5573
 30
0
 11
5590.1196
 21
8174.1975
 31
0
  0
LINE
  8
0
 10
5590.1196
 20
8174.1975
 30
0
 11
5601.5972
 21
8496.9669
 31
0
  0
LINE
  8
0
 10
5601.5972
 20
8496.9669
 30
0
 11
5519.6666
 21
8495.5099
 31
0
  0
LINE
  8
0
 10
5519.6666
 20
8495.5099
 30
0
 11
5601.9551
 21
8339.1153
 31
0
  0
LINE
  8
0
 10
5601.9551
 20
8339.1153
 30
0
 11
5541.5869
 21
8228.9837
 31
0
  0
LINE
  8
0
 10
5541.5869
 20
8228.9837
 30
0
 11
5577.9099
 21
8173.9687
 31
0
  0
LINE
  8
0
 10
5577.9099
 20
8173.9687
 30
0
 11
5539.9835
 21
7942.1929
 31
0
  0
LINE
  8
0
 10
5539.9835
 20
7942.1929
 30
0
 11
5288.2745
 21
7937.304
 31
0
  0
LINE
  8
0
 10
5288.2745
 20
7937.304
 30
0
 11
5552.5591
 21
7942.4371
 31
0
  0
LINE
  8
0
 10
5552.5591
 20
7942.4371
 30
0
 11
5334.9295
 21
7817.373
 31
0
  0
LINE
  8
0
 10
5334.9295
 20
7817.373
 30
0
 11
5488.2367
 21
7820.4054
 31
0
  0
LINE
  8
0
 10
5488.2367
 20
7820.4054
 30
0
 11
5577.2643
 21
7437.0072
 31
0
  0
LINE
  8
0
 10
5577.2643
 20
7437.0072
 30
0
 11
5577.2049
 21
7369.2325
 31
0
  0
LINE
  8
0
 10
5644.566
 20
7370.6553
 30
0
 11
5577.2049
 21
7369.2325
 31
0
  0
LINE
  8
0
 10
5577.2049
 20
7369.2325
 30
0
 11
5630.7294
 21
7438.1258
 31
0
  0
LINE
  8
0
 10
5630.7294
 20
7438.1258
 30
0
 11
5644.566
 21
7370.6553
 31
0
  0
LINE
  8
0
 10
10097.3371
 20
7464.7058
 30
0
 11
9957.9826
 21
7528.6565
 31
0
  0
LINE
  8
0
 10
9957.9826
 20
7528.6565
 30
0
 11
9818.8629
 21
7845.0896
 31
0
  0
LINE
  8
0
 10
9818.8629
 20
7845.0896
 30
0
 11
9756.156
 21
7843.8377
 31
0
  0
LINE
  8
0
 10
9756.156
 20
7843.8377
 30
0
 11
9731.5045
 21
7964.4174
 31
0
  0
LINE
  8
0
 10
9731.5045
 20
7964.4174
 30
0
 11
9610.1326
 21
8079.5792
 31
0
  0
LINE
  8
0
 10
9610.1326
 20
8079.5792
 30
0
 11
9403.0487
 21
8461.244
 31
0
  0
LINE
  8
0
 10
9403.0487
 20
8461.244
 30
0
 11
9450.1784
 21
8615.9951
 31
0
  0
LINE
  8
0
 10
9450.1784
 20
8615.9951
 30
0
 11
9756.2782
 21
8082.3922
 31
0
  0
LINE
  8
0
 10
9756.2782
 20
8082.3922
 30
0
 11
10010.6468
 21
7724.2115
 31
0
  0
LINE
  8
0
 10
10010.6468
 20
7724.2115
 30
0
 11
10110.4531
 21
7464.9828
 31
0
  0
LINE
  8
0
 10
10110.4531
 20
7464.9828
 30
0
 11
10097.3371
 21
7464.7058
 31
0
  0
LINE
  8
0
 10
2215.389
 20
7366.6733
 30
0
 11
2344.7209
 21
7695.8821
 31
0
  0
LINE
  8
0
 10
2344.7209
 20
7695.8821
 30
0
 11
2242.0749
 21
7434.601
 31
0
  0
LINE
  8
0
 10
2242.0749
 20
7434.601
 30
0
 11
2215.389
 21
7366.6733
 31
0
  0
LINE
  8
0
 10
9070.0092
 20
7510.0791
 30
0
 11
9004.5302
 21
7508.7092
 31
0
  0
LINE
  8
0
 10
9004.5302
 20
7508.7092
 30
0
 11
8938.8967
 21
7702.4148
 31
0
  0
LINE
  8
0
 10
8938.8967
 20
7702.4148
 30
0
 11
9029.2116
 21
7640.2547
 31
0
  0
LINE
  8
0
 10
9029.2116
 20
7640.2547
 30
0
 11
9029.9623
 21
7575.2695
 31
0
  0
LINE
  8
0
 10
9029.9623
 20
7575.2695
 30
0
 11
9070.0092
 21
7510.0791
 31
0
  0
LINE
  8
0
 10
5285.2723
 20
7497.6666
 30
0
 11
5418.0851
 21
7500.4189
 31
0
  0
LINE
  8
0
 10
5418.0851
 20
7500.4189
 30
0
 11
5298.5583
 21
7497.9419
 31
0
  0
LINE
  8
0
 10
5298.5583
 20
7497.9419
 30
0
 11
5285.2723
 21
7497.6666
 31
0
  0
LINE
  8
0
 10
5683.3977
 20
7505.9171
 30
0
 11
5590.5857
 21
7503.9937
 31
0
  0
LINE
  8
0
 10
5590.5857
 20
7503.9937
 30
0
 11
5669.4774
 21
7571.2829
 31
0
  0
LINE
  8
0
 10
5669.4774
 20
7571.2829
 30
0
 11
5683.3977
 21
7505.9171
 31
0
  0
LINE
  8
0
 10
2107.2305
 20
7498.1537
 30
0
 11
2108.1649
 21
7627.8166
 31
0
  0
LINE
  8
0
 10
2108.1649
 20
7627.8166
 30
0
 11
2147.6821
 21
7564.2989
 31
0
  0
LINE
  8
0
 10
2147.6821
 20
7564.2989
 30
0
 11
2107.2305
 21
7498.1537
 31
0
  0
LINE
  8
0
 10
8926.2083
 20
7827.2694
 30
0
 11
8875.7756
 21
7826.2626
 31
0
  0
LINE
  8
0
 10
8875.7756
 20
7826.2626
 30
0
 11
8645.315
 21
8394.658
 31
0
  0
LINE
  8
0
 10
8645.315
 20
8394.658
 30
0
 11
8658.9909
 21
8447.7822
 31
0
  0
LINE
  8
0
 10
8658.9909
 20
8447.7822
 30
0
 11
8235.1274
 21
9481.2012
 31
0
  0
LINE
  8
0
 10
8235.1274
 20
9481.2012
 30
0
 11
8324.6222
 21
9363.4922
 31
0
  0
LINE
  8
0
 10
8324.6222
 20
9363.4922
 30
0
 11
8913.7514
 21
7888.163
 31
0
  0
LINE
  8
0
 10
8913.7514
 20
7888.163
 30
0
 11
8926.2083
 21
7827.2694
 31
0
  0
LINE
  8
0
 10
5640.9803
 20
7884.2428
 30
0
 11
5602.7183
 21
8002.4455
 31
0
  0
LINE
  8
0
 10
5602.7183
 20
8002.4455
 30
0
 11
5640.5621
 21
7944.1464
 31
0
  0
LINE
  8
0
 10
5640.5621
 20
7944.1464
 30
0
 11
5640.9803
 21
7884.2428
 31
0
  0
LINE
  8
0
 10
9013.2162
 20
7950.3389
 30
0
 11
8976.3
 21
7889.4002
 31
0
  0
LINE
  8
0
 10
8976.3
 20
7889.4002
 30
0
 11
8877.4787
 21
8065.4773
 31
0
  0
LINE
  8
0
 10
8877.4787
 20
8065.4773
 30
0
 11
8975.6632
 21
8008.9227
 31
0
  0
LINE
  8
0
 10
8975.6632
 20
8008.9227
 30
0
 11
9013.2162
 21
7950.3389
 31
0
  0
LINE
  8
0
 10
2263.8754
 20
7878.5623
 30
0
 11
2212.9149
 21
7817.0524
 31
0
  0
LINE
  8
0
 10
2212.9149
 20
7817.0524
 30
0
 11
2298.4626
 21
8112.5174
 31
0
  0
LINE
  8
0
 10
2298.4626
 20
8112.5174
 30
0
 11
2359.3147
 21
8169.8783
 31
0
  0
LINE
  8
0
 10
2359.3147
 20
8169.8783
 30
0
 11
2288.6211
 21
7938.6567
 31
0
  0
LINE
  8
0
 10
2288.6211
 20
7938.6567
 30
0
 11
2263.8754
 21
7878.5623
 31
0
  0
LINE
  8
0
 10
2404.8513
 20
7881.3004
 30
0
 11
2667.5525
 21
8547.3217
 31
0
  0
LINE
  8
0
 10
2667.5525
 20
8547.3217
 30
0
 11
2428.5368
 21
7941.3497
 31
0
  0
LINE
  8
0
 10
2428.5368
 20
7941.3497
 30
0
 11
2404.8513
 21
7881.3004
 31
0
  0
LINE
  8
0
 10
11300.4558
 20
8054.0762
 30
0
 11
11174.5155
 21
8109.69
 31
0
  0
LINE
  8
0
 10
11174.5155
 20
8109.69
 30
0
 11
11271.0485
 21
8111.5481
 31
0
  0
LINE
  8
0
 10
11271.0485
 20
8111.5481
 30
0
 11
11300.4558
 21
8054.0762
 31
0
  0
LINE
  8
0
 10
5802.2584
 20
8006.2862
 30
0
 11
5916.8447
 21
7949.5125
 31
0
  0
LINE
  8
0
 10
5916.8447
 20
7949.5125
 30
0
 11
5814.7218
 21
8006.5261
 31
0
  0
LINE
  8
0
 10
5814.7218
 20
8006.5261
 30
0
 11
5802.2584
 21
8006.2862
 31
0
  0
LINE
  8
0
 10
5211.2076
 20
8167.0973
 30
0
 11
5274.6209
 21
8224.0253
 31
0
  0
LINE
  8
0
 10
5274.6209
 20
8224.0253
 30
0
 11
5213.8879
 21
8222.8973
 31
0
  0
LINE
  8
0
 10
5213.8879
 20
8222.8973
 30
0
 11
5211.2076
 21
8167.0973
 31
0
  0
LINE
  8
0
 10
5785.3549
 20
8177.8558
 30
0
 11
5856.5489
 21
8234.8336
 31
0
  0
LINE
  8
0
 10
5856.5489
 20
8234.8336
 30
0
 11
5746.4315
 21
8287.658
 31
0
  0
LINE
  8
0
 10
5746.4315
 20
8287.658
 30
0
 11
5771.8093
 21
8233.2597
 31
0
  0
LINE
  8
0
 10
5771.8093
 20
8233.2597
 30
0
 11
5785.3549
 21
8177.8558
 31
0
  0
LINE
  8
0
 10
8890.6636
 20
8236.044
 30
0
 11
8866.233
 21
8179.6369
 31
0
  0
LINE
  8
0
 10
8866.233
 20
8179.6369
 30
0
 11
8773.2186
 21
8343.3834
 31
0
  0
LINE
  8
0
 10
8773.2186
 20
8343.3834
 30
0
 11
8596.3527
 21
8844.4262
 31
0
  0
LINE
  8
0
 10
8596.3527
 20
8844.4262
 30
0
 11
8681.2687
 21
8750.4592
 31
0
  0
LINE
  8
0
 10
8681.2687
 20
8750.4592
 30
0
 11
8698.8844
 21
8602.7489
 31
0
  0
LINE
  8
0
 10
8698.8844
 20
8602.7489
 30
0
 11
8867.197
 21
8290.7514
 31
0
  0
LINE
  8
0
 10
8867.197
 20
8290.7514
 30
0
 11
8890.6636
 21
8236.044
 31
0
  0
LINE
  8
0
 10
5469.6449
 20
8282.5621
 30
0
 11
5517.8144
 21
8283.449
 31
0
  0
LINE
  8
0
 10
5517.8144
 20
8283.449
 30
0
 11
5481.6886
 21
8282.7839
 31
0
  0
LINE
  8
0
 10
5481.6886
 20
8282.7839
 30
0
 11
5469.6449
 21
8282.5621
 31
0
  0
LINE
  8
0
 10
2417.5063
 20
8280.9977
 30
0
 11
2357.9552
 21
8225.2736
 31
0
  0
LINE
  8
0
 10
2357.9552
 20
8225.2736
 30
0
 11
2414.0343
 21
8387.907
 31
0
  0
LINE
  8
0
 10
2414.0343
 20
8387.907
 30
0
 11
2439.938
 21
8335.2646
 31
0
  0
LINE
  8
0
 10
2439.938
 20
8335.2646
 30
0
 11
2417.5063
 21
8280.9977
 31
0
  0
LINE
  8
0
 10
1623.5505
 20
8426.2258
 30
0
 11
1855.3327
 21
8533.1227
 31
0
  0
LINE
  8
0
 10
1855.3327
 20
8533.1227
 30
0
 11
1555.9064
 21
8476.809
 31
0
  0
LINE
  8
0
 10
1555.9064
 20
8476.809
 30
0
 11
1639.1954
 21
8478.2775
 31
0
  0
LINE
  8
0
 10
1639.1954
 20
8478.2775
 30
0
 11
1623.5505
 21
8426.2258
 31
0
  0
LINE
  8
0
 10
11035.8209
 20
8593.6029
 30
0
 11
10917.8743
 21
8691.552
 31
0
  0
LINE
  8
0
 10
10917.8743
 20
8691.552
 30
0
 11
10960.0228
 21
8741.2885
 31
0
  0
LINE
  8
0
 10
10960.0228
 20
8741.2885
 30
0
 11
11047.1483
 21
8593.8043
 31
0
  0
LINE
  8
0
 10
11047.1483
 20
8593.8043
 30
0
 11
11035.8209
 21
8593.6029
 31
0
  0
LINE
  8
0
 10
2493.5304
 20
8493.3405
 30
0
 11
2498.5616
 21
8644.186
 31
0
  0
LINE
  8
0
 10
2498.5616
 20
8644.186
 30
0
 11
2559.1646
 21
8595.6656
 31
0
  0
LINE
  8
0
 10
2559.1646
 20
8595.6656
 30
0
 11
2503.067
 21
8544.4462
 31
0
  0
LINE
  8
0
 10
2503.067
 20
8544.4462
 30
0
 11
2493.5304
 21
8493.3405
 31
0
  0
LINE
  8
0
 10
5357.2609
 20
8543.8318
 30
0
 11
5392.1712
 21
8544.4473
 31
0
  0
LINE
  8
0
 10
5392.1712
 20
8544.4473
 30
0
 11
5358.8144
 21
8594.3698
 31
0
  0
LINE
  8
0
 10
5358.8144
 20
8594.3698
 30
0
 11
5396.0629
 21
8693.9905
 31
0
  0
LINE
  8
0
 10
5396.0629
 20
8693.9905
 30
0
 11
5304.8364
 21
8692.4224
 31
0
  0
LINE
  8
0
 10
5304.8364
 20
8692.4224
 30
0
 11
5361.8587
 21
8693.4026
 31
0
  0
LINE
  8
0
 10
5361.8587
 20
8693.4026
 30
0
 11
5347.2556
 21
8594.1677
 31
0
  0
LINE
  8
0
 10
5347.2556
 20
8594.1677
 30
0
 11
5357.2609
 21
8543.8318
 31
0
  0
LINE
  8
0
 10
5485.2299
 20
8546.088
 30
0
 11
5601.2539
 21
8648.398
 31
0
  0
LINE
  8
0
 10
5601.2539
 20
8648.398
 30
0
 11
5578.5347
 21
8887.1761
 31
0
  0
LINE
  8
0
 10
5578.5347
 20
8887.1761
 30
0
 11
5622.8859
 21
8887.9135
 31
0
  0
LINE
  8
0
 10
5622.8859
 20
8887.9135
 30
0
 11
5523.8774
 21
8977.6167
 31
0
  0
LINE
  8
0
 10
5523.8774
 20
8977.6167
 30
0
 11
5589.5289
 21
9023.4753
 31
0
  0
LINE
  8
0
 10
5589.5289
 20
9023.4753
 30
0
 11
5524.2687
 21
9022.4166
 31
0
  0
LINE
  8
0
 10
5524.2687
 20
9022.4166
 30
0
 11
5511.9862
 21
8886.0697
 31
0
  0
LINE
  8
0
 10
5511.9862
 20
8886.0697
 30
0
 11
5291.8898
 21
8928.4142
 31
0
  0
LINE
  8
0
 10
5291.8898
 20
8928.4142
 30
0
 11
5567.4451
 21
8886.9917
 31
0
  0
LINE
  8
0
 10
5567.4451
 20
8886.9917
 30
0
 11
5601.0327
 21
8745.9761
 31
0
  0
LINE
  8
0
 10
5601.0327
 20
8745.9761
 30
0
 11
5497.4584
 21
8596.7935
 31
0
  0
LINE
  8
0
 10
5497.4584
 20
8596.7935
 30
0
 11
5485.2299
 21
8546.088
 31
0
  0
LINE
  8
0
 10
9350.7009
 20
8761.966
 30
0
 11
9272.7386
 21
8760.6259
 31
0
  0
LINE
  8
0
 10
9272.7386
 20
8760.6259
 30
0
 11
9378.122
 21
8857.641
 31
0
  0
LINE
  8
0
 10
9378.122
 20
8857.641
 30
0
 11
9431.9787
 21
8714.8009
 31
0
  0
LINE
  8
0
 10
9431.9787
 20
8714.8009
 30
0
 11
9361.8354
 21
8762.1573
 31
0
  0
LINE
  8
0
 10
9361.8354
 20
8762.1573
 30
0
 11
9350.7009
 21
8761.966
 31
0
  0
LINE
  8
0
 10
2617.0224
 20
8790.9583
 30
0
 11
2622.3936
 21
8884.3949
 31
0
  0
LINE
  8
0
 10
2622.3936
 20
8884.3949
 30
0
 11
2701.6476
 21
9021.2167
 31
0
  0
LINE
  8
0
 10
2701.6476
 20
9021.2167
 30
0
 11
2716.1334
 21
8976.861
 31
0
  0
LINE
  8
0
 10
2716.1334
 20
8976.861
 30
0
 11
2647.9345
 21
8838.4523
 31
0
  0
LINE
  8
0
 10
2647.9345
 20
8838.4523
 30
0
 11
2617.0224
 21
8790.9583
 31
0
  0
LINE
  8
0
 10
9426.4967
 20
8951.1519
 30
0
 11
9361.4566
 21
8950.0705
 31
0
  0
LINE
  8
0
 10
9361.4566
 20
8950.0705
 30
0
 11
9293.1039
 21
9213.0846
 31
0
  0
LINE
  8
0
 10
9293.1039
 20
9213.0846
 30
0
 11
9401.7532
 21
8996.1848
 31
0
  0
LINE
  8
0
 10
9401.7532
 20
8996.1848
 30
0
 11
9426.4967
 21
8951.1519
 31
0
  0
LINE
  8
0
 10
1993.431
 20
8874.0234
 30
0
 11
1880.8717
 21
8872.1674
 31
0
  0
LINE
  8
0
 10
1880.8717
 20
8872.1674
 30
0
 11
1972.2025
 21
8919.5278
 31
0
  0
LINE
  8
0
 10
1972.2025
 20
8919.5278
 30
0
 11
1996.7826
 21
9009.8742
 31
0
  0
LINE
  8
0
 10
1996.7826
 20
9009.8742
 30
0
 11
2016.9198
 21
8920.2591
 31
0
  0
LINE
  8
0
 10
2016.9198
 20
8920.2591
 30
0
 11
1993.431
 21
8874.0234
 31
0
  0
LINE
  8
0
 10
5699.7185
 20
8935.1392
 30
0
 11
5754.755
 21
8936.0467
 31
0
  0
LINE
  8
0
 10
5754.755
 20
8936.0467
 30
0
 11
5698.9745
 21
8980.4805
 31
0
  0
LINE
  8
0
 10
5698.9745
 20
8980.4805
 30
0
 11
5699.7185
 21
8935.1392
 31
0
  0
LINE
  8
0
 10
9110.7393
 20
8991.386
 30
0
 11
9114.271
 21
8853.1809
 31
0
  0
LINE
  8
0
 10
9114.271
 20
8853.1809
 30
0
 11
9012.5912
 21
9079.0066
 31
0
  0
LINE
  8
0
 10
9012.5912
 20
9079.0066
 30
0
 11
9077.4356
 21
9035.7364
 31
0
  0
LINE
  8
0
 10
9077.4356
 20
9035.7364
 30
0
 11
9110.7393
 21
8991.386
 31
0
  0
LINE
  8
0
 10
8532.418
 20
9071.2169
 30
0
 11
8489.6691
 21
9070.5234
 31
0
  0
LINE
  8
0
 10
8489.6691
 20
9070.5234
 30
0
 11
8382.6455
 21
9323.7231
 31
0
  0
LINE
  8
0
 10
8382.6455
 20
9323.7231
 30
0
 11
8379.2219
 21
9404.4919
 31
0
  0
LINE
  8
0
 10
8379.2219
 20
9404.4919
 30
0
 11
8543.1035
 21
9071.3902
 31
0
  0
LINE
  8
0
 10
8543.1035
 20
9071.3902
 30
0
 11
8532.418
 21
9071.2169
 31
0
  0
LINE
  8
0
 10
1963.6704
 20
9009.3413
 30
0
 11
1977.1512
 21
9097.238
 31
0
  0
LINE
  8
0
 10
1977.1512
 20
9097.238
 30
0
 11
2032.4906
 21
9141.1226
 31
0
  0
LINE
  8
0
 10
2032.4906
 20
9141.1226
 30
0
 11
1974.7085
 21
9009.519
 31
0
  0
LINE
  8
0
 10
1974.7085
 20
9009.519
 30
0
 11
1963.6704
 21
9009.3413
 31
0
  0
LINE
  8
0
 10
10193.655
 20
9141.7762
 30
0
 11
10367.2869
 21
9313.4865
 31
0
  0
LINE
  8
0
 10
10367.2869
 20
9313.4865
 30
0
 11
10226.0947
 21
9352.2252
 31
0
  0
LINE
  8
0
 10
10226.0947
 20
9352.2252
 30
0
 11
10216.0134
 21
9698.9227
 31
0
  0
LINE
  8
0
 10
10216.0134
 20
9698.9227
 30
0
 11
10045.0651
 21
9942.0421
 31
0
  0
LINE
  8
0
 10
10045.0651
 20
9942.0421
 30
0
 11
10044.8978
 21
10041.4596
 31
0
  0
LINE
  8
0
 10
10044.8978
 20
10041.4596
 30
0
 11
9854.1359
 21
10258.6399
 31
0
  0
LINE
  8
0
 10
9854.1359
 20
10258.6399
 30
0
 11
9904.7978
 21
10167.1686
 31
0
  0
LINE
  8
0
 10
9904.7978
 20
10167.1686
 30
0
 11
9827.7568
 21
10258.3042
 31
0
  0
LINE
  8
0
 10
9827.7568
 20
10258.3042
 30
0
 11
9757.5107
 21
10489.3346
 31
0
  0
LINE
  8
0
 10
9757.5107
 20
10489.3346
 30
0
 11
9689.9973
 21
10488.5224
 31
0
  0
LINE
  8
0
 10
9795.6559
 20
10461.8494
 30
0
 11
9791.5772
 21
10433.5668
 31
0
  0
LINE
  8
0
 10
9791.5772
 20
10433.5668
 30
0
 11
10112.6455
 21
9976.4712
 31
0
  0
LINE
  8
0
 10
10112.6455
 20
9976.4712
 30
0
 11
10202.0276
 21
10075.9569
 31
0
  0
LINE
  8
0
 10
10202.0276
 20
10075.9569
 30
0
 11
10079.8931
 21
10231.1525
 31
0
  0
LINE
  8
0
 10
10079.8931
 20
10231.1525
 30
0
 11
10050.8044
 21
10106.0015
 31
0
  0
LINE
  8
0
 10
10050.8044
 20
10106.0015
 30
0
 11
9732.7598
 21
10598.0322
 31
0
  0
LINE
  8
0
 10
9011.3643
 20
10616.2169
 30
0
 11
9010.9778
 21
10642.575
 31
0
  0
LINE
  8
0
 10
9126.0593
 20
10643.9035
 30
0
 11
9198.3522
 21
10510.3174
 31
0
  0
LINE
  8
0
 10
9198.3522
 20
10510.3174
 30
0
 11
9145.6501
 21
10564.2773
 31
0
  0
LINE
  8
0
 10
9145.6501
 20
10564.2773
 30
0
 11
9182.7737
 21
10482.4209
 31
0
  0
LINE
  8
0
 10
9182.7737
 20
10482.4209
 30
0
 11
9131.9665
 21
10481.8097
 31
0
  0
LINE
  8
0
 10
9131.9665
 20
10481.8097
 30
0
 11
9381.0554
 21
10222.1962
 31
0
  0
LINE
  8
0
 10
9381.0554
 20
10222.1962
 30
0
 11
9441.6984
 21
10033.3863
 31
0
  0
LINE
  8
0
 10
9441.6984
 20
10033.3863
 30
0
 11
9576.9484
 21
9969.1954
 31
0
  0
LINE
  8
0
 10
9576.9484
 20
9969.1954
 30
0
 11
9571.2633
 21
9935.5593
 31
0
  0
LINE
  8
0
 10
9571.2633
 20
9935.5593
 30
0
 11
9882.2823
 21
9466.8642
 31
0
  0
LINE
  8
0
 10
9882.2823
 20
9466.8642
 30
0
 11
9812.128
 21
9465.8047
 31
0
  0
LINE
  8
0
 10
9812.128
 20
9465.8047
 30
0
 11
10011.6384
 21
9224.4624
 31
0
  0
LINE
  8
0
 10
10011.6384
 20
9224.4624
 30
0
 11
9977.7205
 21
9307.4154
 31
0
  0
LINE
  8
0
 10
9977.7205
 20
9307.4154
 30
0
 11
10154.3427
 21
9184.2045
 31
0
  0
LINE
  8
0
 10
10154.3427
 20
9184.2045
 30
0
 11
10193.655
 21
9141.7762
 31
0
  0
LINE
  8
0
 10
5472.0403
 20
9152.5788
 30
0
 11
5536.3904
 21
9196.1644
 31
0
  0
LINE
  8
0
 10
5536.3904
 20
9196.1644
 30
0
 11
5462.1374
 21
9194.998
 31
0
  0
LINE
  8
0
 10
5462.1374
 20
9194.998
 30
0
 11
5472.0403
 21
9152.5788
 31
0
  0
LINE
  8
0
 10
5664.1029
 20
9155.6201
 30
0
 11
5716.5833
 21
9198.995
 31
0
  0
LINE
  8
0
 10
5716.5833
 20
9198.995
 30
0
 11
5653.0077
 21
9197.9963
 31
0
  0
LINE
  8
0
 10
5653.0077
 20
9197.9963
 30
0
 11
5664.1029
 21
9155.6201
 31
0
  0
LINE
  8
0
 10
9000.64
 20
9208.4535
 30
0
 11
8948.3603
 21
9207.6256
 31
0
  0
LINE
  8
0
 10
8948.3603
 20
9207.6256
 30
0
 11
8847.0248
 21
9451.2303
 31
0
  0
LINE
  8
0
 10
8847.0248
 20
9451.2303
 30
0
 11
8877.2688
 21
9451.6871
 31
0
  0
LINE
  8
0
 10
8877.2688
 20
9451.6871
 30
0
 11
8751.6993
 21
9640.926
 31
0
  0
LINE
  8
0
 10
8751.6993
 20
9640.926
 30
0
 11
8753.82
 21
9714.29
 31
0
  0
LINE
  8
0
 10
8753.82
 20
9714.29
 30
0
 11
8887.6276
 21
9490.9785
 31
0
  0
LINE
  8
0
 10
8887.6276
 20
9490.9785
 30
0
 11
8979.4401
 21
9250.2504
 31
0
  0
LINE
  8
0
 10
8979.4401
 20
9250.2504
 30
0
 11
9000.64
 21
9208.4535
 31
0
  0
LINE
  8
0
 10
9052.1547
 20
9251.3926
 30
0
 11
9020.9952
 21
9250.9031
 31
0
  0
LINE
  8
0
 10
9020.9952
 20
9250.9031
 30
0
 11
9062.5399
 21
9251.5558
 31
0
  0
LINE
  8
0
 10
9062.5399
 20
9251.5558
 30
0
 11
9052.1547
 21
9251.3926
 31
0
  0
LINE
  8
0
 10
5894.6427
 20
9243.7837
 30
0
 11
5957.7318
 21
9244.7669
 31
0
  0
LINE
  8
0
 10
5957.7318
 20
9244.7669
 30
0
 11
5903.177
 21
9285.3873
 31
0
  0
LINE
  8
0
 10
5903.177
 20
9285.3873
 30
0
 11
5894.6427
 21
9243.7837
 31
0
  0
LINE
  8
0
 10
9226.7785
 20
9295.7125
 30
0
 11
9207.8653
 21
9253.8386
 31
0
  0
LINE
  8
0
 10
9207.8653
 20
9253.8386
 30
0
 11
9121.3068
 21
9375.7132
 31
0
  0
LINE
  8
0
 10
9121.3068
 20
9375.7132
 30
0
 11
9127.9087
 21
9494.5789
 31
0
  0
LINE
  8
0
 10
9127.9087
 20
9494.5789
 30
0
 11
9201.1578
 21
9417.0017
 31
0
  0
LINE
  8
0
 10
9201.1578
 20
9417.0017
 30
0
 11
9237.0883
 21
9295.8732
 31
0
  0
LINE
  8
0
 10
9237.0883
 20
9295.8732
 30
0
 11
9226.7785
 21
9295.7125
 31
0
  0
LINE
  8
0
 10
10090.5835
 20
9309.1743
 30
0
 11
10049.5512
 21
9308.5348
 31
0
  0
LINE
  8
0
 10
10049.5512
 20
9308.5348
 30
0
 11
9349.9442
 21
10399.6156
 31
0
  0
LINE
  8
0
 10
10048.3074
 20
9873.9191
 30
0
 11
10112.6147
 21
9733.7352
 31
0
  0
LINE
  8
0
 10
10112.6147
 20
9733.7352
 30
0
 11
10100.8399
 21
9309.3341
 31
0
  0
LINE
  8
0
 10
10100.8399
 20
9309.3341
 30
0
 11
10090.5835
 21
9309.1743
 31
0
  0
LINE
  8
0
 10
2130.3753
 20
9227.0549
 30
0
 11
2120.5734
 21
9349.6514
 31
0
  0
LINE
  8
0
 10
2120.5734
 20
9349.6514
 30
0
 11
2204.2695
 21
9390.8327
 31
0
  0
LINE
  8
0
 10
2204.2695
 20
9390.8327
 30
0
 11
2151.8478
 21
9268.8027
 31
0
  0
LINE
  8
0
 10
2151.8478
 20
9268.8027
 30
0
 11
2130.3753
 21
9227.0549
 31
0
  0
LINE
  8
0
 10
5526.5147
 20
9279.5636
 30
0
 11
5599.7275
 21
9321.6927
 31
0
  0
LINE
  8
0
 10
5599.7275
 20
9321.6927
 30
0
 11
5422.7403
 21
9318.9777
 31
0
  0
LINE
  8
0
 10
5422.7403
 20
9318.9777
 30
0
 11
5516.4625
 21
9320.4154
 31
0
  0
LINE
  8
0
 10
5516.4625
 20
9320.4154
 30
0
 11
5526.5147
 21
9279.5636
 31
0
  0
LINE
  8
0
 10
5788.1749
 20
9283.6092
 30
0
 11
5850.9131
 21
9284.5793
 31
0
  0
LINE
  8
0
 10
5850.9131
 20
9284.5793
 30
0
 11
5798.6329
 21
9283.7709
 31
0
  0
LINE
  8
0
 10
5798.6329
 20
9283.7709
 30
0
 11
5788.1749
 21
9283.6092
 31
0
  0
LINE
  8
0
 10
2836.5957
 20
9320.1337
 30
0
 11
2794.5429
 21
9319.4936
 31
0
  0
LINE
  8
0
 10
2794.5429
 20
9319.4936
 30
0
 11
2855.5432
 21
9439.9542
 31
0
  0
LINE
  8
0
 10
2855.5432
 20
9439.9542
 30
0
 11
2842.9885
 21
9360.5609
 31
0
  0
LINE
  8
0
 10
2842.9885
 20
9360.5609
 30
0
 11
2836.5957
 21
9320.1337
 31
0
  0
LINE
  8
0
 10
2047.1135
 20
9348.5421
 30
0
 11
1994.6228
 21
9347.7494
 31
0
  0
LINE
  8
0
 10
1994.6228
 20
9347.7494
 30
0
 11
2068.7102
 21
9388.8014
 31
0
  0
LINE
  8
0
 10
2068.7102
 20
9388.8014
 30
0
 11
2047.1135
 21
9348.5421
 31
0
  0
LINE
  8
0
 10
8372.486
 20
9444.0641
 30
0
 11
8290.9144
 21
9634.2308
 31
0
  0
LINE
  8
0
 10
8290.9144
 20
9634.2308
 30
0
 11
8365.8311
 21
9483.1597
 31
0
  0
LINE
  8
0
 10
8365.8311
 20
9483.1597
 30
0
 11
8372.486
 21
9444.0641
 31
0
  0
LINE
  8
0
 10
5425.6777
 20
9439.1034
 30
0
 11
5497.2549
 21
9440.1759
 31
0
  0
LINE
  8
0
 10
5497.2549
 20
9440.1759
 30
0
 11
5435.9048
 21
9439.2566
 31
0
  0
LINE
  8
0
 10
5435.9048
 20
9439.2566
 30
0
 11
5425.6777
 21
9439.1034
 31
0
  0
LINE
  8
0
 10
8997.7993
 20
9492.6293
 30
0
 11
8947.817
 21
9452.7524
 31
0
  0
LINE
  8
0
 10
8947.817
 20
9452.7524
 30
0
 11
8727.1958
 21
9785.5573
 31
0
  0
LINE
  8
0
 10
8727.1958
 20
9785.5573
 30
0
 11
8534.6472
 21
10180.5188
 31
0
  0
LINE
  8
0
 10
8534.6472
 20
10180.5188
 30
0
 11
8456.6759
 21
10417.2839
 31
0
  0
LINE
  8
0
 10
8475.6305
 20
10636.395
 30
0
 11
8654.0708
 21
10243.3692
 31
0
  0
LINE
  8
0
 10
8654.0708
 20
10243.3692
 30
0
 11
8648.2594
 21
10303.311
 31
0
  0
LINE
  8
0
 10
8648.2594
 20
10303.311
 30
0
 11
8775.4769
 21
10152.486
 31
0
  0
LINE
  8
0
 10
8775.4769
 20
10152.486
 30
0
 11
8751.4559
 21
10244.6084
 31
0
  0
LINE
  8
0
 10
8751.4559
 20
10244.6084
 30
0
 11
8599.2066
 21
10361.4664
 31
0
  0
LINE
  8
0
 10
8599.2066
 20
10361.4664
 30
0
 11
8572.0651
 21
10475.0744
 31
0
  0
LINE
  8
0
 10
8572.0651
 20
10475.0744
 30
0
 11
8626.8281
 21
10390.7332
 31
0
  0
LINE
  8
0
 10
8626.8281
 20
10390.7332
 30
0
 11
8671.3212
 21
10419.9021
 31
0
  0
LINE
  8
0
 10
8671.3212
 20
10419.9021
 30
0
 11
8778.0057
 21
10244.9462
 31
0
  0
LINE
  8
0
 10
8778.0057
 20
10244.9462
 30
0
 11
9033.6095
 21
9754.2928
 31
0
  0
LINE
  8
0
 10
9033.6095
 20
9754.2928
 30
0
 11
9025.067
 21
9681.7497
 31
0
  0
LINE
  8
0
 10
9025.067
 20
9681.7497
 30
0
 11
8817.9315
 21
10025.0377
 31
0
  0
LINE
  8
0
 10
8817.9315
 20
10025.0377
 30
0
 11
8808.046
 21
9992.0131
 31
0
  0
LINE
  8
0
 10
8808.046
 20
9992.0131
 30
0
 11
9017.3162
 21
9531.5717
 31
0
  0
LINE
  8
0
 10
9017.3162
 20
9531.5717
 30
0
 11
9007.8113
 21
9492.7794
 31
0
  0
LINE
  8
0
 10
9007.8113
 20
9492.7794
 30
0
 11
8997.7993
 21
9492.6293
 31
0
  0
LINE
  8
0
 10
9896.484
 20
9506.0955
 30
0
 11
9882.2823
 21
9466.8642
 31
0
  0
LINE
  8
0
 10
9882.2823
 20
9466.8642
 30
0
 11
9786.2762
 21
9655.9583
 31
0
  0
LINE
  8
0
 10
9786.2762
 20
9655.9583
 30
0
 11
9880.8176
 21
9544.4109
 31
0
  0
LINE
  8
0
 10
9880.8176
 20
9544.4109
 30
0
 11
9896.484
 21
9506.0955
 31
0
  0
LINE
  8
0
 10
2245.4915
 20
9430.8835
 30
0
 11
2162.5705
 21
9390.2079
 31
0
  0
LINE
  8
0
 10
2162.5705
 20
9390.2079
 30
0
 11
2183.1502
 21
9507.4329
 31
0
  0
LINE
  8
0
 10
2183.1502
 20
9507.4329
 30
0
 11
2255.3264
 21
9469.9909
 31
0
  0
LINE
  8
0
 10
2255.3264
 20
9469.9909
 30
0
 11
2245.4915
 21
9430.8835
 31
0
  0
LINE
  8
0
 10
2912.9968
 20
9479.6945
 30
0
 11
2871.9668
 21
9479.0891
 31
0
  0
LINE
  8
0
 10
2871.9668
 20
9479.0891
 30
0
 11
2930.1477
 21
9593.8632
 31
0
  0
LINE
  8
0
 10
2930.1477
 20
9593.8632
 30
0
 11
2918.7818
 21
9518.2037
 31
0
  0
LINE
  8
0
 10
2918.7818
 20
9518.2037
 30
0
 11
2912.9968
 21
9479.6945
 31
0
  0
LINE
  8
0
 10
8243.4825
 20
9558.3427
 30
0
 11
8198.1869
 21
9595.5021
 31
0
  0
LINE
  8
0
 10
8198.1869
 20
9595.5021
 30
0
 11
8181.9507
 21
9706.1062
 31
0
  0
LINE
  8
0
 10
8181.9507
 20
9706.1062
 30
0
 11
8237.7069
 21
9596.0807
 31
0
  0
LINE
  8
0
 10
8237.7069
 20
9596.0807
 30
0
 11
8243.4825
 21
9558.3427
 31
0
  0
LINE
  8
0
 10
485.2716
 20
9482.5734
 30
0
 11
765.2642
 21
9849.5159
 31
0
  0
LINE
  8
0
 10
765.2642
 20
9849.5159
 30
0
 11
515.8069
 21
9521.2591
 31
0
  0
LINE
  8
0
 10
515.8069
 20
9521.2591
 30
0
 11
485.2716
 21
9482.5734
 31
0
  0
LINE
  8
0
 10
2131.9465
 20
9506.6832
 30
0
 11
2142.4936
 21
9582.5055
 31
0
  0
LINE
  8
0
 10
2142.4936
 20
9582.5055
 30
0
 11
2152.5229
 21
9545.0405
 31
0
  0
LINE
  8
0
 10
2152.5229
 20
9545.0405
 30
0
 11
2131.9465
 21
9506.6832
 31
0
  0
LINE
  8
0
 10
2304.3608
 20
9584.8395
 30
0
 11
2223.4464
 21
9583.6728
 31
0
  0
LINE
  8
0
 10
2223.4464
 20
9583.6728
 30
0
 11
2262.254
 21
9694.4246
 31
0
  0
LINE
  8
0
 10
2262.254
 20
9694.4246
 30
0
 11
2364.7604
 21
9905.1418
 31
0
  0
LINE
  8
0
 10
2364.7604
 20
9905.1418
 30
0
 11
2411.4073
 21
9939.2923
 31
0
  0
LINE
  8
0
 10
2411.4073
 20
9939.2923
 30
0
 11
2503.3924
 21
10165.1023
 31
0
  0
LINE
  8
0
 10
2503.3924
 20
10165.1023
 30
0
 11
2624.6327
 21
10257.8086
 31
0
  0
LINE
  8
0
 10
2624.6327
 20
10257.8086
 30
0
 11
2563.46
 21
10226.974
 31
0
  0
LINE
  8
0
 10
2563.46
 20
10226.974
 30
0
 11
2584.1343
 21
10316.5083
 31
0
  0
LINE
  8
0
 10
2584.1343
 20
10316.5083
 30
0
 11
2648.1829
 21
10403.8139
 31
0
  0
LINE
  8
0
 10
2648.1829
 20
10403.8139
 30
0
 11
2700.3356
 21
10317.9357
 31
0
  0
LINE
  8
0
 10
2700.3356
 20
10317.9357
 30
0
 11
2314.4724
 21
9584.9853
 31
0
  0
LINE
  8
0
 10
2314.4724
 20
9584.9853
 30
0
 11
2304.3608
 21
9584.8395
 31
0
  0
LINE
  8
0
 10
5460.1227
 20
9630.3445
 30
0
 11
5410.4877
 21
9629.6288
 31
0
  0
LINE
  8
0
 10
5410.4877
 20
9629.6288
 30
0
 11
5450.9815
 21
9667.0242
 31
0
  0
LINE
  8
0
 10
5450.9815
 20
9667.0242
 30
0
 11
5460.1227
 21
9630.3445
 31
0
  0
LINE
  8
0
 10
2112.7765
 20
9655.9967
 30
0
 11
2062.7396
 21
9655.286
 31
0
  0
LINE
  8
0
 10
2062.7396
 20
9655.286
 30
0
 11
2123.0439
 21
9692.4623
 31
0
  0
LINE
  8
0
 10
2123.0439
 20
9692.4623
 30
0
 11
2112.7765
 21
9655.9967
 31
0
  0
LINE
  8
0
 10
5970.9388
 20
9710.7939
 30
0
 11
5881.1714
 21
9745.4385
 31
0
  0
LINE
  8
0
 10
5881.1714
 20
9745.4385
 30
0
 11
6010.0575
 21
9711.3495
 31
0
  0
LINE
  8
0
 10
6010.0575
 20
9711.3495
 30
0
 11
5980.7193
 21
9710.9328
 31
0
  0
LINE
  8
0
 10
5980.7193
 20
9710.9328
 30
0
 11
5970.9388
 21
9710.7939
 31
0
  0
LINE
  8
0
 10
8706.7549
 20
9749.6505
 30
0
 11
8660.2194
 21
9784.6132
 31
0
  0
LINE
  8
0
 10
8660.2194
 20
9784.6132
 30
0
 11
8417.5495
 21
10270.5473
 31
0
  0
LINE
  8
0
 10
8417.5495
 20
10270.5473
 30
0
 11
8309.514
 21
10554.4251
 31
0
  0
LINE
  8
0
 10
8365.0869
 20
10444.5207
 30
0
 11
8419.6478
 21
10388.1883
 31
0
  0
LINE
  8
0
 10
8419.6478
 20
10388.1883
 30
0
 11
8459.1302
 21
10240.8886
 31
0
  0
LINE
  8
0
 10
8459.1302
 20
10240.8886
 30
0
 11
8451.6895
 21
10359.6417
 31
0
  0
LINE
  8
0
 10
8451.6895
 20
10359.6417
 30
0
 11
8498.8128
 21
10180.0563
 31
0
  0
LINE
  8
0
 10
8498.8128
 20
10180.0563
 30
0
 11
8698.4949
 21
9785.1527
 31
0
  0
LINE
  8
0
 10
8698.4949
 20
9785.1527
 30
0
 11
8706.7549
 21
9749.6505
 31
0
  0
LINE
  8
0
 10
9733.2318
 20
9764.2295
 30
0
 11
9634.962
 21
9868.179
 31
0
  0
LINE
  8
0
 10
9634.962
 20
9868.179
 30
0
 11
9640.3486
 21
9902.5725
 31
0
  0
LINE
  8
0
 10
9640.3486
 20
9902.5725
 30
0
 11
9709.6144
 21
9799.4059
 31
0
  0
LINE
  8
0
 10
9709.6144
 20
9799.4059
 30
0
 11
9733.2318
 21
9764.2295
 31
0
  0
LINE
  8
0
 10
8927.9642
 20
9788.3874
 30
0
 11
8817.2877
 21
9992.1377
 31
0
  0
LINE
  8
0
 10
8817.2877
 20
9992.1377
 30
0
 11
8918.4955
 21
9823.4421
 31
0
  0
LINE
  8
0
 10
8918.4955
 20
9823.4421
 30
0
 11
8927.9642
 21
9788.3874
 31
0
  0
LINE
  8
0
 10
2143.0827
 20
9728.6461
 30
0
 11
2113.4117
 21
9728.231
 31
0
  0
LINE
  8
0
 10
2113.4117
 20
9728.231
 30
0
 11
2276.5151
 21
10003.4541
 31
0
  0
LINE
  8
0
 10
2276.5151
 20
10003.4541
 30
0
 11
2363.4888
 21
10224.4653
 31
0
  0
LINE
  8
0
 10
2363.4888
 20
10224.4653
 30
0
 11
2482.486
 21
10373.2637
 31
0
  0
LINE
  8
0
 10
2482.486
 20
10373.2637
 30
0
 11
2503.8766
 21
10458.3209
 31
0
  0
LINE
  8
0
 10
2517.9021
 20
10373.6927
 30
0
 11
2528.606
 21
10344.9741
 31
0
  0
LINE
  8
0
 10
2528.606
 20
10344.9741
 30
0
 11
2422.0656
 21
10133.0095
 31
0
  0
LINE
  8
0
 10
2422.0656
 20
10133.0095
 30
0
 11
2152.9719
 21
9728.7845
 31
0
  0
LINE
  8
0
 10
2152.9719
 20
9728.7845
 30
0
 11
2143.0827
 21
9728.6461
 31
0
  0
LINE
  8
0
 10
2232.0648
 20
9729.8911
 30
0
 11
2182.8034
 21
9656.9913
 31
0
  0
LINE
  8
0
 10
2182.8034
 20
9656.9913
 30
0
 11
2231.7009
 21
9765.369
 31
0
  0
LINE
  8
0
 10
2231.7009
 20
9765.369
 30
0
 11
2261.1824
 21
9765.7785
 31
0
  0
LINE
  8
0
 10
2261.1824
 20
9765.7785
 30
0
 11
2232.0648
 21
9729.8911
 31
0
  0
LINE
  8
0
 10
5397.2307
 20
9844.0844
 30
0
 11
5675.1619
 21
9847.9155
 31
0
  0
LINE
  8
0
 10
5675.1619
 20
9847.9155
 30
0
 11
5466.3716
 21
9946.9591
 31
0
  0
LINE
  8
0
 10
5466.3716
 20
9946.9591
 30
0
 11
5860.3316
 21
9985.453
 31
0
  0
LINE
  8
0
 10
5860.3316
 20
9985.453
 30
0
 11
5542.9391
 21
10110.4588
 31
0
  0
LINE
  8
0
 10
5542.9391
 20
10110.4588
 30
0
 11
5292.0483
 21
10043.2307
 31
0
  0
LINE
  8
0
 10
5292.0483
 20
10043.2307
 30
0
 11
5230.5179
 21
9943.7793
 31
0
  0
LINE
  8
0
 10
5230.5179
 20
9943.7793
 30
0
 11
5455.5036
 21
9879.2454
 31
0
  0
LINE
  8
0
 10
5455.5036
 20
9879.2454
 30
0
 11
5406.8222
 21
9844.2166
 31
0
  0
LINE
  8
0
 10
5406.8222
 20
9844.2166
 30
0
 11
5397.2307
 21
9844.0844
 31
0
  0
LINE
  8
0
 10
9462.5606
 20
9900.1218
 30
0
 11
9518.7246
 21
9900.896
 31
0
  0
LINE
  8
0
 10
9518.7246
 20
9900.896
 30
0
 11
9447.3839
 21
9967.4356
 31
0
  0
LINE
  8
0
 10
9447.3839
 20
9967.4356
 30
0
 11
9444.5254
 21
10000.5944
 31
0
  0
LINE
  8
0
 10
9444.5254
 20
10000.5944
 30
0
 11
9450.2746
 21
9933.9039
 31
0
  0
LINE
  8
0
 10
9450.2746
 20
9933.9039
 30
0
 11
9462.5606
 21
9900.1218
 31
0
  0
LINE
  8
0
 10
2317.5778
 20
9870.5993
 30
0
 11
2380.4178
 21
10004.8246
 31
0
  0
LINE
  8
0
 10
2380.4178
 20
10004.8246
 30
0
 11
2335.9534
 21
9904.7535
 31
0
  0
LINE
  8
0
 10
2335.9534
 20
9904.7535
 30
0
 11
2317.5778
 21
9870.5993
 31
0
  0
LINE
  8
0
 10
8183.5009
 20
9950.2697
 30
0
 11
8118.189
 21
9949.3826
 31
0
  0
LINE
  8
0
 10
8118.189
 20
9949.3826
 30
0
 11
8159.857
 21
9983.2739
 31
0
  0
LINE
  8
0
 10
8159.857
 20
9983.2739
 30
0
 11
8183.5009
 21
9950.2697
 31
0
  0
LINE
  8
0
 10
8276.7594
 20
9951.5363
 30
0
 11
8342.0095
 21
9952.4225
 31
0
  0
LINE
  8
0
 10
8342.0095
 20
9952.4225
 30
0
 11
8256.3887
 21
10017.522
 31
0
  0
LINE
  8
0
 10
8256.3887
 20
10017.522
 30
0
 11
8300.2977
 21
10082.9113
 31
0
  0
LINE
  8
0
 10
8300.2977
 20
10082.9113
 30
0
 11
8271.1535
 21
9984.7745
 31
0
  0
LINE
  8
0
 10
8271.1535
 20
9984.7745
 30
0
 11
8276.7594
 21
9951.5363
 31
0
  0
LINE
  8
0
 10
5316.956
 20
9978.1804
 30
0
 11
5270.0313
 21
9977.5524
 31
0
  0
LINE
  8
0
 10
5270.0313
 20
9977.5524
 30
0
 11
5309.1002
 21
10010.9456
 31
0
  0
LINE
  8
0
 10
5309.1002
 20
10010.9456
 30
0
 11
5316.956
 21
9978.1804
 31
0
  0
LINE
  8
0
 10
5896.0184
 20
10018.7438
 30
0
 11
5951.809
 21
10019.4851
 31
0
  0
LINE
  8
0
 10
5951.809
 20
10019.4851
 30
0
 11
5905.3181
 21
10018.8674
 31
0
  0
LINE
  8
0
 10
5905.3181
 20
10018.8674
 30
0
 11
5896.0184
 21
10018.7438
 31
0
  0
LINE
  8
0
 10
3095.8301
 20
10078.6433
 30
0
 11
3095.1114
 21
10141.6352
 31
0
  0
LINE
  8
0
 10
3095.1114
 20
10141.6352
 30
0
 11
3109.345
 21
10110.4881
 31
0
  0
LINE
  8
0
 10
3109.345
 20
10110.4881
 30
0
 11
3095.8301
 21
10078.6433
 31
0
  0
LINE
  8
0
 10
9356.726
 20
10191.1303
 30
0
 11
9277.9805
 21
10311.2112
 31
0
  0
LINE
  8
0
 10
9277.9805
 20
10311.2112
 30
0
 11
9271.0301
 21
10281.3308
 31
0
  0
LINE
  8
0
 10
9271.0301
 20
10281.3308
 30
0
 11
9327.8593
 21
10221.5144
 31
0
  0
LINE
  8
0
 10
9327.8593
 20
10221.5144
 30
0
 11
9356.726
 21
10191.1303
 31
0
  0
LINE
  8
0
 10
9272.8285
 20
10251.2428
 30
0
 11
9196.62
 21
10368.8564
 31
0
  0
LINE
  8
0
 10
9196.62
 20
10368.8564
 30
0
 11
9162.0455
 21
10368.4287
 31
0
  0
LINE
  8
0
 10
9162.0455
 20
10368.4287
 30
0
 11
9253.4765
 21
10281.109
 31
0
  0
LINE
  8
0
 10
9253.4765
 20
10281.109
 30
0
 11
9272.8285
 21
10251.2428
 31
0
  0
LINE
  8
0
 10
7989.7694
 20
10295.0499
 30
0
 11
8060.5745
 21
10354.8036
 31
0
  0
LINE
  8
0
 10
8060.5745
 20
10354.8036
 30
0
 11
7977.2345
 21
10324.4872
 31
0
  0
LINE
  8
0
 10
7977.2345
 20
10324.4872
 30
0
 11
7989.7694
 21
10295.0499
 31
0
  0
LINE
  8
0
 10
981.7116
 20
10237.3424
 30
0
 11
967.0026
 21
10296.6444
 31
0
  0
LINE
  8
0
 10
967.0026
 20
10296.6444
 30
0
 11
997.001
 21
10267.4282
 31
0
  0
LINE
  8
0
 10
997.001
 20
10267.4282
 30
0
 11
981.7116
 21
10237.3424
 31
0
  0
LINE
  8
0
 10
1615.6944
 20
10304.6126
 30
0
 11
1786.4671
 21
10306.7102
 31
0
  0
LINE
  8
0
 10
1786.4671
 20
10306.7102
 30
0
 11
1627.4998
 21
10333.9826
 31
0
  0
LINE
  8
0
 10
1627.4998
 20
10333.9826
 30
0
 11
1615.6944
 21
10304.6126
 31
0
  0
LINE
  8
0
 10
3253.4376
 20
10324.7296
 30
0
 11
3245.6076
 21
10411.0005
 31
0
  0
LINE
  8
0
 10
3245.6076
 20
10411.0005
 30
0
 11
3256.7076
 21
10353.8554
 31
0
  0
LINE
  8
0
 10
3256.7076
 20
10353.8554
 30
0
 11
3253.4376
 21
10324.7296
 31
0
  0
LINE
  8
0
 10
8350.5307
 20
10387.3394
 30
0
 11
8324.6044
 21
10387.0209
 31
0
  0
LINE
  8
0
 10
8324.6044
 20
10387.0209
 30
0
 11
8245.913
 21
10580.6324
 31
0
  0
LINE
  8
0
 10
8245.913
 20
10580.6324
 30
0
 11
8336.3542
 21
10415.8162
 31
0
  0
LINE
  8
0
 10
8336.3542
 20
10415.8162
 30
0
 11
8350.5307
 21
10387.3394
 31
0
  0
LINE
  8
0
 10
9306.9891
 20
10399.0879
 30
0
 11
9270.8662
 21
10427.2153
 31
0
  0
LINE
  8
0
 10
9270.8662
 20
10427.2153
 30
0
 11
9258.9556
 21
10483.3373
 31
0
  0
LINE
  8
0
 10
9258.9556
 20
10483.3373
 30
0
 11
9315.581
 21
10399.1935
 31
0
  0
LINE
  8
0
 10
9315.581
 20
10399.1935
 30
0
 11
9306.9891
 21
10399.0879
 31
0
  0
LINE
  8
0
 10
9753.1828
 20
10404.5687
 30
0
 11
9681.5562
 21
10488.4209
 31
0
  0
LINE
  8
0
 10
9681.5562
 20
10488.4209
 30
0
 11
9766.0064
 21
10433.2549
 31
0
  0
LINE
  8
0
 10
9766.0064
 20
10433.2549
 30
0
 11
9783.2917
 21
10376.1134
 31
0
  0
LINE
  8
0
 10
9783.2917
 20
10376.1134
 30
0
 11
9753.1828
 21
10404.5687
 31
0
  0
LINE
  8
0
 10
9262.3164
 20
10427.111
 30
0
 11
9302.2237
 21
10340.9929
 31
0
  0
LINE
  8
0
 10
9302.2237
 20
10340.9929
 30
0
 11
9229.642
 21
10398.1378
 31
0
  0
LINE
  8
0
 10
9229.642
 20
10398.1378
 30
0
 11
9235.1069
 21
10455.0594
 31
0
  0
LINE
  8
0
 10
9235.1069
 20
10455.0594
 30
0
 11
9262.3164
 21
10427.111
 31
0
  0
LINE
  8
0
 10
2597.5615
 20
10374.6576
 30
0
 11
2564.1955
 21
10345.4083
 31
0
  0
LINE
  8
0
 10
2564.1955
 20
10345.4083
 30
0
 11
2608.4768
 21
10459.5619
 31
0
  0
LINE
  8
0
 10
2612.9749
 20
10403.3904
 30
0
 11
2597.5615
 21
10374.6576
 31
0
  0
LINE
  8
0
 10
8655.5968
 20
10448.0397
 30
0
 11
8621.4454
 21
10447.626
 31
0
  0
LINE
  8
0
 10
8648.5258
 20
10475.9942
 30
0
 11
8655.5968
 21
10448.0397
 31
0
  0
LINE
  8
0
 10
1686.1533
 20
10392.2413
 30
0
 11
1971.1639
 21
10452.0006
 31
0
  0
LINE
  8
0
 10
1971.1639
 20
10452.0006
 30
0
 11
1732.6327
 21
10421.1289
 31
0
  0
LINE
  8
0
 10
1758.5866
 20
10531.9191
 30
0
 11
1717.6983
 21
10558.3817
 31
0
  0
LINE
  8
0
 10
1717.6983
 20
10558.3817
 30
0
 11
1775.8388
 21
10532.1196
 31
0
  0
LINE
  8
0
 10
1775.8388
 20
10532.1196
 30
0
 11
1691.0413
 21
10448.6772
 31
0
  0
LINE
  8
0
 10
1691.0413
 20
10448.6772
 30
0
 11
1697.4153
 21
10420.7082
 31
0
  0
LINE
  8
0
 10
1697.4153
 20
10420.7082
 30
0
 11
1686.1533
 21
10392.2413
 31
0
  0
LINE
  8
0
 10
9225.1012
 20
10482.93
 30
0
 11
9182.7737
 21
10482.4209
 31
0
  0
LINE
  8
0
 10
9182.7737
 20
10482.4209
 30
0
 11
9198.3522
 21
10510.3174
 31
0
  0
LINE
  8
0
 10
9198.3522
 20
10510.3174
 30
0
 11
9225.1012
 21
10482.93
 31
0
  0
LINE
  8
0
 10
2733.2856
 20
10433.0831
 30
0
 11
2648.1829
 21
10403.8139
 31
0
  0
LINE
  8
0
 10
2747.8439
 20
10461.2154
 30
0
 11
2733.2856
 21
10433.0831
 31
0
  0
LINE
  8
0
 10
7666.8508
 20
10492.0215
 30
0
 11
7652.479
 21
10573.6877
 31
0
  0
LINE
  8
0
 10
7652.479
 20
10573.6877
 30
0
 11
7647.9157
 21
10519.3512
 31
0
  0
LINE
  8
0
 10
7647.9157
 20
10519.3512
 30
0
 11
7666.8508
 21
10492.0215
 31
0
  0
LINE
  8
0
 10
1204.6111
 20
10470.7081
 30
0
 11
1257.0534
 21
10471.326
 31
0
  0
LINE
  8
0
 10
1257.0534
 20
10471.326
 30
0
 11
1218.1519
 21
10498.3899
 31
0
  0
LINE
  8
0
 10
1218.1519
 20
10498.3899
 30
0
 11
1204.6111
 21
10470.7081
 31
0
  0
LINE
  8
0
 10
1165.9606
 20
10497.7792
 30
0
 11
1192.0582
 21
10498.0846
 31
0
  0
LINE
  8
0
 10
1192.0582
 20
10498.0846
 30
0
 11
1179.6297
 21
10525.19
 31
0
  0
LINE
  8
0
 10
1179.6297
 20
10525.19
 30
0
 11
1165.9606
 21
10497.7792
 31
0
  0
LINE
  8
0
 10
1836.2077
 20
10532.8212
 30
0
 11
1808.5423
 21
10505.299
 31
0
  0
LINE
  8
0
 10
8516.8719
 20
10636.8711
 30
0
 11
8523.08
 21
10610.5416
 31
0
  0
ENDSEC
  0
EOF
