  0
SECTION
  2
HEADER
  9
$ACADVER
  1
AC1015
  9
$INSUNITS
 70
0
  9
$EXTMIN
 10
-2500
 20
-3700
 30
0
  9
$EXTMAX
 10
15500
 20
6500
 30
0
  0
ENDSEC
  0
SECTION
  2
TABLES
  0
TABLE
  2
LTYPE
 70
2
  0
LTYPE
  2
CONTINUOUS
 70
0
  3
Solid line
 72
65
 73
0
 40
0
  0
LTYPE
  2
DASHED
 70
0
  3
Dashed line
 72
65
 73
2
 40
0.75
 49
0.5
 49
-0.25
  0
ENDTAB
  0
TABLE
  2
LAYER
 70
7
  0
LAYER
  2
0
 70
0
 62
7
  6
CONTINUOUS
  0
LAYER
  2
FRAME
 70
0
 62
7
  6
CONTINUOUS
  0
LAYER
  2
GRID
 70
0
 62
8
  6
CONTINUOUS
  0
LAYER
  2
DIM
 70
0
 62
2
  6
CONTINUOUS
  0
LAYER
  2
TEXT
 70
0
 62
3
  6
CONTINUOUS
  0
LAYER
  2
TITLE
 70
0
 62
5
  6
CONTINUOUS
  0
LAYER
  2
PURLIN
 70
0
 62
4
  6
CONTINUOUS
  0
ENDTAB
  0
TABLE
  2
DIMSTYLE
 70
1
  0
DIMSTYLE
  2
STANDARD
 70
0
140
2.5
141
2.5
44
1.25
42
0.625
147
0.625
77
1
  0
ENDTAB
  0
ENDSEC
  0
SECTION
  2
BLOCKS
  0
BLOCK
  8
0
  2
*D1
 70
0
 10
0
 20
0
 30
0
  0
LINE
  8
DIM
 10
0
 20
-0.625
 30
0
 11
0
 21
-801.25
 31
0
  0
LINE
  8
DIM
 10
15000
 20
-0.625
 30
0
 11
15000
 21
-801.25
 31
0
  0
LINE
  8
DIM
 10
0
 20
-800
 30
0
 11
15000
 21
-800
 31
0
  0
TEXT
  8
DIM
 10
7500
 20
-800
 30
0
 40
200
  1
15000
  0
ENDBLK
  8
0
  0
BLOCK
  8
0
  2
*D2
 70
0
 10
0
 20
0
 30
0
  0
LINE
  8
DIM
 10
0
 20
-0.625
 30
0
 11
0
 21
-1501.25
 31
0
  0
LINE
  8
DIM
 10
7500
 20
-0.625
 30
0
 11
7500
 21
-1501.25
 31
0
  0
LINE
  8
DIM
 10
0
 20
-1500
 30
0
 11
7500
 21
-1500
 31
0
  0
TEXT
  8
DIM
 10
3750
 20
-1500
 30
0
 40
200
  1
7500
  0
ENDBLK
  8
0
  0
BLOCK
  8
0
  2
*D3
 70
0
 10
0
 20
0
 30
0
  0
LINE
  8
DIM
 10
7500
 20
-0.625
 30
0
 11
7500
 21
-1501.25
 31
0
  0
LINE
  8
DIM
 10
15000
 20
-0.625
 30
0
 11
15000
 21
-1501.25
 31
0
  0
LINE
  8
DIM
 10
7500
 20
-1500
 30
0
 11
15000
 21
-1500
 31
0
  0
TEXT
  8
DIM
 10
11250
 20
-1500
 30
0
 40
200
  1
7500
  0
ENDBLK
  8
0
  0
BLOCK
  8
0
  2
*D4
 70
0
 10
0
 20
0
 30
0
  0
LINE
  8
DIM
 10
-500.625
 20
0
 30
0
 11
-1201.25
 21
0
 31
0
  0
LINE
  8
DIM
 10
-500.625
 20
4000
 30
0
 11
-1201.25
 21
4000
 31
0
  0
LINE
  8
DIM
 10
-1200
 20
0
 30
0
 11
-1200
 21
4000
 31
0
  0
TEXT
  8
DIM
 10
-1200
 20
2000
 30
0
 40
200
  1
4000
 50
90
  0
ENDBLK
  8
0
  0
BLOCK
  8
0
  2
*D5
 70
0
 10
0
 20
0
 30
0
  0
LINE
  8
DIM
 10
-500.625
 20
4000
 30
0
 11
-1201.25
 21
4000
 31
0
  0
LINE
  8
DIM
 10
-500.625
 20
5000
 30
0
 11
-1201.25
 21
5000
 31
0
  0
LINE
  8
DIM
 10
-1200
 20
4000
 30
0
 11
-1200
 21
5000
 31
0
  0
TEXT
  8
DIM
 10
-1200
 20
4500
 30
0
 40
200
  1
1000
 50
90
  0
ENDBLK
  8
0
  0
BLOCK
  8
0
  2
*D6
 70
0
 10
0
 20
0
 30
0
  0
LINE
  8
DIM
 10
-500.625
 20
0
 30
0
 11
-2001.25
 21
0
 31
0
  0
LINE
  8
DIM
 10
-500.625
 20
5000
 30
0
 11
-2001.25
 21
5000
 31
0
  0
LINE
  8
DIM
 10
-2000
 20
0
 30
0
 11
-2000
 21
5000
 31
0
  0
TEXT
  8
DIM
 10
-2000
 20
2500
 30
0
 40
200
  1
5000
 50
90
  0
ENDBLK
  8
0
  0
ENDSEC
  0
SECTION
  2
ENTITIES
  0
LINE
  8
PURLIN
 10
1500
 20
4200
 30
0
 11
1500
 21
4350
 31
0
  0
LINE
  8
PURLIN
 10
3000
 20
4400
 30
0
 11
3000
 21
4550
 31
0
  0
LINE
  8
PURLIN
 10
4500
 20
4600
 30
0
 11
4500
 21
4750
 31
0
  0
LINE
  8
PURLIN
 10
6000
 20
4800
 30
0
 11
6000
 21
4950
 31
0
  0
LINE
  8
PURLIN
 10
9000
 20
4800
 30
0
 11
9000
 21
4950
 31
0
  0
LINE
  8
PURLIN
 10
10500
 20
4600
 30
0
 11
10500
 21
4750
 31
0
  0
LINE
  8
PURLIN
 10
12000
 20
4400
 30
0
 11
12000
 21
4550
 31
0
  0
LINE
  8
PURLIN
 10
13500
 20
4200
 30
0
 11
13500
 21
4350
 31
0
  0
DIMENSION
  8
DIM
  3
STANDARD
  2
*D1
 10
15000
 20
-800
 30
0
 11
7500
 21
-800
 31
0
 13
0
 23
0
 33
0
 14
15000
 24
0
 34
0
 70
0
 42
15000
  1

  0
DIMENSION
  8
DIM
  3
STANDARD
  2
*D2
 10
7500
 20
-1500
 30
0
 11
3750
 21
-1500
 31
0
 13
0
 23
0
 33
0
 14
7500
 24
0
 34
0
 70
0
 42
7500
  1

  0
DIMENSION
  8
DIM
  3
STANDARD
  2
*D3
 10
15000
 20
-1500
 30
0
 11
11250
 21
-1500
 31
0
 13
7500
 23
0
 33
0
 14
15000
 24
0
 34
0
 70
0
 42
7500
  1

  0
DIMENSION
  8
DIM
  3
STANDARD
  2
*D4
 10
-1200
 20
4000
 30
0
 11
-1200
 21
2000
 31
0
 13
-500
 23
0
 33
0
 14
-500
 24
4000
 34
0
 70
0
 42
4000
 50
90
  1

  0
DIMENSION
  8
DIM
  3
STANDARD
  2
*D5
 10
-1200
 20
5000
 30
0
 11
-1200
 21
4500
 31
0
 13
-500
 23
4000
 33
0
 14
-500
 24
5000
 34
0
 70
0
 42
1000
 50
90
  1

  0
DIMENSION
  8
DIM
  3
STANDARD
  2
*D6
 10
-2000
 20
5000
 30
0
 11
-2000
 21
2500
 31
0
 13
-500
 23
0
 33
0
 14
-500
 24
5000
 34
0
 70
0
 42
5000
 50
90
  1

  0
TEXT
  8
TITLE
 10
2500
 20
6500
 30
0
 40
400
  1
LIGHT STEEL FRAME - ELEVATION
  0
TEXT
  8
TITLE
 10
2500
 20
6000
 30
0
 40
250
  1
SPAN: 15,000mm / EAVE: 4,000mm / RIDGE: 5,000mm
  0
TEXT
  8
TEXT
 10
-100
 20
2000
 30
0
 40
200
  1
COLUMN
 50
90
  0
TEXT
  8
TEXT
 10
15100
 20
2000
 30
0
 40
200
  1
COLUMN
 50
90
  0
TEXT
  8
TEXT
 10
2500
 20
4700
 30
0
 40
200
  1
RAFTER
 50
7.6
  0
TEXT
  8
TEXT
 10
11500
 20
4700
 30
0
 40
200
  1
RAFTER
 50
-7.6
  0
TEXT
  8
TEXT
 10
7200
 20
5200
 30
0
 40
200
  1
RIDGE
  0
TEXT
  8
TEXT
 10
1500
 20
4500
 30
0
 40
150
  1
PURLIN @1500
  0
TEXT
  8
TEXT
 10
-2500
 20
0
 30
0
 40
200
  1
GL +/-0
  0
TEXT
  8
TEXT
 10
-2500
 20
4000
 30
0
 40
200
  1
EAVE +4,000
  0
TEXT
  8
TEXT
 10
-2500
 20
5000
 30
0
 40
200
  1
RIDGE +5,000
  0
LINE
  8
GRID
 10
-2300
 20
0
 30
0
 11
-500
 21
0
 31
0
  0
LINE
  8
GRID
 10
-2300
 20
4000
 30
0
 11
-500
 21
4000
 31
0
  0
LINE
  8
GRID
 10
-2300
 20
5000
 30
0
 11
7500
 21
5000
 31
0
  0
TEXT
  8
TEXT
 10
0
 20
-2500
 30
0
 40
250
  1
MEMBER SCHEDULE:
  0
TEXT
  8
TEXT
 10
0
 20
-2900
 30
0
 40
200
  1
COLUMN: C-200x80x25x3.2 (SS400)
  0
TEXT
  8
TEXT
 10
0
 20
-3300
 30
0
 40
200
  1
RAFTER: C-200x80x25x3.2 (SS400)
  0
TEXT
  8
TEXT
 10
0
 20
-3700
 30
0
 40
200
  1
PURLIN: C-150x65x20x2.3 @1500 (SS400)
  0
TEXT
  8
TEXT
 10
8000
 20
-2500
 30
0
 40
250
  1
DESIGN LOADS:
  0
TEXT
  8
TEXT
 10
8000
 20
-2900
 30
0
 40
200
  1
D = 0.15 kN/m2
  0
TEXT
  8
TEXT
 10
8000
 20
-3300
 30
0
 40
200
  1
Lr = 0.50 kN/m2
  0
TEXT
  8
TEXT
 10
8000
 20
-3700
 30
0
 40
200
  1
S = 0.35 kN/m2
  0
LWPOLYLINE
  8
FRAME
 90
4
 70
1
 10
0
 20
0
 10
200
 20
0
 10
200
 20
3800
 10
0
 20
4000
  0
LWPOLYLINE
  8
FRAME
 90
4
 70
1
 10
14800
 20
3800
 10
15000
 20
4000
 10
15000
 20
0
 10
14800
 20
0
  0
LWPOLYLINE
  8
FRAME
 90
4
 70
1
 10
0
 20
4000
 10
200
 20
3800
 10
7400
 20
4800
 10
7500
 20
5000
  0
LWPOLYLINE
  8
FRAME
 90
4
 70
1
 10
7500
 20
5000
 10
7600
 20
4800
 10
14800
 20
3800
 10
15000
 20
4000
  0
LINE
  8
FRAME
 10
-500
 20
0
 30
0
 11
15500
 21
0
 31
0
  0
LWPOLYLINE
  8
FRAME
 90
4
 70
1
 10
-150
 20
-100
 10
350
 20
-100
 10
350
 20
0
 10
-150
 20
0
  0
LWPOLYLINE
  8
FRAME
 90
4
 70
1
 10
14650
 20
-100
 10
15150
 20
-100
 10
15150
 20
0
 10
14650
 20
0
  0
ENDSEC
  0
EOF