  0
SECTION
  2
HEADER
  9
$ACADVER
  1
AC1014
  0
ENDSEC
  0
SECTION
  2
TABLES
  0
ENDSEC
  0
SECTION
  2
ENTITIES
  0
LINE
  8
CLEANED
 10
32.0
 20
765.0
 30
0.0
 11
48.0
 21
745.0
 31
0.0
  0
LINE
  8
CLEANED
 10
70.668
 20
724.6364
 30
0.0
 11
25.166
 21
766.1818
 31
0.0
  0
LINE
  8
CLEANED
 10
72.9983
 20
766.25
 30
0.0
 11
110.0017
 21
766.25
 31
0.0
  0
LINE
  8
CLEANED
 10
125.4284
 20
756.6725
 30
0.0
 11
109.5716
 21
765.8275
 31
0.0
  0
LINE
  8
CLEANED
 10
125.6473
 20
729.3226
 30
0.0
 11
93.3444
 21
720.7085
 31
0.0
  0
LINE
  8
CLEANED
 10
95.0
 20
713.0
 30
0.0
 11
55.0
 21
749.0
 31
0.0
  0
LINE
  8
CLEANED
 10
50.0
 20
753.0
 30
0.0
 11
36.0
 21
767.0
 31
0.0
  0
LINE
  8
CLEANED
 10
159.9948
 20
740.995
 30
0.0
 11
135.0156
 21
767.015
 31
0.0
  0
LINE
  8
CLEANED
 10
156.0
 20
767.0
 30
0.0
 11
174.0
 21
745.0
 31
0.0
  0
LINE
  8
CLEANED
 10
174.0
 20
737.0
 30
0.0
 11
149.0
 21
766.0
 31
0.0
  0
LINE
  8
CLEANED
 10
197.5765
 20
759.6689
 30
0.0
 11
170.417
 21
768.3105
 31
0.0
  0
LINE
  8
CLEANED
 10
244.44
 20
766.58
 30
0.0
 11
256.56
 21
750.42
 31
0.0
  0
LINE
  8
CLEANED
 10
249.7523
 20
758.8257
 30
0.0
 11
229.7523
 21
752.8257
 31
0.0
  0
LINE
  8
CLEANED
 10
243.0
 20
746.0
 30
0.0
 11
228.0
 21
751.0
 31
0.0
  0
LINE
  8
CLEANED
 10
267.4721
 20
751.254
 30
0.0
 11
258.5279
 21
766.746
 31
0.0
  0
LINE
  8
CLEANED
 10
266.5069
 20
750.6938
 30
0.0
 11
257.4931
 21
766.3062
 31
0.0
  0
LINE
  8
CLEANED
 10
282.0
 20
767.0
 30
0.0
 11
267.0
 21
764.0
 31
0.0
  0
LINE
  8
CLEANED
 10
386.6468
 20
768.1734
 30
0.0
 11
96.0445
 21
680.8522
 31
0.0
  0
LINE
  8
CLEANED
 10
98.0
 20
680.0
 30
0.0
 11
64.8463
 21
673.3329
 31
0.0
  0
LINE
  8
CLEANED
 10
64.8463
 20
673.3329
 30
0.0
 11
35.3951
 21
660.1439
 31
0.0
  0
LINE
  8
CLEANED
 10
24.6567
 20
538.1292
 30
0.0
 11
35.0103
 21
645.8067
 31
0.0
  0
LINE
  8
CLEANED
 10
28.5
 20
573.9932
 30
0.0
 11
28.5
 21
611.0068
 31
0.0
  0
LINE
  8
CLEANED
 10
33.959
 20
632.9898
 30
0.0
 11
33.959
 21
661.715
 31
0.0
  0
LINE
  8
CLEANED
 10
15.976
 20
662.3524
 30
0.0
 11
33.442
 21
662.3524
 31
0.0
  0
LINE
  8
CLEANED
 10
15.963
 20
664.0
 30
0.0
 11
43.037
 21
664.0
 31
0.0
  0
LINE
  8
CLEANED
 10
43.0
 20
665.0
 30
0.0
 11
78.0
 21
677.0
 31
0.0
  0
LINE
  8
CLEANED
 10
75.0
 20
678.0
 30
0.0
 11
96.0445
 21
680.8522
 31
0.0
  0
LINE
  8
CLEANED
 10
242.0
 20
725.0
 30
0.0
 11
265.0
 21
735.0
 31
0.0
  0
LINE
  8
CLEANED
 10
422.1269
 20
766.2766
 30
0.0
 11
437.0
 21
689.0
 31
0.0
  0
LINE
  8
CLEANED
 10
444.5497
 20
678.3964
 30
0.0
 11
422.1269
 21
766.2766
 31
0.0
  0
LINE
  8
CLEANED
 10
494.3062
 20
684.043
 30
0.0
 11
340.3875
 21
634.789
 31
0.0
  0
LINE
  8
CLEANED
 10
391.5186
 20
649.1894
 30
0.0
 11
377.4146
 21
660.729
 31
0.0
  0
LINE
  8
CLEANED
 10
323.8973
 20
625.3338
 30
0.0
 11
302.1135
 21
618.6311
 31
0.0
  0
LINE
  8
CLEANED
 10
301.5613
 20
626.3649
 30
0.0
 11
254.5925
 21
611.2678
 31
0.0
  0
LINE
  8
CLEANED
 10
241.0
 20
594.0
 30
0.0
 11
224.0
 21
601.0
 31
0.0
  0
LINE
  8
CLEANED
 10
193.1654
 20
616.151
 30
0.0
 11
128.5972
 21
679.6248
 31
0.0
  0
LINE
  8
CLEANED
 10
133.9904
 20
682.99
 30
0.0
 11
182.9327
 21
635.9301
 31
0.0
  0
LINE
  8
CLEANED
 10
99.4419
 20
668.0234
 30
0.0
 11
236.6192
 21
642.3026
 31
0.0
  0
LINE
  8
CLEANED
 10
207.75
 20
649.1388
 30
0.0
 11
216.25
 21
663.8612
 31
0.0
  0
LINE
  8
CLEANED
 10
216.0
 20
673.0
 30
0.0
 11
198.0
 21
694.0
 31
0.0
  0
LINE
  8
CLEANED
 10
93.6362
 20
668.0541
 30
0.0
 11
260.7387
 21
721.7992
 31
0.0
  0
LINE
  8
CLEANED
 10
199.526
 20
702.8002
 30
0.0
 11
268.729
 21
617.7794
 31
0.0
  0
LINE
  8
CLEANED
 10
209.0
 20
703.0
 30
0.0
 11
224.0
 21
684.0
 31
0.0
  0
LINE
  8
CLEANED
 10
226.0
 20
688.0
 30
0.0
 11
234.0
 21
711.0
 31
0.0
  0
LINE
  8
CLEANED
 10
240.4372
 20
711.1653
 30
0.0
 11
260.3015
 21
722.6339
 31
0.0
  0
LINE
  8
CLEANED
 10
240.0
 20
712.0
 30
0.0
 11
227.0
 21
681.0
 31
0.0
  0
LINE
  8
CLEANED
 10
262.0
 20
637.0
 30
0.0
 11
285.0
 21
632.0
 31
0.0
  0
LINE
  8
CLEANED
 10
285.0
 20
632.0
 30
0.0
 11
263.0
 21
635.0
 31
0.0
  0
LINE
  8
CLEANED
 10
263.0
 20
635.0
 30
0.0
 11
278.0
 21
622.0
 31
0.0
  0
LINE
  8
CLEANED
 10
307.0
 20
631.0
 30
0.0
 11
324.0
 21
633.0
 31
0.0
  0
LINE
  8
CLEANED
 10
325.0467
 20
637.0268
 30
0.0
 11
312.9533
 21
657.9732
 31
0.0
  0
LINE
  8
CLEANED
 10
334.5561
 20
624.0823
 30
0.0
 11
314.4439
 21
658.9177
 31
0.0
  0
LINE
  8
CLEANED
 10
380.2882
 20
555.176
 30
0.0
 11
280.8114
 21
727.4748
 31
0.0
  0
LINE
  8
CLEANED
 10
332.9274
 20
648.5206
 30
0.0
 11
289.0726
 21
724.4794
 31
0.0
  0
LINE
  8
CLEANED
 10
335.959
 20
635.2489
 30
0.0
 11
356.0028
 21
646.8212
 31
0.0
  0
LINE
  8
CLEANED
 10
360.0
 20
645.0
 30
0.0
 11
383.0
 21
653.0
 31
0.0
  0
LINE
  8
CLEANED
 10
370.8826
 20
676.3878
 30
0.0
 11
341.8826
 21
742.3878
 31
0.0
  0
LINE
  8
CLEANED
 10
291.2811
 20
729.0865
 30
0.0
 11
414.3946
 21
766.9676
 31
0.0
  0
LINE
  8
CLEANED
 10
428.0
 20
764.0
 30
0.0
 11
442.0
 21
699.0
 31
0.0
  0
LINE
  8
CLEANED
 10
444.0
 20
696.0
 30
0.0
 11
446.0
 21
680.0
 31
0.0
  0
LINE
  8
CLEANED
 10
489.6946
 20
692.0751
 30
0.0
 11
482.3892
 21
766.1502
 31
0.0
  0
LINE
  8
CLEANED
 10
489.8473
 20
692.0739
 30
0.0
 11
489.8473
 21
711.0012
 31
0.0
  0
LINE
  8
CLEANED
 10
503.4563
 20
700.3142
 30
0.0
 11
497.3907
 21
767.0355
 31
0.0
  0
LINE
  8
CLEANED
 10
498.2462
 20
733.2192
 30
0.0
 11
502.4462
 21
766.8192
 31
0.0
  0
LINE
  8
CLEANED
 10
508.0
 20
734.9688
 30
0.0
 11
508.0
 21
767.0312
 31
0.0
  0
LINE
  8
CLEANED
 10
517.634
 20
697.9459
 30
0.0
 11
517.634
 21
766.9749
 31
0.0
  0
LINE
  8
CLEANED
 10
514.0
 20
709.0
 30
0.0
 11
517.0
 21
684.0
 31
0.0
  0
LINE
  8
CLEANED
 10
521.2293
 20
688.3278
 30
0.0
 11
526.7396
 21
667.6639
 31
0.0
  0
LINE
  8
CLEANED
 10
631.0326
 20
655.7034
 30
0.0
 11
524.8166
 21
685.9398
 31
0.0
  0
LINE
  8
CLEANED
 10
522.2726
 20
658.1558
 30
0.0
 11
859.5627
 21
572.3164
 31
0.0
  0
LINE
  8
CLEANED
 10
859.5313
 20
550.0
 30
0.0
 11
859.5313
 21
572.3165
 31
0.0
  0
LINE
  8
CLEANED
 10
870.7961
 20
194.8469
 30
0.0
 11
870.7961
 21
572.6507
 31
0.0
  0
LINE
  8
CLEANED
 10
866.0
 20
497.0
 30
0.0
 11
869.0
 21
475.0
 31
0.0
  0
LINE
  8
CLEANED
 10
869.6255
 20
411.9584
 30
0.0
 11
869.6255
 21
474.9369
 31
0.0
  0
LINE
  8
CLEANED
 10
871.9495
 20
194.9234
 30
0.0
 11
927.9556
 21
194.9234
 31
0.0
  0
LINE
  8
CLEANED
 10
894.5654
 20
385.9534
 30
0.0
 11
894.5654
 21
419.0788
 31
0.0
  0
LINE
  8
CLEANED
 10
890.9375
 20
412.9547
 30
0.0
 11
890.9375
 21
574.206
 31
0.0
  0
LINE
  8
CLEANED
 10
882.2858
 20
575.4688
 30
0.0
 11
899.7142
 21
585.5312
 31
0.0
  0
LINE
  8
CLEANED
 10
904.2223
 20
592.5869
 30
0.0
 11
917.7777
 21
600.4131
 31
0.0
  0
LINE
  8
CLEANED
 10
920.0
 20
605.0
 30
0.0
 11
946.0
 21
626.0
 31
0.0
  0
LINE
  8
CLEANED
 10
946.0
 20
626.0
 30
0.0
 11
977.0
 21
648.0
 31
0.0
  0
LINE
  8
CLEANED
 10
997.9981
 20
168.3926
 30
0.0
 11
997.9981
 21
644.5375
 31
0.0
  0
LINE
  8
CLEANED
 10
1002.0
 20
357.0
 30
0.0
 11
1007.0
 21
338.0
 31
0.0
  0
LINE
  8
CLEANED
 10
1009.5
 20
245.994
 30
0.0
 11
1009.5
 21
288.006
 31
0.0
  0
LINE
  8
CLEANED
 10
1015.0
 20
139.0
 30
0.0
 11
1022.0
 21
121.0
 31
0.0
  0
LINE
  8
CLEANED
 10
1022.0
 20
40.0
 30
0.0
 11
1022.0
 21
93.0
 31
0.0
  0
LINE
  8
CLEANED
 10
1018.0
 20
72.0
 30
0.0
 11
1001.0
 21
76.0
 31
0.0
  0
LINE
  8
CLEANED
 10
981.0
 20
73.0
 30
0.0
 11
981.0
 21
92.0
 31
0.0
  0
LINE
  8
CLEANED
 10
981.0
 20
92.0
 30
0.0
 11
967.0
 21
98.0
 31
0.0
  0
LINE
  8
CLEANED
 10
951.9834
 20
98.5
 30
0.0
 11
967.0166
 21
98.5
 31
0.0
  0
LINE
  8
CLEANED
 10
947.0
 20
91.0
 30
0.0
 11
949.0
 21
69.0
 31
0.0
  0
LINE
  8
CLEANED
 10
949.0
 20
29.0
 30
0.0
 11
949.0
 21
50.0
 31
0.0
  0
LINE
  8
CLEANED
 10
960.7738
 20
1.8656
 30
0.0
 11
950.2262
 21
20.1344
 31
0.0
  0
LINE
  8
CLEANED
 10
934.0
 20
2.0
 30
0.0
 11
961.0
 21
2.0
 31
0.0
  0
LINE
  8
CLEANED
 10
932.0996
 20
44.8348
 30
0.0
 11
932.0996
 21
70.1785
 31
0.0
  0
LINE
  8
CLEANED
 10
930.5
 20
84.9834
 30
0.0
 11
930.5
 21
100.0166
 31
0.0
  0
LINE
  8
CLEANED
 10
947.0
 20
152.0
 30
0.0
 11
968.0
 21
148.0
 31
0.0
  0
LINE
  8
CLEANED
 10
977.4966
 20
144.6575
 30
0.0
 11
994.4829
 21
138.2877
 31
0.0
  0
LINE
  8
CLEANED
 10
999.0
 20
127.0
 30
0.0
 11
1017.0
 21
130.0
 31
0.0
  0
LINE
  8
CLEANED
 10
1013.4528
 20
140.6535
 30
0.0
 11
1005.5472
 21
154.3465
 31
0.0
  0
LINE
  8
CLEANED
 10
1005.0
 20
154.0
 30
0.0
 11
983.0
 21
158.0
 31
0.0
  0
LINE
  8
CLEANED
 10
983.0807
 20
158.1385
 30
0.0
 11
948.9193
 21
177.8615
 31
0.0
  0
LINE
  8
CLEANED
 10
936.0
 20
153.0
 30
0.0
 11
933.0
 21
179.0
 31
0.0
  0
LINE
  8
CLEANED
 10
933.0
 20
179.0
 30
0.0
 11
908.0
 21
187.0
 31
0.0
  0
LINE
  8
CLEANED
 10
924.0
 20
188.0
 30
0.0
 11
898.0
 21
191.0
 31
0.0
  0
LINE
  8
CLEANED
 10
880.0
 20
169.0
 30
0.0
 11
880.0
 21
193.0
 31
0.0
  0
LINE
  8
CLEANED
 10
882.0
 20
128.0
 30
0.0
 11
884.0
 21
112.0
 31
0.0
  0
LINE
  8
CLEANED
 10
884.3753
 20
66.9426
 30
0.0
 11
884.3753
 21
105.045
 31
0.0
  0
LINE
  8
CLEANED
 10
878.0139
 20
66.7055
 30
0.0
 11
880.0737
 21
66.7055
 31
0.0
  0
LINE
  8
CLEANED
 10
852.8508
 20
72.2977
 30
0.0
 11
842.205
 21
90.7366
 31
0.0
  0
LINE
  8
CLEANED
 10
835.0
 20
97.9678
 30
0.0
 11
835.0
 21
129.0322
 31
0.0
  0
LINE
  8
CLEANED
 10
821.0
 20
170.0
 30
0.0
 11
843.0
 21
170.0
 31
0.0
  0
LINE
  8
CLEANED
 10
827.0
 20
194.0
 30
0.0
 11
811.0
 21
178.0
 31
0.0
  0
LINE
  8
CLEANED
 10
816.3392
 20
185.7932
 30
0.0
 11
824.6608
 21
200.2068
 31
0.0
  0
LINE
  8
CLEANED
 10
820.9655
 20
211.4138
 30
0.0
 11
857.1724
 21
196.931
 31
0.0
  0
LINE
  8
CLEANED
 10
869.6926
 20
201.9343
 30
0.0
 11
869.6926
 21
256.9706
 31
0.0
  0
LINE
  8
CLEANED
 10
868.5307
 20
212.458
 30
0.0
 11
838.4875
 21
221.6016
 31
0.0
  0
LINE
  8
CLEANED
 10
846.2269
 20
219.1846
 30
0.0
 11
828.0318
 21
216.4354
 31
0.0
  0
LINE
  8
CLEANED
 10
860.7752
 20
206.2508
 30
0.0
 11
828.0318
 21
216.4354
 31
0.0
  0
LINE
  8
CLEANED
 10
831.11
 20
224.23
 30
0.0
 11
798.635
 21
218.805
 31
0.0
  0
LINE
  8
CLEANED
 10
810.0
 20
222.0
 30
0.0
 11
828.0
 21
219.0
 31
0.0
  0
LINE
  8
CLEANED
 10
824.0
 20
217.0
 30
0.0
 11
806.0
 21
215.0
 31
0.0
  0
LINE
  8
CLEANED
 10
798.4425
 20
193.9985
 30
0.0
 11
798.4425
 21
218.8065
 31
0.0
  0
LINE
  8
CLEANED
 10
798.0
 20
179.0
 30
0.0
 11
805.0
 21
155.0
 31
0.0
  0
LINE
  8
CLEANED
 10
805.0
 20
155.0
 30
0.0
 11
799.0
 21
133.0
 31
0.0
  0
LINE
  8
CLEANED
 10
778.9566
 20
126.0
 30
0.0
 11
802.0434
 21
126.0
 31
0.0
  0
LINE
  8
CLEANED
 10
781.0
 20
131.0
 30
0.0
 11
797.0
 21
133.0
 31
0.0
  0
LINE
  8
CLEANED
 10
797.0
 20
133.0
 30
0.0
 11
776.0
 21
135.0
 31
0.0
  0
LINE
  8
CLEANED
 10
771.0
 20
171.0
 30
0.0
 11
777.0
 21
187.0
 31
0.0
  0
LINE
  8
CLEANED
 10
778.0
 20
197.0
 30
0.0
 11
798.25
 21
194.0
 31
0.0
  0
LINE
  8
CLEANED
 10
761.0
 20
200.0
 30
0.0
 11
739.0
 21
209.0
 31
0.0
  0
LINE
  8
CLEANED
 10
617.9385
 20
227.078
 30
0.0
 11
740.0664
 21
227.078
 31
0.0
  0
LINE
  8
CLEANED
 10
717.99
 20
225.5
 30
0.0
 11
743.01
 21
225.5
 31
0.0
  0
LINE
  8
CLEANED
 10
735.0
 20
230.0
 30
0.0
 11
714.0
 21
227.0
 31
0.0
  0
LINE
  8
CLEANED
 10
505.0
 20
217.5
 30
0.0
 11
520.0
 21
217.5
 31
0.0
  0
LINE
  8
CLEANED
 10
487.0
 20
222.5
 30
0.0
 11
528.0
 21
222.5
 31
0.0
  0
LINE
  8
CLEANED
 10
567.0
 20
146.0
 30
0.0
 11
567.0
 21
174.0
 31
0.0
  0
LINE
  8
CLEANED
 10
561.8897
 20
124.1179
 30
0.0
 11
534.0987
 21
126.7897
 31
0.0
  0
LINE
  8
CLEANED
 10
534.0987
 20
126.7897
 30
0.0
 11
513.0
 21
123.0
 31
0.0
  0
LINE
  8
CLEANED
 10
487.99
 20
123.5
 30
0.0
 11
513.01
 21
123.5
 31
0.0
  0
LINE
  8
CLEANED
 10
479.7726
 20
130.1038
 30
0.0
 11
520.2722
 21
134.4821
 31
0.0
  0
LINE
  8
CLEANED
 10
509.1187
 20
130.7974
 30
0.0
 11
543.9126
 21
130.7974
 31
0.0
  0
LINE
  8
CLEANED
 10
529.0
 20
129.0
 30
0.0
 11
531.9844
 21
129.0
 31
0.0
  0
LINE
  8
CLEANED
 10
460.1635
 20
217.1827
 30
0.0
 11
490.1635
 21
223.1827
 31
0.0
  0
LINE
  8
CLEANED
 10
360.9986
 20
215.4669
 30
0.0
 11
462.0024
 21
215.4669
 31
0.0
  0
LINE
  8
CLEANED
 10
436.5
 20
200.9834
 30
0.0
 11
436.5
 21
216.0166
 31
0.0
  0
LINE
  8
CLEANED
 10
361.0
 20
218.0
 30
0.0
 11
378.0
 21
224.0
 31
0.0
  0
LINE
  8
CLEANED
 10
300.0598
 20
229.5
 30
0.0
 11
431.0848
 21
229.5
 31
0.0
  0
LINE
  8
CLEANED
 10
298.8933
 20
232.8828
 30
0.0
 11
348.0972
 21
232.8828
 31
0.0
  0
LINE
  8
CLEANED
 10
431.0273
 20
232.2442
 30
0.0
 11
404.0
 21
237.0
 31
0.0
  0
LINE
  8
CLEANED
 10
321.9757
 20
238.1887
 30
0.0
 11
427.0456
 21
238.1887
 31
0.0
  0
LINE
  8
CLEANED
 10
297.9643
 20
241.0
 30
0.0
 11
326.0357
 21
241.0
 31
0.0
  0
LINE
  8
CLEANED
 10
295.0
 20
237.0
 30
0.0
 11
298.0
 21
270.0
 31
0.0
  0
LINE
  8
CLEANED
 10
298.3178
 20
236.0011
 30
0.0
 11
298.3178
 21
384.9521
 31
0.0
  0
LINE
  8
CLEANED
 10
299.8141
 20
318.9842
 30
0.0
 11
299.8141
 21
481.028
 31
0.0
  0
LINE
  8
CLEANED
 10
303.1549
 20
471.5094
 30
0.0
 11
344.7922
 21
484.6581
 31
0.0
  0
LINE
  8
CLEANED
 10
317.0258
 20
471.0997
 30
0.0
 11
429.0301
 21
471.0997
 31
0.0
  0
LINE
  8
CLEANED
 10
328.975
 20
474.0
 30
0.0
 11
369.025
 21
474.0
 31
0.0
  0
LINE
  8
CLEANED
 10
340.3784
 20
497.7297
 30
0.0
 11
319.6216
 21
494.2703
 31
0.0
  0
LINE
  8
CLEANED
 10
292.2353
 20
490.0588
 30
0.0
 11
320.4706
 21
496.1176
 31
0.0
  0
LINE
  8
CLEANED
 10
279.1344
 20
488.2262
 30
0.0
 11
260.8656
 21
498.7738
 31
0.0
  0
LINE
  8
CLEANED
 10
252.8288
 20
507.582
 30
0.0
 11
293.1632
 21
519.4451
 31
0.0
  0
LINE
  8
CLEANED
 10
287.6882
 20
473.0776
 30
0.0
 11
261.9603
 21
487.9316
 31
0.0
  0
LINE
  8
CLEANED
 10
284.4726
 20
242.9745
 30
0.0
 11
284.4726
 21
473.053
 31
0.0
  0
LINE
  8
CLEANED
 10
284.0
 20
238.0
 30
0.0
 11
249.0
 21
230.0
 31
0.0
  0
LINE
  8
CLEANED
 10
222.0
 20
222.0
 30
0.0
 11
248.0
 21
222.0
 31
0.0
  0
LINE
  8
CLEANED
 10
205.0
 20
205.0
 30
0.0
 11
224.0
 21
209.0
 31
0.0
  0
LINE
  8
CLEANED
 10
224.0
 20
209.0
 30
0.0
 11
203.0
 21
201.0
 31
0.0
  0
LINE
  8
CLEANED
 10
202.5
 20
173.9891
 30
0.0
 11
202.5
 21
197.0109
 31
0.0
  0
LINE
  8
CLEANED
 10
197.0991
 20
172.9673
 30
0.0
 11
197.0991
 21
197.7944
 31
0.0
  0
LINE
  8
CLEANED
 10
196.1981
 20
197.7617
 30
0.0
 11
167.6661
 21
193.0866
 31
0.0
  0
LINE
  8
CLEANED
 10
183.0
 20
155.0
 30
0.0
 11
202.0
 21
159.0
 31
0.0
  0
LINE
  8
CLEANED
 10
203.5
 20
108.0
 30
0.0
 11
203.5
 21
132.0
 31
0.0
  0
LINE
  8
CLEANED
 10
189.476
 20
51.3973
 30
0.0
 11
173.738
 21
44.6986
 31
0.0
  0
LINE
  8
CLEANED
 10
173.738
 20
44.6986
 30
0.0
 11
157.0
 21
43.0
 31
0.0
  0
LINE
  8
CLEANED
 10
153.0
 20
57.0
 30
0.0
 11
153.0
 21
97.0
 31
0.0
  0
LINE
  8
CLEANED
 10
199.4016
 20
217.3187
 30
0.0
 11
166.3148
 21
208.7802
 31
0.0
  0
LINE
  8
CLEANED
 10
172.5483
 20
523.8658
 30
0.0
 11
172.5483
 21
564.3089
 31
0.0
  0
LINE
  8
CLEANED
 10
160.0
 20
170.0
 30
0.0
 11
157.9991
 21
192.0217
 31
0.0
  0
LINE
  8
CLEANED
 10
134.9877
 20
191.5325
 30
0.0
 11
158.0095
 21
191.5325
 31
0.0
  0
LINE
  8
CLEANED
 10
135.0
 20
198.5
 30
0.0
 11
158.0
 21
198.5
 31
0.0
  0
LINE
  8
CLEANED
 10
131.9708
 20
186.1128
 30
0.0
 11
104.9854
 21
179.0564
 31
0.0
  0
LINE
  8
CLEANED
 10
104.4927
 20
160.9866
 30
0.0
 11
104.4927
 21
179.0698
 31
0.0
  0
LINE
  8
CLEANED
 10
99.25
 20
152.978
 30
0.0
 11
99.25
 21
178.522
 31
0.0
  0
LINE
  8
CLEANED
 10
87.0
 20
172.0
 30
0.0
 11
27.0
 21
152.0
 31
0.0
  0
LINE
  8
CLEANED
 10
20.0
 20
139.0
 30
0.0
 11
17.0
 21
124.0
 31
0.0
  0
LINE
  8
CLEANED
 10
26.0
 20
160.0
 30
0.0
 11
72.0
 21
172.0
 31
0.0
  0
LINE
  8
CLEANED
 10
74.0
 20
176.0
 30
0.0
 11
98.5
 21
178.5
 31
0.0
  0
LINE
  8
CLEANED
 10
39.0
 20
172.0
 30
0.0
 11
21.0
 21
166.0
 31
0.0
  0
LINE
  8
CLEANED
 10
31.863
 20
167.5296
 30
0.0
 11
31.863
 21
630.3171
 31
0.0
  0
LINE
  8
CLEANED
 10
30.0
 20
357.0
 30
0.0
 11
117.0
 21
348.0
 31
0.0
  0
LINE
  8
CLEANED
 10
115.5409
 20
266.0137
 30
0.0
 11
115.5409
 21
340.119
 31
0.0
  0
LINE
  8
CLEANED
 10
101.6618
 20
258.6471
 30
0.0
 11
86.3676
 21
262.4706
 31
0.0
  0
LINE
  8
CLEANED
 10
59.0
 20
258.0
 30
0.0
 11
25.0
 21
253.0
 31
0.0
  0
LINE
  8
CLEANED
 10
21.0
 20
173.0
 30
0.0
 11
77.0
 21
188.0
 31
0.0
  0
LINE
  8
CLEANED
 10
97.14
 20
189.7256
 30
0.0
 11
102.14
 21
228.7256
 31
0.0
  0
LINE
  8
CLEANED
 10
104.0
 20
195.0
 30
0.0
 11
104.0
 21
221.0
 31
0.0
  0
LINE
  8
CLEANED
 10
106.0
 20
195.0
 30
0.0
 11
130.868
 21
202.537
 31
0.0
  0
LINE
  8
CLEANED
 10
132.4992
 20
304.1323
 30
0.0
 11
132.4992
 21
351.4983
 31
0.0
  0
LINE
  8
CLEANED
 10
136.0
 20
456.0
 30
0.0
 11
140.0
 21
481.0
 31
0.0
  0
LINE
  8
CLEANED
 10
136.0
 20
495.0
 30
0.0
 11
138.0
 21
511.0
 31
0.0
  0
LINE
  8
CLEANED
 10
143.0224
 20
447.0344
 30
0.0
 11
143.0224
 21
447.9702
 31
0.0
  0
LINE
  8
CLEANED
 10
138.8607
 20
566.7496
 30
0.0
 11
123.4565
 21
575.6432
 31
0.0
  0
LINE
  8
CLEANED
 10
123.3173
 20
575.3928
 30
0.0
 11
75.1493
 21
614.9467
 31
0.0
  0
LINE
  8
CLEANED
 10
97.8364
 20
597.3664
 30
0.0
 11
43.7359
 21
628.6014
 31
0.0
  0
LINE
  8
CLEANED
 10
70.3675
 20
620.5917
 30
0.0
 11
51.6325
 21
631.4083
 31
0.0
  0
LINE
  8
CLEANED
 10
130.8326
 20
579.7044
 30
0.0
 11
95.1674
 21
600.2956
 31
0.0
  0
LINE
  8
CLEANED
 10
146.3634
 20
476.9044
 30
0.0
 11
146.3634
 21
558.9593
 31
0.0
  0
LINE
  8
CLEANED
 10
162.9797
 20
385.9996
 30
0.0
 11
162.9797
 21
411.9654
 31
0.0
  0
LINE
  8
CLEANED
 10
164.9713
 20
411.9299
 30
0.0
 11
164.9713
 21
525.001
 31
0.0
  0
LINE
  8
CLEANED
 10
166.9737
 20
524.9655
 30
0.0
 11
169.0
 21
510.0
 31
0.0
  0
LINE
  8
CLEANED
 10
168.5
 20
509.9934
 30
0.0
 11
168.5
 21
548.0066
 31
0.0
  0
LINE
  8
CLEANED
 10
401.7257
 20
629.9524
 30
0.0
 11
168.3592
 21
562.7526
 31
0.0
  0
LINE
  8
CLEANED
 10
222.3706
 20
579.3324
 30
0.0
 11
288.5471
 21
594.0382
 31
0.0
  0
LINE
  8
CLEANED
 10
266.1596
 20
593.3219
 30
0.0
 11
321.2637
 21
607.0166
 31
0.0
  0
LINE
  8
CLEANED
 10
321.5926
 20
606.3999
 30
0.0
 11
339.5906
 21
616.7911
 31
0.0
  0
LINE
  8
CLEANED
 10
339.9195
 20
616.1744
 30
0.0
 11
362.0
 21
620.0
 31
0.0
  0
LINE
  8
CLEANED
 10
355.9556
 20
616.4116
 30
0.0
 11
490.4351
 21
657.5788
 31
0.0
  0
LINE
  8
CLEANED
 10
502.0
 20
689.9601
 30
0.0
 11
502.0
 21
715.0399
 31
0.0
  0
LINE
  8
CLEANED
 10
573.7795
 20
670.4026
 30
0.0
 11
585.7795
 21
766.4026
 31
0.0
  0
LINE
  8
CLEANED
 10
592.0
 20
767.0
 30
0.0
 11
582.0
 21
700.0
 31
0.0
  0
LINE
  8
CLEANED
 10
580.5
 20
673.9869
 30
0.0
 11
580.5
 21
693.0131
 31
0.0
  0
LINE
  8
CLEANED
 10
683.4172
 20
642.4304
 30
0.0
 11
604.5436
 21
665.4352
 31
0.0
  0
LINE
  8
CLEANED
 10
631.0326
 20
655.7034
 30
0.0
 11
636.239
 21
680.9488
 31
0.0
  0
LINE
  8
CLEANED
 10
604.1965
 20
767.8022
 30
0.0
 11
712.0464
 21
741.1893
 31
0.0
  0
LINE
  8
CLEANED
 10
648.675
 20
718.775
 30
0.0
 11
660.175
 21
753.275
 31
0.0
  0
LINE
  8
CLEANED
 10
712.0464
 20
741.1893
 30
0.0
 11
666.3843
 21
750.1992
 31
0.0
  0
LINE
  8
CLEANED
 10
666.3843
 20
750.1992
 30
0.0
 11
643.7686
 21
682.3984
 31
0.0
  0
LINE
  8
CLEANED
 10
654.0
 20
732.0
 30
0.0
 11
642.0
 21
687.0
 31
0.0
  0
LINE
  8
CLEANED
 10
642.0
 20
687.0
 30
0.0
 11
633.0
 21
667.0
 31
0.0
  0
LINE
  8
CLEANED
 10
625.5757
 20
666.1273
 30
0.0
 11
637.2179
 21
704.9346
 31
0.0
  0
LINE
  8
CLEANED
 10
617.08
 20
687.56
 30
0.0
 11
638.96
 21
684.72
 31
0.0
  0
LINE
  8
CLEANED
 10
638.96
 20
684.72
 30
0.0
 11
645.0
 21
714.0
 31
0.0
  0
LINE
  8
CLEANED
 10
640.0
 20
767.0
 30
0.0
 11
668.0
 21
763.0
 31
0.0
  0
LINE
  8
CLEANED
 10
647.4159
 20
767.5944
 30
0.0
 11
989.8106
 21
678.274
 31
0.0
  0
LINE
  8
CLEANED
 10
1007.8927
 20
372.9302
 30
0.0
 11
1007.8927
 21
510.1019
 31
0.0
  0
LINE
  8
CLEANED
 10
1005.7662
 20
467.9729
 30
0.0
 11
1005.7662
 21
510.0624
 31
0.0
  0
LINE
  8
CLEANED
 10
1014.1887
 20
340.0206
 30
0.0
 11
1004.5957
 21
427.9559
 31
0.0
  0
LINE
  8
CLEANED
 10
782.7831
 20
763.6146
 30
0.0
 11
765.2077
 21
757.4115
 31
0.0
  0
LINE
  8
CLEANED
 10
841.6459
 20
750.5924
 30
0.0
 11
851.3541
 21
767.4076
 31
0.0
  0
LINE
  8
CLEANED
 10
836.0
 20
754.0
 30
0.0
 11
845.0
 21
766.0
 31
0.0
  0
LINE
  8
CLEANED
 10
898.0
 20
758.0
 30
0.0
 11
917.0
 21
761.0
 31
0.0
  0
LINE
  8
CLEANED
 10
960.0
 20
767.0
 30
0.0
 11
922.0
 21
728.0
 31
0.0
  0
LINE
  8
CLEANED
 10
922.0
 20
736.0
 30
0.0
 11
880.0
 21
748.0
 31
0.0
  0
LINE
  8
CLEANED
 10
879.9834
 20
747.5
 30
0.0
 11
895.0166
 21
747.5
 31
0.0
  0
LINE
  8
CLEANED
 10
881.0
 20
755.75
 30
0.0
 11
913.9381
 21
741.1108
 31
0.0
  0
LINE
  8
CLEANED
 10
919.1115
 20
740.1423
 30
0.0
 11
937.9423
 21
754.7885
 31
0.0
  0
LINE
  8
CLEANED
 10
901.0
 20
748.0
 30
0.0
 11
882.0
 21
753.0
 31
0.0
  0
LINE
  8
CLEANED
 10
93.0
 20
766.0
 30
0.0
 11
78.0
 21
760.0
 31
0.0
  0
LINE
  8
CLEANED
 10
77.0
 20
752.0
 30
0.0
 11
91.88
 21
740.84
 31
0.0
  0
LINE
  8
CLEANED
 10
114.9491
 20
755.9106
 30
0.0
 11
99.0509
 21
765.0894
 31
0.0
  0
LINE
  8
CLEANED
 10
351.4914
 20
746.3966
 30
0.0
 11
359.4914
 21
726.3966
 31
0.0
  0
LINE
  8
CLEANED
 10
370.7337
 20
702.8891
 30
0.0
 11
389.0178
 21
659.0074
 31
0.0
  0
LINE
  8
CLEANED
 10
381.3304
 20
677.8766
 30
0.0
 11
432.1652
 21
693.4383
 31
0.0
  0
LINE
  8
CLEANED
 10
432.1652
 20
693.4383
 30
0.0
 11
415.0
 21
764.0
 31
0.0
  0
LINE
  8
CLEANED
 10
791.4935
 20
761.4754
 30
0.0
 11
829.987
 21
751.9508
 31
0.0
  0
LINE
  8
CLEANED
 10
795.0
 20
761.0
 30
0.0
 11
775.0
 21
754.0
 31
0.0
  0
LINE
  8
CLEANED
 10
775.0
 20
754.0
 30
0.0
 11
791.4935
 21
761.4754
 31
0.0
  0
LINE
  8
CLEANED
 10
820.0
 20
762.0
 30
0.0
 11
837.0
 21
760.0
 31
0.0
  0
LINE
  8
CLEANED
 10
215.0883
 20
748.6241
 30
0.0
 11
235.7981
 21
744.9904
 31
0.0
  0
LINE
  8
CLEANED
 10
215.0883
 20
748.6241
 30
0.0
 11
182.9555
 21
738.1423
 31
0.0
  0
LINE
  8
CLEANED
 10
576.2794
 20
739.1176
 30
0.0
 11
533.6912
 21
749.7647
 31
0.0
  0
LINE
  8
CLEANED
 10
851.8285
 20
745.265
 30
0.0
 11
911.8285
 21
731.265
 31
0.0
  0
LINE
  8
CLEANED
 10
49.9844
 20
746.9994
 30
0.0
 11
54.0
 21
721.0
 31
0.0
  0
LINE
  8
CLEANED
 10
50.4974
 20
721.9899
 30
0.0
 11
50.4974
 21
747.0099
 31
0.0
  0
LINE
  8
CLEANED
 10
347.0
 20
745.0
 30
0.0
 11
356.0
 21
725.0
 31
0.0
  0
LINE
  8
CLEANED
 10
69.2068
 20
730.3392
 30
0.0
 11
54.7932
 21
738.6608
 31
0.0
  0
LINE
  8
CLEANED
 10
642.5353
 20
569.3804
 30
0.0
 11
735.8377
 21
730.9847
 31
0.0
  0
LINE
  8
CLEANED
 10
660.7725
 20
583.4187
 30
0.0
 11
744.7773
 21
728.9192
 31
0.0
  0
LINE
  8
CLEANED
 10
740.791
 20
733.1043
 30
0.0
 11
797.9459
 21
719.7682
 31
0.0
  0
LINE
  8
CLEANED
 10
799.442
 20
683.7661
 30
0.0
 11
816.4847
 21
713.2849
 31
0.0
  0
LINE
  8
CLEANED
 10
881.0162
 20
695.9454
 30
0.0
 11
822.6771
 21
711.7516
 31
0.0
  0
LINE
  8
CLEANED
 10
875.5021
 20
671.7923
 30
0.0
 11
920.2382
 21
685.1426
 31
0.0
  0
LINE
  8
CLEANED
 10
920.2382
 20
685.1426
 30
0.0
 11
900.0
 21
691.0
 31
0.0
  0
LINE
  8
CLEANED
 10
905.2867
 20
692.8242
 30
0.0
 11
944.6931
 21
679.1176
 31
0.0
  0
LINE
  8
CLEANED
 10
964.8756
 20
673.9091
 30
0.0
 11
940.2771
 21
681.7204
 31
0.0
  0
LINE
  8
CLEANED
 10
964.8756
 20
673.9091
 30
0.0
 11
916.5659
 21
632.3448
 31
0.0
  0
LINE
  8
CLEANED
 10
948.0
 20
659.0
 30
0.0
 11
921.0
 21
632.0
 31
0.0
  0
LINE
  8
CLEANED
 10
928.6058
 20
636.1472
 30
0.0
 11
876.8672
 21
591.3071
 31
0.0
  0
LINE
  8
CLEANED
 10
845.7
 20
600.1
 30
0.0
 11
873.0
 21
591.0
 31
0.0
  0
LINE
  8
CLEANED
 10
818.31
 20
610.93
 30
0.0
 11
843.81
 21
602.43
 31
0.0
  0
LINE
  8
CLEANED
 10
799.2337
 20
537.6101
 30
0.0
 11
1019.22
 21
732.8788
 31
0.0
  0
LINE
  8
CLEANED
 10
923.9988
 20
681.8602
 30
0.0
 11
940.2783
 21
681.8602
 31
0.0
  0
LINE
  8
CLEANED
 10
897.0
 20
676.0
 30
0.0
 11
912.0
 21
676.0
 31
0.0
  0
LINE
  8
CLEANED
 10
777.0
 20
604.0
 30
0.0
 11
793.0
 21
604.0
 31
0.0
  0
LINE
  8
CLEANED
 10
695.3506
 20
641.8661
 30
0.0
 11
748.3142
 21
625.7468
 31
0.0
  0
LINE
  8
CLEANED
 10
727.1027
 20
634.726
 30
0.0
 11
704.8562
 21
626.3836
 31
0.0
  0
LINE
  8
CLEANED
 10
698.0
 20
638.0
 30
0.0
 11
686.0
 21
628.0
 31
0.0
  0
LINE
  8
CLEANED
 10
640.0
 20
656.0
 30
0.0
 11
685.0
 21
646.0
 31
0.0
  0
LINE
  8
CLEANED
 10
107.2919
 20
715.0514
 30
0.0
 11
164.773
 21
732.7378
 31
0.0
  0
LINE
  8
CLEANED
 10
1023.5384
 20
730.2803
 30
0.0
 11
1004.5835
 21
712.5891
 31
0.0
  0
LINE
  8
CLEANED
 10
745.7877
 20
633.3718
 30
0.0
 11
760.1816
 21
641.6821
 31
0.0
  0
LINE
  8
CLEANED
 10
751.0
 20
642.0
 30
0.0
 11
735.0
 21
639.0
 31
0.0
  0
LINE
  8
CLEANED
 10
735.0
 20
639.0
 30
0.0
 11
755.0
 21
644.0
 31
0.0
  0
LINE
  8
CLEANED
 10
761.0
 20
654.0
 30
0.0
 11
772.0
 21
665.0
 31
0.0
  0
LINE
  8
CLEANED
 10
772.0
 20
665.0
 30
0.0
 11
779.0
 21
685.0
 31
0.0
  0
LINE
  8
CLEANED
 10
812.3767
 20
658.6482
 30
0.0
 11
773.9942
 21
725.1286
 31
0.0
  0
LINE
  8
CLEANED
 10
505.4892
 20
704.076
 30
0.0
 11
505.4892
 21
727.923
 31
0.0
  0
LINE
  8
CLEANED
 10
510.0
 20
694.0
 30
0.0
 11
510.0
 21
720.0
 31
0.0
  0
LINE
  8
CLEANED
 10
794.0
 20
702.0
 30
0.0
 11
804.0
 21
715.0
 31
0.0
  0
LINE
  8
CLEANED
 10
804.0
 20
715.0
 30
0.0
 11
781.0
 21
722.0
 31
0.0
  0
LINE
  8
CLEANED
 10
377.3679
 20
678.1927
 30
0.0
 11
357.89
 21
711.9295
 31
0.0
  0
LINE
  8
CLEANED
 10
378.25
 20
668.75
 30
0.0
 11
362.75
 21
715.25
 31
0.0
  0
LINE
  8
CLEANED
 10
975.8544
 20
714.5236
 30
0.0
 11
1011.9322
 21
702.6422
 31
0.0
  0
LINE
  8
CLEANED
 10
1.0
 20
712.0
 30
0.0
 11
24.0
 21
695.0
 31
0.0
  0
LINE
  8
CLEANED
 10
20.4778
 20
689.3291
 30
0.0
 11
0.0776
 21
701.1072
 31
0.0
  0
LINE
  8
CLEANED
 10
786.8697
 20
652.5449
 30
0.0
 11
859.0467
 21
669.8046
 31
0.0
  0
LINE
  8
CLEANED
 10
826.9042
 20
634.0843
 30
0.0
 11
881.0162
 21
695.9454
 31
0.0
  0
LINE
  8
CLEANED
 10
67.364
 20
701.998
 30
0.0
 11
50.644
 21
698.958
 31
0.0
  0
LINE
  8
CLEANED
 10
987.973
 20
701.7015
 30
0.0
 11
1011.9691
 21
701.7015
 31
0.0
  0
LINE
  8
CLEANED
 10
0.5185
 20
701.8121
 30
0.0
 11
15.0
 21
690.0
 31
0.0
  0
LINE
  8
CLEANED
 10
26.0
 20
691.0
 30
0.0
 11
44.0
 21
697.0
 31
0.0
  0
LINE
  8
CLEANED
 10
740.5
 20
695.5
 30
0.0
 11
768.0
 21
691.0
 31
0.0
  0
LINE
  8
CLEANED
 10
765.0
 20
689.0
 30
0.0
 11
740.5
 21
695.5
 31
0.0
  0
LINE
  8
CLEANED
 10
597.0096
 20
692.0481
 30
0.0
 11
612.0096
 21
689.0481
 31
0.0
  0
LINE
  8
CLEANED
 10
392.0
 20
655.0
 30
0.0
 11
408.0
 21
662.0
 31
0.0
  0
LINE
  8
CLEANED
 10
408.0
 20
662.0
 30
0.0
 11
437.0
 21
668.0
 31
0.0
  0
LINE
  8
CLEANED
 10
439.0
 20
671.0
 30
0.0
 11
432.0
 21
690.0
 31
0.0
  0
LINE
  8
CLEANED
 10
990.9763
 20
682.7735
 30
0.0
 11
1014.0631
 21
682.7735
 31
0.0
  0
LINE
  8
CLEANED
 10
915.0
 20
681.0
 30
0.0
 11
898.0
 21
678.0
 31
0.0
  0
LINE
  8
CLEANED
 10
192.0
 20
613.0
 30
0.0
 11
144.8962
 21
656.6192
 31
0.0
  0
LINE
  8
CLEANED
 10
144.8962
 20
656.6192
 30
0.0
 11
106.2077
 21
666.7615
 31
0.0
  0
LINE
  8
CLEANED
 10
111.0
 20
662.0
 30
0.0
 11
96.0
 21
668.0
 31
0.0
  0
LINE
  8
CLEANED
 10
96.0
 20
668.0
 30
0.0
 11
67.0
 21
661.0
 31
0.0
  0
LINE
  8
CLEANED
 10
67.0
 20
661.0
 30
0.0
 11
85.0
 21
648.0
 31
0.0
  0
LINE
  8
CLEANED
 10
100.9821
 20
637.9689
 30
0.0
 11
87.0179
 21
646.0311
 31
0.0
  0
LINE
  8
CLEANED
 10
101.0
 20
635.0
 30
0.0
 11
147.0
 21
600.0
 31
0.0
  0
LINE
  8
CLEANED
 10
154.0
 20
596.0
 30
0.0
 11
165.0
 21
585.0
 31
0.0
  0
LINE
  8
CLEANED
 10
153.375
 20
581.875
 30
0.0
 11
178.575
 21
590.275
 31
0.0
  0
LINE
  8
CLEANED
 10
212.0
 20
598.0
 30
0.0
 11
197.0
 21
595.0
 31
0.0
  0
LINE
  8
CLEANED
 10
173.0
 20
586.0
 30
0.0
 11
171.0
 21
567.0
 31
0.0
  0
LINE
  8
CLEANED
 10
162.0
 20
583.0
 30
0.0
 11
148.0
 21
589.0
 31
0.0
  0
LINE
  8
CLEANED
 10
155.0245
 20
575.3528
 30
0.0
 11
52.0122
 21
654.1764
 31
0.0
  0
LINE
  8
CLEANED
 10
51.5439
 20
654.9139
 30
0.0
 11
69.4683
 21
665.2626
 31
0.0
  0
LINE
  8
CLEANED
 10
776.4116
 20
649.0929
 30
0.0
 11
793.6144
 21
678.8891
 31
0.0
  0
LINE
  8
CLEANED
 10
824.283
 20
632.162
 30
0.0
 11
798.5442
 21
676.743
 31
0.0
  0
LINE
  8
CLEANED
 10
117.0
 20
677.0
 30
0.0
 11
100.0
 21
671.0
 31
0.0
  0
LINE
  8
CLEANED
 10
138.0
 20
664.0
 30
0.0
 11
123.0
 21
676.0
 31
0.0
  0
LINE
  8
CLEANED
 10
219.0
 20
664.0
 30
0.0
 11
213.0
 21
648.0
 31
0.0
  0
LINE
  8
CLEANED
 10
233.3933
 20
625.0867
 30
0.0
 11
237.7667
 21
660.0333
 31
0.0
  0
LINE
  8
CLEANED
 10
247.875
 20
640.875
 30
0.0
 11
223.875
 21
664.875
 31
0.0
  0
LINE
  8
CLEANED
 10
851.0
 20
665.0
 30
0.0
 11
815.0
 21
654.0
 31
0.0
  0
LINE
  8
CLEANED
 10
826.7527
 20
633.9953
 30
0.0
 11
815.1515
 21
654.089
 31
0.0
  0
LINE
  8
CLEANED
 10
491.5325
 20
653.8308
 30
0.0
 11
402.6714
 21
627.7018
 31
0.0
  0
LINE
  8
CLEANED
 10
406.0
 20
628.0
 30
0.0
 11
430.0
 21
637.0
 31
0.0
  0
LINE
  8
CLEANED
 10
430.0
 20
637.0
 30
0.0
 11
454.1968
 21
640.4799
 31
0.0
  0
LINE
  8
CLEANED
 10
454.1968
 20
640.4799
 30
0.0
 11
491.5325
 21
653.8308
 31
0.0
  0
LINE
  8
CLEANED
 10
664.0
 20
620.0
 30
0.0
 11
629.0
 21
626.0
 31
0.0
  0
LINE
  8
CLEANED
 10
629.0
 20
626.0
 30
0.0
 11
619.0
 21
596.0
 31
0.0
  0
LINE
  8
CLEANED
 10
612.2113
 20
577.5372
 30
0.0
 11
622.8667
 21
628.4465
 31
0.0
  0
LINE
  8
CLEANED
 10
625.0
 20
628.0
 30
0.0
 11
610.0
 21
590.0
 31
0.0
  0
LINE
  8
CLEANED
 10
623.0
 20
579.0
 30
0.0
 11
652.0
 21
579.0
 31
0.0
  0
LINE
  8
CLEANED
 10
630.938
 20
517.5856
 30
0.0
 11
667.0275
 21
580.0945
 31
0.0
  0
LINE
  8
CLEANED
 10
661.8905
 20
566.3068
 30
0.0
 11
697.1543
 21
560.7353
 31
0.0
  0
LINE
  8
CLEANED
 10
675.8284
 20
566.3478
 30
0.0
 11
697.1543
 21
560.7353
 31
0.0
  0
LINE
  8
CLEANED
 10
704.0
 20
567.0
 30
0.0
 11
717.0
 21
585.0
 31
0.0
  0
LINE
  8
CLEANED
 10
721.569
 20
594.6991
 30
0.0
 11
710.2568
 21
607.1425
 31
0.0
  0
LINE
  8
CLEANED
 10
726.9974
 20
600.9907
 30
0.0
 11
684.0078
 21
613.0278
 31
0.0
  0
LINE
  8
CLEANED
 10
666.4066
 20
580.4448
 30
0.0
 11
671.0
 21
597.0
 31
0.0
  0
LINE
  8
CLEANED
 10
672.0
 20
594.0
 30
0.0
 11
679.0
 21
612.0
 31
0.0
  0
LINE
  8
CLEANED
 10
838.308
 20
574.694
 30
0.0
 11
793.78
 21
582.79
 31
0.0
  0
LINE
  8
CLEANED
 10
98.591
 20
623.1885
 30
0.0
 11
56.6372
 21
655.8192
 31
0.0
  0
LINE
  8
CLEANED
 10
84.0
 20
632.0
 30
0.0
 11
100.0854
 21
624.7317
 31
0.0
  0
LINE
  8
CLEANED
 10
184.0
 20
638.0
 30
0.0
 11
198.0
 21
624.0
 31
0.0
  0
LINE
  8
CLEANED
 10
812.0
 20
653.0
 30
0.0
 11
790.0
 21
650.0
 31
0.0
  0
LINE
  8
CLEANED
 10
794.0
 20
635.0
 30
0.0
 11
805.0
 21
623.0
 31
0.0
  0
LINE
  8
CLEANED
 10
520.2685
 20
602.2392
 30
0.0
 11
520.2685
 21
649.9762
 31
0.0
  0
LINE
  8
CLEANED
 10
532.1778
 20
603.1115
 30
0.0
 11
558.8159
 21
598.8495
 31
0.0
  0
LINE
  8
CLEANED
 10
569.4452
 20
597.0208
 30
0.0
 11
569.4452
 21
641.123
 31
0.0
  0
LINE
  8
CLEANED
 10
620.0394
 20
628.0772
 30
0.0
 11
532.0064
 21
652.0232
 31
0.0
  0
LINE
  8
CLEANED
 10
457.0
 20
640.0
 30
0.0
 11
464.0
 21
605.0
 31
0.0
  0
LINE
  8
CLEANED
 10
469.0
 20
596.0
 30
0.0
 11
498.0
 21
606.0
 31
0.0
  0
LINE
  8
CLEANED
 10
498.0
 20
606.0
 30
0.0
 11
494.0
 21
650.0
 31
0.0
  0
LINE
  8
CLEANED
 10
514.0
 20
610.0
 30
0.0
 11
517.0
 21
632.0
 31
0.0
  0
LINE
  8
CLEANED
 10
494.0
 20
650.0
 30
0.0
 11
501.0
 21
606.0
 31
0.0
  0
LINE
  8
CLEANED
 10
504.5
 20
608.9438
 30
0.0
 11
504.5
 21
649.0562
 31
0.0
  0
LINE
  8
CLEANED
 10
210.0
 20
644.0
 30
0.0
 11
202.0
 21
626.0
 31
0.0
  0
LINE
  8
CLEANED
 10
217.9565
 20
616.0745
 30
0.0
 11
233.4368
 21
625.0121
 31
0.0
  0
LINE
  8
CLEANED
 10
978.8795
 20
643.1582
 30
0.0
 11
951.0402
 21
621.9473
 31
0.0
  0
LINE
  8
CLEANED
 10
939.0
 20
613.0
 30
0.0
 11
887.0
 21
572.0
 31
0.0
  0
LINE
  8
CLEANED
 10
895.6013
 20
427.9233
 30
0.0
 11
900.6006
 21
401.9867
 31
0.0
  0
LINE
  8
CLEANED
 10
900.6006
 20
401.9867
 30
0.0
 11
898.8
 21
386.025
 31
0.0
  0
LINE
  8
CLEANED
 10
898.8
 20
386.025
 30
0.0
 11
903.0
 21
353.0
 31
0.0
  0
LINE
  8
CLEANED
 10
904.0
 20
305.973
 30
0.0
 11
904.0
 21
343.027
 31
0.0
  0
LINE
  8
CLEANED
 10
906.0
 20
309.0
 30
0.0
 11
904.0
 21
291.0
 31
0.0
  0
LINE
  8
CLEANED
 10
906.5
 20
239.0
 30
0.0
 11
906.5
 21
269.0
 31
0.0
  0
LINE
  8
CLEANED
 10
906.0
 20
244.0
 30
0.0
 11
911.0
 21
202.0
 31
0.0
  0
LINE
  8
CLEANED
 10
911.0
 20
202.0
 30
0.0
 11
933.0
 21
197.0
 31
0.0
  0
LINE
  8
CLEANED
 10
933.5
 20
196.9869
 30
0.0
 11
933.5
 21
216.0131
 31
0.0
  0
LINE
  8
CLEANED
 10
937.0
 20
192.9974
 30
0.0
 11
937.0
 21
236.0026
 31
0.0
  0
LINE
  8
CLEANED
 10
940.0
 20
190.0
 30
0.0
 11
940.0
 21
224.0
 31
0.0
  0
LINE
  8
CLEANED
 10
970.0
 20
185.0
 30
0.0
 11
1010.0
 21
173.0
 31
0.0
  0
LINE
  8
CLEANED
 10
1007.0
 20
255.0
 30
0.0
 11
992.0
 21
260.0
 31
0.0
  0
LINE
  8
CLEANED
 10
989.0
 20
258.0
 30
0.0
 11
922.0
 21
265.0
 31
0.0
  0
LINE
  8
CLEANED
 10
922.0
 20
265.0
 30
0.0
 11
919.0
 21
290.0
 31
0.0
  0
LINE
  8
CLEANED
 10
919.8203
 20
290.0799
 30
0.0
 11
919.8203
 21
349.1561
 31
0.0
  0
LINE
  8
CLEANED
 10
918.1832
 20
351.4979
 30
0.0
 11
1000.1832
 21
361.4979
 31
0.0
  0
LINE
  8
CLEANED
 10
458.7553
 20
594.4281
 30
0.0
 11
448.2893
 21
637.3389
 31
0.0
  0
LINE
  8
CLEANED
 10
466.0
 20
594.0
 30
0.0
 11
453.0
 21
639.0
 31
0.0
  0
LINE
  8
CLEANED
 10
576.4441
 20
634.6089
 30
0.0
 11
571.155
 21
596.1352
 31
0.0
  0
LINE
  8
CLEANED
 10
571.155
 20
596.1352
 30
0.0
 11
598.0
 21
587.0
 31
0.0
  0
LINE
  8
CLEANED
 10
606.1938
 20
587.5727
 30
0.0
 11
620.0394
 21
628.0772
 31
0.0
  0
LINE
  8
CLEANED
 10
263.0
 20
621.0
 30
0.0
 11
243.0
 21
638.0
 31
0.0
  0
LINE
  8
CLEANED
 10
403.3606
 20
624.7513
 30
0.0
 11
422.6153
 21
575.2393
 31
0.0
  0
LINE
  8
CLEANED
 10
426.0
 20
586.0
 30
0.0
 11
448.0
 21
589.0
 31
0.0
  0
LINE
  8
CLEANED
 10
198.2013
 20
569.9431
 30
0.0
 11
235.7899
 21
577.1028
 31
0.0
  0
LINE
  8
CLEANED
 10
246.0
 20
581.0
 30
0.0
 11
263.0
 21
587.0
 31
0.0
  0
LINE
  8
CLEANED
 10
316.721
 20
601.1717
 30
0.0
 11
339.3433
 21
606.5579
 31
0.0
  0
LINE
  8
CLEANED
 10
343.9886
 20
584.9934
 30
0.0
 11
333.0114
 21
604.0066
 31
0.0
  0
LINE
  8
CLEANED
 10
347.9991
 20
565.1288
 30
0.0
 11
367.3259
 21
565.1288
 31
0.0
  0
LINE
  8
CLEANED
 10
366.0
 20
573.0
 30
0.0
 11
380.8099
 21
555.4793
 31
0.0
  0
LINE
  8
CLEANED
 10
356.0
 20
611.0
 30
0.0
 11
367.0
 21
597.0
 31
0.0
  0
LINE
  8
CLEANED
 10
369.0
 20
595.0
 30
0.0
 11
375.0
 21
581.0
 31
0.0
  0
LINE
  8
CLEANED
 10
395.0
 20
574.0
 30
0.0
 11
411.0
 21
581.0
 31
0.0
  0
LINE
  8
CLEANED
 10
411.4914
 20
584.3534
 30
0.0
 11
394.7543
 21
621.3233
 31
0.0
  0
LINE
  8
CLEANED
 10
394.7543
 20
621.3233
 30
0.0
 11
357.0
 21
613.0
 31
0.0
  0
LINE
  8
CLEANED
 10
770.8903
 20
617.1839
 30
0.0
 11
784.1097
 21
624.8161
 31
0.0
  0
LINE
  8
CLEANED
 10
771.0
 20
617.0
 30
0.0
 11
786.0
 21
612.0
 31
0.0
  0
LINE
  8
CLEANED
 10
785.9254
 20
612.1268
 30
0.0
 11
801.0746
 21
620.8732
 31
0.0
  0
LINE
  8
CLEANED
 10
137.122
 20
594.9024
 30
0.0
 11
100.0854
 21
624.7317
 31
0.0
  0
LINE
  8
CLEANED
 10
540.0
 20
578.0
 30
0.0
 11
564.0
 21
574.0
 31
0.0
  0
LINE
  8
CLEANED
 10
548.812
 20
572.2703
 30
0.0
 11
786.6131
 21
511.4979
 31
0.0
  0
LINE
  8
CLEANED
 10
677.0
 20
556.0
 30
0.0
 11
678.9584
 21
556.0
 31
0.0
  0
LINE
  8
CLEANED
 10
677.0
 20
560.0
 30
0.0
 11
660.0
 21
564.0
 31
0.0
  0
LINE
  8
CLEANED
 10
648.8212
 20
566.0638
 30
0.0
 11
619.0
 21
573.0
 31
0.0
  0
LINE
  8
CLEANED
 10
599.6865
 20
577.9811
 30
0.0
 11
520.6157
 21
602.2417
 31
0.0
  0
LINE
  8
CLEANED
 10
503.9529
 20
597.6583
 30
0.0
 11
425.0388
 21
574.8696
 31
0.0
  0
LINE
  8
CLEANED
 10
416.6765
 20
574.2941
 30
0.0
 11
380.6765
 21
565.2941
 31
0.0
  0
LINE
  8
CLEANED
 10
389.7979
 20
543.8277
 30
0.0
 11
367.325
 21
565.2575
 31
0.0
  0
LINE
  8
CLEANED
 10
369.0
 20
551.0
 30
0.0
 11
349.0
 21
554.0
 31
0.0
  0
LINE
  8
CLEANED
 10
349.0
 20
554.0
 30
0.0
 11
329.0
 21
549.0
 31
0.0
  0
LINE
  8
CLEANED
 10
285.1267
 20
514.5713
 30
0.0
 11
497.6159
 21
577.9163
 31
0.0
  0
LINE
  8
CLEANED
 10
497.0
 20
580.0
 30
0.0
 11
503.9529
 21
597.6583
 31
0.0
  0
LINE
  8
CLEANED
 10
729.4752
 20
584.7525
 30
0.0
 11
739.6337
 21
572.3366
 31
0.0
  0
LINE
  8
CLEANED
 10
724.0278
 20
567.8443
 30
0.0
 11
771.9289
 21
576.398
 31
0.0
  0
LINE
  8
CLEANED
 10
797.8146
 20
582.326
 30
0.0
 11
742.1726
 21
597.6275
 31
0.0
  0
LINE
  8
CLEANED
 10
282.2707
 20
590.0796
 30
0.0
 11
227.6975
 21
574.0287
 31
0.0
  0
LINE
  8
CLEANED
 10
288.9944
 20
563.1245
 30
0.0
 11
298.619
 21
576.7546
 31
0.0
  0
LINE
  8
CLEANED
 10
786.7968
 20
579.3452
 30
0.0
 11
814.8682
 21
579.3452
 31
0.0
  0
LINE
  8
CLEANED
 10
523.0
 20
572.0
 30
0.0
 11
526.0
 21
554.0
 31
0.0
  0
LINE
  8
CLEANED
 10
531.0
 20
555.0
 30
0.0
 11
555.0
 21
546.5
 31
0.0
  0
LINE
  8
CLEANED
 10
548.812
 20
572.2703
 30
0.0
 11
533.0
 21
577.0
 31
0.0
  0
LINE
  8
CLEANED
 10
787.0
 20
576.0
 30
0.0
 11
770.0
 21
557.0
 31
0.0
  0
LINE
  8
CLEANED
 10
764.0
 20
547.0
 30
0.0
 11
788.0
 21
538.0
 31
0.0
  0
LINE
  8
CLEANED
 10
788.0
 20
538.0
 30
0.0
 11
770.0
 21
540.0
 31
0.0
  0
LINE
  8
CLEANED
 10
776.0
 20
534.5
 30
0.0
 11
791.0
 21
532.0
 31
0.0
  0
LINE
  8
CLEANED
 10
820.1415
 20
540.7547
 30
0.0
 11
844.7755
 21
563.3358
 31
0.0
  0
LINE
  8
CLEANED
 10
810.0509
 20
534.9106
 30
0.0
 11
825.9491
 21
544.0894
 31
0.0
  0
LINE
  8
CLEANED
 10
798.0
 20
528.0
 30
0.0
 11
776.0
 21
534.5
 31
0.0
  0
LINE
  8
CLEANED
 10
779.0
 20
526.0
 30
0.0
 11
765.0
 21
539.0
 31
0.0
  0
LINE
  8
CLEANED
 10
739.0
 20
541.0
 30
0.0
 11
765.0
 21
541.0
 31
0.0
  0
LINE
  8
CLEANED
 10
789.3299
 20
376.9627
 30
0.0
 11
789.3299
 21
513.0311
 31
0.0
  0
LINE
  8
CLEANED
 10
794.1428
 20
224.8919
 30
0.0
 11
794.1428
 21
442.9831
 31
0.0
  0
LINE
  8
CLEANED
 10
814.3734
 20
229.9288
 30
0.0
 11
814.3734
 21
515.1162
 31
0.0
  0
LINE
  8
CLEANED
 10
809.0
 20
380.0
 30
0.0
 11
812.0
 21
398.0
 31
0.0
  0
LINE
  8
CLEANED
 10
807.1369
 20
482.9651
 30
0.0
 11
807.1369
 21
515.0089
 31
0.0
  0
LINE
  8
CLEANED
 10
822.0
 20
527.0
 30
0.0
 11
835.3676
 21
539.4061
 31
0.0
  0
LINE
  8
CLEANED
 10
835.3525
 20
539.4322
 30
0.0
 11
856.7503
 21
551.7862
 31
0.0
  0
LINE
  8
CLEANED
 10
503.0
 20
575.0
 30
0.0
 11
487.0
 21
573.0
 31
0.0
  0
LINE
  8
CLEANED
 10
479.4358
 20
545.6307
 30
0.0
 11
472.8716
 21
565.2615
 31
0.0
  0
LINE
  8
CLEANED
 10
479.4358
 20
545.6307
 30
0.0
 11
500.0
 21
550.0
 31
0.0
  0
LINE
  8
CLEANED
 10
505.0
 20
555.0
 30
0.0
 11
503.0
 21
571.0
 31
0.0
  0
LINE
  8
CLEANED
 10
292.0
 20
565.0
 30
0.0
 11
307.0
 21
562.0
 31
0.0
  0
LINE
  8
CLEANED
 10
766.0
 20
573.0
 30
0.0
 11
746.0
 21
568.0
 31
0.0
  0
LINE
  8
CLEANED
 10
748.5559
 20
548.5235
 30
0.0
 11
767.4029
 21
570.5118
 31
0.0
  0
LINE
  8
CLEANED
 10
216.4044
 20
569.3824
 30
0.0
 11
189.2206
 21
563.1176
 31
0.0
  0
LINE
  8
CLEANED
 10
196.0
 20
563.0
 30
0.0
 11
235.0
 21
533.0
 31
0.0
  0
LINE
  8
CLEANED
 10
271.5732
 20
544.3871
 30
0.0
 11
243.6609
 21
567.7471
 31
0.0
  0
LINE
  8
CLEANED
 10
216.3799
 20
568.5647
 30
0.0
 11
243.6854
 21
568.5647
 31
0.0
  0
LINE
  8
CLEANED
 10
192.0
 20
567.0
 30
0.0
 11
177.0
 21
565.0
 31
0.0
  0
LINE
  8
CLEANED
 10
225.3949
 20
514.1445
 30
0.0
 11
174.2039
 21
543.6997
 31
0.0
  0
LINE
  8
CLEANED
 10
216.3512
 20
514.413
 30
0.0
 11
236.3363
 21
506.2745
 31
0.0
  0
LINE
  8
CLEANED
 10
228.5946
 20
401.9904
 30
0.0
 11
231.0
 21
382.0
 31
0.0
  0
LINE
  8
CLEANED
 10
231.0
 20
382.0
 30
0.0
 11
229.0
 21
361.0
 31
0.0
  0
LINE
  8
CLEANED
 10
223.7544
 20
229.0263
 30
0.0
 11
223.7544
 21
473.9596
 31
0.0
  0
LINE
  8
CLEANED
 10
246.1547
 20
190.9927
 30
0.0
 11
246.1547
 21
348.9811
 31
0.0
  0
LINE
  8
CLEANED
 10
246.9658
 20
361.8551
 30
0.0
 11
242.8664
 21
329.0628
 31
0.0
  0
LINE
  8
CLEANED
 10
244.7353
 20
329.0398
 30
0.0
 11
244.7353
 21
481.0089
 31
0.0
  0
LINE
  8
CLEANED
 10
246.6043
 20
480.9859
 30
0.0
 11
249.0
 21
461.0
 31
0.0
  0
LINE
  8
CLEANED
 10
250.3532
 20
380.0178
 30
0.0
 11
250.3532
 21
505.9758
 31
0.0
  0
LINE
  8
CLEANED
 10
283.0
 20
536.0
 30
0.0
 11
260.0
 21
528.0
 31
0.0
  0
LINE
  8
CLEANED
 10
234.4528
 20
514.6535
 30
0.0
 11
226.5472
 21
528.3465
 31
0.0
  0
LINE
  8
CLEANED
 10
217.0
 20
530.0
 30
0.0
 11
184.0
 21
554.0
 31
0.0
  0
LINE
  8
CLEANED
 10
564.0
 20
566.5
 30
0.0
 11
555.0
 21
546.5
 31
0.0
  0
LINE
  8
CLEANED
 10
563.5
 20
546.9872
 30
0.0
 11
563.5
 21
566.5128
 31
0.0
  0
LINE
  8
CLEANED
 10
742.0
 20
567.0
 30
0.0
 11
724.0
 21
565.0
 31
0.0
  0
LINE
  8
CLEANED
 10
735.746
 20
547.5279
 30
0.0
 11
720.254
 21
556.4721
 31
0.0
  0
LINE
  8
CLEANED
 10
901.1642
 20
567.008
 30
0.0
 11
904.0
 21
550.0
 31
0.0
  0
LINE
  8
CLEANED
 10
903.2707
 20
483.965
 30
0.0
 11
903.2707
 21
567.0614
 31
0.0
  0
LINE
  8
CLEANED
 10
469.6667
 20
546.0
 30
0.0
 11
469.6667
 21
566.0
 31
0.0
  0
LINE
  8
CLEANED
 10
257.3622
 20
563.2452
 30
0.0
 11
272.3622
 21
549.2452
 31
0.0
  0
LINE
  8
CLEANED
 10
288.9944
 20
563.1245
 30
0.0
 11
276.5849
 21
548.5472
 31
0.0
  0
LINE
  8
CLEANED
 10
465.0
 20
565.0
 30
0.0
 11
431.0
 21
557.0
 31
0.0
  0
LINE
  8
CLEANED
 10
435.0
 20
553.0
 30
0.0
 11
458.0
 21
549.0
 31
0.0
  0
LINE
  8
CLEANED
 10
452.0
 20
541.0
 30
0.0
 11
467.0
 21
556.0
 31
0.0
  0
LINE
  8
CLEANED
 10
565.6667
 20
547.3333
 30
0.0
 11
598.6078
 21
555.5686
 31
0.0
  0
LINE
  8
CLEANED
 10
840.0
 20
565.0
 30
0.0
 11
809.0
 21
538.0
 31
0.0
  0
LINE
  8
CLEANED
 10
517.0144
 20
540.9211
 30
0.0
 11
517.0144
 21
562.9438
 31
0.0
  0
LINE
  8
CLEANED
 10
511.0
 20
549.0
 30
0.0
 11
492.0
 21
543.0
 31
0.0
  0
LINE
  8
CLEANED
 10
470.0
 20
537.0
 30
0.0
 11
441.0
 21
528.0
 31
0.0
  0
LINE
  8
CLEANED
 10
430.0
 20
525.0
 30
0.0
 11
415.0
 21
523.0
 31
0.0
  0
LINE
  8
CLEANED
 10
400.0
 20
517.0
 30
0.0
 11
386.0
 21
511.0
 31
0.0
  0
LINE
  8
CLEANED
 10
386.0
 20
511.0
 30
0.0
 11
401.0
 21
508.0
 31
0.0
  0
LINE
  8
CLEANED
 10
374.9616
 20
509.0
 30
0.0
 11
401.0384
 21
509.0
 31
0.0
  0
LINE
  8
CLEANED
 10
373.0
 20
506.0
 30
0.0
 11
358.0
 21
501.0
 31
0.0
  0
LINE
  8
CLEANED
 10
411.8769
 20
502.5154
 30
0.0
 11
368.2523
 21
487.1185
 31
0.0
  0
LINE
  8
CLEANED
 10
411.0
 20
505.0
 30
0.0
 11
427.0
 21
505.0
 31
0.0
  0
LINE
  8
CLEANED
 10
427.3324
 20
504.3618
 30
0.0
 11
441.6676
 21
512.6382
 31
0.0
  0
LINE
  8
CLEANED
 10
481.0
 20
526.0
 30
0.0
 11
505.0
 21
531.0
 31
0.0
  0
LINE
  8
CLEANED
 10
513.0
 20
538.0
 30
0.0
 11
515.0
 21
558.0
 31
0.0
  0
LINE
  8
CLEANED
 10
196.0
 20
547.0
 30
0.0
 11
211.0
 21
542.0
 31
0.0
  0
LINE
  8
CLEANED
 10
602.0
 20
556.0
 30
0.0
 11
597.0
 21
541.0
 31
0.0
  0
LINE
  8
CLEANED
 10
577.79
 20
548.72
 30
0.0
 11
593.15
 21
537.2
 31
0.0
  0
LINE
  8
CLEANED
 10
572.0
 20
541.0
 30
0.0
 11
589.0
 21
536.0
 31
0.0
  0
LINE
  8
CLEANED
 10
625.9052
 20
521.6315
 30
0.0
 11
560.1395
 21
538.5427
 31
0.0
  0
LINE
  8
CLEANED
 10
542.7777
 20
543.5869
 30
0.0
 11
529.2223
 21
551.4131
 31
0.0
  0
LINE
  8
CLEANED
 10
706.5258
 20
482.9772
 30
0.0
 11
529.4847
 21
530.0626
 31
0.0
  0
LINE
  8
CLEANED
 10
608.0
 20
509.0
 30
0.0
 11
627.0
 21
507.0
 31
0.0
  0
LINE
  8
CLEANED
 10
679.0
 20
506.0
 30
0.0
 11
664.0
 21
511.0
 31
0.0
  0
LINE
  8
CLEANED
 10
669.6175
 20
514.4275
 30
0.0
 11
636.1375
 21
510.0375
 31
0.0
  0
LINE
  8
CLEANED
 10
636.1375
 20
510.0375
 30
0.0
 11
651.0
 21
514.0
 31
0.0
  0
LINE
  8
CLEANED
 10
637.5
 20
523.0
 30
0.0
 11
669.6175
 21
514.4275
 31
0.0
  0
LINE
  8
CLEANED
 10
630.0
 20
526.0
 30
0.0
 11
640.0
 21
550.0
 31
0.0
  0
LINE
  8
CLEANED
 10
640.0
 20
550.0
 30
0.0
 11
609.0
 21
555.0
 31
0.0
  0
LINE
  8
CLEANED
 10
609.0
 20
555.0
 30
0.0
 11
605.0
 21
538.0
 31
0.0
  0
LINE
  8
CLEANED
 10
605.0
 20
538.0
 30
0.0
 11
605.0
 21
556.0
 31
0.0
  0
LINE
  8
CLEANED
 10
128.0109
 20
493.9833
 30
0.0
 11
128.0109
 21
555.016
 31
0.0
  0
LINE
  8
CLEANED
 10
400.3324
 20
544.3618
 30
0.0
 11
414.6676
 21
552.6382
 31
0.0
  0
LINE
  8
CLEANED
 10
433.0
 20
531.0
 30
0.0
 11
425.0
 21
550.0
 31
0.0
  0
LINE
  8
CLEANED
 10
866.0
 20
343.0
 30
0.0
 11
871.0
 21
299.0
 31
0.0
  0
LINE
  8
CLEANED
 10
871.0
 20
299.0
 30
0.0
 11
873.0
 21
316.0
 31
0.0
  0
LINE
  8
CLEANED
 10
442.0
 20
536.0
 30
0.0
 11
455.0
 21
546.0
 31
0.0
  0
LINE
  8
CLEANED
 10
643.0
 20
548.0
 30
0.0
 11
631.5588
 21
517.2353
 31
0.0
  0
LINE
  8
CLEANED
 10
638.5472
 20
524.6535
 30
0.0
 11
646.4528
 21
538.3465
 31
0.0
  0
LINE
  8
CLEANED
 10
679.0
 20
535.0
 30
0.0
 11
652.0
 21
547.0
 31
0.0
  0
LINE
  8
CLEANED
 10
847.0
 20
544.0
 30
0.0
 11
819.0
 21
519.0
 31
0.0
  0
LINE
  8
CLEANED
 10
816.0
 20
391.0
 30
0.0
 11
861.0
 21
404.0
 31
0.0
  0
LINE
  8
CLEANED
 10
356.0
 20
524.0
 30
0.0
 11
367.0
 21
513.0
 31
0.0
  0
LINE
  8
CLEANED
 10
400.2525
 20
525.1413
 30
0.0
 11
389.5454
 21
543.6864
 31
0.0
  0
LINE
  8
CLEANED
 10
172.0
 20
399.0
 30
0.0
 11
219.0
 21
387.0
 31
0.0
  0
LINE
  8
CLEANED
 10
227.0
 20
484.0
 30
0.0
 11
227.0
 21
508.0
 31
0.0
  0
LINE
  8
CLEANED
 10
218.8785
 20
447.9876
 30
0.0
 11
218.8785
 21
499.9978
 31
0.0
  0
LINE
  8
CLEANED
 10
219.2523
 20
499.9951
 30
0.0
 11
216.3512
 21
514.413
 31
0.0
  0
LINE
  8
CLEANED
 10
892.5166
 20
520.9822
 30
0.0
 11
892.5166
 21
536.0155
 31
0.0
  0
LINE
  8
CLEANED
 10
689.6483
 20
527.6088
 30
0.0
 11
713.3279
 21
508.3934
 31
0.0
  0
LINE
  8
CLEANED
 10
703.0
 20
518.0
 30
0.0
 11
722.0
 21
520.0
 31
0.0
  0
LINE
  8
CLEANED
 10
731.0
 20
526.0
 30
0.0
 11
713.0
 21
532.0
 31
0.0
  0
LINE
  8
CLEANED
 10
341.0
 20
528.0
 30
0.0
 11
316.0
 21
523.0
 31
0.0
  0
LINE
  8
CLEANED
 10
323.5345
 20
527.1638
 30
0.0
 11
305.431
 21
519.9224
 31
0.0
  0
LINE
  8
CLEANED
 10
325.0626
 20
504.8522
 30
0.0
 11
343.6146
 21
525.2594
 31
0.0
  0
LINE
  8
CLEANED
 10
527.0
 20
524.5
 30
0.0
 11
548.0
 21
524.5
 31
0.0
  0
LINE
  8
CLEANED
 10
689.6483
 20
527.6088
 30
0.0
 11
677.6635
 21
512.5577
 31
0.0
  0
LINE
  8
CLEANED
 10
684.0
 20
516.5
 30
0.0
 11
719.0
 21
516.5
 31
0.0
  0
LINE
  8
CLEANED
 10
737.9834
 20
520.5
 30
0.0
 11
753.0166
 21
520.5
 31
0.0
  0
LINE
  8
CLEANED
 10
495.0
 20
522.0
 30
0.0
 11
439.0
 21
507.0
 31
0.0
  0
LINE
  8
CLEANED
 10
434.3379
 20
239.961
 30
0.0
 11
434.3379
 21
508.0076
 31
0.0
  0
LINE
  8
CLEANED
 10
408.0234
 20
475.2137
 30
0.0
 11
599.9308
 21
475.2137
 31
0.0
  0
LINE
  8
CLEANED
 10
520.0
 20
479.0
 30
0.0
 11
520.0
 21
496.0
 31
0.0
  0
LINE
  8
CLEANED
 10
520.0
 20
496.0
 30
0.0
 11
523.0
 21
478.0
 31
0.0
  0
LINE
  8
CLEANED
 10
677.6635
 20
512.5577
 30
0.0
 11
704.0
 21
506.0
 31
0.0
  0
LINE
  8
CLEANED
 10
735.0
 20
519.0
 30
0.0
 11
714.0
 21
503.0
 31
0.0
  0
LINE
  8
CLEANED
 10
714.0
 20
503.0
 30
0.0
 11
741.0
 21
500.0
 31
0.0
  0
LINE
  8
CLEANED
 10
747.0
 20
496.0
 30
0.0
 11
768.0
 21
513.0
 31
0.0
  0
LINE
  8
CLEANED
 10
777.0
 20
505.0
 30
0.0
 11
752.0
 21
485.0
 31
0.0
  0
LINE
  8
CLEANED
 10
724.9821
 20
491.9689
 30
0.0
 11
711.0179
 21
500.0311
 31
0.0
  0
LINE
  8
CLEANED
 10
692.9861
 20
500.5
 30
0.0
 11
711.0139
 21
500.5
 31
0.0
  0
LINE
  8
CLEANED
 10
694.5661
 20
487.5247
 30
0.0
 11
725.5892
 21
477.734
 31
0.0
  0
LINE
  8
CLEANED
 10
677.9975
 20
477.7194
 30
0.0
 11
731.0211
 21
477.7194
 31
0.0
  0
LINE
  8
CLEANED
 10
738.9455
 20
485.9945
 30
0.0
 11
744.9455
 21
426.9945
 31
0.0
  0
LINE
  8
CLEANED
 10
743.9882
 20
336.079
 30
0.0
 11
743.9882
 21
337.0089
 31
0.0
  0
LINE
  8
CLEANED
 10
747.0
 20
239.9566
 30
0.0
 11
747.0
 21
263.0434
 31
0.0
  0
LINE
  8
CLEANED
 10
731.8952
 20
240.9403
 30
0.0
 11
761.2203
 21
240.9403
 31
0.0
  0
LINE
  8
CLEANED
 10
671.9849
 20
239.3835
 30
0.0
 11
761.1951
 21
239.3835
 31
0.0
  0
LINE
  8
CLEANED
 10
745.0
 20
238.0
 30
0.0
 11
771.0
 21
234.0
 31
0.0
  0
LINE
  8
CLEANED
 10
795.6374
 20
226.7705
 30
0.0
 11
761.1907
 21
240.0089
 31
0.0
  0
LINE
  8
CLEANED
 10
757.9631
 20
273.0943
 30
0.0
 11
760.0369
 21
295.9057
 31
0.0
  0
LINE
  8
CLEANED
 10
756.6933
 20
327.0322
 30
0.0
 11
759.0
 21
303.0
 31
0.0
  0
LINE
  8
CLEANED
 10
785.0306
 20
497.5897
 30
0.0
 11
757.777
 21
477.6736
 31
0.0
  0
LINE
  8
CLEANED
 10
271.1231
 20
506.7787
 30
0.0
 11
285.0036
 21
514.7926
 31
0.0
  0
LINE
  8
CLEANED
 10
271.0
 20
507.0
 30
0.0
 11
292.2353
 21
490.0588
 31
0.0
  0
LINE
  8
CLEANED
 10
817.6359
 20
425.9872
 30
0.0
 11
817.6359
 21
512.4987
 31
0.0
  0
LINE
  8
CLEANED
 10
815.0
 20
489.0
 30
0.0
 11
817.0906
 21
512.4953
 31
0.0
  0
LINE
  8
CLEANED
 10
608.5245
 20
239.9794
 30
0.0
 11
608.5245
 21
272.0086
 31
0.0
  0
LINE
  8
CLEANED
 10
608.9998
 20
478.7591
 30
0.0
 11
730.9941
 21
478.7591
 31
0.0
  0
LINE
  8
CLEANED
 10
429.0
 20
502.0
 30
0.0
 11
403.0
 21
497.0
 31
0.0
  0
LINE
  8
CLEANED
 10
428.0
 20
476.9566
 30
0.0
 11
428.0
 21
500.0434
 31
0.0
  0
LINE
  8
CLEANED
 10
429.0
 20
478.0
 30
0.0
 11
429.0
 21
500.0
 31
0.0
  0
LINE
  8
CLEANED
 10
763.125
 20
399.9978
 30
0.0
 11
763.125
 21
464.0022
 31
0.0
  0
LINE
  8
CLEANED
 10
762.75
 20
400.0
 30
0.0
 11
765.0
 21
376.0
 31
0.0
  0
LINE
  8
CLEANED
 10
765.0
 20
376.0
 30
0.0
 11
785.0
 21
381.0
 31
0.0
  0
LINE
  8
CLEANED
 10
252.0
 20
380.0
 30
0.0
 11
278.0
 21
372.0
 31
0.0
  0
LINE
  8
CLEANED
 10
278.9061
 20
278.881
 30
0.0
 11
278.9061
 21
472.0465
 31
0.0
  0
LINE
  8
CLEANED
 10
283.318
 20
472.7468
 30
0.0
 11
256.5181
 21
488.2197
 31
0.0
  0
LINE
  8
CLEANED
 10
725.5892
 20
477.734
 30
0.0
 11
737.4464
 21
462.1364
 31
0.0
  0
LINE
  8
CLEANED
 10
613.0
 20
474.8333
 30
0.0
 11
727.0
 21
474.8333
 31
0.0
  0
LINE
  8
CLEANED
 10
407.9869
 20
473.5
 30
0.0
 11
427.0131
 21
473.5
 31
0.0
  0
LINE
  8
CLEANED
 10
304.5472
 20
458.6535
 30
0.0
 11
312.4528
 21
472.3465
 31
0.0
  0
LINE
  8
CLEANED
 10
611.3733
 20
246.9697
 30
0.0
 11
611.3733
 21
471.9979
 31
0.0
  0
LINE
  8
CLEANED
 10
447.994
 20
373.3507
 30
0.0
 11
734.0011
 21
373.3507
 31
0.0
  0
LINE
  8
CLEANED
 10
733.9984
 20
374.2292
 30
0.0
 11
737.0
 21
389.0
 31
0.0
  0
LINE
  8
CLEANED
 10
737.4751
 20
247.99
 30
0.0
 11
737.4751
 21
460.9647
 31
0.0
  0
LINE
  8
CLEANED
 10
594.4659
 20
344.0095
 30
0.0
 11
594.4659
 21
463.9803
 31
0.0
  0
LINE
  8
CLEANED
 10
317.0
 20
469.0
 30
0.0
 11
306.4989
 21
456.9941
 31
0.0
  0
LINE
  8
CLEANED
 10
305.7725
 20
293.0319
 30
0.0
 11
305.7725
 21
456.9973
 31
0.0
  0
LINE
  8
CLEANED
 10
305.0
 20
370.25
 30
0.0
 11
493.0
 21
370.25
 31
0.0
  0
LINE
  8
CLEANED
 10
426.0
 20
373.0
 30
0.0
 11
429.0
 21
397.0
 31
0.0
  0
LINE
  8
CLEANED
 10
427.5
 20
396.9674
 30
0.0
 11
427.5
 21
466.0326
 31
0.0
  0
LINE
  8
CLEANED
 10
392.7376
 20
445.9994
 30
0.0
 11
392.7376
 21
467.0232
 31
0.0
  0
LINE
  8
CLEANED
 10
791.5156
 20
426.9834
 30
0.0
 11
791.5156
 21
443.0146
 31
0.0
  0
LINE
  8
CLEANED
 10
445.4216
 20
361.9985
 30
0.0
 11
445.4216
 21
440.0042
 31
0.0
  0
LINE
  8
CLEANED
 10
166.0
 20
435.0
 30
0.0
 11
163.0
 21
419.0
 31
0.0
  0
LINE
  8
CLEANED
 10
247.5133
 20
404.9895
 30
0.0
 11
247.5133
 21
430.0095
 31
0.0
  0
LINE
  8
CLEANED
 10
138.3592
 20
396.0165
 30
0.0
 11
138.3592
 21
423.5069
 31
0.0
  0
LINE
  8
CLEANED
 10
792.5
 20
399.9844
 30
0.0
 11
792.5
 21
416.0156
 31
0.0
  0
LINE
  8
CLEANED
 10
899.5
 20
392.0
 30
0.0
 11
899.5
 21
409.0
 31
0.0
  0
LINE
  8
CLEANED
 10
862.0
 20
389.0
 30
0.0
 11
825.0
 21
381.0
 31
0.0
  0
LINE
  8
CLEANED
 10
821.7688
 20
279.9096
 30
0.0
 11
825.6011
 21
309.0469
 31
0.0
  0
LINE
  8
CLEANED
 10
825.15
 20
233.0
 30
0.0
 11
825.15
 21
339.0
 31
0.0
  0
LINE
  8
CLEANED
 10
844.0
 20
224.0
 30
0.0
 11
869.9229
 21
218.0493
 31
0.0
  0
LINE
  8
CLEANED
 10
829.0456
 20
273.468
 30
0.0
 11
865.2806
 21
273.468
 31
0.0
  0
LINE
  8
CLEANED
 10
829.1087
 20
274.9787
 30
0.0
 11
825.6011
 21
309.0469
 31
0.0
  0
LINE
  8
CLEANED
 10
825.1
 20
339.0
 30
0.0
 11
864.0
 21
345.0
 31
0.0
  0
LINE
  8
CLEANED
 10
169.8361
 20
341.1967
 30
0.0
 11
213.8361
 21
337.1967
 31
0.0
  0
LINE
  8
CLEANED
 10
216.0672
 20
228.9725
 30
0.0
 11
216.0672
 21
339.03
 31
0.0
  0
LINE
  8
CLEANED
 10
213.3158
 20
228.0614
 30
0.0
 11
213.3158
 21
289.9659
 31
0.0
  0
LINE
  8
CLEANED
 10
211.8886
 20
273.5292
 30
0.0
 11
177.1645
 21
266.2188
 31
0.0
  0
LINE
  8
CLEANED
 10
168.0
 20
216.0
 30
0.0
 11
197.0
 21
225.0
 31
0.0
  0
LINE
  8
CLEANED
 10
199.5033
 20
224.9296
 30
0.0
 11
199.5033
 21
256.9452
 31
0.0
  0
LINE
  8
CLEANED
 10
217.4035
 20
228.9887
 30
0.0
 11
220.0
 21
248.0
 31
0.0
  0
LINE
  8
CLEANED
 10
221.0
 20
346.0
 30
0.0
 11
224.0
 21
373.0
 31
0.0
  0
LINE
  8
CLEANED
 10
224.0
 20
373.0
 30
0.0
 11
177.0
 21
385.0
 31
0.0
  0
LINE
  8
CLEANED
 10
298.2336
 20
362.0697
 30
0.0
 11
300.3156
 21
384.9713
 31
0.0
  0
LINE
  8
CLEANED
 10
246.5
 20
363.9869
 30
0.0
 11
246.5
 21
383.0131
 31
0.0
  0
LINE
  8
CLEANED
 10
788.0
 20
370.0
 30
0.0
 11
764.2557
 21
365.0129
 31
0.0
  0
LINE
  8
CLEANED
 10
767.367
 20
247.094
 30
0.0
 11
767.367
 21
365.095
 31
0.0
  0
LINE
  8
CLEANED
 10
576.0
 20
368.75
 30
0.0
 11
597.0
 21
368.75
 31
0.0
  0
LINE
  8
CLEANED
 10
611.0
 20
368.75
 30
0.0
 11
659.0
 21
368.75
 31
0.0
  0
LINE
  8
CLEANED
 10
438.0
 20
368.0
 30
0.0
 11
494.0
 21
368.0
 31
0.0
  0
LINE
  8
CLEANED
 10
251.5
 20
334.9922
 30
0.0
 11
251.5
 21
367.0078
 31
0.0
  0
LINE
  8
CLEANED
 10
251.0
 20
335.0
 30
0.0
 11
275.0
 21
332.0
 31
0.0
  0
LINE
  8
CLEANED
 10
274.9759
 20
278.961
 30
0.0
 11
248.75
 21
276.5
 31
0.0
  0
LINE
  8
CLEANED
 10
248.625
 20
235.9996
 30
0.0
 11
248.625
 21
276.5004
 31
0.0
  0
LINE
  8
CLEANED
 10
265.5499
 20
242.9432
 30
0.0
 11
265.5499
 21
268.0618
 31
0.0
  0
LINE
  8
CLEANED
 10
272.0
 20
268.0
 30
0.0
 11
268.0
 21
244.0
 31
0.0
  0
LINE
  8
CLEANED
 10
276.0
 20
364.0
 30
0.0
 11
258.0
 21
367.0
 31
0.0
  0
LINE
  8
CLEANED
 10
435.4025
 20
245.9883
 30
0.0
 11
435.4025
 21
361.0244
 31
0.0
  0
LINE
  8
CLEANED
 10
437.2179
 20
246.2102
 30
0.0
 11
437.2179
 21
343.9948
 31
0.0
  0
LINE
  8
CLEANED
 10
438.4807
 20
246.7683
 30
0.0
 11
740.0052
 21
246.7683
 31
0.0
  0
LINE
  8
CLEANED
 10
307.0
 20
262.9667
 30
0.0
 11
307.0
 21
293.0333
 31
0.0
  0
LINE
  8
CLEANED
 10
305.5
 20
262.9881
 30
0.0
 11
305.5
 21
284.0119
 31
0.0
  0
LINE
  8
CLEANED
 10
425.4113
 20
236.9814
 30
0.0
 11
425.4113
 21
361.0115
 31
0.0
  0
LINE
  8
CLEANED
 10
32.3074
 20
344.8811
 30
0.0
 11
30.6025
 21
326.127
 31
0.0
  0
LINE
  8
CLEANED
 10
933.9125
 20
340.4455
 30
0.0
 11
1001.0943
 21
340.4455
 31
0.0
  0
LINE
  8
CLEANED
 10
969.0
 20
293.0
 30
0.0
 11
969.0
 21
341.0
 31
0.0
  0
LINE
  8
CLEANED
 10
968.1535
 20
277.2153
 30
0.0
 11
962.1535
 21
337.2153
 31
0.0
  0
LINE
  8
CLEANED
 10
972.9924
 20
275.5
 30
0.0
 11
1006.0076
 21
275.5
 31
0.0
  0
LINE
  8
CLEANED
 10
831.9667
 20
341.0
 30
0.0
 11
862.0333
 21
341.0
 31
0.0
  0
LINE
  8
CLEANED
 10
826.9919
 20
335.5
 30
0.0
 11
858.0081
 21
335.5
 31
0.0
  0
LINE
  8
CLEANED
 10
925.4364
 20
342.0237
 30
0.0
 11
920.8367
 21
313.0233
 31
0.0
  0
LINE
  8
CLEANED
 10
923.0
 20
328.0
 30
0.0
 11
928.4726
 21
280.0232
 31
0.0
  0
LINE
  8
CLEANED
 10
926.9545
 20
279.9861
 30
0.0
 11
926.9545
 21
342.0609
 31
0.0
  0
LINE
  8
CLEANED
 10
934.9927
 20
288.9794
 30
0.0
 11
934.9927
 21
338.2541
 31
0.0
  0
LINE
  8
CLEANED
 10
191.0
 20
333.0
 30
0.0
 11
213.0
 21
333.0
 31
0.0
  0
LINE
  8
CLEANED
 10
33.0
 20
337.0
 30
0.0
 11
50.0
 21
337.0
 31
0.0
  0
LINE
  8
CLEANED
 10
29.0932
 20
270.9455
 30
0.0
 11
29.0932
 21
321.0807
 31
0.0
  0
LINE
  8
CLEANED
 10
31.0
 20
271.0
 30
0.0
 11
60.0
 21
274.0
 31
0.0
  0
LINE
  8
CLEANED
 10
60.5
 20
282.0241
 30
0.0
 11
60.5
 21
319.9759
 31
0.0
  0
LINE
  8
CLEANED
 10
64.0
 20
318.0
 30
0.0
 11
61.0
 21
336.0
 31
0.0
  0
LINE
  8
CLEANED
 10
103.9909
 20
332.9177
 30
0.0
 11
75.0152
 21
336.1372
 31
0.0
  0
LINE
  8
CLEANED
 10
70.5058
 20
287.041
 30
0.0
 11
70.5058
 21
332.9588
 31
0.0
  0
LINE
  8
CLEANED
 10
80.0
 20
294.6667
 30
0.0
 11
99.0
 21
294.6667
 31
0.0
  0
LINE
  8
CLEANED
 10
102.3735
 20
295.8156
 30
0.0
 11
102.3735
 21
322.8877
 31
0.0
  0
LINE
  8
CLEANED
 10
476.5209
 20
331.8836
 30
0.0
 11
566.7485
 21
331.8836
 31
0.0
  0
LINE
  8
CLEANED
 10
567.7399
 20
284.7746
 30
0.0
 11
567.7399
 21
332.1237
 31
0.0
  0
LINE
  8
CLEANED
 10
478.9974
 20
283.8167
 30
0.0
 11
568.7424
 21
283.8167
 31
0.0
  0
LINE
  8
CLEANED
 10
477.7648
 20
282.8063
 30
0.0
 11
477.7648
 21
331.696
 31
0.0
  0
LINE
  8
CLEANED
 10
251.0
 20
330.0
 30
0.0
 11
271.0
 21
326.0
 31
0.0
  0
LINE
  8
CLEANED
 10
481.956
 20
326.1947
 30
0.0
 11
519.0837
 21
326.1947
 31
0.0
  0
LINE
  8
CLEANED
 10
839.0
 20
284.9715
 30
0.0
 11
839.0
 21
320.0285
 31
0.0
  0
LINE
  8
CLEANED
 10
852.0
 20
282.0
 30
0.0
 11
854.0
 21
297.0
 31
0.0
  0
LINE
  8
CLEANED
 10
842.0
 20
302.0
 30
0.0
 11
842.0
 21
319.0
 31
0.0
  0
LINE
  8
CLEANED
 10
855.3471
 20
283.7861
 30
0.0
 11
855.3471
 21
329.1904
 31
0.0
  0
LINE
  8
CLEANED
 10
859.0
 20
302.0
 30
0.0
 11
859.0
 21
330.0
 31
0.0
  0
LINE
  8
CLEANED
 10
175.7301
 20
281.9245
 30
0.0
 11
180.3572
 21
326.6527
 31
0.0
  0
LINE
  8
CLEANED
 10
559.3289
 20
290.6895
 30
0.0
 11
559.3289
 21
324.0
 31
0.0
  0
LINE
  8
CLEANED
 10
561.0
 20
313.0
 30
0.0
 11
564.0
 21
289.0
 31
0.0
  0
LINE
  8
CLEANED
 10
187.5135
 20
281.9989
 30
0.0
 11
187.5135
 21
326.9564
 31
0.0
  0
LINE
  8
CLEANED
 10
197.0
 20
300.0
 30
0.0
 11
197.0
 21
327.0
 31
0.0
  0
LINE
  8
CLEANED
 10
781.6287
 20
288.9297
 30
0.0
 11
781.6287
 21
326.0893
 31
0.0
  0
LINE
  8
CLEANED
 10
783.9987
 20
288.9303
 30
0.0
 11
783.9987
 21
324.1092
 31
0.0
  0
LINE
  8
CLEANED
 10
42.0
 20
324.0
 30
0.0
 11
59.0
 21
322.0
 31
0.0
  0
LINE
  8
CLEANED
 10
524.0
 20
324.0
 30
0.0
 11
559.3333
 21
324.0
 31
0.0
  0
LINE
  8
CLEANED
 10
524.0
 20
292.0
 30
0.0
 11
524.0
 21
324.0
 31
0.0
  0
LINE
  8
CLEANED
 10
513.0144
 20
291.1909
 30
0.0
 11
559.3299
 21
291.1909
 31
0.0
  0
LINE
  8
CLEANED
 10
484.0
 20
295.0
 30
0.0
 11
484.0
 21
324.0
 31
0.0
  0
LINE
  8
CLEANED
 10
518.5081
 20
290.9919
 30
0.0
 11
518.5081
 21
323.0075
 31
0.0
  0
LINE
  8
CLEANED
 10
779.5869
 20
293.7956
 30
0.0
 11
779.5869
 21
326.0718
 31
0.0
  0
LINE
  8
CLEANED
 10
256.0
 20
322.0
 30
0.0
 11
258.0
 21
303.0
 31
0.0
  0
LINE
  8
CLEANED
 10
262.5
 20
301.9869
 30
0.0
 11
262.5
 21
321.0131
 31
0.0
  0
LINE
  8
CLEANED
 10
39.1558
 20
294.9242
 30
0.0
 11
39.1558
 21
321.0633
 31
0.0
  0
LINE
  8
CLEANED
 10
833.0
 20
285.0
 30
0.0
 11
833.0
 21
320.0
 31
0.0
  0
LINE
  8
CLEANED
 10
810.0831
 20
264.9884
 30
0.0
 11
810.0831
 21
316.0208
 31
0.0
  0
LINE
  8
CLEANED
 10
1016.0
 20
296.0
 30
0.0
 11
1016.0
 21
311.0
 31
0.0
  0
LINE
  8
CLEANED
 10
477.3538
 20
284.0808
 30
0.0
 11
479.7077
 21
302.9115
 31
0.0
  0
LINE
  8
CLEANED
 10
251.5
 20
285.9834
 30
0.0
 11
251.5
 21
301.0166
 31
0.0
  0
LINE
  8
CLEANED
 10
533.0654
 20
285.5231
 30
0.0
 11
548.9423
 21
283.5385
 31
0.0
  0
LINE
  8
CLEANED
 10
795.5064
 20
247.9934
 30
0.0
 11
795.5064
 21
287.0062
 31
0.0
  0
LINE
  8
CLEANED
 10
776.0
 20
245.0
 30
0.0
 11
772.0
 21
270.0
 31
0.0
  0
LINE
  8
CLEANED
 10
780.0
 20
241.9656
 30
0.0
 11
780.0
 21
271.0344
 31
0.0
  0
LINE
  8
CLEANED
 10
792.1585
 20
279.4268
 30
0.0
 11
774.1585
 21
281.4268
 31
0.0
  0
LINE
  8
CLEANED
 10
249.4136
 20
279.8288
 30
0.0
 11
271.6083
 21
284.0563
 31
0.0
  0
LINE
  8
CLEANED
 10
872.8697
 20
199.9613
 30
0.0
 11
872.8697
 21
284.9848
 31
0.0
  0
LINE
  8
CLEANED
 10
72.0
 20
280.0
 30
0.0
 11
88.0
 21
280.0
 31
0.0
  0
LINE
  8
CLEANED
 10
71.0
 20
275.0
 30
0.0
 11
89.0
 21
275.0
 31
0.0
  0
LINE
  8
CLEANED
 10
200.0
 20
280.0
 30
0.0
 11
184.0
 21
278.0
 31
0.0
  0
LINE
  8
CLEANED
 10
179.99
 20
272.5
 30
0.0
 11
205.01
 21
272.5
 31
0.0
  0
LINE
  8
CLEANED
 10
968.0
 20
267.5
 30
0.0
 11
984.0
 21
267.5
 31
0.0
  0
LINE
  8
CLEANED
 10
837.0
 20
251.0
 30
0.0
 11
840.0
 21
232.0
 31
0.0
  0
LINE
  8
CLEANED
 10
778.5
 20
248.0
 30
0.0
 11
778.5
 21
264.0
 31
0.0
  0
LINE
  8
CLEANED
 10
628.0
 20
242.0
 30
0.0
 11
663.0
 21
242.0
 31
0.0
  0
LINE
  8
CLEANED
 10
617.9332
 20
239.3317
 30
0.0
 11
636.052
 21
237.5198
 31
0.0
  0
LINE
  8
CLEANED
 10
624.9771
 20
236.3404
 30
0.0
 11
744.0149
 21
236.3404
 31
0.0
  0
LINE
  8
CLEANED
 10
463.9978
 20
240.5387
 30
0.0
 11
518.9996
 21
240.5387
 31
0.0
  0
LINE
  8
CLEANED
 10
540.5
 20
241.0
 30
0.0
 11
516.0
 21
238.0
 31
0.0
  0
LINE
  8
CLEANED
 10
515.9999
 20
237.9167
 30
0.0
 11
592.0636
 21
237.9167
 31
0.0
  0
LINE
  8
CLEANED
 10
575.055
 20
239.385
 30
0.0
 11
558.9775
 21
241.8425
 31
0.0
  0
LINE
  8
CLEANED
 10
463.9697
 20
237.0
 30
0.0
 11
497.0303
 21
237.0
 31
0.0
  0
LINE
  8
CLEANED
 10
571.127
 20
235.6669
 30
0.0
 11
592.0635
 21
237.8334
 31
0.0
  0
LINE
  8
CLEANED
 10
577.0
 20
235.0
 30
0.0
 11
592.0
 21
233.0
 31
0.0
  0
LINE
  8
CLEANED
 10
775.9844
 20
234.5
 30
0.0
 11
792.0156
 21
234.5
 31
0.0
  0
LINE
  8
CLEANED
 10
764.0
 20
232.0
 30
0.0
 11
791.0
 21
222.0
 31
0.0
  0
LINE
  8
CLEANED
 10
742.5928
 20
212.393
 30
0.0
 11
764.2401
 21
224.8911
 31
0.0
  0
LINE
  8
CLEANED
 10
414.5673
 20
227.1635
 30
0.0
 11
383.4135
 21
220.9327
 31
0.0
  0
LINE
  8
CLEANED
 10
274.1581
 20
220.9986
 30
0.0
 11
244.7385
 21
216.1561
 31
0.0
  0
LINE
  8
CLEANED
 10
271.4376
 20
145.992
 30
0.0
 11
271.4376
 21
184.0035
 31
0.0
  0
LINE
  8
CLEANED
 10
245.0
 20
111.0
 30
0.0
 11
242.0
 21
136.0
 31
0.0
  0
LINE
  8
CLEANED
 10
239.0
 20
139.0
 30
0.0
 11
242.0
 21
161.0
 31
0.0
  0
LINE
  8
CLEANED
 10
242.0
 20
161.0
 30
0.0
 11
242.0
 21
210.0
 31
0.0
  0
LINE
  8
CLEANED
 10
224.991
 20
216.578
 30
0.0
 11
244.7475
 21
216.578
 31
0.0
  0
LINE
  8
CLEANED
 10
225.0
 20
217.0
 30
0.0
 11
244.0
 21
219.0
 31
0.0
  0
LINE
  8
CLEANED
 10
459.9531
 20
225.1298
 30
0.0
 11
491.0005
 21
225.1298
 31
0.0
  0
LINE
  8
CLEANED
 10
411.1051
 20
217.4116
 30
0.0
 11
459.9536
 21
225.2596
 31
0.0
  0
LINE
  8
CLEANED
 10
414.99
 20
224.5
 30
0.0
 11
440.01
 21
224.5
 31
0.0
  0
LINE
  8
CLEANED
 10
384.9759
 20
218.2058
 30
0.0
 11
411.1292
 21
218.2058
 31
0.0
  0
LINE
  8
CLEANED
 10
934.0
 20
223.0
 30
0.0
 11
937.3333
 21
193.0
 31
0.0
  0
LINE
  8
CLEANED
 10
278.0
 20
208.0
 30
0.0
 11
278.0
 21
223.0
 31
0.0
  0
LINE
  8
CLEANED
 10
791.0
 20
219.0
 30
0.0
 11
776.0
 21
221.0
 31
0.0
  0
LINE
  8
CLEANED
 10
752.6535
 20
207.5472
 30
0.0
 11
766.3465
 21
215.4528
 31
0.0
  0
LINE
  8
CLEANED
 10
745.4922
 20
170.989
 30
0.0
 11
745.4922
 21
194.5103
 31
0.0
  0
LINE
  8
CLEANED
 10
743.0
 20
179.0
 30
0.0
 11
744.9948
 21
194.4998
 31
0.0
  0
LINE
  8
CLEANED
 10
847.9896
 20
187.5
 30
0.0
 11
872.0104
 21
187.5
 31
0.0
  0
LINE
  8
CLEANED
 10
814.0
 20
179.0
 30
0.0
 11
832.0
 21
171.0
 31
0.0
  0
LINE
  8
CLEANED
 10
832.4379
 20
170.7322
 30
0.0
 11
842.5621
 21
188.2678
 31
0.0
  0
LINE
  8
CLEANED
 10
871.978
 20
193.6604
 30
0.0
 11
876.0
 21
169.0
 31
0.0
  0
LINE
  8
CLEANED
 10
879.0
 20
171.0
 30
0.0
 11
877.0
 21
192.0
 31
0.0
  0
LINE
  8
CLEANED
 10
506.0
 20
191.0
 30
0.0
 11
522.0
 21
191.0
 31
0.0
  0
LINE
  8
CLEANED
 10
555.0
 20
191.0
 30
0.0
 11
534.0
 21
189.0
 31
0.0
  0
LINE
  8
CLEANED
 10
533.9601
 20
188.0
 30
0.0
 11
559.0399
 21
188.0
 31
0.0
  0
LINE
  8
CLEANED
 10
941.484
 20
184.9963
 30
0.0
 11
974.484
 21
176.9963
 31
0.0
  0
LINE
  8
CLEANED
 10
961.0
 20
180.0
 30
0.0
 11
947.0
 21
186.0
 31
0.0
  0
LINE
  8
CLEANED
 10
486.0482
 20
179.8954
 30
0.0
 11
541.9271
 21
179.8954
 31
0.0
  0
LINE
  8
CLEANED
 10
484.4562
 20
154.8329
 30
0.0
 11
510.179
 21
159.7745
 31
0.0
  0
LINE
  8
CLEANED
 10
525.8077
 20
156.0385
 30
0.0
 11
510.179
 21
159.7745
 31
0.0
  0
LINE
  8
CLEANED
 10
493.85
 20
161.05
 30
0.0
 11
520.31
 21
164.83
 31
0.0
  0
LINE
  8
CLEANED
 10
499.0
 20
165.0
 30
0.0
 11
517.0
 21
171.0
 31
0.0
  0
LINE
  8
CLEANED
 10
536.98
 20
157.14
 30
0.0
 11
521.02
 21
154.86
 31
0.0
  0
LINE
  8
CLEANED
 10
495.9371
 20
144.2176
 30
0.0
 11
559.9721
 21
144.2176
 31
0.0
  0
LINE
  8
CLEANED
 10
538.0
 20
146.0
 30
0.0
 11
561.0
 21
150.0
 31
0.0
  0
LINE
  8
CLEANED
 10
532.8383
 20
163.3173
 30
0.0
 11
557.0014
 21
163.3173
 31
0.0
  0
LINE
  8
CLEANED
 10
873.3465
 20
155.5472
 30
0.0
 11
859.6535
 21
163.4528
 31
0.0
  0
LINE
  8
CLEANED
 10
531.9834
 20
171.5
 30
0.0
 11
547.0166
 21
171.5
 31
0.0
  0
LINE
  8
CLEANED
 10
987.3942
 20
169.9712
 30
0.0
 11
1012.3942
 21
164.9712
 31
0.0
  0
LINE
  8
CLEANED
 10
1005.0
 20
169.0
 30
0.0
 11
990.0
 21
173.0
 31
0.0
  0
LINE
  8
CLEANED
 10
779.4706
 20
164.1176
 30
0.0
 11
783.5882
 21
147.6471
 31
0.0
  0
LINE
  8
CLEANED
 10
177.0005
 20
161.7604
 30
0.0
 11
200.0222
 21
161.7604
 31
0.0
  0
LINE
  8
CLEANED
 10
514.0
 20
154.0
 30
0.0
 11
497.0
 21
152.0
 31
0.0
  0
LINE
  8
CLEANED
 10
495.953
 20
143.2107
 30
0.0
 11
516.0962
 21
147.5192
 31
0.0
  0
LINE
  8
CLEANED
 10
485.0
 20
138.0
 30
0.0
 11
541.0
 21
138.0
 31
0.0
  0
LINE
  8
CLEANED
 10
949.0
 20
139.0
 30
0.0
 11
953.0
 21
115.0
 31
0.0
  0
LINE
  8
CLEANED
 10
935.3938
 20
124.6497
 30
0.0
 11
1003.326
 21
94.7261
 31
0.0
  0
LINE
  8
CLEANED
 10
1003.326
 20
94.7261
 30
0.0
 11
988.0
 21
133.0
 31
0.0
  0
LINE
  8
CLEANED
 10
988.0
 20
133.0
 30
0.0
 11
953.0
 21
147.0
 31
0.0
  0
LINE
  8
CLEANED
 10
849.0
 20
103.0
 30
0.0
 11
854.0
 21
87.0
 31
0.0
  0
LINE
  8
CLEANED
 10
865.5507
 20
83.7885
 30
0.0
 11
868.9426
 21
106.259
 31
0.0
  0
LINE
  8
CLEANED
 10
868.9426
 20
106.259
 30
0.0
 11
858.8363
 21
140.3238
 31
0.0
  0
LINE
  8
CLEANED
 10
544.0
 20
139.5
 30
0.0
 11
561.0
 21
139.5
 31
0.0
  0
LINE
  8
CLEANED
 10
193.5
 20
117.0
 30
0.0
 11
193.5
 21
137.0
 31
0.0
  0
LINE
  8
CLEANED
 10
171.0
 20
96.0
 30
0.0
 11
171.0
 21
132.0
 31
0.0
  0
LINE
  8
CLEANED
 10
74.8765
 20
112.5467
 30
0.0
 11
76.0014
 21
112.5467
 31
0.0
  0
LINE
  8
CLEANED
 10
55.0432
 20
111.8401
 30
0.0
 11
92.8781
 21
116.1582
 31
0.0
  0
LINE
  8
CLEANED
 10
102.6785
 20
111.6547
 30
0.0
 11
89.1707
 21
100.7866
 31
0.0
  0
LINE
  8
CLEANED
 10
100.0
 20
79.0
 30
0.0
 11
106.0
 21
65.0
 31
0.0
  0
LINE
  8
CLEANED
 10
60.0
 20
2.0
 30
0.0
 11
98.0
 21
2.0
 31
0.0
  0
LINE
  8
CLEANED
 10
45.0
 20
15.0
 30
0.0
 11
30.0
 21
9.0
 31
0.0
  0
LINE
  8
CLEANED
 10
7.0
 20
2.0
 30
0.0
 11
33.0
 21
2.0
 31
0.0
  0
LINE
  8
CLEANED
 10
16.5788
 20
80.7674
 30
0.0
 11
45.105
 21
88.5951
 31
0.0
  0
LINE
  8
CLEANED
 10
25.9742
 20
89.2976
 30
0.0
 11
45.1308
 21
89.2976
 31
0.0
  0
LINE
  8
CLEANED
 10
31.0
 20
96.0
 30
0.0
 11
53.0
 21
96.0
 31
0.0
  0
LINE
  8
CLEANED
 10
57.5
 20
76.9853
 30
0.0
 11
57.5
 21
94.0147
 31
0.0
  0
LINE
  8
CLEANED
 10
870.6993
 20
89.023
 30
0.0
 11
870.6993
 21
113.0438
 31
0.0
  0
LINE
  8
CLEANED
 10
879.0
 20
81.0
 30
0.0
 11
876.0
 21
113.0
 31
0.0
  0
LINE
  8
CLEANED
 10
19.0
 20
109.0
 30
0.0
 11
2.0
 21
106.0
 31
0.0
  0
LINE
  8
CLEANED
 10
85.0
 20
105.0
 30
0.0
 11
68.0
 21
101.0
 31
0.0
  0
LINE
  8
CLEANED
 10
67.9995
 20
100.8933
 30
0.0
 11
89.1713
 21
100.8933
 31
0.0
  0
LINE
  8
CLEANED
 10
209.2033
 20
87.8293
 30
0.0
 11
246.0407
 21
83.3659
 31
0.0
  0
LINE
  8
CLEANED
 10
229.9979
 20
83.1829
 30
0.0
 11
246.0427
 21
83.1829
 31
0.0
  0
LINE
  8
CLEANED
 10
95.0
 20
85.0
 30
0.0
 11
77.0
 21
83.0
 31
0.0
  0
LINE
  8
CLEANED
 10
61.5
 20
20.9834
 30
0.0
 11
61.5
 21
36.0166
 31
0.0
  0
LINE
  8
CLEANED
 10
88.0
 20
58.0
 30
0.0
 11
91.0
 21
82.0
 31
0.0
  0
LINE
  8
CLEANED
 10
18.9566
 20
77.0
 30
0.0
 11
42.0434
 21
77.0
 31
0.0
  0
LINE
  8
CLEANED
 10
278.0
 20
80.0
 30
0.0
 11
303.0
 21
80.0
 31
0.0
  0
LINE
  8
CLEANED
 10
288.0
 20
75.0
 30
0.0
 11
309.0
 21
75.0
 31
0.0
  0
LINE
  8
CLEANED
 10
109.974
 20
66.7527
 30
0.0
 11
128.974
 21
64.7527
 31
0.0
  0
LINE
  8
CLEANED
 10
25.484
 20
51.838
 30
0.0
 11
42.204
 21
54.878
 31
0.0
  0
LINE
  8
CLEANED
 10
33.1275
 20
54.4081
 30
0.0
 11
49.7539
 21
49.2123
 31
0.0
  0
LINE
  8
CLEANED
 10
24.0925
 20
26.7534
 30
0.0
 11
40.9692
 21
33.0822
 31
0.0
  0
LINE
  8
CLEANED
 10
45.5963
 20
28.413
 30
0.0
 11
31.7645
 21
36.3988
 31
0.0
  0
LINE
  8
CLEANED
 10
31.5979
 20
36.0954
 30
0.0
 11
48.0
 21
39.0
 31
0.0
  0
LINE
  8
CLEANED
 10
444.1025
 20
42.4931
 30
0.0
 11
461.1319
 21
42.4931
 31
0.0
  0
LINE
  8
CLEANED
 10
582.925
 20
26.725
 30
0.0
 11
566.0865
 21
31.3173
 31
0.0
  0
LINE
  8
CLEANED
 10
23.0
 20
17.5
 30
0.0
 11
38.0
 21
17.5
 31
0.0
  0
LINE
  8
CLEANED
 10
147.8824
 20
14.4706
 30
0.0
 11
129.0588
 21
9.7647
 31
0.0
  0
LINE
  8
CLEANED
 10
236.9844
 20
8.5
 30
0.0
 11
253.0156
 21
8.5
 31
0.0
  0
ENDSEC
  0
EOF
