  0
SECTION
  2
HEADER
  9
$ACADVER
  1
AC1015
  9
$INSUNITS
 70
0
  9
$EXTMIN
 10
-7.756131353052911
 20
-10.869144086165717
 30
0
  9
$EXTMAX
 10
97.41626864694709
 20
86.97565591383429
 30
0
  0
ENDSEC
  0
SECTION
  2
TABLES
  0
TABLE
  2
LTYPE
 70
7
  0
LTYPE
  2
CONTINUOUS
 70
0
  3
Solid line
 72
65
 73
0
 40
0
  0
LTYPE
  2
DASHED
 70
0
  3
Dashed line
 72
65
 73
2
 40
19.05
 49
12.7
 49
-6.35
  0
LTYPE
  2
HIDDEN
 70
0
  3
Hidden line
 72
65
 73
2
 40
9.525
 49
6.35
 49
-3.175
  0
LTYPE
  2
CENTER
 70
0
  3
Center line
 72
65
 73
4
 40
50.8
 49
31.75
 49
-6.35
 49
6.35
 49
-6.35
  0
LTYPE
  2
DASHDOT
 70
0
  3
Dash dot line
 72
65
 73
4
 40
25.4
 49
12.7
 49
-6.35
 49
0
 49
-6.35
  0
LTYPE
  2
PHANTOM
 70
0
  3
Phantom line
 72
65
 73
6
 40
63.5
 49
31.75
 49
-6.35
 49
6.35
 49
-6.35
 49
6.35
 49
-6.35
  0
LTYPE
  2
DOT
 70
0
  3
Dotted line
 72
65
 73
2
 40
6.35
 49
0
 49
-6.35
  0
ENDTAB
  0
TABLE
  2
LAYER
 70
0
  0
ENDTAB
  0
ENDSEC
  0
SECTION
  2
BLOCKS
  0
ENDSEC
  0
SECTION
  2
ENTITIES
  0
LINE
  8
CLEANED
 10
62.5025
 20
86.9757
 30
0.0
 11
62.5025
 21
84.3895
 31
0.0
  0
LINE
  8
CLEANED
 10
43.3214
 20
85.4671
 30
0.0
 11
57.5024
 21
77.0619
 31
0.0
  0
LINE
  8
CLEANED
 10
58.1921
 20
78.7861
 30
0.0
 11
61.6404
 21
79.6481
 31
0.0
  0
LINE
  8
CLEANED
 10
61.6404
 20
79.6481
 30
0.0
 11
62.9335
 21
82.6654
 31
0.0
  0
LINE
  8
CLEANED
 10
57.5024
 20
77.0619
 30
0.0
 11
62.9335
 21
74.4757
 31
0.0
  0
LINE
  8
CLEANED
 10
62.9335
 20
74.4757
 30
0.0
 11
73.2783
 21
80.5102
 31
0.0
  0
LINE
  8
CLEANED
 10
73.2783
 20
80.5102
 30
0.0
 11
86.2093
 21
72.7516
 31
0.0
  0
LINE
  8
CLEANED
 10
85.7783
 20
70.5964
 30
0.0
 11
80.6059
 21
67.5792
 31
0.0
  0
LINE
  8
CLEANED
 10
80.6059
 20
67.5792
 30
0.0
 11
80.6059
 21
54.3607
 31
0.0
  0
LINE
  8
CLEANED
 10
80.6059
 20
54.3607
 30
0.0
 11
82.7611
 21
54.6481
 31
0.0
  0
LINE
  8
CLEANED
 10
82.7611
 20
54.6481
 30
0.0
 11
86.6404
 21
52.0619
 31
0.0
  0
LINE
  8
CLEANED
 10
86.6404
 20
52.0619
 30
0.0
 11
89.2266
 21
52.493
 31
0.0
  0
LINE
  8
CLEANED
 10
80.6059
 20
54.3607
 30
0.0
 11
80.6059
 21
42.1481
 31
0.0
  0
LINE
  8
CLEANED
 10
80.6059
 20
42.1481
 30
0.0
 11
86.6404
 21
38.4843
 31
0.0
  0
LINE
  8
CLEANED
 10
85.7783
 20
36.5447
 30
0.0
 11
64.2266
 21
24.0447
 31
0.0
  0
LINE
  8
CLEANED
 10
64.2266
 20
24.0447
 30
0.0
 11
64.0111
 21
1.8464
 31
0.0
  0
LINE
  8
CLEANED
 10
62.9335
 20
1.6309
 30
0.0
 11
53.8818
 21
7.0188
 31
0.0
  0
LINE
  8
CLEANED
 10
52.5887
 20
6.8033
 30
0.0
 11
43.3933
 21
1.3435
 31
0.0
  0
LINE
  8
CLEANED
 10
43.3933
 20
1.3435
 30
0.0
 11
46.5542
 21
-1.3863
 31
0.0
  0
LINE
  8
CLEANED
 10
43.1059
 20
-0.5243
 30
0.0
 11
43.1059
 21
-10.4381
 31
0.0
  0
LINE
  8
CLEANED
 10
41.8128
 20
-10.6536
 30
0.0
 11
24.7869
 21
-0.8476
 31
0.0
  0
LINE
  8
CLEANED
 10
24.7869
 20
-0.8476
 30
0.0
 11
23.2783
 21
-3.1105
 31
0.0
  0
LINE
  8
CLEANED
 10
24.7869
 20
-0.8476
 30
0.0
 11
22.8473
 21
0.3378
 31
0.0
  0
LINE
  8
CLEANED
 10
22.8473
 20
0.3378
 30
0.0
 11
12.5025
 21
-5.6967
 31
0.0
  0
LINE
  8
CLEANED
 10
12.5025
 20
-5.6967
 30
0.0
 11
-0.8596
 21
2.7085
 31
0.0
  0
LINE
  8
CLEANED
 10
-0.4286
 20
3.7861
 30
0.0
 11
5.1749
 21
7.2344
 31
0.0
  0
LINE
  8
CLEANED
 10
5.1749
 20
7.2344
 30
0.0
 11
5.2826
 21
17.9024
 31
0.0
  0
LINE
  8
CLEANED
 10
5.2826
 20
17.9024
 30
0.0
 11
2.1577
 21
15.424
 31
0.0
  0
LINE
  8
CLEANED
 10
2.1577
 20
15.424
 30
0.0
 11
0.0025
 21
15.855
 31
0.0
  0
LINE
  8
CLEANED
 10
5.2826
 20
17.9024
 30
0.0
 11
5.1749
 21
32.2344
 31
0.0
  0
LINE
  8
CLEANED
 10
5.1749
 20
32.2344
 30
0.0
 11
-0.8596
 21
36.1137
 31
0.0
  0
LINE
  8
CLEANED
 10
0.0025
 20
38.2688
 30
0.0
 11
17.2439
 21
47.7516
 31
0.0
  0
LINE
  8
CLEANED
 10
17.2439
 20
47.7516
 30
0.0
 11
21.8774
 21
50.7688
 31
0.0
  0
LINE
  8
CLEANED
 10
21.8774
 20
50.7688
 30
0.0
 11
21.5542
 21
60.4671
 31
0.0
  0
LINE
  8
CLEANED
 10
19.399
 20
59.3895
 30
0.0
 11
17.6749
 21
57.6654
 31
0.0
  0
LINE
  8
CLEANED
 10
17.6749
 20
57.6654
 30
0.0
 11
15.0887
 21
57.6654
 31
0.0
  0
LINE
  8
CLEANED
 10
17.6749
 20
57.6654
 30
0.0
 11
21.5542
 21
60.4671
 31
0.0
  0
LINE
  8
CLEANED
 10
21.5542
 20
60.4671
 30
0.0
 11
21.9852
 21
73.1826
 31
0.0
  0
LINE
  8
CLEANED
 10
23.7094
 20
72.7516
 30
0.0
 11
31.0369
 21
67.7947
 31
0.0
  0
LINE
  8
CLEANED
 10
33.4076
 20
67.5791
 30
0.0
 11
42.8185
 21
73.6137
 31
0.0
  0
LINE
  8
CLEANED
 10
42.8185
 20
73.6137
 30
0.0
 11
43.3214
 21
85.4671
 31
0.0
  0
LINE
  8
CLEANED
 10
42.8185
 20
73.6137
 30
0.0
 11
52.014
 21
79.0734
 31
0.0
  0
LINE
  8
CLEANED
 10
52.014
 20
79.0734
 30
0.0
 11
43.968
 21
84.3895
 31
0.0
  0
LINE
  8
CLEANED
 10
25.8646
 20
81.8033
 30
0.0
 11
26.2956
 21
79.6481
 31
0.0
  0
LINE
  8
CLEANED
 10
28.4508
 20
81.8033
 30
0.0
 11
28.0197
 21
79.2171
 31
0.0
  0
LINE
  8
CLEANED
 10
52.014
 20
79.0734
 30
0.0
 11
53.8818
 21
78.7861
 31
0.0
  0
LINE
  8
CLEANED
 10
64.2266
 20
73.6137
 30
0.0
 11
64.514
 21
59.6769
 31
0.0
  0
LINE
  8
CLEANED
 10
64.514
 20
59.6769
 30
0.0
 11
86.2093
 21
72.7516
 31
0.0
  0
LINE
  8
CLEANED
 10
86.2093
 20
72.7516
 30
0.0
 11
74.5714
 21
79.6481
 31
0.0
  0
LINE
  8
CLEANED
 10
29.7439
 20
78.355
 30
0.0
 11
31.899
 21
77.493
 31
0.0
  0
LINE
  8
CLEANED
 10
31.899
 20
77.493
 30
0.0
 11
34.4852
 21
77.924
 31
0.0
  0
LINE
  8
CLEANED
 10
34.4852
 20
77.924
 30
0.0
 11
37.9335
 21
75.7688
 31
0.0
  0
LINE
  8
CLEANED
 10
37.9335
 20
75.7688
 30
0.0
 11
39.2266
 21
74.0447
 31
0.0
  0
LINE
  8
CLEANED
 10
50.0025
 20
77.0619
 30
0.0
 11
33.4076
 21
67.5791
 31
0.0
  0
LINE
  8
CLEANED
 10
33.8387
 20
66.0705
 30
0.0
 11
42.6749
 21
60.8981
 31
0.0
  0
LINE
  8
CLEANED
 10
42.6749
 20
60.8981
 30
0.0
 11
42.7611
 21
22.1481
 31
0.0
  0
LINE
  8
CLEANED
 10
42.7611
 20
22.1481
 30
0.0
 11
45.2611
 21
22.3206
 31
0.0
  0
LINE
  8
CLEANED
 10
42.7611
 20
22.1481
 30
0.0
 11
43.3933
 21
1.3435
 31
0.0
  0
LINE
  8
CLEANED
 10
53.8818
 20
7.0188
 30
0.0
 11
53.4508
 21
77.493
 31
0.0
  0
LINE
  8
CLEANED
 10
62.9335
 20
1.6309
 30
0.0
 11
63.3646
 21
72.7516
 31
0.0
  0
LINE
  8
CLEANED
 10
63.3646
 20
72.7516
 30
0.0
 11
57.5024
 21
77.0619
 31
0.0
  0
LINE
  8
CLEANED
 10
57.5024
 20
77.0619
 30
0.0
 11
55.1749
 21
77.924
 31
0.0
  0
LINE
  8
CLEANED
 10
59.4852
 20
76.1999
 30
0.0
 11
57.5024
 21
77.0619
 31
0.0
  0
LINE
  8
CLEANED
 10
21.5542
 20
60.4671
 30
0.0
 11
24.5714
 21
59.8206
 31
0.0
  0
LINE
  8
CLEANED
 10
21.8774
 20
50.7688
 30
0.0
 11
25.5772
 21
52.3493
 31
0.0
  0
LINE
  8
CLEANED
 10
25.5772
 20
52.3493
 30
0.0
 11
38.3646
 21
44.7344
 31
0.0
  0
LINE
  8
CLEANED
 10
38.3646
 20
44.7344
 30
0.0
 11
38.3646
 21
24.9068
 31
0.0
  0
LINE
  8
CLEANED
 10
38.3646
 20
24.9068
 30
0.0
 11
41.8128
 21
22.7516
 31
0.0
  0
LINE
  8
CLEANED
 10
41.8128
 20
22.7516
 30
0.0
 11
42.6749
 21
60.8981
 31
0.0
  0
LINE
  8
CLEANED
 10
42.6749
 20
60.8981
 30
0.0
 11
23.7094
 21
71.4585
 31
0.0
  0
LINE
  8
CLEANED
 10
31.0369
 20
67.7947
 30
0.0
 11
33.8387
 21
66.0705
 31
0.0
  0
LINE
  8
CLEANED
 10
78.8818
 20
68.0102
 30
0.0
 11
77.3732
 21
66.5016
 31
0.0
  0
LINE
  8
CLEANED
 10
77.3732
 20
66.5016
 30
0.0
 11
65.5197
 21
58.9585
 31
0.0
  0
LINE
  8
CLEANED
 10
64.2266
 20
53.7861
 30
0.0
 11
65.9508
 21
52.493
 31
0.0
  0
LINE
  8
CLEANED
 10
66.3818
 20
50.7688
 30
0.0
 11
64.2266
 21
48.6137
 31
0.0
  0
LINE
  8
CLEANED
 10
64.2266
 20
47.3206
 30
0.0
 11
65.9508
 21
46.0275
 31
0.0
  0
LINE
  8
CLEANED
 10
66.3818
 20
44.3033
 30
0.0
 11
64.2266
 21
42.1481
 31
0.0
  0
LINE
  8
CLEANED
 10
66.3818
 20
38.2688
 30
0.0
 11
64.2266
 21
35.2516
 31
0.0
  0
LINE
  8
CLEANED
 10
64.2266
 20
35.2516
 30
0.0
 11
66.0944
 21
33.6711
 31
0.0
  0
LINE
  8
CLEANED
 10
66.0944
 20
33.6711
 30
0.0
 11
80.6059
 21
42.1481
 31
0.0
  0
LINE
  8
CLEANED
 10
64.0111
 20
1.8464
 30
0.0
 11
64.514
 21
59.6769
 31
0.0
  0
LINE
  8
CLEANED
 10
11.2094
 20
59.3895
 30
0.0
 11
11.2094
 21
56.8033
 31
0.0
  0
LINE
  8
CLEANED
 10
13.3646
 20
59.3895
 30
0.0
 11
13.3646
 21
56.8033
 31
0.0
  0
LINE
  8
CLEANED
 10
56.899
 20
55.5102
 30
0.0
 11
58.6232
 21
53.355
 31
0.0
  0
LINE
  8
CLEANED
 10
97.4163
 20
51.6309
 30
0.0
 11
94.399
 21
51.6309
 31
0.0
  0
LINE
  8
CLEANED
 10
94.399
 20
51.6309
 30
0.0
 11
94.399
 21
53.7861
 31
0.0
  0
LINE
  8
CLEANED
 10
24.1404
 20
51.6309
 30
0.0
 11
36.6404
 21
44.0878
 31
0.0
  0
LINE
  8
CLEANED
 10
36.2094
 20
46.0275
 30
0.0
 11
25.5772
 21
52.3493
 31
0.0
  0
LINE
  8
CLEANED
 10
21.8774
 20
50.7688
 30
0.0
 11
-0.8596
 21
37.4068
 31
0.0
  0
LINE
  8
CLEANED
 10
-0.8596
 20
37.4068
 30
0.0
 11
12.6461
 21
29.6481
 31
0.0
  0
LINE
  8
CLEANED
 10
12.6461
 20
29.6481
 30
0.0
 11
36.6404
 21
44.0878
 31
0.0
  0
LINE
  8
CLEANED
 10
56.899
 20
49.0447
 30
0.0
 11
58.6232
 21
46.8895
 31
0.0
  0
LINE
  8
CLEANED
 10
57.7611
 20
45.1654
 30
0.0
 11
55.6059
 21
45.1654
 31
0.0
  0
LINE
  8
CLEANED
 10
58.1921
 20
41.7171
 30
0.0
 11
58.6232
 21
39.5619
 31
0.0
  0
LINE
  8
CLEANED
 10
58.6232
 20
39.5619
 30
0.0
 11
56.037
 21
38.6999
 31
0.0
  0
LINE
  8
CLEANED
 10
35.3473
 20
41.7171
 30
0.0
 11
35.7783
 21
39.1309
 31
0.0
  0
LINE
  8
CLEANED
 10
35.7783
 20
39.1309
 30
0.0
 11
32.1145
 21
36.9757
 31
0.0
  0
LINE
  8
CLEANED
 10
34.4852
 20
35.6826
 30
0.0
 11
35.7783
 21
33.9585
 31
0.0
  0
LINE
  8
CLEANED
 10
35.3473
 20
32.2344
 30
0.0
 11
31.899
 21
30.5102
 31
0.0
  0
LINE
  8
CLEANED
 10
31.468
 20
28.355
 30
0.0
 11
34.0542
 21
29.6481
 31
0.0
  0
LINE
  8
CLEANED
 10
35.7783
 20
26.6309
 30
0.0
 11
32.3301
 21
24.4757
 31
0.0
  0
LINE
  8
CLEANED
 10
32.3301
 20
24.4757
 30
0.0
 11
31.0369
 21
22.2128
 31
0.0
  0
LINE
  8
CLEANED
 10
31.0369
 20
22.2128
 30
0.0
 11
33.1921
 21
23.1826
 31
0.0
  0
LINE
  8
CLEANED
 10
35.3473
 20
22.3206
 30
0.0
 11
35.7783
 21
20.1654
 31
0.0
  0
LINE
  8
CLEANED
 10
35.7783
 20
20.1654
 30
0.0
 11
31.899
 21
18.0102
 31
0.0
  0
LINE
  8
CLEANED
 10
31.1806
 20
15.7113
 30
0.0
 11
33.1921
 21
17.1481
 31
0.0
  0
LINE
  8
CLEANED
 10
34.4852
 20
16.7171
 30
0.0
 11
35.7783
 21
14.993
 31
0.0
  0
LINE
  8
CLEANED
 10
35.7783
 20
14.993
 30
0.0
 11
34.9163
 21
12.8378
 31
0.0
  0
LINE
  8
CLEANED
 10
34.9163
 20
12.8378
 30
0.0
 11
36.6404
 21
11.1137
 31
0.0
  0
LINE
  8
CLEANED
 10
36.6404
 20
11.1137
 30
0.0
 11
37.0714
 21
24.0447
 31
0.0
  0
LINE
  8
CLEANED
 10
37.0714
 20
24.0447
 30
0.0
 11
37.0714
 21
41.7171
 31
0.0
  0
LINE
  8
CLEANED
 10
33.1921
 20
41.7171
 30
0.0
 11
31.468
 21
39.9929
 31
0.0
  0
LINE
  8
CLEANED
 10
66.0944
 20
33.6711
 30
0.0
 11
66.3818
 21
31.8033
 31
0.0
  0
LINE
  8
CLEANED
 10
66.3818
 20
31.8033
 30
0.0
 11
64.2266
 21
29.6481
 31
0.0
  0
LINE
  8
CLEANED
 10
64.2266
 20
29.6481
 30
0.0
 11
64.2266
 21
26.1999
 31
0.0
  0
LINE
  8
CLEANED
 10
65.9508
 20
26.1999
 30
0.0
 11
86.6404
 21
38.4843
 31
0.0
  0
LINE
  8
CLEANED
 10
31.468
 20
39.9929
 30
0.0
 11
32.1145
 21
36.9757
 31
0.0
  0
LINE
  8
CLEANED
 10
32.7611
 20
39.5619
 30
0.0
 11
33.1921
 21
37.4068
 31
0.0
  0
LINE
  8
CLEANED
 10
56.899
 20
36.5447
 30
0.0
 11
58.6232
 21
34.3895
 31
0.0
  0
LINE
  8
CLEANED
 10
57.7611
 20
32.6654
 30
0.0
 11
55.6059
 21
32.6654
 31
0.0
  0
LINE
  8
CLEANED
 10
26.7266
 20
36.9757
 30
0.0
 11
12.5025
 21
28.355
 31
0.0
  0
LINE
  8
CLEANED
 10
12.5025
 20
28.355
 30
0.0
 11
6.468
 21
31.5878
 31
0.0
  0
LINE
  8
CLEANED
 10
6.468
 20
31.5878
 30
0.0
 11
6.037
 21
18.4413
 31
0.0
  0
LINE
  8
CLEANED
 10
6.037
 20
18.4413
 30
0.0
 11
8.1921
 21
17.5792
 31
0.0
  0
LINE
  8
CLEANED
 10
5.2826
 20
17.9024
 30
0.0
 11
6.468
 21
-0.7398
 31
0.0
  0
LINE
  8
CLEANED
 10
6.468
 20
-0.7398
 30
0.0
 11
24.1404
 21
9.3895
 31
0.0
  0
LINE
  8
CLEANED
 10
24.1404
 20
9.3895
 30
0.0
 11
27.5887
 21
11.9757
 31
0.0
  0
LINE
  8
CLEANED
 10
27.5887
 20
11.9757
 30
0.0
 11
28.2352
 21
14.5619
 31
0.0
  0
LINE
  8
CLEANED
 10
28.2352
 20
14.5619
 30
0.0
 11
23.7094
 21
14.5619
 31
0.0
  0
LINE
  8
CLEANED
 10
23.7094
 20
14.5619
 30
0.0
 11
21.9852
 21
15.855
 31
0.0
  0
LINE
  8
CLEANED
 10
28.2352
 20
14.5619
 30
0.0
 11
31.1806
 21
15.7113
 31
0.0
  0
LINE
  8
CLEANED
 10
30.6059
 20
16.7171
 30
0.0
 11
28.4508
 21
16.7171
 31
0.0
  0
LINE
  8
CLEANED
 10
27.5887
 20
18.0102
 30
0.0
 11
28.0197
 21
20.5964
 31
0.0
  0
LINE
  8
CLEANED
 10
28.0197
 20
20.5964
 30
0.0
 11
31.0369
 21
22.2128
 31
0.0
  0
LINE
  8
CLEANED
 10
31.0369
 20
22.2128
 30
0.0
 11
28.4508
 21
23.1826
 31
0.0
  0
LINE
  8
CLEANED
 10
27.5887
 20
24.4757
 30
0.0
 11
28.0197
 21
27.0619
 31
0.0
  0
LINE
  8
CLEANED
 10
28.0197
 20
27.0619
 30
0.0
 11
30.1749
 21
27.493
 31
0.0
  0
LINE
  8
CLEANED
 10
27.5887
 20
30.5102
 30
0.0
 11
28.0197
 21
33.0964
 31
0.0
  0
LINE
  8
CLEANED
 10
28.0197
 20
33.0964
 30
0.0
 11
31.037
 21
34.8206
 31
0.0
  0
LINE
  8
CLEANED
 10
2.1577
 20
35.2516
 30
0.0
 11
0.4335
 21
36.5447
 31
0.0
  0
LINE
  8
CLEANED
 10
22.8473
 20
35.6826
 30
0.0
 11
21.1232
 21
34.3895
 31
0.0
  0
LINE
  8
CLEANED
 10
79.7439
 20
34.3895
 30
0.0
 11
78.0197
 21
33.0964
 31
0.0
  0
LINE
  8
CLEANED
 10
5.1749
 20
33.5275
 30
0.0
 11
3.4508
 21
34.8206
 31
0.0
  0
LINE
  8
CLEANED
 10
8.1921
 20
31.8033
 30
0.0
 11
6.468
 21
33.0964
 31
0.0
  0
LINE
  8
CLEANED
 10
14.6577
 20
30.9413
 30
0.0
 11
12.6461
 21
29.6481
 31
0.0
  0
LINE
  8
CLEANED
 10
11.2094
 20
30.0792
 30
0.0
 11
9.4852
 21
31.3723
 31
0.0
  0
LINE
  8
CLEANED
 10
56.899
 20
30.0792
 30
0.0
 11
58.6232
 21
27.924
 31
0.0
  0
LINE
  8
CLEANED
 10
57.7611
 20
26.1999
 30
0.0
 11
55.6059
 21
26.1999
 31
0.0
  0
LINE
  8
CLEANED
 10
37.5886
 20
9.3033
 30
0.0
 11
38.3646
 21
23.6137
 31
0.0
  0
LINE
  8
CLEANED
 10
37.5886
 20
9.3033
 30
0.0
 11
39.2266
 21
4.6481
 31
0.0
  0
LINE
  8
CLEANED
 10
39.2266
 20
4.6481
 30
0.0
 11
41.9565
 21
1.0562
 31
0.0
  0
LINE
  8
CLEANED
 10
41.9565
 20
1.0562
 30
0.0
 11
42.7611
 21
22.1481
 31
0.0
  0
LINE
  8
CLEANED
 10
42.7611
 20
22.1481
 30
0.0
 11
40.0887
 21
24.0447
 31
0.0
  0
LINE
  8
CLEANED
 10
49.1404
 20
22.7516
 30
0.0
 11
49.1404
 21
20.5964
 31
0.0
  0
LINE
  8
CLEANED
 10
15.9508
 20
17.1481
 30
0.0
 11
15.9508
 21
14.993
 31
0.0
  0
LINE
  8
CLEANED
 10
17.2439
 20
17.1481
 30
0.0
 11
17.2439
 21
14.993
 31
0.0
  0
LINE
  8
CLEANED
 10
-2.5837
 20
14.1309
 30
0.0
 11
-5.1699
 21
14.1309
 31
0.0
  0
LINE
  8
CLEANED
 10
-5.1699
 20
14.1309
 30
0.0
 11
-5.601
 21
16.2861
 31
0.0
  0
LINE
  8
CLEANED
 10
31.1806
 20
15.7113
 30
0.0
 11
33.1921
 21
13.2688
 31
0.0
  0
LINE
  8
CLEANED
 10
30.1749
 20
14.1309
 30
0.0
 11
28.2352
 21
14.5619
 31
0.0
  0
LINE
  8
CLEANED
 10
32.3301
 20
11.9757
 30
0.0
 11
31.037
 21
10.2516
 31
0.0
  0
LINE
  8
CLEANED
 10
28.4508
 20
10.6826
 30
0.0
 11
26.7266
 21
8.5275
 31
0.0
  0
LINE
  8
CLEANED
 10
26.7266
 20
8.5275
 30
0.0
 11
26.7266
 21
4.0016
 31
0.0
  0
LINE
  8
CLEANED
 10
26.7266
 20
4.0016
 30
0.0
 11
37.5886
 21
9.3033
 31
0.0
  0
LINE
  8
CLEANED
 10
37.5886
 20
9.3033
 30
0.0
 11
34.4852
 21
11.1137
 31
0.0
  0
LINE
  8
CLEANED
 10
25.8646
 20
10.6826
 30
0.0
 11
6.468
 21
-0.7398
 31
0.0
  0
LINE
  8
CLEANED
 10
6.468
 20
-0.7398
 30
0.0
 11
12.9335
 21
-4.4036
 31
0.0
  0
LINE
  8
CLEANED
 10
12.9335
 20
-4.4036
 30
0.0
 11
26.0082
 21
2.6366
 31
0.0
  0
LINE
  8
CLEANED
 10
37.5886
 20
9.3033
 30
0.0
 11
26.0082
 21
2.6366
 31
0.0
  0
LINE
  8
CLEANED
 10
26.0082
 20
2.6366
 30
0.0
 11
24.7869
 21
-0.8476
 31
0.0
  0
LINE
  8
CLEANED
 10
41.8128
 20
-10.6536
 30
0.0
 11
41.9565
 21
1.0562
 31
0.0
  0
LINE
  8
CLEANED
 10
39.6577
 20
3.355
 30
0.0
 11
38.7956
 21
7.6654
 31
0.0
  0
LINE
  8
CLEANED
 10
-0.8596
 20
2.7085
 30
0.0
 11
4.4565
 21
-0.2369
 31
0.0
  0
LINE
  8
CLEANED
 10
4.4565
 20
-0.2369
 30
0.0
 11
5.1749
 21
5.9413
 31
0.0
  0
LINE
  8
CLEANED
 10
4.4565
 20
-0.2369
 30
0.0
 11
6.899
 21
-2.2484
 31
0.0
  0
LINE
  8
CLEANED
 10
51.7266
 20
-1.3863
 30
0.0
 11
51.7266
 21
-3.5415
 31
0.0
  0
LINE
  8
CLEANED
 10
21.9852
 20
-4.8346
 30
0.0
 11
21.9852
 21
-7.4208
 31
0.0
  0
LINE
  8
CLEANED
 10
23.7094
 20
-4.8346
 30
0.0
 11
23.7094
 21
-7.4208
 31
0.0
  0
LINE
  8
CLEANED
 10
25.4335
 20
-4.8346
 30
0.0
 11
25.4335
 21
-7.4208
 31
0.0
ENDSEC
  0
EOF