  0
SECTION
  2
HEADER
  9
$ACADVER
  1
AC1015
  9
$INSUNITS
 70
0
  9
$EXTMIN
 10
-7.756131353052911
 20
-10.869144086165717
 30
0
  9
$EXTMAX
 10
97.41626864694709
 20
86.97565591383429
 30
0
  0
ENDSEC
  0
SECTION
  2
TABLES
  0
TABLE
  2
LTYPE
 70
7
  0
LTYPE
  2
CONTINUOUS
 70
0
  3
Solid line
 72
65
 73
0
 40
0
  0
LTYPE
  2
DASHED
 70
0
  3
Dashed line
 72
65
 73
2
 40
19.05
 49
12.7
 49
-6.35
  0
LTYPE
  2
HIDDEN
 70
0
  3
Hidden line
 72
65
 73
2
 40
9.525
 49
6.35
 49
-3.175
  0
LTYPE
  2
CENTER
 70
0
  3
Center line
 72
65
 73
4
 40
50.8
 49
31.75
 49
-6.35
 49
6.35
 49
-6.35
  0
LTYPE
  2
DASHDOT
 70
0
  3
Dash dot line
 72
65
 73
4
 40
25.4
 49
12.7
 49
-6.35
 49
0
 49
-6.35
  0
LTYPE
  2
PHANTOM
 70
0
  3
Phantom line
 72
65
 73
6
 40
63.5
 49
31.75
 49
-6.35
 49
6.35
 49
-6.35
 49
6.35
 49
-6.35
  0
LTYPE
  2
DOT
 70
0
  3
Dotted line
 72
65
 73
2
 40
6.35
 49
0
 49
-6.35
  0
ENDTAB
  0
TABLE
  2
LAYER
 70
0
  0
ENDTAB
  0
ENDSEC
  0
SECTION
  2
BLOCKS
  0
ENDSEC
  0
SECTION
  2
ENTITIES
  0
LINE
  8
CLEANED
 10
56.8645
 20
78.5964
 30
0.0
 11
61.9277
 21
79.9354
 31
0.0
  0
LINE
  8
CLEANED
 10
61.9277
 20
79.9354
 30
0.0
 11
62.9335
 21
82.6654
 31
0.0
  0
LINE
  8
CLEANED
 10
61.9277
 20
79.9354
 30
0.0
 11
58.4421
 21
75.743
 31
0.0
  0
LINE
  8
CLEANED
 10
62.9066
 20
74.2144
 30
0.0
 11
73.4002
 21
80.2728
 31
0.0
  0
LINE
  8
CLEANED
 10
86.6963
 20
72.4432
 30
0.0
 11
73.1716
 21
80.2517
 31
0.0
  0
LINE
  8
CLEANED
 10
64.868
 20
59.455
 30
0.0
 11
80.2572
 21
68.3401
 31
0.0
  0
LINE
  8
CLEANED
 10
80.5155
 20
42.1242
 30
0.0
 11
80.5155
 21
67.9024
 31
0.0
  0
LINE
  8
CLEANED
 10
78.8788
 20
54.3248
 30
0.0
 11
82.7641
 21
54.3248
 31
0.0
  0
LINE
  8
CLEANED
 10
87.2752
 20
52.0354
 30
0.0
 11
82.8461
 21
54.5926
 31
0.0
  0
LINE
  8
CLEANED
 10
87.3602
 20
52.1955
 30
0.0
 11
87.3602
 21
52.1955
 31
0.0
  0
LINE
  8
CLEANED
 10
86.8734
 20
38.2873
 30
0.0
 11
80.4459
 21
41.9983
 31
0.0
  0
LINE
  8
CLEANED
 10
79.9003
 20
34.0553
 30
0.0
 11
86.8591
 21
38.073
 31
0.0
  0
LINE
  8
CLEANED
 10
62.9688
 20
1.6912
 30
0.0
 11
53.4253
 21
7.2011
 31
0.0
  0
LINE
  8
CLEANED
 10
42.8374
 20
1.167
 30
0.0
 11
53.4312
 21
7.2833
 31
0.0
  0
LINE
  8
CLEANED
 10
46.6543
 20
-1.2283
 30
0.0
 11
42.7164
 21
1.0453
 31
0.0
  0
LINE
  8
CLEANED
 10
42.4435
 20
-10.5579
 30
0.0
 11
42.4435
 21
22.4599
 31
0.0
  0
LINE
  8
CLEANED
 10
41.8342
 20
-11.2518
 30
0.0
 11
23.9196
 21
-0.9088
 31
0.0
  0
LINE
  8
CLEANED
 10
12.6376
 20
-5.544
 30
0.0
 11
36.9762
 21
8.5079
 31
0.0
  0
LINE
  8
CLEANED
 10
12.7262
 20
-4.9474
 30
0.0
 11
-0.9508
 21
2.949
 31
0.0
  0
LINE
  8
CLEANED
 10
-0.6944
 20
3.2484
 30
0.0
 11
5.1549
 21
6.6255
 31
0.0
  0
LINE
  8
CLEANED
 10
2.1577
 20
15.4239
 30
0.0
 11
5.1749
 21
18.4412
 31
0.0
  0
LINE
  8
CLEANED
 10
22.0245
 20
49.7287
 30
0.0
 11
25.3621
 21
51.6556
 31
0.0
  0
LINE
  8
CLEANED
 10
21.9959
 20
50.7575
 30
0.0
 11
21.9959
 21
72.1113
 31
0.0
  0
LINE
  8
CLEANED
 10
17.4865
 20
57.9453
 30
0.0
 11
21.7426
 21
60.4026
 31
0.0
  0
LINE
  8
CLEANED
 10
41.5986
 20
60.9997
 30
0.0
 11
22.5351
 21
72.006
 31
0.0
  0
LINE
  8
CLEANED
 10
32.7425
 20
67.0824
 30
0.0
 11
53.0135
 21
78.7859
 31
0.0
  0
LINE
  8
CLEANED
 10
43.3329
 20
73.5745
 30
0.0
 11
43.3329
 21
84.6616
 31
0.0
  0
LINE
  8
CLEANED
 10
43.991
 20
84.6224
 30
0.0
 11
43.991
 21
84.6224
 31
0.0
  0
LINE
  8
CLEANED
 10
53.1933
 20
78.4626
 30
0.0
 11
53.1933
 21
78.4626
 31
0.0
  0
LINE
  8
CLEANED
 10
63.0149
 20
74.0341
 30
0.0
 11
63.0149
 21
74.0341
 31
0.0
  0
LINE
  8
CLEANED
 10
35.1659
 20
77.8686
 30
0.0
 11
38.4422
 21
74.7919
 31
0.0
  0
LINE
  8
CLEANED
 10
36.275
 20
70.9143
 30
0.0
 11
39.344
 21
70.9143
 31
0.0
  0
LINE
  8
CLEANED
 10
29.7437
 20
77.8963
 30
0.0
 11
35.166
 21
77.8963
 31
0.0
  0
LINE
  8
CLEANED
 10
40.885
 20
8.5191
 30
0.0
 11
40.885
 21
60.9192
 31
0.0
  0
LINE
  8
CLEANED
 10
42.6848
 20
22.3893
 30
0.0
 11
47.8482
 21
22.3893
 31
0.0
  0
LINE
  8
CLEANED
 10
54.048
 20
-3.5505
 30
0.0
 11
54.048
 21
78.4715
 31
0.0
  0
LINE
  8
CLEANED
 10
58.4684
 20
75.7578
 30
0.0
 11
56.8382
 21
78.5815
 31
0.0
  0
LINE
  8
CLEANED
 10
26.8344
 20
71.1352
 30
0.0
 11
22.5869
 21
72.0949
 31
0.0
  0
LINE
  8
CLEANED
 10
21.5542
 20
60.6826
 30
0.0
 11
24.5714
 21
59.8206
 31
0.0
  0
LINE
  8
CLEANED
 10
37.5824
 20
43.8654
 30
0.0
 11
24.6805
 21
51.3143
 31
0.0
  0
LINE
  8
CLEANED
 10
42.5744
 20
22.2459
 30
0.0
 11
37.4332
 21
25.2142
 31
0.0
  0
LINE
  8
CLEANED
 10
32.6583
 20
67.5616
 30
0.0
 11
26.7387
 21
70.9793
 31
0.0
  0
LINE
  8
CLEANED
 10
36.2775
 20
71.0023
 30
0.0
 11
32.5626
 21
67.4057
 31
0.0
  0
LINE
  8
CLEANED
 10
80.5089
 20
67.9024
 30
0.0
 11
80.5089
 21
67.9024
 31
0.0
  0
LINE
  8
CLEANED
 10
62.9074
 20
56.7577
 30
0.0
 11
77.8364
 21
65.377
 31
0.0
  0
LINE
  8
CLEANED
 10
67.9981
 20
49.1524
 30
0.0
 11
62.6102
 21
43.7644
 31
0.0
  0
LINE
  8
CLEANED
 10
66.3818
 20
38.2688
 30
0.0
 11
65.079
 21
34.6215
 31
0.0
  0
LINE
  8
CLEANED
 10
65.3661
 20
34.0806
 30
0.0
 11
80.235
 21
42.6651
 31
0.0
  0
LINE
  8
CLEANED
 10
92.2008
 20
51.674
 30
0.0
 11
94.7438
 21
54.3033
 31
0.0
  0
LINE
  8
CLEANED
 10
92.2007
 20
51.6524
 30
0.0
 11
97.4164
 21
51.6524
 31
0.0
  0
LINE
  8
CLEANED
 10
34.2085
 20
42.3534
 30
0.0
 11
37.1189
 21
43.1585
 31
0.0
  0
LINE
  8
CLEANED
 10
37.1189
 20
43.1585
 30
0.0
 11
37.1189
 21
43.1585
 31
0.0
  0
LINE
  8
CLEANED
 10
18.069
 20
31.5678
 30
0.0
 11
26.6996
 21
36.5507
 31
0.0
  0
LINE
  8
CLEANED
 10
34.2085
 20
42.3534
 30
0.0
 11
32.9777
 21
39.1925
 31
0.0
  0
LINE
  8
CLEANED
 10
34.8444
 20
34.8493
 30
0.0
 11
30.7496
 21
35.7975
 31
0.0
  0
LINE
  8
CLEANED
 10
30.4607
 20
30.2211
 30
0.0
 11
34.6176
 21
32.6211
 31
0.0
  0
LINE
  8
CLEANED
 10
32.5886
 20
24.0059
 30
0.0
 11
30.3918
 21
30.3492
 31
0.0
  0
LINE
  8
CLEANED
 10
30.448
 20
20.4617
 30
0.0
 11
37.5952
 21
24.5881
 31
0.0
  0
LINE
  8
CLEANED
 10
32.5886
 20
24.0059
 30
0.0
 11
32.5886
 21
24.0059
 31
0.0
  0
LINE
  8
CLEANED
 10
28.1992
 20
25.6609
 30
0.0
 11
34.0708
 21
20.0465
 31
0.0
  0
LINE
  8
CLEANED
 10
34.0708
 20
20.0465
 30
0.0
 11
34.0708
 21
20.0465
 31
0.0
  0
LINE
  8
CLEANED
 10
30.7292
 20
15.7273
 30
0.0
 11
30.7292
 21
20.0478
 31
0.0
  0
LINE
  8
CLEANED
 10
30.7371
 20
15.7273
 30
0.0
 11
32.1063
 21
11.9093
 31
0.0
  0
LINE
  8
CLEANED
 10
37.286
 20
8.5445
 30
0.0
 11
31.9294
 21
11.6371
 31
0.0
  0
LINE
  8
CLEANED
 10
32.1422
 20
11.888
 30
0.0
 11
34.1089
 21
15.2943
 31
0.0
  0
LINE
  8
CLEANED
 10
70.6508
 20
28.8902
 30
0.0
 11
76.9128
 21
32.5055
 31
0.0
  0
LINE
  8
CLEANED
 10
26.9075
 20
35.969
 30
0.0
 11
30.7572
 21
35.969
 31
0.0
  0
LINE
  8
CLEANED
 10
54.7439
 20
34.2458
 30
0.0
 11
57.7611
 21
34.2458
 31
0.0
  0
LINE
  8
CLEANED
 10
5.1591
 20
0.2144
 30
0.0
 11
31.0719
 21
15.1752
 31
0.0
  0
LINE
  8
CLEANED
 10
25.6274
 20
9.0442
 30
0.0
 11
27.3948
 21
12.1054
 31
0.0
  0
LINE
  8
CLEANED
 10
23.9248
 20
15.2731
 30
0.0
 11
34.1599
 21
15.2731
 31
0.0
  0
LINE
  8
CLEANED
 10
30.7214
 20
20.0478
 30
0.0
 11
30.7214
 21
20.0478
 31
0.0
  0
LINE
  8
CLEANED
 10
28.5987
 20
25.6391
 30
0.0
 11
28.5987
 21
32.9552
 31
0.0
  0
LINE
  8
CLEANED
 10
32.5886
 20
24.0059
 30
0.0
 11
28.1992
 21
25.6609
 31
0.0
  0
LINE
  8
CLEANED
 10
30.3918
 20
30.3492
 30
0.0
 11
30.3918
 21
30.3492
 31
0.0
  0
LINE
  8
CLEANED
 10
30.3918
 20
30.3492
 30
0.0
 11
34.8444
 21
34.8493
 31
0.0
  0
LINE
  8
CLEANED
 10
4.7439
 20
32.6653
 30
0.0
 11
8.164
 21
31.5745
 31
0.0
  0
LINE
  8
CLEANED
 10
70.5125
 20
29.1093
 30
0.0
 11
70.5125
 21
29.1093
 31
0.0
  0
LINE
  8
CLEANED
 10
37.3219
 20
25.002
 30
0.0
 11
32.5886
 21
24.0059
 31
0.0
  0
LINE
  8
CLEANED
 10
39.4625
 20
4.0312
 30
0.0
 11
37.037
 21
8.2323
 31
0.0
  0
LINE
  8
CLEANED
 10
39.3903
 20
3.9911
 30
0.0
 11
42.8165
 21
1.2034
 31
0.0
  0
LINE
  8
CLEANED
 10
30.7214
 20
20.0472
 30
0.0
 11
34.0708
 21
20.0472
 31
0.0
  0
LINE
  8
CLEANED
 10
-7.7562
 20
14.9929
 30
0.0
 11
-2.5837
 21
14.9929
 31
0.0
  0
LINE
  8
CLEANED
 10
-5.601
 20
17.1481
 30
0.0
 11
-7.7562
 21
14.9929
 31
0.0
  0
LINE
  8
CLEANED
 10
32.1063
 20
11.9093
 30
0.0
 11
32.1063
 21
11.9093
 31
0.0
  0
LINE
  8
CLEANED
 10
26.586
 20
3.3635
 30
0.0
 11
25.4335
 21
9.174
 31
0.0
  0
LINE
  8
CLEANED
 10
37.1092
 20
8.2723
 30
0.0
 11
32.815
 21
6.7494
 31
0.0
  0
LINE
  8
CLEANED
 10
5.3418
 20
-0.341
 30
0.0
 11
5.3418
 21
6.5671
 31
0.0
  0
LINE
  8
CLEANED
 10
15.0547
 20
-2.142
 30
0.0
 11
23.5865
 21
-2.142
 31
0.0
ENDSEC
  0
EOF