  0
SECTION
  2
HEADER
  9
$ACADVER
  1
AC1015
  9
$INSUNITS
 70
0
  9
$EXTMIN
 10
-1100
 20
-1100
 30
0
  9
$EXTMAX
 10
12500
 20
8500
 30
0
  0
ENDSEC
  0
SECTION
  2
TABLES
  0
TABLE
  2
LTYPE
 70
7
  0
LTYPE
  2
CONTINUOUS
 70
0
  3
Solid line
 72
65
 73
0
 40
0
  0
LTYPE
  2
DASHED
 70
0
  3
Dashed line
 72
65
 73
2
 40
0.75
 49
0.5
 49
-0.25
  0
LTYPE
  2
HIDDEN
 70
0
  3
Hidden line
 72
65
 73
2
 40
9.525
 49
6.35
 49
-3.175
  0
LTYPE
  2
CENTER
 70
0
  3
Center line
 72
65
 73
4
 40
50.8
 49
31.75
 49
-6.35
 49
6.35
 49
-6.35
  0
LTYPE
  2
DASHDOT
 70
0
  3
Dash dot line
 72
65
 73
4
 40
25.4
 49
12.7
 49
-6.35
 49
0
 49
-6.35
  0
LTYPE
  2
PHANTOM
 70
0
  3
Phantom line
 72
65
 73
6
 40
63.5
 49
31.75
 49
-6.35
 49
6.35
 49
-6.35
 49
6.35
 49
-6.35
  0
LTYPE
  2
DOT
 70
0
  3
Dotted line
 72
65
 73
2
 40
6.35
 49
0
 49
-6.35
  0
ENDTAB
  0
TABLE
  2
LAYER
 70
24
  0
LAYER
  2
0
 70
0
 62
7
  6
CONTINUOUS
  0
LAYER
  2
STAIR_STR
 70
0
 62
7
  6
CONTINUOUS
  0
LAYER
  2
STAIR_REBAR
 70
0
 62
1
  6
CONTINUOUS
  0
LAYER
  2
STAIR_HATCH
 70
0
 62
8
  6
CONTINUOUS
  0
LAYER
  2
COLUMN
 70
0
 62
7
  6
CONTINUOUS
  0
LAYER
  2
BEAM
 70
0
 62
4
  6
CONTINUOUS
  0
LAYER
  2
CONNECTION
 70
0
 62
2
  6
CONTINUOUS
  0
LAYER
  2
LABEL
 70
0
 62
7
  6
CONTINUOUS
  0
LAYER
  2
HIDDEN
 70
0
 62
6
  6
CONTINUOUS
  0
LAYER
  2
DIMENSION
 70
0
 62
3
  6
CONTINUOUS
  0
LAYER
  2
PLATE
 70
0
 62
4
  6
CONTINUOUS
  0
LAYER
  2
BOLT
 70
0
 62
2
  6
CONTINUOUS
  0
LAYER
  2
S-BEAM-CUT
 70
0
 62
4
  6
CONTINUOUS
  0
LAYER
  2
S-PLAT-CUT
 70
0
 62
3
  6
CONTINUOUS
  0
LAYER
  2
S-BOLT-STD
 70
0
 62
2
  6
CONTINUOUS
  0
LAYER
  2
S-MISC-HID
 70
0
 62
8
  6
CONTINUOUS
  0
LAYER
  2
S-GRID-CTR
 70
0
 62
1
  6
CONTINUOUS
  0
LAYER
  2
U-ANNO-DIM
 70
0
 62
7
  6
CONTINUOUS
  0
LAYER
  2
U-ANNO-TXT
 70
0
 62
7
  6
CONTINUOUS
  0
LAYER
  2
OUTLINE_TRACE
 70
0
 62
3
  6
CONTINUOUS
  0
LAYER
  2
A-GRID
 70
0
 62
8
  6
CENTER
  0
LAYER
  2
A-WALL
 70
0
 62
7
  6
CONTINUOUS
  0
LAYER
  2
A-TEXT
 70
0
 62
7
  6
CONTINUOUS
  0
LAYER
  2
A-DIM
 70
0
 62
7
  6
CONTINUOUS
  0
ENDTAB
  0
ENDSEC
  0
SECTION
  2
BLOCKS
  0
BLOCK
  8
0
  2
*D1
 70
0
 10
0
 20
0
 30
0
  0
LINE
  8
0
 10
0
 20
150.00000000000023
 30
0
 11
0
 21
405.09586448513653
 31
0
  0
LINE
  8
0
 10
300
 20
150.00000000000023
 30
0
 11
300
 21
405.09586448513653
 31
0
  0
LINE
  8
0
 10
0
 20
400.59586448513653
 30
0
 11
300
 21
400.59586448513653
 31
0
  0
LINE
  8
0
 10
0
 20
400.59586448513653
 30
0
 11
9
 21
397.89586448513654
 31
0
  0
LINE
  8
0
 10
0
 20
400.59586448513653
 30
0
 11
9
 21
403.2958644851365
 31
0
  0
LINE
  8
0
 10
300
 20
400.59586448513653
 30
0
 11
291
 21
403.2958644851365
 31
0
  0
LINE
  8
0
 10
300
 20
400.59586448513653
 30
0
 11
291
 21
397.89586448513654
 31
0
  0
TEXT
  8
0
 10
150
 20
400.59586448513653
 30
0
 40
9
  1
300.00
  0
ENDBLK
  8
0
  0
BLOCK
  8
0
  2
*D2
 70
0
 10
0
 20
0
 30
0
  0
LINE
  8
0
 10
0
 20
150.00000000000023
 30
0
 11
-113.88382644541531
 21
150.00000000000023
 31
0
  0
LINE
  8
0
 10
0
 20
-200
 30
0
 11
-113.88382644541531
 21
-200
 31
0
  0
LINE
  8
0
 10
-108.63382644541531
 20
150.00000000000023
 30
0
 11
-108.63382644541531
 21
-200
 31
0
  0
LINE
  8
0
 10
-108.63382644541531
 20
150.00000000000023
 30
0
 11
-111.78382644541531
 21
139.50000000000023
 31
0
  0
LINE
  8
0
 10
-108.63382644541531
 20
150.00000000000023
 30
0
 11
-105.4838264454153
 21
139.50000000000023
 31
0
  0
LINE
  8
0
 10
-108.63382644541531
 20
-200
 30
0
 11
-105.4838264454153
 21
-189.5
 31
0
  0
LINE
  8
0
 10
-108.63382644541531
 20
-200
 30
0
 11
-111.78382644541531
 21
-189.5
 31
0
  0
TEXT
  8
0
 10
-108.63382644541531
 20
-24.999999999999886
 30
0
 40
10.500000000000007
  1
350.00
 50
90
  0
ENDBLK
  8
0
  0
BLOCK
  8
0
  2
*D3
 70
0
 10
0
 20
0
 30
0
  0
LINE
  8
DIMENSION
 10
-0.625
 20
300
 30
0
 11
-101.25
 21
300
 31
0
  0
LINE
  8
DIMENSION
 10
-0.625
 20
710
 30
0
 11
-101.25
 21
710
 31
0
  0
LINE
  8
DIMENSION
 10
-100
 20
300
 30
0
 11
-100
 21
710
 31
0
  0
TEXT
  8
DIMENSION
 10
-100
 20
505
 30
0
 40
2.5
  1
410
 50
90
  0
ENDBLK
  8
0
  0
BLOCK
  8
0
  2
*D4
 70
0
 10
0
 20
0
 30
0
  0
LINE
  8
DIMENSION
 10
0
 20
-0.625
 30
0
 11
0
 21
-101.25
 31
0
  0
LINE
  8
DIMENSION
 10
250
 20
-0.625
 30
0
 11
250
 21
-101.25
 31
0
  0
LINE
  8
DIMENSION
 10
0
 20
-100
 30
0
 11
250
 21
-100
 31
0
  0
TEXT
  8
DIMENSION
 10
125
 20
-100
 30
0
 40
2.5
  1
250
  0
ENDBLK
  8
0
  0
BLOCK
  8
0
  2
*D5
 70
0
 10
0
 20
0
 30
0
  0
LINE
  8
DIMENSION
 10
0
 20
-0.625
 30
0
 11
0
 21
-51.25
 31
0
  0
LINE
  8
DIMENSION
 10
50
 20
-0.625
 30
0
 11
50
 21
-51.25
 31
0
  0
LINE
  8
DIMENSION
 10
0
 20
-50
 30
0
 11
50
 21
-50
 31
0
  0
TEXT
  8
DIMENSION
 10
25
 20
-50
 30
0
 40
2.5
  1
50
  0
ENDBLK
  8
0
  0
BLOCK
  8
0
  2
*D6
 70
0
 10
0
 20
0
 30
0
  0
LINE
  8
DIMENSION
 10
50
 20
-0.625
 30
0
 11
50
 21
-51.25
 31
0
  0
LINE
  8
DIMENSION
 10
200
 20
-0.625
 30
0
 11
200
 21
-51.25
 31
0
  0
LINE
  8
DIMENSION
 10
50
 20
-50
 30
0
 11
200
 21
-50
 31
0
  0
TEXT
  8
DIMENSION
 10
125
 20
-50
 30
0
 40
2.5
  1
150
  0
ENDBLK
  8
0
  0
BLOCK
  8
0
  2
*D7
 70
0
 10
0
 20
0
 30
0
  0
LINE
  8
DIMENSION
 10
200
 20
-0.625
 30
0
 11
200
 21
-51.25
 31
0
  0
LINE
  8
DIMENSION
 10
250
 20
-0.625
 30
0
 11
250
 21
-51.25
 31
0
  0
LINE
  8
DIMENSION
 10
200
 20
-50
 30
0
 11
250
 21
-50
 31
0
  0
TEXT
  8
DIMENSION
 10
225
 20
-50
 30
0
 40
2.5
  1
50
  0
ENDBLK
  8
0
  0
BLOCK
  8
0
  2
*D8
 70
0
 10
0
 20
0
 30
0
  0
LINE
  8
DIMENSION
 10
-0.625
 20
300
 30
0
 11
-51.25
 21
300
 31
0
  0
LINE
  8
DIMENSION
 10
-0.625
 20
340
 30
0
 11
-51.25
 21
340
 31
0
  0
LINE
  8
DIMENSION
 10
-50
 20
300
 30
0
 11
-50
 21
340
 31
0
  0
TEXT
  8
DIMENSION
 10
-50
 20
320
 30
0
 40
2.5
  1
40
 50
90
  0
ENDBLK
  8
0
  0
BLOCK
  8
0
  2
*D9
 70
0
 10
0
 20
0
 30
0
  0
LINE
  8
DIMENSION
 10
-0.625
 20
340
 30
0
 11
-51.25
 21
340
 31
0
  0
LINE
  8
DIMENSION
 10
-0.625
 20
400
 30
0
 11
-51.25
 21
400
 31
0
  0
LINE
  8
DIMENSION
 10
-50
 20
340
 30
0
 11
-50
 21
400
 31
0
  0
TEXT
  8
DIMENSION
 10
-50
 20
370
 30
0
 40
2.5
  1
60
 50
90
  0
ENDBLK
  8
0
  0
BLOCK
  8
0
  2
*D10
 70
0
 10
0
 20
0
 30
0
  0
LINE
  8
DIMENSION
 10
-0.625
 20
400
 30
0
 11
-51.25
 21
400
 31
0
  0
LINE
  8
DIMENSION
 10
-0.625
 20
460
 30
0
 11
-51.25
 21
460
 31
0
  0
LINE
  8
DIMENSION
 10
-50
 20
400
 30
0
 11
-50
 21
460
 31
0
  0
TEXT
  8
DIMENSION
 10
-50
 20
430
 30
0
 40
2.5
  1
60
 50
90
  0
ENDBLK
  8
0
  0
BLOCK
  8
0
  2
*D11
 70
0
 10
0
 20
0
 30
0
  0
LINE
  8
DIMENSION
 10
-0.625
 20
460
 30
0
 11
-51.25
 21
460
 31
0
  0
LINE
  8
DIMENSION
 10
-0.625
 20
500
 30
0
 11
-51.25
 21
500
 31
0
  0
LINE
  8
DIMENSION
 10
-50
 20
460
 30
0
 11
-50
 21
500
 31
0
  0
TEXT
  8
DIMENSION
 10
-50
 20
480
 30
0
 40
2.5
  1
40
 50
90
  0
ENDBLK
  8
0
  0
BLOCK
  8
0
  2
*D12
 70
0
 10
0
 20
0
 30
0
  0
LINE
  8
DIMENSION
 10
500
 20
-0.625
 30
0
 11
500
 21
-51.25
 31
0
  0
LINE
  8
DIMENSION
 10
555
 20
-0.625
 30
0
 11
555
 21
-51.25
 31
0
  0
LINE
  8
DIMENSION
 10
500
 20
-50
 30
0
 11
555
 21
-50
 31
0
  0
TEXT
  8
DIMENSION
 10
527.5
 20
-50
 30
0
 40
2.5
  1
55
  0
ENDBLK
  8
0
  0
BLOCK
  8
0
  2
*D13
 70
0
 10
0
 20
0
 30
0
  0
LINE
  8
DIMENSION
 10
555
 20
-0.625
 30
0
 11
555
 21
-51.25
 31
0
  0
LINE
  8
DIMENSION
 10
595
 20
-0.625
 30
0
 11
595
 21
-51.25
 31
0
  0
LINE
  8
DIMENSION
 10
555
 20
-50
 30
0
 11
595
 21
-50
 31
0
  0
TEXT
  8
DIMENSION
 10
575
 20
-50
 30
0
 40
2.5
  1
40
  0
ENDBLK
  8
0
  0
BLOCK
  8
0
  2
*D14
 70
0
 10
0
 20
0
 30
0
  0
LINE
  8
DIMENSION
 10
595
 20
-0.625
 30
0
 11
595
 21
-51.25
 31
0
  0
LINE
  8
DIMENSION
 10
655
 20
-0.625
 30
0
 11
655
 21
-51.25
 31
0
  0
LINE
  8
DIMENSION
 10
595
 20
-50
 30
0
 11
655
 21
-50
 31
0
  0
TEXT
  8
DIMENSION
 10
625
 20
-50
 30
0
 40
2.5
  1
60
  0
ENDBLK
  8
0
  0
BLOCK
  8
0
  2
*D15
 70
0
 10
0
 20
0
 30
0
  0
LINE
  8
DIMENSION
 10
655
 20
-0.625
 30
0
 11
655
 21
-51.25
 31
0
  0
LINE
  8
DIMENSION
 10
695
 20
-0.625
 30
0
 11
695
 21
-51.25
 31
0
  0
LINE
  8
DIMENSION
 10
655
 20
-50
 30
0
 11
695
 21
-50
 31
0
  0
TEXT
  8
DIMENSION
 10
675
 20
-50
 30
0
 40
2.5
  1
40
  0
ENDBLK
  8
0
  0
BLOCK
  8
0
  2
*D16
 70
0
 10
0
 20
0
 30
0
  0
LINE
  8
DIMENSION
 10
695
 20
-0.625
 30
0
 11
695
 21
-51.25
 31
0
  0
LINE
  8
DIMENSION
 10
750
 20
-0.625
 30
0
 11
750
 21
-51.25
 31
0
  0
LINE
  8
DIMENSION
 10
695
 20
-50
 30
0
 11
750
 21
-50
 31
0
  0
TEXT
  8
DIMENSION
 10
722.5
 20
-50
 30
0
 40
2.5
  1
55
  0
ENDBLK
  8
0
  0
BLOCK
  8
0
  2
*D17
 70
0
 10
0
 20
0
 30
0
  0
LINE
  8
DIMENSION
 10
750.625
 20
360
 30
0
 11
801.25
 21
360
 31
0
  0
LINE
  8
DIMENSION
 10
750.625
 20
650
 30
0
 11
801.25
 21
650
 31
0
  0
LINE
  8
DIMENSION
 10
800
 20
360
 30
0
 11
800
 21
650
 31
0
  0
TEXT
  8
DIMENSION
 10
800
 20
505
 30
0
 40
2.5
  1
290
 50
90
  0
ENDBLK
  8
0
  0
BLOCK
  8
0
  2
*D18
 70
0
 10
0
 20
0
 30
0
  0
LINE
  8
DIMENSION
 10
555
 20
650.625
 30
0
 11
555
 21
701.25
 31
0
  0
LINE
  8
DIMENSION
 10
695
 20
650.625
 30
0
 11
695
 21
701.25
 31
0
  0
LINE
  8
DIMENSION
 10
555
 20
700
 30
0
 11
695
 21
700
 31
0
  0
TEXT
  8
DIMENSION
 10
625
 20
700
 30
0
 40
2.5
  1
140
  0
ENDBLK
  8
0
  0
BLOCK
  8
0
  2
*D19
 70
0
 10
0
 20
0
 30
0
  0
LINE
  8
DIMENSION
 10
-0.625
 20
300
 30
0
 11
-151.25
 21
300
 31
0
  0
LINE
  8
DIMENSION
 10
-0.625
 20
710
 30
0
 11
-151.25
 21
710
 31
0
  0
LINE
  8
DIMENSION
 10
-150
 20
300
 30
0
 11
-150
 21
710
 31
0
  0
TEXT
  8
DIMENSION
 10
-150
 20
505
 30
0
 40
2.5
  1
410
 50
90
  0
ENDBLK
  8
0
  0
BLOCK
  8
0
  2
*D20
 70
0
 10
0
 20
0
 30
0
  0
LINE
  8
DIMENSION
 10
0
 20
299.375
 30
0
 11
0
 21
248.75
 31
0
  0
LINE
  8
DIMENSION
 10
100
 20
299.375
 30
0
 11
100
 21
248.75
 31
0
  0
LINE
  8
DIMENSION
 10
0
 20
250
 30
0
 11
100
 21
250
 31
0
  0
TEXT
  8
DIMENSION
 10
50
 20
250
 30
0
 40
2.5
  1
100
  0
ENDBLK
  8
0
  0
BLOCK
  8
0
  2
*D21
 70
0
 10
0
 20
0
 30
0
  0
LINE
  8
DIMENSION
 10
-0.625
 20
510
 30
0
 11
-51.25
 21
510
 31
0
  0
LINE
  8
DIMENSION
 10
-0.625
 20
550
 30
0
 11
-51.25
 21
550
 31
0
  0
LINE
  8
DIMENSION
 10
-50
 20
510
 30
0
 11
-50
 21
550
 31
0
  0
TEXT
  8
DIMENSION
 10
-50
 20
530
 30
0
 40
2.5
  1
40
 50
90
  0
ENDBLK
  8
0
  0
BLOCK
  8
0
  2
*D22
 70
0
 10
0
 20
0
 30
0
  0
LINE
  8
DIMENSION
 10
-0.625
 20
550
 30
0
 11
-51.25
 21
550
 31
0
  0
LINE
  8
DIMENSION
 10
-0.625
 20
610
 30
0
 11
-51.25
 21
610
 31
0
  0
LINE
  8
DIMENSION
 10
-50
 20
550
 30
0
 11
-50
 21
610
 31
0
  0
TEXT
  8
DIMENSION
 10
-50
 20
580
 30
0
 40
2.5
  1
60
 50
90
  0
ENDBLK
  8
0
  0
BLOCK
  8
0
  2
*D23
 70
0
 10
0
 20
0
 30
0
  0
LINE
  8
DIMENSION
 10
-0.625
 20
610
 30
0
 11
-51.25
 21
610
 31
0
  0
LINE
  8
DIMENSION
 10
-0.625
 20
670
 30
0
 11
-51.25
 21
670
 31
0
  0
LINE
  8
DIMENSION
 10
-50
 20
610
 30
0
 11
-50
 21
670
 31
0
  0
TEXT
  8
DIMENSION
 10
-50
 20
640
 30
0
 40
2.5
  1
60
 50
90
  0
ENDBLK
  8
0
  0
BLOCK
  8
0
  2
*D24
 70
0
 10
0
 20
0
 30
0
  0
LINE
  8
DIMENSION
 10
-0.625
 20
670
 30
0
 11
-51.25
 21
670
 31
0
  0
LINE
  8
DIMENSION
 10
-0.625
 20
710
 30
0
 11
-51.25
 21
710
 31
0
  0
LINE
  8
DIMENSION
 10
-50
 20
670
 30
0
 11
-50
 21
710
 31
0
  0
TEXT
  8
DIMENSION
 10
-50
 20
690
 30
0
 40
2.5
  1
40
 50
90
  0
ENDBLK
  8
0
  0
BLOCK
  8
0
  2
*D25
 70
0
 10
0
 20
0
 30
0
  0
LINE
  8
DIMENSION
 10
-0.625
 20
300
 30
0
 11
-101.25
 21
300
 31
0
  0
LINE
  8
DIMENSION
 10
-0.625
 20
710
 30
0
 11
-101.25
 21
710
 31
0
  0
LINE
  8
DIMENSION
 10
-100
 20
300
 30
0
 11
-100
 21
710
 31
0
  0
TEXT
  8
DIMENSION
 10
-100
 20
505
 30
0
 40
2.5
  1
410
 50
90
  0
ENDBLK
  8
0
  0
BLOCK
  8
0
  2
*D26
 70
0
 10
0
 20
0
 30
0
  0
LINE
  8
DIMENSION
 10
250.625
 20
300
 30
0
 11
351.25
 21
300
 31
0
  0
LINE
  8
DIMENSION
 10
250.625
 20
340
 30
0
 11
351.25
 21
340
 31
0
  0
LINE
  8
DIMENSION
 10
350
 20
300
 30
0
 11
350
 21
340
 31
0
  0
TEXT
  8
DIMENSION
 10
350
 20
320
 30
0
 40
2.5
  1
40
 50
90
  0
ENDBLK
  8
0
  0
BLOCK
  8
0
  2
*D27
 70
0
 10
0
 20
0
 30
0
  0
LINE
  8
DIMENSION
 10
250.625
 20
340
 30
0
 11
351.25
 21
340
 31
0
  0
LINE
  8
DIMENSION
 10
250.625
 20
400
 30
0
 11
351.25
 21
400
 31
0
  0
LINE
  8
DIMENSION
 10
350
 20
340
 30
0
 11
350
 21
400
 31
0
  0
TEXT
  8
DIMENSION
 10
350
 20
370
 30
0
 40
2.5
  1
60
 50
90
  0
ENDBLK
  8
0
  0
BLOCK
  8
0
  2
*D28
 70
0
 10
0
 20
0
 30
0
  0
LINE
  8
DIMENSION
 10
250.625
 20
400
 30
0
 11
351.25
 21
400
 31
0
  0
LINE
  8
DIMENSION
 10
250.625
 20
460
 30
0
 11
351.25
 21
460
 31
0
  0
LINE
  8
DIMENSION
 10
350
 20
400
 30
0
 11
350
 21
460
 31
0
  0
TEXT
  8
DIMENSION
 10
350
 20
430
 30
0
 40
2.5
  1
60
 50
90
  0
ENDBLK
  8
0
  0
BLOCK
  8
0
  2
*D29
 70
0
 10
0
 20
0
 30
0
  0
LINE
  8
DIMENSION
 10
250.625
 20
460
 30
0
 11
351.25
 21
460
 31
0
  0
LINE
  8
DIMENSION
 10
250.625
 20
500
 30
0
 11
351.25
 21
500
 31
0
  0
LINE
  8
DIMENSION
 10
350
 20
460
 30
0
 11
350
 21
500
 31
0
  0
TEXT
  8
DIMENSION
 10
350
 20
480
 30
0
 40
2.5
  1
40
 50
90
  0
ENDBLK
  8
0
  0
BLOCK
  8
0
  2
*D30
 70
0
 10
0
 20
0
 30
0
  0
LINE
  8
DIMENSION
 10
0
 20
299.375
 30
0
 11
0
 21
248.75
 31
0
  0
LINE
  8
DIMENSION
 10
100
 20
299.375
 30
0
 11
100
 21
248.75
 31
0
  0
LINE
  8
DIMENSION
 10
0
 20
250
 30
0
 11
100
 21
250
 31
0
  0
TEXT
  8
DIMENSION
 10
50
 20
250
 30
0
 40
2.5
  1
100
  0
ENDBLK
  8
0
  0
BLOCK
  8
0
  2
*D31
 70
0
 10
0
 20
0
 30
0
  0
LINE
  8
DIMENSION
 10
0
 20
-0.625
 30
0
 11
0
 21
-101.25
 31
0
  0
LINE
  8
DIMENSION
 10
50
 20
-0.625
 30
0
 11
50
 21
-101.25
 31
0
  0
LINE
  8
DIMENSION
 10
0
 20
-100
 30
0
 11
50
 21
-100
 31
0
  0
TEXT
  8
DIMENSION
 10
25
 20
-100
 30
0
 40
2.5
  1
50
  0
ENDBLK
  8
0
  0
BLOCK
  8
0
  2
*D32
 70
0
 10
0
 20
0
 30
0
  0
LINE
  8
DIMENSION
 10
50
 20
-0.625
 30
0
 11
50
 21
-101.25
 31
0
  0
LINE
  8
DIMENSION
 10
200
 20
-0.625
 30
0
 11
200
 21
-101.25
 31
0
  0
LINE
  8
DIMENSION
 10
50
 20
-100
 30
0
 11
200
 21
-100
 31
0
  0
TEXT
  8
DIMENSION
 10
125
 20
-100
 30
0
 40
2.5
  1
150
  0
ENDBLK
  8
0
  0
BLOCK
  8
0
  2
*D33
 70
0
 10
0
 20
0
 30
0
  0
LINE
  8
DIMENSION
 10
200
 20
-0.625
 30
0
 11
200
 21
-101.25
 31
0
  0
LINE
  8
DIMENSION
 10
250
 20
-0.625
 30
0
 11
250
 21
-101.25
 31
0
  0
LINE
  8
DIMENSION
 10
200
 20
-100
 30
0
 11
250
 21
-100
 31
0
  0
TEXT
  8
DIMENSION
 10
225
 20
-100
 30
0
 40
2.5
  1
50
  0
ENDBLK
  8
0
  0
BLOCK
  8
0
  2
*D34
 70
0
 10
0
 20
0
 30
0
  0
LINE
  8
DIMENSION
 10
500
 20
-0.625
 30
0
 11
500
 21
-101.25
 31
0
  0
LINE
  8
DIMENSION
 10
555
 20
-0.625
 30
0
 11
555
 21
-101.25
 31
0
  0
LINE
  8
DIMENSION
 10
500
 20
-100
 30
0
 11
555
 21
-100
 31
0
  0
TEXT
  8
DIMENSION
 10
527.5
 20
-100
 30
0
 40
2.5
  1
55
  0
ENDBLK
  8
0
  0
BLOCK
  8
0
  2
*D35
 70
0
 10
0
 20
0
 30
0
  0
LINE
  8
DIMENSION
 10
555
 20
-0.625
 30
0
 11
555
 21
-101.25
 31
0
  0
LINE
  8
DIMENSION
 10
595
 20
-0.625
 30
0
 11
595
 21
-101.25
 31
0
  0
LINE
  8
DIMENSION
 10
555
 20
-100
 30
0
 11
595
 21
-100
 31
0
  0
TEXT
  8
DIMENSION
 10
575
 20
-100
 30
0
 40
2.5
  1
40
  0
ENDBLK
  8
0
  0
BLOCK
  8
0
  2
*D36
 70
0
 10
0
 20
0
 30
0
  0
LINE
  8
DIMENSION
 10
595
 20
-0.625
 30
0
 11
595
 21
-101.25
 31
0
  0
LINE
  8
DIMENSION
 10
655
 20
-0.625
 30
0
 11
655
 21
-101.25
 31
0
  0
LINE
  8
DIMENSION
 10
595
 20
-100
 30
0
 11
655
 21
-100
 31
0
  0
TEXT
  8
DIMENSION
 10
625
 20
-100
 30
0
 40
2.5
  1
60
  0
ENDBLK
  8
0
  0
BLOCK
  8
0
  2
*D37
 70
0
 10
0
 20
0
 30
0
  0
LINE
  8
DIMENSION
 10
655
 20
-0.625
 30
0
 11
655
 21
-101.25
 31
0
  0
LINE
  8
DIMENSION
 10
695
 20
-0.625
 30
0
 11
695
 21
-101.25
 31
0
  0
LINE
  8
DIMENSION
 10
655
 20
-100
 30
0
 11
695
 21
-100
 31
0
  0
TEXT
  8
DIMENSION
 10
675
 20
-100
 30
0
 40
2.5
  1
40
  0
ENDBLK
  8
0
  0
BLOCK
  8
0
  2
*D38
 70
0
 10
0
 20
0
 30
0
  0
LINE
  8
DIMENSION
 10
695
 20
-0.625
 30
0
 11
695
 21
-101.25
 31
0
  0
LINE
  8
DIMENSION
 10
750
 20
-0.625
 30
0
 11
750
 21
-101.25
 31
0
  0
LINE
  8
DIMENSION
 10
695
 20
-100
 30
0
 11
750
 21
-100
 31
0
  0
TEXT
  8
DIMENSION
 10
722.5
 20
-100
 30
0
 40
2.5
  1
55
  0
ENDBLK
  8
0
  0
BLOCK
  8
0
  2
*D39
 70
0
 10
0
 20
0
 30
0
  0
LINE
  8
DIMENSION
 10
750.625
 20
360
 30
0
 11
851.25
 21
360
 31
0
  0
LINE
  8
DIMENSION
 10
750.625
 20
650
 30
0
 11
851.25
 21
650
 31
0
  0
LINE
  8
DIMENSION
 10
850
 20
360
 30
0
 11
850
 21
650
 31
0
  0
TEXT
  8
DIMENSION
 10
850
 20
505
 30
0
 40
2.5
  1
290
 50
90
  0
ENDBLK
  8
0
  0
BLOCK
  8
0
  2
*D40
 70
0
 10
0
 20
0
 30
0
  0
LINE
  8
DIMENSION
 10
555
 20
650.625
 30
0
 11
555
 21
701.25
 31
0
  0
LINE
  8
DIMENSION
 10
695
 20
650.625
 30
0
 11
695
 21
701.25
 31
0
  0
LINE
  8
DIMENSION
 10
555
 20
700
 30
0
 11
695
 21
700
 31
0
  0
TEXT
  8
DIMENSION
 10
625
 20
700
 30
0
 40
2.5
  1
140
  0
ENDBLK
  8
0
  0
BLOCK
  8
0
  2
*D41
 70
0
 10
0
 20
0
 30
0
  0
LINE
  8
DIMENSION
 10
250.625
 20
510
 30
0
 11
351.25
 21
510
 31
0
  0
LINE
  8
DIMENSION
 10
250.625
 20
550
 30
0
 11
351.25
 21
550
 31
0
  0
LINE
  8
DIMENSION
 10
350
 20
510
 30
0
 11
350
 21
550
 31
0
  0
TEXT
  8
DIMENSION
 10
350
 20
530
 30
0
 40
2.5
  1
40
 50
90
  0
ENDBLK
  8
0
  0
BLOCK
  8
0
  2
*D42
 70
0
 10
0
 20
0
 30
0
  0
LINE
  8
DIMENSION
 10
250.625
 20
550
 30
0
 11
351.25
 21
550
 31
0
  0
LINE
  8
DIMENSION
 10
250.625
 20
610
 30
0
 11
351.25
 21
610
 31
0
  0
LINE
  8
DIMENSION
 10
350
 20
550
 30
0
 11
350
 21
610
 31
0
  0
TEXT
  8
DIMENSION
 10
350
 20
580
 30
0
 40
2.5
  1
60
 50
90
  0
ENDBLK
  8
0
  0
BLOCK
  8
0
  2
*D43
 70
0
 10
0
 20
0
 30
0
  0
LINE
  8
DIMENSION
 10
250.625
 20
610
 30
0
 11
351.25
 21
610
 31
0
  0
LINE
  8
DIMENSION
 10
250.625
 20
670
 30
0
 11
351.25
 21
670
 31
0
  0
LINE
  8
DIMENSION
 10
350
 20
610
 30
0
 11
350
 21
670
 31
0
  0
TEXT
  8
DIMENSION
 10
350
 20
640
 30
0
 40
2.5
  1
60
 50
90
  0
ENDBLK
  8
0
  0
BLOCK
  8
0
  2
*D44
 70
0
 10
0
 20
0
 30
0
  0
LINE
  8
DIMENSION
 10
250.625
 20
670
 30
0
 11
351.25
 21
670
 31
0
  0
LINE
  8
DIMENSION
 10
250.625
 20
710
 30
0
 11
351.25
 21
710
 31
0
  0
LINE
  8
DIMENSION
 10
350
 20
670
 30
0
 11
350
 21
710
 31
0
  0
TEXT
  8
DIMENSION
 10
350
 20
690
 30
0
 40
2.5
  1
40
 50
90
  0
ENDBLK
  8
0
  0
BLOCK
  8
0
  2
*D45
 70
0
 10
0
 20
0
 30
0
  0
LINE
  8
DIMENSION
 10
695.625
 20
360
 30
0
 11
851.25
 21
360
 31
0
  0
LINE
  8
DIMENSION
 10
695.625
 20
400
 30
0
 11
851.25
 21
400
 31
0
  0
LINE
  8
DIMENSION
 10
850
 20
360
 30
0
 11
850
 21
400
 31
0
  0
TEXT
  8
DIMENSION
 10
850
 20
380
 30
0
 40
2.5
  1
40
 50
90
  0
ENDBLK
  8
0
  0
BLOCK
  8
0
  2
*D46
 70
0
 10
0
 20
0
 30
0
  0
LINE
  8
DIMENSION
 10
695.625
 20
400
 30
0
 11
851.25
 21
400
 31
0
  0
LINE
  8
DIMENSION
 10
695.625
 20
460
 30
0
 11
851.25
 21
460
 31
0
  0
LINE
  8
DIMENSION
 10
850
 20
400
 30
0
 11
850
 21
460
 31
0
  0
TEXT
  8
DIMENSION
 10
850
 20
430
 30
0
 40
2.5
  1
60
 50
90
  0
ENDBLK
  8
0
  0
BLOCK
  8
0
  2
*D47
 70
0
 10
0
 20
0
 30
0
  0
LINE
  8
DIMENSION
 10
695.625
 20
460
 30
0
 11
851.25
 21
460
 31
0
  0
LINE
  8
DIMENSION
 10
695.625
 20
500
 30
0
 11
851.25
 21
500
 31
0
  0
LINE
  8
DIMENSION
 10
850
 20
460
 30
0
 11
850
 21
500
 31
0
  0
TEXT
  8
DIMENSION
 10
850
 20
480
 30
0
 40
2.5
  1
40
 50
90
  0
ENDBLK
  8
0
  0
BLOCK
  8
0
  2
*D48
 70
0
 10
0
 20
0
 30
0
  0
LINE
  8
DIMENSION
 10
0
 20
-0.625
 30
0
 11
0
 21
-201.25
 31
0
  0
LINE
  8
DIMENSION
 10
250
 20
-0.625
 30
0
 11
250
 21
-201.25
 31
0
  0
LINE
  8
DIMENSION
 10
0
 20
-200
 30
0
 11
250
 21
-200
 31
0
  0
TEXT
  8
DIMENSION
 10
125
 20
-200
 30
0
 40
2.5
  1
250
  0
ENDBLK
  8
0
  0
BLOCK
  8
0
  2
*D49
 70
0
 10
0
 20
0
 30
0
  0
LINE
  8
DIMENSION
 10
500
 20
-0.625
 30
0
 11
500
 21
-201.25
 31
0
  0
LINE
  8
DIMENSION
 10
750
 20
-0.625
 30
0
 11
750
 21
-201.25
 31
0
  0
LINE
  8
DIMENSION
 10
500
 20
-200
 30
0
 11
750
 21
-200
 31
0
  0
TEXT
  8
DIMENSION
 10
625
 20
-200
 30
0
 40
2.5
  1
250
  0
ENDBLK
  8
0
  0
BLOCK
  8
0
  2
*D50
 70
0
 10
0
 20
0
 30
0
  0
LINE
  8
DIMENSION
 10
695.625
 20
510
 30
0
 11
951.25
 21
510
 31
0
  0
LINE
  8
DIMENSION
 10
695.625
 20
550
 30
0
 11
951.25
 21
550
 31
0
  0
LINE
  8
DIMENSION
 10
950
 20
510
 30
0
 11
950
 21
550
 31
0
  0
TEXT
  8
DIMENSION
 10
950
 20
530
 30
0
 40
2.5
  1
40
 50
90
  0
ENDBLK
  8
0
  0
BLOCK
  8
0
  2
*D51
 70
0
 10
0
 20
0
 30
0
  0
LINE
  8
DIMENSION
 10
695.625
 20
550
 30
0
 11
951.25
 21
550
 31
0
  0
LINE
  8
DIMENSION
 10
695.625
 20
610
 30
0
 11
951.25
 21
610
 31
0
  0
LINE
  8
DIMENSION
 10
950
 20
550
 30
0
 11
950
 21
610
 31
0
  0
TEXT
  8
DIMENSION
 10
950
 20
580
 30
0
 40
2.5
  1
60
 50
90
  0
ENDBLK
  8
0
  0
BLOCK
  8
0
  2
*D52
 70
0
 10
0
 20
0
 30
0
  0
LINE
  8
DIMENSION
 10
695.625
 20
610
 30
0
 11
951.25
 21
610
 31
0
  0
LINE
  8
DIMENSION
 10
695.625
 20
650
 30
0
 11
951.25
 21
650
 31
0
  0
LINE
  8
DIMENSION
 10
950
 20
610
 30
0
 11
950
 21
650
 31
0
  0
TEXT
  8
DIMENSION
 10
950
 20
630
 30
0
 40
2.5
  1
40
 50
90
  0
ENDBLK
  8
0
  0
BLOCK
  8
0
  2
*D53
 70
0
 10
0
 20
0
 30
0
  0
LINE
  8
DIMENSION
 10
250.625
 20
300
 30
0
 11
351.25
 21
300
 31
0
  0
LINE
  8
DIMENSION
 10
250.625
 20
340
 30
0
 11
351.25
 21
340
 31
0
  0
LINE
  8
DIMENSION
 10
350
 20
300
 30
0
 11
350
 21
340
 31
0
  0
TEXT
  8
DIMENSION
 10
350
 20
320
 30
0
 40
2.5
  1
40
 50
90
  0
ENDBLK
  8
0
  0
BLOCK
  8
0
  2
*D54
 70
0
 10
0
 20
0
 30
0
  0
LINE
  8
DIMENSION
 10
250.625
 20
340
 30
0
 11
351.25
 21
340
 31
0
  0
LINE
  8
DIMENSION
 10
250.625
 20
400
 30
0
 11
351.25
 21
400
 31
0
  0
LINE
  8
DIMENSION
 10
350
 20
340
 30
0
 11
350
 21
400
 31
0
  0
TEXT
  8
DIMENSION
 10
350
 20
370
 30
0
 40
2.5
  1
60
 50
90
  0
ENDBLK
  8
0
  0
BLOCK
  8
0
  2
*D55
 70
0
 10
0
 20
0
 30
0
  0
LINE
  8
DIMENSION
 10
250.625
 20
400
 30
0
 11
351.25
 21
400
 31
0
  0
LINE
  8
DIMENSION
 10
250.625
 20
460
 30
0
 11
351.25
 21
460
 31
0
  0
LINE
  8
DIMENSION
 10
350
 20
400
 30
0
 11
350
 21
460
 31
0
  0
TEXT
  8
DIMENSION
 10
350
 20
430
 30
0
 40
2.5
  1
60
 50
90
  0
ENDBLK
  8
0
  0
BLOCK
  8
0
  2
*D56
 70
0
 10
0
 20
0
 30
0
  0
LINE
  8
DIMENSION
 10
250.625
 20
460
 30
0
 11
351.25
 21
460
 31
0
  0
LINE
  8
DIMENSION
 10
250.625
 20
500
 30
0
 11
351.25
 21
500
 31
0
  0
LINE
  8
DIMENSION
 10
350
 20
460
 30
0
 11
350
 21
500
 31
0
  0
TEXT
  8
DIMENSION
 10
350
 20
480
 30
0
 40
2.5
  1
40
 50
90
  0
ENDBLK
  8
0
  0
BLOCK
  8
0
  2
*D57
 70
0
 10
0
 20
0
 30
0
  0
LINE
  8
DIMENSION
 10
750.625
 20
360
 30
0
 11
851.25
 21
360
 31
0
  0
LINE
  8
DIMENSION
 10
750.625
 20
650
 30
0
 11
851.25
 21
650
 31
0
  0
LINE
  8
DIMENSION
 10
850
 20
360
 30
0
 11
850
 21
650
 31
0
  0
TEXT
  8
DIMENSION
 10
850
 20
505
 30
0
 40
2.5
  1
290
 50
90
  0
ENDBLK
  8
0
  0
BLOCK
  8
0
  2
*D58
 70
0
 10
0
 20
0
 30
0
  0
LINE
  8
DIMENSION
 10
555
 20
650.625
 30
0
 11
555
 21
701.25
 31
0
  0
LINE
  8
DIMENSION
 10
695
 20
650.625
 30
0
 11
695
 21
701.25
 31
0
  0
LINE
  8
DIMENSION
 10
555
 20
700
 30
0
 11
695
 21
700
 31
0
  0
TEXT
  8
DIMENSION
 10
625
 20
700
 30
0
 40
2.5
  1
140
  0
ENDBLK
  8
0
  0
BLOCK
  8
0
  2
*D59
 70
0
 10
0
 20
0
 30
0
  0
LINE
  8
DIMENSION
 10
250.625
 20
340
 30
0
 11
351.25
 21
340
 31
0
  0
LINE
  8
DIMENSION
 10
250.625
 20
400
 30
0
 11
351.25
 21
400
 31
0
  0
LINE
  8
DIMENSION
 10
350
 20
340
 30
0
 11
350
 21
400
 31
0
  0
TEXT
  8
DIMENSION
 10
350
 20
370
 30
0
 40
2.5
  1
60
 50
90
  0
ENDBLK
  8
0
  0
BLOCK
  8
0
  2
*D60
 70
0
 10
0
 20
0
 30
0
  0
LINE
  8
DIMENSION
 10
250.625
 20
400
 30
0
 11
351.25
 21
400
 31
0
  0
LINE
  8
DIMENSION
 10
250.625
 20
460
 30
0
 11
351.25
 21
460
 31
0
  0
LINE
  8
DIMENSION
 10
350
 20
400
 30
0
 11
350
 21
460
 31
0
  0
TEXT
  8
DIMENSION
 10
350
 20
430
 30
0
 40
2.5
  1
60
 50
90
  0
ENDBLK
  8
0
  0
BLOCK
  8
0
  2
*D61
 70
0
 10
0
 20
0
 30
0
  0
LINE
  8
DIMENSION
 10
250.625
 20
550
 30
0
 11
351.25
 21
550
 31
0
  0
LINE
  8
DIMENSION
 10
250.625
 20
610
 30
0
 11
351.25
 21
610
 31
0
  0
LINE
  8
DIMENSION
 10
350
 20
550
 30
0
 11
350
 21
610
 31
0
  0
TEXT
  8
DIMENSION
 10
350
 20
580
 30
0
 40
2.5
  1
60
 50
90
  0
ENDBLK
  8
0
  0
BLOCK
  8
0
  2
*D62
 70
0
 10
0
 20
0
 30
0
  0
LINE
  8
DIMENSION
 10
250.625
 20
300
 30
0
 11
451.25
 21
300
 31
0
  0
LINE
  8
DIMENSION
 10
250.625
 20
710
 30
0
 11
451.25
 21
710
 31
0
  0
LINE
  8
DIMENSION
 10
450
 20
300
 30
0
 11
450
 21
710
 31
0
  0
TEXT
  8
DIMENSION
 10
450
 20
505
 30
0
 40
2.5
  1
410
 50
90
  0
ENDBLK
  8
0
  0
BLOCK
  8
0
  2
*D63
 70
0
 10
0
 20
0
 30
0
  0
LINE
  8
U-ANNO-DIM
 10
250.625
 20
350
 30
0
 11
261.25
 21
350
 31
0
  0
LINE
  8
U-ANNO-DIM
 10
250.625
 20
380
 30
0
 11
261.25
 21
380
 31
0
  0
LINE
  8
U-ANNO-DIM
 10
260
 20
350
 30
0
 11
260
 21
380
 31
0
  0
TEXT
  8
U-ANNO-DIM
 10
260
 20
365
 30
0
 40
2.5
  1
30
 50
90
  0
ENDBLK
  8
0
  0
BLOCK
  8
0
  2
*D64
 70
0
 10
0
 20
0
 30
0
  0
LINE
  8
U-ANNO-DIM
 10
250.625
 20
380
 30
0
 11
261.25
 21
380
 31
0
  0
LINE
  8
U-ANNO-DIM
 10
250.625
 20
440
 30
0
 11
261.25
 21
440
 31
0
  0
LINE
  8
U-ANNO-DIM
 10
260
 20
380
 30
0
 11
260
 21
440
 31
0
  0
TEXT
  8
U-ANNO-DIM
 10
260
 20
410
 30
0
 40
2.5
  1
60
 50
90
  0
ENDBLK
  8
0
  0
BLOCK
  8
0
  2
*D65
 70
0
 10
0
 20
0
 30
0
  0
LINE
  8
U-ANNO-DIM
 10
250.625
 20
440
 30
0
 11
261.25
 21
440
 31
0
  0
LINE
  8
U-ANNO-DIM
 10
250.625
 20
500
 30
0
 11
261.25
 21
500
 31
0
  0
LINE
  8
U-ANNO-DIM
 10
260
 20
440
 30
0
 11
260
 21
500
 31
0
  0
TEXT
  8
U-ANNO-DIM
 10
260
 20
470
 30
0
 40
2.5
  1
60
 50
90
  0
ENDBLK
  8
0
  0
BLOCK
  8
0
  2
*D66
 70
0
 10
0
 20
0
 30
0
  0
LINE
  8
U-ANNO-DIM
 10
250.625
 20
500
 30
0
 11
261.25
 21
500
 31
0
  0
LINE
  8
U-ANNO-DIM
 10
250.625
 20
560
 30
0
 11
261.25
 21
560
 31
0
  0
LINE
  8
U-ANNO-DIM
 10
260
 20
500
 30
0
 11
260
 21
560
 31
0
  0
TEXT
  8
U-ANNO-DIM
 10
260
 20
530
 30
0
 40
2.5
  1
60
 50
90
  0
ENDBLK
  8
0
  0
BLOCK
  8
0
  2
*D67
 70
0
 10
0
 20
0
 30
0
  0
LINE
  8
U-ANNO-DIM
 10
250.625
 20
560
 30
0
 11
261.25
 21
560
 31
0
  0
LINE
  8
U-ANNO-DIM
 10
250.625
 20
620
 30
0
 11
261.25
 21
620
 31
0
  0
LINE
  8
U-ANNO-DIM
 10
260
 20
560
 30
0
 11
260
 21
620
 31
0
  0
TEXT
  8
U-ANNO-DIM
 10
260
 20
590
 30
0
 40
2.5
  1
60
 50
90
  0
ENDBLK
  8
0
  0
BLOCK
  8
0
  2
*D68
 70
0
 10
0
 20
0
 30
0
  0
LINE
  8
U-ANNO-DIM
 10
250.625
 20
620
 30
0
 11
261.25
 21
620
 31
0
  0
LINE
  8
U-ANNO-DIM
 10
250.625
 20
650
 30
0
 11
261.25
 21
650
 31
0
  0
LINE
  8
U-ANNO-DIM
 10
260
 20
620
 30
0
 11
260
 21
650
 31
0
  0
TEXT
  8
U-ANNO-DIM
 10
260
 20
635
 30
0
 40
2.5
  1
30
 50
90
  0
ENDBLK
  8
0
  0
BLOCK
  8
0
  2
*D69
 70
0
 10
0
 20
0
 30
0
  0
LINE
  8
U-ANNO-DIM
 10
250.625
 20
350
 30
0
 11
269.25
 21
350
 31
0
  0
LINE
  8
U-ANNO-DIM
 10
250.625
 20
650
 30
0
 11
269.25
 21
650
 31
0
  0
LINE
  8
U-ANNO-DIM
 10
268
 20
350
 30
0
 11
268
 21
650
 31
0
  0
TEXT
  8
U-ANNO-DIM
 10
268
 20
500
 30
0
 40
2.5
  1
300
 50
90
  0
ENDBLK
  8
0
  0
BLOCK
  8
0
  2
*D70
 70
0
 10
0
 20
0
 30
0
  0
LINE
  8
0
 10
155
 20
620
 30
0
 11
197.79948145837497
 21
620
 31
0
  0
LINE
  8
0
 10
155
 20
500
 30
0
 11
197.79948145837497
 21
500
 31
0
  0
LINE
  8
0
 10
195.99948145837496
 20
620
 30
0
 11
195.99948145837496
 21
500
 31
0
  0
LINE
  8
0
 10
195.99948145837496
 20
620
 30
0
 11
194.91948145837495
 21
616.4
 31
0
  0
LINE
  8
0
 10
195.99948145837496
 20
620
 30
0
 11
197.07948145837497
 21
616.4
 31
0
  0
LINE
  8
0
 10
195.99948145837496
 20
500
 30
0
 11
197.07948145837497
 21
503.6
 31
0
  0
LINE
  8
0
 10
195.99948145837496
 20
500
 30
0
 11
194.91948145837495
 21
503.6
 31
0
  0
TEXT
  8
0
 10
195.99948145837496
 20
560
 30
0
 40
3.5999999999999996
  1
120.00
 50
90
  0
ENDBLK
  8
0
  0
BLOCK
  8
0
  2
*D71
 70
0
 10
0
 20
0
 30
0
  0
LINE
  8
0
 10
95
 20
500
 30
0
 11
95
 21
531.409891071018
 31
0
  0
LINE
  8
0
 10
155
 20
500
 30
0
 11
155
 21
531.409891071018
 31
0
  0
LINE
  8
0
 10
95
 20
530.509891071018
 30
0
 11
155
 21
530.509891071018
 31
0
  0
LINE
  8
0
 10
95
 20
530.509891071018
 30
0
 11
96.8
 21
529.9698910710181
 31
0
  0
LINE
  8
0
 10
95
 20
530.509891071018
 30
0
 11
96.8
 21
531.049891071018
 31
0
  0
LINE
  8
0
 10
155
 20
530.509891071018
 30
0
 11
153.2
 21
531.049891071018
 31
0
  0
LINE
  8
0
 10
155
 20
530.509891071018
 30
0
 11
153.2
 21
529.9698910710181
 31
0
  0
TEXT
  8
0
 10
125
 20
530.509891071018
 30
0
 40
1.7999999999999998
  1
60.00
  0
ENDBLK
  8
0
  0
BLOCK
  8
0
  2
*D72
 70
0
 10
0
 20
0
 30
0
  0
LINE
  8
0
 10
95
 20
380
 30
0
 11
95
 21
323.57650111420884
 31
0
  0
LINE
  8
0
 10
155
 20
380
 30
0
 11
155
 21
323.57650111420884
 31
0
  0
LINE
  8
0
 10
95
 20
328.07650111420884
 30
0
 11
155
 21
328.07650111420884
 31
0
  0
LINE
  8
0
 10
95
 20
328.07650111420884
 30
0
 11
104
 21
325.37650111420885
 31
0
  0
LINE
  8
0
 10
95
 20
328.07650111420884
 30
0
 11
104
 21
330.7765011142088
 31
0
  0
LINE
  8
0
 10
155
 20
328.07650111420884
 30
0
 11
146
 21
330.7765011142088
 31
0
  0
LINE
  8
0
 10
155
 20
328.07650111420884
 30
0
 11
146
 21
325.37650111420885
 31
0
  0
TEXT
  8
0
 10
125
 20
328.07650111420884
 30
0
 40
9
  1
60.00
  0
ENDBLK
  8
0
  0
BLOCK
  8
0
  2
*D73
 70
0
 10
0
 20
0
 30
0
  0
LINE
  8
0
 10
95
 20
380
 30
0
 11
95
 21
443.35252449182764
 31
0
  0
LINE
  8
0
 10
95
 20
440
 30
0
 11
95
 21
435.85252449182764
 31
0
  0
LINE
  8
0
 10
95
 20
439.60252449182764
 30
0
 11
95
 21
439.60252449182764
 31
0
  0
TEXT
  8
0
 10
95
 20
439.60252449182764
 30
0
 40
7.5
  1
0.00
  0
ENDBLK
  8
0
  0
BLOCK
  8
0
  2
*D74
 70
0
 10
0
 20
0
 30
0
  0
LINE
  8
0
 10
95
 20
560
 30
0
 11
50.603877262789126
 21
560
 31
0
  0
LINE
  8
0
 10
95
 20
620
 30
0
 11
50.603877262789126
 21
620
 31
0
  0
LINE
  8
0
 10
55.103877262789126
 20
560
 30
0
 11
55.103877262789126
 21
620
 31
0
  0
LINE
  8
0
 10
55.103877262789126
 20
560
 30
0
 11
57.80387726278913
 21
569
 31
0
  0
LINE
  8
0
 10
55.103877262789126
 20
560
 30
0
 11
52.40387726278912
 21
569
 31
0
  0
LINE
  8
0
 10
55.103877262789126
 20
620
 30
0
 11
52.40387726278912
 21
611
 31
0
  0
LINE
  8
0
 10
55.103877262789126
 20
620
 30
0
 11
57.80387726278913
 21
611
 31
0
  0
TEXT
  8
0
 10
55.103877262789126
 20
590
 30
0
 40
9
  1
60.00
 50
90
  0
ENDBLK
  8
0
  0
BLOCK
  8
0
  2
*D75
 70
0
 10
0
 20
0
 30
0
  0
LINE
  8
0
 10
120.5
 20
0
 30
0
 11
120.5
 21
90.129436264601
 31
0
  0
LINE
  8
0
 10
0
 20
0
 30
0
 11
0
 21
90.129436264601
 31
0
  0
LINE
  8
0
 10
120.5
 20
81.091936264601
 30
0
 11
0
 21
81.091936264601
 31
0
  0
LINE
  8
0
 10
120.5
 20
81.091936264601
 30
0
 11
102.425
 21
86.514436264601
 31
0
  0
LINE
  8
0
 10
120.5
 20
81.091936264601
 30
0
 11
102.425
 21
75.669436264601
 31
0
  0
LINE
  8
0
 10
0
 20
81.091936264601
 30
0
 11
18.075
 21
75.669436264601
 31
0
  0
LINE
  8
0
 10
0
 20
81.091936264601
 30
0
 11
18.075
 21
86.514436264601
 31
0
  0
TEXT
  8
0
 10
60.25
 20
81.091936264601
 30
0
 40
18.075
  1
120.50
  0
ENDBLK
  8
0
  0
ENDSEC
  0
SECTION
  2
ENTITIES
  0
LINE
  8
A-GRID
 10
0
 20
-500
 30
0
 11
0
 21
8500
 31
0
  0
LINE
  8
A-GRID
 10
6000
 20
-500
 30
0
 11
6000
 21
8500
 31
0
  0
LINE
  8
A-GRID
 10
12000
 20
-500
 30
0
 11
12000
 21
8500
 31
0
  0
LINE
  8
A-GRID
 10
-500
 20
0
 30
0
 11
12500
 21
0
 31
0
  0
LINE
  8
A-GRID
 10
-500
 20
4000
 30
0
 11
12500
 21
4000
 31
0
  0
LINE
  8
A-GRID
 10
-500
 20
8000
 30
0
 11
12500
 21
8000
 31
0
  0
CIRCLE
  8
A-GRID
 10
0
 20
-800
 30
0
 40
300
  0
CIRCLE
  8
A-GRID
 10
6000
 20
-800
 30
0
 40
300
  0
CIRCLE
  8
A-GRID
 10
12000
 20
-800
 30
0
 40
300
  0
CIRCLE
  8
A-GRID
 10
-800
 20
0
 30
0
 40
300
  0
CIRCLE
  8
A-GRID
 10
-800
 20
4000
 30
0
 40
300
  0
CIRCLE
  8
A-GRID
 10
-800
 20
8000
 30
0
 40
300
  0
TEXT
  8
A-GRID
 10
0
 20
-800
 30
0
 40
250
  1
1
  0
TEXT
  8
A-GRID
 10
6000
 20
-800
 30
0
 40
250
  1
2
  0
TEXT
  8
A-GRID
 10
12000
 20
-800
 30
0
 40
250
  1
3
  0
TEXT
  8
A-GRID
 10
-800
 20
0
 30
0
 40
250
  1
A
  0
TEXT
  8
A-GRID
 10
-800
 20
4000
 30
0
 40
250
  1
B
  0
TEXT
  8
A-GRID
 10
-800
 20
8000
 30
0
 40
250
  1
C
  0
LWPOLYLINE
  8
A-WALL
 90
4
 70
1
 10
0
 20
0
 10
12000
 20
0
 10
12000
 20
8000
 10
0
 20
8000
  0
TEXT
  8
A-TEXT
 10
6000
 20
4000
 30
0
 40
350
  1
ROOM
  0
TEXT
  8
A-TEXT
 10
6000
 20
3500
 30
0
 40
250
  1
96.0 m2
  0
ENDSEC
  0
EOF