  0
SECTION
  2
HEADER
  9
$ACADVER
  1
AC1015
  9
$INSUNITS
 70
0
  9
$EXTMIN
 10
-229.42662524463395
 20
-176.95671824316318
 30
0
  9
$EXTMAX
 10
-52.64662524463395
 20
-78.74671824316319
 30
0
  0
ENDSEC
  0
SECTION
  2
TABLES
  0
TABLE
  2
LTYPE
 70
7
  0
LTYPE
  2
CONTINUOUS
 70
0
  3
Solid line
 72
65
 73
0
 40
0
  0
LTYPE
  2
DASHED
 70
0
  3
Dashed line
 72
65
 73
2
 40
0.75
 49
0.5
 49
-0.25
  0
LTYPE
  2
HIDDEN
 70
0
  3
Hidden line
 72
65
 73
2
 40
9.525
 49
6.35
 49
-3.175
  0
LTYPE
  2
CENTER
 70
0
  3
Center line
 72
65
 73
4
 40
50.8
 49
31.75
 49
-6.35
 49
6.35
 49
-6.35
  0
LTYPE
  2
DASHDOT
 70
0
  3
Dash dot line
 72
65
 73
4
 40
25.4
 49
12.7
 49
-6.35
 49
0
 49
-6.35
  0
LTYPE
  2
PHANTOM
 70
0
  3
Phantom line
 72
65
 73
6
 40
63.5
 49
31.75
 49
-6.35
 49
6.35
 49
-6.35
 49
6.35
 49
-6.35
  0
LTYPE
  2
DOT
 70
0
  3
Dotted line
 72
65
 73
2
 40
6.35
 49
0
 49
-6.35
  0
ENDTAB
  0
TABLE
  2
LAYER
 70
36
  0
LAYER
  2
0
 70
0
 62
7
  6
CONTINUOUS
  0
LAYER
  2
STAIR_STR
 70
0
 62
7
  6
CONTINUOUS
  0
LAYER
  2
STAIR_REBAR
 70
0
 62
1
  6
CONTINUOUS
  0
LAYER
  2
STAIR_HATCH
 70
0
 62
8
  6
CONTINUOUS
  0
LAYER
  2
COLUMN
 70
0
 62
7
  6
CONTINUOUS
  0
LAYER
  2
BEAM
 70
0
 62
4
  6
CONTINUOUS
  0
LAYER
  2
CONNECTION
 70
0
 62
2
  6
CONTINUOUS
  0
LAYER
  2
LABEL
 70
0
 62
7
  6
CONTINUOUS
  0
LAYER
  2
HIDDEN
 70
0
 62
6
  6
CONTINUOUS
  0
LAYER
  2
DIMENSION
 70
0
 62
3
  6
CONTINUOUS
  0
LAYER
  2
PLATE
 70
0
 62
4
  6
CONTINUOUS
  0
LAYER
  2
BOLT
 70
0
 62
2
  6
CONTINUOUS
  0
LAYER
  2
S-BEAM-CUT
 70
0
 62
4
  6
CONTINUOUS
  0
LAYER
  2
S-PLAT-CUT
 70
0
 62
3
  6
CONTINUOUS
  0
LAYER
  2
S-BOLT-STD
 70
0
 62
2
  6
CONTINUOUS
  0
LAYER
  2
S-MISC-HID
 70
0
 62
8
  6
CONTINUOUS
  0
LAYER
  2
S-GRID-CTR
 70
0
 62
1
  6
CONTINUOUS
  0
LAYER
  2
U-ANNO-DIM
 70
0
 62
7
  6
CONTINUOUS
  0
LAYER
  2
U-ANNO-TXT
 70
0
 62
7
  6
CONTINUOUS
  0
LAYER
  2
OUTLINE_TRACE
 70
0
 62
3
  6
CONTINUOUS
  0
LAYER
  2
A-GRID
 70
0
 62
8
  6
CONTINUOUS
  0
LAYER
  2
A-WALL
 70
0
 62
7
  6
CONTINUOUS
  0
LAYER
  2
A-TEXT
 70
0
 62
7
  6
CONTINUOUS
  0
LAYER
  2
A-DIM
 70
0
 62
7
  6
CONTINUOUS
  0
LAYER
  2
PURLIN
 70
0
 62
3
  6
CONTINUOUS
  0
LAYER
  2
BRACING
 70
0
 62
5
  6
CONTINUOUS
  0
LAYER
  2
TRUSS
 70
0
 62
6
  6
CONTINUOUS
  0
LAYER
  2
FOUNDATION
 70
0
 62
8
  6
CONTINUOUS
  0
LAYER
  2
LINES_TOP
 70
0
 62
4
  6
CONTINUOUS
  0
LAYER
  2
LINES_MIDDLE
 70
0
 62
5
  6
CONTINUOUS
  0
LAYER
  2
LINES_BOTTOM
 70
0
 62
7
  6
CONTINUOUS
  0
LAYER
  2
ANNOTATION
 70
0
 62
7
  6
CONTINUOUS
  0
LAYER
  2
GRID
 70
0
 62
8
  6
CONTINUOUS
  0
LAYER
  2
OUTLINE
 70
0
 62
7
  6
CONTINUOUS
  0
LAYER
  2
AUTO_TRACE
 70
0
 62
5
  6
CONTINUOUS
  0
LAYER
  2
TRACE
 70
0
 62
7
  6
CONTINUOUS
  0
ENDTAB
  0
ENDSEC
  0
SECTION
  2
BLOCKS
  0
BLOCK
  8
0
  2
*D1
 70
0
 10
0
 20
0
 30
0
  0
LINE
  8
0
 10
0
 20
150.00000000000023
 30
0
 11
0
 21
405.09586448513653
 31
0
  0
LINE
  8
0
 10
300
 20
150.00000000000023
 30
0
 11
300
 21
405.09586448513653
 31
0
  0
LINE
  8
0
 10
0
 20
400.59586448513653
 30
0
 11
300
 21
400.59586448513653
 31
0
  0
LINE
  8
0
 10
0
 20
400.59586448513653
 30
0
 11
9
 21
397.89586448513654
 31
0
  0
LINE
  8
0
 10
0
 20
400.59586448513653
 30
0
 11
9
 21
403.2958644851365
 31
0
  0
LINE
  8
0
 10
300
 20
400.59586448513653
 30
0
 11
291
 21
403.2958644851365
 31
0
  0
LINE
  8
0
 10
300
 20
400.59586448513653
 30
0
 11
291
 21
397.89586448513654
 31
0
  0
TEXT
  8
0
 10
150
 20
400.59586448513653
 30
0
 40
9
  1
300.00
  0
ENDBLK
  8
0
  0
BLOCK
  8
0
  2
*D2
 70
0
 10
0
 20
0
 30
0
  0
LINE
  8
0
 10
0
 20
150.00000000000023
 30
0
 11
-113.88382644541531
 21
150.00000000000023
 31
0
  0
LINE
  8
0
 10
0
 20
-200
 30
0
 11
-113.88382644541531
 21
-200
 31
0
  0
LINE
  8
0
 10
-108.63382644541531
 20
150.00000000000023
 30
0
 11
-108.63382644541531
 21
-200
 31
0
  0
LINE
  8
0
 10
-108.63382644541531
 20
150.00000000000023
 30
0
 11
-111.78382644541531
 21
139.50000000000023
 31
0
  0
LINE
  8
0
 10
-108.63382644541531
 20
150.00000000000023
 30
0
 11
-105.4838264454153
 21
139.50000000000023
 31
0
  0
LINE
  8
0
 10
-108.63382644541531
 20
-200
 30
0
 11
-105.4838264454153
 21
-189.5
 31
0
  0
LINE
  8
0
 10
-108.63382644541531
 20
-200
 30
0
 11
-111.78382644541531
 21
-189.5
 31
0
  0
TEXT
  8
0
 10
-108.63382644541531
 20
-24.999999999999886
 30
0
 40
10.500000000000007
  1
350.00
 50
90
  0
ENDBLK
  8
0
  0
BLOCK
  8
0
  2
*D3
 70
0
 10
0
 20
0
 30
0
  0
LINE
  8
DIMENSION
 10
-0.625
 20
300
 30
0
 11
-101.25
 21
300
 31
0
  0
LINE
  8
DIMENSION
 10
-0.625
 20
710
 30
0
 11
-101.25
 21
710
 31
0
  0
LINE
  8
DIMENSION
 10
-100
 20
300
 30
0
 11
-100
 21
710
 31
0
  0
TEXT
  8
DIMENSION
 10
-100
 20
505
 30
0
 40
2.5
  1
410
 50
90
  0
ENDBLK
  8
0
  0
BLOCK
  8
0
  2
*D4
 70
0
 10
0
 20
0
 30
0
  0
LINE
  8
DIMENSION
 10
0
 20
-0.625
 30
0
 11
0
 21
-101.25
 31
0
  0
LINE
  8
DIMENSION
 10
250
 20
-0.625
 30
0
 11
250
 21
-101.25
 31
0
  0
LINE
  8
DIMENSION
 10
0
 20
-100
 30
0
 11
250
 21
-100
 31
0
  0
TEXT
  8
DIMENSION
 10
125
 20
-100
 30
0
 40
2.5
  1
250
  0
ENDBLK
  8
0
  0
BLOCK
  8
0
  2
*D5
 70
0
 10
0
 20
0
 30
0
  0
LINE
  8
DIMENSION
 10
0
 20
-0.625
 30
0
 11
0
 21
-51.25
 31
0
  0
LINE
  8
DIMENSION
 10
50
 20
-0.625
 30
0
 11
50
 21
-51.25
 31
0
  0
LINE
  8
DIMENSION
 10
0
 20
-50
 30
0
 11
50
 21
-50
 31
0
  0
TEXT
  8
DIMENSION
 10
25
 20
-50
 30
0
 40
2.5
  1
50
  0
ENDBLK
  8
0
  0
BLOCK
  8
0
  2
*D6
 70
0
 10
0
 20
0
 30
0
  0
LINE
  8
DIMENSION
 10
50
 20
-0.625
 30
0
 11
50
 21
-51.25
 31
0
  0
LINE
  8
DIMENSION
 10
200
 20
-0.625
 30
0
 11
200
 21
-51.25
 31
0
  0
LINE
  8
DIMENSION
 10
50
 20
-50
 30
0
 11
200
 21
-50
 31
0
  0
TEXT
  8
DIMENSION
 10
125
 20
-50
 30
0
 40
2.5
  1
150
  0
ENDBLK
  8
0
  0
BLOCK
  8
0
  2
*D7
 70
0
 10
0
 20
0
 30
0
  0
LINE
  8
DIMENSION
 10
200
 20
-0.625
 30
0
 11
200
 21
-51.25
 31
0
  0
LINE
  8
DIMENSION
 10
250
 20
-0.625
 30
0
 11
250
 21
-51.25
 31
0
  0
LINE
  8
DIMENSION
 10
200
 20
-50
 30
0
 11
250
 21
-50
 31
0
  0
TEXT
  8
DIMENSION
 10
225
 20
-50
 30
0
 40
2.5
  1
50
  0
ENDBLK
  8
0
  0
BLOCK
  8
0
  2
*D8
 70
0
 10
0
 20
0
 30
0
  0
LINE
  8
DIMENSION
 10
-0.625
 20
300
 30
0
 11
-51.25
 21
300
 31
0
  0
LINE
  8
DIMENSION
 10
-0.625
 20
340
 30
0
 11
-51.25
 21
340
 31
0
  0
LINE
  8
DIMENSION
 10
-50
 20
300
 30
0
 11
-50
 21
340
 31
0
  0
TEXT
  8
DIMENSION
 10
-50
 20
320
 30
0
 40
2.5
  1
40
 50
90
  0
ENDBLK
  8
0
  0
BLOCK
  8
0
  2
*D9
 70
0
 10
0
 20
0
 30
0
  0
LINE
  8
DIMENSION
 10
-0.625
 20
340
 30
0
 11
-51.25
 21
340
 31
0
  0
LINE
  8
DIMENSION
 10
-0.625
 20
400
 30
0
 11
-51.25
 21
400
 31
0
  0
LINE
  8
DIMENSION
 10
-50
 20
340
 30
0
 11
-50
 21
400
 31
0
  0
TEXT
  8
DIMENSION
 10
-50
 20
370
 30
0
 40
2.5
  1
60
 50
90
  0
ENDBLK
  8
0
  0
BLOCK
  8
0
  2
*D10
 70
0
 10
0
 20
0
 30
0
  0
LINE
  8
DIMENSION
 10
-0.625
 20
400
 30
0
 11
-51.25
 21
400
 31
0
  0
LINE
  8
DIMENSION
 10
-0.625
 20
460
 30
0
 11
-51.25
 21
460
 31
0
  0
LINE
  8
DIMENSION
 10
-50
 20
400
 30
0
 11
-50
 21
460
 31
0
  0
TEXT
  8
DIMENSION
 10
-50
 20
430
 30
0
 40
2.5
  1
60
 50
90
  0
ENDBLK
  8
0
  0
BLOCK
  8
0
  2
*D11
 70
0
 10
0
 20
0
 30
0
  0
LINE
  8
DIMENSION
 10
-0.625
 20
460
 30
0
 11
-51.25
 21
460
 31
0
  0
LINE
  8
DIMENSION
 10
-0.625
 20
500
 30
0
 11
-51.25
 21
500
 31
0
  0
LINE
  8
DIMENSION
 10
-50
 20
460
 30
0
 11
-50
 21
500
 31
0
  0
TEXT
  8
DIMENSION
 10
-50
 20
480
 30
0
 40
2.5
  1
40
 50
90
  0
ENDBLK
  8
0
  0
BLOCK
  8
0
  2
*D12
 70
0
 10
0
 20
0
 30
0
  0
LINE
  8
DIMENSION
 10
500
 20
-0.625
 30
0
 11
500
 21
-51.25
 31
0
  0
LINE
  8
DIMENSION
 10
555
 20
-0.625
 30
0
 11
555
 21
-51.25
 31
0
  0
LINE
  8
DIMENSION
 10
500
 20
-50
 30
0
 11
555
 21
-50
 31
0
  0
TEXT
  8
DIMENSION
 10
527.5
 20
-50
 30
0
 40
2.5
  1
55
  0
ENDBLK
  8
0
  0
BLOCK
  8
0
  2
*D13
 70
0
 10
0
 20
0
 30
0
  0
LINE
  8
DIMENSION
 10
555
 20
-0.625
 30
0
 11
555
 21
-51.25
 31
0
  0
LINE
  8
DIMENSION
 10
595
 20
-0.625
 30
0
 11
595
 21
-51.25
 31
0
  0
LINE
  8
DIMENSION
 10
555
 20
-50
 30
0
 11
595
 21
-50
 31
0
  0
TEXT
  8
DIMENSION
 10
575
 20
-50
 30
0
 40
2.5
  1
40
  0
ENDBLK
  8
0
  0
BLOCK
  8
0
  2
*D14
 70
0
 10
0
 20
0
 30
0
  0
LINE
  8
DIMENSION
 10
595
 20
-0.625
 30
0
 11
595
 21
-51.25
 31
0
  0
LINE
  8
DIMENSION
 10
655
 20
-0.625
 30
0
 11
655
 21
-51.25
 31
0
  0
LINE
  8
DIMENSION
 10
595
 20
-50
 30
0
 11
655
 21
-50
 31
0
  0
TEXT
  8
DIMENSION
 10
625
 20
-50
 30
0
 40
2.5
  1
60
  0
ENDBLK
  8
0
  0
BLOCK
  8
0
  2
*D15
 70
0
 10
0
 20
0
 30
0
  0
LINE
  8
DIMENSION
 10
655
 20
-0.625
 30
0
 11
655
 21
-51.25
 31
0
  0
LINE
  8
DIMENSION
 10
695
 20
-0.625
 30
0
 11
695
 21
-51.25
 31
0
  0
LINE
  8
DIMENSION
 10
655
 20
-50
 30
0
 11
695
 21
-50
 31
0
  0
TEXT
  8
DIMENSION
 10
675
 20
-50
 30
0
 40
2.5
  1
40
  0
ENDBLK
  8
0
  0
BLOCK
  8
0
  2
*D16
 70
0
 10
0
 20
0
 30
0
  0
LINE
  8
DIMENSION
 10
695
 20
-0.625
 30
0
 11
695
 21
-51.25
 31
0
  0
LINE
  8
DIMENSION
 10
750
 20
-0.625
 30
0
 11
750
 21
-51.25
 31
0
  0
LINE
  8
DIMENSION
 10
695
 20
-50
 30
0
 11
750
 21
-50
 31
0
  0
TEXT
  8
DIMENSION
 10
722.5
 20
-50
 30
0
 40
2.5
  1
55
  0
ENDBLK
  8
0
  0
BLOCK
  8
0
  2
*D17
 70
0
 10
0
 20
0
 30
0
  0
LINE
  8
DIMENSION
 10
750.625
 20
360
 30
0
 11
801.25
 21
360
 31
0
  0
LINE
  8
DIMENSION
 10
750.625
 20
650
 30
0
 11
801.25
 21
650
 31
0
  0
LINE
  8
DIMENSION
 10
800
 20
360
 30
0
 11
800
 21
650
 31
0
  0
TEXT
  8
DIMENSION
 10
800
 20
505
 30
0
 40
2.5
  1
290
 50
90
  0
ENDBLK
  8
0
  0
BLOCK
  8
0
  2
*D18
 70
0
 10
0
 20
0
 30
0
  0
LINE
  8
DIMENSION
 10
555
 20
650.625
 30
0
 11
555
 21
701.25
 31
0
  0
LINE
  8
DIMENSION
 10
695
 20
650.625
 30
0
 11
695
 21
701.25
 31
0
  0
LINE
  8
DIMENSION
 10
555
 20
700
 30
0
 11
695
 21
700
 31
0
  0
TEXT
  8
DIMENSION
 10
625
 20
700
 30
0
 40
2.5
  1
140
  0
ENDBLK
  8
0
  0
BLOCK
  8
0
  2
*D19
 70
0
 10
0
 20
0
 30
0
  0
LINE
  8
DIMENSION
 10
-0.625
 20
300
 30
0
 11
-151.25
 21
300
 31
0
  0
LINE
  8
DIMENSION
 10
-0.625
 20
710
 30
0
 11
-151.25
 21
710
 31
0
  0
LINE
  8
DIMENSION
 10
-150
 20
300
 30
0
 11
-150
 21
710
 31
0
  0
TEXT
  8
DIMENSION
 10
-150
 20
505
 30
0
 40
2.5
  1
410
 50
90
  0
ENDBLK
  8
0
  0
BLOCK
  8
0
  2
*D20
 70
0
 10
0
 20
0
 30
0
  0
LINE
  8
DIMENSION
 10
0
 20
299.375
 30
0
 11
0
 21
248.75
 31
0
  0
LINE
  8
DIMENSION
 10
100
 20
299.375
 30
0
 11
100
 21
248.75
 31
0
  0
LINE
  8
DIMENSION
 10
0
 20
250
 30
0
 11
100
 21
250
 31
0
  0
TEXT
  8
DIMENSION
 10
50
 20
250
 30
0
 40
2.5
  1
100
  0
ENDBLK
  8
0
  0
BLOCK
  8
0
  2
*D21
 70
0
 10
0
 20
0
 30
0
  0
LINE
  8
DIMENSION
 10
-0.625
 20
510
 30
0
 11
-51.25
 21
510
 31
0
  0
LINE
  8
DIMENSION
 10
-0.625
 20
550
 30
0
 11
-51.25
 21
550
 31
0
  0
LINE
  8
DIMENSION
 10
-50
 20
510
 30
0
 11
-50
 21
550
 31
0
  0
TEXT
  8
DIMENSION
 10
-50
 20
530
 30
0
 40
2.5
  1
40
 50
90
  0
ENDBLK
  8
0
  0
BLOCK
  8
0
  2
*D22
 70
0
 10
0
 20
0
 30
0
  0
LINE
  8
DIMENSION
 10
-0.625
 20
550
 30
0
 11
-51.25
 21
550
 31
0
  0
LINE
  8
DIMENSION
 10
-0.625
 20
610
 30
0
 11
-51.25
 21
610
 31
0
  0
LINE
  8
DIMENSION
 10
-50
 20
550
 30
0
 11
-50
 21
610
 31
0
  0
TEXT
  8
DIMENSION
 10
-50
 20
580
 30
0
 40
2.5
  1
60
 50
90
  0
ENDBLK
  8
0
  0
BLOCK
  8
0
  2
*D23
 70
0
 10
0
 20
0
 30
0
  0
LINE
  8
DIMENSION
 10
-0.625
 20
610
 30
0
 11
-51.25
 21
610
 31
0
  0
LINE
  8
DIMENSION
 10
-0.625
 20
670
 30
0
 11
-51.25
 21
670
 31
0
  0
LINE
  8
DIMENSION
 10
-50
 20
610
 30
0
 11
-50
 21
670
 31
0
  0
TEXT
  8
DIMENSION
 10
-50
 20
640
 30
0
 40
2.5
  1
60
 50
90
  0
ENDBLK
  8
0
  0
BLOCK
  8
0
  2
*D24
 70
0
 10
0
 20
0
 30
0
  0
LINE
  8
DIMENSION
 10
-0.625
 20
670
 30
0
 11
-51.25
 21
670
 31
0
  0
LINE
  8
DIMENSION
 10
-0.625
 20
710
 30
0
 11
-51.25
 21
710
 31
0
  0
LINE
  8
DIMENSION
 10
-50
 20
670
 30
0
 11
-50
 21
710
 31
0
  0
TEXT
  8
DIMENSION
 10
-50
 20
690
 30
0
 40
2.5
  1
40
 50
90
  0
ENDBLK
  8
0
  0
BLOCK
  8
0
  2
*D25
 70
0
 10
0
 20
0
 30
0
  0
LINE
  8
DIMENSION
 10
-0.625
 20
300
 30
0
 11
-101.25
 21
300
 31
0
  0
LINE
  8
DIMENSION
 10
-0.625
 20
710
 30
0
 11
-101.25
 21
710
 31
0
  0
LINE
  8
DIMENSION
 10
-100
 20
300
 30
0
 11
-100
 21
710
 31
0
  0
TEXT
  8
DIMENSION
 10
-100
 20
505
 30
0
 40
2.5
  1
410
 50
90
  0
ENDBLK
  8
0
  0
BLOCK
  8
0
  2
*D26
 70
0
 10
0
 20
0
 30
0
  0
LINE
  8
DIMENSION
 10
250.625
 20
300
 30
0
 11
351.25
 21
300
 31
0
  0
LINE
  8
DIMENSION
 10
250.625
 20
340
 30
0
 11
351.25
 21
340
 31
0
  0
LINE
  8
DIMENSION
 10
350
 20
300
 30
0
 11
350
 21
340
 31
0
  0
TEXT
  8
DIMENSION
 10
350
 20
320
 30
0
 40
2.5
  1
40
 50
90
  0
ENDBLK
  8
0
  0
BLOCK
  8
0
  2
*D27
 70
0
 10
0
 20
0
 30
0
  0
LINE
  8
DIMENSION
 10
250.625
 20
340
 30
0
 11
351.25
 21
340
 31
0
  0
LINE
  8
DIMENSION
 10
250.625
 20
400
 30
0
 11
351.25
 21
400
 31
0
  0
LINE
  8
DIMENSION
 10
350
 20
340
 30
0
 11
350
 21
400
 31
0
  0
TEXT
  8
DIMENSION
 10
350
 20
370
 30
0
 40
2.5
  1
60
 50
90
  0
ENDBLK
  8
0
  0
BLOCK
  8
0
  2
*D28
 70
0
 10
0
 20
0
 30
0
  0
LINE
  8
DIMENSION
 10
250.625
 20
400
 30
0
 11
351.25
 21
400
 31
0
  0
LINE
  8
DIMENSION
 10
250.625
 20
460
 30
0
 11
351.25
 21
460
 31
0
  0
LINE
  8
DIMENSION
 10
350
 20
400
 30
0
 11
350
 21
460
 31
0
  0
TEXT
  8
DIMENSION
 10
350
 20
430
 30
0
 40
2.5
  1
60
 50
90
  0
ENDBLK
  8
0
  0
BLOCK
  8
0
  2
*D29
 70
0
 10
0
 20
0
 30
0
  0
LINE
  8
DIMENSION
 10
250.625
 20
460
 30
0
 11
351.25
 21
460
 31
0
  0
LINE
  8
DIMENSION
 10
250.625
 20
500
 30
0
 11
351.25
 21
500
 31
0
  0
LINE
  8
DIMENSION
 10
350
 20
460
 30
0
 11
350
 21
500
 31
0
  0
TEXT
  8
DIMENSION
 10
350
 20
480
 30
0
 40
2.5
  1
40
 50
90
  0
ENDBLK
  8
0
  0
BLOCK
  8
0
  2
*D30
 70
0
 10
0
 20
0
 30
0
  0
LINE
  8
DIMENSION
 10
0
 20
299.375
 30
0
 11
0
 21
248.75
 31
0
  0
LINE
  8
DIMENSION
 10
100
 20
299.375
 30
0
 11
100
 21
248.75
 31
0
  0
LINE
  8
DIMENSION
 10
0
 20
250
 30
0
 11
100
 21
250
 31
0
  0
TEXT
  8
DIMENSION
 10
50
 20
250
 30
0
 40
2.5
  1
100
  0
ENDBLK
  8
0
  0
BLOCK
  8
0
  2
*D31
 70
0
 10
0
 20
0
 30
0
  0
LINE
  8
DIMENSION
 10
0
 20
-0.625
 30
0
 11
0
 21
-101.25
 31
0
  0
LINE
  8
DIMENSION
 10
50
 20
-0.625
 30
0
 11
50
 21
-101.25
 31
0
  0
LINE
  8
DIMENSION
 10
0
 20
-100
 30
0
 11
50
 21
-100
 31
0
  0
TEXT
  8
DIMENSION
 10
25
 20
-100
 30
0
 40
2.5
  1
50
  0
ENDBLK
  8
0
  0
BLOCK
  8
0
  2
*D32
 70
0
 10
0
 20
0
 30
0
  0
LINE
  8
DIMENSION
 10
50
 20
-0.625
 30
0
 11
50
 21
-101.25
 31
0
  0
LINE
  8
DIMENSION
 10
200
 20
-0.625
 30
0
 11
200
 21
-101.25
 31
0
  0
LINE
  8
DIMENSION
 10
50
 20
-100
 30
0
 11
200
 21
-100
 31
0
  0
TEXT
  8
DIMENSION
 10
125
 20
-100
 30
0
 40
2.5
  1
150
  0
ENDBLK
  8
0
  0
BLOCK
  8
0
  2
*D33
 70
0
 10
0
 20
0
 30
0
  0
LINE
  8
DIMENSION
 10
200
 20
-0.625
 30
0
 11
200
 21
-101.25
 31
0
  0
LINE
  8
DIMENSION
 10
250
 20
-0.625
 30
0
 11
250
 21
-101.25
 31
0
  0
LINE
  8
DIMENSION
 10
200
 20
-100
 30
0
 11
250
 21
-100
 31
0
  0
TEXT
  8
DIMENSION
 10
225
 20
-100
 30
0
 40
2.5
  1
50
  0
ENDBLK
  8
0
  0
BLOCK
  8
0
  2
*D34
 70
0
 10
0
 20
0
 30
0
  0
LINE
  8
DIMENSION
 10
500
 20
-0.625
 30
0
 11
500
 21
-101.25
 31
0
  0
LINE
  8
DIMENSION
 10
555
 20
-0.625
 30
0
 11
555
 21
-101.25
 31
0
  0
LINE
  8
DIMENSION
 10
500
 20
-100
 30
0
 11
555
 21
-100
 31
0
  0
TEXT
  8
DIMENSION
 10
527.5
 20
-100
 30
0
 40
2.5
  1
55
  0
ENDBLK
  8
0
  0
BLOCK
  8
0
  2
*D35
 70
0
 10
0
 20
0
 30
0
  0
LINE
  8
DIMENSION
 10
555
 20
-0.625
 30
0
 11
555
 21
-101.25
 31
0
  0
LINE
  8
DIMENSION
 10
595
 20
-0.625
 30
0
 11
595
 21
-101.25
 31
0
  0
LINE
  8
DIMENSION
 10
555
 20
-100
 30
0
 11
595
 21
-100
 31
0
  0
TEXT
  8
DIMENSION
 10
575
 20
-100
 30
0
 40
2.5
  1
40
  0
ENDBLK
  8
0
  0
BLOCK
  8
0
  2
*D36
 70
0
 10
0
 20
0
 30
0
  0
LINE
  8
DIMENSION
 10
595
 20
-0.625
 30
0
 11
595
 21
-101.25
 31
0
  0
LINE
  8
DIMENSION
 10
655
 20
-0.625
 30
0
 11
655
 21
-101.25
 31
0
  0
LINE
  8
DIMENSION
 10
595
 20
-100
 30
0
 11
655
 21
-100
 31
0
  0
TEXT
  8
DIMENSION
 10
625
 20
-100
 30
0
 40
2.5
  1
60
  0
ENDBLK
  8
0
  0
BLOCK
  8
0
  2
*D37
 70
0
 10
0
 20
0
 30
0
  0
LINE
  8
DIMENSION
 10
655
 20
-0.625
 30
0
 11
655
 21
-101.25
 31
0
  0
LINE
  8
DIMENSION
 10
695
 20
-0.625
 30
0
 11
695
 21
-101.25
 31
0
  0
LINE
  8
DIMENSION
 10
655
 20
-100
 30
0
 11
695
 21
-100
 31
0
  0
TEXT
  8
DIMENSION
 10
675
 20
-100
 30
0
 40
2.5
  1
40
  0
ENDBLK
  8
0
  0
BLOCK
  8
0
  2
*D38
 70
0
 10
0
 20
0
 30
0
  0
LINE
  8
DIMENSION
 10
695
 20
-0.625
 30
0
 11
695
 21
-101.25
 31
0
  0
LINE
  8
DIMENSION
 10
750
 20
-0.625
 30
0
 11
750
 21
-101.25
 31
0
  0
LINE
  8
DIMENSION
 10
695
 20
-100
 30
0
 11
750
 21
-100
 31
0
  0
TEXT
  8
DIMENSION
 10
722.5
 20
-100
 30
0
 40
2.5
  1
55
  0
ENDBLK
  8
0
  0
BLOCK
  8
0
  2
*D39
 70
0
 10
0
 20
0
 30
0
  0
LINE
  8
DIMENSION
 10
750.625
 20
360
 30
0
 11
851.25
 21
360
 31
0
  0
LINE
  8
DIMENSION
 10
750.625
 20
650
 30
0
 11
851.25
 21
650
 31
0
  0
LINE
  8
DIMENSION
 10
850
 20
360
 30
0
 11
850
 21
650
 31
0
  0
TEXT
  8
DIMENSION
 10
850
 20
505
 30
0
 40
2.5
  1
290
 50
90
  0
ENDBLK
  8
0
  0
BLOCK
  8
0
  2
*D40
 70
0
 10
0
 20
0
 30
0
  0
LINE
  8
DIMENSION
 10
555
 20
650.625
 30
0
 11
555
 21
701.25
 31
0
  0
LINE
  8
DIMENSION
 10
695
 20
650.625
 30
0
 11
695
 21
701.25
 31
0
  0
LINE
  8
DIMENSION
 10
555
 20
700
 30
0
 11
695
 21
700
 31
0
  0
TEXT
  8
DIMENSION
 10
625
 20
700
 30
0
 40
2.5
  1
140
  0
ENDBLK
  8
0
  0
BLOCK
  8
0
  2
*D41
 70
0
 10
0
 20
0
 30
0
  0
LINE
  8
DIMENSION
 10
250.625
 20
510
 30
0
 11
351.25
 21
510
 31
0
  0
LINE
  8
DIMENSION
 10
250.625
 20
550
 30
0
 11
351.25
 21
550
 31
0
  0
LINE
  8
DIMENSION
 10
350
 20
510
 30
0
 11
350
 21
550
 31
0
  0
TEXT
  8
DIMENSION
 10
350
 20
530
 30
0
 40
2.5
  1
40
 50
90
  0
ENDBLK
  8
0
  0
BLOCK
  8
0
  2
*D42
 70
0
 10
0
 20
0
 30
0
  0
LINE
  8
DIMENSION
 10
250.625
 20
550
 30
0
 11
351.25
 21
550
 31
0
  0
LINE
  8
DIMENSION
 10
250.625
 20
610
 30
0
 11
351.25
 21
610
 31
0
  0
LINE
  8
DIMENSION
 10
350
 20
550
 30
0
 11
350
 21
610
 31
0
  0
TEXT
  8
DIMENSION
 10
350
 20
580
 30
0
 40
2.5
  1
60
 50
90
  0
ENDBLK
  8
0
  0
BLOCK
  8
0
  2
*D43
 70
0
 10
0
 20
0
 30
0
  0
LINE
  8
DIMENSION
 10
250.625
 20
610
 30
0
 11
351.25
 21
610
 31
0
  0
LINE
  8
DIMENSION
 10
250.625
 20
670
 30
0
 11
351.25
 21
670
 31
0
  0
LINE
  8
DIMENSION
 10
350
 20
610
 30
0
 11
350
 21
670
 31
0
  0
TEXT
  8
DIMENSION
 10
350
 20
640
 30
0
 40
2.5
  1
60
 50
90
  0
ENDBLK
  8
0
  0
BLOCK
  8
0
  2
*D44
 70
0
 10
0
 20
0
 30
0
  0
LINE
  8
DIMENSION
 10
250.625
 20
670
 30
0
 11
351.25
 21
670
 31
0
  0
LINE
  8
DIMENSION
 10
250.625
 20
710
 30
0
 11
351.25
 21
710
 31
0
  0
LINE
  8
DIMENSION
 10
350
 20
670
 30
0
 11
350
 21
710
 31
0
  0
TEXT
  8
DIMENSION
 10
350
 20
690
 30
0
 40
2.5
  1
40
 50
90
  0
ENDBLK
  8
0
  0
BLOCK
  8
0
  2
*D45
 70
0
 10
0
 20
0
 30
0
  0
LINE
  8
DIMENSION
 10
695.625
 20
360
 30
0
 11
851.25
 21
360
 31
0
  0
LINE
  8
DIMENSION
 10
695.625
 20
400
 30
0
 11
851.25
 21
400
 31
0
  0
LINE
  8
DIMENSION
 10
850
 20
360
 30
0
 11
850
 21
400
 31
0
  0
TEXT
  8
DIMENSION
 10
850
 20
380
 30
0
 40
2.5
  1
40
 50
90
  0
ENDBLK
  8
0
  0
BLOCK
  8
0
  2
*D46
 70
0
 10
0
 20
0
 30
0
  0
LINE
  8
DIMENSION
 10
695.625
 20
400
 30
0
 11
851.25
 21
400
 31
0
  0
LINE
  8
DIMENSION
 10
695.625
 20
460
 30
0
 11
851.25
 21
460
 31
0
  0
LINE
  8
DIMENSION
 10
850
 20
400
 30
0
 11
850
 21
460
 31
0
  0
TEXT
  8
DIMENSION
 10
850
 20
430
 30
0
 40
2.5
  1
60
 50
90
  0
ENDBLK
  8
0
  0
BLOCK
  8
0
  2
*D47
 70
0
 10
0
 20
0
 30
0
  0
LINE
  8
DIMENSION
 10
695.625
 20
460
 30
0
 11
851.25
 21
460
 31
0
  0
LINE
  8
DIMENSION
 10
695.625
 20
500
 30
0
 11
851.25
 21
500
 31
0
  0
LINE
  8
DIMENSION
 10
850
 20
460
 30
0
 11
850
 21
500
 31
0
  0
TEXT
  8
DIMENSION
 10
850
 20
480
 30
0
 40
2.5
  1
40
 50
90
  0
ENDBLK
  8
0
  0
BLOCK
  8
0
  2
*D48
 70
0
 10
0
 20
0
 30
0
  0
LINE
  8
DIMENSION
 10
0
 20
-0.625
 30
0
 11
0
 21
-201.25
 31
0
  0
LINE
  8
DIMENSION
 10
250
 20
-0.625
 30
0
 11
250
 21
-201.25
 31
0
  0
LINE
  8
DIMENSION
 10
0
 20
-200
 30
0
 11
250
 21
-200
 31
0
  0
TEXT
  8
DIMENSION
 10
125
 20
-200
 30
0
 40
2.5
  1
250
  0
ENDBLK
  8
0
  0
BLOCK
  8
0
  2
*D49
 70
0
 10
0
 20
0
 30
0
  0
LINE
  8
DIMENSION
 10
500
 20
-0.625
 30
0
 11
500
 21
-201.25
 31
0
  0
LINE
  8
DIMENSION
 10
750
 20
-0.625
 30
0
 11
750
 21
-201.25
 31
0
  0
LINE
  8
DIMENSION
 10
500
 20
-200
 30
0
 11
750
 21
-200
 31
0
  0
TEXT
  8
DIMENSION
 10
625
 20
-200
 30
0
 40
2.5
  1
250
  0
ENDBLK
  8
0
  0
BLOCK
  8
0
  2
*D50
 70
0
 10
0
 20
0
 30
0
  0
LINE
  8
DIMENSION
 10
695.625
 20
510
 30
0
 11
951.25
 21
510
 31
0
  0
LINE
  8
DIMENSION
 10
695.625
 20
550
 30
0
 11
951.25
 21
550
 31
0
  0
LINE
  8
DIMENSION
 10
950
 20
510
 30
0
 11
950
 21
550
 31
0
  0
TEXT
  8
DIMENSION
 10
950
 20
530
 30
0
 40
2.5
  1
40
 50
90
  0
ENDBLK
  8
0
  0
BLOCK
  8
0
  2
*D51
 70
0
 10
0
 20
0
 30
0
  0
LINE
  8
DIMENSION
 10
695.625
 20
550
 30
0
 11
951.25
 21
550
 31
0
  0
LINE
  8
DIMENSION
 10
695.625
 20
610
 30
0
 11
951.25
 21
610
 31
0
  0
LINE
  8
DIMENSION
 10
950
 20
550
 30
0
 11
950
 21
610
 31
0
  0
TEXT
  8
DIMENSION
 10
950
 20
580
 30
0
 40
2.5
  1
60
 50
90
  0
ENDBLK
  8
0
  0
BLOCK
  8
0
  2
*D52
 70
0
 10
0
 20
0
 30
0
  0
LINE
  8
DIMENSION
 10
695.625
 20
610
 30
0
 11
951.25
 21
610
 31
0
  0
LINE
  8
DIMENSION
 10
695.625
 20
650
 30
0
 11
951.25
 21
650
 31
0
  0
LINE
  8
DIMENSION
 10
950
 20
610
 30
0
 11
950
 21
650
 31
0
  0
TEXT
  8
DIMENSION
 10
950
 20
630
 30
0
 40
2.5
  1
40
 50
90
  0
ENDBLK
  8
0
  0
BLOCK
  8
0
  2
*D53
 70
0
 10
0
 20
0
 30
0
  0
LINE
  8
DIMENSION
 10
250.625
 20
300
 30
0
 11
351.25
 21
300
 31
0
  0
LINE
  8
DIMENSION
 10
250.625
 20
340
 30
0
 11
351.25
 21
340
 31
0
  0
LINE
  8
DIMENSION
 10
350
 20
300
 30
0
 11
350
 21
340
 31
0
  0
TEXT
  8
DIMENSION
 10
350
 20
320
 30
0
 40
2.5
  1
40
 50
90
  0
ENDBLK
  8
0
  0
BLOCK
  8
0
  2
*D54
 70
0
 10
0
 20
0
 30
0
  0
LINE
  8
DIMENSION
 10
250.625
 20
340
 30
0
 11
351.25
 21
340
 31
0
  0
LINE
  8
DIMENSION
 10
250.625
 20
400
 30
0
 11
351.25
 21
400
 31
0
  0
LINE
  8
DIMENSION
 10
350
 20
340
 30
0
 11
350
 21
400
 31
0
  0
TEXT
  8
DIMENSION
 10
350
 20
370
 30
0
 40
2.5
  1
60
 50
90
  0
ENDBLK
  8
0
  0
BLOCK
  8
0
  2
*D55
 70
0
 10
0
 20
0
 30
0
  0
LINE
  8
DIMENSION
 10
250.625
 20
400
 30
0
 11
351.25
 21
400
 31
0
  0
LINE
  8
DIMENSION
 10
250.625
 20
460
 30
0
 11
351.25
 21
460
 31
0
  0
LINE
  8
DIMENSION
 10
350
 20
400
 30
0
 11
350
 21
460
 31
0
  0
TEXT
  8
DIMENSION
 10
350
 20
430
 30
0
 40
2.5
  1
60
 50
90
  0
ENDBLK
  8
0
  0
BLOCK
  8
0
  2
*D56
 70
0
 10
0
 20
0
 30
0
  0
LINE
  8
DIMENSION
 10
250.625
 20
460
 30
0
 11
351.25
 21
460
 31
0
  0
LINE
  8
DIMENSION
 10
250.625
 20
500
 30
0
 11
351.25
 21
500
 31
0
  0
LINE
  8
DIMENSION
 10
350
 20
460
 30
0
 11
350
 21
500
 31
0
  0
TEXT
  8
DIMENSION
 10
350
 20
480
 30
0
 40
2.5
  1
40
 50
90
  0
ENDBLK
  8
0
  0
BLOCK
  8
0
  2
*D57
 70
0
 10
0
 20
0
 30
0
  0
LINE
  8
DIMENSION
 10
750.625
 20
360
 30
0
 11
851.25
 21
360
 31
0
  0
LINE
  8
DIMENSION
 10
750.625
 20
650
 30
0
 11
851.25
 21
650
 31
0
  0
LINE
  8
DIMENSION
 10
850
 20
360
 30
0
 11
850
 21
650
 31
0
  0
TEXT
  8
DIMENSION
 10
850
 20
505
 30
0
 40
2.5
  1
290
 50
90
  0
ENDBLK
  8
0
  0
BLOCK
  8
0
  2
*D58
 70
0
 10
0
 20
0
 30
0
  0
LINE
  8
DIMENSION
 10
555
 20
650.625
 30
0
 11
555
 21
701.25
 31
0
  0
LINE
  8
DIMENSION
 10
695
 20
650.625
 30
0
 11
695
 21
701.25
 31
0
  0
LINE
  8
DIMENSION
 10
555
 20
700
 30
0
 11
695
 21
700
 31
0
  0
TEXT
  8
DIMENSION
 10
625
 20
700
 30
0
 40
2.5
  1
140
  0
ENDBLK
  8
0
  0
BLOCK
  8
0
  2
*D59
 70
0
 10
0
 20
0
 30
0
  0
LINE
  8
DIMENSION
 10
250.625
 20
340
 30
0
 11
351.25
 21
340
 31
0
  0
LINE
  8
DIMENSION
 10
250.625
 20
400
 30
0
 11
351.25
 21
400
 31
0
  0
LINE
  8
DIMENSION
 10
350
 20
340
 30
0
 11
350
 21
400
 31
0
  0
TEXT
  8
DIMENSION
 10
350
 20
370
 30
0
 40
2.5
  1
60
 50
90
  0
ENDBLK
  8
0
  0
BLOCK
  8
0
  2
*D60
 70
0
 10
0
 20
0
 30
0
  0
LINE
  8
DIMENSION
 10
250.625
 20
400
 30
0
 11
351.25
 21
400
 31
0
  0
LINE
  8
DIMENSION
 10
250.625
 20
460
 30
0
 11
351.25
 21
460
 31
0
  0
LINE
  8
DIMENSION
 10
350
 20
400
 30
0
 11
350
 21
460
 31
0
  0
TEXT
  8
DIMENSION
 10
350
 20
430
 30
0
 40
2.5
  1
60
 50
90
  0
ENDBLK
  8
0
  0
BLOCK
  8
0
  2
*D61
 70
0
 10
0
 20
0
 30
0
  0
LINE
  8
DIMENSION
 10
250.625
 20
550
 30
0
 11
351.25
 21
550
 31
0
  0
LINE
  8
DIMENSION
 10
250.625
 20
610
 30
0
 11
351.25
 21
610
 31
0
  0
LINE
  8
DIMENSION
 10
350
 20
550
 30
0
 11
350
 21
610
 31
0
  0
TEXT
  8
DIMENSION
 10
350
 20
580
 30
0
 40
2.5
  1
60
 50
90
  0
ENDBLK
  8
0
  0
BLOCK
  8
0
  2
*D62
 70
0
 10
0
 20
0
 30
0
  0
LINE
  8
DIMENSION
 10
250.625
 20
300
 30
0
 11
451.25
 21
300
 31
0
  0
LINE
  8
DIMENSION
 10
250.625
 20
710
 30
0
 11
451.25
 21
710
 31
0
  0
LINE
  8
DIMENSION
 10
450
 20
300
 30
0
 11
450
 21
710
 31
0
  0
TEXT
  8
DIMENSION
 10
450
 20
505
 30
0
 40
2.5
  1
410
 50
90
  0
ENDBLK
  8
0
  0
BLOCK
  8
0
  2
*D63
 70
0
 10
0
 20
0
 30
0
  0
LINE
  8
U-ANNO-DIM
 10
250.625
 20
350
 30
0
 11
261.25
 21
350
 31
0
  0
LINE
  8
U-ANNO-DIM
 10
250.625
 20
380
 30
0
 11
261.25
 21
380
 31
0
  0
LINE
  8
U-ANNO-DIM
 10
260
 20
350
 30
0
 11
260
 21
380
 31
0
  0
TEXT
  8
U-ANNO-DIM
 10
260
 20
365
 30
0
 40
2.5
  1
30
 50
90
  0
ENDBLK
  8
0
  0
BLOCK
  8
0
  2
*D64
 70
0
 10
0
 20
0
 30
0
  0
LINE
  8
U-ANNO-DIM
 10
250.625
 20
380
 30
0
 11
261.25
 21
380
 31
0
  0
LINE
  8
U-ANNO-DIM
 10
250.625
 20
440
 30
0
 11
261.25
 21
440
 31
0
  0
LINE
  8
U-ANNO-DIM
 10
260
 20
380
 30
0
 11
260
 21
440
 31
0
  0
TEXT
  8
U-ANNO-DIM
 10
260
 20
410
 30
0
 40
2.5
  1
60
 50
90
  0
ENDBLK
  8
0
  0
BLOCK
  8
0
  2
*D65
 70
0
 10
0
 20
0
 30
0
  0
LINE
  8
U-ANNO-DIM
 10
250.625
 20
440
 30
0
 11
261.25
 21
440
 31
0
  0
LINE
  8
U-ANNO-DIM
 10
250.625
 20
500
 30
0
 11
261.25
 21
500
 31
0
  0
LINE
  8
U-ANNO-DIM
 10
260
 20
440
 30
0
 11
260
 21
500
 31
0
  0
TEXT
  8
U-ANNO-DIM
 10
260
 20
470
 30
0
 40
2.5
  1
60
 50
90
  0
ENDBLK
  8
0
  0
BLOCK
  8
0
  2
*D66
 70
0
 10
0
 20
0
 30
0
  0
LINE
  8
U-ANNO-DIM
 10
250.625
 20
500
 30
0
 11
261.25
 21
500
 31
0
  0
LINE
  8
U-ANNO-DIM
 10
250.625
 20
560
 30
0
 11
261.25
 21
560
 31
0
  0
LINE
  8
U-ANNO-DIM
 10
260
 20
500
 30
0
 11
260
 21
560
 31
0
  0
TEXT
  8
U-ANNO-DIM
 10
260
 20
530
 30
0
 40
2.5
  1
60
 50
90
  0
ENDBLK
  8
0
  0
BLOCK
  8
0
  2
*D67
 70
0
 10
0
 20
0
 30
0
  0
LINE
  8
U-ANNO-DIM
 10
250.625
 20
560
 30
0
 11
261.25
 21
560
 31
0
  0
LINE
  8
U-ANNO-DIM
 10
250.625
 20
620
 30
0
 11
261.25
 21
620
 31
0
  0
LINE
  8
U-ANNO-DIM
 10
260
 20
560
 30
0
 11
260
 21
620
 31
0
  0
TEXT
  8
U-ANNO-DIM
 10
260
 20
590
 30
0
 40
2.5
  1
60
 50
90
  0
ENDBLK
  8
0
  0
BLOCK
  8
0
  2
*D68
 70
0
 10
0
 20
0
 30
0
  0
LINE
  8
U-ANNO-DIM
 10
250.625
 20
620
 30
0
 11
261.25
 21
620
 31
0
  0
LINE
  8
U-ANNO-DIM
 10
250.625
 20
650
 30
0
 11
261.25
 21
650
 31
0
  0
LINE
  8
U-ANNO-DIM
 10
260
 20
620
 30
0
 11
260
 21
650
 31
0
  0
TEXT
  8
U-ANNO-DIM
 10
260
 20
635
 30
0
 40
2.5
  1
30
 50
90
  0
ENDBLK
  8
0
  0
BLOCK
  8
0
  2
*D69
 70
0
 10
0
 20
0
 30
0
  0
LINE
  8
U-ANNO-DIM
 10
250.625
 20
350
 30
0
 11
269.25
 21
350
 31
0
  0
LINE
  8
U-ANNO-DIM
 10
250.625
 20
650
 30
0
 11
269.25
 21
650
 31
0
  0
LINE
  8
U-ANNO-DIM
 10
268
 20
350
 30
0
 11
268
 21
650
 31
0
  0
TEXT
  8
U-ANNO-DIM
 10
268
 20
500
 30
0
 40
2.5
  1
300
 50
90
  0
ENDBLK
  8
0
  0
BLOCK
  8
0
  2
*D70
 70
0
 10
0
 20
0
 30
0
  0
LINE
  8
0
 10
155
 20
620
 30
0
 11
197.79948145837497
 21
620
 31
0
  0
LINE
  8
0
 10
155
 20
500
 30
0
 11
197.79948145837497
 21
500
 31
0
  0
LINE
  8
0
 10
195.99948145837496
 20
620
 30
0
 11
195.99948145837496
 21
500
 31
0
  0
LINE
  8
0
 10
195.99948145837496
 20
620
 30
0
 11
194.91948145837495
 21
616.4
 31
0
  0
LINE
  8
0
 10
195.99948145837496
 20
620
 30
0
 11
197.07948145837497
 21
616.4
 31
0
  0
LINE
  8
0
 10
195.99948145837496
 20
500
 30
0
 11
197.07948145837497
 21
503.6
 31
0
  0
LINE
  8
0
 10
195.99948145837496
 20
500
 30
0
 11
194.91948145837495
 21
503.6
 31
0
  0
TEXT
  8
0
 10
195.99948145837496
 20
560
 30
0
 40
3.5999999999999996
  1
120.00
 50
90
  0
ENDBLK
  8
0
  0
BLOCK
  8
0
  2
*D71
 70
0
 10
0
 20
0
 30
0
  0
LINE
  8
0
 10
95
 20
500
 30
0
 11
95
 21
531.409891071018
 31
0
  0
LINE
  8
0
 10
155
 20
500
 30
0
 11
155
 21
531.409891071018
 31
0
  0
LINE
  8
0
 10
95
 20
530.509891071018
 30
0
 11
155
 21
530.509891071018
 31
0
  0
LINE
  8
0
 10
95
 20
530.509891071018
 30
0
 11
96.8
 21
529.9698910710181
 31
0
  0
LINE
  8
0
 10
95
 20
530.509891071018
 30
0
 11
96.8
 21
531.049891071018
 31
0
  0
LINE
  8
0
 10
155
 20
530.509891071018
 30
0
 11
153.2
 21
531.049891071018
 31
0
  0
LINE
  8
0
 10
155
 20
530.509891071018
 30
0
 11
153.2
 21
529.9698910710181
 31
0
  0
TEXT
  8
0
 10
125
 20
530.509891071018
 30
0
 40
1.7999999999999998
  1
60.00
  0
ENDBLK
  8
0
  0
BLOCK
  8
0
  2
*D72
 70
0
 10
0
 20
0
 30
0
  0
LINE
  8
0
 10
95
 20
380
 30
0
 11
95
 21
323.57650111420884
 31
0
  0
LINE
  8
0
 10
155
 20
380
 30
0
 11
155
 21
323.57650111420884
 31
0
  0
LINE
  8
0
 10
95
 20
328.07650111420884
 30
0
 11
155
 21
328.07650111420884
 31
0
  0
LINE
  8
0
 10
95
 20
328.07650111420884
 30
0
 11
104
 21
325.37650111420885
 31
0
  0
LINE
  8
0
 10
95
 20
328.07650111420884
 30
0
 11
104
 21
330.7765011142088
 31
0
  0
LINE
  8
0
 10
155
 20
328.07650111420884
 30
0
 11
146
 21
330.7765011142088
 31
0
  0
LINE
  8
0
 10
155
 20
328.07650111420884
 30
0
 11
146
 21
325.37650111420885
 31
0
  0
TEXT
  8
0
 10
125
 20
328.07650111420884
 30
0
 40
9
  1
60.00
  0
ENDBLK
  8
0
  0
BLOCK
  8
0
  2
*D73
 70
0
 10
0
 20
0
 30
0
  0
LINE
  8
0
 10
95
 20
380
 30
0
 11
95
 21
443.35252449182764
 31
0
  0
LINE
  8
0
 10
95
 20
440
 30
0
 11
95
 21
435.85252449182764
 31
0
  0
LINE
  8
0
 10
95
 20
439.60252449182764
 30
0
 11
95
 21
439.60252449182764
 31
0
  0
TEXT
  8
0
 10
95
 20
439.60252449182764
 30
0
 40
7.5
  1
0.00
  0
ENDBLK
  8
0
  0
BLOCK
  8
0
  2
*D74
 70
0
 10
0
 20
0
 30
0
  0
LINE
  8
0
 10
95
 20
560
 30
0
 11
50.603877262789126
 21
560
 31
0
  0
LINE
  8
0
 10
95
 20
620
 30
0
 11
50.603877262789126
 21
620
 31
0
  0
LINE
  8
0
 10
55.103877262789126
 20
560
 30
0
 11
55.103877262789126
 21
620
 31
0
  0
LINE
  8
0
 10
55.103877262789126
 20
560
 30
0
 11
57.80387726278913
 21
569
 31
0
  0
LINE
  8
0
 10
55.103877262789126
 20
560
 30
0
 11
52.40387726278912
 21
569
 31
0
  0
LINE
  8
0
 10
55.103877262789126
 20
620
 30
0
 11
52.40387726278912
 21
611
 31
0
  0
LINE
  8
0
 10
55.103877262789126
 20
620
 30
0
 11
57.80387726278913
 21
611
 31
0
  0
TEXT
  8
0
 10
55.103877262789126
 20
590
 30
0
 40
9
  1
60.00
 50
90
  0
ENDBLK
  8
0
  0
BLOCK
  8
0
  2
*D75
 70
0
 10
0
 20
0
 30
0
  0
LINE
  8
0
 10
120.5
 20
0
 30
0
 11
120.5
 21
90.129436264601
 31
0
  0
LINE
  8
0
 10
0
 20
0
 30
0
 11
0
 21
90.129436264601
 31
0
  0
LINE
  8
0
 10
120.5
 20
81.091936264601
 30
0
 11
0
 21
81.091936264601
 31
0
  0
LINE
  8
0
 10
120.5
 20
81.091936264601
 30
0
 11
102.425
 21
86.514436264601
 31
0
  0
LINE
  8
0
 10
120.5
 20
81.091936264601
 30
0
 11
102.425
 21
75.669436264601
 31
0
  0
LINE
  8
0
 10
0
 20
81.091936264601
 30
0
 11
18.075
 21
75.669436264601
 31
0
  0
LINE
  8
0
 10
0
 20
81.091936264601
 30
0
 11
18.075
 21
86.514436264601
 31
0
  0
TEXT
  8
0
 10
60.25
 20
81.091936264601
 30
0
 40
18.075
  1
120.50
  0
ENDBLK
  8
0
  0
BLOCK
  8
0
  2
*D76
 70
0
 10
0
 20
0
 30
0
  0
LINE
  8
0
 10
-119.6291841050537
 20
-150.1311418476975
 30
0
 11
-119.6291841050537
 21
-173.82096453522456
 31
0
  0
LINE
  8
0
 10
-46.565268619766016
 20
-155.72612636684116
 30
0
 11
-46.565268619766016
 21
-173.82096453522456
 31
0
  0
LINE
  8
0
 10
-119.6291841050537
 20
-167.24521214154868
 30
0
 11
-46.565268619766016
 21
-167.24521214154868
 31
0
  0
LINE
  8
0
 10
-119.6291841050537
 20
-167.24521214154868
 30
0
 11
-106.47767931770191
 21
-171.1906635777542
 31
0
  0
LINE
  8
0
 10
-119.6291841050537
 20
-167.24521214154868
 30
0
 11
-106.47767931770191
 21
-163.29976070534315
 31
0
  0
LINE
  8
0
 10
-46.565268619766016
 20
-167.24521214154868
 30
0
 11
-59.7167734071178
 21
-163.29976070534315
 31
0
  0
LINE
  8
0
 10
-46.565268619766016
 20
-167.24521214154868
 30
0
 11
-59.7167734071178
 21
-171.1906635777542
 31
0
  0
TEXT
  8
0
 10
-83.09722636240986
 20
-167.24521214154868
 30
0
 40
13.151504787351781
  1
73.06
  0
ENDBLK
  8
0
  0
ENDSEC
  0
SECTION
  2
ENTITIES
  0
LINE
  8
TRACE
 10
-147.88662524463396
 20
-78.74671824316319
 30
0
 11
-143.71662524463395
 21
-78.74671824316319
 31
0
  0
LINE
  8
TRACE
 10
-143.71662524463395
 20
-78.74671824316319
 30
0
 11
-139.54662524463396
 21
-82.90671824316318
 31
0
  0
LINE
  8
TRACE
 10
-139.54662524463396
 20
-82.90671824316318
 30
0
 11
-120.50662524463395
 21
-84.69671824316319
 31
0
  0
LINE
  8
TRACE
 10
-120.50662524463395
 20
-84.69671824316319
 30
0
 11
-119.90662524463396
 21
-86.47671824316319
 31
0
  0
LINE
  8
TRACE
 10
-119.90662524463396
 20
-86.47671824316319
 30
0
 11
-103.83662524463395
 21
-89.45671824316318
 31
0
  0
LINE
  8
TRACE
 10
-103.83662524463395
 20
-89.45671824316318
 30
0
 11
-96.69662524463395
 21
-87.66671824316319
 31
0
  0
LINE
  8
TRACE
 10
-96.69662524463395
 20
-87.66671824316319
 30
0
 11
-96.09662524463396
 21
-90.64671824316318
 31
0
  0
LINE
  8
TRACE
 10
-96.09662524463396
 20
-90.64671824316318
 30
0
 11
-81.81662524463395
 21
-93.62671824316318
 31
0
  0
LINE
  8
TRACE
 10
-81.81662524463395
 20
-93.62671824316318
 30
0
 11
-70.50662524463395
 21
-93.02671824316317
 31
0
  0
LINE
  8
TRACE
 10
-70.50662524463395
 20
-93.02671824316317
 30
0
 11
-71.09662524463396
 21
-95.40671824316318
 31
0
  0
LINE
  8
TRACE
 10
-71.09662524463396
 20
-95.40671824316318
 30
0
 11
-68.71662524463396
 21
-92.43671824316318
 31
0
  0
LINE
  8
TRACE
 10
-68.71662524463396
 20
-92.43671824316318
 30
0
 11
-68.71662524463396
 21
-94.81671824316318
 31
0
  0
LINE
  8
TRACE
 10
-68.71662524463396
 20
-94.81671824316318
 30
0
 11
-59.19662524463395
 21
-94.81671824316318
 31
0
  0
LINE
  8
TRACE
 10
-59.19662524463395
 20
-94.81671824316318
 30
0
 11
-57.40662524463396
 21
-92.43671824316318
 31
0
  0
LINE
  8
TRACE
 10
-57.40662524463396
 20
-92.43671824316318
 30
0
 11
-52.64662524463395
 21
-94.21671824316319
 31
0
  0
LINE
  8
TRACE
 10
-52.64662524463395
 20
-94.21671824316319
 30
0
 11
-56.21662524463396
 21
-94.81671824316318
 31
0
  0
LINE
  8
TRACE
 10
-56.21662524463396
 20
-94.81671824316318
 30
0
 11
-52.64662524463395
 21
-95.40671824316318
 31
0
  0
LINE
  8
TRACE
 10
-52.64662524463395
 20
-95.40671824316318
 30
0
 11
-55.626625244633956
 21
-98.38671824316319
 31
0
  0
LINE
  8
TRACE
 10
-55.626625244633956
 20
-98.38671824316319
 30
0
 11
-55.02662524463396
 21
-173.9767182431632
 31
0
  0
LINE
  8
TRACE
 10
-55.02662524463396
 20
-173.9767182431632
 30
0
 11
-52.64662524463395
 21
-174.57671824316319
 31
0
  0
LINE
  8
TRACE
 10
-52.64662524463395
 20
-174.57671824316319
 30
0
 11
-55.626625244633956
 21
-176.95671824316318
 31
0
  0
LINE
  8
TRACE
 10
-55.626625244633956
 20
-176.95671824316318
 30
0
 11
-62.16662524463395
 21
-176.95671824316318
 31
0
  0
LINE
  8
TRACE
 10
-62.16662524463395
 20
-176.95671824316318
 30
0
 11
-62.16662524463395
 21
-158.50671824316316
 31
0
  0
LINE
  8
TRACE
 10
-62.16662524463395
 20
-158.50671824316316
 30
0
 11
-66.93662524463396
 21
-157.9067182431632
 31
0
  0
LINE
  8
TRACE
 10
-66.93662524463396
 20
-157.9067182431632
 30
0
 11
-75.26662524463396
 21
-162.6667182431632
 31
0
  0
LINE
  8
TRACE
 10
-75.26662524463396
 20
-162.6667182431632
 30
0
 11
-73.47662524463395
 21
-168.0267182431632
 31
0
  0
LINE
  8
TRACE
 10
-73.47662524463395
 20
-168.0267182431632
 30
0
 11
-75.26662524463396
 21
-168.0267182431632
 31
0
  0
LINE
  8
TRACE
 10
-75.26662524463396
 20
-168.0267182431632
 30
0
 11
-73.47662524463395
 21
-172.1967182431632
 31
0
  0
LINE
  8
TRACE
 10
-73.47662524463395
 20
-172.1967182431632
 30
0
 11
-75.26662524463396
 21
-176.95671824316318
 31
0
  0
LINE
  8
TRACE
 10
-75.26662524463396
 20
-176.95671824316318
 30
0
 11
-80.02662524463396
 21
-176.95671824316318
 31
0
  0
LINE
  8
TRACE
 10
-80.02662524463396
 20
-176.95671824316318
 30
0
 11
-81.81662524463395
 21
-164.45671824316318
 31
0
  0
LINE
  8
TRACE
 10
-81.81662524463395
 20
-164.45671824316318
 30
0
 11
-87.76662524463396
 21
-167.43671824316317
 31
0
  0
LINE
  8
TRACE
 10
-87.76662524463396
 20
-167.43671824316317
 30
0
 11
-87.76662524463396
 21
-176.95671824316318
 31
0
  0
LINE
  8
TRACE
 10
-87.76662524463396
 20
-176.95671824316318
 30
0
 11
-88.95662524463395
 21
-173.3867182431632
 31
0
  0
LINE
  8
TRACE
 10
-88.95662524463395
 20
-173.3867182431632
 30
0
 11
-89.54662524463396
 21
-176.95671824316318
 31
0
  0
LINE
  8
TRACE
 10
-89.54662524463396
 20
-176.95671824316318
 30
0
 11
-90.14662524463395
 21
-173.3867182431632
 31
0
  0
LINE
  8
TRACE
 10
-90.14662524463395
 20
-173.3867182431632
 30
0
 11
-91.93662524463396
 21
-176.95671824316318
 31
0
  0
LINE
  8
TRACE
 10
-91.93662524463396
 20
-176.95671824316318
 30
0
 11
-92.52662524463396
 21
-169.2167182431632
 31
0
  0
LINE
  8
TRACE
 10
-92.52662524463396
 20
-169.2167182431632
 30
0
 11
-94.90662524463396
 21
-170.4067182431632
 31
0
  0
LINE
  8
TRACE
 10
-94.90662524463396
 20
-170.4067182431632
 30
0
 11
-94.90662524463396
 21
-176.95671824316318
 31
0
  0
LINE
  8
TRACE
 10
-94.90662524463396
 20
-176.95671824316318
 30
0
 11
-97.28662524463395
 21
-176.95671824316318
 31
0
  0
LINE
  8
TRACE
 10
-97.28662524463395
 20
-176.95671824316318
 30
0
 11
-97.88662524463396
 21
-173.3867182431632
 31
0
  0
LINE
  8
TRACE
 10
-97.88662524463396
 20
-173.3867182431632
 30
0
 11
-99.66662524463395
 21
-176.95671824316318
 31
0
  0
LINE
  8
TRACE
 10
-99.66662524463395
 20
-176.95671824316318
 30
0
 11
-100.26662524463396
 21
-172.7867182431632
 31
0
  0
LINE
  8
TRACE
 10
-100.26662524463396
 20
-172.7867182431632
 30
0
 11
-102.04662524463396
 21
-176.95671824316318
 31
0
  0
LINE
  8
TRACE
 10
-102.04662524463396
 20
-176.95671824316318
 30
0
 11
-106.21662524463396
 21
-175.1667182431632
 31
0
  0
LINE
  8
TRACE
 10
-106.21662524463396
 20
-175.1667182431632
 30
0
 11
-106.81662524463395
 21
-176.95671824316318
 31
0
  0
LINE
  8
TRACE
 10
-106.81662524463395
 20
-176.95671824316318
 30
0
 11
-124.07662524463396
 21
-176.95671824316318
 31
0
  0
LINE
  8
TRACE
 10
-124.07662524463396
 20
-176.95671824316318
 30
0
 11
-126.45662524463395
 21
-173.3867182431632
 31
0
  0
LINE
  8
TRACE
 10
-126.45662524463395
 20
-173.3867182431632
 30
0
 11
-124.66662524463396
 21
-171.5967182431632
 31
0
  0
LINE
  8
TRACE
 10
-132.40662524463397
 20
-172.1967182431632
 30
0
 11
-133.59662524463397
 21
-176.95671824316318
 31
0
  0
LINE
  8
TRACE
 10
-133.59662524463397
 20
-176.95671824316318
 30
0
 11
-135.38662524463396
 21
-176.95671824316318
 31
0
  0
LINE
  8
TRACE
 10
-135.38662524463396
 20
-176.95671824316318
 30
0
 11
-135.97662524463396
 21
-169.2167182431632
 31
0
  0
LINE
  8
TRACE
 10
-135.97662524463396
 20
-169.2167182431632
 30
0
 11
-144.90662524463397
 21
-169.81671824316317
 31
0
  0
LINE
  8
TRACE
 10
-144.90662524463397
 20
-169.81671824316317
 30
0
 11
-145.50662524463394
 21
-176.95671824316318
 31
0
  0
LINE
  8
TRACE
 10
-145.50662524463394
 20
-176.95671824316318
 30
0
 11
-145.50662524463394
 21
-172.1967182431632
 31
0
  0
LINE
  8
TRACE
 10
-145.50662524463394
 20
-172.1967182431632
 30
0
 11
-146.69662524463396
 21
-176.95671824316318
 31
0
  0
LINE
  8
TRACE
 10
-146.69662524463396
 20
-176.95671824316318
 30
0
 11
-146.69662524463396
 21
-172.7867182431632
 31
0
  0
LINE
  8
TRACE
 10
-146.69662524463396
 20
-172.7867182431632
 30
0
 11
-150.26662524463396
 21
-170.4067182431632
 31
0
  0
LINE
  8
TRACE
 10
-150.26662524463396
 20
-170.4067182431632
 30
0
 11
-155.62662524463394
 21
-172.7867182431632
 31
0
  0
LINE
  8
TRACE
 10
-155.62662524463394
 20
-172.7867182431632
 30
0
 11
-154.43662524463394
 21
-175.76671824316318
 31
0
  0
LINE
  8
TRACE
 10
-154.43662524463394
 20
-175.76671824316318
 30
0
 11
-156.21662524463397
 21
-176.95671824316318
 31
0
  0
LINE
  8
TRACE
 10
-156.21662524463397
 20
-176.95671824316318
 30
0
 11
-178.23662524463396
 21
-176.95671824316318
 31
0
  0
LINE
  8
TRACE
 10
-178.23662524463396
 20
-176.95671824316318
 30
0
 11
-180.02662524463398
 21
-172.7867182431632
 31
0
  0
LINE
  8
TRACE
 10
-180.02662524463398
 20
-172.7867182431632
 30
0
 11
-181.21662524463397
 21
-176.95671824316318
 31
0
  0
LINE
  8
TRACE
 10
-181.21662524463397
 20
-176.95671824316318
 30
0
 11
-185.97662524463396
 21
-176.95671824316318
 31
0
  0
LINE
  8
TRACE
 10
-185.97662524463396
 20
-176.95671824316318
 30
0
 11
-187.16662524463396
 21
-171.5967182431632
 31
0
  0
LINE
  8
TRACE
 10
-187.16662524463396
 20
-171.5967182431632
 30
0
 11
-188.35662524463396
 21
-176.95671824316318
 31
0
  0
LINE
  8
TRACE
 10
-188.35662524463396
 20
-176.95671824316318
 30
0
 11
-190.73662524463396
 21
-173.3867182431632
 31
0
  0
LINE
  8
TRACE
 10
-190.73662524463396
 20
-173.3867182431632
 30
0
 11
-192.52662524463395
 21
-176.95671824316318
 31
0
  0
LINE
  8
TRACE
 10
-192.52662524463395
 20
-176.95671824316318
 30
0
 11
-192.52662524463395
 21
-172.7867182431632
 31
0
  0
LINE
  8
TRACE
 10
-192.52662524463395
 20
-172.7867182431632
 30
0
 11
-194.31662524463394
 21
-172.7867182431632
 31
0
  0
LINE
  8
TRACE
 10
-194.31662524463394
 20
-172.7867182431632
 30
0
 11
-192.52662524463395
 21
-171.00671824316316
 31
0
  0
LINE
  8
TRACE
 10
-192.52662524463395
 20
-171.00671824316316
 30
0
 11
-197.88662524463396
 21
-168.62671824316317
 31
0
  0
LINE
  8
TRACE
 10
-197.88662524463396
 20
-168.62671824316317
 30
0
 11
-199.66662524463396
 21
-169.2167182431632
 31
0
  0
LINE
  8
TRACE
 10
-199.66662524463396
 20
-169.2167182431632
 30
0
 11
-199.66662524463396
 21
-176.95671824316318
 31
0
  0
LINE
  8
TRACE
 10
-199.66662524463396
 20
-176.95671824316318
 30
0
 11
-229.42662524463395
 21
-176.95671824316318
 31
0
  0
LINE
  8
TRACE
 10
-229.42662524463395
 20
-176.95671824316318
 30
0
 11
-229.42662524463395
 21
-169.81671824316317
 31
0
  0
LINE
  8
TRACE
 10
-229.42662524463395
 20
-169.81671824316317
 30
0
 11
-227.64662524463395
 21
-169.2167182431632
 31
0
  0
LINE
  8
TRACE
 10
-227.64662524463395
 20
-169.2167182431632
 30
0
 11
-229.42662524463395
 21
-163.8567182431632
 31
0
  0
LINE
  8
TRACE
 10
-229.42662524463395
 20
-163.8567182431632
 30
0
 11
-227.04662524463396
 21
-165.04671824316318
 31
0
  0
LINE
  8
TRACE
 10
-227.04662524463396
 20
-165.04671824316318
 30
0
 11
-224.66662524463396
 21
-162.6667182431632
 31
0
  0
LINE
  8
TRACE
 10
-224.66662524463396
 20
-162.6667182431632
 30
0
 11
-224.66662524463396
 21
-103.14671824316318
 31
0
  0
LINE
  8
TRACE
 10
-224.66662524463396
 20
-103.14671824316318
 30
0
 11
-229.42662524463395
 21
-101.35671824316319
 31
0
  0
LINE
  8
TRACE
 10
-229.42662524463395
 20
-101.35671824316319
 30
0
 11
-225.26662524463396
 21
-101.35671824316319
 31
0
  0
LINE
  8
TRACE
 10
-225.26662524463396
 20
-101.35671824316319
 30
0
 11
-224.66662524463396
 21
-96.59671824316318
 31
0
  0
LINE
  8
TRACE
 10
-224.66662524463396
 20
-96.59671824316318
 30
0
 11
-221.09662524463394
 21
-98.38671824316319
 31
0
  0
LINE
  8
TRACE
 10
-221.09662524463394
 20
-98.38671824316319
 30
0
 11
-219.90662524463394
 21
-96.59671824316318
 31
0
  0
LINE
  8
TRACE
 10
-219.90662524463394
 20
-96.59671824316318
 30
0
 11
-213.35662524463396
 21
-97.19671824316319
 31
0
  0
LINE
  8
TRACE
 10
-213.35662524463396
 20
-97.19671824316319
 30
0
 11
-207.40662524463397
 21
-96.00671824316319
 31
0
  0
LINE
  8
TRACE
 10
-207.40662524463397
 20
-96.00671824316319
 30
0
 11
-206.21662524463397
 21
-93.62671824316318
 31
0
  0
LINE
  8
TRACE
 10
-206.21662524463397
 20
-93.62671824316318
 30
0
 11
-205.02662524463395
 21
-95.40671824316318
 31
0
  0
LINE
  8
TRACE
 10
-205.02662524463395
 20
-95.40671824316318
 30
0
 11
-197.88662524463396
 21
-94.21671824316319
 31
0
  0
LINE
  8
TRACE
 10
-197.88662524463396
 20
-94.21671824316319
 30
0
 11
-196.69662524463396
 21
-92.43671824316318
 31
0
  0
LINE
  8
TRACE
 10
-196.69662524463396
 20
-92.43671824316318
 30
0
 11
-175.26662524463396
 21
-89.45671824316318
 31
0
  0
LINE
  8
TRACE
 10
-175.26662524463396
 20
-89.45671824316318
 30
0
 11
-172.88662524463396
 21
-87.07671824316319
 31
0
  0
LINE
  8
TRACE
 10
-172.88662524463396
 20
-87.07671824316319
 30
0
 11
-165.73662524463396
 21
-87.66671824316319
 31
0
  0
LINE
  8
TRACE
 10
-165.73662524463396
 20
-87.66671824316319
 30
0
 11
-151.45662524463395
 21
-84.09671824316318
 31
0
  0
LINE
  8
TRACE
 10
-151.45662524463395
 20
-84.09671824316318
 30
0
 11
-154.43662524463394
 21
-82.31671824316318
 31
0
  0
LINE
  8
TRACE
 10
-154.43662524463394
 20
-82.31671824316318
 30
0
 11
-147.88662524463396
 21
-84.09671824316318
 31
0
  0
LINE
  8
TRACE
 10
-147.88662524463396
 20
-84.09671824316318
 30
0
 11
-147.28662524463397
 21
-82.31671824316318
 31
0
  0
LINE
  8
TRACE
 10
-147.28662524463397
 20
-82.31671824316318
 30
0
 11
-151.45662524463395
 21
-80.52671824316319
 31
0
  0
LINE
  8
TRACE
 10
-151.45662524463395
 20
-80.52671824316319
 30
0
 11
-148.47662524463396
 21
-79.33671824316318
 31
0
  0
LINE
  8
TRACE
 10
-148.47662524463396
 20
-79.33671824316318
 30
0
 11
-147.88662524463396
 21
-78.74671824316319
 31
0
  0
LINE
  8
TRACE
 10
-159.19662524463396
 20
-82.31671824316318
 30
0
 11
-155.62662524463394
 21
-83.50671824316318
 31
0
  0
LINE
  8
TRACE
 10
-155.62662524463394
 20
-83.50671824316318
 30
0
 11
-164.54662524463396
 21
-84.69671824316319
 31
0
  0
LINE
  8
TRACE
 10
-164.54662524463396
 20
-84.69671824316319
 30
0
 11
-159.19662524463396
 21
-82.90671824316318
 31
0
  0
LINE
  8
TRACE
 10
-159.19662524463396
 20
-82.90671824316318
 30
0
 11
-159.19662524463396
 21
-82.31671824316318
 31
0
  0
LINE
  8
TRACE
 10
-146.09662524463397
 20
-88.85671824316319
 30
0
 11
-150.26662524463396
 21
-89.45671824316318
 31
0
  0
LINE
  8
TRACE
 10
-150.26662524463396
 20
-89.45671824316318
 30
0
 11
-149.07662524463396
 21
-91.83671824316318
 31
0
  0
LINE
  8
TRACE
 10
-149.07662524463396
 20
-91.83671824316318
 30
0
 11
-146.09662524463397
 21
-89.45671824316318
 31
0
  0
LINE
  8
TRACE
 10
-146.09662524463397
 20
-89.45671824316318
 30
0
 11
-146.09662524463397
 21
-88.85671824316319
 31
0
  0
LINE
  8
TRACE
 10
-160.38662524463396
 20
-92.43671824316318
 30
0
 11
-164.54662524463396
 21
-91.83671824316318
 31
0
  0
LINE
  8
TRACE
 10
-164.54662524463396
 20
-91.83671824316318
 30
0
 11
-165.14662524463395
 21
-94.21671824316319
 31
0
  0
LINE
  8
TRACE
 10
-165.14662524463395
 20
-94.21671824316319
 30
0
 11
-159.78662524463397
 21
-93.02671824316317
 31
0
  0
LINE
  8
TRACE
 10
-159.78662524463397
 20
-93.02671824316317
 30
0
 11
-160.38662524463396
 21
-92.43671824316318
 31
0
  0
LINE
  8
TRACE
 10
-116.33662524463395
 20
-92.43671824316318
 30
0
 11
-119.90662524463396
 21
-93.02671824316317
 31
0
  0
LINE
  8
TRACE
 10
-119.90662524463396
 20
-93.02671824316317
 30
0
 11
-116.33662524463395
 21
-93.02671824316317
 31
0
  0
LINE
  8
TRACE
 10
-116.33662524463395
 20
-93.02671824316317
 30
0
 11
-116.33662524463395
 21
-92.43671824316318
 31
0
  0
LINE
  8
TRACE
 10
-169.90662524463397
 20
-93.62671824316318
 30
0
 11
-177.64662524463395
 21
-95.40671824316318
 31
0
  0
LINE
  8
TRACE
 10
-177.64662524463395
 20
-95.40671824316318
 30
0
 11
-176.45662524463395
 21
-97.19671824316319
 31
0
  0
LINE
  8
TRACE
 10
-176.45662524463395
 20
-97.19671824316319
 30
0
 11
-169.90662524463397
 21
-94.21671824316319
 31
0
  0
LINE
  8
TRACE
 10
-169.90662524463397
 20
-94.21671824316319
 30
0
 11
-169.90662524463397
 21
-93.62671824316318
 31
0
  0
LINE
  8
TRACE
 10
-143.71662524463395
 20
-93.62671824316318
 30
0
 11
-147.88662524463396
 21
-96.00671824316319
 31
0
  0
LINE
  8
TRACE
 10
-147.88662524463396
 20
-96.00671824316319
 30
0
 11
-144.90662524463397
 21
-98.97671824316319
 31
0
  0
LINE
  8
TRACE
 10
-144.90662524463397
 20
-98.97671824316319
 30
0
 11
-142.52662524463395
 21
-96.59671824316318
 31
0
  0
LINE
  8
TRACE
 10
-142.52662524463395
 20
-96.59671824316318
 30
0
 11
-143.12662524463394
 21
-93.62671824316318
 31
0
  0
LINE
  8
TRACE
 10
-143.12662524463394
 20
-93.62671824316318
 30
0
 11
-143.71662524463395
 21
-93.62671824316318
 31
0
  0
LINE
  8
TRACE
 10
-135.38662524463396
 20
-93.62671824316318
 30
0
 11
-138.35662524463396
 21
-93.62671824316318
 31
0
  0
LINE
  8
TRACE
 10
-138.35662524463396
 20
-93.62671824316318
 30
0
 11
-137.76662524463396
 21
-98.38671824316319
 31
0
  0
LINE
  8
TRACE
 10
-137.76662524463396
 20
-98.38671824316319
 30
0
 11
-132.40662524463397
 21
-97.7867182431632
 31
0
  0
LINE
  8
TRACE
 10
-132.40662524463397
 20
-97.7867182431632
 30
0
 11
-132.40662524463397
 21
-94.21671824316319
 31
0
  0
LINE
  8
TRACE
 10
-132.40662524463397
 20
-94.21671824316319
 30
0
 11
-134.78662524463397
 21
-93.62671824316318
 31
0
  0
LINE
  8
TRACE
 10
-134.78662524463397
 20
-93.62671824316318
 30
0
 11
-135.38662524463396
 21
-93.62671824316318
 31
0
  0
LINE
  8
TRACE
 10
-108.59662524463396
 20
-93.62671824316318
 30
0
 11
-111.57662524463396
 21
-94.81671824316318
 31
0
  0
LINE
  8
TRACE
 10
-111.57662524463396
 20
-94.81671824316318
 30
0
 11
-100.85662524463396
 21
-96.59671824316318
 31
0
  0
LINE
  8
TRACE
 10
-100.85662524463396
 20
-96.59671824316318
 30
0
 11
-108.00662524463395
 21
-93.62671824316318
 31
0
  0
LINE
  8
TRACE
 10
-108.00662524463395
 20
-93.62671824316318
 30
0
 11
-108.59662524463396
 21
-93.62671824316318
 31
0
  0
LINE
  8
TRACE
 10
-152.04662524463396
 20
-95.40671824316318
 30
0
 11
-155.62662524463394
 21
-96.59671824316318
 31
0
  0
LINE
  8
TRACE
 10
-155.62662524463394
 20
-96.59671824316318
 30
0
 11
-154.43662524463394
 21
-98.97671824316319
 31
0
  0
LINE
  8
TRACE
 10
-154.43662524463394
 20
-98.97671824316319
 30
0
 11
-149.66662524463396
 21
-97.19671824316319
 31
0
  0
LINE
  8
TRACE
 10
-149.66662524463396
 20
-97.19671824316319
 30
0
 11
-151.45662524463395
 21
-95.40671824316318
 31
0
  0
LINE
  8
TRACE
 10
-151.45662524463395
 20
-95.40671824316318
 30
0
 11
-152.04662524463396
 21
-95.40671824316318
 31
0
  0
LINE
  8
TRACE
 10
-59.19662524463395
 20
-95.40671824316318
 30
0
 11
-64.55662524463395
 21
-95.40671824316318
 31
0
  0
LINE
  8
TRACE
 10
-64.55662524463395
 20
-95.40671824316318
 30
0
 11
-59.78662524463395
 21
-96.00671824316319
 31
0
  0
LINE
  8
TRACE
 10
-59.78662524463395
 20
-96.00671824316319
 30
0
 11
-59.19662524463395
 21
-95.40671824316318
 31
0
  0
LINE
  8
TRACE
 10
-126.45662524463395
 20
-96.00671824316319
 30
0
 11
-131.21662524463395
 21
-97.19671824316319
 31
0
  0
LINE
  8
TRACE
 10
-131.21662524463395
 20
-97.19671824316319
 30
0
 11
-125.85662524463396
 21
-96.59671824316318
 31
0
  0
LINE
  8
TRACE
 10
-125.85662524463396
 20
-96.59671824316318
 30
0
 11
-126.45662524463395
 21
-96.00671824316319
 31
0
  0
LINE
  8
TRACE
 10
-119.90662524463396
 20
-96.00671824316319
 30
0
 11
-122.88662524463396
 21
-96.59671824316318
 31
0
  0
LINE
  8
TRACE
 10
-122.88662524463396
 20
-96.59671824316318
 30
0
 11
-119.90662524463396
 21
-97.7867182431632
 31
0
  0
LINE
  8
TRACE
 10
-119.90662524463396
 20
-97.7867182431632
 30
0
 11
-119.31662524463395
 21
-96.00671824316319
 31
0
  0
LINE
  8
TRACE
 10
-119.31662524463395
 20
-96.00671824316319
 30
0
 11
-119.90662524463396
 21
-96.00671824316319
 31
0
  0
LINE
  8
TRACE
 10
-188.95662524463395
 20
-97.7867182431632
 30
0
 11
-191.93662524463394
 21
-98.38671824316319
 31
0
  0
LINE
  8
TRACE
 10
-191.93662524463394
 20
-98.38671824316319
 30
0
 11
-186.57662524463396
 21
-98.38671824316319
 31
0
  0
LINE
  8
TRACE
 10
-186.57662524463396
 20
-98.38671824316319
 30
0
 11
-188.35662524463396
 21
-97.7867182431632
 31
0
  0
LINE
  8
TRACE
 10
-188.35662524463396
 20
-97.7867182431632
 30
0
 11
-188.95662524463395
 21
-97.7867182431632
 31
0
  0
LINE
  8
TRACE
 10
-105.62662524463396
 20
-98.97671824316319
 30
0
 11
-106.21662524463396
 21
-103.14671824316318
 31
0
  0
LINE
  8
TRACE
 10
-106.21662524463396
 20
-103.14671824316318
 30
0
 11
-105.62662524463396
 21
-99.57671824316319
 31
0
  0
LINE
  8
TRACE
 10
-105.62662524463396
 20
-99.57671824316319
 30
0
 11
-105.62662524463396
 21
-98.97671824316319
 31
0
  0
LINE
  8
TRACE
 10
-192.52662524463395
 20
-99.57671824316319
 30
0
 11
-196.69662524463396
 21
-98.38671824316319
 31
0
  0
LINE
  8
TRACE
 10
-196.69662524463396
 20
-98.38671824316319
 30
0
 11
-200.26662524463396
 21
-100.16671824316319
 31
0
  0
LINE
  8
TRACE
 10
-200.26662524463396
 20
-100.16671824316319
 30
0
 11
-193.12662524463394
 21
-100.16671824316319
 31
0
  0
LINE
  8
TRACE
 10
-193.12662524463394
 20
-100.16671824316319
 30
0
 11
-192.52662524463395
 21
-99.57671824316319
 31
0
  0
LINE
  8
TRACE
 10
-120.50662524463395
 20
-100.16671824316319
 30
0
 11
-123.47662524463396
 21
-101.35671824316319
 31
0
  0
LINE
  8
TRACE
 10
-123.47662524463396
 20
-101.35671824316319
 30
0
 11
-119.90662524463396
 21
-102.55671824316317
 31
0
  0
LINE
  8
TRACE
 10
-119.90662524463396
 20
-102.55671824316317
 30
0
 11
-118.71662524463395
 21
-100.76671824316318
 31
0
  0
LINE
  8
TRACE
 10
-118.71662524463395
 20
-100.76671824316318
 30
0
 11
-120.50662524463395
 21
-100.76671824316318
 31
0
  0
LINE
  8
TRACE
 10
-120.50662524463395
 20
-100.76671824316318
 30
0
 11
-120.50662524463395
 21
-100.16671824316319
 31
0
  0
LINE
  8
TRACE
 10
-67.52662524463396
 20
-101.35671824316319
 30
0
 11
-71.69662524463395
 21
-101.95671824316318
 31
0
  0
LINE
  8
TRACE
 10
-71.69662524463395
 20
-101.95671824316318
 30
0
 11
-67.52662524463396
 21
-101.95671824316318
 31
0
  0
LINE
  8
TRACE
 10
-67.52662524463396
 20
-101.95671824316318
 30
0
 11
-67.52662524463396
 21
-101.35671824316319
 31
0
  0
LINE
  8
TRACE
 10
-188.35662524463396
 20
-101.95671824316318
 30
0
 11
-190.73662524463396
 21
-103.14671824316318
 31
0
  0
LINE
  8
TRACE
 10
-190.73662524463396
 20
-103.14671824316318
 30
0
 11
-185.97662524463396
 21
-106.12671824316318
 31
0
  0
LINE
  8
TRACE
 10
-185.97662524463396
 20
-106.12671824316318
 30
0
 11
-185.38662524463396
 21
-102.55671824316317
 31
0
  0
LINE
  8
TRACE
 10
-185.38662524463396
 20
-102.55671824316317
 30
0
 11
-187.76662524463396
 21
-101.95671824316318
 31
0
  0
LINE
  8
TRACE
 10
-187.76662524463396
 20
-101.95671824316318
 30
0
 11
-188.35662524463396
 21
-101.95671824316318
 31
0
  0
LINE
  8
TRACE
 10
-179.43662524463394
 20
-101.95671824316318
 30
0
 11
-181.81662524463394
 21
-101.95671824316318
 31
0
  0
LINE
  8
TRACE
 10
-181.81662524463394
 20
-101.95671824316318
 30
0
 11
-180.62662524463394
 21
-106.71671824316319
 31
0
  0
LINE
  8
TRACE
 10
-180.62662524463394
 20
-106.71671824316319
 30
0
 11
-177.04662524463396
 21
-105.52671824316317
 31
0
  0
LINE
  8
TRACE
 10
-177.04662524463396
 20
-105.52671824316317
 30
0
 11
-178.83662524463395
 21
-102.55671824316317
 31
0
  0
LINE
  8
TRACE
 10
-178.83662524463395
 20
-102.55671824316317
 30
0
 11
-179.43662524463394
 21
-101.95671824316318
 31
0
  0
LINE
  8
TRACE
 10
-99.07662524463396
 20
-101.95671824316318
 30
0
 11
-100.85662524463396
 21
-100.76671824316318
 31
0
  0
LINE
  8
TRACE
 10
-100.85662524463396
 20
-100.76671824316318
 30
0
 11
-103.24662524463396
 21
-104.93671824316318
 31
0
  0
LINE
  8
TRACE
 10
-103.24662524463396
 20
-104.93671824316318
 30
0
 11
-100.26662524463396
 21
-103.74671824316317
 31
0
  0
LINE
  8
TRACE
 10
-100.26662524463396
 20
-103.74671824316317
 30
0
 11
-101.45662524463395
 21
-105.52671824316317
 31
0
  0
LINE
  8
TRACE
 10
-101.45662524463395
 20
-105.52671824316317
 30
0
 11
-99.66662524463395
 21
-106.12671824316318
 31
0
  0
LINE
  8
TRACE
 10
-99.66662524463395
 20
-106.12671824316318
 30
0
 11
-99.07662524463396
 21
-102.55671824316317
 31
0
  0
LINE
  8
TRACE
 10
-99.07662524463396
 20
-102.55671824316317
 30
0
 11
-99.07662524463396
 21
-101.95671824316318
 31
0
  0
LINE
  8
TRACE
 10
-91.33662524463395
 20
-101.95671824316318
 30
0
 11
-94.90662524463396
 21
-104.93671824316318
 31
0
  0
LINE
  8
TRACE
 10
-94.90662524463396
 20
-104.93671824316318
 30
0
 11
-91.93662524463396
 21
-105.52671824316317
 31
0
  0
LINE
  8
TRACE
 10
-91.93662524463396
 20
-105.52671824316317
 30
0
 11
-93.12662524463396
 21
-104.33671824316318
 31
0
  0
LINE
  8
TRACE
 10
-93.12662524463396
 20
-104.33671824316318
 30
0
 11
-90.74662524463396
 21
-102.55671824316317
 31
0
  0
LINE
  8
TRACE
 10
-90.74662524463396
 20
-102.55671824316317
 30
0
 11
-91.33662524463395
 21
-101.95671824316318
 31
0
  0
LINE
  8
TRACE
 10
-145.50662524463394
 20
-105.52671824316317
 30
0
 11
-146.09662524463397
 21
-110.28671824316318
 31
0
  0
LINE
  8
TRACE
 10
-146.09662524463397
 20
-110.28671824316318
 30
0
 11
-143.12662524463394
 21
-109.09671824316318
 31
0
  0
LINE
  8
TRACE
 10
-143.12662524463394
 20
-109.09671824316318
 30
0
 11
-144.90662524463397
 21
-106.12671824316318
 31
0
  0
LINE
  8
TRACE
 10
-144.90662524463397
 20
-106.12671824316318
 30
0
 11
-145.50662524463394
 21
-105.52671824316317
 31
0
  0
LINE
  8
TRACE
 10
-70.50662524463395
 20
-105.52671824316317
 30
0
 11
-75.85662524463396
 21
-109.09671824316318
 31
0
  0
LINE
  8
TRACE
 10
-75.85662524463396
 20
-109.09671824316318
 30
0
 11
-73.47662524463395
 21
-111.47671824316319
 31
0
  0
LINE
  8
TRACE
 10
-73.47662524463395
 20
-111.47671824316319
 30
0
 11
-69.90662524463396
 21
-105.52671824316317
 31
0
  0
LINE
  8
TRACE
 10
-69.90662524463396
 20
-105.52671824316317
 30
0
 11
-70.50662524463395
 21
-105.52671824316317
 31
0
  0
LINE
  8
TRACE
 10
-133.59662524463397
 20
-106.12671824316318
 30
0
 11
-137.16662524463396
 21
-105.52671824316317
 31
0
  0
LINE
  8
TRACE
 10
-137.16662524463396
 20
-105.52671824316317
 30
0
 11
-138.35662524463396
 21
-109.09671824316318
 31
0
  0
LINE
  8
TRACE
 10
-138.35662524463396
 20
-109.09671824316318
 30
0
 11
-134.19662524463396
 21
-110.28671824316318
 31
0
  0
LINE
  8
TRACE
 10
-134.19662524463396
 20
-110.28671824316318
 30
0
 11
-134.19662524463396
 21
-106.71671824316319
 31
0
  0
LINE
  8
TRACE
 10
-134.19662524463396
 20
-106.71671824316319
 30
0
 11
-133.59662524463397
 21
-106.12671824316318
 31
0
  0
LINE
  8
TRACE
 10
-206.81662524463394
 20
-106.71671824316319
 30
0
 11
-209.19662524463396
 21
-106.71671824316319
 31
0
  0
LINE
  8
TRACE
 10
-209.19662524463396
 20
-106.71671824316319
 30
0
 11
-205.02662524463395
 21
-110.88671824316319
 31
0
  0
LINE
  8
TRACE
 10
-205.02662524463395
 20
-110.88671824316319
 30
0
 11
-206.81662524463394
 21
-107.31671824316318
 31
0
  0
LINE
  8
TRACE
 10
-206.81662524463394
 20
-107.31671824316318
 30
0
 11
-206.81662524463394
 21
-106.71671824316319
 31
0
  0
LINE
  8
TRACE
 10
-120.50662524463395
 20
-107.31671824316318
 30
0
 11
-125.85662524463396
 21
-107.31671824316318
 31
0
  0
LINE
  8
TRACE
 10
-125.85662524463396
 20
-107.31671824316318
 30
0
 11
-121.09662524463396
 21
-107.90671824316318
 31
0
  0
LINE
  8
TRACE
 10
-121.09662524463396
 20
-107.90671824316318
 30
0
 11
-120.50662524463395
 21
-107.31671824316318
 31
0
  0
LINE
  8
TRACE
 10
-168.71662524463397
 20
-110.28671824316318
 30
0
 11
-172.28662524463397
 21
-110.88671824316319
 31
0
  0
LINE
  8
TRACE
 10
-172.28662524463397
 20
-110.88671824316319
 30
0
 11
-169.31662524463394
 21
-113.85671824316319
 31
0
  0
LINE
  8
TRACE
 10
-169.31662524463394
 20
-113.85671824316319
 30
0
 11
-168.71662524463397
 21
-110.88671824316319
 31
0
  0
LINE
  8
TRACE
 10
-168.71662524463397
 20
-110.88671824316319
 30
0
 11
-168.71662524463397
 21
-110.28671824316318
 31
0
  0
LINE
  8
TRACE
 10
-175.26662524463396
 20
-110.88671824316319
 30
0
 11
-178.83662524463395
 21
-111.47671824316319
 31
0
  0
LINE
  8
TRACE
 10
-178.83662524463395
 20
-111.47671824316319
 30
0
 11
-176.45662524463395
 21
-116.24671824316319
 31
0
  0
LINE
  8
TRACE
 10
-176.45662524463395
 20
-116.24671824316319
 30
0
 11
-172.88662524463396
 21
-115.05671824316319
 31
0
  0
LINE
  8
TRACE
 10
-172.88662524463396
 20
-115.05671824316319
 30
0
 11
-175.85662524463396
 21
-113.85671824316319
 31
0
  0
LINE
  8
TRACE
 10
-175.85662524463396
 20
-113.85671824316319
 30
0
 11
-174.66662524463396
 21
-111.47671824316319
 31
0
  0
LINE
  8
TRACE
 10
-174.66662524463396
 20
-111.47671824316319
 30
0
 11
-175.26662524463396
 21
-110.88671824316319
 31
0
  0
LINE
  8
TRACE
 10
-103.24662524463396
 20
-110.88671824316319
 30
0
 11
-106.21662524463396
 21
-112.07671824316319
 31
0
  0
LINE
  8
TRACE
 10
-106.21662524463396
 20
-112.07671824316319
 30
0
 11
-106.81662524463395
 21
-115.64671824316318
 31
0
  0
LINE
  8
TRACE
 10
-106.81662524463395
 20
-115.64671824316318
 30
0
 11
-103.83662524463395
 21
-115.05671824316319
 31
0
  0
LINE
  8
TRACE
 10
-103.83662524463395
 20
-115.05671824316319
 30
0
 11
-105.02662524463396
 21
-112.66671824316319
 31
0
  0
LINE
  8
TRACE
 10
-105.02662524463396
 20
-112.66671824316319
 30
0
 11
-102.04662524463396
 21
-112.07671824316319
 31
0
  0
LINE
  8
TRACE
 10
-102.04662524463396
 20
-112.07671824316319
 30
0
 11
-103.83662524463395
 21
-111.47671824316319
 31
0
  0
LINE
  8
TRACE
 10
-103.83662524463395
 20
-111.47671824316319
 30
0
 11
-103.24662524463396
 21
-110.88671824316319
 31
0
  0
LINE
  8
TRACE
 10
-200.26662524463396
 20
-116.24671824316319
 30
0
 11
-202.04662524463396
 21
-117.43671824316318
 31
0
  0
LINE
  8
TRACE
 10
-202.04662524463396
 20
-117.43671824316318
 30
0
 11
-197.88662524463396
 21
-120.40671824316318
 31
0
  0
LINE
  8
TRACE
 10
-197.88662524463396
 20
-120.40671824316318
 30
0
 11
-196.69662524463396
 21
-119.21671824316319
 31
0
  0
LINE
  8
TRACE
 10
-196.69662524463396
 20
-119.21671824316319
 30
0
 11
-199.66662524463396
 21
-116.24671824316319
 31
0
  0
LINE
  8
TRACE
 10
-199.66662524463396
 20
-116.24671824316319
 30
0
 11
-200.26662524463396
 21
-116.24671824316319
 31
0
  0
LINE
  8
TRACE
 10
-144.31662524463394
 20
-116.24671824316319
 30
0
 11
-146.09662524463397
 21
-116.83671824316319
 31
0
  0
LINE
  8
TRACE
 10
-146.09662524463397
 20
-116.83671824316319
 30
0
 11
-144.90662524463397
 21
-118.62671824316318
 31
0
  0
LINE
  8
TRACE
 10
-144.90662524463397
 20
-118.62671824316318
 30
0
 11
-143.71662524463395
 21
-116.24671824316319
 31
0
  0
LINE
  8
TRACE
 10
-143.71662524463395
 20
-116.24671824316319
 30
0
 11
-144.31662524463394
 21
-116.24671824316319
 31
0
  0
LINE
  8
TRACE
 10
-119.90662524463396
 20
-119.21671824316319
 30
0
 11
-121.69662524463396
 21
-119.21671824316319
 31
0
  0
LINE
  8
TRACE
 10
-121.69662524463396
 20
-119.21671824316319
 30
0
 11
-121.09662524463396
 21
-121.59671824316318
 31
0
  0
LINE
  8
TRACE
 10
-121.09662524463396
 20
-121.59671824316318
 30
0
 11
-118.12662524463396
 21
-121.00671824316318
 31
0
  0
LINE
  8
TRACE
 10
-118.12662524463396
 20
-121.00671824316318
 30
0
 11
-119.31662524463395
 21
-118.62671824316318
 31
0
  0
LINE
  8
TRACE
 10
-119.31662524463395
 20
-118.62671824316318
 30
0
 11
-119.90662524463396
 21
-119.21671824316319
 31
0
  0
LINE
  8
TRACE
 10
-134.78662524463397
 20
-123.38671824316319
 30
0
 11
-138.35662524463396
 21
-122.78671824316318
 31
0
  0
LINE
  8
TRACE
 10
-138.35662524463396
 20
-122.78671824316318
 30
0
 11
-135.38662524463396
 21
-123.97671824316318
 31
0
  0
LINE
  8
TRACE
 10
-135.38662524463396
 20
-123.97671824316318
 30
0
 11
-134.78662524463397
 21
-123.38671824316319
 31
0
  0
LINE
  8
TRACE
 10
-146.69662524463396
 20
-123.97671824316318
 30
0
 11
-150.85662524463396
 21
-124.57671824316319
 31
0
  0
LINE
  8
TRACE
 10
-150.85662524463396
 20
-124.57671824316319
 30
0
 11
-146.69662524463396
 21
-124.57671824316319
 31
0
  0
LINE
  8
TRACE
 10
-146.69662524463396
 20
-124.57671824316319
 30
0
 11
-146.69662524463396
 21
-123.97671824316318
 31
0
  0
LINE
  8
TRACE
 10
-56.816625244633954
 20
-123.97671824316318
 30
0
 11
-57.40662524463396
 21
-130.5267182431632
 31
0
  0
LINE
  8
TRACE
 10
-57.40662524463396
 20
-130.5267182431632
 30
0
 11
-56.816625244633954
 21
-124.57671824316319
 31
0
  0
LINE
  8
TRACE
 10
-56.816625244633954
 20
-124.57671824316319
 30
0
 11
-56.816625244633954
 21
-123.97671824316318
 31
0
  0
LINE
  8
TRACE
 10
-124.66662524463396
 20
-124.57671824316319
 30
0
 11
-128.24662524463395
 21
-123.97671824316318
 31
0
  0
LINE
  8
TRACE
 10
-128.24662524463395
 20
-123.97671824316318
 30
0
 11
-128.83662524463395
 21
-126.35671824316319
 31
0
  0
LINE
  8
TRACE
 10
-128.83662524463395
 20
-126.35671824316319
 30
0
 11
-124.66662524463396
 21
-125.16671824316317
 31
0
  0
LINE
  8
TRACE
 10
-124.66662524463396
 20
-125.16671824316317
 30
0
 11
-124.66662524463396
 21
-124.57671824316319
 31
0
  0
LINE
  8
TRACE
 10
-121.09662524463396
 20
-125.16671824316317
 30
0
 11
-123.47662524463396
 21
-126.95671824316318
 31
0
  0
LINE
  8
TRACE
 10
-123.47662524463396
 20
-126.95671824316318
 30
0
 11
-122.28662524463395
 21
-128.14671824316318
 31
0
  0
LINE
  8
TRACE
 10
-122.28662524463395
 20
-128.14671824316318
 30
0
 11
-120.50662524463395
 21
-125.16671824316317
 31
0
  0
LINE
  8
TRACE
 10
-120.50662524463395
 20
-125.16671824316317
 30
0
 11
-121.09662524463396
 21
-125.16671824316317
 31
0
  0
LINE
  8
TRACE
 10
-162.16662524463396
 20
-126.35671824316319
 30
0
 11
-165.73662524463396
 21
-127.55671824316319
 31
0
  0
LINE
  8
TRACE
 10
-165.73662524463396
 20
-127.55671824316319
 30
0
 11
-162.16662524463396
 21
-128.74671824316317
 31
0
  0
LINE
  8
TRACE
 10
-162.16662524463396
 20
-128.74671824316317
 30
0
 11
-162.16662524463396
 21
-126.95671824316318
 31
0
  0
LINE
  8
TRACE
 10
-162.16662524463396
 20
-126.95671824316318
 30
0
 11
-162.16662524463396
 21
-126.35671824316319
 31
0
  0
LINE
  8
TRACE
 10
-211.57662524463396
 20
-128.14671824316318
 30
0
 11
-217.52662524463395
 21
-132.31671824316317
 31
0
  0
LINE
  8
TRACE
 10
-217.52662524463395
 20
-132.31671824316317
 30
0
 11
-216.33662524463395
 21
-150.76671824316318
 31
0
  0
LINE
  8
TRACE
 10
-216.33662524463395
 20
-150.76671824316318
 30
0
 11
-205.02662524463395
 21
-149.57671824316319
 31
0
  0
LINE
  8
TRACE
 10
-205.02662524463395
 20
-149.57671824316319
 30
0
 11
-205.02662524463395
 21
-135.2867182431632
 31
0
  0
LINE
  8
TRACE
 10
-205.02662524463395
 20
-135.2867182431632
 30
0
 11
-206.81662524463394
 21
-133.50671824316316
 31
0
  0
LINE
  8
TRACE
 10
-206.81662524463394
 20
-133.50671824316316
 30
0
 11
-209.78662524463397
 21
-135.2867182431632
 31
0
  0
LINE
  8
TRACE
 10
-209.78662524463397
 20
-135.2867182431632
 30
0
 11
-210.97662524463396
 21
-134.0967182431632
 31
0
  0
LINE
  8
TRACE
 10
-210.97662524463396
 20
-134.0967182431632
 30
0
 11
-208.59662524463397
 21
-131.7167182431632
 31
0
  0
LINE
  8
TRACE
 10
-208.59662524463397
 20
-131.7167182431632
 30
0
 11
-211.57662524463396
 21
-128.74671824316317
 31
0
  0
LINE
  8
TRACE
 10
-211.57662524463396
 20
-128.74671824316317
 30
0
 11
-211.57662524463396
 21
-128.14671824316318
 31
0
  0
LINE
  8
TRACE
 10
-68.12662524463396
 20
-128.74671824316317
 30
0
 11
-74.66662524463395
 21
-132.9067182431632
 31
0
  0
LINE
  8
TRACE
 10
-74.66662524463395
 20
-132.9067182431632
 30
0
 11
-75.26662524463396
 21
-148.38671824316316
 31
0
  0
LINE
  8
TRACE
 10
-75.26662524463396
 20
-148.38671824316316
 30
0
 11
-63.35662524463396
 21
-150.1667182431632
 31
0
  0
LINE
  8
TRACE
 10
-63.35662524463396
 20
-150.1667182431632
 30
0
 11
-62.16662524463395
 21
-132.31671824316317
 31
0
  0
LINE
  8
TRACE
 10
-62.16662524463395
 20
-132.31671824316317
 30
0
 11
-68.12662524463396
 21
-129.3367182431632
 31
0
  0
LINE
  8
TRACE
 10
-68.12662524463396
 20
-129.3367182431632
 30
0
 11
-68.12662524463396
 21
-128.74671824316317
 31
0
  0
LINE
  8
TRACE
 10
-59.78662524463395
 20
-134.0967182431632
 30
0
 11
-60.38662524463396
 21
-139.45671824316318
 31
0
  0
LINE
  8
TRACE
 10
-60.38662524463396
 20
-139.45671824316318
 30
0
 11
-59.78662524463395
 21
-134.69671824316316
 31
0
  0
LINE
  8
TRACE
 10
-59.78662524463395
 20
-134.69671824316316
 30
0
 11
-59.78662524463395
 21
-134.0967182431632
 31
0
  0
LINE
  8
TRACE
 10
-218.71662524463395
 20
-135.2867182431632
 30
0
 11
-219.31662524463397
 21
-150.76671824316318
 31
0
  0
LINE
  8
TRACE
 10
-219.31662524463397
 20
-150.76671824316318
 30
0
 11
-218.71662524463395
 21
-135.88671824316316
 31
0
  0
LINE
  8
TRACE
 10
-218.71662524463395
 20
-135.88671824316316
 30
0
 11
-218.71662524463395
 21
-135.2867182431632
 31
0
  0
LINE
  8
TRACE
 10
-83.59662524463396
 20
-141.8367182431632
 30
0
 11
-87.76662524463396
 21
-144.2167182431632
 31
0
  0
LINE
  8
TRACE
 10
-87.76662524463396
 20
-144.2167182431632
 30
0
 11
-87.16662524463395
 21
-148.9767182431632
 31
0
  0
LINE
  8
TRACE
 10
-87.16662524463395
 20
-148.9767182431632
 30
0
 11
-84.19662524463395
 21
-150.1667182431632
 31
0
  0
LINE
  8
TRACE
 10
-84.19662524463395
 20
-150.1667182431632
 30
0
 11
-80.62662524463396
 21
-147.7867182431632
 31
0
  0
LINE
  8
TRACE
 10
-80.62662524463396
 20
-147.7867182431632
 30
0
 11
-82.40662524463396
 21
-144.2167182431632
 31
0
  0
LINE
  8
TRACE
 10
-82.40662524463396
 20
-144.2167182431632
 30
0
 11
-84.78662524463395
 21
-144.2167182431632
 31
0
  0
LINE
  8
TRACE
 10
-84.78662524463395
 20
-144.2167182431632
 30
0
 11
-82.40662524463396
 21
-143.62671824316317
 31
0
  0
LINE
  8
TRACE
 10
-82.40662524463396
 20
-143.62671824316317
 30
0
 11
-83.59662524463396
 21
-142.43671824316317
 31
0
  0
LINE
  8
TRACE
 10
-83.59662524463396
 20
-142.43671824316317
 30
0
 11
-83.59662524463396
 21
-141.8367182431632
 31
0
  0
LINE
  8
TRACE
 10
-194.31662524463394
 20
-143.0267182431632
 30
0
 11
-199.66662524463396
 21
-145.4067182431632
 31
0
  0
LINE
  8
TRACE
 10
-199.66662524463396
 20
-145.4067182431632
 30
0
 11
-197.28662524463397
 21
-147.7867182431632
 31
0
  0
LINE
  8
TRACE
 10
-197.28662524463397
 20
-147.7867182431632
 30
0
 11
-200.26662524463396
 21
-148.38671824316316
 31
0
  0
LINE
  8
TRACE
 10
-200.26662524463396
 20
-148.38671824316316
 30
0
 11
-199.07662524463396
 21
-150.1667182431632
 31
0
  0
LINE
  8
TRACE
 10
-199.07662524463396
 20
-150.1667182431632
 30
0
 11
-192.52662524463395
 21
-150.1667182431632
 31
0
  0
LINE
  8
TRACE
 10
-192.52662524463395
 20
-150.1667182431632
 30
0
 11
-194.31662524463394
 21
-143.62671824316317
 31
0
  0
LINE
  8
TRACE
 10
-194.31662524463394
 20
-143.62671824316317
 30
0
 11
-194.31662524463394
 21
-143.0267182431632
 31
0
  0
LINE
  8
TRACE
 10
-115.14662524463395
 20
-147.19671824316316
 30
0
 11
-119.90662524463396
 21
-147.19671824316316
 31
0
  0
LINE
  8
TRACE
 10
-119.90662524463396
 20
-147.19671824316316
 30
0
 11
-115.74662524463395
 21
-147.7867182431632
 31
0
  0
LINE
  8
TRACE
 10
-115.74662524463395
 20
-147.7867182431632
 30
0
 11
-115.14662524463395
 21
-147.19671824316316
 31
0
  0
LINE
  8
TRACE
 10
-206.21662524463397
 20
-153.1467182431632
 30
0
 11
-211.57662524463396
 21
-153.1467182431632
 31
0
  0
LINE
  8
TRACE
 10
-211.57662524463396
 20
-153.1467182431632
 30
0
 11
-206.81662524463394
 21
-153.74671824316317
 31
0
  0
LINE
  8
TRACE
 10
-206.81662524463394
 20
-153.74671824316317
 30
0
 11
-206.21662524463397
 21
-153.1467182431632
 31
0
  0
LINE
  8
TRACE
 10
-192.52662524463395
 20
-153.1467182431632
 30
0
 11
-197.28662524463397
 21
-153.1467182431632
 31
0
  0
LINE
  8
TRACE
 10
-197.28662524463397
 20
-153.1467182431632
 30
0
 11
-193.12662524463394
 21
-153.74671824316317
 31
0
  0
LINE
  8
TRACE
 10
-193.12662524463394
 20
-153.74671824316317
 30
0
 11
-192.52662524463395
 21
-153.1467182431632
 31
0
  0
LINE
  8
TRACE
 10
-80.62662524463396
 20
-154.3367182431632
 30
0
 11
-86.57662524463396
 21
-153.74671824316317
 31
0
  0
LINE
  8
TRACE
 10
-86.57662524463396
 20
-153.74671824316317
 30
0
 11
-87.16662524463395
 21
-159.0967182431632
 31
0
  0
LINE
  8
TRACE
 10
-87.16662524463395
 20
-159.0967182431632
 30
0
 11
-81.21662524463396
 21
-159.69671824316316
 31
0
  0
LINE
  8
TRACE
 10
-81.21662524463396
 20
-159.69671824316316
 30
0
 11
-80.62662524463396
 21
-154.93671824316317
 31
0
  0
LINE
  8
TRACE
 10
-80.62662524463396
 20
-154.93671824316317
 30
0
 11
-80.62662524463396
 21
-154.3367182431632
 31
0
  0
LINE
  8
TRACE
 10
-206.21662524463397
 20
-154.93671824316317
 30
0
 11
-209.19662524463396
 21
-156.12671824316317
 31
0
  0
LINE
  8
TRACE
 10
-209.19662524463396
 20
-156.12671824316317
 30
0
 11
-206.81662524463394
 21
-157.31671824316317
 31
0
  0
LINE
  8
TRACE
 10
-206.81662524463394
 20
-157.31671824316317
 30
0
 11
-205.62662524463394
 21
-155.5267182431632
 31
0
  0
LINE
  8
TRACE
 10
-205.62662524463394
 20
-155.5267182431632
 30
0
 11
-206.21662524463397
 21
-154.93671824316317
 31
0
  0
LINE
  8
TRACE
 10
-192.52662524463395
 20
-154.93671824316317
 30
0
 11
-199.07662524463396
 21
-154.3367182431632
 31
0
  0
LINE
  8
TRACE
 10
-199.07662524463396
 20
-154.3367182431632
 30
0
 11
-199.07662524463396
 21
-160.88671824316316
 31
0
  0
LINE
  8
TRACE
 10
-199.07662524463396
 20
-160.88671824316316
 30
0
 11
-196.09662524463397
 21
-162.07671824316319
 31
0
  0
LINE
  8
TRACE
 10
-196.09662524463397
 20
-162.07671824316319
 30
0
 11
-192.52662524463395
 21
-155.5267182431632
 31
0
  0
LINE
  8
TRACE
 10
-192.52662524463395
 20
-155.5267182431632
 30
0
 11
-192.52662524463395
 21
-154.93671824316317
 31
0
  0
LINE
  8
TRACE
 10
-185.38662524463396
 20
-154.93671824316317
 30
0
 11
-188.35662524463396
 21
-156.12671824316317
 31
0
  0
LINE
  8
TRACE
 10
-188.35662524463396
 20
-156.12671824316317
 30
0
 11
-187.76662524463396
 21
-165.64671824316318
 31
0
  0
LINE
  8
TRACE
 10
-187.76662524463396
 20
-165.64671824316318
 30
0
 11
-185.38662524463396
 21
-163.8567182431632
 31
0
  0
LINE
  8
TRACE
 10
-185.38662524463396
 20
-163.8567182431632
 30
0
 11
-185.38662524463396
 21
-155.5267182431632
 31
0
  0
LINE
  8
TRACE
 10
-185.38662524463396
 20
-155.5267182431632
 30
0
 11
-185.38662524463396
 21
-154.93671824316317
 31
0
  0
LINE
  8
TRACE
 10
-93.12662524463396
 20
-154.93671824316317
 30
0
 11
-94.90662524463396
 21
-154.93671824316317
 31
0
  0
LINE
  8
TRACE
 10
-94.90662524463396
 20
-154.93671824316317
 30
0
 11
-94.90662524463396
 21
-166.83671824316318
 31
0
  0
LINE
  8
TRACE
 10
-94.90662524463396
 20
-166.83671824316318
 30
0
 11
-91.93662524463396
 21
-165.64671824316318
 31
0
  0
LINE
  8
TRACE
 10
-91.93662524463396
 20
-165.64671824316318
 30
0
 11
-92.52662524463396
 21
-154.3367182431632
 31
0
  0
LINE
  8
TRACE
 10
-92.52662524463396
 20
-154.3367182431632
 30
0
 11
-93.12662524463396
 21
-154.93671824316317
 31
0
  0
LINE
  8
TRACE
 10
-77.64662524463395
 20
-154.93671824316317
 30
0
 11
-79.43662524463396
 21
-154.93671824316317
 31
0
  0
LINE
  8
TRACE
 10
-79.43662524463396
 20
-154.93671824316317
 30
0
 11
-78.83662524463395
 21
-158.50671824316316
 31
0
  0
LINE
  8
TRACE
 10
-78.83662524463395
 20
-158.50671824316316
 30
0
 11
-77.64662524463395
 21
-155.5267182431632
 31
0
  0
LINE
  8
TRACE
 10
-77.64662524463395
 20
-155.5267182431632
 30
0
 11
-77.64662524463395
 21
-154.93671824316317
 31
0
  0
LINE
  8
TRACE
 10
-70.50662524463395
 20
-154.93671824316317
 30
0
 11
-75.26662524463396
 21
-154.93671824316317
 31
0
  0
LINE
  8
TRACE
 10
-75.26662524463396
 20
-154.93671824316317
 30
0
 11
-70.50662524463395
 21
-155.5267182431632
 31
0
  0
LINE
  8
TRACE
 10
-70.50662524463395
 20
-155.5267182431632
 30
0
 11
-70.50662524463395
 21
-154.93671824316317
 31
0
  0
LINE
  8
TRACE
 10
-93.12662524463396
 20
-155.5267182431632
 30
0
 11
-94.90662524463396
 21
-154.93671824316317
 31
0
  0
LINE
  8
TRACE
 10
-94.90662524463396
 20
-154.93671824316317
 30
0
 11
-94.90662524463396
 21
-166.83671824316318
 31
0
  0
LINE
  8
TRACE
 10
-94.90662524463396
 20
-166.83671824316318
 30
0
 11
-91.93662524463396
 21
-165.64671824316318
 31
0
  0
LINE
  8
TRACE
 10
-91.93662524463396
 20
-165.64671824316318
 30
0
 11
-93.12662524463396
 21
-154.93671824316317
 31
0
  0
LINE
  8
TRACE
 10
-93.12662524463396
 20
-154.93671824316317
 30
0
 11
-93.12662524463396
 21
-155.5267182431632
 31
0
  0
LINE
  8
TRACE
 10
-93.12662524463396
 20
-156.12671824316317
 30
0
 11
-94.31662524463395
 21
-154.3367182431632
 31
0
  0
LINE
  8
TRACE
 10
-94.31662524463395
 20
-154.3367182431632
 30
0
 11
-94.90662524463396
 21
-166.83671824316318
 31
0
  0
LINE
  8
TRACE
 10
-94.90662524463396
 20
-166.83671824316318
 30
0
 11
-91.93662524463396
 21
-165.64671824316318
 31
0
  0
LINE
  8
TRACE
 10
-91.93662524463396
 20
-165.64671824316318
 30
0
 11
-93.12662524463396
 21
-155.5267182431632
 31
0
  0
LINE
  8
TRACE
 10
-93.12662524463396
 20
-155.5267182431632
 30
0
 11
-93.12662524463396
 21
-156.12671824316317
 31
0
  0
LINE
  8
TRACE
 10
-93.12662524463396
 20
-156.7167182431632
 30
0
 11
-94.31662524463395
 21
-154.3367182431632
 31
0
  0
LINE
  8
TRACE
 10
-94.31662524463395
 20
-154.3367182431632
 30
0
 11
-94.90662524463396
 21
-166.83671824316318
 31
0
  0
LINE
  8
TRACE
 10
-94.90662524463396
 20
-166.83671824316318
 30
0
 11
-91.93662524463396
 21
-165.64671824316318
 31
0
  0
LINE
  8
TRACE
 10
-91.93662524463396
 20
-165.64671824316318
 30
0
 11
-92.52662524463396
 21
-154.3367182431632
 31
0
  0
LINE
  8
TRACE
 10
-92.52662524463396
 20
-154.3367182431632
 30
0
 11
-93.12662524463396
 21
-156.12671824316317
 31
0
  0
LINE
  8
TRACE
 10
-93.12662524463396
 20
-156.12671824316317
 30
0
 11
-93.12662524463396
 21
-156.7167182431632
 31
0
  0
LINE
  8
TRACE
 10
-93.12662524463396
 20
-157.31671824316317
 30
0
 11
-94.31662524463395
 21
-154.3367182431632
 31
0
  0
LINE
  8
TRACE
 10
-94.31662524463395
 20
-154.3367182431632
 30
0
 11
-94.90662524463396
 21
-166.83671824316318
 31
0
  0
LINE
  8
TRACE
 10
-94.90662524463396
 20
-166.83671824316318
 30
0
 11
-91.93662524463396
 21
-165.64671824316318
 31
0
  0
LINE
  8
TRACE
 10
-91.93662524463396
 20
-165.64671824316318
 30
0
 11
-92.52662524463396
 21
-154.3367182431632
 31
0
  0
LINE
  8
TRACE
 10
-92.52662524463396
 20
-154.3367182431632
 30
0
 11
-93.12662524463396
 21
-156.7167182431632
 31
0
  0
LINE
  8
TRACE
 10
-93.12662524463396
 20
-156.7167182431632
 30
0
 11
-93.12662524463396
 21
-157.31671824316317
 31
0
  0
LINE
  8
TRACE
 10
-100.26662524463396
 20
-159.0967182431632
 30
0
 11
-101.45662524463395
 21
-170.4067182431632
 31
0
  0
LINE
  8
TRACE
 10
-101.45662524463395
 20
-170.4067182431632
 30
0
 11
-99.66662524463395
 21
-169.2167182431632
 31
0
  0
LINE
  8
TRACE
 10
-99.66662524463395
 20
-169.2167182431632
 30
0
 11
-100.26662524463396
 21
-159.69671824316316
 31
0
  0
LINE
  8
TRACE
 10
-100.26662524463396
 20
-159.69671824316316
 30
0
 11
-100.26662524463396
 21
-159.0967182431632
 31
0
  0
LINE
  8
TRACE
 10
-59.78662524463395
 20
-159.0967182431632
 30
0
 11
-60.38662524463396
 21
-164.45671824316318
 31
0
  0
LINE
  8
TRACE
 10
-60.38662524463396
 20
-164.45671824316318
 30
0
 11
-59.78662524463395
 21
-159.69671824316316
 31
0
  0
LINE
  8
TRACE
 10
-59.78662524463395
 20
-159.69671824316316
 30
0
 11
-59.78662524463395
 21
-159.0967182431632
 31
0
  0
LINE
  8
TRACE
 10
-215.73662524463396
 20
-160.2867182431632
 30
0
 11
-218.12662524463397
 21
-159.69671824316316
 31
0
  0
LINE
  8
TRACE
 10
-218.12662524463397
 20
-159.69671824316316
 30
0
 11
-217.52662524463395
 21
-172.1967182431632
 31
0
  0
LINE
  8
TRACE
 10
-217.52662524463395
 20
-172.1967182431632
 30
0
 11
-210.38662524463396
 21
-174.57671824316319
 31
0
  0
LINE
  8
TRACE
 10
-210.38662524463396
 20
-174.57671824316319
 30
0
 11
-205.62662524463394
 21
-172.7867182431632
 31
0
  0
LINE
  8
TRACE
 10
-205.62662524463394
 20
-172.7867182431632
 30
0
 11
-205.62662524463394
 21
-166.24671824316317
 31
0
  0
LINE
  8
TRACE
 10
-205.62662524463394
 20
-166.24671824316317
 30
0
 11
-214.54662524463396
 21
-163.26671824316318
 31
0
  0
LINE
  8
TRACE
 10
-214.54662524463396
 20
-163.26671824316318
 30
0
 11
-215.73662524463396
 21
-160.88671824316316
 31
0
  0
LINE
  8
TRACE
 10
-215.73662524463396
 20
-160.88671824316316
 30
0
 11
-215.73662524463396
 21
-160.2867182431632
 31
0
  0
LINE
  8
TRACE
 10
-218.71662524463395
 20
-162.07671824316319
 30
0
 11
-219.31662524463397
 21
-168.62671824316317
 31
0
  0
LINE
  8
TRACE
 10
-219.31662524463397
 20
-168.62671824316317
 30
0
 11
-218.71662524463395
 21
-162.6667182431632
 31
0
  0
LINE
  8
TRACE
 10
-218.71662524463395
 20
-162.6667182431632
 30
0
 11
-218.71662524463395
 21
-162.07671824316319
 31
0
  0
LINE
  8
TRACE
 10
-178.23662524463396
 20
-162.6667182431632
 30
0
 11
-181.21662524463397
 21
-163.8567182431632
 31
0
  0
LINE
  8
TRACE
 10
-181.21662524463397
 20
-163.8567182431632
 30
0
 11
-180.62662524463394
 21
-168.62671824316317
 31
0
  0
LINE
  8
TRACE
 10
-180.62662524463394
 20
-168.62671824316317
 30
0
 11
-178.23662524463396
 21
-168.0267182431632
 31
0
  0
LINE
  8
TRACE
 10
-178.23662524463396
 20
-168.0267182431632
 30
0
 11
-178.23662524463396
 21
-163.26671824316318
 31
0
  0
LINE
  8
TRACE
 10
-178.23662524463396
 20
-163.26671824316318
 30
0
 11
-178.23662524463396
 21
-162.6667182431632
 31
0
  0
LINE
  8
TRACE
 10
-174.07662524463396
 20
-164.45671824316318
 30
0
 11
-174.66662524463396
 21
-168.62671824316317
 31
0
  0
LINE
  8
TRACE
 10
-174.66662524463396
 20
-168.62671824316317
 30
0
 11
-174.07662524463396
 21
-165.04671824316318
 31
0
  0
LINE
  8
TRACE
 10
-174.07662524463396
 20
-165.04671824316318
 30
0
 11
-174.07662524463396
 21
-164.45671824316318
 31
0
  0
LINE
  8
TRACE
 10
-145.50662524463394
 20
-166.24671824316317
 30
0
 11
-147.88662524463396
 21
-168.62671824316317
 31
0
  0
LINE
  8
TRACE
 10
-147.88662524463396
 20
-168.62671824316317
 30
0
 11
-144.31662524463394
 21
-168.62671824316317
 31
0
  0
LINE
  8
TRACE
 10
-144.31662524463394
 20
-168.62671824316317
 30
0
 11
-144.90662524463397
 21
-166.83671824316318
 31
0
  0
LINE
  8
TRACE
 10
-144.90662524463397
 20
-166.83671824316318
 30
0
 11
-145.50662524463394
 21
-166.24671824316317
 31
0
  0
LINE
  8
TRACE
 10
-105.02662524463396
 20
-168.62671824316317
 30
0
 11
-106.81662524463395
 21
-168.0267182431632
 31
0
  0
LINE
  8
TRACE
 10
-106.81662524463395
 20
-168.0267182431632
 30
0
 11
-106.21662524463396
 21
-172.1967182431632
 31
0
  0
LINE
  8
TRACE
 10
-106.21662524463396
 20
-172.1967182431632
 30
0
 11
-105.02662524463396
 21
-169.2167182431632
 31
0
  0
LINE
  8
TRACE
 10
-105.02662524463396
 20
-169.2167182431632
 30
0
 11
-105.02662524463396
 21
-168.62671824316317
 31
0
  0
LINE
  8
TRACE
 10
-125.26662524463396
 20
-169.2167182431632
 30
0
 11
-130.02662524463395
 21
-169.2167182431632
 31
0
  0
LINE
  8
TRACE
 10
-130.02662524463395
 20
-169.2167182431632
 30
0
 11
-124.66662524463396
 21
-169.81671824316317
 31
0
  0
LINE
  8
TRACE
 10
-124.66662524463396
 20
-169.81671824316317
 30
0
 11
-125.26662524463396
 21
-169.2167182431632
 31
0
  0
ENDSEC
  0
EOF