  0
SECTION
  2
HEADER
  9
$ACADVER
  1
AC1015
  9
$INSUNITS
 70
0
  9
$EXTMIN
 10
-5000
 20
-40500
 30
0
  9
$EXTMAX
 10
101000
 20
10200
 30
0
  0
ENDSEC
  0
SECTION
  2
TABLES
  0
TABLE
  2
LTYPE
 70
7
  0
LTYPE
  2
CONTINUOUS
 70
0
  3
Solid line
 72
65
 73
0
 40
0
  0
LTYPE
  2
DASHED
 70
0
  3
Dashed line
 72
65
 73
2
 40
0.75
 49
0.5
 49
-0.25
  0
LTYPE
  2
HIDDEN
 70
0
  3
Hidden line
 72
65
 73
2
 40
9.525
 49
6.35
 49
-3.175
  0
LTYPE
  2
CENTER
 70
0
  3
Center line
 72
65
 73
4
 40
50.8
 49
31.75
 49
-6.35
 49
6.35
 49
-6.35
  0
LTYPE
  2
DASHDOT
 70
0
  3
Dash dot line
 72
65
 73
4
 40
25.4
 49
12.7
 49
-6.35
 49
0
 49
-6.35
  0
LTYPE
  2
PHANTOM
 70
0
  3
Phantom line
 72
65
 73
6
 40
63.5
 49
31.75
 49
-6.35
 49
6.35
 49
-6.35
 49
6.35
 49
-6.35
  0
LTYPE
  2
DOT
 70
0
  3
Dotted line
 72
65
 73
2
 40
6.35
 49
0
 49
-6.35
  0
ENDTAB
  0
TABLE
  2
LAYER
 70
13
  0
LAYER
  2
0
 70
0
 62
7
  6
CONTINUOUS
  0
LAYER
  2
GRID
 70
0
 62
8
  6
CONTINUOUS
  0
LAYER
  2
COLUMN
 70
0
 62
3
  6
CONTINUOUS
  0
LAYER
  2
BEAM
 70
0
 62
4
  6
CONTINUOUS
  0
LAYER
  2
PURLIN
 70
0
 62
6
  6
CONTINUOUS
  0
LAYER
  2
BRACE
 70
0
 62
1
  6
CONTINUOUS
  0
LAYER
  2
DIM
 70
0
 62
1
  6
CONTINUOUS
  0
LAYER
  2
TEXT
 70
0
 62
7
  6
CONTINUOUS
  0
LAYER
  2
FOUND
 70
0
 62
5
  6
CONTINUOUS
  0
LAYER
  2
PLATE
 70
0
 62
2
  6
CONTINUOUS
  0
LAYER
  2
WALL
 70
0
 62
7
  6
CONTINUOUS
  0
LAYER
  2
ROOF
 70
0
 62
2
  6
CONTINUOUS
  0
LAYER
  2
INSUL
 70
0
 62
8
  6
CONTINUOUS
  0
ENDTAB
  0
TABLE
  2
DIMSTYLE
 70
1
  0
DIMSTYLE
  2
STANDARD
 70
0
140
2.5
141
2.5
44
1.25
42
0.625
147
0.625
77
1
  0
ENDTAB
  0
ENDSEC
  0
SECTION
  2
BLOCKS
  0
BLOCK
  8
0
  2
*D1
 70
0
 10
0
 20
0
 30
0
  0
LINE
  8
DIM
 10
0
 20
-0.625
 30
0
 11
0
 21
-1501.25
 31
0
  0
LINE
  8
DIM
 10
20000
 20
-0.625
 30
0
 11
20000
 21
-1501.25
 31
0
  0
LINE
  8
DIM
 10
0
 20
-1500
 30
0
 11
20000
 21
-1500
 31
0
  0
SOLID
  8
DIM
 10
0
 20
-1500
 30
0
 11
150
 21
-1545
 31
0
 12
150
 22
-1455
 32
0
 13
150
 23
-1455
 33
0
  0
SOLID
  8
DIM
 10
20000
 20
-1500
 30
0
 11
19850
 21
-1455
 31
0
 12
19850
 22
-1545
 32
0
 13
19850
 23
-1545
 33
0
  0
TEXT
  8
DIM
 10
10000
 20
-1500
 30
0
 40
200
  1
20000
 72
1
 73
2
  0
ENDBLK
  8
0
  0
BLOCK
  8
0
  2
*D2
 70
0
 10
0
 20
0
 30
0
  0
LINE
  8
DIM
 10
0
 20
-0.625
 30
0
 11
0
 21
-2201.25
 31
0
  0
LINE
  8
DIM
 10
10000
 20
-0.625
 30
0
 11
10000
 21
-2201.25
 31
0
  0
LINE
  8
DIM
 10
0
 20
-2200
 30
0
 11
10000
 21
-2200
 31
0
  0
SOLID
  8
DIM
 10
0
 20
-2200
 30
0
 11
150
 21
-2245
 31
0
 12
150
 22
-2155
 32
0
 13
150
 23
-2155
 33
0
  0
SOLID
  8
DIM
 10
10000
 20
-2200
 30
0
 11
9850
 21
-2155
 31
0
 12
9850
 22
-2245
 32
0
 13
9850
 23
-2245
 33
0
  0
TEXT
  8
DIM
 10
5000
 20
-2200
 30
0
 40
200
  1
10000
 72
1
 73
2
  0
ENDBLK
  8
0
  0
BLOCK
  8
0
  2
*D3
 70
0
 10
0
 20
0
 30
0
  0
LINE
  8
DIM
 10
10000
 20
-0.625
 30
0
 11
10000
 21
-2201.25
 31
0
  0
LINE
  8
DIM
 10
20000
 20
-0.625
 30
0
 11
20000
 21
-2201.25
 31
0
  0
LINE
  8
DIM
 10
10000
 20
-2200
 30
0
 11
20000
 21
-2200
 31
0
  0
SOLID
  8
DIM
 10
10000
 20
-2200
 30
0
 11
10150
 21
-2245
 31
0
 12
10150
 22
-2155
 32
0
 13
10150
 23
-2155
 33
0
  0
SOLID
  8
DIM
 10
20000
 20
-2200
 30
0
 11
19850
 21
-2155
 31
0
 12
19850
 22
-2245
 32
0
 13
19850
 23
-2245
 33
0
  0
TEXT
  8
DIM
 10
15000
 20
-2200
 30
0
 40
200
  1
10000
 72
1
 73
2
  0
ENDBLK
  8
0
  0
BLOCK
  8
0
  2
*D4
 70
0
 10
0
 20
0
 30
0
  0
LINE
  8
DIM
 10
-2000.625
 20
0
 30
0
 11
-3001.25
 21
0
 31
0
  0
LINE
  8
DIM
 10
-2000.625
 20
8000
 30
0
 11
-3001.25
 21
8000
 31
0
  0
LINE
  8
DIM
 10
-3000
 20
0
 30
0
 11
-3000
 21
8000
 31
0
  0
SOLID
  8
DIM
 10
-3000
 20
0
 30
0
 11
-2955
 21
150
 31
0
 12
-3045
 22
150
 32
0
 13
-3045
 23
150
 33
0
  0
SOLID
  8
DIM
 10
-3000
 20
8000
 30
0
 11
-3045
 21
7850
 31
0
 12
-2955
 22
7850
 32
0
 13
-2955
 23
7850
 33
0
  0
TEXT
  8
DIM
 10
-3000
 20
4000
 30
0
 40
200
  1
8000
 50
90
 72
1
 73
2
  0
ENDBLK
  8
0
  0
BLOCK
  8
0
  2
*D5
 70
0
 10
0
 20
0
 30
0
  0
LINE
  8
DIM
 10
-2000.625
 20
0
 30
0
 11
-4501.25
 21
0
 31
0
  0
LINE
  8
DIM
 10
-2000.625
 20
9763
 30
0
 11
-4501.25
 21
9763
 31
0
  0
LINE
  8
DIM
 10
-4500
 20
0
 30
0
 11
-4500
 21
9763
 31
0
  0
SOLID
  8
DIM
 10
-4500
 20
0
 30
0
 11
-4455
 21
150
 31
0
 12
-4545
 22
150
 32
0
 13
-4545
 23
150
 33
0
  0
SOLID
  8
DIM
 10
-4500
 20
9763
 30
0
 11
-4545
 21
9613
 31
0
 12
-4455
 22
9613
 32
0
 13
-4455
 23
9613
 33
0
  0
TEXT
  8
DIM
 10
-4500
 20
4881.5
 30
0
 40
200
  1
9763
 50
90
 72
1
 73
2
  0
ENDBLK
  8
0
  0
BLOCK
  8
0
  2
*D6
 70
0
 10
0
 20
0
 30
0
  0
LINE
  8
DIM
 10
0
 20
-17999.375
 30
0
 11
0
 21
-15998.75
 31
0
  0
LINE
  8
DIM
 10
5000
 20
-17999.375
 30
0
 11
5000
 21
-15998.75
 31
0
  0
LINE
  8
DIM
 10
0
 20
-16000
 30
0
 11
5000
 21
-16000
 31
0
  0
SOLID
  8
DIM
 10
0
 20
-16000
 30
0
 11
300
 21
-16090
 31
0
 12
300
 22
-15910
 32
0
 13
300
 23
-15910
 33
0
  0
SOLID
  8
DIM
 10
5000
 20
-16000
 30
0
 11
4700
 21
-15910
 31
0
 12
4700
 22
-16090
 32
0
 13
4700
 23
-16090
 33
0
  0
TEXT
  8
DIM
 10
2500
 20
-16000
 30
0
 40
400
  1
5000
 72
1
 73
2
  0
ENDBLK
  8
0
  0
BLOCK
  8
0
  2
*D7
 70
0
 10
0
 20
0
 30
0
  0
LINE
  8
DIM
 10
0
 20
-17999.375
 30
0
 11
0
 21
-14498.75
 31
0
  0
LINE
  8
DIM
 10
100000
 20
-17999.375
 30
0
 11
100000
 21
-14498.75
 31
0
  0
LINE
  8
DIM
 10
0
 20
-14500
 30
0
 11
100000
 21
-14500
 31
0
  0
SOLID
  8
DIM
 10
0
 20
-14500
 30
0
 11
300
 21
-14590
 31
0
 12
300
 22
-14410
 32
0
 13
300
 23
-14410
 33
0
  0
SOLID
  8
DIM
 10
100000
 20
-14500
 30
0
 11
99700
 21
-14410
 31
0
 12
99700
 22
-14590
 32
0
 13
99700
 23
-14590
 33
0
  0
TEXT
  8
DIM
 10
50000
 20
-14500
 30
0
 40
400
  1
100000
 72
1
 73
2
  0
ENDBLK
  8
0
  0
BLOCK
  8
0
  2
*D8
 70
0
 10
0
 20
0
 30
0
  0
LINE
  8
DIM
 10
-1000.625
 20
-18000
 30
0
 11
-3501.25
 21
-18000
 31
0
  0
LINE
  8
DIM
 10
-1000.625
 20
-38000
 30
0
 11
-3501.25
 21
-38000
 31
0
  0
LINE
  8
DIM
 10
-3500
 20
-18000
 30
0
 11
-3500
 21
-38000
 31
0
  0
SOLID
  8
DIM
 10
-3500
 20
-18000
 30
0
 11
-3410
 21
-17700
 31
0
 12
-3590
 22
-17700
 32
0
 13
-3590
 23
-17700
 33
0
  0
SOLID
  8
DIM
 10
-3500
 20
-38000
 30
0
 11
-3590
 21
-38300
 31
0
 12
-3410
 22
-38300
 32
0
 13
-3410
 23
-38300
 33
0
  0
TEXT
  8
DIM
 10
-3500
 20
-28000
 30
0
 40
400
  1
20000
 50
90
 72
1
 73
2
  0
ENDBLK
  8
0
  0
ENDSEC
  0
SECTION
  2
ENTITIES
  0
LINE
  8
GRID
 10
-2000
 20
0
 30
0
 11
22000
 21
0
 31
0
  0
LWPOLYLINE
  8
PLATE
 90
4
 70
1
 10
-300
 20
-30
 10
300
 20
-30
 10
300
 20
0
 10
-300
 20
0
  0
LWPOLYLINE
  8
PLATE
 90
4
 70
1
 10
19700
 20
-30
 10
20300
 20
-30
 10
20300
 20
0
 10
19700
 20
0
  0
LWPOLYLINE
  8
FOUND
 90
4
 70
1
 10
-750
 20
-830
 10
750
 20
-830
 10
750
 20
-30
 10
-750
 20
-30
  0
LWPOLYLINE
  8
FOUND
 90
4
 70
1
 10
19250
 20
-830
 10
20750
 20
-830
 10
20750
 20
-30
 10
19250
 20
-30
  0
DIMENSION
  8
DIM
  3
STANDARD
  2
*D1
 10
20000
 20
-1500
 30
0
 11
10000
 21
-1500
 31
0
 13
0
 23
0
 33
0
 14
20000
 24
0
 34
0
 70
0
 42
20000
  1

  0
DIMENSION
  8
DIM
  3
STANDARD
  2
*D2
 10
10000
 20
-2200
 30
0
 11
5000
 21
-2200
 31
0
 13
0
 23
0
 33
0
 14
10000
 24
0
 34
0
 70
0
 42
10000
  1

  0
DIMENSION
  8
DIM
  3
STANDARD
  2
*D3
 10
20000
 20
-2200
 30
0
 11
15000
 21
-2200
 31
0
 13
10000
 23
0
 33
0
 14
20000
 24
0
 34
0
 70
0
 42
10000
  1

  0
DIMENSION
  8
DIM
  3
STANDARD
  2
*D4
 10
-3000
 20
8000
 30
0
 11
-3000
 21
4000
 31
0
 13
-2000
 23
0
 33
0
 14
-2000
 24
8000
 34
0
 70
0
 42
8000
 50
90
  1

  0
DIMENSION
  8
DIM
  3
STANDARD
  2
*D5
 10
-4500
 20
9763
 30
0
 11
-4500
 21
4881.5
 31
0
 13
-2000
 23
0
 33
0
 14
-2000
 24
9763
 34
0
 70
0
 42
9763
 50
90
  1

  0
TEXT
  8
TEXT
 10
-1800
 20
4000
 30
0
 40
200
  1
H-400x200x8x13
 50
90
 72
1
 73
2
  0
TEXT
  8
TEXT
 10
21000
 20
4000
 30
0
 40
200
  1
H-400x200x8x13
 50
90
 72
1
 73
2
  0
TEXT
  8
TEXT
 10
3000
 20
9000
 30
0
 40
200
  1
H-400x200x8x13 (RAFTER)
 50
10
 72
1
 73
2
  0
TEXT
  8
TEXT
 10
13000
 20
9000
 30
0
 40
200
  1
H-400x200x8x13 (RAFTER)
 50
-10
 72
1
 73
2
  0
TEXT
  8
TEXT
 10
2500
 20
8400
 30
0
 40
150
  1
C-200x75x20x3.2 (PURLIN) @1500
 50
10
 72
1
 73
2
  0
TEXT
  8
TEXT
 10
8500
 20
10200
 30
0
 40
200
  1
SLOPE 1:5.67 (10\u00b0)
 72
1
 73
2
  0
TEXT
  8
TEXT
 10
7000
 20
-1800
 30
0
 40
300
  1
CROSS SECTION (\ud6a1\ub2e8\uba74\ub3c4)
 72
1
 73
2
  0
LWPOLYLINE
  8
GRID
 90
4
 70
1
 10
0
 20
-18000
 10
100000
 20
-18000
 10
100000
 20
-38000
 10
0
 20
-38000
  0
LINE
  8
GRID
 10
0
 20
-17000
 30
0
 11
0
 21
-39000
 31
0
  0
LINE
  8
GRID
 10
5000
 20
-17000
 30
0
 11
5000
 21
-39000
 31
0
  0
LINE
  8
GRID
 10
10000
 20
-17000
 30
0
 11
10000
 21
-39000
 31
0
  0
LINE
  8
GRID
 10
15000
 20
-17000
 30
0
 11
15000
 21
-39000
 31
0
  0
LINE
  8
GRID
 10
20000
 20
-17000
 30
0
 11
20000
 21
-39000
 31
0
  0
LINE
  8
GRID
 10
25000
 20
-17000
 30
0
 11
25000
 21
-39000
 31
0
  0
LINE
  8
GRID
 10
30000
 20
-17000
 30
0
 11
30000
 21
-39000
 31
0
  0
LINE
  8
GRID
 10
35000
 20
-17000
 30
0
 11
35000
 21
-39000
 31
0
  0
LINE
  8
GRID
 10
40000
 20
-17000
 30
0
 11
40000
 21
-39000
 31
0
  0
LINE
  8
GRID
 10
45000
 20
-17000
 30
0
 11
45000
 21
-39000
 31
0
  0
LINE
  8
GRID
 10
50000
 20
-17000
 30
0
 11
50000
 21
-39000
 31
0
  0
LINE
  8
GRID
 10
55000
 20
-17000
 30
0
 11
55000
 21
-39000
 31
0
  0
LINE
  8
GRID
 10
60000
 20
-17000
 30
0
 11
60000
 21
-39000
 31
0
  0
LINE
  8
GRID
 10
65000
 20
-17000
 30
0
 11
65000
 21
-39000
 31
0
  0
LINE
  8
GRID
 10
70000
 20
-17000
 30
0
 11
70000
 21
-39000
 31
0
  0
LINE
  8
GRID
 10
75000
 20
-17000
 30
0
 11
75000
 21
-39000
 31
0
  0
LINE
  8
GRID
 10
80000
 20
-17000
 30
0
 11
80000
 21
-39000
 31
0
  0
LINE
  8
GRID
 10
85000
 20
-17000
 30
0
 11
85000
 21
-39000
 31
0
  0
LINE
  8
GRID
 10
90000
 20
-17000
 30
0
 11
90000
 21
-39000
 31
0
  0
LINE
  8
GRID
 10
95000
 20
-17000
 30
0
 11
95000
 21
-39000
 31
0
  0
LINE
  8
GRID
 10
100000
 20
-17000
 30
0
 11
100000
 21
-39000
 31
0
  0
LINE
  8
GRID
 10
-1000
 20
-18000
 30
0
 11
101000
 21
-18000
 31
0
  0
LINE
  8
GRID
 10
-1000
 20
-38000
 30
0
 11
101000
 21
-38000
 31
0
  0
LINE
  8
GRID
 10
-1000
 20
-28000
 30
0
 11
101000
 21
-28000
 31
0
  0
LWPOLYLINE
  8
COLUMN
 90
4
 70
1
 10
-200
 20
-18200
 10
200
 20
-18200
 10
200
 20
-17800
 10
-200
 20
-17800
  0
LWPOLYLINE
  8
COLUMN
 90
4
 70
1
 10
4800
 20
-18200
 10
5200
 20
-18200
 10
5200
 20
-17800
 10
4800
 20
-17800
  0
LWPOLYLINE
  8
COLUMN
 90
4
 70
1
 10
9800
 20
-18200
 10
10200
 20
-18200
 10
10200
 20
-17800
 10
9800
 20
-17800
  0
LWPOLYLINE
  8
COLUMN
 90
4
 70
1
 10
14800
 20
-18200
 10
15200
 20
-18200
 10
15200
 20
-17800
 10
14800
 20
-17800
  0
LWPOLYLINE
  8
COLUMN
 90
4
 70
1
 10
19800
 20
-18200
 10
20200
 20
-18200
 10
20200
 20
-17800
 10
19800
 20
-17800
  0
LWPOLYLINE
  8
COLUMN
 90
4
 70
1
 10
24800
 20
-18200
 10
25200
 20
-18200
 10
25200
 20
-17800
 10
24800
 20
-17800
  0
LWPOLYLINE
  8
COLUMN
 90
4
 70
1
 10
29800
 20
-18200
 10
30200
 20
-18200
 10
30200
 20
-17800
 10
29800
 20
-17800
  0
LWPOLYLINE
  8
COLUMN
 90
4
 70
1
 10
34800
 20
-18200
 10
35200
 20
-18200
 10
35200
 20
-17800
 10
34800
 20
-17800
  0
LWPOLYLINE
  8
COLUMN
 90
4
 70
1
 10
39800
 20
-18200
 10
40200
 20
-18200
 10
40200
 20
-17800
 10
39800
 20
-17800
  0
LWPOLYLINE
  8
COLUMN
 90
4
 70
1
 10
44800
 20
-18200
 10
45200
 20
-18200
 10
45200
 20
-17800
 10
44800
 20
-17800
  0
LWPOLYLINE
  8
COLUMN
 90
4
 70
1
 10
49800
 20
-18200
 10
50200
 20
-18200
 10
50200
 20
-17800
 10
49800
 20
-17800
  0
LWPOLYLINE
  8
COLUMN
 90
4
 70
1
 10
54800
 20
-18200
 10
55200
 20
-18200
 10
55200
 20
-17800
 10
54800
 20
-17800
  0
LWPOLYLINE
  8
COLUMN
 90
4
 70
1
 10
59800
 20
-18200
 10
60200
 20
-18200
 10
60200
 20
-17800
 10
59800
 20
-17800
  0
LWPOLYLINE
  8
COLUMN
 90
4
 70
1
 10
64800
 20
-18200
 10
65200
 20
-18200
 10
65200
 20
-17800
 10
64800
 20
-17800
  0
LWPOLYLINE
  8
COLUMN
 90
4
 70
1
 10
69800
 20
-18200
 10
70200
 20
-18200
 10
70200
 20
-17800
 10
69800
 20
-17800
  0
LWPOLYLINE
  8
COLUMN
 90
4
 70
1
 10
74800
 20
-18200
 10
75200
 20
-18200
 10
75200
 20
-17800
 10
74800
 20
-17800
  0
LWPOLYLINE
  8
COLUMN
 90
4
 70
1
 10
79800
 20
-18200
 10
80200
 20
-18200
 10
80200
 20
-17800
 10
79800
 20
-17800
  0
LWPOLYLINE
  8
COLUMN
 90
4
 70
1
 10
84800
 20
-18200
 10
85200
 20
-18200
 10
85200
 20
-17800
 10
84800
 20
-17800
  0
LWPOLYLINE
  8
COLUMN
 90
4
 70
1
 10
89800
 20
-18200
 10
90200
 20
-18200
 10
90200
 20
-17800
 10
89800
 20
-17800
  0
LWPOLYLINE
  8
COLUMN
 90
4
 70
1
 10
94800
 20
-18200
 10
95200
 20
-18200
 10
95200
 20
-17800
 10
94800
 20
-17800
  0
LWPOLYLINE
  8
COLUMN
 90
4
 70
1
 10
99800
 20
-18200
 10
100200
 20
-18200
 10
100200
 20
-17800
 10
99800
 20
-17800
  0
LWPOLYLINE
  8
COLUMN
 90
4
 70
1
 10
-200
 20
-38200
 10
200
 20
-38200
 10
200
 20
-37800
 10
-200
 20
-37800
  0
LWPOLYLINE
  8
COLUMN
 90
4
 70
1
 10
4800
 20
-38200
 10
5200
 20
-38200
 10
5200
 20
-37800
 10
4800
 20
-37800
  0
LWPOLYLINE
  8
COLUMN
 90
4
 70
1
 10
9800
 20
-38200
 10
10200
 20
-38200
 10
10200
 20
-37800
 10
9800
 20
-37800
  0
LWPOLYLINE
  8
COLUMN
 90
4
 70
1
 10
14800
 20
-38200
 10
15200
 20
-38200
 10
15200
 20
-37800
 10
14800
 20
-37800
  0
LWPOLYLINE
  8
COLUMN
 90
4
 70
1
 10
19800
 20
-38200
 10
20200
 20
-38200
 10
20200
 20
-37800
 10
19800
 20
-37800
  0
LWPOLYLINE
  8
COLUMN
 90
4
 70
1
 10
24800
 20
-38200
 10
25200
 20
-38200
 10
25200
 20
-37800
 10
24800
 20
-37800
  0
LWPOLYLINE
  8
COLUMN
 90
4
 70
1
 10
29800
 20
-38200
 10
30200
 20
-38200
 10
30200
 20
-37800
 10
29800
 20
-37800
  0
LWPOLYLINE
  8
COLUMN
 90
4
 70
1
 10
34800
 20
-38200
 10
35200
 20
-38200
 10
35200
 20
-37800
 10
34800
 20
-37800
  0
LWPOLYLINE
  8
COLUMN
 90
4
 70
1
 10
39800
 20
-38200
 10
40200
 20
-38200
 10
40200
 20
-37800
 10
39800
 20
-37800
  0
LWPOLYLINE
  8
COLUMN
 90
4
 70
1
 10
44800
 20
-38200
 10
45200
 20
-38200
 10
45200
 20
-37800
 10
44800
 20
-37800
  0
LWPOLYLINE
  8
COLUMN
 90
4
 70
1
 10
49800
 20
-38200
 10
50200
 20
-38200
 10
50200
 20
-37800
 10
49800
 20
-37800
  0
LWPOLYLINE
  8
COLUMN
 90
4
 70
1
 10
54800
 20
-38200
 10
55200
 20
-38200
 10
55200
 20
-37800
 10
54800
 20
-37800
  0
LWPOLYLINE
  8
COLUMN
 90
4
 70
1
 10
59800
 20
-38200
 10
60200
 20
-38200
 10
60200
 20
-37800
 10
59800
 20
-37800
  0
LWPOLYLINE
  8
COLUMN
 90
4
 70
1
 10
64800
 20
-38200
 10
65200
 20
-38200
 10
65200
 20
-37800
 10
64800
 20
-37800
  0
LWPOLYLINE
  8
COLUMN
 90
4
 70
1
 10
69800
 20
-38200
 10
70200
 20
-38200
 10
70200
 20
-37800
 10
69800
 20
-37800
  0
LWPOLYLINE
  8
COLUMN
 90
4
 70
1
 10
74800
 20
-38200
 10
75200
 20
-38200
 10
75200
 20
-37800
 10
74800
 20
-37800
  0
LWPOLYLINE
  8
COLUMN
 90
4
 70
1
 10
79800
 20
-38200
 10
80200
 20
-38200
 10
80200
 20
-37800
 10
79800
 20
-37800
  0
LWPOLYLINE
  8
COLUMN
 90
4
 70
1
 10
84800
 20
-38200
 10
85200
 20
-38200
 10
85200
 20
-37800
 10
84800
 20
-37800
  0
LWPOLYLINE
  8
COLUMN
 90
4
 70
1
 10
89800
 20
-38200
 10
90200
 20
-38200
 10
90200
 20
-37800
 10
89800
 20
-37800
  0
LWPOLYLINE
  8
COLUMN
 90
4
 70
1
 10
94800
 20
-38200
 10
95200
 20
-38200
 10
95200
 20
-37800
 10
94800
 20
-37800
  0
LWPOLYLINE
  8
COLUMN
 90
4
 70
1
 10
99800
 20
-38200
 10
100200
 20
-38200
 10
100200
 20
-37800
 10
99800
 20
-37800
  0
LINE
  8
BEAM
 10
0
 20
-28000
 30
0
 11
100000
 21
-28000
 31
0
  0
LINE
  8
PURLIN
 10
0
 20
-19500
 30
0
 11
100000
 21
-19500
 31
0
  0
LINE
  8
PURLIN
 10
0
 20
-21000
 30
0
 11
100000
 21
-21000
 31
0
  0
LINE
  8
PURLIN
 10
0
 20
-22500
 30
0
 11
100000
 21
-22500
 31
0
  0
LINE
  8
PURLIN
 10
0
 20
-24000
 30
0
 11
100000
 21
-24000
 31
0
  0
LINE
  8
PURLIN
 10
0
 20
-25500
 30
0
 11
100000
 21
-25500
 31
0
  0
LINE
  8
PURLIN
 10
0
 20
-27000
 30
0
 11
100000
 21
-27000
 31
0
  0
LINE
  8
PURLIN
 10
0
 20
-29000
 30
0
 11
100000
 21
-29000
 31
0
  0
LINE
  8
PURLIN
 10
0
 20
-30500
 30
0
 11
100000
 21
-30500
 31
0
  0
LINE
  8
PURLIN
 10
0
 20
-32000
 30
0
 11
100000
 21
-32000
 31
0
  0
LINE
  8
PURLIN
 10
0
 20
-33500
 30
0
 11
100000
 21
-33500
 31
0
  0
LINE
  8
PURLIN
 10
0
 20
-35000
 30
0
 11
100000
 21
-35000
 31
0
  0
LINE
  8
PURLIN
 10
0
 20
-36500
 30
0
 11
100000
 21
-36500
 31
0
  0
LINE
  8
BRACE
 10
0
 20
-18000
 30
0
 11
5000
 21
-38000
 31
0
  0
LINE
  8
BRACE
 10
5000
 20
-18000
 30
0
 11
0
 21
-38000
 31
0
  0
LINE
  8
BRACE
 10
95000
 20
-18000
 30
0
 11
100000
 21
-38000
 31
0
  0
LINE
  8
BRACE
 10
100000
 20
-18000
 30
0
 11
95000
 21
-38000
 31
0
  0
LINE
  8
BRACE
 10
45000
 20
-18000
 30
0
 11
50000
 21
-38000
 31
0
  0
LINE
  8
BRACE
 10
50000
 20
-18000
 30
0
 11
45000
 21
-38000
 31
0
  0
DIMENSION
  8
DIM
  3
STANDARD
  2
*D6
 10
5000
 20
-16000
 30
0
 11
2500
 21
-16000
 31
0
 13
0
 23
-18000
 33
0
 14
5000
 24
-18000
 34
0
 70
0
 42
5000
  1

  0
DIMENSION
  8
DIM
  3
STANDARD
  2
*D7
 10
100000
 20
-14500
 30
0
 11
50000
 21
-14500
 31
0
 13
0
 23
-18000
 33
0
 14
100000
 24
-18000
 34
0
 70
0
 42
100000
  1

  0
DIMENSION
  8
DIM
  3
STANDARD
  2
*D8
 10
-3500
 20
-38000
 30
0
 11
-3500
 21
-28000
 31
0
 13
-1000
 23
-18000
 33
0
 14
-1000
 24
-38000
 34
0
 70
0
 42
20000
 50
90
  1

  0
TEXT
  8
TEXT
 10
2000
 20
-16500
 30
0
 40
400
  1
5,000 x 20 = 100,000
 72
1
 73
2
  0
TEXT
  8
TEXT
 10
-500
 20
-15500
 30
0
 40
500
  1
1
 72
1
 73
2
  0
TEXT
  8
TEXT
 10
4500
 20
-15500
 30
0
 40
500
  1
2
 72
1
 73
2
  0
TEXT
  8
TEXT
 10
9500
 20
-15500
 30
0
 40
500
  1
3
 72
1
 73
2
  0
TEXT
  8
TEXT
 10
49500
 20
-15500
 30
0
 40
500
  1
11
 72
1
 73
2
  0
TEXT
  8
TEXT
 10
99000
 20
-15500
 30
0
 40
500
  1
21
 72
1
 73
2
  0
TEXT
  8
TEXT
 10
-5000
 20
-18500
 30
0
 40
500
  1
A
 72
1
 73
2
  0
TEXT
  8
TEXT
 10
-5000
 20
-28500
 30
0
 40
500
  1
C (RIDGE)
 72
1
 73
2
  0
TEXT
  8
TEXT
 10
-5000
 20
-38500
 30
0
 40
500
  1
B
 72
1
 73
2
  0
TEXT
  8
TEXT
 10
35000
 20
-40500
 30
0
 40
500
  1
ROOF FRAMING PLAN (\uc9c0\ubd95 \uace8\uc870 \ud3c9\uba74\ub3c4)
 72
1
 73
2
  0
TEXT
  8
TEXT
 10
40000
 20
-27000
 30
0
 40
400
  1
C-200x75x20x3.2 PURLIN @1,500
 72
1
 73
2
  0
TEXT
  8
TEXT
 10
1000
 20
-29000
 30
0
 40
350
  1
X-BRACE
 72
1
 73
2
  0
TEXT
  8
TEXT
 10
95500
 20
-29000
 30
0
 40
350
  1
X-BRACE
 72
1
 73
2
  0
TEXT
  8
TEXT
 10
45500
 20
-29000
 30
0
 40
350
  1
X-BRACE
 72
1
 73
2
  0
TEXT
  8
TEXT
 10
60000
 20
-17500
 30
0
 40
400
  1
H-400x200x8x13 COLUMN (TYP.)
 72
1
 73
2
  0
LWPOLYLINE
  8
COLUMN
 90
4
 70
1
 10
-200
 20
0
 10
200
 20
0
 10
200
 20
8200
 10
-200
 20
8200
  0
LWPOLYLINE
  8
COLUMN
 90
4
 70
1
 10
19800
 20
0
 10
20200
 20
0
 10
20200
 20
8200
 10
19800
 20
8200
  0
LWPOLYLINE
  8
BEAM
 90
4
 70
1
 10
-626
 20
8093
 10
9965
 20
9960
 10
10035
 20
9566
 10
-556
 20
7699
  0
LWPOLYLINE
  8
BEAM
 90
4
 70
1
 10
20626
 20
8093
 10
10035
 20
9960
 10
9965
 20
9566
 10
20556
 20
7699
  0
LINE
  8
WALL
 10
-250
 20
0
 30
0
 11
-250
 21
8168
 31
0
  0
LINE
  8
WALL
 10
250
 20
0
 30
0
 11
250
 21
7832
 31
0
  0
LINE
  8
ROOF
 10
-640
 20
8142
 30
0
 11
5000
 21
9135
 31
0
  0
LINE
  8
ROOF
 10
-653
 20
8191
 30
0
 11
5000
 21
9184
 31
0
  0
LINE
  8
WALL
 10
250
 20
7700
 30
0
 11
5000
 21
8537
 31
0
  0
LINE
  8
WALL
 10
250
 20
7570
 30
0
 11
5000
 21
8407
 31
0
  0
LINE
  8
BEAM
 10
-640
 20
8142
 30
0
 11
-556
 21
7699
 31
0
  0
LINE
  8
ROOF
 10
-653
 20
8191
 30
0
 11
-640
 21
8142
 31
0
  0
LWPOLYLINE
  8
PLATE
 90
4
 70
1
 10
-100
 20
7600
 10
100
 20
7600
 10
100
 20
8300
 10
-100
 20
8300
  0
CIRCLE
  8
PLATE
 10
0
 20
7700
 30
0
 40
25
  0
CIRCLE
  8
PLATE
 10
0
 20
7900
 30
0
 40
25
  0
CIRCLE
  8
PLATE
 10
0
 20
8100
 30
0
 40
25
  0
CIRCLE
  8
PLATE
 10
0
 20
8200
 30
0
 40
25
  0
LINE
  8
WALL
 10
20250
 20
0
 30
0
 11
20250
 21
8168
 31
0
  0
LINE
  8
WALL
 10
19750
 20
0
 30
0
 11
19750
 21
7832
 31
0
  0
LINE
  8
ROOF
 10
20640
 20
8142
 30
0
 11
15000
 21
9135
 31
0
  0
LINE
  8
ROOF
 10
20653
 20
8191
 30
0
 11
15000
 21
9184
 31
0
  0
LINE
  8
WALL
 10
19750
 20
7700
 30
0
 11
15000
 21
8537
 31
0
  0
LINE
  8
WALL
 10
19750
 20
7570
 30
0
 11
15000
 21
8407
 31
0
  0
LINE
  8
BEAM
 10
20640
 20
8142
 30
0
 11
20556
 21
7699
 31
0
  0
LINE
  8
ROOF
 10
20653
 20
8191
 30
0
 11
20640
 21
8142
 31
0
  0
LWPOLYLINE
  8
PLATE
 90
4
 70
1
 10
19900
 20
7600
 10
20100
 20
7600
 10
20100
 20
8300
 10
19900
 20
8300
  0
CIRCLE
  8
PLATE
 10
20000
 20
7700
 30
0
 40
25
  0
CIRCLE
  8
PLATE
 10
20000
 20
7900
 30
0
 40
25
  0
CIRCLE
  8
PLATE
 10
20000
 20
8100
 30
0
 40
25
  0
CIRCLE
  8
PLATE
 10
20000
 20
8200
 30
0
 40
25
  0
TEXT
  8
TEXT
 10
-1800
 20
8500
 30
0
 40
150
  1
\uc9c0\ubd95\uae30\uc640
 72
1
 73
2
  0
TEXT
  8
TEXT
 10
-1800
 20
8300
 30
0
 40
150
  1
\ub2e8\uc5f4\uc7ac
 72
1
 73
2
  0
TEXT
  8
TEXT
 10
-1800
 20
7500
 30
0
 40
150
  1
\ucc9c\uc7a5\ud2c0
 72
1
 73
2
  0
TEXT
  8
TEXT
 10
-1800
 20
7300
 30
0
 40
150
  1
THK9.5 \uc11d\uace0\ubcf4\ub4dc \ub450\uacb9
 72
1
 73
2
  0
TEXT
  8
TEXT
 10
-2500
 20
5000
 30
0
 40
150
  1
\ub9c8\uac10\ucf58\ud06c\ub9ac\ud2b8
 72
1
 73
2
  0
TEXT
  8
TEXT
 10
-2500
 20
4800
 30
0
 40
150
  1
THK30 \ubbf8\uc1a1\uac01
 72
1
 73
2
  0
TEXT
  8
TEXT
 10
-2500
 20
4600
 30
0
 40
150
  1
THK9.5 \uc11d\uace0\ubcf4\ub4dc \ub450\uacb9
 72
1
 73
2
  0
TEXT
  8
TEXT
 10
600
 20
7900
 30
0
 40
120
  1
\uc811\ud569\ud310 PL
 72
1
 73
2
  0
ENDSEC
  0
EOF