  0
SECTION
  2
HEADER
  9
$ACADVER
  1
AC1015
  9
$INSUNITS
 70
0
  9
$EXTMIN
 10
-7.756131353052911
 20
-10.869144086165717
 30
0
  9
$EXTMAX
 10
97.41626864694709
 20
86.97565591383429
 30
0
  0
ENDSEC
  0
SECTION
  2
TABLES
  0
TABLE
  2
LTYPE
 70
7
  0
LTYPE
  2
CONTINUOUS
 70
0
  3
Solid line
 72
65
 73
0
 40
0
  0
LTYPE
  2
DASHED
 70
0
  3
Dashed line
 72
65
 73
2
 40
19.05
 49
12.7
 49
-6.35
  0
LTYPE
  2
HIDDEN
 70
0
  3
Hidden line
 72
65
 73
2
 40
9.525
 49
6.35
 49
-3.175
  0
LTYPE
  2
CENTER
 70
0
  3
Center line
 72
65
 73
4
 40
50.8
 49
31.75
 49
-6.35
 49
6.35
 49
-6.35
  0
LTYPE
  2
DASHDOT
 70
0
  3
Dash dot line
 72
65
 73
4
 40
25.4
 49
12.7
 49
-6.35
 49
0
 49
-6.35
  0
LTYPE
  2
PHANTOM
 70
0
  3
Phantom line
 72
65
 73
6
 40
63.5
 49
31.75
 49
-6.35
 49
6.35
 49
-6.35
 49
6.35
 49
-6.35
  0
LTYPE
  2
DOT
 70
0
  3
Dotted line
 72
65
 73
2
 40
6.35
 49
0
 49
-6.35
  0
ENDTAB
  0
TABLE
  2
LAYER
 70
0
  0
ENDTAB
  0
ENDSEC
  0
SECTION
  2
BLOCKS
  0
ENDSEC
  0
SECTION
  2
ENTITIES
  0
LINE
  8
CLEANED
 10
62.5025
 20
86.9757
 30
0.0
 11
62.5025
 21
84.3895
 31
0.0
  0
LINE
  8
CLEANED
 10
64.6577
 20
86.5447
 30
0.0
 11
63.7956
 21
84.8206
 31
0.0
  0
LINE
  8
CLEANED
 10
63.3646
 20
84.3895
 30
0.0
 11
64.6577
 21
85.6826
 31
0.0
  0
LINE
  8
CLEANED
 10
43.537
 20
85.6826
 30
0.0
 11
57.3301
 21
77.493
 31
0.0
  0
LINE
  8
CLEANED
 10
57.3301
 20
77.493
 30
0.0
 11
58.1921
 21
78.7861
 31
0.0
  0
LINE
  8
CLEANED
 10
58.1921
 20
78.7861
 30
0.0
 11
61.6404
 21
79.6481
 31
0.0
  0
LINE
  8
CLEANED
 10
61.6404
 20
79.6481
 30
0.0
 11
62.9335
 21
82.6654
 31
0.0
  0
LINE
  8
CLEANED
 10
62.9335
 20
82.6654
 30
0.0
 11
62.5025
 21
80.5102
 31
0.0
  0
LINE
  8
CLEANED
 10
59.0542
 20
79.2171
 30
0.0
 11
57.7611
 21
77.924
 31
0.0
  0
LINE
  8
CLEANED
 10
58.1921
 20
77.0619
 30
0.0
 11
62.9335
 21
74.4757
 31
0.0
  0
LINE
  8
CLEANED
 10
62.9335
 20
74.4757
 30
0.0
 11
73.2783
 21
80.5102
 31
0.0
  0
LINE
  8
CLEANED
 10
73.2783
 20
80.5102
 30
0.0
 11
86.6404
 21
72.7516
 31
0.0
  0
LINE
  8
CLEANED
 10
87.0714
 20
71.8895
 30
0.0
 11
85.7783
 21
70.5964
 31
0.0
  0
LINE
  8
CLEANED
 10
85.7783
 20
70.5964
 30
0.0
 11
80.6059
 21
67.5792
 31
0.0
  0
LINE
  8
CLEANED
 10
80.6059
 20
67.5792
 30
0.0
 11
80.6059
 21
54.6481
 31
0.0
  0
LINE
  8
CLEANED
 10
80.6059
 20
54.6481
 30
0.0
 11
82.7611
 21
54.6481
 31
0.0
  0
LINE
  8
CLEANED
 10
82.7611
 20
54.6481
 30
0.0
 11
86.6404
 21
52.0619
 31
0.0
  0
LINE
  8
CLEANED
 10
86.6404
 20
52.0619
 30
0.0
 11
89.2266
 21
52.493
 31
0.0
  0
LINE
  8
CLEANED
 10
80.6059
 20
53.7861
 30
0.0
 11
80.6059
 21
42.1481
 31
0.0
  0
LINE
  8
CLEANED
 10
80.6059
 20
42.1481
 30
0.0
 11
86.6404
 21
38.6999
 31
0.0
  0
LINE
  8
CLEANED
 10
87.0714
 20
37.8378
 30
0.0
 11
85.7783
 21
36.5447
 31
0.0
  0
LINE
  8
CLEANED
 10
85.7783
 20
36.5447
 30
0.0
 11
64.2266
 21
24.0447
 31
0.0
  0
LINE
  8
CLEANED
 10
64.2266
 20
24.0447
 30
0.0
 11
64.2266
 21
2.0619
 31
0.0
  0
LINE
  8
CLEANED
 10
62.9335
 20
1.6309
 30
0.0
 11
54.3128
 21
6.8033
 31
0.0
  0
LINE
  8
CLEANED
 10
54.3128
 20
6.8033
 30
0.0
 11
52.5887
 21
6.8033
 31
0.0
  0
LINE
  8
CLEANED
 10
52.5887
 20
6.8033
 30
0.0
 11
43.537
 21
1.6309
 31
0.0
  0
LINE
  8
CLEANED
 10
43.1059
 20
0.7688
 30
0.0
 11
46.5542
 21
-1.3863
 31
0.0
  0
LINE
  8
CLEANED
 10
46.5542
 20
-1.3863
 30
0.0
 11
43.968
 21
-0.0932
 31
0.0
  0
LINE
  8
CLEANED
 10
43.1059
 20
-0.5243
 30
0.0
 11
43.1059
 21
-10.4381
 31
0.0
  0
LINE
  8
CLEANED
 10
41.8128
 20
-10.8691
 30
0.0
 11
25.0025
 21
-0.9553
 31
0.0
  0
LINE
  8
CLEANED
 10
25.0025
 20
-0.9553
 30
0.0
 11
23.2783
 21
-3.1105
 31
0.0
  0
LINE
  8
CLEANED
 10
24.5714
 20
-0.9553
 30
0.0
 11
22.8473
 21
0.3378
 31
0.0
  0
LINE
  8
CLEANED
 10
22.8473
 20
0.3378
 30
0.0
 11
12.5025
 21
-5.6967
 31
0.0
  0
LINE
  8
CLEANED
 10
12.5025
 20
-5.6967
 30
0.0
 11
-1.2906
 21
2.493
 31
0.0
  0
LINE
  8
CLEANED
 10
-1.2906
 20
2.493
 30
0.0
 11
-0.4286
 21
3.7861
 31
0.0
  0
LINE
  8
CLEANED
 10
-0.4286
 20
3.7861
 30
0.0
 11
5.1749
 21
7.2344
 31
0.0
  0
LINE
  8
CLEANED
 10
5.1749
 20
7.2344
 30
0.0
 11
5.1749
 21
17.5792
 31
0.0
  0
LINE
  8
CLEANED
 10
4.7439
 20
18.0102
 30
0.0
 11
2.1577
 21
15.424
 31
0.0
  0
LINE
  8
CLEANED
 10
2.1577
 20
15.424
 30
0.0
 11
0.0025
 21
15.855
 31
0.0
  0
LINE
  8
CLEANED
 10
5.1749
 20
18.4413
 30
0.0
 11
5.1749
 21
32.2344
 31
0.0
  0
LINE
  8
CLEANED
 10
5.1749
 20
32.2344
 30
0.0
 11
-0.8596
 21
36.1137
 31
0.0
  0
LINE
  8
CLEANED
 10
-1.2906
 20
36.9757
 30
0.0
 11
0.0025
 21
38.2688
 31
0.0
  0
LINE
  8
CLEANED
 10
0.0025
 20
38.2688
 30
0.0
 11
17.2439
 21
47.7516
 31
0.0
  0
LINE
  8
CLEANED
 10
17.2439
 20
47.7516
 30
0.0
 11
21.5542
 21
50.7688
 31
0.0
  0
LINE
  8
CLEANED
 10
21.5542
 20
50.7688
 30
0.0
 11
21.5542
 21
59.8206
 31
0.0
  0
LINE
  8
CLEANED
 10
21.1232
 20
60.2516
 30
0.0
 11
19.399
 21
59.3895
 31
0.0
  0
LINE
  8
CLEANED
 10
19.399
 20
59.3895
 30
0.0
 11
17.6749
 21
57.6654
 31
0.0
  0
LINE
  8
CLEANED
 10
17.6749
 20
57.6654
 30
0.0
 11
15.0887
 21
57.6654
 31
0.0
  0
LINE
  8
CLEANED
 10
17.6749
 20
57.6654
 30
0.0
 11
21.5542
 21
60.6826
 31
0.0
  0
LINE
  8
CLEANED
 10
21.5542
 20
60.6826
 30
0.0
 11
21.9852
 21
73.1826
 31
0.0
  0
LINE
  8
CLEANED
 10
21.9852
 20
73.1826
 30
0.0
 11
23.7094
 21
72.7516
 31
0.0
  0
LINE
  8
CLEANED
 10
23.7094
 20
72.7516
 30
0.0
 11
31.468
 21
68.0102
 31
0.0
  0
LINE
  8
CLEANED
 10
31.468
 20
68.0102
 30
0.0
 11
33.1921
 21
68.0102
 31
0.0
  0
LINE
  8
CLEANED
 10
33.1921
 20
68.0102
 30
0.0
 11
42.6749
 21
73.6137
 31
0.0
  0
LINE
  8
CLEANED
 10
42.6749
 20
73.6137
 30
0.0
 11
43.1059
 21
85.2516
 31
0.0
  0
LINE
  8
CLEANED
 10
42.6749
 20
84.3895
 30
0.0
 11
43.1059
 21
73.6137
 31
0.0
  0
LINE
  8
CLEANED
 10
43.1059
 20
73.6137
 30
0.0
 11
52.1577
 21
79.2171
 31
0.0
  0
LINE
  8
CLEANED
 10
52.1577
 20
79.2171
 30
0.0
 11
43.968
 21
84.3895
 31
0.0
  0
LINE
  8
CLEANED
 10
25.8646
 20
81.8033
 30
0.0
 11
26.2956
 21
79.6481
 31
0.0
  0
LINE
  8
CLEANED
 10
28.4508
 20
81.8033
 30
0.0
 11
28.0197
 21
79.2171
 31
0.0
  0
LINE
  8
CLEANED
 10
49.5714
 20
81.3723
 30
0.0
 11
50.8646
 21
80.5102
 31
0.0
  0
LINE
  8
CLEANED
 10
53.4508
 20
79.6481
 30
0.0
 11
52.1577
 21
80.5102
 31
0.0
  0
LINE
  8
CLEANED
 10
52.1577
 20
80.5102
 30
0.0
 11
51.7266
 21
78.7861
 31
0.0
  0
LINE
  8
CLEANED
 10
51.7266
 20
78.7861
 30
0.0
 11
53.8818
 21
78.7861
 31
0.0
  0
LINE
  8
CLEANED
 10
72.8473
 20
80.0792
 30
0.0
 11
63.3646
 21
74.4757
 31
0.0
  0
LINE
  8
CLEANED
 10
64.2266
 20
73.6137
 30
0.0
 11
64.6577
 21
59.8206
 31
0.0
  0
LINE
  8
CLEANED
 10
64.6577
 20
59.8206
 30
0.0
 11
86.2094
 21
72.3206
 31
0.0
  0
LINE
  8
CLEANED
 10
85.7783
 20
73.1826
 30
0.0
 11
74.5714
 21
79.6481
 31
0.0
  0
LINE
  8
CLEANED
 10
29.7439
 20
78.355
 30
0.0
 11
31.899
 21
77.493
 31
0.0
  0
LINE
  8
CLEANED
 10
31.899
 20
77.493
 30
0.0
 11
34.4852
 21
77.924
 31
0.0
  0
LINE
  8
CLEANED
 10
34.4852
 20
77.924
 30
0.0
 11
37.9335
 21
75.7688
 31
0.0
  0
LINE
  8
CLEANED
 10
37.9335
 20
75.7688
 30
0.0
 11
39.2266
 21
74.0447
 31
0.0
  0
LINE
  8
CLEANED
 10
37.5025
 20
74.9068
 30
0.0
 11
35.3473
 21
77.493
 31
0.0
  0
LINE
  8
CLEANED
 10
35.3473
 20
77.493
 30
0.0
 11
31.468
 21
77.493
 31
0.0
  0
LINE
  8
CLEANED
 10
52.5887
 20
78.355
 30
0.0
 11
50.0025
 21
77.0619
 31
0.0
  0
LINE
  8
CLEANED
 10
50.0025
 20
77.0619
 30
0.0
 11
33.6232
 21
67.1481
 31
0.0
  0
LINE
  8
CLEANED
 10
34.0542
 20
66.2861
 30
0.0
 11
43.1059
 21
61.1137
 31
0.0
  0
LINE
  8
CLEANED
 10
43.1059
 20
61.1137
 30
0.0
 11
43.1059
 21
22.3206
 31
0.0
  0
LINE
  8
CLEANED
 10
43.1059
 20
22.3206
 30
0.0
 11
45.2611
 21
22.3206
 31
0.0
  0
LINE
  8
CLEANED
 10
43.1059
 20
21.4585
 30
0.0
 11
43.537
 21
1.6309
 31
0.0
  0
LINE
  8
CLEANED
 10
53.4508
 20
7.2344
 30
0.0
 11
53.4508
 21
77.493
 31
0.0
  0
LINE
  8
CLEANED
 10
62.9335
 20
1.6309
 30
0.0
 11
63.3646
 21
72.7516
 31
0.0
  0
LINE
  8
CLEANED
 10
63.3646
 20
72.7516
 30
0.0
 11
57.3301
 21
76.6309
 31
0.0
  0
LINE
  8
CLEANED
 10
56.899
 20
76.6309
 30
0.0
 11
55.1749
 21
77.924
 31
0.0
  0
LINE
  8
CLEANED
 10
54.7439
 20
78.355
 30
0.0
 11
56.037
 21
77.493
 31
0.0
  0
LINE
  8
CLEANED
 10
59.4852
 20
76.1999
 30
0.0
 11
57.7611
 21
77.493
 31
0.0
  0
LINE
  8
CLEANED
 10
57.3301
 20
77.0619
 30
0.0
 11
59.0542
 21
75.7688
 31
0.0
  0
LINE
  8
CLEANED
 10
60.7783
 20
74.9068
 30
0.0
 11
62.0714
 21
74.0447
 31
0.0
  0
LINE
  8
CLEANED
 10
21.5542
 20
71.8895
 30
0.0
 11
21.5542
 21
60.6826
 31
0.0
  0
LINE
  8
CLEANED
 10
21.5542
 20
60.6826
 30
0.0
 11
24.5714
 21
59.8206
 31
0.0
  0
LINE
  8
CLEANED
 10
22.4163
 20
50.7688
 30
0.0
 11
25.4335
 21
52.493
 31
0.0
  0
LINE
  8
CLEANED
 10
25.4335
 20
52.493
 30
0.0
 11
38.3646
 21
44.7344
 31
0.0
  0
LINE
  8
CLEANED
 10
38.3646
 20
44.7344
 30
0.0
 11
38.3646
 21
24.9068
 31
0.0
  0
LINE
  8
CLEANED
 10
38.3646
 20
24.9068
 30
0.0
 11
41.8128
 21
22.7516
 31
0.0
  0
LINE
  8
CLEANED
 10
41.8128
 20
22.7516
 30
0.0
 11
42.2439
 21
60.6826
 31
0.0
  0
LINE
  8
CLEANED
 10
42.2439
 20
60.6826
 30
0.0
 11
23.7094
 21
71.4585
 31
0.0
  0
LINE
  8
CLEANED
 10
26.2956
 20
70.1654
 30
0.0
 11
27.5887
 21
69.3033
 31
0.0
  0
LINE
  8
CLEANED
 10
29.3128
 20
68.4413
 30
0.0
 11
30.6059
 21
67.5792
 31
0.0
  0
LINE
  8
CLEANED
 10
32.3301
 20
67.5792
 30
0.0
 11
30.6059
 21
67.5792
 31
0.0
  0
LINE
  8
CLEANED
 10
30.6059
 20
67.5792
 30
0.0
 11
33.6232
 21
65.855
 31
0.0
  0
LINE
  8
CLEANED
 10
33.6232
 20
65.855
 30
0.0
 11
33.6232
 21
67.5792
 31
0.0
  0
LINE
  8
CLEANED
 10
78.8818
 20
68.0102
 30
0.0
 11
77.1577
 21
66.7171
 31
0.0
  0
LINE
  8
CLEANED
 10
77.1577
 20
66.7171
 30
0.0
 11
78.8818
 21
66.7171
 31
0.0
  0
LINE
  8
CLEANED
 10
79.3128
 20
67.1481
 30
0.0
 11
77.5887
 21
66.2861
 31
0.0
  0
LINE
  8
CLEANED
 10
77.5887
 20
66.2861
 30
0.0
 11
65.5197
 21
58.9585
 31
0.0
  0
LINE
  8
CLEANED
 10
65.5197
 20
58.9585
 30
0.0
 11
66.3818
 21
57.2344
 31
0.0
  0
LINE
  8
CLEANED
 10
66.3818
 20
57.2344
 30
0.0
 11
65.5197
 21
55.5102
 31
0.0
  0
LINE
  8
CLEANED
 10
65.5197
 20
55.5102
 30
0.0
 11
64.2266
 21
54.6481
 31
0.0
  0
LINE
  8
CLEANED
 10
64.2266
 20
53.7861
 30
0.0
 11
65.9508
 21
52.493
 31
0.0
  0
LINE
  8
CLEANED
 10
65.9508
 20
52.493
 30
0.0
 11
66.3818
 21
50.7688
 31
0.0
  0
LINE
  8
CLEANED
 10
66.3818
 20
50.7688
 30
0.0
 11
64.2266
 21
48.6137
 31
0.0
  0
LINE
  8
CLEANED
 10
64.2266
 20
47.3206
 30
0.0
 11
65.9508
 21
46.0275
 31
0.0
  0
LINE
  8
CLEANED
 10
65.9508
 20
46.0275
 30
0.0
 11
66.3818
 21
44.3033
 31
0.0
  0
LINE
  8
CLEANED
 10
66.3818
 20
44.3033
 30
0.0
 11
64.2266
 21
42.1481
 31
0.0
  0
LINE
  8
CLEANED
 10
64.2266
 20
40.855
 30
0.0
 11
65.9508
 21
39.993
 31
0.0
  0
LINE
  8
CLEANED
 10
65.9508
 20
39.993
 30
0.0
 11
66.3818
 21
38.2688
 31
0.0
  0
LINE
  8
CLEANED
 10
66.3818
 20
38.2688
 30
0.0
 11
64.2266
 21
35.6826
 31
0.0
  0
LINE
  8
CLEANED
 10
64.2266
 20
34.8206
 30
0.0
 11
65.9508
 21
33.5275
 31
0.0
  0
LINE
  8
CLEANED
 10
65.9508
 20
33.5275
 30
0.0
 11
80.6059
 21
42.1481
 31
0.0
  0
LINE
  8
CLEANED
 10
80.6059
 20
53.355
 30
0.0
 11
78.8818
 21
53.355
 31
0.0
  0
LINE
  8
CLEANED
 10
80.1749
 20
54.2171
 30
0.0
 11
80.1749
 21
66.2861
 31
0.0
  0
LINE
  8
CLEANED
 10
34.4852
 20
65.424
 30
0.0
 11
35.7783
 21
64.5619
 31
0.0
  0
LINE
  8
CLEANED
 10
64.2266
 20
59.8206
 30
0.0
 11
63.7956
 21
73.1826
 31
0.0
  0
LINE
  8
CLEANED
 10
63.7956
 20
73.1826
 30
0.0
 11
63.7956
 21
1.6309
 31
0.0
  0
LINE
  8
CLEANED
 10
63.7956
 20
1.6309
 30
0.0
 11
64.2266
 21
59.3895
 31
0.0
  0
LINE
  8
CLEANED
 10
11.2094
 20
59.3895
 30
0.0
 11
11.2094
 21
56.8033
 31
0.0
  0
LINE
  8
CLEANED
 10
13.3646
 20
59.3895
 30
0.0
 11
13.3646
 21
56.8033
 31
0.0
  0
LINE
  8
CLEANED
 10
56.899
 20
55.5102
 30
0.0
 11
58.6232
 21
53.355
 31
0.0
  0
LINE
  8
CLEANED
 10
58.6232
 20
53.355
 30
0.0
 11
57.7611
 21
51.6309
 31
0.0
  0
LINE
  8
CLEANED
 10
57.7611
 20
51.6309
 30
0.0
 11
56.037
 21
51.1999
 31
0.0
  0
LINE
  8
CLEANED
 10
56.037
 20
51.1999
 30
0.0
 11
54.7439
 21
52.493
 31
0.0
  0
LINE
  8
CLEANED
 10
54.7439
 20
52.493
 30
0.0
 11
54.7439
 21
54.2171
 31
0.0
  0
LINE
  8
CLEANED
 10
96.1232
 20
54.2171
 30
0.0
 11
97.4163
 21
52.924
 31
0.0
  0
LINE
  8
CLEANED
 10
97.4163
 20
51.6309
 30
0.0
 11
94.399
 21
51.6309
 31
0.0
  0
LINE
  8
CLEANED
 10
94.399
 20
51.6309
 30
0.0
 11
94.399
 21
53.7861
 31
0.0
  0
LINE
  8
CLEANED
 10
24.1404
 20
51.6309
 30
0.0
 11
36.2094
 21
44.3033
 31
0.0
  0
LINE
  8
CLEANED
 10
36.2094
 20
44.3033
 30
0.0
 11
37.9335
 21
44.3033
 31
0.0
  0
LINE
  8
CLEANED
 10
37.9335
 20
44.3033
 30
0.0
 11
36.2094
 21
46.0275
 31
0.0
  0
LINE
  8
CLEANED
 10
36.2094
 20
46.0275
 30
0.0
 11
25.8646
 21
52.0619
 31
0.0
  0
LINE
  8
CLEANED
 10
23.7094
 20
51.6309
 30
0.0
 11
21.9852
 21
50.7688
 31
0.0
  0
LINE
  8
CLEANED
 10
21.9852
 20
50.7688
 30
0.0
 11
-0.8596
 21
37.4068
 31
0.0
  0
LINE
  8
CLEANED
 10
-0.8596
 20
37.4068
 30
0.0
 11
12.5025
 21
29.6481
 31
0.0
  0
LINE
  8
CLEANED
 10
12.5025
 20
29.6481
 30
0.0
 11
37.0714
 21
43.8723
 31
0.0
  0
LINE
  8
CLEANED
 10
37.0714
 20
43.8723
 30
0.0
 11
24.5714
 21
51.1999
 31
0.0
  0
LINE
  8
CLEANED
 10
56.899
 20
49.0447
 30
0.0
 11
58.6232
 21
46.8895
 31
0.0
  0
LINE
  8
CLEANED
 10
58.6232
 20
46.8895
 30
0.0
 11
57.7611
 21
45.1654
 31
0.0
  0
LINE
  8
CLEANED
 10
57.7611
 20
45.1654
 30
0.0
 11
55.6059
 21
45.1654
 31
0.0
  0
LINE
  8
CLEANED
 10
54.7439
 20
46.0275
 30
0.0
 11
54.7439
 21
47.7516
 31
0.0
  0
LINE
  8
CLEANED
 10
56.037
 20
47.3206
 30
0.0
 11
57.7611
 21
47.3206
 31
0.0
  0
LINE
  8
CLEANED
 10
55.6059
 20
42.5792
 30
0.0
 11
57.3301
 21
42.5792
 31
0.0
  0
LINE
  8
CLEANED
 10
58.1921
 20
41.7171
 30
0.0
 11
58.6232
 21
39.5619
 31
0.0
  0
LINE
  8
CLEANED
 10
58.6232
 20
39.5619
 30
0.0
 11
56.037
 21
38.6999
 31
0.0
  0
LINE
  8
CLEANED
 10
56.037
 20
38.6999
 30
0.0
 11
54.7439
 21
39.993
 31
0.0
  0
LINE
  8
CLEANED
 10
54.7439
 20
39.993
 30
0.0
 11
54.7439
 21
41.7171
 31
0.0
  0
LINE
  8
CLEANED
 10
36.6404
 20
42.5792
 30
0.0
 11
35.3473
 21
41.7171
 31
0.0
  0
LINE
  8
CLEANED
 10
35.3473
 20
41.7171
 30
0.0
 11
35.7783
 21
39.1309
 31
0.0
  0
LINE
  8
CLEANED
 10
35.7783
 20
39.1309
 30
0.0
 11
31.899
 21
36.9757
 31
0.0
  0
LINE
  8
CLEANED
 10
31.899
 20
36.9757
 30
0.0
 11
31.037
 21
35.6826
 31
0.0
  0
LINE
  8
CLEANED
 10
31.468
 20
34.8206
 30
0.0
 11
32.7611
 21
35.6826
 31
0.0
  0
LINE
  8
CLEANED
 10
32.7611
 20
35.6826
 30
0.0
 11
34.4852
 21
35.6826
 31
0.0
  0
LINE
  8
CLEANED
 10
34.4852
 20
35.6826
 30
0.0
 11
35.7783
 21
33.9585
 31
0.0
  0
LINE
  8
CLEANED
 10
35.7783
 20
33.9585
 30
0.0
 11
35.3473
 21
32.2344
 31
0.0
  0
LINE
  8
CLEANED
 10
35.3473
 20
32.2344
 30
0.0
 11
31.899
 21
30.5102
 31
0.0
  0
LINE
  8
CLEANED
 10
31.899
 20
30.5102
 30
0.0
 11
31.037
 21
29.2171
 31
0.0
  0
LINE
  8
CLEANED
 10
31.468
 20
28.355
 30
0.0
 11
34.0542
 21
29.6481
 31
0.0
  0
LINE
  8
CLEANED
 10
34.0542
 20
29.6481
 30
0.0
 11
35.3473
 21
28.355
 31
0.0
  0
LINE
  8
CLEANED
 10
35.3473
 20
28.355
 30
0.0
 11
35.7783
 21
26.6309
 31
0.0
  0
LINE
  8
CLEANED
 10
35.7783
 20
26.6309
 30
0.0
 11
32.3301
 21
24.4757
 31
0.0
  0
LINE
  8
CLEANED
 10
32.3301
 20
24.4757
 30
0.0
 11
31.037
 21
22.3206
 31
0.0
  0
LINE
  8
CLEANED
 10
31.468
 20
21.8895
 30
0.0
 11
33.1921
 21
23.1826
 31
0.0
  0
LINE
  8
CLEANED
 10
35.3473
 20
22.3206
 30
0.0
 11
35.7783
 21
20.1654
 31
0.0
  0
LINE
  8
CLEANED
 10
35.7783
 20
20.1654
 30
0.0
 11
31.899
 21
18.0102
 31
0.0
  0
LINE
  8
CLEANED
 10
31.899
 20
18.0102
 30
0.0
 11
31.037
 21
16.2861
 31
0.0
  0
LINE
  8
CLEANED
 10
31.468
 20
15.855
 30
0.0
 11
33.1921
 21
17.1481
 31
0.0
  0
LINE
  8
CLEANED
 10
34.4852
 20
16.7171
 30
0.0
 11
35.7783
 21
14.993
 31
0.0
  0
LINE
  8
CLEANED
 10
35.7783
 20
14.993
 30
0.0
 11
34.9163
 21
12.8378
 31
0.0
  0
LINE
  8
CLEANED
 10
34.9163
 20
12.8378
 30
0.0
 11
36.6404
 21
11.1137
 31
0.0
  0
LINE
  8
CLEANED
 10
36.6404
 20
11.1137
 30
0.0
 11
37.0714
 21
23.6137
 31
0.0
  0
LINE
  8
CLEANED
 10
37.0714
 20
24.4757
 30
0.0
 11
37.0714
 21
41.7171
 31
0.0
  0
LINE
  8
CLEANED
 10
56.037
 20
41.7171
 30
0.0
 11
56.899
 21
40.424
 31
0.0
  0
LINE
  8
CLEANED
 10
33.1921
 20
41.7171
 30
0.0
 11
31.468
 21
40.424
 31
0.0
  0
LINE
  8
CLEANED
 10
32.3301
 20
39.993
 30
0.0
 11
33.6232
 21
40.855
 31
0.0
  0
LINE
  8
CLEANED
 10
66.3818
 20
33.9585
 30
0.0
 11
66.3818
 21
31.8033
 31
0.0
  0
LINE
  8
CLEANED
 10
66.3818
 20
31.8033
 30
0.0
 11
64.2266
 21
29.6481
 31
0.0
  0
LINE
  8
CLEANED
 10
64.2266
 20
29.6481
 30
0.0
 11
64.2266
 21
26.1999
 31
0.0
  0
LINE
  8
CLEANED
 10
64.2266
 20
26.1999
 30
0.0
 11
65.9508
 21
26.1999
 31
0.0
  0
LINE
  8
CLEANED
 10
65.9508
 20
26.1999
 30
0.0
 11
86.6404
 21
38.2688
 31
0.0
  0
LINE
  8
CLEANED
 10
86.6404
 20
38.2688
 30
0.0
 11
81.899
 21
41.2861
 31
0.0
  0
LINE
  8
CLEANED
 10
31.468
 20
39.5619
 30
0.0
 11
32.3301
 21
36.9757
 31
0.0
  0
LINE
  8
CLEANED
 10
32.3301
 20
36.9757
 30
0.0
 11
32.7611
 21
39.1309
 31
0.0
  0
LINE
  8
CLEANED
 10
32.7611
 20
39.5619
 30
0.0
 11
33.1921
 21
37.4068
 31
0.0
  0
LINE
  8
CLEANED
 10
29.3128
 20
37.8378
 30
0.0
 11
27.5887
 21
36.9757
 31
0.0
  0
LINE
  8
CLEANED
 10
27.5887
 20
36.9757
 30
0.0
 11
28.8818
 21
35.6826
 31
0.0
  0
LINE
  8
CLEANED
 10
56.899
 20
36.5447
 30
0.0
 11
58.6232
 21
34.3895
 31
0.0
  0
LINE
  8
CLEANED
 10
58.6232
 20
34.3895
 30
0.0
 11
57.7611
 21
32.6654
 31
0.0
  0
LINE
  8
CLEANED
 10
57.7611
 20
32.6654
 30
0.0
 11
55.6059
 21
32.6654
 31
0.0
  0
LINE
  8
CLEANED
 10
54.7439
 20
33.5275
 30
0.0
 11
54.7439
 21
35.2516
 31
0.0
  0
LINE
  8
CLEANED
 10
26.7266
 20
36.9757
 30
0.0
 11
12.5025
 21
28.355
 31
0.0
  0
LINE
  8
CLEANED
 10
12.5025
 20
28.355
 30
0.0
 11
6.899
 21
31.8033
 31
0.0
  0
LINE
  8
CLEANED
 10
6.037
 20
31.3723
 30
0.0
 11
6.037
 21
18.4413
 31
0.0
  0
LINE
  8
CLEANED
 10
6.037
 20
18.4413
 30
0.0
 11
8.1921
 21
17.5792
 31
0.0
  0
LINE
  8
CLEANED
 10
6.037
 20
17.5792
 30
0.0
 11
6.468
 21
-0.5243
 31
0.0
  0
LINE
  8
CLEANED
 10
6.468
 20
-0.5243
 30
0.0
 11
24.1404
 21
9.3895
 31
0.0
  0
LINE
  8
CLEANED
 10
24.1404
 20
9.3895
 30
0.0
 11
27.5887
 21
11.9757
 31
0.0
  0
LINE
  8
CLEANED
 10
27.5887
 20
11.9757
 30
0.0
 11
28.4508
 21
14.5619
 31
0.0
  0
LINE
  8
CLEANED
 10
28.0197
 20
14.993
 30
0.0
 11
23.7094
 21
14.5619
 31
0.0
  0
LINE
  8
CLEANED
 10
23.7094
 20
14.5619
 30
0.0
 11
21.9852
 21
15.855
 31
0.0
  0
LINE
  8
CLEANED
 10
24.1404
 20
14.5619
 30
0.0
 11
28.4508
 21
14.5619
 31
0.0
  0
LINE
  8
CLEANED
 10
28.4508
 20
14.5619
 30
0.0
 11
31.037
 21
15.855
 31
0.0
  0
LINE
  8
CLEANED
 10
30.6059
 20
16.7171
 30
0.0
 11
28.4508
 21
16.7171
 31
0.0
  0
LINE
  8
CLEANED
 10
28.4508
 20
16.7171
 30
0.0
 11
27.5887
 21
18.0102
 31
0.0
  0
LINE
  8
CLEANED
 10
27.5887
 20
18.0102
 30
0.0
 11
28.0197
 21
20.5964
 31
0.0
  0
LINE
  8
CLEANED
 10
28.0197
 20
20.5964
 30
0.0
 11
31.037
 21
21.8895
 31
0.0
  0
LINE
  8
CLEANED
 10
30.6059
 20
22.7516
 30
0.0
 11
28.4508
 21
23.1826
 31
0.0
  0
LINE
  8
CLEANED
 10
28.4508
 20
23.1826
 30
0.0
 11
27.5887
 21
24.4757
 31
0.0
  0
LINE
  8
CLEANED
 10
27.5887
 20
24.4757
 30
0.0
 11
28.0197
 21
27.0619
 31
0.0
  0
LINE
  8
CLEANED
 10
28.0197
 20
27.0619
 30
0.0
 11
30.1749
 21
27.493
 31
0.0
  0
LINE
  8
CLEANED
 10
30.6059
 20
29.2171
 30
0.0
 11
28.8818
 21
29.2171
 31
0.0
  0
LINE
  8
CLEANED
 10
28.8818
 20
29.2171
 30
0.0
 11
27.5887
 21
30.5102
 31
0.0
  0
LINE
  8
CLEANED
 10
27.5887
 20
30.5102
 30
0.0
 11
28.0197
 21
33.0964
 31
0.0
  0
LINE
  8
CLEANED
 10
28.0197
 20
33.0964
 30
0.0
 11
31.037
 21
34.8206
 31
0.0
  0
LINE
  8
CLEANED
 10
30.6059
 20
35.6826
 30
0.0
 11
28.4508
 21
35.6826
 31
0.0
  0
LINE
  8
CLEANED
 10
2.1577
 20
35.2516
 30
0.0
 11
0.4335
 21
36.5447
 31
0.0
  0
LINE
  8
CLEANED
 10
-0.4286
 20
36.1137
 30
0.0
 11
1.7266
 21
34.8206
 31
0.0
  0
LINE
  8
CLEANED
 10
22.8473
 20
35.6826
 30
0.0
 11
21.1232
 21
34.3895
 31
0.0
  0
LINE
  8
CLEANED
 10
21.9852
 20
33.9585
 30
0.0
 11
23.2783
 21
34.8206
 31
0.0
  0
LINE
  8
CLEANED
 10
33.6232
 20
34.8206
 30
0.0
 11
31.899
 21
34.8206
 31
0.0
  0
LINE
  8
CLEANED
 10
79.7439
 20
34.3895
 30
0.0
 11
78.0197
 21
33.0964
 31
0.0
  0
LINE
  8
CLEANED
 10
78.8818
 20
32.6654
 30
0.0
 11
80.1749
 21
33.5275
 31
0.0
  0
LINE
  8
CLEANED
 10
5.1749
 20
33.5275
 30
0.0
 11
3.4508
 21
34.8206
 31
0.0
  0
LINE
  8
CLEANED
 10
2.5887
 20
34.3895
 30
0.0
 11
4.7439
 21
33.0964
 31
0.0
  0
LINE
  8
CLEANED
 10
4.7439
 20
33.0964
 30
0.0
 11
5.6059
 21
18.0102
 31
0.0
  0
LINE
  8
CLEANED
 10
5.6059
 20
18.0102
 30
0.0
 11
6.037
 21
31.8033
 31
0.0
  0
LINE
  8
CLEANED
 10
6.037
 20
31.8033
 30
0.0
 11
8.1921
 21
31.8033
 31
0.0
  0
LINE
  8
CLEANED
 10
8.1921
 20
31.8033
 30
0.0
 11
6.468
 21
33.0964
 31
0.0
  0
LINE
  8
CLEANED
 10
30.1749
 20
33.0964
 30
0.0
 11
28.0197
 21
33.0964
 31
0.0
  0
LINE
  8
CLEANED
 10
31.899
 20
32.2344
 30
0.0
 11
32.3301
 21
30.5102
 31
0.0
  0
LINE
  8
CLEANED
 10
27.5887
 20
31.8033
 30
0.0
 11
28.4508
 21
29.6481
 31
0.0
  0
LINE
  8
CLEANED
 10
28.8818
 20
32.2344
 30
0.0
 11
29.7439
 21
30.9413
 31
0.0
  0
LINE
  8
CLEANED
 10
14.6577
 20
30.9413
 30
0.0
 11
12.9335
 21
29.6481
 31
0.0
  0
LINE
  8
CLEANED
 10
13.7956
 20
29.2171
 30
0.0
 11
15.0887
 21
30.0792
 31
0.0
  0
LINE
  8
CLEANED
 10
11.2094
 20
30.0792
 30
0.0
 11
9.4852
 21
31.3723
 31
0.0
  0
LINE
  8
CLEANED
 10
8.6232
 20
30.9413
 30
0.0
 11
10.7783
 21
29.6481
 31
0.0
  0
LINE
  8
CLEANED
 10
56.899
 20
30.0792
 30
0.0
 11
58.6232
 21
27.924
 31
0.0
  0
LINE
  8
CLEANED
 10
58.6232
 20
27.924
 30
0.0
 11
57.7611
 21
26.1999
 31
0.0
  0
LINE
  8
CLEANED
 10
57.7611
 20
26.1999
 30
0.0
 11
55.6059
 21
26.1999
 31
0.0
  0
LINE
  8
CLEANED
 10
54.7439
 20
27.0619
 30
0.0
 11
54.7439
 21
28.7861
 31
0.0
  0
LINE
  8
CLEANED
 10
56.037
 20
28.355
 30
0.0
 11
57.7611
 21
28.355
 31
0.0
  0
LINE
  8
CLEANED
 10
32.7611
 20
27.924
 30
0.0
 11
31.037
 21
27.924
 31
0.0
  0
LINE
  8
CLEANED
 10
66.3818
 20
26.6309
 30
0.0
 11
64.6577
 21
25.3378
 31
0.0
  0
LINE
  8
CLEANED
 10
65.5197
 20
24.9068
 30
0.0
 11
66.8128
 21
25.7688
 31
0.0
  0
LINE
  8
CLEANED
 10
32.3301
 20
26.6309
 30
0.0
 11
31.899
 21
24.9068
 31
0.0
  0
LINE
  8
CLEANED
 10
37.0714
 20
10.6826
 30
0.0
 11
37.9335
 21
9.3895
 31
0.0
  0
LINE
  8
CLEANED
 10
37.9335
 20
9.3895
 30
0.0
 11
38.3646
 21
23.6137
 31
0.0
  0
LINE
  8
CLEANED
 10
38.3646
 20
24.0447
 30
0.0
 11
38.3646
 21
8.5275
 31
0.0
  0
LINE
  8
CLEANED
 10
38.3646
 20
8.5275
 30
0.0
 11
39.2266
 21
4.6481
 31
0.0
  0
LINE
  8
CLEANED
 10
39.2266
 20
4.6481
 30
0.0
 11
41.8128
 21
1.1999
 31
0.0
  0
LINE
  8
CLEANED
 10
41.8128
 20
1.1999
 30
0.0
 11
42.2439
 21
22.3206
 31
0.0
  0
LINE
  8
CLEANED
 10
42.2439
 20
22.3206
 30
0.0
 11
40.0887
 21
24.0447
 31
0.0
  0
LINE
  8
CLEANED
 10
47.8473
 20
22.7516
 30
0.0
 11
46.9852
 21
21.0275
 31
0.0
  0
LINE
  8
CLEANED
 10
46.5542
 20
20.5964
 30
0.0
 11
47.8473
 21
21.8895
 31
0.0
  0
LINE
  8
CLEANED
 10
49.1404
 20
22.7516
 30
0.0
 11
49.1404
 21
20.5964
 31
0.0
  0
LINE
  8
CLEANED
 10
31.899
 20
21.0275
 30
0.0
 11
30.1749
 21
21.0275
 31
0.0
  0
LINE
  8
CLEANED
 10
30.1749
 20
21.0275
 30
0.0
 11
31.899
 21
19.7344
 31
0.0
  0
LINE
  8
CLEANED
 10
31.899
 20
19.7344
 30
0.0
 11
32.3301
 21
18.0102
 31
0.0
  0
LINE
  8
CLEANED
 10
29.7439
 20
17.1481
 30
0.0
 11
29.3128
 21
18.8723
 31
0.0
  0
LINE
  8
CLEANED
 10
28.8818
 20
19.7344
 30
0.0
 11
29.7439
 21
18.4413
 31
0.0
  0
LINE
  8
CLEANED
 10
15.9508
 20
17.1481
 30
0.0
 11
15.9508
 21
14.993
 31
0.0
  0
LINE
  8
CLEANED
 10
15.9508
 20
15.424
 30
0.0
 11
14.6577
 21
16.7171
 31
0.0
  0
LINE
  8
CLEANED
 10
17.2439
 20
17.1481
 30
0.0
 11
17.2439
 21
14.993
 31
0.0
  0
LINE
  8
CLEANED
 10
19.8301
 20
16.2861
 30
0.0
 11
18.537
 21
15.424
 31
0.0
  0
LINE
  8
CLEANED
 10
-7.7561
 20
14.1309
 30
0.0
 11
-6.463
 21
15.855
 31
0.0
  0
LINE
  8
CLEANED
 10
-4.3079
 20
16.2861
 30
0.0
 11
-3.8768
 21
14.5619
 31
0.0
  0
LINE
  8
CLEANED
 10
-3.8768
 20
14.5619
 30
0.0
 11
-2.5837
 21
15.424
 31
0.0
  0
LINE
  8
CLEANED
 10
-2.5837
 20
15.855
 30
0.0
 11
-2.5837
 21
14.1309
 31
0.0
  0
LINE
  8
CLEANED
 10
-2.5837
 20
14.1309
 30
0.0
 11
-5.1699
 21
14.1309
 31
0.0
  0
LINE
  8
CLEANED
 10
-5.1699
 20
14.1309
 30
0.0
 11
-5.601
 21
16.2861
 31
0.0
  0
LINE
  8
CLEANED
 10
31.037
 20
15.424
 30
0.0
 11
33.1921
 21
13.2688
 31
0.0
  0
LINE
  8
CLEANED
 10
30.1749
 20
14.1309
 30
0.0
 11
28.0197
 21
14.1309
 31
0.0
  0
LINE
  8
CLEANED
 10
32.3301
 20
14.1309
 30
0.0
 11
31.899
 21
12.4068
 31
0.0
  0
LINE
  8
CLEANED
 10
27.5887
 20
11.9757
 30
0.0
 11
28.8818
 21
10.6826
 31
0.0
  0
LINE
  8
CLEANED
 10
28.8818
 20
13.2688
 30
0.0
 11
29.7439
 21
11.9757
 31
0.0
  0
LINE
  8
CLEANED
 10
34.0542
 20
11.5447
 30
0.0
 11
32.3301
 21
11.9757
 31
0.0
  0
LINE
  8
CLEANED
 10
32.3301
 20
11.9757
 30
0.0
 11
31.037
 21
10.2516
 31
0.0
  0
LINE
  8
CLEANED
 10
31.037
 20
10.2516
 30
0.0
 11
28.4508
 21
10.6826
 31
0.0
  0
LINE
  8
CLEANED
 10
28.4508
 20
10.6826
 30
0.0
 11
26.7266
 21
8.5275
 31
0.0
  0
LINE
  8
CLEANED
 10
26.7266
 20
8.5275
 30
0.0
 11
26.2956
 21
4.2171
 31
0.0
  0
LINE
  8
CLEANED
 10
27.1577
 20
3.7861
 30
0.0
 11
37.0714
 21
9.8206
 31
0.0
  0
LINE
  8
CLEANED
 10
37.0714
 20
9.8206
 30
0.0
 11
34.4852
 21
11.1137
 31
0.0
  0
LINE
  8
CLEANED
 10
27.5887
 20
11.5447
 30
0.0
 11
25.8646
 21
10.6826
 31
0.0
  0
LINE
  8
CLEANED
 10
25.8646
 20
10.6826
 30
0.0
 11
6.468
 21
-0.9553
 31
0.0
  0
LINE
  8
CLEANED
 10
6.468
 20
-0.9553
 30
0.0
 11
12.9335
 21
-4.4036
 31
0.0
  0
LINE
  8
CLEANED
 10
12.9335
 20
-4.4036
 30
0.0
 11
25.4335
 21
2.924
 31
0.0
  0
LINE
  8
CLEANED
 10
37.5025
 20
8.9585
 30
0.0
 11
26.2956
 21
2.493
 31
0.0
  0
LINE
  8
CLEANED
 10
26.2956
 20
2.493
 30
0.0
 11
24.5714
 21
-0.5243
 31
0.0
  0
LINE
  8
CLEANED
 10
24.5714
 20
-0.5243
 30
0.0
 11
41.8128
 21
-10.4381
 31
0.0
  0
LINE
  8
CLEANED
 10
41.8128
 20
-10.4381
 30
0.0
 11
42.2439
 21
0.7688
 31
0.0
  0
LINE
  8
CLEANED
 10
42.2439
 20
0.7688
 30
0.0
 11
39.6577
 21
3.355
 31
0.0
  0
LINE
  8
CLEANED
 10
39.6577
 20
3.355
 30
0.0
 11
38.7956
 21
7.6654
 31
0.0
  0
LINE
  8
CLEANED
 10
4.7439
 20
6.8033
 30
0.0
 11
0.4335
 21
4.2171
 31
0.0
  0
LINE
  8
CLEANED
 10
0.4335
 20
4.2171
 30
0.0
 11
-0.4286
 21
2.924
 31
0.0
  0
LINE
  8
CLEANED
 10
-0.4286
 20
2.924
 30
0.0
 11
4.7439
 21
-0.0932
 31
0.0
  0
LINE
  8
CLEANED
 10
4.7439
 20
-0.0932
 30
0.0
 11
5.1749
 21
5.9413
 31
0.0
  0
LINE
  8
CLEANED
 10
43.1059
 20
1.6309
 30
0.0
 11
42.6749
 21
21.8895
 31
0.0
  0
LINE
  8
CLEANED
 10
42.2439
 20
0.3378
 30
0.0
 11
42.6749
 21
-10.4381
 31
0.0
  0
LINE
  8
CLEANED
 10
6.037
 20
-0.5243
 30
0.0
 11
5.6059
 21
18.0102
 31
0.0
  0
LINE
  8
CLEANED
 10
3.8818
 20
-0.5243
 30
0.0
 11
6.899
 21
-2.2484
 31
0.0
  0
LINE
  8
CLEANED
 10
49.5714
 20
-1.3863
 30
0.0
 11
50.0025
 21
-3.1105
 31
0.0
  0
LINE
  8
CLEANED
 10
50.0025
 20
-3.1105
 30
0.0
 11
50.8646
 21
-1.3863
 31
0.0
  0
LINE
  8
CLEANED
 10
51.7266
 20
-1.3863
 30
0.0
 11
51.7266
 21
-3.5415
 31
0.0
  0
LINE
  8
CLEANED
 10
48.7094
 20
-3.1105
 30
0.0
 11
49.5714
 21
-1.8174
 31
0.0
  0
LINE
  8
CLEANED
 10
10.7783
 20
-4.4036
 30
0.0
 11
12.0714
 21
-5.2656
 31
0.0
  0
LINE
  8
CLEANED
 10
21.9852
 20
-4.8346
 30
0.0
 11
21.9852
 21
-7.4208
 31
0.0
  0
LINE
  8
CLEANED
 10
23.7094
 20
-4.8346
 30
0.0
 11
23.7094
 21
-7.4208
 31
0.0
  0
LINE
  8
CLEANED
 10
25.4335
 20
-4.8346
 30
0.0
 11
25.4335
 21
-7.4208
 31
0.0
ENDSEC
  0
EOF