  0
SECTION
  2
HEADER
  9
$ACADVER
  1
AC1015
  9
$INSUNITS
 70
0
  9
$EXTMIN
 10
-7.756131353052911
 20
-10.869144086165717
 30
0
  9
$EXTMAX
 10
97.41626864694709
 20
86.97565591383429
 30
0
  0
ENDSEC
  0
SECTION
  2
TABLES
  0
TABLE
  2
LTYPE
 70
7
  0
LTYPE
  2
CONTINUOUS
 70
0
  3
Solid line
 72
65
 73
0
 40
0
  0
LTYPE
  2
DASHED
 70
0
  3
Dashed line
 72
65
 73
2
 40
19.05
 49
12.7
 49
-6.35
  0
LTYPE
  2
HIDDEN
 70
0
  3
Hidden line
 72
65
 73
2
 40
9.525
 49
6.35
 49
-3.175
  0
LTYPE
  2
CENTER
 70
0
  3
Center line
 72
65
 73
4
 40
50.8
 49
31.75
 49
-6.35
 49
6.35
 49
-6.35
  0
LTYPE
  2
DASHDOT
 70
0
  3
Dash dot line
 72
65
 73
4
 40
25.4
 49
12.7
 49
-6.35
 49
0
 49
-6.35
  0
LTYPE
  2
PHANTOM
 70
0
  3
Phantom line
 72
65
 73
6
 40
63.5
 49
31.75
 49
-6.35
 49
6.35
 49
-6.35
 49
6.35
 49
-6.35
  0
LTYPE
  2
DOT
 70
0
  3
Dotted line
 72
65
 73
2
 40
6.35
 49
0
 49
-6.35
  0
ENDTAB
  0
TABLE
  2
LAYER
 70
0
  0
ENDTAB
  0
ENDSEC
  0
SECTION
  2
BLOCKS
  0
ENDSEC
  0
SECTION
  2
ENTITIES
  0
LINE
  8
CLEANED
 10
63.0053
 20
86.3291
 30
0.0
 11
62.718
 21
83.5274
 31
0.0
  0
LINE
  8
CLEANED
 10
63.0053
 20
86.3291
 30
0.0
 11
63.0053
 21
86.3291
 31
0.0
  0
LINE
  8
CLEANED
 10
43.0293
 20
84.9788
 30
0.0
 11
63.473
 21
73.5996
 31
0.0
  0
LINE
  8
CLEANED
 10
58.7848
 20
78.8399
 30
0.0
 11
61.6404
 21
79.6481
 31
0.0
  0
LINE
  8
CLEANED
 10
61.6404
 20
79.6481
 30
0.0
 11
62.718
 21
83.5274
 31
0.0
  0
LINE
  8
CLEANED
 10
58.7848
 20
78.8399
 30
0.0
 11
57.0068
 21
76.5231
 31
0.0
  0
LINE
  8
CLEANED
 10
63.473
 20
73.5996
 30
0.0
 11
73.2919
 21
80.453
 31
0.0
  0
LINE
  8
CLEANED
 10
73.2919
 20
80.453
 30
0.0
 11
86.7052
 21
72.1603
 31
0.0
  0
LINE
  8
CLEANED
 10
86.7052
 20
72.1603
 30
0.0
 11
85.455
 21
70.4886
 31
0.0
  0
LINE
  8
CLEANED
 10
65.148
 20
58.7975
 30
0.0
 11
86.7052
 21
72.1603
 31
0.0
  0
LINE
  8
CLEANED
 10
79.9258
 20
67.6055
 30
0.0
 11
80.522
 21
42.1242
 31
0.0
  0
LINE
  8
CLEANED
 10
78.8818
 20
54.217
 30
0.0
 11
82.7611
 21
54.4325
 31
0.0
  0
LINE
  8
CLEANED
 10
82.7611
 20
54.4325
 30
0.0
 11
86.4259
 21
52.0543
 31
0.0
  0
LINE
  8
CLEANED
 10
89.2287
 20
52.4779
 30
0.0
 11
86.4259
 21
52.0543
 31
0.0
  0
LINE
  8
CLEANED
 10
80.522
 20
42.1242
 30
0.0
 11
86.7973
 21
38.1614
 31
0.0
  0
LINE
  8
CLEANED
 10
86.7973
 20
38.1614
 30
0.0
 11
84.557
 21
36.0418
 31
0.0
  0
LINE
  8
CLEANED
 10
86.7973
 20
38.1614
 30
0.0
 11
63.9684
 21
24.4897
 31
0.0
  0
LINE
  8
CLEANED
 10
53.452
 20
7.2469
 30
0.0
 11
62.942
 21
1.6454
 31
0.0
  0
LINE
  8
CLEANED
 10
42.8165
 20
1.2034
 30
0.0
 11
53.452
 21
7.2469
 31
0.0
  0
LINE
  8
CLEANED
 10
42.8165
 20
1.2034
 30
0.0
 11
46.5542
 21
-1.3863
 31
0.0
  0
LINE
  8
CLEANED
 10
24.0265
 20
-0.4468
 30
0.0
 11
41.9327
 21
-10.6606
 31
0.0
  0
LINE
  8
CLEANED
 10
24.0265
 20
-0.4468
 30
0.0
 11
23.2589
 21
-3.6742
 31
0.0
  0
LINE
  8
CLEANED
 10
26.4124
 20
3.1589
 30
0.0
 11
23.2589
 21
-3.6742
 31
0.0
  0
LINE
  8
CLEANED
 10
24.0265
 20
-0.4468
 30
0.0
 11
24.0265
 21
-0.4468
 31
0.0
  0
LINE
  8
CLEANED
 10
12.5046
 20
-5.3085
 30
0.0
 11
36.9959
 21
9.2033
 31
0.0
  0
LINE
  8
CLEANED
 10
12.5046
 20
-5.3085
 30
0.0
 11
-0.5789
 21
3.3326
 31
0.0
  0
LINE
  8
CLEANED
 10
-0.5789
 20
3.3326
 30
0.0
 11
-0.5789
 21
3.3326
 31
0.0
  0
LINE
  8
CLEANED
 10
-0.5789
 20
3.3326
 30
0.0
 11
5.1897
 21
6.5637
 31
0.0
  0
LINE
  8
CLEANED
 10
2.1577
 20
15.424
 30
0.0
 11
5.6059
 21
18.4413
 31
0.0
  0
LINE
  8
CLEANED
 10
2.1577
 20
15.424
 30
0.0
 11
0.0025
 21
15.855
 31
0.0
  0
LINE
  8
CLEANED
 10
8.4085
 20
31.8048
 30
0.0
 11
12.7513
 21
28.773
 31
0.0
  0
LINE
  8
CLEANED
 10
24.9734
 20
52.3129
 30
0.0
 11
-0.2528
 21
36.7654
 31
0.0
  0
LINE
  8
CLEANED
 10
17.2439
 20
47.7516
 30
0.0
 11
21.4048
 21
50.7739
 31
0.0
  0
LINE
  8
CLEANED
 10
21.4048
 20
50.7739
 30
0.0
 11
22.6723
 21
72.6287
 31
0.0
  0
LINE
  8
CLEANED
 10
19.399
 20
59.3895
 30
0.0
 11
17.6749
 21
57.6654
 31
0.0
  0
LINE
  8
CLEANED
 10
17.6749
 20
57.6654
 30
0.0
 11
15.0887
 21
57.6654
 31
0.0
  0
LINE
  8
CLEANED
 10
17.6749
 20
57.6654
 30
0.0
 11
21.5542
 21
60.6826
 31
0.0
  0
LINE
  8
CLEANED
 10
42.87
 20
60.708
 30
0.0
 11
22.6723
 21
72.6287
 31
0.0
  0
LINE
  8
CLEANED
 10
33.2715
 20
67.6962
 30
0.0
 11
30.8214
 21
67.9024
 31
0.0
  0
LINE
  8
CLEANED
 10
51.3479
 20
78.7427
 30
0.0
 11
33.2715
 21
67.6962
 31
0.0
  0
LINE
  8
CLEANED
 10
42.6749
 20
73.6137
 30
0.0
 11
43.0293
 21
84.9788
 31
0.0
  0
LINE
  8
CLEANED
 10
45.4336
 20
84.0878
 30
0.0
 11
43.0293
 21
84.9788
 31
0.0
  0
LINE
  8
CLEANED
 10
45.4336
 20
84.0878
 30
0.0
 11
48.7094
 21
81.8033
 31
0.0
  0
LINE
  8
CLEANED
 10
25.8646
 20
81.8033
 30
0.0
 11
27.1576
 21
79.4326
 31
0.0
  0
LINE
  8
CLEANED
 10
28.4508
 20
81.8033
 30
0.0
 11
27.1576
 21
79.4326
 31
0.0
  0
LINE
  8
CLEANED
 10
51.3479
 20
78.7427
 30
0.0
 11
55.2956
 21
78.832
 31
0.0
  0
LINE
  8
CLEANED
 10
63.473
 20
73.5996
 30
0.0
 11
61.6404
 21
75.3378
 31
0.0
  0
LINE
  8
CLEANED
 10
29.7439
 20
78.1395
 30
0.0
 11
31.899
 21
77.493
 31
0.0
  0
LINE
  8
CLEANED
 10
31.899
 20
77.493
 30
0.0
 11
34.9957
 21
77.8824
 31
0.0
  0
LINE
  8
CLEANED
 10
34.9957
 20
77.8824
 30
0.0
 11
37.9335
 21
75.7688
 31
0.0
  0
LINE
  8
CLEANED
 10
38.951
 20
73.815
 30
0.0
 11
34.9957
 21
77.8824
 31
0.0
  0
LINE
  8
CLEANED
 10
39.9163
 20
71.9757
 30
0.0
 11
36.8128
 21
73.5275
 31
0.0
  0
LINE
  8
CLEANED
 10
34.9957
 20
77.8824
 30
0.0
 11
29.7439
 21
78.1395
 31
0.0
  0
LINE
  8
CLEANED
 10
55.2956
 20
78.832
 30
0.0
 11
50.0025
 21
77.0619
 31
0.0
  0
LINE
  8
CLEANED
 10
42.5671
 20
22.2128
 30
0.0
 11
48.4938
 21
22.5361
 31
0.0
  0
LINE
  8
CLEANED
 10
45.2611
 20
22.3206
 30
0.0
 11
42.5671
 21
22.2128
 31
0.0
  0
LINE
  8
CLEANED
 10
59.1231
 20
75.7171
 30
0.0
 11
55.2956
 21
78.832
 31
0.0
  0
LINE
  8
CLEANED
 10
26.8344
 20
71.1352
 30
0.0
 11
22.4163
 21
71.0275
 31
0.0
  0
LINE
  8
CLEANED
 10
21.5542
 20
60.6826
 30
0.0
 11
24.5714
 21
59.8206
 31
0.0
  0
LINE
  8
CLEANED
 10
24.9734
 20
52.3129
 30
0.0
 11
37.5744
 21
43.5134
 31
0.0
  0
LINE
  8
CLEANED
 10
37.5744
 20
43.5134
 30
0.0
 11
36.9959
 21
9.2033
 31
0.0
  0
LINE
  8
CLEANED
 10
39.2266
 20
24.4757
 30
0.0
 11
42.5671
 21
22.2128
 31
0.0
  0
LINE
  8
CLEANED
 10
30.8214
 20
67.9024
 30
0.0
 11
26.8344
 21
71.1352
 31
0.0
  0
LINE
  8
CLEANED
 10
79.9258
 20
67.6055
 30
0.0
 11
79.9258
 21
67.6055
 31
0.0
  0
LINE
  8
CLEANED
 10
79.9258
 20
67.6055
 30
0.0
 11
82.1145
 21
69.9498
 31
0.0
  0
LINE
  8
CLEANED
 10
76.9062
 20
66.753
 30
0.0
 11
79.9258
 21
67.6055
 31
0.0
  0
LINE
  8
CLEANED
 10
79.9258
 20
67.6055
 30
0.0
 11
76.9062
 21
66.753
 31
0.0
  0
LINE
  8
CLEANED
 10
78.3621
 20
65.0122
 30
0.0
 11
64.1474
 21
55.7876
 31
0.0
  0
LINE
  8
CLEANED
 10
65.148
 20
58.7975
 30
0.0
 11
65.9508
 21
57.0188
 31
0.0
  0
LINE
  8
CLEANED
 10
65.148
 20
58.7975
 30
0.0
 11
64.1474
 21
55.7876
 31
0.0
  0
LINE
  8
CLEANED
 10
64.2266
 20
53.7861
 30
0.0
 11
66.1663
 21
51.6309
 31
0.0
  0
LINE
  8
CLEANED
 10
66.1663
 20
51.6309
 30
0.0
 11
64.2266
 21
47.9671
 31
0.0
  0
LINE
  8
CLEANED
 10
64.2266
 20
47.9671
 30
0.0
 11
66.1663
 21
45.1654
 31
0.0
  0
LINE
  8
CLEANED
 10
66.1663
 20
45.1654
 30
0.0
 11
64.2266
 21
42.1481
 31
0.0
  0
LINE
  8
CLEANED
 10
66.3818
 20
38.2688
 30
0.0
 11
64.2266
 21
35.2516
 31
0.0
  0
LINE
  8
CLEANED
 10
64.2266
 20
35.2516
 30
0.0
 11
66.088
 21
32.9637
 31
0.0
  0
LINE
  8
CLEANED
 10
66.088
 20
32.9637
 30
0.0
 11
80.522
 21
42.1242
 31
0.0
  0
LINE
  8
CLEANED
 10
76.2523
 20
64.9067
 30
0.0
 11
74.1836
 21
65.9412
 31
0.0
  0
LINE
  8
CLEANED
 10
76.9062
 20
66.753
 30
0.0
 11
73.6016
 21
63.3765
 31
0.0
  0
LINE
  8
CLEANED
 10
70.3149
 20
62.1373
 30
0.0
 11
67.7287
 21
61.0597
 31
0.0
  0
LINE
  8
CLEANED
 10
67.7287
 20
61.0597
 30
0.0
 11
70.3149
 21
62.1373
 31
0.0
  0
LINE
  8
CLEANED
 10
12.287
 20
59.3895
 30
0.0
 11
12.287
 21
56.8033
 31
0.0
  0
LINE
  8
CLEANED
 10
55.1595
 20
53.8784
 30
0.0
 11
57.4486
 21
54.2655
 31
0.0
  0
LINE
  8
CLEANED
 10
57.4486
 20
54.2655
 30
0.0
 11
57.4486
 21
54.2655
 31
0.0
  0
LINE
  8
CLEANED
 10
57.4486
 20
54.2655
 30
0.0
 11
56.8405
 21
51.7987
 31
0.0
  0
LINE
  8
CLEANED
 10
56.8405
 20
51.7987
 30
0.0
 11
55.1595
 21
53.8784
 31
0.0
  0
LINE
  8
CLEANED
 10
95.4167
 20
54.0375
 30
0.0
 11
92.675
 21
52.4929
 31
0.0
  0
LINE
  8
CLEANED
 10
95.4167
 20
54.0375
 30
0.0
 11
96.4644
 21
52.1158
 31
0.0
  0
LINE
  8
CLEANED
 10
96.4644
 20
52.1158
 30
0.0
 11
95.4167
 21
54.0375
 31
0.0
  0
LINE
  8
CLEANED
 10
34.3468
 20
42.143
 30
0.0
 11
37.5744
 21
43.5134
 31
0.0
  0
LINE
  8
CLEANED
 10
37.5744
 20
43.5134
 30
0.0
 11
35.455
 21
45.2732
 31
0.0
  0
LINE
  8
CLEANED
 10
12.7513
 20
28.773
 30
0.0
 11
37.5744
 21
43.5134
 31
0.0
  0
LINE
  8
CLEANED
 10
57.6533
 20
46.8087
 30
0.0
 11
55.6059
 21
46.9973
 31
0.0
  0
LINE
  8
CLEANED
 10
56.899
 20
49.0447
 30
0.0
 11
57.6533
 21
46.8087
 31
0.0
  0
LINE
  8
CLEANED
 10
57.6533
 20
46.8087
 30
0.0
 11
57.6533
 21
46.8087
 31
0.0
  0
LINE
  8
CLEANED
 10
55.552
 20
41.304
 30
0.0
 11
57.6533
 21
40.9388
 31
0.0
  0
LINE
  8
CLEANED
 10
57.6533
 20
40.9388
 30
0.0
 11
55.552
 21
41.304
 31
0.0
  0
LINE
  8
CLEANED
 10
57.6533
 20
40.9388
 30
0.0
 11
58.6232
 21
39.5619
 31
0.0
  0
LINE
  8
CLEANED
 10
58.6232
 20
39.5619
 30
0.0
 11
56.037
 21
38.6999
 31
0.0
  0
LINE
  8
CLEANED
 10
33.0913
 20
39.6682
 30
0.0
 11
34.3468
 21
42.143
 31
0.0
  0
LINE
  8
CLEANED
 10
36.6404
 20
42.5792
 30
0.0
 11
33.0913
 21
39.6682
 31
0.0
  0
LINE
  8
CLEANED
 10
34.3468
 20
42.143
 30
0.0
 11
33.9272
 21
36.7388
 31
0.0
  0
LINE
  8
CLEANED
 10
30.7353
 20
34.5619
 30
0.0
 11
28.9392
 21
37.8665
 31
0.0
  0
LINE
  8
CLEANED
 10
33.9272
 20
36.7388
 30
0.0
 11
35.1102
 21
33.5347
 31
0.0
  0
LINE
  8
CLEANED
 10
35.1102
 20
33.5347
 30
0.0
 11
30.0717
 21
29.7748
 31
0.0
  0
LINE
  8
CLEANED
 10
35.7783
 20
26.6309
 30
0.0
 11
32.3121
 21
23.9189
 31
0.0
  0
LINE
  8
CLEANED
 10
32.3121
 20
23.9189
 30
0.0
 11
31.0369
 21
22.1481
 31
0.0
  0
LINE
  8
CLEANED
 10
31.0369
 20
22.1481
 30
0.0
 11
32.3121
 21
23.9189
 31
0.0
  0
LINE
  8
CLEANED
 10
33.8655
 20
22.6708
 30
0.0
 11
35.4075
 21
21.0627
 31
0.0
  0
LINE
  8
CLEANED
 10
33.8655
 20
22.6708
 30
0.0
 11
33.6801
 21
17.7522
 31
0.0
  0
LINE
  8
CLEANED
 10
35.4075
 20
21.0627
 30
0.0
 11
27.6834
 21
16.4604
 31
0.0
  0
LINE
  8
CLEANED
 10
32.4486
 20
19.9391
 30
0.0
 11
30.7113
 21
16.0063
 31
0.0
  0
LINE
  8
CLEANED
 10
28.0777
 20
19.755
 30
0.0
 11
30.7113
 21
16.0063
 31
0.0
  0
LINE
  8
CLEANED
 10
33.4723
 20
13.4627
 30
0.0
 11
36.9959
 21
9.2033
 31
0.0
  0
LINE
  8
CLEANED
 10
30.7113
 20
16.0063
 30
0.0
 11
33.6801
 21
17.7522
 31
0.0
  0
LINE
  8
CLEANED
 10
33.6801
 20
17.7522
 30
0.0
 11
35.7783
 21
14.993
 31
0.0
  0
LINE
  8
CLEANED
 10
35.7783
 20
14.993
 30
0.0
 11
33.4723
 21
13.4627
 31
0.0
  0
LINE
  8
CLEANED
 10
34.3468
 20
42.143
 30
0.0
 11
31.3961
 21
39.7774
 31
0.0
  0
LINE
  8
CLEANED
 10
66.088
 20
32.9637
 30
0.0
 11
64.2266
 21
29.6481
 31
0.0
  0
LINE
  8
CLEANED
 10
27.8042
 20
35.8981
 30
0.0
 11
31.3961
 21
39.7774
 31
0.0
  0
LINE
  8
CLEANED
 10
28.9392
 20
37.8665
 30
0.0
 11
28.9392
 21
37.8665
 31
0.0
  0
LINE
  8
CLEANED
 10
31.3961
 20
39.7774
 30
0.0
 11
32.3301
 21
36.9757
 31
0.0
  0
LINE
  8
CLEANED
 10
33.9272
 20
36.7388
 30
0.0
 11
33.0913
 21
39.6682
 31
0.0
  0
LINE
  8
CLEANED
 10
25.4659
 20
36.2322
 30
0.0
 11
23.1849
 21
35.6754
 31
0.0
  0
LINE
  8
CLEANED
 10
25.4659
 20
36.2322
 30
0.0
 11
23.1849
 21
35.6754
 31
0.0
  0
LINE
  8
CLEANED
 10
57.818
 20
34.1788
 30
0.0
 11
55.1595
 21
34.5178
 31
0.0
  0
LINE
  8
CLEANED
 10
56.899
 20
36.5447
 30
0.0
 11
57.818
 21
34.1788
 31
0.0
  0
LINE
  8
CLEANED
 10
57.818
 20
34.1788
 30
0.0
 11
56.1662
 21
32.8162
 31
0.0
  0
LINE
  8
CLEANED
 10
57.818
 20
34.1788
 30
0.0
 11
55.1595
 21
34.5178
 31
0.0
  0
LINE
  8
CLEANED
 10
5.6059
 20
18.4413
 30
0.0
 11
8.1921
 21
17.5792
 31
0.0
  0
LINE
  8
CLEANED
 10
29.8639
 20
12.7623
 30
0.0
 11
6.5668
 21
-1.1201
 31
0.0
  0
LINE
  8
CLEANED
 10
24.1404
 20
9.3895
 30
0.0
 11
28.124
 21
11.1451
 31
0.0
  0
LINE
  8
CLEANED
 10
29.8639
 20
12.7623
 30
0.0
 11
29.8639
 21
12.7623
 31
0.0
  0
LINE
  8
CLEANED
 10
27.6834
 20
16.4604
 30
0.0
 11
23.7094
 21
14.5619
 31
0.0
  0
LINE
  8
CLEANED
 10
23.7094
 20
14.5619
 30
0.0
 11
21.9852
 21
15.855
 31
0.0
  0
LINE
  8
CLEANED
 10
30.7113
 20
16.0063
 30
0.0
 11
33.4723
 21
13.4627
 31
0.0
  0
LINE
  8
CLEANED
 10
33.4723
 20
13.4627
 30
0.0
 11
31.3817
 21
18.6135
 31
0.0
  0
LINE
  8
CLEANED
 10
30.7113
 20
16.0063
 30
0.0
 11
28.0777
 21
19.755
 31
0.0
  0
LINE
  8
CLEANED
 10
27.6834
 20
16.4604
 30
0.0
 11
28.0777
 21
19.755
 31
0.0
  0
LINE
  8
CLEANED
 10
28.0777
 20
19.755
 30
0.0
 11
31.0369
 21
22.1481
 31
0.0
  0
LINE
  8
CLEANED
 10
31.0369
 20
22.1481
 30
0.0
 11
29.0733
 21
24.5235
 31
0.0
  0
LINE
  8
CLEANED
 10
31.0369
 20
22.1481
 30
0.0
 11
29.0733
 21
24.5235
 31
0.0
  0
LINE
  8
CLEANED
 10
27.5887
 20
24.4757
 30
0.0
 11
28.0197
 21
27.0619
 31
0.0
  0
LINE
  8
CLEANED
 10
28.0197
 20
27.0619
 30
0.0
 11
30.4442
 21
27.2236
 31
0.0
  0
LINE
  8
CLEANED
 10
30.4442
 20
27.2236
 30
0.0
 11
33.5155
 21
29.7558
 31
0.0
  0
LINE
  8
CLEANED
 10
30.0717
 20
29.7748
 30
0.0
 11
28.032
 21
32.0742
 31
0.0
  0
LINE
  8
CLEANED
 10
28.032
 20
32.0742
 30
0.0
 11
28.032
 21
32.0742
 31
0.0
  0
LINE
  8
CLEANED
 10
28.032
 20
32.0742
 30
0.0
 11
30.7353
 21
34.5619
 31
0.0
  0
LINE
  8
CLEANED
 10
5.4622
 20
33.0964
 30
0.0
 11
-0.2528
 21
36.7654
 31
0.0
  0
LINE
  8
CLEANED
 10
23.1849
 20
35.6754
 30
0.0
 11
20.5844
 21
33.6352
 31
0.0
  0
LINE
  8
CLEANED
 10
82.3624
 20
34.9391
 30
0.0
 11
80.0815
 21
34.3823
 31
0.0
  0
LINE
  8
CLEANED
 10
82.3624
 20
34.9391
 30
0.0
 11
80.0815
 21
34.3823
 31
0.0
  0
LINE
  8
CLEANED
 10
32.4863
 20
32.6312
 30
0.0
 11
35.1102
 21
33.5347
 31
0.0
  0
LINE
  8
CLEANED
 10
32.4863
 20
32.6312
 30
0.0
 11
32.4863
 21
32.6312
 31
0.0
  0
LINE
  8
CLEANED
 10
80.0815
 20
34.3823
 30
0.0
 11
77.4809
 21
32.3421
 31
0.0
  0
LINE
  8
CLEANED
 10
20.5844
 20
33.6352
 30
0.0
 11
17.7287
 21
32.1804
 31
0.0
  0
LINE
  8
CLEANED
 10
17.7287
 20
32.1804
 30
0.0
 11
20.5844
 21
33.6352
 31
0.0
  0
LINE
  8
CLEANED
 10
5.4622
 20
33.0964
 30
0.0
 11
8.4085
 21
31.8048
 31
0.0
  0
LINE
  8
CLEANED
 10
11.2094
 20
30.0792
 30
0.0
 11
5.4622
 21
33.0964
 31
0.0
  0
LINE
  8
CLEANED
 10
32.4863
 20
32.6312
 30
0.0
 11
30.0717
 21
29.7748
 31
0.0
  0
LINE
  8
CLEANED
 10
77.4809
 20
32.3421
 30
0.0
 11
74.6253
 21
30.8873
 31
0.0
  0
LINE
  8
CLEANED
 10
74.6253
 20
30.8873
 30
0.0
 11
77.4809
 21
32.3421
 31
0.0
  0
LINE
  8
CLEANED
 10
28.032
 20
32.0742
 30
0.0
 11
30.0717
 21
29.7748
 31
0.0
  0
LINE
  8
CLEANED
 10
14.6577
 20
30.9413
 30
0.0
 11
12.7513
 21
28.773
 31
0.0
  0
LINE
  8
CLEANED
 10
57.6533
 20
27.8431
 30
0.0
 11
55.6059
 21
28.0317
 31
0.0
  0
LINE
  8
CLEANED
 10
56.899
 20
30.0792
 30
0.0
 11
57.6533
 21
27.8431
 31
0.0
  0
LINE
  8
CLEANED
 10
57.6533
 20
27.8431
 30
0.0
 11
57.6533
 21
27.8431
 31
0.0
  0
LINE
  8
CLEANED
 10
72.0391
 20
28.9477
 30
0.0
 11
69.4528
 21
27.8702
 31
0.0
  0
LINE
  8
CLEANED
 10
72.0391
 20
28.9477
 30
0.0
 11
69.4528
 21
27.8702
 31
0.0
  0
LINE
  8
CLEANED
 10
29.0733
 20
24.5235
 30
0.0
 11
32.3121
 21
23.9189
 31
0.0
  0
LINE
  8
CLEANED
 10
39.3903
 20
3.9911
 30
0.0
 11
36.9959
 21
9.2033
 31
0.0
  0
LINE
  8
CLEANED
 10
39.3903
 20
3.9911
 30
0.0
 11
42.8165
 21
1.2034
 31
0.0
  0
LINE
  8
CLEANED
 10
42.5671
 20
22.2128
 30
0.0
 11
39.2266
 21
24.4757
 31
0.0
  0
LINE
  8
CLEANED
 10
48.4938
 20
22.5361
 30
0.0
 11
49.1404
 21
20.5964
 31
0.0
  0
LINE
  8
CLEANED
 10
33.6801
 20
17.7522
 30
0.0
 11
35.4075
 21
21.0627
 31
0.0
  0
LINE
  8
CLEANED
 10
32.4486
 20
19.9391
 30
0.0
 11
30.7113
 21
16.0063
 31
0.0
  0
LINE
  8
CLEANED
 10
14.6577
 20
16.286
 30
0.0
 11
19.8301
 21
16.286
 31
0.0
  0
LINE
  8
CLEANED
 10
17.2439
 20
17.1481
 30
0.0
 11
17.2439
 21
14.993
 31
0.0
  0
LINE
  8
CLEANED
 10
-2.5837
 20
14.9929
 30
0.0
 11
-7.4329
 21
14.9929
 31
0.0
  0
LINE
  8
CLEANED
 10
-5.3855
 20
16.9326
 30
0.0
 11
-5.17
 21
14.1309
 31
0.0
  0
LINE
  8
CLEANED
 10
-5.3855
 20
16.9326
 30
0.0
 11
-7.4329
 21
14.9929
 31
0.0
  0
LINE
  8
CLEANED
 10
-7.4329
 20
14.9929
 30
0.0
 11
-7.4329
 21
14.9929
 31
0.0
  0
LINE
  8
CLEANED
 10
33.4723
 20
13.4627
 30
0.0
 11
30.7113
 21
16.0063
 31
0.0
  0
LINE
  8
CLEANED
 10
30.7783
 20
10.3809
 30
0.0
 11
33.4723
 21
13.4627
 31
0.0
  0
LINE
  8
CLEANED
 10
30.7783
 20
10.3809
 30
0.0
 11
28.124
 21
11.1451
 31
0.0
  0
LINE
  8
CLEANED
 10
28.124
 20
11.1451
 30
0.0
 11
26.6674
 21
8.7903
 31
0.0
  0
LINE
  8
CLEANED
 10
26.4124
 20
3.1589
 30
0.0
 11
26.6674
 21
8.7903
 31
0.0
  0
LINE
  8
CLEANED
 10
26.4124
 20
3.1589
 30
0.0
 11
26.4124
 21
3.1589
 31
0.0
  0
LINE
  8
CLEANED
 10
36.9959
 20
9.2033
 30
0.0
 11
34.011
 21
10.1654
 31
0.0
  0
LINE
  8
CLEANED
 10
24.0265
 20
-0.4468
 30
0.0
 11
26.4124
 21
3.1589
 31
0.0
  0
LINE
  8
CLEANED
 10
35.4011
 20
7.827
 30
0.0
 11
32.815
 21
6.7494
 31
0.0
  0
LINE
  8
CLEANED
 10
35.4011
 20
7.827
 30
0.0
 11
32.815
 21
6.7494
 31
0.0
  0
LINE
  8
CLEANED
 10
4.7439
 20
-0.0932
 30
0.0
 11
5.1897
 21
6.5637
 31
0.0
  0
LINE
  8
CLEANED
 10
49.7151
 20
-3.6852
 30
0.0
 11
50.8645
 21
-1.3863
 31
0.0
  0
LINE
  8
CLEANED
 10
49.7151
 20
-3.6852
 30
0.0
 11
49.7151
 21
-3.6852
 31
0.0
  0
LINE
  8
CLEANED
 10
18.1598
 20
-2.0868
 30
0.0
 11
15.5736
 21
-3.1644
 31
0.0
  0
LINE
  8
CLEANED
 10
15.5736
 20
-3.1644
 30
0.0
 11
18.1598
 21
-2.0868
 31
0.0
  0
LINE
  8
CLEANED
 10
23.2589
 20
-3.6742
 30
0.0
 11
23.9415
 21
-7.5037
 31
0.0
  0
LINE
  8
CLEANED
 10
23.9415
 20
-7.5037
 30
0.0
 11
24.1072
 21
-5.0998
 31
0.0
ENDSEC
  0
EOF