  0
SECTION
  2
HEADER
  9
$ACADVER
  1
AC1015
  9
$INSUNITS
 70
0
  9
$EXTMIN
 10
0
 20
0
 30
0
  9
$EXTMAX
 10
100
 20
100
 30
0
  0
ENDSEC
  0
SECTION
  2
TABLES
  0
TABLE
  2
LTYPE
 70
7
  0
LTYPE
  2
CONTINUOUS
 70
0
  3
Solid line
 72
65
 73
0
 40
0
  0
LTYPE
  2
DASHED
 70
0
  3
Dashed line
 72
65
 73
2
 40
0.75
 49
0.5
 49
-0.25
  0
LTYPE
  2
HIDDEN
 70
0
  3
Hidden line
 72
65
 73
2
 40
9.525
 49
6.35
 49
-3.175
  0
LTYPE
  2
CENTER
 70
0
  3
Center line
 72
65
 73
4
 40
50.8
 49
31.75
 49
-6.35
 49
6.35
 49
-6.35
  0
LTYPE
  2
DASHDOT
 70
0
  3
Dash dot line
 72
65
 73
4
 40
25.4
 49
12.7
 49
-6.35
 49
0
 49
-6.35
  0
LTYPE
  2
PHANTOM
 70
0
  3
Phantom line
 72
65
 73
6
 40
63.5
 49
31.75
 49
-6.35
 49
6.35
 49
-6.35
 49
6.35
 49
-6.35
  0
LTYPE
  2
DOT
 70
0
  3
Dotted line
 72
65
 73
2
 40
6.35
 49
0
 49
-6.35
  0
ENDTAB
  0
TABLE
  2
LAYER
 70
1
  0
LAYER
  2
0
 70
0
 62
7
  6
CONTINUOUS
  0
ENDTAB
  0
ENDSEC
  0
SECTION
  2
BLOCKS
  0
ENDSEC
  0
SECTION
  2
ENTITIES
  0
  0
LINE
  8
0
 10
57.0237
 20
88.6487
 30
0.0
 11
57.0237
 21
86.0625
 31
0.0
  0
LINE
  8
0
 10
57.0237
 20
86.0625
 30
0.0
 11
56.5926
 21
88.2177
 31
0.0
  0
LINE
  8
0
 10
56.5926
 20
88.2177
 30
0.0
 11
57.0237
 21
88.6487
 31
0.0
  0
LINE
  8
0
 10
58.3168
 20
88.6487
 30
0.0
 11
59.1789
 21
88.2177
 31
0.0
  0
LINE
  8
0
 10
59.1789
 20
88.2177
 30
0.0
 11
58.3168
 21
86.4936
 31
0.0
  0
LINE
  8
0
 10
58.3168
 20
86.4936
 30
0.0
 11
59.1789
 21
86.0625
 31
0.0
  0
LINE
  8
0
 10
59.1789
 20
86.0625
 30
0.0
 11
57.8858
 21
86.0625
 31
0.0
  0
LINE
  8
0
 10
57.8858
 20
86.0625
 30
0.0
 11
59.1789
 21
87.3556
 31
0.0
  0
LINE
  8
0
 10
59.1789
 20
87.3556
 30
0.0
 11
58.7478
 21
88.6487
 31
0.0
  0
LINE
  8
0
 10
58.7478
 20
88.6487
 30
0.0
 11
57.8858
 21
88.2177
 31
0.0
  0
LINE
  8
0
 10
57.8858
 20
88.2177
 30
0.0
 11
58.3168
 21
88.6487
 31
0.0
  0
LINE
  8
0
 10
38.0582
 20
87.3556
 30
0.0
 11
51.8513
 21
79.166
 31
0.0
  0
LINE
  8
0
 10
51.8513
 20
79.166
 30
0.0
 11
52.7133
 21
80.4591
 31
0.0
  0
LINE
  8
0
 10
52.7133
 20
80.4591
 30
0.0
 11
56.1616
 21
81.3211
 31
0.0
  0
LINE
  8
0
 10
56.1616
 20
81.3211
 30
0.0
 11
57.4547
 21
84.3384
 31
0.0
  0
LINE
  8
0
 10
57.4547
 20
84.3384
 30
0.0
 11
57.0237
 21
82.1832
 31
0.0
  0
LINE
  8
0
 10
57.0237
 20
82.1832
 30
0.0
 11
56.1616
 21
81.3211
 31
0.0
  0
LINE
  8
0
 10
56.1616
 20
81.3211
 30
0.0
 11
53.5754
 21
80.8901
 31
0.0
  0
LINE
  8
0
 10
53.5754
 20
80.8901
 30
0.0
 11
52.2823
 21
79.597
 31
0.0
  0
LINE
  8
0
 10
52.2823
 20
79.597
 30
0.0
 11
52.7133
 21
78.7349
 31
0.0
  0
LINE
  8
0
 10
52.7133
 20
78.7349
 30
0.0
 11
57.4547
 21
76.1487
 31
0.0
  0
LINE
  8
0
 10
57.4547
 20
76.1487
 30
0.0
 11
67.7995
 21
82.1832
 31
0.0
  0
LINE
  8
0
 10
67.7995
 20
82.1832
 30
0.0
 11
81.1616
 21
74.4246
 31
0.0
  0
LINE
  8
0
 10
81.1616
 20
74.4246
 30
0.0
 11
81.5926
 21
73.5625
 31
0.0
  0
LINE
  8
0
 10
81.5926
 20
73.5625
 30
0.0
 11
80.2995
 21
72.2694
 31
0.0
  0
LINE
  8
0
 10
80.2995
 20
72.2694
 30
0.0
 11
75.1271
 21
69.2522
 31
0.0
  0
LINE
  8
0
 10
75.1271
 20
69.2522
 30
0.0
 11
75.1271
 21
56.3211
 31
0.0
  0
LINE
  8
0
 10
75.1271
 20
56.3211
 30
0.0
 11
77.2823
 21
56.3211
 31
0.0
  0
LINE
  8
0
 10
77.2823
 20
56.3211
 30
0.0
 11
81.1616
 21
53.7349
 31
0.0
  0
LINE
  8
0
 10
81.1616
 20
53.7349
 30
0.0
 11
83.7478
 21
54.166
 31
0.0
  0
LINE
  8
0
 10
83.7478
 20
54.166
 30
0.0
 11
80.7306
 21
53.7349
 31
0.0
  0
LINE
  8
0
 10
80.7306
 20
53.7349
 30
0.0
 11
77.2823
 21
56.3211
 31
0.0
  0
LINE
  8
0
 10
77.2823
 20
56.3211
 30
0.0
 11
75.9892
 21
56.3211
 31
0.0
  0
LINE
  8
0
 10
75.9892
 20
56.3211
 30
0.0
 11
75.1271
 21
55.4591
 31
0.0
  0
LINE
  8
0
 10
75.1271
 20
55.4591
 30
0.0
 11
75.1271
 21
43.8211
 31
0.0
  0
LINE
  8
0
 10
75.1271
 20
43.8211
 30
0.0
 11
81.1616
 21
40.3729
 31
0.0
  0
LINE
  8
0
 10
81.1616
 20
40.3729
 30
0.0
 11
81.5926
 21
39.5108
 31
0.0
  0
LINE
  8
0
 10
81.5926
 20
39.5108
 30
0.0
 11
80.2995
 21
38.2177
 31
0.0
  0
LINE
  8
0
 10
80.2995
 20
38.2177
 30
0.0
 11
58.7478
 21
25.7177
 31
0.0
  0
LINE
  8
0
 10
58.7478
 20
25.7177
 30
0.0
 11
58.7478
 21
3.7349
 31
0.0
  0
LINE
  8
0
 10
58.7478
 20
3.7349
 30
0.0
 11
57.4547
 21
3.3039
 31
0.0
  0
LINE
  8
0
 10
57.4547
 20
3.3039
 30
0.0
 11
48.834
 21
8.4763
 31
0.0
  0
LINE
  8
0
 10
48.834
 20
8.4763
 30
0.0
 11
47.1099
 21
8.4763
 31
0.0
  0
LINE
  8
0
 10
47.1099
 20
8.4763
 30
0.0
 11
38.0582
 21
3.3039
 31
0.0
  0
LINE
  8
0
 10
38.0582
 20
3.3039
 30
0.0
 11
37.6271
 21
2.4418
 31
0.0
  0
LINE
  8
0
 10
37.6271
 20
2.4418
 30
0.0
 11
41.0754
 21
0.2867
 31
0.0
  0
LINE
  8
0
 10
41.0754
 20
0.2867
 30
0.0
 11
38.4892
 21
1.5798
 31
0.0
  0
LINE
  8
0
 10
38.4892
 20
1.5798
 30
0.0
 11
37.6271
 21
1.1487
 31
0.0
  0
LINE
  8
0
 10
37.6271
 20
1.1487
 30
0.0
 11
37.6271
 21
-8.7651
 31
0.0
  0
LINE
  8
0
 10
37.6271
 20
-8.7651
 30
0.0
 11
36.334
 21
-9.1961
 31
0.0
  0
LINE
  8
0
 10
36.334
 20
-9.1961
 30
0.0
 11
19.5237
 21
0.7177
 31
0.0
  0
LINE
  8
0
 10
19.5237
 20
0.7177
 30
0.0
 11
17.7995
 21
-1.4375
 31
0.0
  0
LINE
  8
0
 10
17.7995
 20
-1.4375
 30
0.0
 11
19.0926
 21
0.7177
 31
0.0
  0
LINE
  8
0
 10
19.0926
 20
0.7177
 30
0.0
 11
17.3685
 21
2.0108
 31
0.0
  0
LINE
  8
0
 10
17.3685
 20
2.0108
 30
0.0
 11
7.0237
 21
-4.0237
 31
0.0
  0
LINE
  8
0
 10
7.0237
 20
-4.0237
 30
0.0
 11
-6.7694
 21
4.166
 31
0.0
  0
LINE
  8
0
 10
-6.7694
 20
4.166
 30
0.0
 11
-5.9074
 21
5.4591
 31
0.0
  0
LINE
  8
0
 10
-5.9074
 20
5.4591
 30
0.0
 11
-0.3039
 21
8.9074
 31
0.0
  0
LINE
  8
0
 10
-0.3039
 20
8.9074
 30
0.0
 11
-0.3039
 21
19.2522
 31
0.0
  0
LINE
  8
0
 10
-0.3039
 20
19.2522
 30
0.0
 11
-0.7349
 21
19.6832
 31
0.0
  0
LINE
  8
0
 10
-0.7349
 20
19.6832
 30
0.0
 11
-3.3211
 21
17.097
 31
0.0
  0
LINE
  8
0
 10
-3.3211
 20
17.097
 30
0.0
 11
-5.4763
 21
17.528
 31
0.0
  0
LINE
  8
0
 10
-5.4763
 20
17.528
 30
0.0
 11
-3.3211
 21
17.097
 31
0.0
  0
LINE
  8
0
 10
-3.3211
 20
17.097
 30
0.0
 11
-0.3039
 21
20.1143
 31
0.0
  0
LINE
  8
0
 10
-0.3039
 20
20.1143
 30
0.0
 11
-0.3039
 21
33.9074
 31
0.0
  0
LINE
  8
0
 10
-0.3039
 20
33.9074
 30
0.0
 11
-6.3384
 21
37.7867
 31
0.0
  0
LINE
  8
0
 10
-6.3384
 20
37.7867
 30
0.0
 11
-6.7694
 21
38.6487
 31
0.0
  0
LINE
  8
0
 10
-6.7694
 20
38.6487
 30
0.0
 11
-5.4763
 21
39.9418
 31
0.0
  0
LINE
  8
0
 10
-5.4763
 20
39.9418
 30
0.0
 11
11.7651
 21
49.4246
 31
0.0
  0
LINE
  8
0
 10
11.7651
 20
49.4246
 30
0.0
 11
16.0754
 21
52.4418
 31
0.0
  0
LINE
  8
0
 10
16.0754
 20
52.4418
 30
0.0
 11
16.0754
 21
61.4936
 31
0.0
  0
LINE
  8
0
 10
16.0754
 20
61.4936
 30
0.0
 11
15.6444
 21
61.9246
 31
0.0
  0
LINE
  8
0
 10
15.6444
 20
61.9246
 30
0.0
 11
13.9202
 21
61.0625
 31
0.0
  0
LINE
  8
0
 10
13.9202
 20
61.0625
 30
0.0
 11
12.1961
 21
59.3384
 31
0.0
  0
LINE
  8
0
 10
12.1961
 20
59.3384
 30
0.0
 11
9.6099
 21
59.3384
 31
0.0
  0
LINE
  8
0
 10
9.6099
 20
59.3384
 30
0.0
 11
12.1961
 21
59.3384
 31
0.0
  0
LINE
  8
0
 10
12.1961
 20
59.3384
 30
0.0
 11
16.0754
 21
62.3556
 31
0.0
  0
LINE
  8
0
 10
16.0754
 20
62.3556
 30
0.0
 11
16.5064
 21
74.8556
 31
0.0
  0
LINE
  8
0
 10
16.5064
 20
74.8556
 30
0.0
 11
18.2306
 21
74.4246
 31
0.0
  0
LINE
  8
0
 10
18.2306
 20
74.4246
 30
0.0
 11
25.9892
 21
69.6832
 31
0.0
  0
LINE
  8
0
 10
25.9892
 20
69.6832
 30
0.0
 11
27.7133
 21
69.6832
 31
0.0
  0
LINE
  8
0
 10
27.7133
 20
69.6832
 30
0.0
 11
37.1961
 21
75.2867
 31
0.0
  0
LINE
  8
0
 10
37.1961
 20
75.2867
 30
0.0
 11
37.6271
 21
86.9246
 31
0.0
  0
LINE
  8
0
 10
37.6271
 20
86.9246
 30
0.0
 11
38.0582
 21
87.3556
 31
0.0
  0
LINE
  8
0
 10
38.0582
 20
86.0625
 30
0.0
 11
37.1961
 21
86.0625
 31
0.0
  0
LINE
  8
0
 10
37.1961
 20
86.0625
 30
0.0
 11
37.6271
 21
75.2867
 31
0.0
  0
LINE
  8
0
 10
37.6271
 20
75.2867
 30
0.0
 11
46.6789
 21
80.8901
 31
0.0
  0
LINE
  8
0
 10
46.6789
 20
80.8901
 30
0.0
 11
38.4892
 21
86.0625
 31
0.0
  0
LINE
  8
0
 10
38.4892
 20
86.0625
 30
0.0
 11
38.0582
 21
86.0625
 31
0.0
  0
LINE
  8
0
 10
40.6444
 20
85.6315
 30
0.0
 11
39.3513
 21
85.6315
 31
0.0
  0
LINE
  8
0
 10
39.3513
 20
85.6315
 30
0.0
 11
40.2133
 21
85.2005
 31
0.0
  0
LINE
  8
0
 10
40.2133
 20
85.2005
 30
0.0
 11
40.6444
 21
85.6315
 31
0.0
  0
LINE
  8
0
 10
43.6616
 20
83.9074
 30
0.0
 11
42.3685
 21
83.9074
 31
0.0
  0
LINE
  8
0
 10
42.3685
 20
83.9074
 30
0.0
 11
43.2306
 21
83.4763
 31
0.0
  0
LINE
  8
0
 10
43.2306
 20
83.4763
 30
0.0
 11
43.6616
 21
83.9074
 31
0.0
  0
LINE
  8
0
 10
20.3858
 20
83.4763
 30
0.0
 11
20.8168
 21
81.3211
 31
0.0
  0
LINE
  8
0
 10
20.8168
 20
81.3211
 30
0.0
 11
20.8168
 21
82.6143
 31
0.0
  0
LINE
  8
0
 10
20.8168
 20
82.6143
 30
0.0
 11
19.9547
 21
83.0453
 31
0.0
  0
LINE
  8
0
 10
19.9547
 20
83.0453
 30
0.0
 11
20.3858
 21
83.4763
 31
0.0
  0
LINE
  8
0
 10
22.1099
 20
83.4763
 30
0.0
 11
22.972
 21
83.4763
 31
0.0
  0
LINE
  8
0
 10
22.972
 20
83.4763
 30
0.0
 11
22.5409
 21
80.8901
 31
0.0
  0
LINE
  8
0
 10
22.5409
 20
80.8901
 30
0.0
 11
21.6789
 21
81.7522
 31
0.0
  0
LINE
  8
0
 10
21.6789
 20
81.7522
 30
0.0
 11
21.6789
 21
83.0453
 31
0.0
  0
LINE
  8
0
 10
21.6789
 20
83.0453
 30
0.0
 11
22.1099
 21
83.4763
 31
0.0
  0
LINE
  8
0
 10
45.8168
 20
82.6143
 30
0.0
 11
44.9547
 21
83.4763
 31
0.0
  0
LINE
  8
0
 10
44.9547
 20
83.4763
 30
0.0
 11
44.0926
 21
83.0453
 31
0.0
  0
LINE
  8
0
 10
44.0926
 20
83.0453
 30
0.0
 11
45.3858
 21
82.1832
 31
0.0
  0
LINE
  8
0
 10
45.3858
 20
82.1832
 30
0.0
 11
45.8168
 21
82.6143
 31
0.0
  0
LINE
  8
0
 10
47.972
 20
81.3211
 30
0.0
 11
46.6789
 21
82.1832
 31
0.0
  0
LINE
  8
0
 10
46.6789
 20
82.1832
 30
0.0
 11
46.2478
 21
80.4591
 31
0.0
  0
LINE
  8
0
 10
46.2478
 20
80.4591
 30
0.0
 11
48.403
 21
80.4591
 31
0.0
  0
LINE
  8
0
 10
48.403
 20
80.4591
 30
0.0
 11
48.403
 21
81.3211
 31
0.0
  0
LINE
  8
0
 10
48.403
 20
81.3211
 30
0.0
 11
47.972
 21
81.3211
 31
0.0
  0
LINE
  8
0
 10
68.6616
 20
81.3211
 30
0.0
 11
67.3685
 21
81.7522
 31
0.0
  0
LINE
  8
0
 10
67.3685
 20
81.7522
 30
0.0
 11
57.8858
 21
76.1487
 31
0.0
  0
LINE
  8
0
 10
57.8858
 20
76.1487
 30
0.0
 11
58.7478
 21
75.2867
 31
0.0
  0
LINE
  8
0
 10
58.7478
 20
75.2867
 30
0.0
 11
59.1789
 21
61.4936
 31
0.0
  0
LINE
  8
0
 10
59.1789
 20
61.4936
 30
0.0
 11
80.7306
 21
73.9936
 31
0.0
  0
LINE
  8
0
 10
80.7306
 20
73.9936
 30
0.0
 11
80.2995
 21
74.8556
 31
0.0
  0
LINE
  8
0
 10
80.2995
 20
74.8556
 30
0.0
 11
69.0926
 21
81.3211
 31
0.0
  0
LINE
  8
0
 10
69.0926
 20
81.3211
 30
0.0
 11
68.6616
 21
81.3211
 31
0.0
  0
LINE
  8
0
 10
24.2651
 20
80.028
 30
0.0
 11
26.4202
 21
79.166
 31
0.0
  0
LINE
  8
0
 10
26.4202
 20
79.166
 30
0.0
 11
29.0064
 21
79.597
 31
0.0
  0
LINE
  8
0
 10
29.0064
 20
79.597
 30
0.0
 11
32.4547
 21
77.4418
 31
0.0
  0
LINE
  8
0
 10
32.4547
 20
77.4418
 30
0.0
 11
33.7478
 21
75.7177
 31
0.0
  0
LINE
  8
0
 10
33.7478
 20
75.7177
 30
0.0
 11
32.0237
 21
76.5798
 31
0.0
  0
LINE
  8
0
 10
32.0237
 20
76.5798
 30
0.0
 11
29.8685
 21
79.166
 31
0.0
  0
LINE
  8
0
 10
29.8685
 20
79.166
 30
0.0
 11
25.9892
 21
79.166
 31
0.0
  0
LINE
  8
0
 10
25.9892
 20
79.166
 30
0.0
 11
24.6961
 21
80.028
 31
0.0
  0
LINE
  8
0
 10
24.6961
 20
80.028
 30
0.0
 11
24.2651
 21
80.028
 31
0.0
  0
LINE
  8
0
 10
46.2478
 20
79.597
 30
0.0
 11
44.9547
 21
79.597
 31
0.0
  0
LINE
  8
0
 10
44.9547
 20
79.597
 30
0.0
 11
45.8168
 21
79.166
 31
0.0
  0
LINE
  8
0
 10
45.8168
 20
79.166
 30
0.0
 11
46.2478
 21
79.597
 31
0.0
  0
LINE
  8
0
 10
47.972
 20
79.597
 30
0.0
 11
47.1099
 21
80.028
 31
0.0
  0
LINE
  8
0
 10
47.1099
 20
80.028
 30
0.0
 11
44.5237
 21
78.7349
 31
0.0
  0
LINE
  8
0
 10
44.5237
 20
78.7349
 30
0.0
 11
28.1444
 21
68.8211
 31
0.0
  0
LINE
  8
0
 10
28.1444
 20
68.8211
 30
0.0
 11
28.5754
 21
67.9591
 31
0.0
  0
LINE
  8
0
 10
28.5754
 20
67.9591
 30
0.0
 11
37.6271
 21
62.7867
 31
0.0
  0
LINE
  8
0
 10
37.6271
 20
62.7867
 30
0.0
 11
37.6271
 21
23.9936
 31
0.0
  0
LINE
  8
0
 10
37.6271
 20
23.9936
 30
0.0
 11
39.7823
 21
23.9936
 31
0.0
  0
LINE
  8
0
 10
39.7823
 20
23.9936
 30
0.0
 11
37.6271
 21
23.1315
 31
0.0
  0
LINE
  8
0
 10
37.6271
 20
23.1315
 30
0.0
 11
38.0582
 21
3.3039
 31
0.0
  0
LINE
  8
0
 10
38.0582
 20
3.3039
 30
0.0
 11
47.972
 21
8.9074
 31
0.0
  0
LINE
  8
0
 10
47.972
 20
8.9074
 30
0.0
 11
47.972
 21
79.166
 31
0.0
  0
LINE
  8
0
 10
47.972
 20
79.166
 30
0.0
 11
47.972
 21
79.597
 31
0.0
  0
LINE
  8
0
 10
49.2651
 20
79.597
 30
0.0
 11
47.972
 21
79.597
 31
0.0
  0
LINE
  8
0
 10
47.972
 20
79.597
 30
0.0
 11
47.972
 21
8.9074
 31
0.0
  0
LINE
  8
0
 10
47.972
 20
8.9074
 30
0.0
 11
57.4547
 21
3.3039
 31
0.0
  0
LINE
  8
0
 10
57.4547
 20
3.3039
 30
0.0
 11
57.8858
 21
74.4246
 31
0.0
  0
LINE
  8
0
 10
57.8858
 20
74.4246
 30
0.0
 11
51.8513
 21
78.3039
 31
0.0
  0
LINE
  8
0
 10
51.8513
 20
78.3039
 30
0.0
 11
51.4202
 21
77.4418
 31
0.0
  0
LINE
  8
0
 10
51.4202
 20
77.4418
 30
0.0
 11
51.4202
 21
78.3039
 31
0.0
  0
LINE
  8
0
 10
51.4202
 20
78.3039
 30
0.0
 11
49.6961
 21
79.597
 31
0.0
  0
LINE
  8
0
 10
49.6961
 20
79.597
 30
0.0
 11
49.2651
 21
79.597
 31
0.0
  0
LINE
  8
0
 10
50.9892
 20
79.597
 30
0.0
 11
50.1271
 21
80.4591
 31
0.0
  0
LINE
  8
0
 10
50.1271
 20
80.4591
 30
0.0
 11
49.2651
 21
80.028
 31
0.0
  0
LINE
  8
0
 10
49.2651
 20
80.028
 30
0.0
 11
50.5582
 21
79.166
 31
0.0
  0
LINE
  8
0
 10
50.5582
 20
79.166
 30
0.0
 11
50.9892
 21
79.597
 31
0.0
  0
LINE
  8
0
 10
54.0064
 20
77.8729
 30
0.0
 11
52.2823
 21
79.166
 31
0.0
  0
LINE
  8
0
 10
52.2823
 20
79.166
 30
0.0
 11
51.8513
 21
78.7349
 31
0.0
  0
LINE
  8
0
 10
51.8513
 20
78.7349
 30
0.0
 11
53.5754
 21
77.4418
 31
0.0
  0
LINE
  8
0
 10
53.5754
 20
77.4418
 30
0.0
 11
54.0064
 21
77.8729
 31
0.0
  0
LINE
  8
0
 10
57.0237
 20
76.1487
 30
0.0
 11
56.1616
 21
77.0108
 31
0.0
  0
LINE
  8
0
 10
56.1616
 20
77.0108
 30
0.0
 11
55.2995
 21
76.5798
 31
0.0
  0
LINE
  8
0
 10
55.2995
 20
76.5798
 30
0.0
 11
56.5926
 21
75.7177
 31
0.0
  0
LINE
  8
0
 10
56.5926
 20
75.7177
 30
0.0
 11
57.0237
 21
76.1487
 31
0.0
  0
LINE
  8
0
 10
57.8858
 20
75.7177
 30
0.0
 11
56.5926
 21
75.7177
 31
0.0
  0
LINE
  8
0
 10
56.5926
 20
75.7177
 30
0.0
 11
57.4547
 21
75.2867
 31
0.0
  0
LINE
  8
0
 10
57.4547
 20
75.2867
 30
0.0
 11
57.8858
 21
75.7177
 31
0.0
  0
LINE
  8
0
 10
18.2306
 20
73.9936
 30
0.0
 11
16.9375
 21
73.9936
 31
0.0
  0
LINE
  8
0
 10
16.9375
 20
73.9936
 30
0.0
 11
17.7995
 21
73.5625
 31
0.0
  0
LINE
  8
0
 10
17.7995
 20
73.5625
 30
0.0
 11
18.2306
 21
73.9936
 31
0.0
  0
LINE
  8
0
 10
17.7995
 20
73.1315
 30
0.0
 11
16.9375
 21
73.9936
 31
0.0
  0
LINE
  8
0
 10
16.9375
 20
73.9936
 30
0.0
 11
16.0754
 21
73.5625
 31
0.0
  0
LINE
  8
0
 10
16.0754
 20
73.5625
 30
0.0
 11
16.0754
 21
62.3556
 31
0.0
  0
LINE
  8
0
 10
16.0754
 20
62.3556
 30
0.0
 11
19.0926
 21
61.4936
 31
0.0
  0
LINE
  8
0
 10
19.0926
 20
61.4936
 30
0.0
 11
16.0754
 21
61.4936
 31
0.0
  0
LINE
  8
0
 10
16.0754
 20
61.4936
 30
0.0
 11
16.0754
 21
52.8729
 31
0.0
  0
LINE
  8
0
 10
16.0754
 20
52.8729
 30
0.0
 11
16.9375
 21
52.4418
 31
0.0
  0
LINE
  8
0
 10
16.9375
 20
52.4418
 30
0.0
 11
19.9547
 21
54.166
 31
0.0
  0
LINE
  8
0
 10
19.9547
 20
54.166
 30
0.0
 11
32.8858
 21
46.4074
 31
0.0
  0
LINE
  8
0
 10
32.8858
 20
46.4074
 30
0.0
 11
32.8858
 21
26.5798
 31
0.0
  0
LINE
  8
0
 10
32.8858
 20
26.5798
 30
0.0
 11
36.334
 21
24.4246
 31
0.0
  0
LINE
  8
0
 10
36.334
 20
24.4246
 30
0.0
 11
36.7651
 21
62.3556
 31
0.0
  0
LINE
  8
0
 10
36.7651
 20
62.3556
 30
0.0
 11
18.2306
 21
73.1315
 31
0.0
  0
LINE
  8
0
 10
18.2306
 20
73.1315
 30
0.0
 11
17.7995
 21
73.1315
 31
0.0
  0
LINE
  8
0
 10
20.3858
 20
72.7005
 30
0.0
 11
19.0926
 21
72.7005
 31
0.0
  0
LINE
  8
0
 10
19.0926
 20
72.7005
 30
0.0
 11
19.9547
 21
72.2694
 31
0.0
  0
LINE
  8
0
 10
19.9547
 20
72.2694
 30
0.0
 11
20.3858
 21
72.7005
 31
0.0
  0
LINE
  8
0
 10
34.1789
 20
72.7005
 30
0.0
 11
32.8858
 21
72.7005
 31
0.0
  0
LINE
  8
0
 10
32.8858
 20
72.7005
 30
0.0
 11
33.7478
 21
72.2694
 31
0.0
  0
LINE
  8
0
 10
33.7478
 20
72.2694
 30
0.0
 11
34.1789
 21
72.7005
 31
0.0
  0
LINE
  8
0
 10
80.2995
 20
72.7005
 30
0.0
 11
79.0064
 21
72.7005
 31
0.0
  0
LINE
  8
0
 10
79.0064
 20
72.7005
 30
0.0
 11
79.8685
 21
72.2694
 31
0.0
  0
LINE
  8
0
 10
79.8685
 20
72.2694
 30
0.0
 11
80.2995
 21
72.7005
 31
0.0
  0
LINE
  8
0
 10
22.5409
 20
71.4074
 30
0.0
 11
21.6789
 21
72.2694
 31
0.0
  0
LINE
  8
0
 10
21.6789
 20
72.2694
 30
0.0
 11
20.8168
 21
71.8384
 31
0.0
  0
LINE
  8
0
 10
20.8168
 20
71.8384
 30
0.0
 11
22.1099
 21
70.9763
 31
0.0
  0
LINE
  8
0
 10
22.1099
 20
70.9763
 30
0.0
 11
22.5409
 21
71.4074
 31
0.0
  0
LINE
  8
0
 10
23.403
 20
70.9763
 30
0.0
 11
22.1099
 21
70.9763
 31
0.0
  0
LINE
  8
0
 10
22.1099
 20
70.9763
 30
0.0
 11
22.972
 21
70.5453
 31
0.0
  0
LINE
  8
0
 10
22.972
 20
70.5453
 30
0.0
 11
23.403
 21
70.9763
 31
0.0
  0
LINE
  8
0
 10
31.1616
 20
70.9763
 30
0.0
 11
30.2995
 21
71.4074
 31
0.0
  0
LINE
  8
0
 10
30.2995
 20
71.4074
 30
0.0
 11
29.4375
 21
70.5453
 31
0.0
  0
LINE
  8
0
 10
29.4375
 20
70.5453
 30
0.0
 11
30.7306
 21
70.5453
 31
0.0
  0
LINE
  8
0
 10
30.7306
 20
70.5453
 30
0.0
 11
31.1616
 21
70.9763
 31
0.0
  0
LINE
  8
0
 10
77.2823
 20
70.9763
 30
0.0
 11
75.9892
 21
70.9763
 31
0.0
  0
LINE
  8
0
 10
75.9892
 20
70.9763
 30
0.0
 11
76.8513
 21
70.5453
 31
0.0
  0
LINE
  8
0
 10
76.8513
 20
70.5453
 30
0.0
 11
77.2823
 21
70.9763
 31
0.0
  0
LINE
  8
0
 10
25.5582
 20
69.6832
 30
0.0
 11
24.6961
 21
70.5453
 31
0.0
  0
LINE
  8
0
 10
24.6961
 20
70.5453
 30
0.0
 11
23.834
 21
70.1143
 31
0.0
  0
LINE
  8
0
 10
23.834
 20
70.1143
 30
0.0
 11
25.1271
 21
69.2522
 31
0.0
  0
LINE
  8
0
 10
25.1271
 20
69.2522
 30
0.0
 11
25.5582
 21
69.6832
 31
0.0
  0
LINE
  8
0
 10
75.1271
 20
69.6832
 30
0.0
 11
73.834
 21
69.6832
 31
0.0
  0
LINE
  8
0
 10
73.834
 20
69.6832
 30
0.0
 11
74.6961
 21
69.2522
 31
0.0
  0
LINE
  8
0
 10
74.6961
 20
69.2522
 30
0.0
 11
75.1271
 21
69.6832
 31
0.0
  0
LINE
  8
0
 10
26.8513
 20
69.2522
 30
0.0
 11
25.1271
 21
69.2522
 31
0.0
  0
LINE
  8
0
 10
25.1271
 20
69.2522
 30
0.0
 11
28.1444
 21
67.528
 31
0.0
  0
LINE
  8
0
 10
28.1444
 20
67.528
 30
0.0
 11
28.1444
 21
69.2522
 31
0.0
  0
LINE
  8
0
 10
28.1444
 20
69.2522
 30
0.0
 11
27.2823
 21
69.6832
 31
0.0
  0
LINE
  8
0
 10
27.2823
 20
69.6832
 30
0.0
 11
26.8513
 21
69.2522
 31
0.0
  0
LINE
  8
0
 10
73.834
 20
68.8211
 30
0.0
 11
74.2651
 21
69.2522
 31
0.0
  0
LINE
  8
0
 10
74.2651
 20
69.2522
 30
0.0
 11
73.403
 21
69.6832
 31
0.0
  0
LINE
  8
0
 10
73.403
 20
69.6832
 30
0.0
 11
71.6789
 21
68.3901
 31
0.0
  0
LINE
  8
0
 10
71.6789
 20
68.3901
 30
0.0
 11
73.403
 21
68.3901
 31
0.0
  0
LINE
  8
0
 10
73.403
 20
68.3901
 30
0.0
 11
73.834
 21
68.8211
 31
0.0
  0
LINE
  8
0
 10
74.6961
 20
68.3901
 30
0.0
 11
73.834
 21
68.8211
 31
0.0
  0
LINE
  8
0
 10
73.834
 20
68.8211
 30
0.0
 11
72.1099
 21
67.9591
 31
0.0
  0
LINE
  8
0
 10
72.1099
 20
67.9591
 30
0.0
 11
60.0409
 21
60.6315
 31
0.0
  0
LINE
  8
0
 10
60.0409
 20
60.6315
 30
0.0
 11
60.903
 21
58.9074
 31
0.0
  0
LINE
  8
0
 10
60.903
 20
58.9074
 30
0.0
 11
60.0409
 21
57.1832
 31
0.0
  0
LINE
  8
0
 10
60.0409
 20
57.1832
 30
0.0
 11
58.7478
 21
56.3211
 31
0.0
  0
LINE
  8
0
 10
58.7478
 20
56.3211
 30
0.0
 11
58.7478
 21
55.4591
 31
0.0
  0
LINE
  8
0
 10
58.7478
 20
55.4591
 30
0.0
 11
60.472
 21
54.166
 31
0.0
  0
LINE
  8
0
 10
60.472
 20
54.166
 30
0.0
 11
60.903
 21
52.4418
 31
0.0
  0
LINE
  8
0
 10
60.903
 20
52.4418
 30
0.0
 11
58.7478
 21
50.2867
 31
0.0
  0
LINE
  8
0
 10
58.7478
 20
50.2867
 30
0.0
 11
58.7478
 21
48.9936
 31
0.0
  0
LINE
  8
0
 10
58.7478
 20
48.9936
 30
0.0
 11
60.472
 21
47.7005
 31
0.0
  0
LINE
  8
0
 10
60.472
 20
47.7005
 30
0.0
 11
60.903
 21
45.9763
 31
0.0
  0
LINE
  8
0
 10
60.903
 20
45.9763
 30
0.0
 11
58.7478
 21
43.8211
 31
0.0
  0
LINE
  8
0
 10
58.7478
 20
43.8211
 30
0.0
 11
58.7478
 21
42.528
 31
0.0
  0
LINE
  8
0
 10
58.7478
 20
42.528
 30
0.0
 11
60.472
 21
41.666
 31
0.0
  0
LINE
  8
0
 10
60.472
 20
41.666
 30
0.0
 11
60.903
 21
39.9418
 31
0.0
  0
LINE
  8
0
 10
60.903
 20
39.9418
 30
0.0
 11
58.7478
 21
37.3556
 31
0.0
  0
LINE
  8
0
 10
58.7478
 20
37.3556
 30
0.0
 11
58.7478
 21
36.4936
 31
0.0
  0
LINE
  8
0
 10
58.7478
 20
36.4936
 30
0.0
 11
60.472
 21
35.2005
 31
0.0
  0
LINE
  8
0
 10
60.472
 20
35.2005
 30
0.0
 11
75.1271
 21
43.8211
 31
0.0
  0
LINE
  8
0
 10
75.1271
 20
43.8211
 30
0.0
 11
75.1271
 21
55.028
 31
0.0
  0
LINE
  8
0
 10
75.1271
 20
55.028
 30
0.0
 11
73.403
 21
55.028
 31
0.0
  0
LINE
  8
0
 10
73.403
 20
55.028
 30
0.0
 11
74.6961
 21
55.8901
 31
0.0
  0
LINE
  8
0
 10
74.6961
 20
55.8901
 30
0.0
 11
74.6961
 21
67.9591
 31
0.0
  0
LINE
  8
0
 10
74.6961
 20
67.9591
 30
0.0
 11
74.6961
 21
68.3901
 31
0.0
  0
LINE
  8
0
 10
71.2478
 20
67.528
 30
0.0
 11
70.3858
 21
67.9591
 31
0.0
  0
LINE
  8
0
 10
70.3858
 20
67.9591
 30
0.0
 11
69.5237
 21
67.097
 31
0.0
  0
LINE
  8
0
 10
69.5237
 20
67.097
 30
0.0
 11
70.8168
 21
67.097
 31
0.0
  0
LINE
  8
0
 10
70.8168
 20
67.097
 30
0.0
 11
71.2478
 21
67.528
 31
0.0
  0
LINE
  8
0
 10
30.7306
 20
66.666
 30
0.0
 11
29.8685
 21
67.528
 31
0.0
  0
LINE
  8
0
 10
29.8685
 20
67.528
 30
0.0
 11
29.0064
 21
67.097
 31
0.0
  0
LINE
  8
0
 10
29.0064
 20
67.097
 30
0.0
 11
30.2995
 21
66.2349
 31
0.0
  0
LINE
  8
0
 10
30.2995
 20
66.2349
 30
0.0
 11
30.7306
 21
66.666
 31
0.0
  0
LINE
  8
0
 10
69.0926
 20
66.2349
 30
0.0
 11
68.2306
 21
66.666
 31
0.0
  0
LINE
  8
0
 10
68.2306
 20
66.666
 30
0.0
 11
67.3685
 21
65.8039
 31
0.0
  0
LINE
  8
0
 10
67.3685
 20
65.8039
 30
0.0
 11
68.6616
 21
65.8039
 31
0.0
  0
LINE
  8
0
 10
68.6616
 20
65.8039
 30
0.0
 11
69.0926
 21
66.2349
 31
0.0
  0
LINE
  8
0
 10
34.6099
 20
64.5108
 30
0.0
 11
33.3168
 21
64.5108
 31
0.0
  0
LINE
  8
0
 10
33.3168
 20
64.5108
 30
0.0
 11
34.1789
 21
64.0798
 31
0.0
  0
LINE
  8
0
 10
34.1789
 20
64.0798
 30
0.0
 11
34.6099
 21
64.5108
 31
0.0
  0
LINE
  8
0
 10
65.2133
 20
64.0798
 30
0.0
 11
64.3513
 21
64.5108
 31
0.0
  0
LINE
  8
0
 10
64.3513
 20
64.5108
 30
0.0
 11
63.4892
 21
63.6487
 31
0.0
  0
LINE
  8
0
 10
63.4892
 20
63.6487
 30
0.0
 11
64.7823
 21
63.6487
 31
0.0
  0
LINE
  8
0
 10
64.7823
 20
63.6487
 30
0.0
 11
65.2133
 21
64.0798
 31
0.0
  0
LINE
  8
0
 10
63.0582
 20
62.7867
 30
0.0
 11
61.7651
 21
62.7867
 31
0.0
  0
LINE
  8
0
 10
61.7651
 20
62.7867
 30
0.0
 11
62.6271
 21
62.3556
 31
0.0
  0
LINE
  8
0
 10
62.6271
 20
62.3556
 30
0.0
 11
63.0582
 21
62.7867
 31
0.0
  0
LINE
  8
0
 10
58.7478
 20
61.4936
 30
0.0
 11
58.3168
 21
74.8556
 31
0.0
  0
LINE
  8
0
 10
58.3168
 20
74.8556
 30
0.0
 11
58.3168
 21
3.3039
 31
0.0
  0
LINE
  8
0
 10
58.3168
 20
3.3039
 30
0.0
 11
58.7478
 21
61.0625
 31
0.0
  0
LINE
  8
0
 10
58.7478
 20
61.0625
 30
0.0
 11
58.7478
 21
61.4936
 31
0.0
  0
LINE
  8
0
 10
5.7306
 20
61.0625
 30
0.0
 11
5.7306
 21
58.4763
 31
0.0
  0
LINE
  8
0
 10
5.7306
 20
58.4763
 30
0.0
 11
5.2995
 21
60.6315
 31
0.0
  0
LINE
  8
0
 10
5.2995
 20
60.6315
 30
0.0
 11
5.7306
 21
61.0625
 31
0.0
  0
LINE
  8
0
 10
7.8858
 20
61.0625
 30
0.0
 11
7.8858
 21
58.4763
 31
0.0
  0
LINE
  8
0
 10
7.8858
 20
58.4763
 30
0.0
 11
7.4547
 21
60.6315
 31
0.0
  0
LINE
  8
0
 10
7.4547
 20
60.6315
 30
0.0
 11
7.8858
 21
61.0625
 31
0.0
  0
LINE
  8
0
 10
60.0409
 20
61.0625
 30
0.0
 11
58.7478
 21
61.0625
 31
0.0
  0
LINE
  8
0
 10
58.7478
 20
61.0625
 30
0.0
 11
59.1789
 21
60.2005
 31
0.0
  0
LINE
  8
0
 10
59.1789
 20
60.2005
 30
0.0
 11
59.6099
 21
60.6315
 31
0.0
  0
LINE
  8
0
 10
59.6099
 20
60.6315
 30
0.0
 11
60.0409
 21
61.0625
 31
0.0
  0
LINE
  8
0
 10
59.6099
 20
58.4763
 30
0.0
 11
59.1789
 21
58.9074
 31
0.0
  0
LINE
  8
0
 10
59.1789
 20
58.9074
 30
0.0
 11
58.7478
 21
58.0453
 31
0.0
  0
LINE
  8
0
 10
58.7478
 20
58.0453
 30
0.0
 11
59.6099
 21
57.1832
 31
0.0
  0
LINE
  8
0
 10
59.6099
 20
57.1832
 30
0.0
 11
60.0409
 21
58.0453
 31
0.0
  0
LINE
  8
0
 10
60.0409
 20
58.0453
 30
0.0
 11
59.6099
 21
58.4763
 31
0.0
  0
LINE
  8
0
 10
50.5582
 20
57.1832
 30
0.0
 11
51.4202
 21
57.1832
 31
0.0
  0
LINE
  8
0
 10
51.4202
 20
57.1832
 30
0.0
 11
53.1444
 21
55.028
 31
0.0
  0
LINE
  8
0
 10
53.1444
 20
55.028
 30
0.0
 11
52.2823
 21
53.3039
 31
0.0
  0
LINE
  8
0
 10
52.2823
 20
53.3039
 30
0.0
 11
50.5582
 21
52.8729
 31
0.0
  0
LINE
  8
0
 10
50.5582
 20
52.8729
 30
0.0
 11
49.2651
 21
54.166
 31
0.0
  0
LINE
  8
0
 10
49.2651
 20
54.166
 30
0.0
 11
49.2651
 21
55.8901
 31
0.0
  0
LINE
  8
0
 10
49.2651
 20
55.8901
 30
0.0
 11
50.1271
 21
56.7522
 31
0.0
  0
LINE
  8
0
 10
50.1271
 20
56.7522
 30
0.0
 11
50.5582
 21
57.1832
 31
0.0
  0
LINE
  8
0
 10
51.8513
 20
55.8901
 30
0.0
 11
50.9892
 21
56.3211
 31
0.0
  0
LINE
  8
0
 10
50.9892
 20
56.3211
 30
0.0
 11
50.5582
 21
55.4591
 31
0.0
  0
LINE
  8
0
 10
50.5582
 20
55.4591
 30
0.0
 11
51.4202
 21
54.597
 31
0.0
  0
LINE
  8
0
 10
51.4202
 20
54.597
 30
0.0
 11
52.2823
 21
55.4591
 31
0.0
  0
LINE
  8
0
 10
52.2823
 20
55.4591
 30
0.0
 11
51.8513
 21
55.8901
 31
0.0
  0
LINE
  8
0
 10
87.6271
 20
55.8901
 30
0.0
 11
88.0582
 21
54.597
 31
0.0
  0
LINE
  8
0
 10
88.0582
 20
54.597
 30
0.0
 11
87.1961
 21
53.7349
 31
0.0
  0
LINE
  8
0
 10
87.1961
 20
53.7349
 30
0.0
 11
88.0582
 21
53.3039
 31
0.0
  0
LINE
  8
0
 10
88.0582
 20
53.3039
 30
0.0
 11
86.7651
 21
53.3039
 31
0.0
  0
LINE
  8
0
 10
86.7651
 20
53.3039
 30
0.0
 11
88.0582
 21
54.597
 31
0.0
  0
LINE
  8
0
 10
88.0582
 20
54.597
 30
0.0
 11
87.6271
 21
55.4591
 31
0.0
  0
LINE
  8
0
 10
87.6271
 20
55.4591
 30
0.0
 11
86.7651
 21
55.028
 31
0.0
  0
LINE
  8
0
 10
86.7651
 20
55.028
 30
0.0
 11
87.1961
 21
55.4591
 31
0.0
  0
LINE
  8
0
 10
87.1961
 20
55.4591
 30
0.0
 11
87.6271
 21
55.8901
 31
0.0
  0
LINE
  8
0
 10
89.3513
 20
55.8901
 30
0.0
 11
90.2133
 21
55.028
 31
0.0
  0
LINE
  8
0
 10
90.2133
 20
55.028
 30
0.0
 11
90.6444
 21
55.8901
 31
0.0
  0
LINE
  8
0
 10
90.6444
 20
55.8901
 30
0.0
 11
91.9375
 21
54.597
 31
0.0
  0
LINE
  8
0
 10
91.9375
 20
54.597
 30
0.0
 11
91.9375
 21
53.3039
 31
0.0
  0
LINE
  8
0
 10
91.9375
 20
53.3039
 30
0.0
 11
88.9202
 21
53.3039
 31
0.0
  0
LINE
  8
0
 10
88.9202
 20
53.3039
 30
0.0
 11
88.9202
 21
55.4591
 31
0.0
  0
LINE
  8
0
 10
88.9202
 20
55.4591
 30
0.0
 11
89.3513
 21
55.8901
 31
0.0
  0
LINE
  8
0
 10
50.1271
 20
54.597
 30
0.0
 11
49.6961
 21
55.028
 31
0.0
  0
LINE
  8
0
 10
49.6961
 20
55.028
 30
0.0
 11
49.2651
 21
54.166
 31
0.0
  0
LINE
  8
0
 10
49.2651
 20
54.166
 30
0.0
 11
50.5582
 21
54.166
 31
0.0
  0
LINE
  8
0
 10
50.5582
 20
54.166
 30
0.0
 11
50.1271
 21
54.597
 31
0.0
  0
LINE
  8
0
 10
52.2823
 20
54.597
 30
0.0
 11
51.8513
 21
55.028
 31
0.0
  0
LINE
  8
0
 10
51.8513
 20
55.028
 30
0.0
 11
51.4202
 21
53.7349
 31
0.0
  0
LINE
  8
0
 10
51.4202
 20
53.7349
 30
0.0
 11
51.8513
 21
53.3039
 31
0.0
  0
LINE
  8
0
 10
51.8513
 20
53.3039
 30
0.0
 11
52.2823
 21
54.166
 31
0.0
  0
LINE
  8
0
 10
52.2823
 20
54.166
 30
0.0
 11
52.2823
 21
54.597
 31
0.0
  0
LINE
  8
0
 10
90.2133
 20
54.597
 30
0.0
 11
89.7823
 21
55.4591
 31
0.0
  0
LINE
  8
0
 10
89.7823
 20
55.4591
 30
0.0
 11
88.9202
 21
55.028
 31
0.0
  0
LINE
  8
0
 10
88.9202
 20
55.028
 30
0.0
 11
89.3513
 21
53.3039
 31
0.0
  0
LINE
  8
0
 10
89.3513
 20
53.3039
 30
0.0
 11
90.2133
 21
54.166
 31
0.0
  0
LINE
  8
0
 10
90.2133
 20
54.166
 30
0.0
 11
90.2133
 21
54.597
 31
0.0
  0
LINE
  8
0
 10
19.9547
 20
53.7349
 30
0.0
 11
19.5237
 21
54.166
 31
0.0
  0
LINE
  8
0
 10
19.5237
 20
54.166
 30
0.0
 11
18.6616
 21
53.3039
 31
0.0
  0
LINE
  8
0
 10
18.6616
 20
53.3039
 30
0.0
 11
30.7306
 21
45.9763
 31
0.0
  0
LINE
  8
0
 10
30.7306
 20
45.9763
 30
0.0
 11
32.4547
 21
45.9763
 31
0.0
  0
LINE
  8
0
 10
32.4547
 20
45.9763
 30
0.0
 11
30.7306
 21
47.7005
 31
0.0
  0
LINE
  8
0
 10
30.7306
 20
47.7005
 30
0.0
 11
20.3858
 21
53.7349
 31
0.0
  0
LINE
  8
0
 10
20.3858
 20
53.7349
 30
0.0
 11
19.9547
 21
53.7349
 31
0.0
  0
LINE
  8
0
 10
18.6616
 20
52.8729
 30
0.0
 11
18.2306
 21
53.3039
 31
0.0
  0
LINE
  8
0
 10
18.2306
 20
53.3039
 30
0.0
 11
16.5064
 21
52.4418
 31
0.0
  0
LINE
  8
0
 10
16.5064
 20
52.4418
 30
0.0
 11
-6.3384
 21
39.0798
 31
0.0
  0
LINE
  8
0
 10
-6.3384
 20
39.0798
 30
0.0
 11
7.0237
 21
31.3211
 31
0.0
  0
LINE
  8
0
 10
7.0237
 20
31.3211
 30
0.0
 11
31.5926
 21
45.5453
 31
0.0
  0
LINE
  8
0
 10
31.5926
 20
45.5453
 30
0.0
 11
19.0926
 21
52.8729
 31
0.0
  0
LINE
  8
0
 10
19.0926
 20
52.8729
 30
0.0
 11
18.6616
 21
52.8729
 31
0.0
  0
LINE
  8
0
 10
50.5582
 20
50.7177
 30
0.0
 11
51.4202
 21
50.7177
 31
0.0
  0
LINE
  8
0
 10
51.4202
 20
50.7177
 30
0.0
 11
53.1444
 21
48.5625
 31
0.0
  0
LINE
  8
0
 10
53.1444
 20
48.5625
 30
0.0
 11
52.2823
 21
46.8384
 31
0.0
  0
LINE
  8
0
 10
52.2823
 20
46.8384
 30
0.0
 11
50.1271
 21
46.8384
 31
0.0
  0
LINE
  8
0
 10
50.1271
 20
46.8384
 30
0.0
 11
49.2651
 21
47.7005
 31
0.0
  0
LINE
  8
0
 10
49.2651
 20
47.7005
 30
0.0
 11
49.2651
 21
49.4246
 31
0.0
  0
LINE
  8
0
 10
49.2651
 20
49.4246
 30
0.0
 11
50.1271
 21
50.2867
 31
0.0
  0
LINE
  8
0
 10
50.1271
 20
50.2867
 30
0.0
 11
50.5582
 21
50.7177
 31
0.0
  0
LINE
  8
0
 10
51.8513
 20
49.4246
 30
0.0
 11
50.9892
 21
49.8556
 31
0.0
  0
LINE
  8
0
 10
50.9892
 20
49.8556
 30
0.0
 11
50.5582
 21
48.9936
 31
0.0
  0
LINE
  8
0
 10
50.5582
 20
48.9936
 30
0.0
 11
52.2823
 21
48.9936
 31
0.0
  0
LINE
  8
0
 10
52.2823
 20
48.9936
 30
0.0
 11
51.8513
 21
49.4246
 31
0.0
  0
LINE
  8
0
 10
52.2823
 20
48.1315
 30
0.0
 11
51.4202
 21
48.1315
 31
0.0
  0
LINE
  8
0
 10
51.4202
 20
48.1315
 30
0.0
 11
51.8513
 21
47.2694
 31
0.0
  0
LINE
  8
0
 10
51.8513
 20
47.2694
 30
0.0
 11
52.2823
 21
47.7005
 31
0.0
  0
LINE
  8
0
 10
52.2823
 20
47.7005
 30
0.0
 11
52.2823
 21
48.1315
 31
0.0
  0
LINE
  8
0
 10
59.6099
 20
45.9763
 30
0.0
 11
59.1789
 21
46.4074
 31
0.0
  0
LINE
  8
0
 10
59.1789
 20
46.4074
 30
0.0
 11
58.7478
 21
45.5453
 31
0.0
  0
LINE
  8
0
 10
58.7478
 20
45.5453
 30
0.0
 11
59.6099
 21
44.6832
 31
0.0
  0
LINE
  8
0
 10
59.6099
 20
44.6832
 30
0.0
 11
60.0409
 21
45.5453
 31
0.0
  0
LINE
  8
0
 10
60.0409
 20
45.5453
 30
0.0
 11
59.6099
 21
45.9763
 31
0.0
  0
LINE
  8
0
 10
50.1271
 20
44.2522
 30
0.0
 11
51.8513
 21
44.2522
 31
0.0
  0
LINE
  8
0
 10
51.8513
 20
44.2522
 30
0.0
 11
52.7133
 21
43.3901
 31
0.0
  0
LINE
  8
0
 10
52.7133
 20
43.3901
 30
0.0
 11
53.1444
 21
41.2349
 31
0.0
  0
LINE
  8
0
 10
53.1444
 20
41.2349
 30
0.0
 11
50.5582
 21
40.3729
 31
0.0
  0
LINE
  8
0
 10
50.5582
 20
40.3729
 30
0.0
 11
49.2651
 21
41.666
 31
0.0
  0
LINE
  8
0
 10
49.2651
 20
41.666
 30
0.0
 11
49.2651
 21
43.3901
 31
0.0
  0
LINE
  8
0
 10
49.2651
 20
43.3901
 30
0.0
 11
50.1271
 21
43.8211
 31
0.0
  0
LINE
  8
0
 10
50.1271
 20
43.8211
 30
0.0
 11
50.1271
 21
44.2522
 31
0.0
  0
LINE
  8
0
 10
30.2995
 20
43.8211
 30
0.0
 11
29.0064
 21
43.8211
 31
0.0
  0
LINE
  8
0
 10
29.0064
 20
43.8211
 30
0.0
 11
29.8685
 21
43.3901
 31
0.0
  0
LINE
  8
0
 10
29.8685
 20
43.3901
 30
0.0
 11
30.2995
 21
43.8211
 31
0.0
  0
LINE
  8
0
 10
31.5926
 20
43.8211
 30
0.0
 11
31.1616
 21
44.2522
 31
0.0
  0
LINE
  8
0
 10
31.1616
 20
44.2522
 30
0.0
 11
29.8685
 21
43.3901
 31
0.0
  0
LINE
  8
0
 10
29.8685
 20
43.3901
 30
0.0
 11
30.2995
 21
40.8039
 31
0.0
  0
LINE
  8
0
 10
30.2995
 20
40.8039
 30
0.0
 11
26.4202
 21
38.6487
 31
0.0
  0
LINE
  8
0
 10
26.4202
 20
38.6487
 30
0.0
 11
25.5582
 21
37.3556
 31
0.0
  0
LINE
  8
0
 10
25.5582
 20
37.3556
 30
0.0
 11
25.9892
 21
36.4936
 31
0.0
  0
LINE
  8
0
 10
25.9892
 20
36.4936
 30
0.0
 11
27.2823
 21
37.3556
 31
0.0
  0
LINE
  8
0
 10
27.2823
 20
37.3556
 30
0.0
 11
29.0064
 21
37.3556
 31
0.0
  0
LINE
  8
0
 10
29.0064
 20
37.3556
 30
0.0
 11
30.2995
 21
35.6315
 31
0.0
  0
LINE
  8
0
 10
30.2995
 20
35.6315
 30
0.0
 11
29.8685
 21
33.9074
 31
0.0
  0
LINE
  8
0
 10
29.8685
 20
33.9074
 30
0.0
 11
26.4202
 21
32.1832
 31
0.0
  0
LINE
  8
0
 10
26.4202
 20
32.1832
 30
0.0
 11
25.5582
 21
30.8901
 31
0.0
  0
LINE
  8
0
 10
25.5582
 20
30.8901
 30
0.0
 11
25.9892
 21
30.028
 31
0.0
  0
LINE
  8
0
 10
25.9892
 20
30.028
 30
0.0
 11
28.5754
 21
31.3211
 31
0.0
  0
LINE
  8
0
 10
28.5754
 20
31.3211
 30
0.0
 11
29.8685
 21
30.028
 31
0.0
  0
LINE
  8
0
 10
29.8685
 20
30.028
 30
0.0
 11
30.2995
 21
28.3039
 31
0.0
  0
LINE
  8
0
 10
30.2995
 20
28.3039
 30
0.0
 11
26.8513
 21
26.1487
 31
0.0
  0
LINE
  8
0
 10
26.8513
 20
26.1487
 30
0.0
 11
25.5582
 21
23.9936
 31
0.0
  0
LINE
  8
0
 10
25.5582
 20
23.9936
 30
0.0
 11
25.9892
 21
23.5625
 31
0.0
  0
LINE
  8
0
 10
25.9892
 20
23.5625
 30
0.0
 11
27.7133
 21
24.8556
 31
0.0
  0
LINE
  8
0
 10
27.7133
 20
24.8556
 30
0.0
 11
29.0064
 21
24.8556
 31
0.0
  0
LINE
  8
0
 10
29.0064
 20
24.8556
 30
0.0
 11
29.8685
 21
23.9936
 31
0.0
  0
LINE
  8
0
 10
29.8685
 20
23.9936
 30
0.0
 11
30.2995
 21
21.8384
 31
0.0
  0
LINE
  8
0
 10
30.2995
 20
21.8384
 30
0.0
 11
26.4202
 21
19.6832
 31
0.0
  0
LINE
  8
0
 10
26.4202
 20
19.6832
 30
0.0
 11
25.5582
 21
17.9591
 31
0.0
  0
LINE
  8
0
 10
25.5582
 20
17.9591
 30
0.0
 11
25.9892
 21
17.528
 31
0.0
  0
LINE
  8
0
 10
25.9892
 20
17.528
 30
0.0
 11
27.7133
 21
18.8211
 31
0.0
  0
LINE
  8
0
 10
27.7133
 20
18.8211
 30
0.0
 11
29.0064
 21
18.3901
 31
0.0
  0
LINE
  8
0
 10
29.0064
 20
18.3901
 30
0.0
 11
30.2995
 21
16.666
 31
0.0
  0
LINE
  8
0
 10
30.2995
 20
16.666
 30
0.0
 11
29.4375
 21
14.5108
 31
0.0
  0
LINE
  8
0
 10
29.4375
 20
14.5108
 30
0.0
 11
31.1616
 21
12.7867
 31
0.0
  0
LINE
  8
0
 10
31.1616
 20
12.7867
 30
0.0
 11
31.5926
 21
25.2867
 31
0.0
  0
LINE
  8
0
 10
31.5926
 20
25.2867
 30
0.0
 11
30.7306
 21
25.7177
 31
0.0
  0
LINE
  8
0
 10
30.7306
 20
25.7177
 30
0.0
 11
31.5926
 21
26.1487
 31
0.0
  0
LINE
  8
0
 10
31.5926
 20
26.1487
 30
0.0
 11
31.5926
 21
43.3901
 31
0.0
  0
LINE
  8
0
 10
31.5926
 20
43.3901
 30
0.0
 11
31.5926
 21
43.8211
 31
0.0
  0
LINE
  8
0
 10
51.8513
 20
43.3901
 30
0.0
 11
50.5582
 21
43.3901
 31
0.0
  0
LINE
  8
0
 10
50.5582
 20
43.3901
 30
0.0
 11
51.4202
 21
42.097
 31
0.0
  0
LINE
  8
0
 10
51.4202
 20
42.097
 30
0.0
 11
52.2823
 21
42.528
 31
0.0
  0
LINE
  8
0
 10
52.2823
 20
42.528
 30
0.0
 11
51.8513
 21
42.9591
 31
0.0
  0
LINE
  8
0
 10
51.8513
 20
42.9591
 30
0.0
 11
51.8513
 21
43.3901
 31
0.0
  0
LINE
  8
0
 10
28.5754
 20
42.9591
 30
0.0
 11
27.7133
 21
43.3901
 31
0.0
  0
LINE
  8
0
 10
27.7133
 20
43.3901
 30
0.0
 11
25.9892
 21
42.097
 31
0.0
  0
LINE
  8
0
 10
25.9892
 20
42.097
 30
0.0
 11
26.8513
 21
41.666
 31
0.0
  0
LINE
  8
0
 10
26.8513
 20
41.666
 30
0.0
 11
28.1444
 21
42.528
 31
0.0
  0
LINE
  8
0
 10
28.1444
 20
42.528
 30
0.0
 11
28.5754
 21
42.9591
 31
0.0
  0
LINE
  8
0
 10
75.9892
 20
42.9591
 30
0.0
 11
75.1271
 21
43.8211
 31
0.0
  0
LINE
  8
0
 10
75.1271
 20
43.8211
 30
0.0
 11
60.903
 21
35.6315
 31
0.0
  0
LINE
  8
0
 10
60.903
 20
35.6315
 30
0.0
 11
60.903
 21
33.4763
 31
0.0
  0
LINE
  8
0
 10
60.903
 20
33.4763
 30
0.0
 11
58.7478
 21
31.3211
 31
0.0
  0
LINE
  8
0
 10
58.7478
 20
31.3211
 30
0.0
 11
58.7478
 21
27.8729
 31
0.0
  0
LINE
  8
0
 10
58.7478
 20
27.8729
 30
0.0
 11
60.472
 21
27.8729
 31
0.0
  0
LINE
  8
0
 10
60.472
 20
27.8729
 30
0.0
 11
81.1616
 21
39.9418
 31
0.0
  0
LINE
  8
0
 10
81.1616
 20
39.9418
 30
0.0
 11
76.4202
 21
42.9591
 31
0.0
  0
LINE
  8
0
 10
76.4202
 20
42.9591
 30
0.0
 11
75.9892
 21
42.9591
 31
0.0
  0
LINE
  8
0
 10
29.0064
 20
42.097
 30
0.0
 11
28.1444
 21
42.097
 31
0.0
  0
LINE
  8
0
 10
28.1444
 20
42.097
 30
0.0
 11
28.5754
 21
41.2349
 31
0.0
  0
LINE
  8
0
 10
28.5754
 20
41.2349
 30
0.0
 11
29.0064
 21
41.666
 31
0.0
  0
LINE
  8
0
 10
29.0064
 20
41.666
 30
0.0
 11
29.0064
 21
42.097
 31
0.0
  0
LINE
  8
0
 10
50.1271
 20
42.097
 30
0.0
 11
49.6961
 21
42.528
 31
0.0
  0
LINE
  8
0
 10
49.6961
 20
42.528
 30
0.0
 11
49.2651
 21
41.666
 31
0.0
  0
LINE
  8
0
 10
49.2651
 20
41.666
 30
0.0
 11
50.1271
 21
40.8039
 31
0.0
  0
LINE
  8
0
 10
50.1271
 20
40.8039
 30
0.0
 11
50.5582
 21
41.666
 31
0.0
  0
LINE
  8
0
 10
50.5582
 20
41.666
 30
0.0
 11
50.1271
 21
42.097
 31
0.0
  0
LINE
  8
0
 10
52.2823
 20
41.666
 30
0.0
 11
51.4202
 21
41.666
 31
0.0
  0
LINE
  8
0
 10
51.4202
 20
41.666
 30
0.0
 11
51.8513
 21
40.8039
 31
0.0
  0
LINE
  8
0
 10
51.8513
 20
40.8039
 30
0.0
 11
52.2823
 21
41.2349
 31
0.0
  0
LINE
  8
0
 10
52.2823
 20
41.2349
 30
0.0
 11
52.2823
 21
41.666
 31
0.0
  0
LINE
  8
0
 10
25.5582
 20
41.2349
 30
0.0
 11
24.6961
 21
41.666
 31
0.0
  0
LINE
  8
0
 10
24.6961
 20
41.666
 30
0.0
 11
23.834
 21
40.8039
 31
0.0
  0
LINE
  8
0
 10
23.834
 20
40.8039
 30
0.0
 11
25.1271
 21
40.8039
 31
0.0
  0
LINE
  8
0
 10
25.1271
 20
40.8039
 30
0.0
 11
25.5582
 21
41.2349
 31
0.0
  0
LINE
  8
0
 10
26.8513
 20
41.2349
 30
0.0
 11
25.9892
 21
41.2349
 31
0.0
  0
LINE
  8
0
 10
25.9892
 20
41.2349
 30
0.0
 11
26.8513
 21
38.6487
 31
0.0
  0
LINE
  8
0
 10
26.8513
 20
38.6487
 30
0.0
 11
27.2823
 21
40.8039
 31
0.0
  0
LINE
  8
0
 10
27.2823
 20
40.8039
 30
0.0
 11
26.8513
 21
41.2349
 31
0.0
  0
LINE
  8
0
 10
28.1444
 20
41.2349
 30
0.0
 11
27.2823
 21
41.2349
 31
0.0
  0
LINE
  8
0
 10
27.2823
 20
41.2349
 30
0.0
 11
27.7133
 21
39.0798
 31
0.0
  0
LINE
  8
0
 10
27.7133
 20
39.0798
 30
0.0
 11
28.1444
 21
40.8039
 31
0.0
  0
LINE
  8
0
 10
28.1444
 20
40.8039
 30
0.0
 11
28.1444
 21
41.2349
 31
0.0
  0
LINE
  8
0
 10
23.403
 20
39.9418
 30
0.0
 11
22.1099
 21
39.9418
 31
0.0
  0
LINE
  8
0
 10
22.1099
 20
39.9418
 30
0.0
 11
22.972
 21
39.5108
 31
0.0
  0
LINE
  8
0
 10
22.972
 20
39.5108
 30
0.0
 11
23.403
 21
39.9418
 31
0.0
  0
LINE
  8
0
 10
25.1271
 20
39.9418
 30
0.0
 11
23.834
 21
39.9418
 31
0.0
  0
LINE
  8
0
 10
23.834
 20
39.9418
 30
0.0
 11
24.2651
 21
39.0798
 31
0.0
  0
LINE
  8
0
 10
24.2651
 20
39.0798
 30
0.0
 11
25.1271
 21
39.5108
 31
0.0
  0
LINE
  8
0
 10
25.1271
 20
39.5108
 30
0.0
 11
25.1271
 21
39.9418
 31
0.0
  0
LINE
  8
0
 10
59.6099
 20
39.5108
 30
0.0
 11
59.1789
 21
39.9418
 31
0.0
  0
LINE
  8
0
 10
59.1789
 20
39.9418
 30
0.0
 11
58.7478
 21
39.0798
 31
0.0
  0
LINE
  8
0
 10
58.7478
 20
39.0798
 30
0.0
 11
59.6099
 21
38.2177
 31
0.0
  0
LINE
  8
0
 10
59.6099
 20
38.2177
 30
0.0
 11
60.0409
 21
39.0798
 31
0.0
  0
LINE
  8
0
 10
60.0409
 20
39.0798
 30
0.0
 11
59.6099
 21
39.5108
 31
0.0
  0
LINE
  8
0
 10
22.1099
 20
39.0798
 30
0.0
 11
22.5409
 21
39.5108
 31
0.0
  0
LINE
  8
0
 10
22.5409
 20
39.5108
 30
0.0
 11
21.6789
 21
39.9418
 31
0.0
  0
LINE
  8
0
 10
21.6789
 20
39.9418
 30
0.0
 11
20.8168
 21
39.0798
 31
0.0
  0
LINE
  8
0
 10
20.8168
 20
39.0798
 30
0.0
 11
21.6789
 21
38.6487
 31
0.0
  0
LINE
  8
0
 10
21.6789
 20
38.6487
 30
0.0
 11
22.1099
 21
39.0798
 31
0.0
  0
LINE
  8
0
 10
25.9892
 20
39.0798
 30
0.0
 11
25.5582
 21
39.5108
 31
0.0
  0
LINE
  8
0
 10
25.5582
 20
39.5108
 30
0.0
 11
25.1271
 21
38.2177
 31
0.0
  0
LINE
  8
0
 10
25.1271
 20
38.2177
 30
0.0
 11
25.5582
 21
37.7867
 31
0.0
  0
LINE
  8
0
 10
25.5582
 20
37.7867
 30
0.0
 11
25.9892
 21
38.6487
 31
0.0
  0
LINE
  8
0
 10
25.9892
 20
38.6487
 30
0.0
 11
25.9892
 21
39.0798
 31
0.0
  0
LINE
  8
0
 10
24.2651
 20
38.6487
 30
0.0
 11
23.834
 21
39.5108
 31
0.0
  0
LINE
  8
0
 10
23.834
 20
39.5108
 30
0.0
 11
22.1099
 21
38.6487
 31
0.0
  0
LINE
  8
0
 10
22.1099
 20
38.6487
 30
0.0
 11
23.403
 21
37.3556
 31
0.0
  0
LINE
  8
0
 10
23.403
 20
37.3556
 30
0.0
 11
24.2651
 21
38.2177
 31
0.0
  0
LINE
  8
0
 10
24.2651
 20
38.2177
 30
0.0
 11
24.2651
 21
38.6487
 31
0.0
  0
LINE
  8
0
 10
80.2995
 20
38.6487
 30
0.0
 11
79.4375
 21
39.0798
 31
0.0
  0
LINE
  8
0
 10
79.4375
 20
39.0798
 30
0.0
 11
78.5754
 21
38.2177
 31
0.0
  0
LINE
  8
0
 10
78.5754
 20
38.2177
 30
0.0
 11
79.8685
 21
38.2177
 31
0.0
  0
LINE
  8
0
 10
79.8685
 20
38.2177
 30
0.0
 11
80.2995
 21
38.6487
 31
0.0
  0
LINE
  8
0
 10
20.3858
 20
38.2177
 30
0.0
 11
19.5237
 21
38.6487
 31
0.0
  0
LINE
  8
0
 10
19.5237
 20
38.6487
 30
0.0
 11
18.6616
 21
37.7867
 31
0.0
  0
LINE
  8
0
 10
18.6616
 20
37.7867
 30
0.0
 11
19.9547
 21
37.7867
 31
0.0
  0
LINE
  8
0
 10
19.9547
 20
37.7867
 30
0.0
 11
20.3858
 21
38.2177
 31
0.0
  0
LINE
  8
0
 10
50.5582
 20
38.2177
 30
0.0
 11
51.4202
 21
38.2177
 31
0.0
  0
LINE
  8
0
 10
51.4202
 20
38.2177
 30
0.0
 11
53.1444
 21
36.0625
 31
0.0
  0
LINE
  8
0
 10
53.1444
 20
36.0625
 30
0.0
 11
52.2823
 21
34.3384
 31
0.0
  0
LINE
  8
0
 10
52.2823
 20
34.3384
 30
0.0
 11
50.1271
 21
34.3384
 31
0.0
  0
LINE
  8
0
 10
50.1271
 20
34.3384
 30
0.0
 11
49.2651
 21
35.2005
 31
0.0
  0
LINE
  8
0
 10
49.2651
 20
35.2005
 30
0.0
 11
49.2651
 21
36.9246
 31
0.0
  0
LINE
  8
0
 10
49.2651
 20
36.9246
 30
0.0
 11
50.1271
 21
37.7867
 31
0.0
  0
LINE
  8
0
 10
50.1271
 20
37.7867
 30
0.0
 11
50.5582
 21
38.2177
 31
0.0
  0
LINE
  8
0
 10
22.5409
 20
37.7867
 30
0.0
 11
22.1099
 21
38.6487
 31
0.0
  0
LINE
  8
0
 10
22.1099
 20
38.6487
 30
0.0
 11
21.2478
 21
38.6487
 31
0.0
  0
LINE
  8
0
 10
21.2478
 20
38.6487
 30
0.0
 11
7.0237
 21
30.028
 31
0.0
  0
LINE
  8
0
 10
7.0237
 20
30.028
 30
0.0
 11
1.4202
 21
33.4763
 31
0.0
  0
LINE
  8
0
 10
1.4202
 20
33.4763
 30
0.0
 11
0.5582
 21
33.0453
 31
0.0
  0
LINE
  8
0
 10
0.5582
 20
33.0453
 30
0.0
 11
0.5582
 21
20.1143
 31
0.0
  0
LINE
  8
0
 10
0.5582
 20
20.1143
 30
0.0
 11
2.7133
 21
19.2522
 31
0.0
  0
LINE
  8
0
 10
2.7133
 20
19.2522
 30
0.0
 11
0.5582
 21
19.2522
 31
0.0
  0
LINE
  8
0
 10
0.5582
 20
19.2522
 30
0.0
 11
0.9892
 21
1.1487
 31
0.0
  0
LINE
  8
0
 10
0.9892
 20
1.1487
 30
0.0
 11
18.6616
 21
11.0625
 31
0.0
  0
LINE
  8
0
 10
18.6616
 20
11.0625
 30
0.0
 11
22.1099
 21
13.6487
 31
0.0
  0
LINE
  8
0
 10
22.1099
 20
13.6487
 30
0.0
 11
22.972
 21
16.2349
 31
0.0
  0
LINE
  8
0
 10
22.972
 20
16.2349
 30
0.0
 11
22.5409
 21
16.666
 31
0.0
  0
LINE
  8
0
 10
22.5409
 20
16.666
 30
0.0
 11
18.2306
 21
16.2349
 31
0.0
  0
LINE
  8
0
 10
18.2306
 20
16.2349
 30
0.0
 11
16.5064
 21
17.528
 31
0.0
  0
LINE
  8
0
 10
16.5064
 20
17.528
 30
0.0
 11
18.6616
 21
16.2349
 31
0.0
  0
LINE
  8
0
 10
18.6616
 20
16.2349
 30
0.0
 11
22.972
 21
16.2349
 31
0.0
  0
LINE
  8
0
 10
22.972
 20
16.2349
 30
0.0
 11
25.5582
 21
17.528
 31
0.0
  0
LINE
  8
0
 10
25.5582
 20
17.528
 30
0.0
 11
25.1271
 21
18.3901
 31
0.0
  0
LINE
  8
0
 10
25.1271
 20
18.3901
 30
0.0
 11
22.972
 21
18.3901
 31
0.0
  0
LINE
  8
0
 10
22.972
 20
18.3901
 30
0.0
 11
22.1099
 21
19.6832
 31
0.0
  0
LINE
  8
0
 10
22.1099
 20
19.6832
 30
0.0
 11
22.5409
 21
22.2694
 31
0.0
  0
LINE
  8
0
 10
22.5409
 20
22.2694
 30
0.0
 11
25.5582
 21
23.5625
 31
0.0
  0
LINE
  8
0
 10
25.5582
 20
23.5625
 30
0.0
 11
25.1271
 21
24.4246
 31
0.0
  0
LINE
  8
0
 10
25.1271
 20
24.4246
 30
0.0
 11
22.972
 21
24.8556
 31
0.0
  0
LINE
  8
0
 10
22.972
 20
24.8556
 30
0.0
 11
22.1099
 21
26.1487
 31
0.0
  0
LINE
  8
0
 10
22.1099
 20
26.1487
 30
0.0
 11
22.5409
 21
28.7349
 31
0.0
  0
LINE
  8
0
 10
22.5409
 20
28.7349
 30
0.0
 11
24.6961
 21
29.166
 31
0.0
  0
LINE
  8
0
 10
24.6961
 20
29.166
 30
0.0
 11
25.5582
 21
30.028
 31
0.0
  0
LINE
  8
0
 10
25.5582
 20
30.028
 30
0.0
 11
25.1271
 21
30.8901
 31
0.0
  0
LINE
  8
0
 10
25.1271
 20
30.8901
 30
0.0
 11
23.403
 21
30.8901
 31
0.0
  0
LINE
  8
0
 10
23.403
 20
30.8901
 30
0.0
 11
22.1099
 21
32.1832
 31
0.0
  0
LINE
  8
0
 10
22.1099
 20
32.1832
 30
0.0
 11
22.5409
 21
34.7694
 31
0.0
  0
LINE
  8
0
 10
22.5409
 20
34.7694
 30
0.0
 11
25.5582
 21
36.4936
 31
0.0
  0
LINE
  8
0
 10
25.5582
 20
36.4936
 30
0.0
 11
25.1271
 21
37.3556
 31
0.0
  0
LINE
  8
0
 10
25.1271
 20
37.3556
 30
0.0
 11
22.972
 21
37.3556
 31
0.0
  0
LINE
  8
0
 10
22.972
 20
37.3556
 30
0.0
 11
22.5409
 21
37.7867
 31
0.0
  0
LINE
  8
0
 10
-3.3211
 20
36.9246
 30
0.0
 11
-5.0453
 21
38.2177
 31
0.0
  0
LINE
  8
0
 10
-5.0453
 20
38.2177
 30
0.0
 11
-5.9074
 21
37.7867
 31
0.0
  0
LINE
  8
0
 10
-5.9074
 20
37.7867
 30
0.0
 11
-3.7522
 21
36.4936
 31
0.0
  0
LINE
  8
0
 10
-3.7522
 20
36.4936
 30
0.0
 11
-3.3211
 21
36.9246
 31
0.0
  0
LINE
  8
0
 10
18.2306
 20
36.9246
 30
0.0
 11
17.3685
 21
37.3556
 31
0.0
  0
LINE
  8
0
 10
17.3685
 20
37.3556
 30
0.0
 11
15.6444
 21
36.0625
 31
0.0
  0
LINE
  8
0
 10
15.6444
 20
36.0625
 30
0.0
 11
16.5064
 21
35.6315
 31
0.0
  0
LINE
  8
0
 10
16.5064
 20
35.6315
 30
0.0
 11
17.7995
 21
36.4936
 31
0.0
  0
LINE
  8
0
 10
17.7995
 20
36.4936
 30
0.0
 11
18.2306
 21
36.9246
 31
0.0
  0
LINE
  8
0
 10
51.8513
 20
36.9246
 30
0.0
 11
50.9892
 21
37.3556
 31
0.0
  0
LINE
  8
0
 10
50.9892
 20
37.3556
 30
0.0
 11
50.5582
 21
36.4936
 31
0.0
  0
LINE
  8
0
 10
50.5582
 20
36.4936
 30
0.0
 11
51.4202
 21
35.6315
 31
0.0
  0
LINE
  8
0
 10
51.4202
 20
35.6315
 30
0.0
 11
52.2823
 21
36.4936
 31
0.0
  0
LINE
  8
0
 10
52.2823
 20
36.4936
 30
0.0
 11
51.8513
 21
36.9246
 31
0.0
  0
LINE
  8
0
 10
77.2823
 20
36.9246
 30
0.0
 11
76.4202
 21
37.3556
 31
0.0
  0
LINE
  8
0
 10
76.4202
 20
37.3556
 30
0.0
 11
75.5582
 21
36.4936
 31
0.0
  0
LINE
  8
0
 10
75.5582
 20
36.4936
 30
0.0
 11
76.8513
 21
36.4936
 31
0.0
  0
LINE
  8
0
 10
76.8513
 20
36.4936
 30
0.0
 11
77.2823
 21
36.9246
 31
0.0
  0
LINE
  8
0
 10
-2.4591
 20
36.4936
 30
0.0
 11
-3.7522
 21
36.4936
 31
0.0
  0
LINE
  8
0
 10
-3.7522
 20
36.4936
 30
0.0
 11
-2.8901
 21
36.0625
 31
0.0
  0
LINE
  8
0
 10
-2.8901
 20
36.0625
 30
0.0
 11
-2.4591
 21
36.4936
 31
0.0
  0
LINE
  8
0
 10
28.1444
 20
36.4936
 30
0.0
 11
26.4202
 21
36.4936
 31
0.0
  0
LINE
  8
0
 10
26.4202
 20
36.4936
 30
0.0
 11
27.7133
 21
36.0625
 31
0.0
  0
LINE
  8
0
 10
27.7133
 20
36.0625
 30
0.0
 11
28.1444
 21
36.4936
 31
0.0
  0
LINE
  8
0
 10
27.7133
 20
35.6315
 30
0.0
 11
26.4202
 21
35.6315
 31
0.0
  0
LINE
  8
0
 10
26.4202
 20
35.6315
 30
0.0
 11
27.2823
 21
34.7694
 31
0.0
  0
LINE
  8
0
 10
27.2823
 20
34.7694
 30
0.0
 11
27.7133
 21
35.2005
 31
0.0
  0
LINE
  8
0
 10
27.7133
 20
35.2005
 30
0.0
 11
27.7133
 21
35.6315
 31
0.0
  0
LINE
  8
0
 10
29.0064
 20
35.6315
 30
0.0
 11
28.1444
 21
35.6315
 31
0.0
  0
LINE
  8
0
 10
28.1444
 20
35.6315
 30
0.0
 11
28.5754
 21
34.7694
 31
0.0
  0
LINE
  8
0
 10
28.5754
 20
34.7694
 30
0.0
 11
29.0064
 21
35.2005
 31
0.0
  0
LINE
  8
0
 10
29.0064
 20
35.2005
 30
0.0
 11
29.0064
 21
35.6315
 31
0.0
  0
LINE
  8
0
 10
50.1271
 20
35.6315
 30
0.0
 11
49.6961
 21
36.0625
 31
0.0
  0
LINE
  8
0
 10
49.6961
 20
36.0625
 30
0.0
 11
49.2651
 21
35.2005
 31
0.0
  0
LINE
  8
0
 10
49.2651
 20
35.2005
 30
0.0
 11
50.5582
 21
35.2005
 31
0.0
  0
LINE
  8
0
 10
50.5582
 20
35.2005
 30
0.0
 11
50.1271
 21
35.6315
 31
0.0
  0
LINE
  8
0
 10
52.2823
 20
35.6315
 30
0.0
 11
51.8513
 21
36.0625
 31
0.0
  0
LINE
  8
0
 10
51.8513
 20
36.0625
 30
0.0
 11
51.4202
 21
34.7694
 31
0.0
  0
LINE
  8
0
 10
51.4202
 20
34.7694
 30
0.0
 11
51.8513
 21
34.3384
 31
0.0
  0
LINE
  8
0
 10
51.8513
 20
34.3384
 30
0.0
 11
52.2823
 21
35.2005
 31
0.0
  0
LINE
  8
0
 10
52.2823
 20
35.2005
 30
0.0
 11
52.2823
 21
35.6315
 31
0.0
  0
LINE
  8
0
 10
75.1271
 20
35.6315
 30
0.0
 11
74.2651
 21
36.0625
 31
0.0
  0
LINE
  8
0
 10
74.2651
 20
36.0625
 30
0.0
 11
72.5409
 21
34.7694
 31
0.0
  0
LINE
  8
0
 10
72.5409
 20
34.7694
 30
0.0
 11
73.403
 21
34.3384
 31
0.0
  0
LINE
  8
0
 10
73.403
 20
34.3384
 30
0.0
 11
74.6961
 21
35.2005
 31
0.0
  0
LINE
  8
0
 10
74.6961
 20
35.2005
 30
0.0
 11
75.1271
 21
35.6315
 31
0.0
  0
LINE
  8
0
 10
-0.3039
 20
35.2005
 30
0.0
 11
-2.028
 21
36.4936
 31
0.0
  0
LINE
  8
0
 10
-2.028
 20
36.4936
 30
0.0
 11
-2.8901
 21
36.0625
 31
0.0
  0
LINE
  8
0
 10
-2.8901
 20
36.0625
 30
0.0
 11
-0.7349
 21
34.7694
 31
0.0
  0
LINE
  8
0
 10
-0.7349
 20
34.7694
 30
0.0
 11
-0.3039
 21
35.2005
 31
0.0
  0
LINE
  8
0
 10
15.2133
 20
35.2005
 30
0.0
 11
14.3513
 21
35.6315
 31
0.0
  0
LINE
  8
0
 10
14.3513
 20
35.6315
 30
0.0
 11
13.4892
 21
34.7694
 31
0.0
  0
LINE
  8
0
 10
13.4892
 20
34.7694
 30
0.0
 11
14.7823
 21
34.7694
 31
0.0
  0
LINE
  8
0
 10
14.7823
 20
34.7694
 30
0.0
 11
15.2133
 21
35.2005
 31
0.0
  0
LINE
  8
0
 10
0.5582
 20
34.7694
 30
0.0
 11
-0.7349
 21
34.7694
 31
0.0
  0
LINE
  8
0
 10
-0.7349
 20
34.7694
 30
0.0
 11
0.1271
 21
19.6832
 31
0.0
  0
LINE
  8
0
 10
0.1271
 20
19.6832
 30
0.0
 11
0.5582
 21
33.4763
 31
0.0
  0
LINE
  8
0
 10
0.5582
 20
33.4763
 30
0.0
 11
2.7133
 21
33.4763
 31
0.0
  0
LINE
  8
0
 10
2.7133
 20
33.4763
 30
0.0
 11
0.9892
 21
34.7694
 31
0.0
  0
LINE
  8
0
 10
0.9892
 20
34.7694
 30
0.0
 11
0.5582
 21
34.7694
 31
0.0
  0
LINE
  8
0
 10
24.6961
 20
34.7694
 30
0.0
 11
22.5409
 21
34.7694
 31
0.0
  0
LINE
  8
0
 10
22.5409
 20
34.7694
 30
0.0
 11
24.2651
 21
34.3384
 31
0.0
  0
LINE
  8
0
 10
24.2651
 20
34.3384
 30
0.0
 11
24.6961
 21
34.7694
 31
0.0
  0
LINE
  8
0
 10
28.1444
 20
34.7694
 30
0.0
 11
27.2823
 21
34.7694
 31
0.0
  0
LINE
  8
0
 10
27.2823
 20
34.7694
 30
0.0
 11
27.7133
 21
33.9074
 31
0.0
  0
LINE
  8
0
 10
27.7133
 20
33.9074
 30
0.0
 11
28.1444
 21
34.3384
 31
0.0
  0
LINE
  8
0
 10
28.1444
 20
34.3384
 30
0.0
 11
28.1444
 21
34.7694
 31
0.0
  0
LINE
  8
0
 10
29.4375
 20
34.7694
 30
0.0
 11
29.0064
 21
35.2005
 31
0.0
  0
LINE
  8
0
 10
29.0064
 20
35.2005
 30
0.0
 11
28.5754
 21
34.3384
 31
0.0
  0
LINE
  8
0
 10
28.5754
 20
34.3384
 30
0.0
 11
29.8685
 21
34.3384
 31
0.0
  0
LINE
  8
0
 10
29.8685
 20
34.3384
 30
0.0
 11
29.4375
 21
34.7694
 31
0.0
  0
LINE
  8
0
 10
13.0582
 20
33.9074
 30
0.0
 11
11.7651
 21
33.9074
 31
0.0
  0
LINE
  8
0
 10
11.7651
 20
33.9074
 30
0.0
 11
12.6271
 21
33.4763
 31
0.0
  0
LINE
  8
0
 10
12.6271
 20
33.4763
 30
0.0
 11
13.0582
 21
33.9074
 31
0.0
  0
LINE
  8
0
 10
27.2823
 20
33.9074
 30
0.0
 11
26.4202
 21
33.9074
 31
0.0
  0
LINE
  8
0
 10
26.4202
 20
33.9074
 30
0.0
 11
26.8513
 21
32.1832
 31
0.0
  0
LINE
  8
0
 10
26.8513
 20
32.1832
 30
0.0
 11
27.2823
 21
33.4763
 31
0.0
  0
LINE
  8
0
 10
27.2823
 20
33.4763
 30
0.0
 11
27.2823
 21
33.9074
 31
0.0
  0
LINE
  8
0
 10
72.1099
 20
33.9074
 30
0.0
 11
71.2478
 21
34.3384
 31
0.0
  0
LINE
  8
0
 10
71.2478
 20
34.3384
 30
0.0
 11
70.3858
 21
33.4763
 31
0.0
  0
LINE
  8
0
 10
70.3858
 20
33.4763
 30
0.0
 11
71.6789
 21
33.4763
 31
0.0
  0
LINE
  8
0
 10
71.6789
 20
33.4763
 30
0.0
 11
72.1099
 21
33.9074
 31
0.0
  0
LINE
  8
0
 10
23.403
 20
33.4763
 30
0.0
 11
22.1099
 21
33.4763
 31
0.0
  0
LINE
  8
0
 10
22.1099
 20
33.4763
 30
0.0
 11
22.972
 21
31.3211
 31
0.0
  0
LINE
  8
0
 10
22.972
 20
31.3211
 30
0.0
 11
24.2651
 21
31.7522
 31
0.0
  0
LINE
  8
0
 10
24.2651
 20
31.7522
 30
0.0
 11
23.834
 21
33.0453
 31
0.0
  0
LINE
  8
0
 10
23.834
 20
33.0453
 30
0.0
 11
23.403
 21
33.4763
 31
0.0
  0
LINE
  8
0
 10
25.1271
 20
33.4763
 30
0.0
 11
24.2651
 21
34.3384
 31
0.0
  0
LINE
  8
0
 10
24.2651
 20
34.3384
 30
0.0
 11
23.403
 21
33.9074
 31
0.0
  0
LINE
  8
0
 10
23.403
 20
33.9074
 30
0.0
 11
24.2651
 21
32.6143
 31
0.0
  0
LINE
  8
0
 10
24.2651
 20
32.6143
 30
0.0
 11
24.6961
 21
33.0453
 31
0.0
  0
LINE
  8
0
 10
24.6961
 20
33.0453
 30
0.0
 11
25.1271
 21
33.4763
 31
0.0
  0
LINE
  8
0
 10
25.1271
 20
32.6143
 30
0.0
 11
24.6961
 21
33.0453
 31
0.0
  0
LINE
  8
0
 10
24.6961
 20
33.0453
 30
0.0
 11
24.2651
 21
31.7522
 31
0.0
  0
LINE
  8
0
 10
24.2651
 20
31.7522
 30
0.0
 11
24.6961
 21
31.3211
 31
0.0
  0
LINE
  8
0
 10
24.6961
 20
31.3211
 30
0.0
 11
25.1271
 21
32.1832
 31
0.0
  0
LINE
  8
0
 10
25.1271
 20
32.1832
 30
0.0
 11
25.1271
 21
32.6143
 31
0.0
  0
LINE
  8
0
 10
25.9892
 20
32.6143
 30
0.0
 11
25.5582
 21
33.0453
 31
0.0
  0
LINE
  8
0
 10
25.5582
 20
33.0453
 30
0.0
 11
25.1271
 21
31.7522
 31
0.0
  0
LINE
  8
0
 10
25.1271
 20
31.7522
 30
0.0
 11
25.5582
 21
31.3211
 31
0.0
  0
LINE
  8
0
 10
25.5582
 20
31.3211
 30
0.0
 11
25.9892
 21
32.1832
 31
0.0
  0
LINE
  8
0
 10
25.9892
 20
32.1832
 30
0.0
 11
25.9892
 21
32.6143
 31
0.0
  0
LINE
  8
0
 10
69.9547
 20
32.6143
 30
0.0
 11
68.6616
 21
32.6143
 31
0.0
  0
LINE
  8
0
 10
68.6616
 20
32.6143
 30
0.0
 11
69.5237
 21
32.1832
 31
0.0
  0
LINE
  8
0
 10
69.5237
 20
32.1832
 30
0.0
 11
69.9547
 21
32.6143
 31
0.0
  0
LINE
  8
0
 10
10.0409
 20
32.1832
 30
0.0
 11
9.1789
 21
32.6143
 31
0.0
  0
LINE
  8
0
 10
9.1789
 20
32.6143
 30
0.0
 11
7.4547
 21
31.3211
 31
0.0
  0
LINE
  8
0
 10
7.4547
 20
31.3211
 30
0.0
 11
8.3168
 21
30.8901
 31
0.0
  0
LINE
  8
0
 10
8.3168
 20
30.8901
 30
0.0
 11
9.6099
 21
31.7522
 31
0.0
  0
LINE
  8
0
 10
9.6099
 20
31.7522
 30
0.0
 11
10.0409
 21
32.1832
 31
0.0
  0
LINE
  8
0
 10
5.7306
 20
31.7522
 30
0.0
 11
4.0064
 21
33.0453
 31
0.0
  0
LINE
  8
0
 10
4.0064
 20
33.0453
 30
0.0
 11
3.1444
 21
32.6143
 31
0.0
  0
LINE
  8
0
 10
3.1444
 20
32.6143
 30
0.0
 11
5.2995
 21
31.3211
 31
0.0
  0
LINE
  8
0
 10
5.2995
 20
31.3211
 30
0.0
 11
5.7306
 21
31.7522
 31
0.0
  0
LINE
  8
0
 10
50.5582
 20
31.7522
 30
0.0
 11
51.4202
 21
31.7522
 31
0.0
  0
LINE
  8
0
 10
51.4202
 20
31.7522
 30
0.0
 11
53.1444
 21
29.597
 31
0.0
  0
LINE
  8
0
 10
53.1444
 20
29.597
 30
0.0
 11
52.2823
 21
27.8729
 31
0.0
  0
LINE
  8
0
 10
52.2823
 20
27.8729
 30
0.0
 11
50.1271
 21
27.8729
 31
0.0
  0
LINE
  8
0
 10
50.1271
 20
27.8729
 30
0.0
 11
49.2651
 21
28.7349
 31
0.0
  0
LINE
  8
0
 10
49.2651
 20
28.7349
 30
0.0
 11
49.2651
 21
30.4591
 31
0.0
  0
LINE
  8
0
 10
49.2651
 20
30.4591
 30
0.0
 11
50.1271
 21
31.3211
 31
0.0
  0
LINE
  8
0
 10
50.1271
 20
31.3211
 30
0.0
 11
50.5582
 21
31.7522
 31
0.0
  0
LINE
  8
0
 10
28.5754
 20
30.8901
 30
0.0
 11
27.2823
 21
30.8901
 31
0.0
  0
LINE
  8
0
 10
27.2823
 20
30.8901
 30
0.0
 11
28.1444
 21
30.4591
 31
0.0
  0
LINE
  8
0
 10
28.1444
 20
30.4591
 30
0.0
 11
28.5754
 21
30.8901
 31
0.0
  0
LINE
  8
0
 10
66.9375
 20
30.8901
 30
0.0
 11
66.0754
 21
31.3211
 31
0.0
  0
LINE
  8
0
 10
66.0754
 20
31.3211
 30
0.0
 11
65.2133
 21
30.4591
 31
0.0
  0
LINE
  8
0
 10
65.2133
 20
30.4591
 30
0.0
 11
66.5064
 21
30.4591
 31
0.0
  0
LINE
  8
0
 10
66.5064
 20
30.4591
 30
0.0
 11
66.9375
 21
30.8901
 31
0.0
  0
LINE
  8
0
 10
51.8513
 20
30.4591
 30
0.0
 11
50.9892
 21
30.8901
 31
0.0
  0
LINE
  8
0
 10
50.9892
 20
30.8901
 30
0.0
 11
50.5582
 21
30.028
 31
0.0
  0
LINE
  8
0
 10
50.5582
 20
30.028
 30
0.0
 11
52.2823
 21
30.028
 31
0.0
  0
LINE
  8
0
 10
52.2823
 20
30.028
 30
0.0
 11
51.8513
 21
30.4591
 31
0.0
  0
LINE
  8
0
 10
27.2823
 20
29.597
 30
0.0
 11
25.5582
 21
29.597
 31
0.0
  0
LINE
  8
0
 10
25.5582
 20
29.597
 30
0.0
 11
26.8513
 21
29.166
 31
0.0
  0
LINE
  8
0
 10
26.8513
 20
29.166
 30
0.0
 11
27.2823
 21
29.597
 31
0.0
  0
LINE
  8
0
 10
64.7823
 20
29.597
 30
0.0
 11
63.4892
 21
29.597
 31
0.0
  0
LINE
  8
0
 10
63.4892
 20
29.597
 30
0.0
 11
64.3513
 21
29.166
 31
0.0
  0
LINE
  8
0
 10
64.3513
 20
29.166
 30
0.0
 11
64.7823
 21
29.597
 31
0.0
  0
LINE
  8
0
 10
29.0064
 20
29.166
 30
0.0
 11
28.1444
 21
29.166
 31
0.0
  0
LINE
  8
0
 10
28.1444
 20
29.166
 30
0.0
 11
28.5754
 21
28.3039
 31
0.0
  0
LINE
  8
0
 10
28.5754
 20
28.3039
 30
0.0
 11
29.0064
 21
28.7349
 31
0.0
  0
LINE
  8
0
 10
29.0064
 20
28.7349
 30
0.0
 11
29.0064
 21
29.166
 31
0.0
  0
LINE
  8
0
 10
52.2823
 20
29.166
 30
0.0
 11
51.4202
 21
29.166
 31
0.0
  0
LINE
  8
0
 10
51.4202
 20
29.166
 30
0.0
 11
51.8513
 21
28.3039
 31
0.0
  0
LINE
  8
0
 10
51.8513
 20
28.3039
 30
0.0
 11
52.2823
 21
28.7349
 31
0.0
  0
LINE
  8
0
 10
52.2823
 20
28.7349
 30
0.0
 11
52.2823
 21
29.166
 31
0.0
  0
LINE
  8
0
 10
28.1444
 20
28.3039
 30
0.0
 11
27.7133
 21
29.166
 31
0.0
  0
LINE
  8
0
 10
27.7133
 20
29.166
 30
0.0
 11
27.2823
 21
27.8729
 31
0.0
  0
LINE
  8
0
 10
27.2823
 20
27.8729
 30
0.0
 11
28.1444
 21
27.8729
 31
0.0
  0
LINE
  8
0
 10
28.1444
 20
27.8729
 30
0.0
 11
28.1444
 21
28.3039
 31
0.0
  0
LINE
  8
0
 10
61.7651
 20
27.8729
 30
0.0
 11
60.903
 21
28.3039
 31
0.0
  0
LINE
  8
0
 10
60.903
 20
28.3039
 30
0.0
 11
59.1789
 21
27.0108
 31
0.0
  0
LINE
  8
0
 10
59.1789
 20
27.0108
 30
0.0
 11
60.0409
 21
26.5798
 31
0.0
  0
LINE
  8
0
 10
60.0409
 20
26.5798
 30
0.0
 11
61.334
 21
27.4418
 31
0.0
  0
LINE
  8
0
 10
61.334
 20
27.4418
 30
0.0
 11
61.7651
 21
27.8729
 31
0.0
  0
LINE
  8
0
 10
24.6961
 20
27.4418
 30
0.0
 11
23.403
 21
27.4418
 31
0.0
  0
LINE
  8
0
 10
23.403
 20
27.4418
 30
0.0
 11
24.2651
 21
26.5798
 31
0.0
  0
LINE
  8
0
 10
24.2651
 20
26.5798
 30
0.0
 11
25.1271
 21
27.0108
 31
0.0
  0
LINE
  8
0
 10
25.1271
 20
27.0108
 30
0.0
 11
24.6961
 21
27.4418
 31
0.0
  0
LINE
  8
0
 10
27.2823
 20
27.4418
 30
0.0
 11
26.8513
 21
28.3039
 31
0.0
  0
LINE
  8
0
 10
26.8513
 20
28.3039
 30
0.0
 11
26.4202
 21
26.5798
 31
0.0
  0
LINE
  8
0
 10
26.4202
 20
26.5798
 30
0.0
 11
26.8513
 21
26.1487
 31
0.0
  0
LINE
  8
0
 10
26.8513
 20
26.1487
 30
0.0
 11
27.2823
 21
27.0108
 31
0.0
  0
LINE
  8
0
 10
27.2823
 20
27.0108
 30
0.0
 11
27.2823
 21
27.4418
 31
0.0
  0
LINE
  8
0
 10
23.403
 20
27.0108
 30
0.0
 11
22.1099
 21
27.0108
 31
0.0
  0
LINE
  8
0
 10
22.1099
 20
27.0108
 30
0.0
 11
22.972
 21
24.8556
 31
0.0
  0
LINE
  8
0
 10
22.972
 20
24.8556
 30
0.0
 11
24.2651
 21
25.2867
 31
0.0
  0
LINE
  8
0
 10
24.2651
 20
25.2867
 30
0.0
 11
23.834
 21
26.5798
 31
0.0
  0
LINE
  8
0
 10
23.834
 20
26.5798
 30
0.0
 11
23.403
 21
27.0108
 31
0.0
  0
LINE
  8
0
 10
25.1271
 20
26.1487
 30
0.0
 11
24.2651
 21
26.1487
 31
0.0
  0
LINE
  8
0
 10
24.2651
 20
26.1487
 30
0.0
 11
24.6961
 21
25.2867
 31
0.0
  0
LINE
  8
0
 10
24.6961
 20
25.2867
 30
0.0
 11
25.1271
 21
25.7177
 31
0.0
  0
LINE
  8
0
 10
25.1271
 20
25.7177
 30
0.0
 11
25.1271
 21
26.1487
 31
0.0
  0
LINE
  8
0
 10
25.9892
 20
26.1487
 30
0.0
 11
25.5582
 21
26.5798
 31
0.0
  0
LINE
  8
0
 10
25.5582
 20
26.5798
 30
0.0
 11
25.1271
 21
25.2867
 31
0.0
  0
LINE
  8
0
 10
25.1271
 20
25.2867
 30
0.0
 11
25.5582
 21
24.8556
 31
0.0
  0
LINE
  8
0
 10
25.5582
 20
24.8556
 30
0.0
 11
25.9892
 21
25.7177
 31
0.0
  0
LINE
  8
0
 10
25.9892
 20
25.7177
 30
0.0
 11
25.9892
 21
26.1487
 31
0.0
  0
LINE
  8
0
 10
32.8858
 20
25.7177
 30
0.0
 11
32.4547
 21
26.1487
 31
0.0
  0
LINE
  8
0
 10
32.4547
 20
26.1487
 30
0.0
 11
31.5926
 21
25.2867
 31
0.0
  0
LINE
  8
0
 10
31.5926
 20
25.2867
 30
0.0
 11
31.5926
 21
12.3556
 31
0.0
  0
LINE
  8
0
 10
31.5926
 20
12.3556
 30
0.0
 11
32.4547
 21
11.0625
 31
0.0
  0
LINE
  8
0
 10
32.4547
 20
11.0625
 30
0.0
 11
32.8858
 21
25.2867
 31
0.0
  0
LINE
  8
0
 10
32.8858
 20
25.2867
 30
0.0
 11
32.8858
 21
25.7177
 31
0.0
  0
LINE
  8
0
 10
34.1789
 20
25.7177
 30
0.0
 11
32.8858
 21
25.7177
 31
0.0
  0
LINE
  8
0
 10
32.8858
 20
25.7177
 30
0.0
 11
32.8858
 21
10.2005
 31
0.0
  0
LINE
  8
0
 10
32.8858
 20
10.2005
 30
0.0
 11
33.7478
 21
6.3211
 31
0.0
  0
LINE
  8
0
 10
33.7478
 20
6.3211
 30
0.0
 11
36.334
 21
2.8729
 31
0.0
  0
LINE
  8
0
 10
36.334
 20
2.8729
 30
0.0
 11
36.7651
 21
23.9936
 31
0.0
  0
LINE
  8
0
 10
36.7651
 20
23.9936
 30
0.0
 11
34.6099
 21
25.7177
 31
0.0
  0
LINE
  8
0
 10
34.6099
 20
25.7177
 30
0.0
 11
34.1789
 21
25.7177
 31
0.0
  0
LINE
  8
0
 10
29.0064
 20
24.4246
 30
0.0
 11
27.7133
 21
24.4246
 31
0.0
  0
LINE
  8
0
 10
27.7133
 20
24.4246
 30
0.0
 11
28.5754
 21
23.9936
 31
0.0
  0
LINE
  8
0
 10
28.5754
 20
23.9936
 30
0.0
 11
29.0064
 21
24.4246
 31
0.0
  0
LINE
  8
0
 10
41.0754
 20
24.4246
 30
0.0
 11
42.3685
 21
24.4246
 31
0.0
  0
LINE
  8
0
 10
42.3685
 20
24.4246
 30
0.0
 11
41.5064
 21
22.7005
 31
0.0
  0
LINE
  8
0
 10
41.5064
 20
22.7005
 30
0.0
 11
42.3685
 21
22.2694
 31
0.0
  0
LINE
  8
0
 10
42.3685
 20
22.2694
 30
0.0
 11
41.0754
 21
22.2694
 31
0.0
  0
LINE
  8
0
 10
41.0754
 20
22.2694
 30
0.0
 11
42.3685
 21
23.5625
 31
0.0
  0
LINE
  8
0
 10
42.3685
 20
23.5625
 30
0.0
 11
41.9375
 21
24.4246
 31
0.0
  0
LINE
  8
0
 10
41.9375
 20
24.4246
 30
0.0
 11
41.0754
 21
23.9936
 31
0.0
  0
LINE
  8
0
 10
41.0754
 20
23.9936
 30
0.0
 11
41.0754
 21
24.4246
 31
0.0
  0
LINE
  8
0
 10
43.6616
 20
24.4246
 30
0.0
 11
43.6616
 21
22.2694
 31
0.0
  0
LINE
  8
0
 10
43.6616
 20
22.2694
 30
0.0
 11
43.2306
 21
23.9936
 31
0.0
  0
LINE
  8
0
 10
43.2306
 20
23.9936
 30
0.0
 11
43.6616
 21
24.4246
 31
0.0
  0
LINE
  8
0
 10
29.0064
 20
23.1315
 30
0.0
 11
28.1444
 21
23.1315
 31
0.0
  0
LINE
  8
0
 10
28.1444
 20
23.1315
 30
0.0
 11
28.5754
 21
22.2694
 31
0.0
  0
LINE
  8
0
 10
28.5754
 20
22.2694
 30
0.0
 11
29.0064
 21
22.7005
 31
0.0
  0
LINE
  8
0
 10
29.0064
 20
22.7005
 30
0.0
 11
29.0064
 21
23.1315
 31
0.0
  0
LINE
  8
0
 10
26.4202
 20
22.7005
 30
0.0
 11
24.6961
 21
22.7005
 31
0.0
  0
LINE
  8
0
 10
24.6961
 20
22.7005
 30
0.0
 11
26.4202
 21
21.4074
 31
0.0
  0
LINE
  8
0
 10
26.4202
 20
21.4074
 30
0.0
 11
26.8513
 21
22.2694
 31
0.0
  0
LINE
  8
0
 10
26.8513
 20
22.2694
 30
0.0
 11
26.4202
 21
22.7005
 31
0.0
  0
LINE
  8
0
 10
24.2651
 20
22.2694
 30
0.0
 11
22.972
 21
22.2694
 31
0.0
  0
LINE
  8
0
 10
22.972
 20
22.2694
 30
0.0
 11
23.834
 21
21.8384
 31
0.0
  0
LINE
  8
0
 10
23.834
 20
21.8384
 30
0.0
 11
24.2651
 21
22.2694
 31
0.0
  0
LINE
  8
0
 10
28.1444
 20
22.2694
 30
0.0
 11
27.2823
 21
22.2694
 31
0.0
  0
LINE
  8
0
 10
27.2823
 20
22.2694
 30
0.0
 11
27.7133
 21
21.4074
 31
0.0
  0
LINE
  8
0
 10
27.7133
 20
21.4074
 30
0.0
 11
28.1444
 21
21.8384
 31
0.0
  0
LINE
  8
0
 10
28.1444
 20
21.8384
 30
0.0
 11
28.1444
 21
22.2694
 31
0.0
  0
LINE
  8
0
 10
29.4375
 20
22.2694
 30
0.0
 11
28.5754
 21
22.2694
 31
0.0
  0
LINE
  8
0
 10
28.5754
 20
22.2694
 30
0.0
 11
29.0064
 21
21.4074
 31
0.0
  0
LINE
  8
0
 10
29.0064
 20
21.4074
 30
0.0
 11
29.4375
 21
21.8384
 31
0.0
  0
LINE
  8
0
 10
29.4375
 20
21.8384
 30
0.0
 11
29.4375
 21
22.2694
 31
0.0
  0
LINE
  8
0
 10
27.2823
 20
21.4074
 30
0.0
 11
26.4202
 21
21.4074
 31
0.0
  0
LINE
  8
0
 10
26.4202
 20
21.4074
 30
0.0
 11
26.8513
 21
19.6832
 31
0.0
  0
LINE
  8
0
 10
26.8513
 20
19.6832
 30
0.0
 11
27.2823
 21
20.9763
 31
0.0
  0
LINE
  8
0
 10
27.2823
 20
20.9763
 30
0.0
 11
27.2823
 21
21.4074
 31
0.0
  0
LINE
  8
0
 10
23.403
 20
20.9763
 30
0.0
 11
22.1099
 21
20.9763
 31
0.0
  0
LINE
  8
0
 10
22.1099
 20
20.9763
 30
0.0
 11
22.1099
 21
19.6832
 31
0.0
  0
LINE
  8
0
 10
22.1099
 20
19.6832
 30
0.0
 11
23.403
 21
18.3901
 31
0.0
  0
LINE
  8
0
 10
23.403
 20
18.3901
 30
0.0
 11
24.2651
 21
18.8211
 31
0.0
  0
LINE
  8
0
 10
24.2651
 20
18.8211
 30
0.0
 11
23.834
 21
20.5453
 31
0.0
  0
LINE
  8
0
 10
23.834
 20
20.5453
 30
0.0
 11
23.403
 21
20.9763
 31
0.0
  0
LINE
  8
0
 10
25.1271
 20
20.9763
 30
0.0
 11
24.2651
 21
21.8384
 31
0.0
  0
LINE
  8
0
 10
24.2651
 20
21.8384
 30
0.0
 11
23.403
 21
21.4074
 31
0.0
  0
LINE
  8
0
 10
23.403
 20
21.4074
 30
0.0
 11
24.2651
 21
20.1143
 31
0.0
  0
LINE
  8
0
 10
24.2651
 20
20.1143
 30
0.0
 11
25.1271
 21
20.5453
 31
0.0
  0
LINE
  8
0
 10
25.1271
 20
20.5453
 30
0.0
 11
25.1271
 21
20.9763
 31
0.0
  0
LINE
  8
0
 10
28.1444
 20
20.9763
 30
0.0
 11
27.2823
 21
20.9763
 31
0.0
  0
LINE
  8
0
 10
27.2823
 20
20.9763
 30
0.0
 11
27.7133
 21
20.1143
 31
0.0
  0
LINE
  8
0
 10
27.7133
 20
20.1143
 30
0.0
 11
28.1444
 21
20.5453
 31
0.0
  0
LINE
  8
0
 10
28.1444
 20
20.5453
 30
0.0
 11
28.1444
 21
20.9763
 31
0.0
  0
LINE
  8
0
 10
25.9892
 20
20.1143
 30
0.0
 11
25.5582
 21
20.5453
 31
0.0
  0
LINE
  8
0
 10
25.5582
 20
20.5453
 30
0.0
 11
25.1271
 21
19.2522
 31
0.0
  0
LINE
  8
0
 10
25.1271
 20
19.2522
 30
0.0
 11
25.5582
 21
18.8211
 31
0.0
  0
LINE
  8
0
 10
25.5582
 20
18.8211
 30
0.0
 11
25.9892
 21
19.6832
 31
0.0
  0
LINE
  8
0
 10
25.9892
 20
19.6832
 30
0.0
 11
25.9892
 21
20.1143
 31
0.0
  0
LINE
  8
0
 10
9.1789
 20
18.8211
 30
0.0
 11
10.472
 21
18.8211
 31
0.0
  0
LINE
  8
0
 10
10.472
 20
18.8211
 30
0.0
 11
10.472
 21
16.666
 31
0.0
  0
LINE
  8
0
 10
10.472
 20
16.666
 30
0.0
 11
9.1789
 21
16.666
 31
0.0
  0
LINE
  8
0
 10
9.1789
 20
16.666
 30
0.0
 11
10.472
 21
17.097
 31
0.0
  0
LINE
  8
0
 10
10.472
 20
17.097
 30
0.0
 11
9.1789
 21
18.3901
 31
0.0
  0
LINE
  8
0
 10
9.1789
 20
18.3901
 30
0.0
 11
9.1789
 21
18.8211
 31
0.0
  0
LINE
  8
0
 10
11.7651
 20
18.8211
 30
0.0
 11
11.7651
 21
16.666
 31
0.0
  0
LINE
  8
0
 10
11.7651
 20
16.666
 30
0.0
 11
11.334
 21
18.3901
 31
0.0
  0
LINE
  8
0
 10
11.334
 20
18.3901
 30
0.0
 11
11.7651
 21
18.8211
 31
0.0
  0
LINE
  8
0
 10
13.0582
 20
18.8211
 30
0.0
 11
14.3513
 21
18.8211
 31
0.0
  0
LINE
  8
0
 10
14.3513
 20
18.8211
 30
0.0
 11
14.3513
 21
17.9591
 31
0.0
  0
LINE
  8
0
 10
14.3513
 20
17.9591
 30
0.0
 11
13.0582
 21
17.097
 31
0.0
  0
LINE
  8
0
 10
13.0582
 20
17.097
 30
0.0
 11
14.3513
 21
16.666
 31
0.0
  0
LINE
  8
0
 10
14.3513
 20
16.666
 30
0.0
 11
13.0582
 21
16.666
 31
0.0
  0
LINE
  8
0
 10
13.0582
 20
16.666
 30
0.0
 11
14.3513
 21
18.3901
 31
0.0
  0
LINE
  8
0
 10
14.3513
 20
18.3901
 30
0.0
 11
13.0582
 21
18.3901
 31
0.0
  0
LINE
  8
0
 10
13.0582
 20
18.3901
 30
0.0
 11
13.0582
 21
18.8211
 31
0.0
  0
LINE
  8
0
 10
-12.8039
 20
18.3901
 30
0.0
 11
-11.9418
 21
18.3901
 31
0.0
  0
LINE
  8
0
 10
-11.9418
 20
18.3901
 30
0.0
 11
-11.9418
 21
17.097
 31
0.0
  0
LINE
  8
0
 10
-11.9418
 20
17.097
 30
0.0
 11
-12.8039
 21
16.2349
 31
0.0
  0
LINE
  8
0
 10
-12.8039
 20
16.2349
 30
0.0
 11
-11.9418
 21
15.8039
 31
0.0
  0
LINE
  8
0
 10
-11.9418
 20
15.8039
 30
0.0
 11
-13.2349
 21
15.8039
 31
0.0
  0
LINE
  8
0
 10
-13.2349
 20
15.8039
 30
0.0
 11
-11.9418
 21
17.528
 31
0.0
  0
LINE
  8
0
 10
-11.9418
 20
17.528
 30
0.0
 11
-12.3729
 21
18.3901
 31
0.0
  0
LINE
  8
0
 10
-12.3729
 20
18.3901
 30
0.0
 11
-12.8039
 21
17.9591
 31
0.0
  0
LINE
  8
0
 10
-12.8039
 20
17.9591
 30
0.0
 11
-12.8039
 21
18.3901
 31
0.0
  0
LINE
  8
0
 10
-10.6487
 20
18.3901
 30
0.0
 11
-9.7867
 21
17.9591
 31
0.0
  0
LINE
  8
0
 10
-9.7867
 20
17.9591
 30
0.0
 11
-9.3556
 21
16.2349
 31
0.0
  0
LINE
  8
0
 10
-9.3556
 20
16.2349
 30
0.0
 11
-8.0625
 21
17.097
 31
0.0
  0
LINE
  8
0
 10
-8.0625
 20
17.097
 30
0.0
 11
-8.9246
 21
17.528
 31
0.0
  0
LINE
  8
0
 10
-8.9246
 20
17.528
 30
0.0
 11
-8.0625
 21
17.528
 31
0.0
  0
LINE
  8
0
 10
-8.0625
 20
17.528
 30
0.0
 11
-8.0625
 21
15.8039
 31
0.0
  0
LINE
  8
0
 10
-8.0625
 20
15.8039
 30
0.0
 11
-10.6487
 21
15.8039
 31
0.0
  0
LINE
  8
0
 10
-10.6487
 20
15.8039
 30
0.0
 11
-11.0798
 21
17.9591
 31
0.0
  0
LINE
  8
0
 10
-11.0798
 20
17.9591
 30
0.0
 11
-10.6487
 21
18.3901
 31
0.0
  0
LINE
  8
0
 10
-10.2177
 20
17.9591
 30
0.0
 11
-11.0798
 21
17.9591
 31
0.0
  0
LINE
  8
0
 10
-11.0798
 20
17.9591
 30
0.0
 11
-10.6487
 21
15.8039
 31
0.0
  0
LINE
  8
0
 10
-10.6487
 20
15.8039
 30
0.0
 11
-9.7867
 21
16.2349
 31
0.0
  0
LINE
  8
0
 10
-9.7867
 20
16.2349
 30
0.0
 11
-9.7867
 21
17.528
 31
0.0
  0
LINE
  8
0
 10
-9.7867
 20
17.528
 30
0.0
 11
-10.2177
 21
17.9591
 31
0.0
  0
LINE
  8
0
 10
28.1444
 20
17.528
 30
0.0
 11
26.8513
 21
17.528
 31
0.0
  0
LINE
  8
0
 10
26.8513
 20
17.528
 30
0.0
 11
27.7133
 21
17.097
 31
0.0
  0
LINE
  8
0
 10
27.7133
 20
17.097
 30
0.0
 11
28.1444
 21
17.528
 31
0.0
  0
LINE
  8
0
 10
27.7133
 20
16.666
 30
0.0
 11
26.8513
 21
17.528
 31
0.0
  0
LINE
  8
0
 10
26.8513
 20
17.528
 30
0.0
 11
25.5582
 21
17.097
 31
0.0
  0
LINE
  8
0
 10
25.5582
 20
17.097
 30
0.0
 11
27.7133
 21
14.9418
 31
0.0
  0
LINE
  8
0
 10
27.7133
 20
14.9418
 30
0.0
 11
28.1444
 21
16.2349
 31
0.0
  0
LINE
  8
0
 10
28.1444
 20
16.2349
 30
0.0
 11
27.7133
 21
16.666
 31
0.0
  0
LINE
  8
0
 10
29.0064
 20
16.666
 30
0.0
 11
28.1444
 21
16.666
 31
0.0
  0
LINE
  8
0
 10
28.1444
 20
16.666
 30
0.0
 11
28.5754
 21
15.8039
 31
0.0
  0
LINE
  8
0
 10
28.5754
 20
15.8039
 30
0.0
 11
29.0064
 21
16.2349
 31
0.0
  0
LINE
  8
0
 10
29.0064
 20
16.2349
 30
0.0
 11
29.0064
 21
16.666
 31
0.0
  0
LINE
  8
0
 10
24.6961
 20
15.8039
 30
0.0
 11
22.5409
 21
15.8039
 31
0.0
  0
LINE
  8
0
 10
22.5409
 20
15.8039
 30
0.0
 11
24.2651
 21
15.3729
 31
0.0
  0
LINE
  8
0
 10
24.2651
 20
15.3729
 30
0.0
 11
24.6961
 21
15.8039
 31
0.0
  0
LINE
  8
0
 10
27.2823
 20
14.9418
 30
0.0
 11
26.8513
 21
15.8039
 31
0.0
  0
LINE
  8
0
 10
26.8513
 20
15.8039
 30
0.0
 11
26.4202
 21
14.0798
 31
0.0
  0
LINE
  8
0
 10
26.4202
 20
14.0798
 30
0.0
 11
26.8513
 21
13.6487
 31
0.0
  0
LINE
  8
0
 10
26.8513
 20
13.6487
 30
0.0
 11
27.2823
 21
14.5108
 31
0.0
  0
LINE
  8
0
 10
27.2823
 20
14.5108
 30
0.0
 11
27.2823
 21
14.9418
 31
0.0
  0
LINE
  8
0
 10
23.403
 20
14.5108
 30
0.0
 11
22.1099
 21
14.5108
 31
0.0
  0
LINE
  8
0
 10
22.1099
 20
14.5108
 30
0.0
 11
22.1099
 21
13.6487
 31
0.0
  0
LINE
  8
0
 10
22.1099
 20
13.6487
 30
0.0
 11
23.403
 21
12.3556
 31
0.0
  0
LINE
  8
0
 10
23.403
 20
12.3556
 30
0.0
 11
24.2651
 21
12.7867
 31
0.0
  0
LINE
  8
0
 10
24.2651
 20
12.7867
 30
0.0
 11
23.834
 21
14.0798
 31
0.0
  0
LINE
  8
0
 10
23.834
 20
14.0798
 30
0.0
 11
23.403
 21
14.5108
 31
0.0
  0
LINE
  8
0
 10
25.1271
 20
14.5108
 30
0.0
 11
24.2651
 21
15.3729
 31
0.0
  0
LINE
  8
0
 10
24.2651
 20
15.3729
 30
0.0
 11
23.403
 21
14.9418
 31
0.0
  0
LINE
  8
0
 10
23.403
 20
14.9418
 30
0.0
 11
24.2651
 21
13.6487
 31
0.0
  0
LINE
  8
0
 10
24.2651
 20
13.6487
 30
0.0
 11
24.6961
 21
14.0798
 31
0.0
  0
LINE
  8
0
 10
24.6961
 20
14.0798
 30
0.0
 11
25.1271
 21
14.5108
 31
0.0
  0
LINE
  8
0
 10
25.1271
 20
13.6487
 30
0.0
 11
24.6961
 21
14.0798
 31
0.0
  0
LINE
  8
0
 10
24.6961
 20
14.0798
 30
0.0
 11
24.2651
 21
12.7867
 31
0.0
  0
LINE
  8
0
 10
24.2651
 20
12.7867
 30
0.0
 11
24.6961
 21
12.3556
 31
0.0
  0
LINE
  8
0
 10
24.6961
 20
12.3556
 30
0.0
 11
25.1271
 21
13.2177
 31
0.0
  0
LINE
  8
0
 10
25.1271
 20
13.2177
 30
0.0
 11
25.1271
 21
13.6487
 31
0.0
  0
LINE
  8
0
 10
25.9892
 20
13.6487
 30
0.0
 11
25.5582
 21
14.0798
 31
0.0
  0
LINE
  8
0
 10
25.5582
 20
14.0798
 30
0.0
 11
25.1271
 21
12.7867
 31
0.0
  0
LINE
  8
0
 10
25.1271
 20
12.7867
 30
0.0
 11
25.5582
 21
12.3556
 31
0.0
  0
LINE
  8
0
 10
25.5582
 20
12.3556
 30
0.0
 11
25.9892
 21
13.2177
 31
0.0
  0
LINE
  8
0
 10
25.9892
 20
13.2177
 30
0.0
 11
25.9892
 21
13.6487
 31
0.0
  0
LINE
  8
0
 10
28.5754
 20
13.2177
 30
0.0
 11
26.8513
 21
13.6487
 31
0.0
  0
LINE
  8
0
 10
26.8513
 20
13.6487
 30
0.0
 11
25.5582
 21
11.9246
 31
0.0
  0
LINE
  8
0
 10
25.5582
 20
11.9246
 30
0.0
 11
22.972
 21
12.3556
 31
0.0
  0
LINE
  8
0
 10
22.972
 20
12.3556
 30
0.0
 11
21.2478
 21
10.2005
 31
0.0
  0
LINE
  8
0
 10
21.2478
 20
10.2005
 30
0.0
 11
20.8168
 21
5.8901
 31
0.0
  0
LINE
  8
0
 10
20.8168
 20
5.8901
 30
0.0
 11
21.6789
 21
5.4591
 31
0.0
  0
LINE
  8
0
 10
21.6789
 20
5.4591
 30
0.0
 11
31.5926
 21
11.4936
 31
0.0
  0
LINE
  8
0
 10
31.5926
 20
11.4936
 30
0.0
 11
29.0064
 21
12.7867
 31
0.0
  0
LINE
  8
0
 10
29.0064
 20
12.7867
 30
0.0
 11
28.5754
 21
13.2177
 31
0.0
  0
LINE
  8
0
 10
22.5409
 20
12.7867
 30
0.0
 11
22.1099
 21
13.2177
 31
0.0
  0
LINE
  8
0
 10
22.1099
 20
13.2177
 30
0.0
 11
20.3858
 21
12.3556
 31
0.0
  0
LINE
  8
0
 10
20.3858
 20
12.3556
 30
0.0
 11
0.9892
 21
0.7177
 31
0.0
  0
LINE
  8
0
 10
0.9892
 20
0.7177
 30
0.0
 11
7.4547
 21
-2.7306
 31
0.0
  0
LINE
  8
0
 10
7.4547
 20
-2.7306
 30
0.0
 11
19.9547
 21
4.597
 31
0.0
  0
LINE
  8
0
 10
19.9547
 20
4.597
 30
0.0
 11
20.8168
 21
5.4591
 31
0.0
  0
LINE
  8
0
 10
20.8168
 20
5.4591
 30
0.0
 11
21.2478
 21
10.6315
 31
0.0
  0
LINE
  8
0
 10
21.2478
 20
10.6315
 30
0.0
 11
22.5409
 21
12.3556
 31
0.0
  0
LINE
  8
0
 10
22.5409
 20
12.3556
 30
0.0
 11
22.5409
 21
12.7867
 31
0.0
  0
LINE
  8
0
 10
30.2995
 20
9.7694
 30
0.0
 11
29.4375
 21
10.2005
 31
0.0
  0
LINE
  8
0
 10
29.4375
 20
10.2005
 30
0.0
 11
28.5754
 21
9.3384
 31
0.0
  0
LINE
  8
0
 10
28.5754
 20
9.3384
 30
0.0
 11
29.8685
 21
9.3384
 31
0.0
  0
LINE
  8
0
 10
29.8685
 20
9.3384
 30
0.0
 11
30.2995
 21
9.7694
 31
0.0
  0
LINE
  8
0
 10
32.8858
 20
9.7694
 30
0.0
 11
32.0237
 21
10.6315
 31
0.0
  0
LINE
  8
0
 10
32.0237
 20
10.6315
 30
0.0
 11
20.8168
 21
4.166
 31
0.0
  0
LINE
  8
0
 10
20.8168
 20
4.166
 30
0.0
 11
19.0926
 21
1.1487
 31
0.0
  0
LINE
  8
0
 10
19.0926
 20
1.1487
 30
0.0
 11
36.334
 21
-8.7651
 31
0.0
  0
LINE
  8
0
 10
36.334
 20
-8.7651
 30
0.0
 11
36.7651
 21
2.4418
 31
0.0
  0
LINE
  8
0
 10
36.7651
 20
2.4418
 30
0.0
 11
34.1789
 21
5.028
 31
0.0
  0
LINE
  8
0
 10
34.1789
 20
5.028
 30
0.0
 11
33.3168
 21
9.3384
 31
0.0
  0
LINE
  8
0
 10
33.3168
 20
9.3384
 30
0.0
 11
32.8858
 21
9.7694
 31
0.0
  0
LINE
  8
0
 10
28.1444
 20
8.4763
 30
0.0
 11
26.8513
 21
8.4763
 31
0.0
  0
LINE
  8
0
 10
26.8513
 20
8.4763
 30
0.0
 11
27.7133
 21
8.0453
 31
0.0
  0
LINE
  8
0
 10
27.7133
 20
8.0453
 30
0.0
 11
28.1444
 21
8.4763
 31
0.0
  0
LINE
  8
0
 10
-0.3039
 20
8.0453
 30
0.0
 11
-0.7349
 21
8.4763
 31
0.0
  0
LINE
  8
0
 10
-0.7349
 20
8.4763
 30
0.0
 11
-5.0453
 21
5.8901
 31
0.0
  0
LINE
  8
0
 10
-5.0453
 20
5.8901
 30
0.0
 11
-5.9074
 21
4.597
 31
0.0
  0
LINE
  8
0
 10
-5.9074
 20
4.597
 30
0.0
 11
-0.7349
 21
1.5798
 31
0.0
  0
LINE
  8
0
 10
-0.7349
 20
1.5798
 30
0.0
 11
-0.3039
 21
7.6143
 31
0.0
  0
LINE
  8
0
 10
-0.3039
 20
7.6143
 30
0.0
 11
-0.3039
 21
8.0453
 31
0.0
  0
LINE
  8
0
 10
25.1271
 20
6.7522
 30
0.0
 11
23.834
 21
6.7522
 31
0.0
  0
LINE
  8
0
 10
23.834
 20
6.7522
 30
0.0
 11
24.6961
 21
6.3211
 31
0.0
  0
LINE
  8
0
 10
24.6961
 20
6.3211
 30
0.0
 11
25.1271
 21
6.7522
 31
0.0
  0
LINE
  8
0
 10
22.1099
 20
5.028
 30
0.0
 11
21.2478
 21
5.4591
 31
0.0
  0
LINE
  8
0
 10
21.2478
 20
5.4591
 30
0.0
 11
20.3858
 21
4.597
 31
0.0
  0
LINE
  8
0
 10
20.3858
 20
4.597
 30
0.0
 11
21.6789
 21
4.597
 31
0.0
  0
LINE
  8
0
 10
21.6789
 20
4.597
 30
0.0
 11
22.1099
 21
5.028
 31
0.0
  0
LINE
  8
0
 10
37.6271
 20
3.3039
 30
0.0
 11
37.1961
 21
23.5625
 31
0.0
  0
LINE
  8
0
 10
37.1961
 20
23.5625
 30
0.0
 11
36.7651
 21
2.8729
 31
0.0
  0
LINE
  8
0
 10
36.7651
 20
2.8729
 30
0.0
 11
37.6271
 21
2.8729
 31
0.0
  0
LINE
  8
0
 10
37.6271
 20
2.8729
 30
0.0
 11
37.6271
 21
3.3039
 31
0.0
  0
LINE
  8
0
 10
17.7995
 20
2.4418
 30
0.0
 11
16.5064
 21
2.4418
 31
0.0
  0
LINE
  8
0
 10
16.5064
 20
2.4418
 30
0.0
 11
17.3685
 21
2.0108
 31
0.0
  0
LINE
  8
0
 10
17.3685
 20
2.0108
 30
0.0
 11
17.7995
 21
2.4418
 31
0.0
  0
LINE
  8
0
 10
19.5237
 20
2.4418
 30
0.0
 11
18.6616
 21
2.8729
 31
0.0
  0
LINE
  8
0
 10
18.6616
 20
2.8729
 30
0.0
 11
17.7995
 21
2.0108
 31
0.0
  0
LINE
  8
0
 10
17.7995
 20
2.0108
 30
0.0
 11
18.6616
 21
1.1487
 31
0.0
  0
LINE
  8
0
 10
18.6616
 20
1.1487
 30
0.0
 11
19.5237
 21
2.0108
 31
0.0
  0
LINE
  8
0
 10
19.5237
 20
2.0108
 30
0.0
 11
19.5237
 21
2.4418
 31
0.0
  0
LINE
  8
0
 10
-2.028
 20
2.0108
 30
0.0
 11
-3.3211
 21
2.0108
 31
0.0
  0
LINE
  8
0
 10
-3.3211
 20
2.0108
 30
0.0
 11
-2.4591
 21
1.5798
 31
0.0
  0
LINE
  8
0
 10
-2.4591
 20
1.5798
 30
0.0
 11
-2.028
 21
2.0108
 31
0.0
  0
LINE
  8
0
 10
37.6271
 20
2.0108
 30
0.0
 11
36.7651
 21
2.0108
 31
0.0
  0
LINE
  8
0
 10
36.7651
 20
2.0108
 30
0.0
 11
37.1961
 21
-8.7651
 31
0.0
  0
LINE
  8
0
 10
37.1961
 20
-8.7651
 30
0.0
 11
37.6271
 21
1.5798
 31
0.0
  0
LINE
  8
0
 10
37.6271
 20
1.5798
 30
0.0
 11
37.6271
 21
2.0108
 31
0.0
  0
LINE
  8
0
 10
0.5582
 20
1.1487
 30
0.0
 11
0.1271
 21
19.6832
 31
0.0
  0
LINE
  8
0
 10
0.1271
 20
19.6832
 30
0.0
 11
-0.3039
 21
1.5798
 31
0.0
  0
LINE
  8
0
 10
-0.3039
 20
1.5798
 30
0.0
 11
-1.597
 21
1.1487
 31
0.0
  0
LINE
  8
0
 10
-1.597
 20
1.1487
 30
0.0
 11
1.4202
 21
-0.5754
 31
0.0
  0
LINE
  8
0
 10
1.4202
 20
-0.5754
 30
0.0
 11
1.8513
 21
-0.1444
 31
0.0
  0
LINE
  8
0
 10
1.8513
 20
-0.1444
 30
0.0
 11
0.9892
 21
0.7177
 31
0.0
  0
LINE
  8
0
 10
0.9892
 20
0.7177
 30
0.0
 11
0.5582
 21
1.1487
 31
0.0
  0
LINE
  8
0
 10
44.0926
 20
0.2867
 30
0.0
 11
44.5237
 21
-1.4375
 31
0.0
  0
LINE
  8
0
 10
44.5237
 20
-1.4375
 30
0.0
 11
45.3858
 21
0.2867
 31
0.0
  0
LINE
  8
0
 10
45.3858
 20
0.2867
 30
0.0
 11
46.2478
 21
0.2867
 31
0.0
  0
LINE
  8
0
 10
46.2478
 20
0.2867
 30
0.0
 11
46.2478
 21
-1.8685
 31
0.0
  0
LINE
  8
0
 10
46.2478
 20
-1.8685
 30
0.0
 11
45.3858
 21
-2.2995
 31
0.0
  0
LINE
  8
0
 10
45.3858
 20
-2.2995
 30
0.0
 11
44.5237
 21
-1.4375
 31
0.0
  0
LINE
  8
0
 10
44.5237
 20
-1.4375
 30
0.0
 11
44.0926
 21
-2.2995
 31
0.0
  0
LINE
  8
0
 10
44.0926
 20
-2.2995
 30
0.0
 11
43.2306
 21
-1.4375
 31
0.0
  0
LINE
  8
0
 10
43.2306
 20
-1.4375
 30
0.0
 11
44.0926
 21
-0.1444
 31
0.0
  0
LINE
  8
0
 10
44.0926
 20
-0.1444
 30
0.0
 11
44.0926
 21
0.2867
 31
0.0
  0
LINE
  8
0
 10
13.0582
 20
-0.1444
 30
0.0
 11
12.1961
 21
0.2867
 31
0.0
  0
LINE
  8
0
 10
12.1961
 20
0.2867
 30
0.0
 11
11.334
 21
-0.5754
 31
0.0
  0
LINE
  8
0
 10
11.334
 20
-0.5754
 30
0.0
 11
12.6271
 21
-0.5754
 31
0.0
  0
LINE
  8
0
 10
12.6271
 20
-0.5754
 30
0.0
 11
13.0582
 21
-0.1444
 31
0.0
  0
LINE
  8
0
 10
10.903
 20
-1.4375
 30
0.0
 11
9.6099
 21
-1.4375
 31
0.0
  0
LINE
  8
0
 10
9.6099
 20
-1.4375
 30
0.0
 11
10.472
 21
-1.8685
 31
0.0
  0
LINE
  8
0
 10
10.472
 20
-1.8685
 30
0.0
 11
10.903
 21
-1.4375
 31
0.0
  0
LINE
  8
0
 10
4.8685
 20
-1.8685
 30
0.0
 11
3.5754
 21
-1.8685
 31
0.0
  0
LINE
  8
0
 10
3.5754
 20
-1.8685
 30
0.0
 11
4.4375
 21
-2.2995
 31
0.0
  0
LINE
  8
0
 10
4.4375
 20
-2.2995
 30
0.0
 11
4.8685
 21
-1.8685
 31
0.0
  0
LINE
  8
0
 10
7.0237
 20
-3.1616
 30
0.0
 11
6.1616
 21
-2.2995
 31
0.0
  0
LINE
  8
0
 10
6.1616
 20
-2.2995
 30
0.0
 11
5.2995
 21
-2.7306
 31
0.0
  0
LINE
  8
0
 10
5.2995
 20
-2.7306
 30
0.0
 11
6.5926
 21
-3.5926
 31
0.0
  0
LINE
  8
0
 10
6.5926
 20
-3.5926
 30
0.0
 11
7.0237
 21
-3.1616
 31
0.0
  0
LINE
  8
0
 10
15.6444
 20
-3.1616
 30
0.0
 11
16.5064
 21
-3.1616
 31
0.0
  0
LINE
  8
0
 10
16.5064
 20
-3.1616
 30
0.0
 11
16.5064
 21
-5.7478
 31
0.0
  0
LINE
  8
0
 10
16.5064
 20
-5.7478
 30
0.0
 11
15.2133
 21
-5.3168
 31
0.0
  0
LINE
  8
0
 10
15.2133
 20
-5.3168
 30
0.0
 11
16.5064
 21
-5.3168
 31
0.0
  0
LINE
  8
0
 10
16.5064
 20
-5.3168
 30
0.0
 11
16.5064
 21
-3.5926
 31
0.0
  0
LINE
  8
0
 10
16.5064
 20
-3.5926
 30
0.0
 11
15.2133
 21
-3.5926
 31
0.0
  0
LINE
  8
0
 10
15.2133
 20
-3.5926
 30
0.0
 11
15.6444
 21
-3.1616
 31
0.0
  0
LINE
  8
0
 10
18.2306
 20
-3.1616
 30
0.0
 11
18.2306
 21
-5.7478
 31
0.0
  0
LINE
  8
0
 10
18.2306
 20
-5.7478
 30
0.0
 11
17.7995
 21
-3.5926
 31
0.0
  0
LINE
  8
0
 10
17.7995
 20
-3.5926
 30
0.0
 11
18.2306
 21
-3.1616
 31
0.0
  0
LINE
  8
0
 10
19.9547
 20
-3.1616
 30
0.0
 11
19.9547
 21
-5.7478
 31
0.0
  0
LINE
  8
0
 10
19.9547
 20
-5.7478
 30
0.0
 11
19.5237
 21
-3.5926
 31
0.0
  0
LINE
  8
0
 10
19.5237
 20
-3.5926
 30
0.0
 11
19.9547
 21
-3.1616
 31
0.0
ENDSEC
  0
EOF