  0
SECTION
  2
HEADER
  9
$ACADVER
  1
AC1015
  9
$INSUNITS
 70
0
  9
$EXTMIN
 10
0
 20
-50
 30
0
  9
$EXTMAX
 10
250
 20
1050
 30
0
  0
ENDSEC
  0
SECTION
  2
TABLES
  0
TABLE
  2
LTYPE
 70
7
  0
LTYPE
  2
CONTINUOUS
 70
0
  3
Solid line
 72
65
 73
0
 40
0
  0
LTYPE
  2
DASHED
 70
0
  3
Dashed line
 72
65
 73
2
 40
0.75
 49
0.5
 49
-0.25
  0
LTYPE
  2
HIDDEN
 70
0
  3
Hidden line
 72
65
 73
2
 40
9.525
 49
6.35
 49
-3.175
  0
LTYPE
  2
CENTER
 70
0
  3
Center line
 72
65
 73
4
 40
50.8
 49
31.75
 49
-6.35
 49
6.35
 49
-6.35
  0
LTYPE
  2
DASHDOT
 70
0
  3
Dash dot line
 72
65
 73
4
 40
25.4
 49
12.7
 49
-6.35
 49
0
 49
-6.35
  0
LTYPE
  2
PHANTOM
 70
0
  3
Phantom line
 72
65
 73
6
 40
63.5
 49
31.75
 49
-6.35
 49
6.35
 49
-6.35
 49
6.35
 49
-6.35
  0
LTYPE
  2
DOT
 70
0
  3
Dotted line
 72
65
 73
2
 40
6.35
 49
0
 49
-6.35
  0
ENDTAB
  0
TABLE
  2
LAYER
 70
19
  0
LAYER
  2
0
 70
0
 62
7
  6
CONTINUOUS
  0
LAYER
  2
STAIR_STR
 70
0
 62
7
  6
CONTINUOUS
  0
LAYER
  2
STAIR_REBAR
 70
0
 62
1
  6
CONTINUOUS
  0
LAYER
  2
STAIR_HATCH
 70
0
 62
8
  6
CONTINUOUS
  0
LAYER
  2
COLUMN
 70
0
 62
7
  6
CONTINUOUS
  0
LAYER
  2
BEAM
 70
0
 62
4
  6
CONTINUOUS
  0
LAYER
  2
CONNECTION
 70
0
 62
2
  6
CONTINUOUS
  0
LAYER
  2
LABEL
 70
0
 62
7
  6
CONTINUOUS
  0
LAYER
  2
HIDDEN
 70
0
 62
6
  6
CONTINUOUS
  0
LAYER
  2
DIMENSION
 70
0
 62
3
  6
CONTINUOUS
  0
LAYER
  2
PLATE
 70
0
 62
4
  6
CONTINUOUS
  0
LAYER
  2
BOLT
 70
0
 62
2
  6
CONTINUOUS
  0
LAYER
  2
S-BEAM-CUT
 70
0
 62
4
  6
Continuous
  0
LAYER
  2
S-PLAT-CUT
 70
0
 62
3
  6
Continuous
  0
LAYER
  2
S-BOLT-STD
 70
0
 62
2
  6
Continuous
  0
LAYER
  2
S-MISC-HID
 70
0
 62
8
  6
DASHED
  0
LAYER
  2
S-GRID-CTR
 70
0
 62
1
  6
CENTER
  0
LAYER
  2
U-ANNO-DIM
 70
0
 62
7
  6
Continuous
  0
LAYER
  2
U-ANNO-TXT
 70
0
 62
7
  6
Continuous
  0
ENDTAB
  0
TABLE
  2
DIMSTYLE
 70
1
  0
DIMSTYLE
  2
STANDARD
 70
0
140
2.5
141
2.5
44
1.25
42
0.625
147
0.625
77
1
  0
ENDTAB
  0
ENDSEC
  0
SECTION
  2
BLOCKS
  0
BLOCK
  8
0
  2
*D1
 70
0
 10
0
 20
0
 30
0
  0
LINE
  8
0
 10
0
 20
150.00000000000023
 30
0
 11
0
 21
405.09586448513653
 31
0
  0
LINE
  8
0
 10
300
 20
150.00000000000023
 30
0
 11
300
 21
405.09586448513653
 31
0
  0
LINE
  8
0
 10
0
 20
400.59586448513653
 30
0
 11
300
 21
400.59586448513653
 31
0
  0
LINE
  8
0
 10
0
 20
400.59586448513653
 30
0
 11
9
 21
397.89586448513654
 31
0
  0
LINE
  8
0
 10
0
 20
400.59586448513653
 30
0
 11
9
 21
403.2958644851365
 31
0
  0
LINE
  8
0
 10
300
 20
400.59586448513653
 30
0
 11
291
 21
403.2958644851365
 31
0
  0
LINE
  8
0
 10
300
 20
400.59586448513653
 30
0
 11
291
 21
397.89586448513654
 31
0
  0
TEXT
  8
0
 10
150
 20
400.59586448513653
 30
0
 40
9
  1
300.00
  0
ENDBLK
  8
0
  0
BLOCK
  8
0
  2
*D2
 70
0
 10
0
 20
0
 30
0
  0
LINE
  8
0
 10
0
 20
150.00000000000023
 30
0
 11
-113.88382644541531
 21
150.00000000000023
 31
0
  0
LINE
  8
0
 10
0
 20
-200
 30
0
 11
-113.88382644541531
 21
-200
 31
0
  0
LINE
  8
0
 10
-108.63382644541531
 20
150.00000000000023
 30
0
 11
-108.63382644541531
 21
-200
 31
0
  0
LINE
  8
0
 10
-108.63382644541531
 20
150.00000000000023
 30
0
 11
-111.78382644541531
 21
139.50000000000023
 31
0
  0
LINE
  8
0
 10
-108.63382644541531
 20
150.00000000000023
 30
0
 11
-105.4838264454153
 21
139.50000000000023
 31
0
  0
LINE
  8
0
 10
-108.63382644541531
 20
-200
 30
0
 11
-105.4838264454153
 21
-189.5
 31
0
  0
LINE
  8
0
 10
-108.63382644541531
 20
-200
 30
0
 11
-111.78382644541531
 21
-189.5
 31
0
  0
TEXT
  8
0
 10
-108.63382644541531
 20
-24.999999999999886
 30
0
 40
10.500000000000007
  1
350.00
 50
90
  0
ENDBLK
  8
0
  0
BLOCK
  8
0
  2
*D3
 70
0
 10
0
 20
0
 30
0
  0
LINE
  8
DIMENSION
 10
-0.625
 20
300
 30
0
 11
-101.25
 21
300
 31
0
  0
LINE
  8
DIMENSION
 10
-0.625
 20
710
 30
0
 11
-101.25
 21
710
 31
0
  0
LINE
  8
DIMENSION
 10
-100
 20
300
 30
0
 11
-100
 21
710
 31
0
  0
TEXT
  8
DIMENSION
 10
-100
 20
505
 30
0
 40
2.5
  1
410
 50
90
  0
ENDBLK
  8
0
  0
BLOCK
  8
0
  2
*D4
 70
0
 10
0
 20
0
 30
0
  0
LINE
  8
DIMENSION
 10
0
 20
-0.625
 30
0
 11
0
 21
-101.25
 31
0
  0
LINE
  8
DIMENSION
 10
250
 20
-0.625
 30
0
 11
250
 21
-101.25
 31
0
  0
LINE
  8
DIMENSION
 10
0
 20
-100
 30
0
 11
250
 21
-100
 31
0
  0
TEXT
  8
DIMENSION
 10
125
 20
-100
 30
0
 40
2.5
  1
250
  0
ENDBLK
  8
0
  0
BLOCK
  8
0
  2
*D5
 70
0
 10
0
 20
0
 30
0
  0
LINE
  8
DIMENSION
 10
0
 20
-0.625
 30
0
 11
0
 21
-51.25
 31
0
  0
LINE
  8
DIMENSION
 10
50
 20
-0.625
 30
0
 11
50
 21
-51.25
 31
0
  0
LINE
  8
DIMENSION
 10
0
 20
-50
 30
0
 11
50
 21
-50
 31
0
  0
TEXT
  8
DIMENSION
 10
25
 20
-50
 30
0
 40
2.5
  1
50
  0
ENDBLK
  8
0
  0
BLOCK
  8
0
  2
*D6
 70
0
 10
0
 20
0
 30
0
  0
LINE
  8
DIMENSION
 10
50
 20
-0.625
 30
0
 11
50
 21
-51.25
 31
0
  0
LINE
  8
DIMENSION
 10
200
 20
-0.625
 30
0
 11
200
 21
-51.25
 31
0
  0
LINE
  8
DIMENSION
 10
50
 20
-50
 30
0
 11
200
 21
-50
 31
0
  0
TEXT
  8
DIMENSION
 10
125
 20
-50
 30
0
 40
2.5
  1
150
  0
ENDBLK
  8
0
  0
BLOCK
  8
0
  2
*D7
 70
0
 10
0
 20
0
 30
0
  0
LINE
  8
DIMENSION
 10
200
 20
-0.625
 30
0
 11
200
 21
-51.25
 31
0
  0
LINE
  8
DIMENSION
 10
250
 20
-0.625
 30
0
 11
250
 21
-51.25
 31
0
  0
LINE
  8
DIMENSION
 10
200
 20
-50
 30
0
 11
250
 21
-50
 31
0
  0
TEXT
  8
DIMENSION
 10
225
 20
-50
 30
0
 40
2.5
  1
50
  0
ENDBLK
  8
0
  0
BLOCK
  8
0
  2
*D8
 70
0
 10
0
 20
0
 30
0
  0
LINE
  8
DIMENSION
 10
-0.625
 20
300
 30
0
 11
-51.25
 21
300
 31
0
  0
LINE
  8
DIMENSION
 10
-0.625
 20
340
 30
0
 11
-51.25
 21
340
 31
0
  0
LINE
  8
DIMENSION
 10
-50
 20
300
 30
0
 11
-50
 21
340
 31
0
  0
TEXT
  8
DIMENSION
 10
-50
 20
320
 30
0
 40
2.5
  1
40
 50
90
  0
ENDBLK
  8
0
  0
BLOCK
  8
0
  2
*D9
 70
0
 10
0
 20
0
 30
0
  0
LINE
  8
DIMENSION
 10
-0.625
 20
340
 30
0
 11
-51.25
 21
340
 31
0
  0
LINE
  8
DIMENSION
 10
-0.625
 20
400
 30
0
 11
-51.25
 21
400
 31
0
  0
LINE
  8
DIMENSION
 10
-50
 20
340
 30
0
 11
-50
 21
400
 31
0
  0
TEXT
  8
DIMENSION
 10
-50
 20
370
 30
0
 40
2.5
  1
60
 50
90
  0
ENDBLK
  8
0
  0
BLOCK
  8
0
  2
*D10
 70
0
 10
0
 20
0
 30
0
  0
LINE
  8
DIMENSION
 10
-0.625
 20
400
 30
0
 11
-51.25
 21
400
 31
0
  0
LINE
  8
DIMENSION
 10
-0.625
 20
460
 30
0
 11
-51.25
 21
460
 31
0
  0
LINE
  8
DIMENSION
 10
-50
 20
400
 30
0
 11
-50
 21
460
 31
0
  0
TEXT
  8
DIMENSION
 10
-50
 20
430
 30
0
 40
2.5
  1
60
 50
90
  0
ENDBLK
  8
0
  0
BLOCK
  8
0
  2
*D11
 70
0
 10
0
 20
0
 30
0
  0
LINE
  8
DIMENSION
 10
-0.625
 20
460
 30
0
 11
-51.25
 21
460
 31
0
  0
LINE
  8
DIMENSION
 10
-0.625
 20
500
 30
0
 11
-51.25
 21
500
 31
0
  0
LINE
  8
DIMENSION
 10
-50
 20
460
 30
0
 11
-50
 21
500
 31
0
  0
TEXT
  8
DIMENSION
 10
-50
 20
480
 30
0
 40
2.5
  1
40
 50
90
  0
ENDBLK
  8
0
  0
BLOCK
  8
0
  2
*D12
 70
0
 10
0
 20
0
 30
0
  0
LINE
  8
DIMENSION
 10
500
 20
-0.625
 30
0
 11
500
 21
-51.25
 31
0
  0
LINE
  8
DIMENSION
 10
555
 20
-0.625
 30
0
 11
555
 21
-51.25
 31
0
  0
LINE
  8
DIMENSION
 10
500
 20
-50
 30
0
 11
555
 21
-50
 31
0
  0
TEXT
  8
DIMENSION
 10
527.5
 20
-50
 30
0
 40
2.5
  1
55
  0
ENDBLK
  8
0
  0
BLOCK
  8
0
  2
*D13
 70
0
 10
0
 20
0
 30
0
  0
LINE
  8
DIMENSION
 10
555
 20
-0.625
 30
0
 11
555
 21
-51.25
 31
0
  0
LINE
  8
DIMENSION
 10
595
 20
-0.625
 30
0
 11
595
 21
-51.25
 31
0
  0
LINE
  8
DIMENSION
 10
555
 20
-50
 30
0
 11
595
 21
-50
 31
0
  0
TEXT
  8
DIMENSION
 10
575
 20
-50
 30
0
 40
2.5
  1
40
  0
ENDBLK
  8
0
  0
BLOCK
  8
0
  2
*D14
 70
0
 10
0
 20
0
 30
0
  0
LINE
  8
DIMENSION
 10
595
 20
-0.625
 30
0
 11
595
 21
-51.25
 31
0
  0
LINE
  8
DIMENSION
 10
655
 20
-0.625
 30
0
 11
655
 21
-51.25
 31
0
  0
LINE
  8
DIMENSION
 10
595
 20
-50
 30
0
 11
655
 21
-50
 31
0
  0
TEXT
  8
DIMENSION
 10
625
 20
-50
 30
0
 40
2.5
  1
60
  0
ENDBLK
  8
0
  0
BLOCK
  8
0
  2
*D15
 70
0
 10
0
 20
0
 30
0
  0
LINE
  8
DIMENSION
 10
655
 20
-0.625
 30
0
 11
655
 21
-51.25
 31
0
  0
LINE
  8
DIMENSION
 10
695
 20
-0.625
 30
0
 11
695
 21
-51.25
 31
0
  0
LINE
  8
DIMENSION
 10
655
 20
-50
 30
0
 11
695
 21
-50
 31
0
  0
TEXT
  8
DIMENSION
 10
675
 20
-50
 30
0
 40
2.5
  1
40
  0
ENDBLK
  8
0
  0
BLOCK
  8
0
  2
*D16
 70
0
 10
0
 20
0
 30
0
  0
LINE
  8
DIMENSION
 10
695
 20
-0.625
 30
0
 11
695
 21
-51.25
 31
0
  0
LINE
  8
DIMENSION
 10
750
 20
-0.625
 30
0
 11
750
 21
-51.25
 31
0
  0
LINE
  8
DIMENSION
 10
695
 20
-50
 30
0
 11
750
 21
-50
 31
0
  0
TEXT
  8
DIMENSION
 10
722.5
 20
-50
 30
0
 40
2.5
  1
55
  0
ENDBLK
  8
0
  0
BLOCK
  8
0
  2
*D17
 70
0
 10
0
 20
0
 30
0
  0
LINE
  8
DIMENSION
 10
750.625
 20
360
 30
0
 11
801.25
 21
360
 31
0
  0
LINE
  8
DIMENSION
 10
750.625
 20
650
 30
0
 11
801.25
 21
650
 31
0
  0
LINE
  8
DIMENSION
 10
800
 20
360
 30
0
 11
800
 21
650
 31
0
  0
TEXT
  8
DIMENSION
 10
800
 20
505
 30
0
 40
2.5
  1
290
 50
90
  0
ENDBLK
  8
0
  0
BLOCK
  8
0
  2
*D18
 70
0
 10
0
 20
0
 30
0
  0
LINE
  8
DIMENSION
 10
555
 20
650.625
 30
0
 11
555
 21
701.25
 31
0
  0
LINE
  8
DIMENSION
 10
695
 20
650.625
 30
0
 11
695
 21
701.25
 31
0
  0
LINE
  8
DIMENSION
 10
555
 20
700
 30
0
 11
695
 21
700
 31
0
  0
TEXT
  8
DIMENSION
 10
625
 20
700
 30
0
 40
2.5
  1
140
  0
ENDBLK
  8
0
  0
BLOCK
  8
0
  2
*D19
 70
0
 10
0
 20
0
 30
0
  0
LINE
  8
DIMENSION
 10
-0.625
 20
300
 30
0
 11
-151.25
 21
300
 31
0
  0
LINE
  8
DIMENSION
 10
-0.625
 20
710
 30
0
 11
-151.25
 21
710
 31
0
  0
LINE
  8
DIMENSION
 10
-150
 20
300
 30
0
 11
-150
 21
710
 31
0
  0
TEXT
  8
DIMENSION
 10
-150
 20
505
 30
0
 40
2.5
  1
410
 50
90
  0
ENDBLK
  8
0
  0
BLOCK
  8
0
  2
*D20
 70
0
 10
0
 20
0
 30
0
  0
LINE
  8
DIMENSION
 10
0
 20
299.375
 30
0
 11
0
 21
248.75
 31
0
  0
LINE
  8
DIMENSION
 10
100
 20
299.375
 30
0
 11
100
 21
248.75
 31
0
  0
LINE
  8
DIMENSION
 10
0
 20
250
 30
0
 11
100
 21
250
 31
0
  0
TEXT
  8
DIMENSION
 10
50
 20
250
 30
0
 40
2.5
  1
100
  0
ENDBLK
  8
0
  0
BLOCK
  8
0
  2
*D21
 70
0
 10
0
 20
0
 30
0
  0
LINE
  8
DIMENSION
 10
-0.625
 20
510
 30
0
 11
-51.25
 21
510
 31
0
  0
LINE
  8
DIMENSION
 10
-0.625
 20
550
 30
0
 11
-51.25
 21
550
 31
0
  0
LINE
  8
DIMENSION
 10
-50
 20
510
 30
0
 11
-50
 21
550
 31
0
  0
TEXT
  8
DIMENSION
 10
-50
 20
530
 30
0
 40
2.5
  1
40
 50
90
  0
ENDBLK
  8
0
  0
BLOCK
  8
0
  2
*D22
 70
0
 10
0
 20
0
 30
0
  0
LINE
  8
DIMENSION
 10
-0.625
 20
550
 30
0
 11
-51.25
 21
550
 31
0
  0
LINE
  8
DIMENSION
 10
-0.625
 20
610
 30
0
 11
-51.25
 21
610
 31
0
  0
LINE
  8
DIMENSION
 10
-50
 20
550
 30
0
 11
-50
 21
610
 31
0
  0
TEXT
  8
DIMENSION
 10
-50
 20
580
 30
0
 40
2.5
  1
60
 50
90
  0
ENDBLK
  8
0
  0
BLOCK
  8
0
  2
*D23
 70
0
 10
0
 20
0
 30
0
  0
LINE
  8
DIMENSION
 10
-0.625
 20
610
 30
0
 11
-51.25
 21
610
 31
0
  0
LINE
  8
DIMENSION
 10
-0.625
 20
670
 30
0
 11
-51.25
 21
670
 31
0
  0
LINE
  8
DIMENSION
 10
-50
 20
610
 30
0
 11
-50
 21
670
 31
0
  0
TEXT
  8
DIMENSION
 10
-50
 20
640
 30
0
 40
2.5
  1
60
 50
90
  0
ENDBLK
  8
0
  0
BLOCK
  8
0
  2
*D24
 70
0
 10
0
 20
0
 30
0
  0
LINE
  8
DIMENSION
 10
-0.625
 20
670
 30
0
 11
-51.25
 21
670
 31
0
  0
LINE
  8
DIMENSION
 10
-0.625
 20
710
 30
0
 11
-51.25
 21
710
 31
0
  0
LINE
  8
DIMENSION
 10
-50
 20
670
 30
0
 11
-50
 21
710
 31
0
  0
TEXT
  8
DIMENSION
 10
-50
 20
690
 30
0
 40
2.5
  1
40
 50
90
  0
ENDBLK
  8
0
  0
BLOCK
  8
0
  2
*D25
 70
0
 10
0
 20
0
 30
0
  0
LINE
  8
DIMENSION
 10
-0.625
 20
300
 30
0
 11
-101.25
 21
300
 31
0
  0
LINE
  8
DIMENSION
 10
-0.625
 20
710
 30
0
 11
-101.25
 21
710
 31
0
  0
LINE
  8
DIMENSION
 10
-100
 20
300
 30
0
 11
-100
 21
710
 31
0
  0
TEXT
  8
DIMENSION
 10
-100
 20
505
 30
0
 40
2.5
  1
410
 50
90
  0
ENDBLK
  8
0
  0
BLOCK
  8
0
  2
*D26
 70
0
 10
0
 20
0
 30
0
  0
LINE
  8
DIMENSION
 10
250.625
 20
300
 30
0
 11
351.25
 21
300
 31
0
  0
LINE
  8
DIMENSION
 10
250.625
 20
340
 30
0
 11
351.25
 21
340
 31
0
  0
LINE
  8
DIMENSION
 10
350
 20
300
 30
0
 11
350
 21
340
 31
0
  0
TEXT
  8
DIMENSION
 10
350
 20
320
 30
0
 40
2.5
  1
40
 50
90
  0
ENDBLK
  8
0
  0
BLOCK
  8
0
  2
*D27
 70
0
 10
0
 20
0
 30
0
  0
LINE
  8
DIMENSION
 10
250.625
 20
340
 30
0
 11
351.25
 21
340
 31
0
  0
LINE
  8
DIMENSION
 10
250.625
 20
400
 30
0
 11
351.25
 21
400
 31
0
  0
LINE
  8
DIMENSION
 10
350
 20
340
 30
0
 11
350
 21
400
 31
0
  0
TEXT
  8
DIMENSION
 10
350
 20
370
 30
0
 40
2.5
  1
60
 50
90
  0
ENDBLK
  8
0
  0
BLOCK
  8
0
  2
*D28
 70
0
 10
0
 20
0
 30
0
  0
LINE
  8
DIMENSION
 10
250.625
 20
400
 30
0
 11
351.25
 21
400
 31
0
  0
LINE
  8
DIMENSION
 10
250.625
 20
460
 30
0
 11
351.25
 21
460
 31
0
  0
LINE
  8
DIMENSION
 10
350
 20
400
 30
0
 11
350
 21
460
 31
0
  0
TEXT
  8
DIMENSION
 10
350
 20
430
 30
0
 40
2.5
  1
60
 50
90
  0
ENDBLK
  8
0
  0
BLOCK
  8
0
  2
*D29
 70
0
 10
0
 20
0
 30
0
  0
LINE
  8
DIMENSION
 10
250.625
 20
460
 30
0
 11
351.25
 21
460
 31
0
  0
LINE
  8
DIMENSION
 10
250.625
 20
500
 30
0
 11
351.25
 21
500
 31
0
  0
LINE
  8
DIMENSION
 10
350
 20
460
 30
0
 11
350
 21
500
 31
0
  0
TEXT
  8
DIMENSION
 10
350
 20
480
 30
0
 40
2.5
  1
40
 50
90
  0
ENDBLK
  8
0
  0
BLOCK
  8
0
  2
*D30
 70
0
 10
0
 20
0
 30
0
  0
LINE
  8
DIMENSION
 10
0
 20
299.375
 30
0
 11
0
 21
248.75
 31
0
  0
LINE
  8
DIMENSION
 10
100
 20
299.375
 30
0
 11
100
 21
248.75
 31
0
  0
LINE
  8
DIMENSION
 10
0
 20
250
 30
0
 11
100
 21
250
 31
0
  0
TEXT
  8
DIMENSION
 10
50
 20
250
 30
0
 40
2.5
  1
100
  0
ENDBLK
  8
0
  0
BLOCK
  8
0
  2
*D31
 70
0
 10
0
 20
0
 30
0
  0
LINE
  8
DIMENSION
 10
0
 20
-0.625
 30
0
 11
0
 21
-101.25
 31
0
  0
LINE
  8
DIMENSION
 10
50
 20
-0.625
 30
0
 11
50
 21
-101.25
 31
0
  0
LINE
  8
DIMENSION
 10
0
 20
-100
 30
0
 11
50
 21
-100
 31
0
  0
TEXT
  8
DIMENSION
 10
25
 20
-100
 30
0
 40
2.5
  1
50
  0
ENDBLK
  8
0
  0
BLOCK
  8
0
  2
*D32
 70
0
 10
0
 20
0
 30
0
  0
LINE
  8
DIMENSION
 10
50
 20
-0.625
 30
0
 11
50
 21
-101.25
 31
0
  0
LINE
  8
DIMENSION
 10
200
 20
-0.625
 30
0
 11
200
 21
-101.25
 31
0
  0
LINE
  8
DIMENSION
 10
50
 20
-100
 30
0
 11
200
 21
-100
 31
0
  0
TEXT
  8
DIMENSION
 10
125
 20
-100
 30
0
 40
2.5
  1
150
  0
ENDBLK
  8
0
  0
BLOCK
  8
0
  2
*D33
 70
0
 10
0
 20
0
 30
0
  0
LINE
  8
DIMENSION
 10
200
 20
-0.625
 30
0
 11
200
 21
-101.25
 31
0
  0
LINE
  8
DIMENSION
 10
250
 20
-0.625
 30
0
 11
250
 21
-101.25
 31
0
  0
LINE
  8
DIMENSION
 10
200
 20
-100
 30
0
 11
250
 21
-100
 31
0
  0
TEXT
  8
DIMENSION
 10
225
 20
-100
 30
0
 40
2.5
  1
50
  0
ENDBLK
  8
0
  0
BLOCK
  8
0
  2
*D34
 70
0
 10
0
 20
0
 30
0
  0
LINE
  8
DIMENSION
 10
500
 20
-0.625
 30
0
 11
500
 21
-101.25
 31
0
  0
LINE
  8
DIMENSION
 10
555
 20
-0.625
 30
0
 11
555
 21
-101.25
 31
0
  0
LINE
  8
DIMENSION
 10
500
 20
-100
 30
0
 11
555
 21
-100
 31
0
  0
TEXT
  8
DIMENSION
 10
527.5
 20
-100
 30
0
 40
2.5
  1
55
  0
ENDBLK
  8
0
  0
BLOCK
  8
0
  2
*D35
 70
0
 10
0
 20
0
 30
0
  0
LINE
  8
DIMENSION
 10
555
 20
-0.625
 30
0
 11
555
 21
-101.25
 31
0
  0
LINE
  8
DIMENSION
 10
595
 20
-0.625
 30
0
 11
595
 21
-101.25
 31
0
  0
LINE
  8
DIMENSION
 10
555
 20
-100
 30
0
 11
595
 21
-100
 31
0
  0
TEXT
  8
DIMENSION
 10
575
 20
-100
 30
0
 40
2.5
  1
40
  0
ENDBLK
  8
0
  0
BLOCK
  8
0
  2
*D36
 70
0
 10
0
 20
0
 30
0
  0
LINE
  8
DIMENSION
 10
595
 20
-0.625
 30
0
 11
595
 21
-101.25
 31
0
  0
LINE
  8
DIMENSION
 10
655
 20
-0.625
 30
0
 11
655
 21
-101.25
 31
0
  0
LINE
  8
DIMENSION
 10
595
 20
-100
 30
0
 11
655
 21
-100
 31
0
  0
TEXT
  8
DIMENSION
 10
625
 20
-100
 30
0
 40
2.5
  1
60
  0
ENDBLK
  8
0
  0
BLOCK
  8
0
  2
*D37
 70
0
 10
0
 20
0
 30
0
  0
LINE
  8
DIMENSION
 10
655
 20
-0.625
 30
0
 11
655
 21
-101.25
 31
0
  0
LINE
  8
DIMENSION
 10
695
 20
-0.625
 30
0
 11
695
 21
-101.25
 31
0
  0
LINE
  8
DIMENSION
 10
655
 20
-100
 30
0
 11
695
 21
-100
 31
0
  0
TEXT
  8
DIMENSION
 10
675
 20
-100
 30
0
 40
2.5
  1
40
  0
ENDBLK
  8
0
  0
BLOCK
  8
0
  2
*D38
 70
0
 10
0
 20
0
 30
0
  0
LINE
  8
DIMENSION
 10
695
 20
-0.625
 30
0
 11
695
 21
-101.25
 31
0
  0
LINE
  8
DIMENSION
 10
750
 20
-0.625
 30
0
 11
750
 21
-101.25
 31
0
  0
LINE
  8
DIMENSION
 10
695
 20
-100
 30
0
 11
750
 21
-100
 31
0
  0
TEXT
  8
DIMENSION
 10
722.5
 20
-100
 30
0
 40
2.5
  1
55
  0
ENDBLK
  8
0
  0
BLOCK
  8
0
  2
*D39
 70
0
 10
0
 20
0
 30
0
  0
LINE
  8
DIMENSION
 10
750.625
 20
360
 30
0
 11
851.25
 21
360
 31
0
  0
LINE
  8
DIMENSION
 10
750.625
 20
650
 30
0
 11
851.25
 21
650
 31
0
  0
LINE
  8
DIMENSION
 10
850
 20
360
 30
0
 11
850
 21
650
 31
0
  0
TEXT
  8
DIMENSION
 10
850
 20
505
 30
0
 40
2.5
  1
290
 50
90
  0
ENDBLK
  8
0
  0
BLOCK
  8
0
  2
*D40
 70
0
 10
0
 20
0
 30
0
  0
LINE
  8
DIMENSION
 10
555
 20
650.625
 30
0
 11
555
 21
701.25
 31
0
  0
LINE
  8
DIMENSION
 10
695
 20
650.625
 30
0
 11
695
 21
701.25
 31
0
  0
LINE
  8
DIMENSION
 10
555
 20
700
 30
0
 11
695
 21
700
 31
0
  0
TEXT
  8
DIMENSION
 10
625
 20
700
 30
0
 40
2.5
  1
140
  0
ENDBLK
  8
0
  0
BLOCK
  8
0
  2
*D41
 70
0
 10
0
 20
0
 30
0
  0
LINE
  8
DIMENSION
 10
250.625
 20
510
 30
0
 11
351.25
 21
510
 31
0
  0
LINE
  8
DIMENSION
 10
250.625
 20
550
 30
0
 11
351.25
 21
550
 31
0
  0
LINE
  8
DIMENSION
 10
350
 20
510
 30
0
 11
350
 21
550
 31
0
  0
TEXT
  8
DIMENSION
 10
350
 20
530
 30
0
 40
2.5
  1
40
 50
90
  0
ENDBLK
  8
0
  0
BLOCK
  8
0
  2
*D42
 70
0
 10
0
 20
0
 30
0
  0
LINE
  8
DIMENSION
 10
250.625
 20
550
 30
0
 11
351.25
 21
550
 31
0
  0
LINE
  8
DIMENSION
 10
250.625
 20
610
 30
0
 11
351.25
 21
610
 31
0
  0
LINE
  8
DIMENSION
 10
350
 20
550
 30
0
 11
350
 21
610
 31
0
  0
TEXT
  8
DIMENSION
 10
350
 20
580
 30
0
 40
2.5
  1
60
 50
90
  0
ENDBLK
  8
0
  0
BLOCK
  8
0
  2
*D43
 70
0
 10
0
 20
0
 30
0
  0
LINE
  8
DIMENSION
 10
250.625
 20
610
 30
0
 11
351.25
 21
610
 31
0
  0
LINE
  8
DIMENSION
 10
250.625
 20
670
 30
0
 11
351.25
 21
670
 31
0
  0
LINE
  8
DIMENSION
 10
350
 20
610
 30
0
 11
350
 21
670
 31
0
  0
TEXT
  8
DIMENSION
 10
350
 20
640
 30
0
 40
2.5
  1
60
 50
90
  0
ENDBLK
  8
0
  0
BLOCK
  8
0
  2
*D44
 70
0
 10
0
 20
0
 30
0
  0
LINE
  8
DIMENSION
 10
250.625
 20
670
 30
0
 11
351.25
 21
670
 31
0
  0
LINE
  8
DIMENSION
 10
250.625
 20
710
 30
0
 11
351.25
 21
710
 31
0
  0
LINE
  8
DIMENSION
 10
350
 20
670
 30
0
 11
350
 21
710
 31
0
  0
TEXT
  8
DIMENSION
 10
350
 20
690
 30
0
 40
2.5
  1
40
 50
90
  0
ENDBLK
  8
0
  0
BLOCK
  8
0
  2
*D45
 70
0
 10
0
 20
0
 30
0
  0
LINE
  8
DIMENSION
 10
695.625
 20
360
 30
0
 11
851.25
 21
360
 31
0
  0
LINE
  8
DIMENSION
 10
695.625
 20
400
 30
0
 11
851.25
 21
400
 31
0
  0
LINE
  8
DIMENSION
 10
850
 20
360
 30
0
 11
850
 21
400
 31
0
  0
TEXT
  8
DIMENSION
 10
850
 20
380
 30
0
 40
2.5
  1
40
 50
90
  0
ENDBLK
  8
0
  0
BLOCK
  8
0
  2
*D46
 70
0
 10
0
 20
0
 30
0
  0
LINE
  8
DIMENSION
 10
695.625
 20
400
 30
0
 11
851.25
 21
400
 31
0
  0
LINE
  8
DIMENSION
 10
695.625
 20
460
 30
0
 11
851.25
 21
460
 31
0
  0
LINE
  8
DIMENSION
 10
850
 20
400
 30
0
 11
850
 21
460
 31
0
  0
TEXT
  8
DIMENSION
 10
850
 20
430
 30
0
 40
2.5
  1
60
 50
90
  0
ENDBLK
  8
0
  0
BLOCK
  8
0
  2
*D47
 70
0
 10
0
 20
0
 30
0
  0
LINE
  8
DIMENSION
 10
695.625
 20
460
 30
0
 11
851.25
 21
460
 31
0
  0
LINE
  8
DIMENSION
 10
695.625
 20
500
 30
0
 11
851.25
 21
500
 31
0
  0
LINE
  8
DIMENSION
 10
850
 20
460
 30
0
 11
850
 21
500
 31
0
  0
TEXT
  8
DIMENSION
 10
850
 20
480
 30
0
 40
2.5
  1
40
 50
90
  0
ENDBLK
  8
0
  0
BLOCK
  8
0
  2
*D48
 70
0
 10
0
 20
0
 30
0
  0
LINE
  8
DIMENSION
 10
0
 20
-0.625
 30
0
 11
0
 21
-201.25
 31
0
  0
LINE
  8
DIMENSION
 10
250
 20
-0.625
 30
0
 11
250
 21
-201.25
 31
0
  0
LINE
  8
DIMENSION
 10
0
 20
-200
 30
0
 11
250
 21
-200
 31
0
  0
TEXT
  8
DIMENSION
 10
125
 20
-200
 30
0
 40
2.5
  1
250
  0
ENDBLK
  8
0
  0
BLOCK
  8
0
  2
*D49
 70
0
 10
0
 20
0
 30
0
  0
LINE
  8
DIMENSION
 10
500
 20
-0.625
 30
0
 11
500
 21
-201.25
 31
0
  0
LINE
  8
DIMENSION
 10
750
 20
-0.625
 30
0
 11
750
 21
-201.25
 31
0
  0
LINE
  8
DIMENSION
 10
500
 20
-200
 30
0
 11
750
 21
-200
 31
0
  0
TEXT
  8
DIMENSION
 10
625
 20
-200
 30
0
 40
2.5
  1
250
  0
ENDBLK
  8
0
  0
BLOCK
  8
0
  2
*D50
 70
0
 10
0
 20
0
 30
0
  0
LINE
  8
DIMENSION
 10
695.625
 20
510
 30
0
 11
951.25
 21
510
 31
0
  0
LINE
  8
DIMENSION
 10
695.625
 20
550
 30
0
 11
951.25
 21
550
 31
0
  0
LINE
  8
DIMENSION
 10
950
 20
510
 30
0
 11
950
 21
550
 31
0
  0
TEXT
  8
DIMENSION
 10
950
 20
530
 30
0
 40
2.5
  1
40
 50
90
  0
ENDBLK
  8
0
  0
BLOCK
  8
0
  2
*D51
 70
0
 10
0
 20
0
 30
0
  0
LINE
  8
DIMENSION
 10
695.625
 20
550
 30
0
 11
951.25
 21
550
 31
0
  0
LINE
  8
DIMENSION
 10
695.625
 20
610
 30
0
 11
951.25
 21
610
 31
0
  0
LINE
  8
DIMENSION
 10
950
 20
550
 30
0
 11
950
 21
610
 31
0
  0
TEXT
  8
DIMENSION
 10
950
 20
580
 30
0
 40
2.5
  1
60
 50
90
  0
ENDBLK
  8
0
  0
BLOCK
  8
0
  2
*D52
 70
0
 10
0
 20
0
 30
0
  0
LINE
  8
DIMENSION
 10
695.625
 20
610
 30
0
 11
951.25
 21
610
 31
0
  0
LINE
  8
DIMENSION
 10
695.625
 20
650
 30
0
 11
951.25
 21
650
 31
0
  0
LINE
  8
DIMENSION
 10
950
 20
610
 30
0
 11
950
 21
650
 31
0
  0
TEXT
  8
DIMENSION
 10
950
 20
630
 30
0
 40
2.5
  1
40
 50
90
  0
ENDBLK
  8
0
  0
BLOCK
  8
0
  2
*D53
 70
0
 10
0
 20
0
 30
0
  0
LINE
  8
DIMENSION
 10
250.625
 20
300
 30
0
 11
351.25
 21
300
 31
0
  0
LINE
  8
DIMENSION
 10
250.625
 20
340
 30
0
 11
351.25
 21
340
 31
0
  0
LINE
  8
DIMENSION
 10
350
 20
300
 30
0
 11
350
 21
340
 31
0
  0
TEXT
  8
DIMENSION
 10
350
 20
320
 30
0
 40
2.5
  1
40
 50
90
  0
ENDBLK
  8
0
  0
BLOCK
  8
0
  2
*D54
 70
0
 10
0
 20
0
 30
0
  0
LINE
  8
DIMENSION
 10
250.625
 20
340
 30
0
 11
351.25
 21
340
 31
0
  0
LINE
  8
DIMENSION
 10
250.625
 20
400
 30
0
 11
351.25
 21
400
 31
0
  0
LINE
  8
DIMENSION
 10
350
 20
340
 30
0
 11
350
 21
400
 31
0
  0
TEXT
  8
DIMENSION
 10
350
 20
370
 30
0
 40
2.5
  1
60
 50
90
  0
ENDBLK
  8
0
  0
BLOCK
  8
0
  2
*D55
 70
0
 10
0
 20
0
 30
0
  0
LINE
  8
DIMENSION
 10
250.625
 20
400
 30
0
 11
351.25
 21
400
 31
0
  0
LINE
  8
DIMENSION
 10
250.625
 20
460
 30
0
 11
351.25
 21
460
 31
0
  0
LINE
  8
DIMENSION
 10
350
 20
400
 30
0
 11
350
 21
460
 31
0
  0
TEXT
  8
DIMENSION
 10
350
 20
430
 30
0
 40
2.5
  1
60
 50
90
  0
ENDBLK
  8
0
  0
BLOCK
  8
0
  2
*D56
 70
0
 10
0
 20
0
 30
0
  0
LINE
  8
DIMENSION
 10
250.625
 20
460
 30
0
 11
351.25
 21
460
 31
0
  0
LINE
  8
DIMENSION
 10
250.625
 20
500
 30
0
 11
351.25
 21
500
 31
0
  0
LINE
  8
DIMENSION
 10
350
 20
460
 30
0
 11
350
 21
500
 31
0
  0
TEXT
  8
DIMENSION
 10
350
 20
480
 30
0
 40
2.5
  1
40
 50
90
  0
ENDBLK
  8
0
  0
BLOCK
  8
0
  2
*D57
 70
0
 10
0
 20
0
 30
0
  0
LINE
  8
DIMENSION
 10
750.625
 20
360
 30
0
 11
851.25
 21
360
 31
0
  0
LINE
  8
DIMENSION
 10
750.625
 20
650
 30
0
 11
851.25
 21
650
 31
0
  0
LINE
  8
DIMENSION
 10
850
 20
360
 30
0
 11
850
 21
650
 31
0
  0
TEXT
  8
DIMENSION
 10
850
 20
505
 30
0
 40
2.5
  1
290
 50
90
  0
ENDBLK
  8
0
  0
BLOCK
  8
0
  2
*D58
 70
0
 10
0
 20
0
 30
0
  0
LINE
  8
DIMENSION
 10
555
 20
650.625
 30
0
 11
555
 21
701.25
 31
0
  0
LINE
  8
DIMENSION
 10
695
 20
650.625
 30
0
 11
695
 21
701.25
 31
0
  0
LINE
  8
DIMENSION
 10
555
 20
700
 30
0
 11
695
 21
700
 31
0
  0
TEXT
  8
DIMENSION
 10
625
 20
700
 30
0
 40
2.5
  1
140
  0
ENDBLK
  8
0
  0
BLOCK
  8
0
  2
*D59
 70
0
 10
0
 20
0
 30
0
  0
LINE
  8
DIMENSION
 10
250.625
 20
340
 30
0
 11
351.25
 21
340
 31
0
  0
LINE
  8
DIMENSION
 10
250.625
 20
400
 30
0
 11
351.25
 21
400
 31
0
  0
LINE
  8
DIMENSION
 10
350
 20
340
 30
0
 11
350
 21
400
 31
0
  0
TEXT
  8
DIMENSION
 10
350
 20
370
 30
0
 40
2.5
  1
60
 50
90
  0
ENDBLK
  8
0
  0
BLOCK
  8
0
  2
*D60
 70
0
 10
0
 20
0
 30
0
  0
LINE
  8
DIMENSION
 10
250.625
 20
400
 30
0
 11
351.25
 21
400
 31
0
  0
LINE
  8
DIMENSION
 10
250.625
 20
460
 30
0
 11
351.25
 21
460
 31
0
  0
LINE
  8
DIMENSION
 10
350
 20
400
 30
0
 11
350
 21
460
 31
0
  0
TEXT
  8
DIMENSION
 10
350
 20
430
 30
0
 40
2.5
  1
60
 50
90
  0
ENDBLK
  8
0
  0
BLOCK
  8
0
  2
*D61
 70
0
 10
0
 20
0
 30
0
  0
LINE
  8
DIMENSION
 10
250.625
 20
550
 30
0
 11
351.25
 21
550
 31
0
  0
LINE
  8
DIMENSION
 10
250.625
 20
610
 30
0
 11
351.25
 21
610
 31
0
  0
LINE
  8
DIMENSION
 10
350
 20
550
 30
0
 11
350
 21
610
 31
0
  0
TEXT
  8
DIMENSION
 10
350
 20
580
 30
0
 40
2.5
  1
60
 50
90
  0
ENDBLK
  8
0
  0
BLOCK
  8
0
  2
*D62
 70
0
 10
0
 20
0
 30
0
  0
LINE
  8
DIMENSION
 10
250.625
 20
300
 30
0
 11
451.25
 21
300
 31
0
  0
LINE
  8
DIMENSION
 10
250.625
 20
710
 30
0
 11
451.25
 21
710
 31
0
  0
LINE
  8
DIMENSION
 10
450
 20
300
 30
0
 11
450
 21
710
 31
0
  0
TEXT
  8
DIMENSION
 10
450
 20
505
 30
0
 40
2.5
  1
410
 50
90
  0
ENDBLK
  8
0
  0
BLOCK
  8
0
  2
*D63
 70
0
 10
0
 20
0
 30
0
  0
LINE
  8
U-ANNO-DIM
 10
250.625
 20
350
 30
0
 11
261.25
 21
350
 31
0
  0
LINE
  8
U-ANNO-DIM
 10
250.625
 20
380
 30
0
 11
261.25
 21
380
 31
0
  0
LINE
  8
U-ANNO-DIM
 10
260
 20
350
 30
0
 11
260
 21
380
 31
0
  0
TEXT
  8
U-ANNO-DIM
 10
260
 20
365
 30
0
 40
2.5
  1
30
 50
90
  0
ENDBLK
  8
0
  0
BLOCK
  8
0
  2
*D64
 70
0
 10
0
 20
0
 30
0
  0
LINE
  8
U-ANNO-DIM
 10
250.625
 20
380
 30
0
 11
261.25
 21
380
 31
0
  0
LINE
  8
U-ANNO-DIM
 10
250.625
 20
440
 30
0
 11
261.25
 21
440
 31
0
  0
LINE
  8
U-ANNO-DIM
 10
260
 20
380
 30
0
 11
260
 21
440
 31
0
  0
TEXT
  8
U-ANNO-DIM
 10
260
 20
410
 30
0
 40
2.5
  1
60
 50
90
  0
ENDBLK
  8
0
  0
BLOCK
  8
0
  2
*D65
 70
0
 10
0
 20
0
 30
0
  0
LINE
  8
U-ANNO-DIM
 10
250.625
 20
440
 30
0
 11
261.25
 21
440
 31
0
  0
LINE
  8
U-ANNO-DIM
 10
250.625
 20
500
 30
0
 11
261.25
 21
500
 31
0
  0
LINE
  8
U-ANNO-DIM
 10
260
 20
440
 30
0
 11
260
 21
500
 31
0
  0
TEXT
  8
U-ANNO-DIM
 10
260
 20
470
 30
0
 40
2.5
  1
60
 50
90
  0
ENDBLK
  8
0
  0
BLOCK
  8
0
  2
*D66
 70
0
 10
0
 20
0
 30
0
  0
LINE
  8
U-ANNO-DIM
 10
250.625
 20
500
 30
0
 11
261.25
 21
500
 31
0
  0
LINE
  8
U-ANNO-DIM
 10
250.625
 20
560
 30
0
 11
261.25
 21
560
 31
0
  0
LINE
  8
U-ANNO-DIM
 10
260
 20
500
 30
0
 11
260
 21
560
 31
0
  0
TEXT
  8
U-ANNO-DIM
 10
260
 20
530
 30
0
 40
2.5
  1
60
 50
90
  0
ENDBLK
  8
0
  0
BLOCK
  8
0
  2
*D67
 70
0
 10
0
 20
0
 30
0
  0
LINE
  8
U-ANNO-DIM
 10
250.625
 20
560
 30
0
 11
261.25
 21
560
 31
0
  0
LINE
  8
U-ANNO-DIM
 10
250.625
 20
620
 30
0
 11
261.25
 21
620
 31
0
  0
LINE
  8
U-ANNO-DIM
 10
260
 20
560
 30
0
 11
260
 21
620
 31
0
  0
TEXT
  8
U-ANNO-DIM
 10
260
 20
590
 30
0
 40
2.5
  1
60
 50
90
  0
ENDBLK
  8
0
  0
BLOCK
  8
0
  2
*D68
 70
0
 10
0
 20
0
 30
0
  0
LINE
  8
U-ANNO-DIM
 10
250.625
 20
620
 30
0
 11
261.25
 21
620
 31
0
  0
LINE
  8
U-ANNO-DIM
 10
250.625
 20
650
 30
0
 11
261.25
 21
650
 31
0
  0
LINE
  8
U-ANNO-DIM
 10
260
 20
620
 30
0
 11
260
 21
650
 31
0
  0
TEXT
  8
U-ANNO-DIM
 10
260
 20
635
 30
0
 40
2.5
  1
30
 50
90
  0
ENDBLK
  8
0
  0
BLOCK
  8
0
  2
*D69
 70
0
 10
0
 20
0
 30
0
  0
LINE
  8
U-ANNO-DIM
 10
250.625
 20
350
 30
0
 11
269.25
 21
350
 31
0
  0
LINE
  8
U-ANNO-DIM
 10
250.625
 20
650
 30
0
 11
269.25
 21
650
 31
0
  0
LINE
  8
U-ANNO-DIM
 10
268
 20
350
 30
0
 11
268
 21
650
 31
0
  0
TEXT
  8
U-ANNO-DIM
 10
268
 20
500
 30
0
 40
2.5
  1
300
 50
90
  0
ENDBLK
  8
0
  0
ENDSEC
  0
SECTION
  2
ENTITIES
  0
DIMENSION
  8
DIMENSION
  3
STANDARD
  2
*D3
 10
-100
 20
710
 30
0
 11
-100
 21
505
 31
0
 13
0
 23
300
 33
0
 14
0
 24
710
 34
0
 70
0
 42
410
 50
90
  1
410
  0
DIMENSION
  8
DIMENSION
  3
STANDARD
  2
*D4
 10
250
 20
-100
 30
0
 11
125
 21
-100
 31
0
 14
250
 24
0
 34
0
 70
0
 42
250
  1
250
  0
DIMENSION
  8
DIMENSION
  3
STANDARD
  2
*D5
 10
50
 20
-50
 30
0
 11
25
 21
-50
 31
0
 14
50
 24
0
 34
0
 70
0
 42
50
  1
50
  0
DIMENSION
  8
DIMENSION
  3
STANDARD
  2
*D6
 10
200
 20
-50
 30
0
 11
125
 21
-50
 31
0
 13
50
 23
0
 33
0
 14
200
 24
0
 34
0
 70
0
 42
150
  1
150
  0
DIMENSION
  8
DIMENSION
  3
STANDARD
  2
*D7
 10
250
 20
-50
 30
0
 11
225
 21
-50
 31
0
 13
200
 23
0
 33
0
 14
250
 24
0
 34
0
 70
0
 42
50
  1
50
  0
DIMENSION
  8
DIMENSION
  3
STANDARD
  2
*D8
 10
-50
 20
340
 30
0
 11
-50
 21
320
 31
0
 13
0
 23
300
 33
0
 14
0
 24
340
 34
0
 70
0
 42
40
 50
90
  1
40
  0
DIMENSION
  8
DIMENSION
  3
STANDARD
  2
*D9
 10
-50
 20
400
 30
0
 11
-50
 21
370
 31
0
 13
0
 23
340
 33
0
 14
0
 24
400
 34
0
 70
0
 42
60
 50
90
  1
60
  0
DIMENSION
  8
DIMENSION
  3
STANDARD
  2
*D10
 10
-50
 20
460
 30
0
 11
-50
 21
430
 31
0
 13
0
 23
400
 33
0
 14
0
 24
460
 34
0
 70
0
 42
60
 50
90
  1
60
  0
DIMENSION
  8
DIMENSION
  3
STANDARD
  2
*D11
 10
-50
 20
500
 30
0
 11
-50
 21
480
 31
0
 13
0
 23
460
 33
0
 14
0
 24
500
 34
0
 70
0
 42
40
 50
90
  1
40
  0
DIMENSION
  8
DIMENSION
  3
STANDARD
  2
*D12
 10
555
 20
-50
 30
0
 11
527.5
 21
-50
 31
0
 13
500
 23
0
 33
0
 14
555
 24
0
 34
0
 70
0
 42
55
  1
55
  0
DIMENSION
  8
DIMENSION
  3
STANDARD
  2
*D13
 10
595
 20
-50
 30
0
 11
575
 21
-50
 31
0
 13
555
 23
0
 33
0
 14
595
 24
0
 34
0
 70
0
 42
40
  1
40
  0
DIMENSION
  8
DIMENSION
  3
STANDARD
  2
*D14
 10
655
 20
-50
 30
0
 11
625
 21
-50
 31
0
 13
595
 23
0
 33
0
 14
655
 24
0
 34
0
 70
0
 42
60
  1
60
  0
DIMENSION
  8
DIMENSION
  3
STANDARD
  2
*D15
 10
695
 20
-50
 30
0
 11
675
 21
-50
 31
0
 13
655
 23
0
 33
0
 14
695
 24
0
 34
0
 70
0
 42
40
  1
40
  0
DIMENSION
  8
DIMENSION
  3
STANDARD
  2
*D16
 10
750
 20
-50
 30
0
 11
722.5
 21
-50
 31
0
 13
695
 23
0
 33
0
 14
750
 24
0
 34
0
 70
0
 42
55
  1
55
  0
DIMENSION
  8
DIMENSION
  3
STANDARD
  2
*D17
 10
800
 20
650
 30
0
 11
800
 21
505
 31
0
 13
750
 23
360
 33
0
 14
750
 24
650
 34
0
 70
0
 42
290
 50
90
  1
290
  0
DIMENSION
  8
DIMENSION
  3
STANDARD
  2
*D18
 10
695
 20
700
 30
0
 11
625
 21
700
 31
0
 13
555
 23
650
 33
0
 14
695
 24
650
 34
0
 70
0
 42
140
  1
140
  0
DIMENSION
  8
DIMENSION
  3
STANDARD
  2
*D19
 10
-150
 20
710
 30
0
 11
-150
 21
505
 31
0
 13
0
 23
300
 33
0
 14
0
 24
710
 34
0
 70
0
 42
410
 50
90
  1
410
  0
DIMENSION
  8
DIMENSION
  3
STANDARD
  2
*D20
 10
100
 20
250
 30
0
 11
50
 21
250
 31
0
 13
0
 23
300
 33
0
 14
100
 24
300
 34
0
 70
0
 42
100
  1
100
  0
DIMENSION
  8
DIMENSION
  3
STANDARD
  2
*D21
 10
-50
 20
550
 30
0
 11
-50
 21
530
 31
0
 13
0
 23
510
 33
0
 14
0
 24
550
 34
0
 70
0
 42
40
 50
90
  1
40
  0
DIMENSION
  8
DIMENSION
  3
STANDARD
  2
*D22
 10
-50
 20
610
 30
0
 11
-50
 21
580
 31
0
 13
0
 23
550
 33
0
 14
0
 24
610
 34
0
 70
0
 42
60
 50
90
  1
60
  0
DIMENSION
  8
DIMENSION
  3
STANDARD
  2
*D23
 10
-50
 20
670
 30
0
 11
-50
 21
640
 31
0
 13
0
 23
610
 33
0
 14
0
 24
670
 34
0
 70
0
 42
60
 50
90
  1
60
  0
DIMENSION
  8
DIMENSION
  3
STANDARD
  2
*D24
 10
-50
 20
710
 30
0
 11
-50
 21
690
 31
0
 13
0
 23
670
 33
0
 14
0
 24
710
 34
0
 70
0
 42
40
 50
90
  1
40
  0
DIMENSION
  8
DIMENSION
  3
STANDARD
  2
*D25
 10
-100
 20
710
 30
0
 11
-100
 21
505
 31
0
 13
0
 23
300
 33
0
 14
0
 24
710
 34
0
 70
0
 42
410
 50
90
  1
410
  0
DIMENSION
  8
DIMENSION
  3
STANDARD
  2
*D26
 10
350
 20
340
 30
0
 11
350
 21
320
 31
0
 13
250
 23
300
 33
0
 14
250
 24
340
 34
0
 70
0
 42
40
 50
90
  1
40
  0
DIMENSION
  8
DIMENSION
  3
STANDARD
  2
*D27
 10
350
 20
400
 30
0
 11
350
 21
370
 31
0
 13
250
 23
340
 33
0
 14
250
 24
400
 34
0
 70
0
 42
60
 50
90
  1
60
  0
DIMENSION
  8
DIMENSION
  3
STANDARD
  2
*D28
 10
350
 20
460
 30
0
 11
350
 21
430
 31
0
 13
250
 23
400
 33
0
 14
250
 24
460
 34
0
 70
0
 42
60
 50
90
  1
60
  0
DIMENSION
  8
DIMENSION
  3
STANDARD
  2
*D29
 10
350
 20
500
 30
0
 11
350
 21
480
 31
0
 13
250
 23
460
 33
0
 14
250
 24
500
 34
0
 70
0
 42
40
 50
90
  1
40
  0
DIMENSION
  8
DIMENSION
  3
STANDARD
  2
*D30
 10
100
 20
250
 30
0
 11
50
 21
250
 31
0
 13
0
 23
300
 33
0
 14
100
 24
300
 34
0
 70
0
 42
100
  1
100
  0
DIMENSION
  8
DIMENSION
  3
STANDARD
  2
*D31
 10
50
 20
-100
 30
0
 11
25
 21
-100
 31
0
 14
50
 24
0
 34
0
 70
0
 42
50
  1
50
  0
DIMENSION
  8
DIMENSION
  3
STANDARD
  2
*D32
 10
200
 20
-100
 30
0
 11
125
 21
-100
 31
0
 13
50
 23
0
 33
0
 14
200
 24
0
 34
0
 70
0
 42
150
  1
150
  0
DIMENSION
  8
DIMENSION
  3
STANDARD
  2
*D33
 10
250
 20
-100
 30
0
 11
225
 21
-100
 31
0
 13
200
 23
0
 33
0
 14
250
 24
0
 34
0
 70
0
 42
50
  1
50
  0
DIMENSION
  8
DIMENSION
  3
STANDARD
  2
*D34
 10
555
 20
-100
 30
0
 11
527.5
 21
-100
 31
0
 13
500
 23
0
 33
0
 14
555
 24
0
 34
0
 70
0
 42
55
  1
55
  0
DIMENSION
  8
DIMENSION
  3
STANDARD
  2
*D35
 10
595
 20
-100
 30
0
 11
575
 21
-100
 31
0
 13
555
 23
0
 33
0
 14
595
 24
0
 34
0
 70
0
 42
40
  1
40
  0
DIMENSION
  8
DIMENSION
  3
STANDARD
  2
*D36
 10
655
 20
-100
 30
0
 11
625
 21
-100
 31
0
 13
595
 23
0
 33
0
 14
655
 24
0
 34
0
 70
0
 42
60
  1
60
  0
DIMENSION
  8
DIMENSION
  3
STANDARD
  2
*D37
 10
695
 20
-100
 30
0
 11
675
 21
-100
 31
0
 13
655
 23
0
 33
0
 14
695
 24
0
 34
0
 70
0
 42
40
  1
40
  0
DIMENSION
  8
DIMENSION
  3
STANDARD
  2
*D38
 10
750
 20
-100
 30
0
 11
722.5
 21
-100
 31
0
 13
695
 23
0
 33
0
 14
750
 24
0
 34
0
 70
0
 42
55
  1
55
  0
DIMENSION
  8
DIMENSION
  3
STANDARD
  2
*D39
 10
850
 20
650
 30
0
 11
850
 21
505
 31
0
 13
750
 23
360
 33
0
 14
750
 24
650
 34
0
 70
0
 42
290
 50
90
  1
290
  0
DIMENSION
  8
DIMENSION
  3
STANDARD
  2
*D40
 10
695
 20
700
 30
0
 11
625
 21
700
 31
0
 13
555
 23
650
 33
0
 14
695
 24
650
 34
0
 70
0
 42
140
  1
140
  0
DIMENSION
  8
DIMENSION
  3
STANDARD
  2
*D41
 10
350
 20
550
 30
0
 11
350
 21
530
 31
0
 13
250
 23
510
 33
0
 14
250
 24
550
 34
0
 70
0
 42
40
 50
90
  1
40
  0
DIMENSION
  8
DIMENSION
  3
STANDARD
  2
*D42
 10
350
 20
610
 30
0
 11
350
 21
580
 31
0
 13
250
 23
550
 33
0
 14
250
 24
610
 34
0
 70
0
 42
60
 50
90
  1
60
  0
DIMENSION
  8
DIMENSION
  3
STANDARD
  2
*D43
 10
350
 20
670
 30
0
 11
350
 21
640
 31
0
 13
250
 23
610
 33
0
 14
250
 24
670
 34
0
 70
0
 42
60
 50
90
  1
60
  0
DIMENSION
  8
DIMENSION
  3
STANDARD
  2
*D44
 10
350
 20
710
 30
0
 11
350
 21
690
 31
0
 13
250
 23
670
 33
0
 14
250
 24
710
 34
0
 70
0
 42
40
 50
90
  1
40
  0
DIMENSION
  8
DIMENSION
  3
STANDARD
  2
*D45
 10
850
 20
400
 30
0
 11
850
 21
380
 31
0
 13
695
 23
360
 33
0
 14
695
 24
400
 34
0
 70
0
 42
40
 50
90
  1
40
  0
DIMENSION
  8
DIMENSION
  3
STANDARD
  2
*D46
 10
850
 20
460
 30
0
 11
850
 21
430
 31
0
 13
695
 23
400
 33
0
 14
695
 24
460
 34
0
 70
0
 42
60
 50
90
  1
60
  0
DIMENSION
  8
DIMENSION
  3
STANDARD
  2
*D47
 10
850
 20
500
 30
0
 11
850
 21
480
 31
0
 13
695
 23
460
 33
0
 14
695
 24
500
 34
0
 70
0
 42
40
 50
90
  1
40
  0
DIMENSION
  8
DIMENSION
  3
STANDARD
  2
*D48
 10
250
 20
-200
 30
0
 11
125
 21
-200
 31
0
 14
250
 24
0
 34
0
 70
0
 42
250
  1
250
  0
DIMENSION
  8
DIMENSION
  3
STANDARD
  2
*D49
 10
750
 20
-200
 30
0
 11
625
 21
-200
 31
0
 13
500
 23
0
 33
0
 14
750
 24
0
 34
0
 70
0
 42
250
  1
250
  0
DIMENSION
  8
DIMENSION
  3
STANDARD
  2
*D50
 10
950
 20
550
 30
0
 11
950
 21
530
 31
0
 13
695
 23
510
 33
0
 14
695
 24
550
 34
0
 70
0
 42
40
 50
90
  1
40
  0
DIMENSION
  8
DIMENSION
  3
STANDARD
  2
*D51
 10
950
 20
610
 30
0
 11
950
 21
580
 31
0
 13
695
 23
550
 33
0
 14
695
 24
610
 34
0
 70
0
 42
60
 50
90
  1
60
  0
DIMENSION
  8
DIMENSION
  3
STANDARD
  2
*D52
 10
950
 20
650
 30
0
 11
950
 21
630
 31
0
 13
695
 23
610
 33
0
 14
695
 24
650
 34
0
 70
0
 42
40
 50
90
  1
40
  0
DIMENSION
  8
DIMENSION
  3
STANDARD
  2
*D53
 10
350
 20
340
 30
0
 11
350
 21
320
 31
0
 13
250
 23
300
 33
0
 14
250
 24
340
 34
0
 70
0
 42
40
 50
90
  1
40
  0
DIMENSION
  8
DIMENSION
  3
STANDARD
  2
*D54
 10
350
 20
400
 30
0
 11
350
 21
370
 31
0
 13
250
 23
340
 33
0
 14
250
 24
400
 34
0
 70
0
 42
60
 50
90
  1
60
  0
DIMENSION
  8
DIMENSION
  3
STANDARD
  2
*D55
 10
350
 20
460
 30
0
 11
350
 21
430
 31
0
 13
250
 23
400
 33
0
 14
250
 24
460
 34
0
 70
0
 42
60
 50
90
  1
60
  0
DIMENSION
  8
DIMENSION
  3
STANDARD
  2
*D56
 10
350
 20
500
 30
0
 11
350
 21
480
 31
0
 13
250
 23
460
 33
0
 14
250
 24
500
 34
0
 70
0
 42
40
 50
90
  1
40
  0
DIMENSION
  8
DIMENSION
  3
STANDARD
  2
*D57
 10
850
 20
650
 30
0
 11
850
 21
505
 31
0
 13
750
 23
360
 33
0
 14
750
 24
650
 34
0
 70
0
 42
290
 50
90
  1
290
  0
DIMENSION
  8
DIMENSION
  3
STANDARD
  2
*D58
 10
695
 20
700
 30
0
 11
625
 21
700
 31
0
 13
555
 23
650
 33
0
 14
695
 24
650
 34
0
 70
0
 42
140
  1
140
  0
DIMENSION
  8
DIMENSION
  3
STANDARD
  2
*D59
 10
350
 20
400
 30
0
 11
350
 21
370
 31
0
 13
250
 23
340
 33
0
 14
250
 24
400
 34
0
 70
0
 42
60
 50
90
  1
60
  0
DIMENSION
  8
DIMENSION
  3
STANDARD
  2
*D60
 10
350
 20
460
 30
0
 11
350
 21
430
 31
0
 13
250
 23
400
 33
0
 14
250
 24
460
 34
0
 70
0
 42
60
 50
90
  1
60
  0
DIMENSION
  8
DIMENSION
  3
STANDARD
  2
*D61
 10
350
 20
610
 30
0
 11
350
 21
580
 31
0
 13
250
 23
550
 33
0
 14
250
 24
610
 34
0
 70
0
 42
60
 50
90
  1
60
  0
DIMENSION
  8
DIMENSION
  3
STANDARD
  2
*D62
 10
450
 20
710
 30
0
 11
450
 21
505
 31
0
 13
250
 23
300
 33
0
 14
250
 24
710
 34
0
 70
0
 42
410
 50
90
  1
410
  0
LINE
  8
S-BEAM-CUT
 10
0
 20
0
 30
0
 11
0
 21
1000
 31
0
  0
LINE
  8
S-BEAM-CUT
 10
250
 20
0
 30
0
 11
250
 21
1000
 31
0
  0
LINE
  8
S-MISC-HID
 10
120.5
 20
0
 30
0
 11
120.5
 21
1000
 31
0
  0
LINE
  8
S-MISC-HID
 10
129.5
 20
0
 30
0
 11
129.5
 21
1000
 31
0
  0
LINE
  8
S-GRID-CTR
 10
125
 20
-50
 30
0
 11
125
 21
1050
 31
0
  0
CIRCLE
  8
S-BOLT-STD
 10
95
 20
380
 30
0
 40
11
  0
CIRCLE
  8
S-BOLT-STD
 10
155
 20
380
 30
0
 40
11
  0
CIRCLE
  8
S-BOLT-STD
 10
95
 20
440
 30
0
 40
11
  0
CIRCLE
  8
S-BOLT-STD
 10
155
 20
440
 30
0
 40
11
  0
CIRCLE
  8
S-BOLT-STD
 10
95
 20
500
 30
0
 40
11
  0
CIRCLE
  8
S-BOLT-STD
 10
155
 20
500
 30
0
 40
11
  0
CIRCLE
  8
S-BOLT-STD
 10
95
 20
560
 30
0
 40
11
  0
CIRCLE
  8
S-BOLT-STD
 10
155
 20
560
 30
0
 40
11
  0
CIRCLE
  8
S-BOLT-STD
 10
95
 20
620
 30
0
 40
11
  0
CIRCLE
  8
S-BOLT-STD
 10
155
 20
620
 30
0
 40
11
  0
DIMENSION
  8
U-ANNO-DIM
  3
STANDARD
  2
*D63
 10
260
 20
380
 30
0
 11
260
 21
365
 31
0
 13
250
 23
350
 33
0
 14
250
 24
380
 34
0
 70
0
 42
30
 50
90
  1
30
  0
DIMENSION
  8
U-ANNO-DIM
  3
STANDARD
  2
*D64
 10
260
 20
440
 30
0
 11
260
 21
410
 31
0
 13
250
 23
380
 33
0
 14
250
 24
440
 34
0
 70
0
 42
60
 50
90
  1
60
  0
DIMENSION
  8
U-ANNO-DIM
  3
STANDARD
  2
*D65
 10
260
 20
500
 30
0
 11
260
 21
470
 31
0
 13
250
 23
440
 33
0
 14
250
 24
500
 34
0
 70
0
 42
60
 50
90
  1
60
  0
DIMENSION
  8
U-ANNO-DIM
  3
STANDARD
  2
*D66
 10
260
 20
560
 30
0
 11
260
 21
530
 31
0
 13
250
 23
500
 33
0
 14
250
 24
560
 34
0
 70
0
 42
60
 50
90
  1
60
  0
DIMENSION
  8
U-ANNO-DIM
  3
STANDARD
  2
*D67
 10
260
 20
620
 30
0
 11
260
 21
590
 31
0
 13
250
 23
560
 33
0
 14
250
 24
620
 34
0
 70
0
 42
60
 50
90
  1
60
  0
DIMENSION
  8
U-ANNO-DIM
  3
STANDARD
  2
*D68
 10
260
 20
650
 30
0
 11
260
 21
635
 31
0
 13
250
 23
620
 33
0
 14
250
 24
650
 34
0
 70
0
 42
30
 50
90
  1
30
  0
DIMENSION
  8
U-ANNO-DIM
  3
STANDARD
  2
*D69
 10
268
 20
650
 30
0
 11
268
 21
500
 31
0
 13
250
 23
350
 33
0
 14
250
 24
650
 34
0
 70
0
 42
300
 50
90
  1
300
  0
ENDSEC
  0
EOF