  0
SECTION
  2
HEADER
  9
$ACADVER
  1
AC1015
  9
$INSUNITS
 70
0
  9
$EXTMIN
 10
-51.08
 20
-76.19
 30
0
  9
$EXTMAX
 10
125.7
 20
22.02
 30
0
  0
ENDSEC
  0
SECTION
  2
TABLES
  0
TABLE
  2
LTYPE
 70
7
  0
LTYPE
  2
CONTINUOUS
 70
0
  3
Solid line
 72
65
 73
0
 40
0
  0
LTYPE
  2
DASHED
 70
0
  3
Dashed line
 72
65
 73
2
 40
0.75
 49
0.5
 49
-0.25
  0
LTYPE
  2
HIDDEN
 70
0
  3
Hidden line
 72
65
 73
2
 40
9.525
 49
6.35
 49
-3.175
  0
LTYPE
  2
CENTER
 70
0
  3
Center line
 72
65
 73
4
 40
50.8
 49
31.75
 49
-6.35
 49
6.35
 49
-6.35
  0
LTYPE
  2
DASHDOT
 70
0
  3
Dash dot line
 72
65
 73
4
 40
25.4
 49
12.7
 49
-6.35
 49
0
 49
-6.35
  0
LTYPE
  2
PHANTOM
 70
0
  3
Phantom line
 72
65
 73
6
 40
63.5
 49
31.75
 49
-6.35
 49
6.35
 49
-6.35
 49
6.35
 49
-6.35
  0
LTYPE
  2
DOT
 70
0
  3
Dotted line
 72
65
 73
2
 40
6.35
 49
0
 49
-6.35
  0
ENDTAB
  0
TABLE
  2
LAYER
 70
36
  0
LAYER
  2
0
 70
0
 62
7
  6
CONTINUOUS
  0
LAYER
  2
STAIR_STR
 70
0
 62
7
  6
CONTINUOUS
  0
LAYER
  2
STAIR_REBAR
 70
0
 62
1
  6
CONTINUOUS
  0
LAYER
  2
STAIR_HATCH
 70
0
 62
8
  6
CONTINUOUS
  0
LAYER
  2
COLUMN
 70
0
 62
7
  6
CONTINUOUS
  0
LAYER
  2
BEAM
 70
0
 62
4
  6
CONTINUOUS
  0
LAYER
  2
CONNECTION
 70
0
 62
2
  6
CONTINUOUS
  0
LAYER
  2
LABEL
 70
0
 62
7
  6
CONTINUOUS
  0
LAYER
  2
HIDDEN
 70
0
 62
6
  6
CONTINUOUS
  0
LAYER
  2
DIMENSION
 70
0
 62
3
  6
CONTINUOUS
  0
LAYER
  2
PLATE
 70
0
 62
4
  6
CONTINUOUS
  0
LAYER
  2
BOLT
 70
0
 62
2
  6
CONTINUOUS
  0
LAYER
  2
S-BEAM-CUT
 70
0
 62
4
  6
CONTINUOUS
  0
LAYER
  2
S-PLAT-CUT
 70
0
 62
3
  6
CONTINUOUS
  0
LAYER
  2
S-BOLT-STD
 70
0
 62
2
  6
CONTINUOUS
  0
LAYER
  2
S-MISC-HID
 70
0
 62
8
  6
CONTINUOUS
  0
LAYER
  2
S-GRID-CTR
 70
0
 62
1
  6
CONTINUOUS
  0
LAYER
  2
U-ANNO-DIM
 70
0
 62
7
  6
CONTINUOUS
  0
LAYER
  2
U-ANNO-TXT
 70
0
 62
7
  6
CONTINUOUS
  0
LAYER
  2
OUTLINE_TRACE
 70
0
 62
3
  6
CONTINUOUS
  0
LAYER
  2
A-GRID
 70
0
 62
8
  6
CONTINUOUS
  0
LAYER
  2
A-WALL
 70
0
 62
7
  6
CONTINUOUS
  0
LAYER
  2
A-TEXT
 70
0
 62
7
  6
CONTINUOUS
  0
LAYER
  2
A-DIM
 70
0
 62
7
  6
CONTINUOUS
  0
LAYER
  2
PURLIN
 70
0
 62
3
  6
CONTINUOUS
  0
LAYER
  2
BRACING
 70
0
 62
5
  6
CONTINUOUS
  0
LAYER
  2
TRUSS
 70
0
 62
6
  6
CONTINUOUS
  0
LAYER
  2
FOUNDATION
 70
0
 62
8
  6
CONTINUOUS
  0
LAYER
  2
LINES_TOP
 70
0
 62
4
  6
CONTINUOUS
  0
LAYER
  2
LINES_MIDDLE
 70
0
 62
5
  6
CONTINUOUS
  0
LAYER
  2
LINES_BOTTOM
 70
0
 62
7
  6
CONTINUOUS
  0
LAYER
  2
ANNOTATION
 70
0
 62
7
  6
CONTINUOUS
  0
LAYER
  2
GRID
 70
0
 62
8
  6
CONTINUOUS
  0
LAYER
  2
OUTLINE
 70
0
 62
7
  6
CONTINUOUS
  0
LAYER
  2
AUTO_TRACE
 70
0
 62
5
  6
CONTINUOUS
  0
LAYER
  2
TRACE
 70
0
 62
7
  6
CONTINUOUS
  0
ENDTAB
  0
ENDSEC
  0
SECTION
  2
BLOCKS
  0
BLOCK
  8
0
  2
*D1
 70
0
 10
0
 20
0
 30
0
  0
LINE
  8
0
 10
0
 20
150.00000000000023
 30
0
 11
0
 21
405.09586448513653
 31
0
  0
LINE
  8
0
 10
300
 20
150.00000000000023
 30
0
 11
300
 21
405.09586448513653
 31
0
  0
LINE
  8
0
 10
0
 20
400.59586448513653
 30
0
 11
300
 21
400.59586448513653
 31
0
  0
LINE
  8
0
 10
0
 20
400.59586448513653
 30
0
 11
9
 21
397.89586448513654
 31
0
  0
LINE
  8
0
 10
0
 20
400.59586448513653
 30
0
 11
9
 21
403.2958644851365
 31
0
  0
LINE
  8
0
 10
300
 20
400.59586448513653
 30
0
 11
291
 21
403.2958644851365
 31
0
  0
LINE
  8
0
 10
300
 20
400.59586448513653
 30
0
 11
291
 21
397.89586448513654
 31
0
  0
TEXT
  8
0
 10
150
 20
400.59586448513653
 30
0
 40
9
  1
300.00
  0
ENDBLK
  8
0
  0
BLOCK
  8
0
  2
*D2
 70
0
 10
0
 20
0
 30
0
  0
LINE
  8
0
 10
0
 20
150.00000000000023
 30
0
 11
-113.88382644541531
 21
150.00000000000023
 31
0
  0
LINE
  8
0
 10
0
 20
-200
 30
0
 11
-113.88382644541531
 21
-200
 31
0
  0
LINE
  8
0
 10
-108.63382644541531
 20
150.00000000000023
 30
0
 11
-108.63382644541531
 21
-200
 31
0
  0
LINE
  8
0
 10
-108.63382644541531
 20
150.00000000000023
 30
0
 11
-111.78382644541531
 21
139.50000000000023
 31
0
  0
LINE
  8
0
 10
-108.63382644541531
 20
150.00000000000023
 30
0
 11
-105.4838264454153
 21
139.50000000000023
 31
0
  0
LINE
  8
0
 10
-108.63382644541531
 20
-200
 30
0
 11
-105.4838264454153
 21
-189.5
 31
0
  0
LINE
  8
0
 10
-108.63382644541531
 20
-200
 30
0
 11
-111.78382644541531
 21
-189.5
 31
0
  0
TEXT
  8
0
 10
-108.63382644541531
 20
-24.999999999999886
 30
0
 40
10.500000000000007
  1
350.00
 50
90
  0
ENDBLK
  8
0
  0
BLOCK
  8
0
  2
*D3
 70
0
 10
0
 20
0
 30
0
  0
LINE
  8
DIMENSION
 10
-0.625
 20
300
 30
0
 11
-101.25
 21
300
 31
0
  0
LINE
  8
DIMENSION
 10
-0.625
 20
710
 30
0
 11
-101.25
 21
710
 31
0
  0
LINE
  8
DIMENSION
 10
-100
 20
300
 30
0
 11
-100
 21
710
 31
0
  0
TEXT
  8
DIMENSION
 10
-100
 20
505
 30
0
 40
2.5
  1
410
 50
90
  0
ENDBLK
  8
0
  0
BLOCK
  8
0
  2
*D4
 70
0
 10
0
 20
0
 30
0
  0
LINE
  8
DIMENSION
 10
0
 20
-0.625
 30
0
 11
0
 21
-101.25
 31
0
  0
LINE
  8
DIMENSION
 10
250
 20
-0.625
 30
0
 11
250
 21
-101.25
 31
0
  0
LINE
  8
DIMENSION
 10
0
 20
-100
 30
0
 11
250
 21
-100
 31
0
  0
TEXT
  8
DIMENSION
 10
125
 20
-100
 30
0
 40
2.5
  1
250
  0
ENDBLK
  8
0
  0
BLOCK
  8
0
  2
*D5
 70
0
 10
0
 20
0
 30
0
  0
LINE
  8
DIMENSION
 10
0
 20
-0.625
 30
0
 11
0
 21
-51.25
 31
0
  0
LINE
  8
DIMENSION
 10
50
 20
-0.625
 30
0
 11
50
 21
-51.25
 31
0
  0
LINE
  8
DIMENSION
 10
0
 20
-50
 30
0
 11
50
 21
-50
 31
0
  0
TEXT
  8
DIMENSION
 10
25
 20
-50
 30
0
 40
2.5
  1
50
  0
ENDBLK
  8
0
  0
BLOCK
  8
0
  2
*D6
 70
0
 10
0
 20
0
 30
0
  0
LINE
  8
DIMENSION
 10
50
 20
-0.625
 30
0
 11
50
 21
-51.25
 31
0
  0
LINE
  8
DIMENSION
 10
200
 20
-0.625
 30
0
 11
200
 21
-51.25
 31
0
  0
LINE
  8
DIMENSION
 10
50
 20
-50
 30
0
 11
200
 21
-50
 31
0
  0
TEXT
  8
DIMENSION
 10
125
 20
-50
 30
0
 40
2.5
  1
150
  0
ENDBLK
  8
0
  0
BLOCK
  8
0
  2
*D7
 70
0
 10
0
 20
0
 30
0
  0
LINE
  8
DIMENSION
 10
200
 20
-0.625
 30
0
 11
200
 21
-51.25
 31
0
  0
LINE
  8
DIMENSION
 10
250
 20
-0.625
 30
0
 11
250
 21
-51.25
 31
0
  0
LINE
  8
DIMENSION
 10
200
 20
-50
 30
0
 11
250
 21
-50
 31
0
  0
TEXT
  8
DIMENSION
 10
225
 20
-50
 30
0
 40
2.5
  1
50
  0
ENDBLK
  8
0
  0
BLOCK
  8
0
  2
*D8
 70
0
 10
0
 20
0
 30
0
  0
LINE
  8
DIMENSION
 10
-0.625
 20
300
 30
0
 11
-51.25
 21
300
 31
0
  0
LINE
  8
DIMENSION
 10
-0.625
 20
340
 30
0
 11
-51.25
 21
340
 31
0
  0
LINE
  8
DIMENSION
 10
-50
 20
300
 30
0
 11
-50
 21
340
 31
0
  0
TEXT
  8
DIMENSION
 10
-50
 20
320
 30
0
 40
2.5
  1
40
 50
90
  0
ENDBLK
  8
0
  0
BLOCK
  8
0
  2
*D9
 70
0
 10
0
 20
0
 30
0
  0
LINE
  8
DIMENSION
 10
-0.625
 20
340
 30
0
 11
-51.25
 21
340
 31
0
  0
LINE
  8
DIMENSION
 10
-0.625
 20
400
 30
0
 11
-51.25
 21
400
 31
0
  0
LINE
  8
DIMENSION
 10
-50
 20
340
 30
0
 11
-50
 21
400
 31
0
  0
TEXT
  8
DIMENSION
 10
-50
 20
370
 30
0
 40
2.5
  1
60
 50
90
  0
ENDBLK
  8
0
  0
BLOCK
  8
0
  2
*D10
 70
0
 10
0
 20
0
 30
0
  0
LINE
  8
DIMENSION
 10
-0.625
 20
400
 30
0
 11
-51.25
 21
400
 31
0
  0
LINE
  8
DIMENSION
 10
-0.625
 20
460
 30
0
 11
-51.25
 21
460
 31
0
  0
LINE
  8
DIMENSION
 10
-50
 20
400
 30
0
 11
-50
 21
460
 31
0
  0
TEXT
  8
DIMENSION
 10
-50
 20
430
 30
0
 40
2.5
  1
60
 50
90
  0
ENDBLK
  8
0
  0
BLOCK
  8
0
  2
*D11
 70
0
 10
0
 20
0
 30
0
  0
LINE
  8
DIMENSION
 10
-0.625
 20
460
 30
0
 11
-51.25
 21
460
 31
0
  0
LINE
  8
DIMENSION
 10
-0.625
 20
500
 30
0
 11
-51.25
 21
500
 31
0
  0
LINE
  8
DIMENSION
 10
-50
 20
460
 30
0
 11
-50
 21
500
 31
0
  0
TEXT
  8
DIMENSION
 10
-50
 20
480
 30
0
 40
2.5
  1
40
 50
90
  0
ENDBLK
  8
0
  0
BLOCK
  8
0
  2
*D12
 70
0
 10
0
 20
0
 30
0
  0
LINE
  8
DIMENSION
 10
500
 20
-0.625
 30
0
 11
500
 21
-51.25
 31
0
  0
LINE
  8
DIMENSION
 10
555
 20
-0.625
 30
0
 11
555
 21
-51.25
 31
0
  0
LINE
  8
DIMENSION
 10
500
 20
-50
 30
0
 11
555
 21
-50
 31
0
  0
TEXT
  8
DIMENSION
 10
527.5
 20
-50
 30
0
 40
2.5
  1
55
  0
ENDBLK
  8
0
  0
BLOCK
  8
0
  2
*D13
 70
0
 10
0
 20
0
 30
0
  0
LINE
  8
DIMENSION
 10
555
 20
-0.625
 30
0
 11
555
 21
-51.25
 31
0
  0
LINE
  8
DIMENSION
 10
595
 20
-0.625
 30
0
 11
595
 21
-51.25
 31
0
  0
LINE
  8
DIMENSION
 10
555
 20
-50
 30
0
 11
595
 21
-50
 31
0
  0
TEXT
  8
DIMENSION
 10
575
 20
-50
 30
0
 40
2.5
  1
40
  0
ENDBLK
  8
0
  0
BLOCK
  8
0
  2
*D14
 70
0
 10
0
 20
0
 30
0
  0
LINE
  8
DIMENSION
 10
595
 20
-0.625
 30
0
 11
595
 21
-51.25
 31
0
  0
LINE
  8
DIMENSION
 10
655
 20
-0.625
 30
0
 11
655
 21
-51.25
 31
0
  0
LINE
  8
DIMENSION
 10
595
 20
-50
 30
0
 11
655
 21
-50
 31
0
  0
TEXT
  8
DIMENSION
 10
625
 20
-50
 30
0
 40
2.5
  1
60
  0
ENDBLK
  8
0
  0
BLOCK
  8
0
  2
*D15
 70
0
 10
0
 20
0
 30
0
  0
LINE
  8
DIMENSION
 10
655
 20
-0.625
 30
0
 11
655
 21
-51.25
 31
0
  0
LINE
  8
DIMENSION
 10
695
 20
-0.625
 30
0
 11
695
 21
-51.25
 31
0
  0
LINE
  8
DIMENSION
 10
655
 20
-50
 30
0
 11
695
 21
-50
 31
0
  0
TEXT
  8
DIMENSION
 10
675
 20
-50
 30
0
 40
2.5
  1
40
  0
ENDBLK
  8
0
  0
BLOCK
  8
0
  2
*D16
 70
0
 10
0
 20
0
 30
0
  0
LINE
  8
DIMENSION
 10
695
 20
-0.625
 30
0
 11
695
 21
-51.25
 31
0
  0
LINE
  8
DIMENSION
 10
750
 20
-0.625
 30
0
 11
750
 21
-51.25
 31
0
  0
LINE
  8
DIMENSION
 10
695
 20
-50
 30
0
 11
750
 21
-50
 31
0
  0
TEXT
  8
DIMENSION
 10
722.5
 20
-50
 30
0
 40
2.5
  1
55
  0
ENDBLK
  8
0
  0
BLOCK
  8
0
  2
*D17
 70
0
 10
0
 20
0
 30
0
  0
LINE
  8
DIMENSION
 10
750.625
 20
360
 30
0
 11
801.25
 21
360
 31
0
  0
LINE
  8
DIMENSION
 10
750.625
 20
650
 30
0
 11
801.25
 21
650
 31
0
  0
LINE
  8
DIMENSION
 10
800
 20
360
 30
0
 11
800
 21
650
 31
0
  0
TEXT
  8
DIMENSION
 10
800
 20
505
 30
0
 40
2.5
  1
290
 50
90
  0
ENDBLK
  8
0
  0
BLOCK
  8
0
  2
*D18
 70
0
 10
0
 20
0
 30
0
  0
LINE
  8
DIMENSION
 10
555
 20
650.625
 30
0
 11
555
 21
701.25
 31
0
  0
LINE
  8
DIMENSION
 10
695
 20
650.625
 30
0
 11
695
 21
701.25
 31
0
  0
LINE
  8
DIMENSION
 10
555
 20
700
 30
0
 11
695
 21
700
 31
0
  0
TEXT
  8
DIMENSION
 10
625
 20
700
 30
0
 40
2.5
  1
140
  0
ENDBLK
  8
0
  0
BLOCK
  8
0
  2
*D19
 70
0
 10
0
 20
0
 30
0
  0
LINE
  8
DIMENSION
 10
-0.625
 20
300
 30
0
 11
-151.25
 21
300
 31
0
  0
LINE
  8
DIMENSION
 10
-0.625
 20
710
 30
0
 11
-151.25
 21
710
 31
0
  0
LINE
  8
DIMENSION
 10
-150
 20
300
 30
0
 11
-150
 21
710
 31
0
  0
TEXT
  8
DIMENSION
 10
-150
 20
505
 30
0
 40
2.5
  1
410
 50
90
  0
ENDBLK
  8
0
  0
BLOCK
  8
0
  2
*D20
 70
0
 10
0
 20
0
 30
0
  0
LINE
  8
DIMENSION
 10
0
 20
299.375
 30
0
 11
0
 21
248.75
 31
0
  0
LINE
  8
DIMENSION
 10
100
 20
299.375
 30
0
 11
100
 21
248.75
 31
0
  0
LINE
  8
DIMENSION
 10
0
 20
250
 30
0
 11
100
 21
250
 31
0
  0
TEXT
  8
DIMENSION
 10
50
 20
250
 30
0
 40
2.5
  1
100
  0
ENDBLK
  8
0
  0
BLOCK
  8
0
  2
*D21
 70
0
 10
0
 20
0
 30
0
  0
LINE
  8
DIMENSION
 10
-0.625
 20
510
 30
0
 11
-51.25
 21
510
 31
0
  0
LINE
  8
DIMENSION
 10
-0.625
 20
550
 30
0
 11
-51.25
 21
550
 31
0
  0
LINE
  8
DIMENSION
 10
-50
 20
510
 30
0
 11
-50
 21
550
 31
0
  0
TEXT
  8
DIMENSION
 10
-50
 20
530
 30
0
 40
2.5
  1
40
 50
90
  0
ENDBLK
  8
0
  0
BLOCK
  8
0
  2
*D22
 70
0
 10
0
 20
0
 30
0
  0
LINE
  8
DIMENSION
 10
-0.625
 20
550
 30
0
 11
-51.25
 21
550
 31
0
  0
LINE
  8
DIMENSION
 10
-0.625
 20
610
 30
0
 11
-51.25
 21
610
 31
0
  0
LINE
  8
DIMENSION
 10
-50
 20
550
 30
0
 11
-50
 21
610
 31
0
  0
TEXT
  8
DIMENSION
 10
-50
 20
580
 30
0
 40
2.5
  1
60
 50
90
  0
ENDBLK
  8
0
  0
BLOCK
  8
0
  2
*D23
 70
0
 10
0
 20
0
 30
0
  0
LINE
  8
DIMENSION
 10
-0.625
 20
610
 30
0
 11
-51.25
 21
610
 31
0
  0
LINE
  8
DIMENSION
 10
-0.625
 20
670
 30
0
 11
-51.25
 21
670
 31
0
  0
LINE
  8
DIMENSION
 10
-50
 20
610
 30
0
 11
-50
 21
670
 31
0
  0
TEXT
  8
DIMENSION
 10
-50
 20
640
 30
0
 40
2.5
  1
60
 50
90
  0
ENDBLK
  8
0
  0
BLOCK
  8
0
  2
*D24
 70
0
 10
0
 20
0
 30
0
  0
LINE
  8
DIMENSION
 10
-0.625
 20
670
 30
0
 11
-51.25
 21
670
 31
0
  0
LINE
  8
DIMENSION
 10
-0.625
 20
710
 30
0
 11
-51.25
 21
710
 31
0
  0
LINE
  8
DIMENSION
 10
-50
 20
670
 30
0
 11
-50
 21
710
 31
0
  0
TEXT
  8
DIMENSION
 10
-50
 20
690
 30
0
 40
2.5
  1
40
 50
90
  0
ENDBLK
  8
0
  0
BLOCK
  8
0
  2
*D25
 70
0
 10
0
 20
0
 30
0
  0
LINE
  8
DIMENSION
 10
-0.625
 20
300
 30
0
 11
-101.25
 21
300
 31
0
  0
LINE
  8
DIMENSION
 10
-0.625
 20
710
 30
0
 11
-101.25
 21
710
 31
0
  0
LINE
  8
DIMENSION
 10
-100
 20
300
 30
0
 11
-100
 21
710
 31
0
  0
TEXT
  8
DIMENSION
 10
-100
 20
505
 30
0
 40
2.5
  1
410
 50
90
  0
ENDBLK
  8
0
  0
BLOCK
  8
0
  2
*D26
 70
0
 10
0
 20
0
 30
0
  0
LINE
  8
DIMENSION
 10
250.625
 20
300
 30
0
 11
351.25
 21
300
 31
0
  0
LINE
  8
DIMENSION
 10
250.625
 20
340
 30
0
 11
351.25
 21
340
 31
0
  0
LINE
  8
DIMENSION
 10
350
 20
300
 30
0
 11
350
 21
340
 31
0
  0
TEXT
  8
DIMENSION
 10
350
 20
320
 30
0
 40
2.5
  1
40
 50
90
  0
ENDBLK
  8
0
  0
BLOCK
  8
0
  2
*D27
 70
0
 10
0
 20
0
 30
0
  0
LINE
  8
DIMENSION
 10
250.625
 20
340
 30
0
 11
351.25
 21
340
 31
0
  0
LINE
  8
DIMENSION
 10
250.625
 20
400
 30
0
 11
351.25
 21
400
 31
0
  0
LINE
  8
DIMENSION
 10
350
 20
340
 30
0
 11
350
 21
400
 31
0
  0
TEXT
  8
DIMENSION
 10
350
 20
370
 30
0
 40
2.5
  1
60
 50
90
  0
ENDBLK
  8
0
  0
BLOCK
  8
0
  2
*D28
 70
0
 10
0
 20
0
 30
0
  0
LINE
  8
DIMENSION
 10
250.625
 20
400
 30
0
 11
351.25
 21
400
 31
0
  0
LINE
  8
DIMENSION
 10
250.625
 20
460
 30
0
 11
351.25
 21
460
 31
0
  0
LINE
  8
DIMENSION
 10
350
 20
400
 30
0
 11
350
 21
460
 31
0
  0
TEXT
  8
DIMENSION
 10
350
 20
430
 30
0
 40
2.5
  1
60
 50
90
  0
ENDBLK
  8
0
  0
BLOCK
  8
0
  2
*D29
 70
0
 10
0
 20
0
 30
0
  0
LINE
  8
DIMENSION
 10
250.625
 20
460
 30
0
 11
351.25
 21
460
 31
0
  0
LINE
  8
DIMENSION
 10
250.625
 20
500
 30
0
 11
351.25
 21
500
 31
0
  0
LINE
  8
DIMENSION
 10
350
 20
460
 30
0
 11
350
 21
500
 31
0
  0
TEXT
  8
DIMENSION
 10
350
 20
480
 30
0
 40
2.5
  1
40
 50
90
  0
ENDBLK
  8
0
  0
BLOCK
  8
0
  2
*D30
 70
0
 10
0
 20
0
 30
0
  0
LINE
  8
DIMENSION
 10
0
 20
299.375
 30
0
 11
0
 21
248.75
 31
0
  0
LINE
  8
DIMENSION
 10
100
 20
299.375
 30
0
 11
100
 21
248.75
 31
0
  0
LINE
  8
DIMENSION
 10
0
 20
250
 30
0
 11
100
 21
250
 31
0
  0
TEXT
  8
DIMENSION
 10
50
 20
250
 30
0
 40
2.5
  1
100
  0
ENDBLK
  8
0
  0
BLOCK
  8
0
  2
*D31
 70
0
 10
0
 20
0
 30
0
  0
LINE
  8
DIMENSION
 10
0
 20
-0.625
 30
0
 11
0
 21
-101.25
 31
0
  0
LINE
  8
DIMENSION
 10
50
 20
-0.625
 30
0
 11
50
 21
-101.25
 31
0
  0
LINE
  8
DIMENSION
 10
0
 20
-100
 30
0
 11
50
 21
-100
 31
0
  0
TEXT
  8
DIMENSION
 10
25
 20
-100
 30
0
 40
2.5
  1
50
  0
ENDBLK
  8
0
  0
BLOCK
  8
0
  2
*D32
 70
0
 10
0
 20
0
 30
0
  0
LINE
  8
DIMENSION
 10
50
 20
-0.625
 30
0
 11
50
 21
-101.25
 31
0
  0
LINE
  8
DIMENSION
 10
200
 20
-0.625
 30
0
 11
200
 21
-101.25
 31
0
  0
LINE
  8
DIMENSION
 10
50
 20
-100
 30
0
 11
200
 21
-100
 31
0
  0
TEXT
  8
DIMENSION
 10
125
 20
-100
 30
0
 40
2.5
  1
150
  0
ENDBLK
  8
0
  0
BLOCK
  8
0
  2
*D33
 70
0
 10
0
 20
0
 30
0
  0
LINE
  8
DIMENSION
 10
200
 20
-0.625
 30
0
 11
200
 21
-101.25
 31
0
  0
LINE
  8
DIMENSION
 10
250
 20
-0.625
 30
0
 11
250
 21
-101.25
 31
0
  0
LINE
  8
DIMENSION
 10
200
 20
-100
 30
0
 11
250
 21
-100
 31
0
  0
TEXT
  8
DIMENSION
 10
225
 20
-100
 30
0
 40
2.5
  1
50
  0
ENDBLK
  8
0
  0
BLOCK
  8
0
  2
*D34
 70
0
 10
0
 20
0
 30
0
  0
LINE
  8
DIMENSION
 10
500
 20
-0.625
 30
0
 11
500
 21
-101.25
 31
0
  0
LINE
  8
DIMENSION
 10
555
 20
-0.625
 30
0
 11
555
 21
-101.25
 31
0
  0
LINE
  8
DIMENSION
 10
500
 20
-100
 30
0
 11
555
 21
-100
 31
0
  0
TEXT
  8
DIMENSION
 10
527.5
 20
-100
 30
0
 40
2.5
  1
55
  0
ENDBLK
  8
0
  0
BLOCK
  8
0
  2
*D35
 70
0
 10
0
 20
0
 30
0
  0
LINE
  8
DIMENSION
 10
555
 20
-0.625
 30
0
 11
555
 21
-101.25
 31
0
  0
LINE
  8
DIMENSION
 10
595
 20
-0.625
 30
0
 11
595
 21
-101.25
 31
0
  0
LINE
  8
DIMENSION
 10
555
 20
-100
 30
0
 11
595
 21
-100
 31
0
  0
TEXT
  8
DIMENSION
 10
575
 20
-100
 30
0
 40
2.5
  1
40
  0
ENDBLK
  8
0
  0
BLOCK
  8
0
  2
*D36
 70
0
 10
0
 20
0
 30
0
  0
LINE
  8
DIMENSION
 10
595
 20
-0.625
 30
0
 11
595
 21
-101.25
 31
0
  0
LINE
  8
DIMENSION
 10
655
 20
-0.625
 30
0
 11
655
 21
-101.25
 31
0
  0
LINE
  8
DIMENSION
 10
595
 20
-100
 30
0
 11
655
 21
-100
 31
0
  0
TEXT
  8
DIMENSION
 10
625
 20
-100
 30
0
 40
2.5
  1
60
  0
ENDBLK
  8
0
  0
BLOCK
  8
0
  2
*D37
 70
0
 10
0
 20
0
 30
0
  0
LINE
  8
DIMENSION
 10
655
 20
-0.625
 30
0
 11
655
 21
-101.25
 31
0
  0
LINE
  8
DIMENSION
 10
695
 20
-0.625
 30
0
 11
695
 21
-101.25
 31
0
  0
LINE
  8
DIMENSION
 10
655
 20
-100
 30
0
 11
695
 21
-100
 31
0
  0
TEXT
  8
DIMENSION
 10
675
 20
-100
 30
0
 40
2.5
  1
40
  0
ENDBLK
  8
0
  0
BLOCK
  8
0
  2
*D38
 70
0
 10
0
 20
0
 30
0
  0
LINE
  8
DIMENSION
 10
695
 20
-0.625
 30
0
 11
695
 21
-101.25
 31
0
  0
LINE
  8
DIMENSION
 10
750
 20
-0.625
 30
0
 11
750
 21
-101.25
 31
0
  0
LINE
  8
DIMENSION
 10
695
 20
-100
 30
0
 11
750
 21
-100
 31
0
  0
TEXT
  8
DIMENSION
 10
722.5
 20
-100
 30
0
 40
2.5
  1
55
  0
ENDBLK
  8
0
  0
BLOCK
  8
0
  2
*D39
 70
0
 10
0
 20
0
 30
0
  0
LINE
  8
DIMENSION
 10
750.625
 20
360
 30
0
 11
851.25
 21
360
 31
0
  0
LINE
  8
DIMENSION
 10
750.625
 20
650
 30
0
 11
851.25
 21
650
 31
0
  0
LINE
  8
DIMENSION
 10
850
 20
360
 30
0
 11
850
 21
650
 31
0
  0
TEXT
  8
DIMENSION
 10
850
 20
505
 30
0
 40
2.5
  1
290
 50
90
  0
ENDBLK
  8
0
  0
BLOCK
  8
0
  2
*D40
 70
0
 10
0
 20
0
 30
0
  0
LINE
  8
DIMENSION
 10
555
 20
650.625
 30
0
 11
555
 21
701.25
 31
0
  0
LINE
  8
DIMENSION
 10
695
 20
650.625
 30
0
 11
695
 21
701.25
 31
0
  0
LINE
  8
DIMENSION
 10
555
 20
700
 30
0
 11
695
 21
700
 31
0
  0
TEXT
  8
DIMENSION
 10
625
 20
700
 30
0
 40
2.5
  1
140
  0
ENDBLK
  8
0
  0
BLOCK
  8
0
  2
*D41
 70
0
 10
0
 20
0
 30
0
  0
LINE
  8
DIMENSION
 10
250.625
 20
510
 30
0
 11
351.25
 21
510
 31
0
  0
LINE
  8
DIMENSION
 10
250.625
 20
550
 30
0
 11
351.25
 21
550
 31
0
  0
LINE
  8
DIMENSION
 10
350
 20
510
 30
0
 11
350
 21
550
 31
0
  0
TEXT
  8
DIMENSION
 10
350
 20
530
 30
0
 40
2.5
  1
40
 50
90
  0
ENDBLK
  8
0
  0
BLOCK
  8
0
  2
*D42
 70
0
 10
0
 20
0
 30
0
  0
LINE
  8
DIMENSION
 10
250.625
 20
550
 30
0
 11
351.25
 21
550
 31
0
  0
LINE
  8
DIMENSION
 10
250.625
 20
610
 30
0
 11
351.25
 21
610
 31
0
  0
LINE
  8
DIMENSION
 10
350
 20
550
 30
0
 11
350
 21
610
 31
0
  0
TEXT
  8
DIMENSION
 10
350
 20
580
 30
0
 40
2.5
  1
60
 50
90
  0
ENDBLK
  8
0
  0
BLOCK
  8
0
  2
*D43
 70
0
 10
0
 20
0
 30
0
  0
LINE
  8
DIMENSION
 10
250.625
 20
610
 30
0
 11
351.25
 21
610
 31
0
  0
LINE
  8
DIMENSION
 10
250.625
 20
670
 30
0
 11
351.25
 21
670
 31
0
  0
LINE
  8
DIMENSION
 10
350
 20
610
 30
0
 11
350
 21
670
 31
0
  0
TEXT
  8
DIMENSION
 10
350
 20
640
 30
0
 40
2.5
  1
60
 50
90
  0
ENDBLK
  8
0
  0
BLOCK
  8
0
  2
*D44
 70
0
 10
0
 20
0
 30
0
  0
LINE
  8
DIMENSION
 10
250.625
 20
670
 30
0
 11
351.25
 21
670
 31
0
  0
LINE
  8
DIMENSION
 10
250.625
 20
710
 30
0
 11
351.25
 21
710
 31
0
  0
LINE
  8
DIMENSION
 10
350
 20
670
 30
0
 11
350
 21
710
 31
0
  0
TEXT
  8
DIMENSION
 10
350
 20
690
 30
0
 40
2.5
  1
40
 50
90
  0
ENDBLK
  8
0
  0
BLOCK
  8
0
  2
*D45
 70
0
 10
0
 20
0
 30
0
  0
LINE
  8
DIMENSION
 10
695.625
 20
360
 30
0
 11
851.25
 21
360
 31
0
  0
LINE
  8
DIMENSION
 10
695.625
 20
400
 30
0
 11
851.25
 21
400
 31
0
  0
LINE
  8
DIMENSION
 10
850
 20
360
 30
0
 11
850
 21
400
 31
0
  0
TEXT
  8
DIMENSION
 10
850
 20
380
 30
0
 40
2.5
  1
40
 50
90
  0
ENDBLK
  8
0
  0
BLOCK
  8
0
  2
*D46
 70
0
 10
0
 20
0
 30
0
  0
LINE
  8
DIMENSION
 10
695.625
 20
400
 30
0
 11
851.25
 21
400
 31
0
  0
LINE
  8
DIMENSION
 10
695.625
 20
460
 30
0
 11
851.25
 21
460
 31
0
  0
LINE
  8
DIMENSION
 10
850
 20
400
 30
0
 11
850
 21
460
 31
0
  0
TEXT
  8
DIMENSION
 10
850
 20
430
 30
0
 40
2.5
  1
60
 50
90
  0
ENDBLK
  8
0
  0
BLOCK
  8
0
  2
*D47
 70
0
 10
0
 20
0
 30
0
  0
LINE
  8
DIMENSION
 10
695.625
 20
460
 30
0
 11
851.25
 21
460
 31
0
  0
LINE
  8
DIMENSION
 10
695.625
 20
500
 30
0
 11
851.25
 21
500
 31
0
  0
LINE
  8
DIMENSION
 10
850
 20
460
 30
0
 11
850
 21
500
 31
0
  0
TEXT
  8
DIMENSION
 10
850
 20
480
 30
0
 40
2.5
  1
40
 50
90
  0
ENDBLK
  8
0
  0
BLOCK
  8
0
  2
*D48
 70
0
 10
0
 20
0
 30
0
  0
LINE
  8
DIMENSION
 10
0
 20
-0.625
 30
0
 11
0
 21
-201.25
 31
0
  0
LINE
  8
DIMENSION
 10
250
 20
-0.625
 30
0
 11
250
 21
-201.25
 31
0
  0
LINE
  8
DIMENSION
 10
0
 20
-200
 30
0
 11
250
 21
-200
 31
0
  0
TEXT
  8
DIMENSION
 10
125
 20
-200
 30
0
 40
2.5
  1
250
  0
ENDBLK
  8
0
  0
BLOCK
  8
0
  2
*D49
 70
0
 10
0
 20
0
 30
0
  0
LINE
  8
DIMENSION
 10
500
 20
-0.625
 30
0
 11
500
 21
-201.25
 31
0
  0
LINE
  8
DIMENSION
 10
750
 20
-0.625
 30
0
 11
750
 21
-201.25
 31
0
  0
LINE
  8
DIMENSION
 10
500
 20
-200
 30
0
 11
750
 21
-200
 31
0
  0
TEXT
  8
DIMENSION
 10
625
 20
-200
 30
0
 40
2.5
  1
250
  0
ENDBLK
  8
0
  0
BLOCK
  8
0
  2
*D50
 70
0
 10
0
 20
0
 30
0
  0
LINE
  8
DIMENSION
 10
695.625
 20
510
 30
0
 11
951.25
 21
510
 31
0
  0
LINE
  8
DIMENSION
 10
695.625
 20
550
 30
0
 11
951.25
 21
550
 31
0
  0
LINE
  8
DIMENSION
 10
950
 20
510
 30
0
 11
950
 21
550
 31
0
  0
TEXT
  8
DIMENSION
 10
950
 20
530
 30
0
 40
2.5
  1
40
 50
90
  0
ENDBLK
  8
0
  0
BLOCK
  8
0
  2
*D51
 70
0
 10
0
 20
0
 30
0
  0
LINE
  8
DIMENSION
 10
695.625
 20
550
 30
0
 11
951.25
 21
550
 31
0
  0
LINE
  8
DIMENSION
 10
695.625
 20
610
 30
0
 11
951.25
 21
610
 31
0
  0
LINE
  8
DIMENSION
 10
950
 20
550
 30
0
 11
950
 21
610
 31
0
  0
TEXT
  8
DIMENSION
 10
950
 20
580
 30
0
 40
2.5
  1
60
 50
90
  0
ENDBLK
  8
0
  0
BLOCK
  8
0
  2
*D52
 70
0
 10
0
 20
0
 30
0
  0
LINE
  8
DIMENSION
 10
695.625
 20
610
 30
0
 11
951.25
 21
610
 31
0
  0
LINE
  8
DIMENSION
 10
695.625
 20
650
 30
0
 11
951.25
 21
650
 31
0
  0
LINE
  8
DIMENSION
 10
950
 20
610
 30
0
 11
950
 21
650
 31
0
  0
TEXT
  8
DIMENSION
 10
950
 20
630
 30
0
 40
2.5
  1
40
 50
90
  0
ENDBLK
  8
0
  0
BLOCK
  8
0
  2
*D53
 70
0
 10
0
 20
0
 30
0
  0
LINE
  8
DIMENSION
 10
250.625
 20
300
 30
0
 11
351.25
 21
300
 31
0
  0
LINE
  8
DIMENSION
 10
250.625
 20
340
 30
0
 11
351.25
 21
340
 31
0
  0
LINE
  8
DIMENSION
 10
350
 20
300
 30
0
 11
350
 21
340
 31
0
  0
TEXT
  8
DIMENSION
 10
350
 20
320
 30
0
 40
2.5
  1
40
 50
90
  0
ENDBLK
  8
0
  0
BLOCK
  8
0
  2
*D54
 70
0
 10
0
 20
0
 30
0
  0
LINE
  8
DIMENSION
 10
250.625
 20
340
 30
0
 11
351.25
 21
340
 31
0
  0
LINE
  8
DIMENSION
 10
250.625
 20
400
 30
0
 11
351.25
 21
400
 31
0
  0
LINE
  8
DIMENSION
 10
350
 20
340
 30
0
 11
350
 21
400
 31
0
  0
TEXT
  8
DIMENSION
 10
350
 20
370
 30
0
 40
2.5
  1
60
 50
90
  0
ENDBLK
  8
0
  0
BLOCK
  8
0
  2
*D55
 70
0
 10
0
 20
0
 30
0
  0
LINE
  8
DIMENSION
 10
250.625
 20
400
 30
0
 11
351.25
 21
400
 31
0
  0
LINE
  8
DIMENSION
 10
250.625
 20
460
 30
0
 11
351.25
 21
460
 31
0
  0
LINE
  8
DIMENSION
 10
350
 20
400
 30
0
 11
350
 21
460
 31
0
  0
TEXT
  8
DIMENSION
 10
350
 20
430
 30
0
 40
2.5
  1
60
 50
90
  0
ENDBLK
  8
0
  0
BLOCK
  8
0
  2
*D56
 70
0
 10
0
 20
0
 30
0
  0
LINE
  8
DIMENSION
 10
250.625
 20
460
 30
0
 11
351.25
 21
460
 31
0
  0
LINE
  8
DIMENSION
 10
250.625
 20
500
 30
0
 11
351.25
 21
500
 31
0
  0
LINE
  8
DIMENSION
 10
350
 20
460
 30
0
 11
350
 21
500
 31
0
  0
TEXT
  8
DIMENSION
 10
350
 20
480
 30
0
 40
2.5
  1
40
 50
90
  0
ENDBLK
  8
0
  0
BLOCK
  8
0
  2
*D57
 70
0
 10
0
 20
0
 30
0
  0
LINE
  8
DIMENSION
 10
750.625
 20
360
 30
0
 11
851.25
 21
360
 31
0
  0
LINE
  8
DIMENSION
 10
750.625
 20
650
 30
0
 11
851.25
 21
650
 31
0
  0
LINE
  8
DIMENSION
 10
850
 20
360
 30
0
 11
850
 21
650
 31
0
  0
TEXT
  8
DIMENSION
 10
850
 20
505
 30
0
 40
2.5
  1
290
 50
90
  0
ENDBLK
  8
0
  0
BLOCK
  8
0
  2
*D58
 70
0
 10
0
 20
0
 30
0
  0
LINE
  8
DIMENSION
 10
555
 20
650.625
 30
0
 11
555
 21
701.25
 31
0
  0
LINE
  8
DIMENSION
 10
695
 20
650.625
 30
0
 11
695
 21
701.25
 31
0
  0
LINE
  8
DIMENSION
 10
555
 20
700
 30
0
 11
695
 21
700
 31
0
  0
TEXT
  8
DIMENSION
 10
625
 20
700
 30
0
 40
2.5
  1
140
  0
ENDBLK
  8
0
  0
BLOCK
  8
0
  2
*D59
 70
0
 10
0
 20
0
 30
0
  0
LINE
  8
DIMENSION
 10
250.625
 20
340
 30
0
 11
351.25
 21
340
 31
0
  0
LINE
  8
DIMENSION
 10
250.625
 20
400
 30
0
 11
351.25
 21
400
 31
0
  0
LINE
  8
DIMENSION
 10
350
 20
340
 30
0
 11
350
 21
400
 31
0
  0
TEXT
  8
DIMENSION
 10
350
 20
370
 30
0
 40
2.5
  1
60
 50
90
  0
ENDBLK
  8
0
  0
BLOCK
  8
0
  2
*D60
 70
0
 10
0
 20
0
 30
0
  0
LINE
  8
DIMENSION
 10
250.625
 20
400
 30
0
 11
351.25
 21
400
 31
0
  0
LINE
  8
DIMENSION
 10
250.625
 20
460
 30
0
 11
351.25
 21
460
 31
0
  0
LINE
  8
DIMENSION
 10
350
 20
400
 30
0
 11
350
 21
460
 31
0
  0
TEXT
  8
DIMENSION
 10
350
 20
430
 30
0
 40
2.5
  1
60
 50
90
  0
ENDBLK
  8
0
  0
BLOCK
  8
0
  2
*D61
 70
0
 10
0
 20
0
 30
0
  0
LINE
  8
DIMENSION
 10
250.625
 20
550
 30
0
 11
351.25
 21
550
 31
0
  0
LINE
  8
DIMENSION
 10
250.625
 20
610
 30
0
 11
351.25
 21
610
 31
0
  0
LINE
  8
DIMENSION
 10
350
 20
550
 30
0
 11
350
 21
610
 31
0
  0
TEXT
  8
DIMENSION
 10
350
 20
580
 30
0
 40
2.5
  1
60
 50
90
  0
ENDBLK
  8
0
  0
BLOCK
  8
0
  2
*D62
 70
0
 10
0
 20
0
 30
0
  0
LINE
  8
DIMENSION
 10
250.625
 20
300
 30
0
 11
451.25
 21
300
 31
0
  0
LINE
  8
DIMENSION
 10
250.625
 20
710
 30
0
 11
451.25
 21
710
 31
0
  0
LINE
  8
DIMENSION
 10
450
 20
300
 30
0
 11
450
 21
710
 31
0
  0
TEXT
  8
DIMENSION
 10
450
 20
505
 30
0
 40
2.5
  1
410
 50
90
  0
ENDBLK
  8
0
  0
BLOCK
  8
0
  2
*D63
 70
0
 10
0
 20
0
 30
0
  0
LINE
  8
U-ANNO-DIM
 10
250.625
 20
350
 30
0
 11
261.25
 21
350
 31
0
  0
LINE
  8
U-ANNO-DIM
 10
250.625
 20
380
 30
0
 11
261.25
 21
380
 31
0
  0
LINE
  8
U-ANNO-DIM
 10
260
 20
350
 30
0
 11
260
 21
380
 31
0
  0
TEXT
  8
U-ANNO-DIM
 10
260
 20
365
 30
0
 40
2.5
  1
30
 50
90
  0
ENDBLK
  8
0
  0
BLOCK
  8
0
  2
*D64
 70
0
 10
0
 20
0
 30
0
  0
LINE
  8
U-ANNO-DIM
 10
250.625
 20
380
 30
0
 11
261.25
 21
380
 31
0
  0
LINE
  8
U-ANNO-DIM
 10
250.625
 20
440
 30
0
 11
261.25
 21
440
 31
0
  0
LINE
  8
U-ANNO-DIM
 10
260
 20
380
 30
0
 11
260
 21
440
 31
0
  0
TEXT
  8
U-ANNO-DIM
 10
260
 20
410
 30
0
 40
2.5
  1
60
 50
90
  0
ENDBLK
  8
0
  0
BLOCK
  8
0
  2
*D65
 70
0
 10
0
 20
0
 30
0
  0
LINE
  8
U-ANNO-DIM
 10
250.625
 20
440
 30
0
 11
261.25
 21
440
 31
0
  0
LINE
  8
U-ANNO-DIM
 10
250.625
 20
500
 30
0
 11
261.25
 21
500
 31
0
  0
LINE
  8
U-ANNO-DIM
 10
260
 20
440
 30
0
 11
260
 21
500
 31
0
  0
TEXT
  8
U-ANNO-DIM
 10
260
 20
470
 30
0
 40
2.5
  1
60
 50
90
  0
ENDBLK
  8
0
  0
BLOCK
  8
0
  2
*D66
 70
0
 10
0
 20
0
 30
0
  0
LINE
  8
U-ANNO-DIM
 10
250.625
 20
500
 30
0
 11
261.25
 21
500
 31
0
  0
LINE
  8
U-ANNO-DIM
 10
250.625
 20
560
 30
0
 11
261.25
 21
560
 31
0
  0
LINE
  8
U-ANNO-DIM
 10
260
 20
500
 30
0
 11
260
 21
560
 31
0
  0
TEXT
  8
U-ANNO-DIM
 10
260
 20
530
 30
0
 40
2.5
  1
60
 50
90
  0
ENDBLK
  8
0
  0
BLOCK
  8
0
  2
*D67
 70
0
 10
0
 20
0
 30
0
  0
LINE
  8
U-ANNO-DIM
 10
250.625
 20
560
 30
0
 11
261.25
 21
560
 31
0
  0
LINE
  8
U-ANNO-DIM
 10
250.625
 20
620
 30
0
 11
261.25
 21
620
 31
0
  0
LINE
  8
U-ANNO-DIM
 10
260
 20
560
 30
0
 11
260
 21
620
 31
0
  0
TEXT
  8
U-ANNO-DIM
 10
260
 20
590
 30
0
 40
2.5
  1
60
 50
90
  0
ENDBLK
  8
0
  0
BLOCK
  8
0
  2
*D68
 70
0
 10
0
 20
0
 30
0
  0
LINE
  8
U-ANNO-DIM
 10
250.625
 20
620
 30
0
 11
261.25
 21
620
 31
0
  0
LINE
  8
U-ANNO-DIM
 10
250.625
 20
650
 30
0
 11
261.25
 21
650
 31
0
  0
LINE
  8
U-ANNO-DIM
 10
260
 20
620
 30
0
 11
260
 21
650
 31
0
  0
TEXT
  8
U-ANNO-DIM
 10
260
 20
635
 30
0
 40
2.5
  1
30
 50
90
  0
ENDBLK
  8
0
  0
BLOCK
  8
0
  2
*D69
 70
0
 10
0
 20
0
 30
0
  0
LINE
  8
U-ANNO-DIM
 10
250.625
 20
350
 30
0
 11
269.25
 21
350
 31
0
  0
LINE
  8
U-ANNO-DIM
 10
250.625
 20
650
 30
0
 11
269.25
 21
650
 31
0
  0
LINE
  8
U-ANNO-DIM
 10
268
 20
350
 30
0
 11
268
 21
650
 31
0
  0
TEXT
  8
U-ANNO-DIM
 10
268
 20
500
 30
0
 40
2.5
  1
300
 50
90
  0
ENDBLK
  8
0
  0
BLOCK
  8
0
  2
*D70
 70
0
 10
0
 20
0
 30
0
  0
LINE
  8
0
 10
155
 20
620
 30
0
 11
197.79948145837497
 21
620
 31
0
  0
LINE
  8
0
 10
155
 20
500
 30
0
 11
197.79948145837497
 21
500
 31
0
  0
LINE
  8
0
 10
195.99948145837496
 20
620
 30
0
 11
195.99948145837496
 21
500
 31
0
  0
LINE
  8
0
 10
195.99948145837496
 20
620
 30
0
 11
194.91948145837495
 21
616.4
 31
0
  0
LINE
  8
0
 10
195.99948145837496
 20
620
 30
0
 11
197.07948145837497
 21
616.4
 31
0
  0
LINE
  8
0
 10
195.99948145837496
 20
500
 30
0
 11
197.07948145837497
 21
503.6
 31
0
  0
LINE
  8
0
 10
195.99948145837496
 20
500
 30
0
 11
194.91948145837495
 21
503.6
 31
0
  0
TEXT
  8
0
 10
195.99948145837496
 20
560
 30
0
 40
3.5999999999999996
  1
120.00
 50
90
  0
ENDBLK
  8
0
  0
BLOCK
  8
0
  2
*D71
 70
0
 10
0
 20
0
 30
0
  0
LINE
  8
0
 10
95
 20
500
 30
0
 11
95
 21
531.409891071018
 31
0
  0
LINE
  8
0
 10
155
 20
500
 30
0
 11
155
 21
531.409891071018
 31
0
  0
LINE
  8
0
 10
95
 20
530.509891071018
 30
0
 11
155
 21
530.509891071018
 31
0
  0
LINE
  8
0
 10
95
 20
530.509891071018
 30
0
 11
96.8
 21
529.9698910710181
 31
0
  0
LINE
  8
0
 10
95
 20
530.509891071018
 30
0
 11
96.8
 21
531.049891071018
 31
0
  0
LINE
  8
0
 10
155
 20
530.509891071018
 30
0
 11
153.2
 21
531.049891071018
 31
0
  0
LINE
  8
0
 10
155
 20
530.509891071018
 30
0
 11
153.2
 21
529.9698910710181
 31
0
  0
TEXT
  8
0
 10
125
 20
530.509891071018
 30
0
 40
1.7999999999999998
  1
60.00
  0
ENDBLK
  8
0
  0
BLOCK
  8
0
  2
*D72
 70
0
 10
0
 20
0
 30
0
  0
LINE
  8
0
 10
95
 20
380
 30
0
 11
95
 21
323.57650111420884
 31
0
  0
LINE
  8
0
 10
155
 20
380
 30
0
 11
155
 21
323.57650111420884
 31
0
  0
LINE
  8
0
 10
95
 20
328.07650111420884
 30
0
 11
155
 21
328.07650111420884
 31
0
  0
LINE
  8
0
 10
95
 20
328.07650111420884
 30
0
 11
104
 21
325.37650111420885
 31
0
  0
LINE
  8
0
 10
95
 20
328.07650111420884
 30
0
 11
104
 21
330.7765011142088
 31
0
  0
LINE
  8
0
 10
155
 20
328.07650111420884
 30
0
 11
146
 21
330.7765011142088
 31
0
  0
LINE
  8
0
 10
155
 20
328.07650111420884
 30
0
 11
146
 21
325.37650111420885
 31
0
  0
TEXT
  8
0
 10
125
 20
328.07650111420884
 30
0
 40
9
  1
60.00
  0
ENDBLK
  8
0
  0
BLOCK
  8
0
  2
*D73
 70
0
 10
0
 20
0
 30
0
  0
LINE
  8
0
 10
95
 20
380
 30
0
 11
95
 21
443.35252449182764
 31
0
  0
LINE
  8
0
 10
95
 20
440
 30
0
 11
95
 21
435.85252449182764
 31
0
  0
LINE
  8
0
 10
95
 20
439.60252449182764
 30
0
 11
95
 21
439.60252449182764
 31
0
  0
TEXT
  8
0
 10
95
 20
439.60252449182764
 30
0
 40
7.5
  1
0.00
  0
ENDBLK
  8
0
  0
BLOCK
  8
0
  2
*D74
 70
0
 10
0
 20
0
 30
0
  0
LINE
  8
0
 10
95
 20
560
 30
0
 11
50.603877262789126
 21
560
 31
0
  0
LINE
  8
0
 10
95
 20
620
 30
0
 11
50.603877262789126
 21
620
 31
0
  0
LINE
  8
0
 10
55.103877262789126
 20
560
 30
0
 11
55.103877262789126
 21
620
 31
0
  0
LINE
  8
0
 10
55.103877262789126
 20
560
 30
0
 11
57.80387726278913
 21
569
 31
0
  0
LINE
  8
0
 10
55.103877262789126
 20
560
 30
0
 11
52.40387726278912
 21
569
 31
0
  0
LINE
  8
0
 10
55.103877262789126
 20
620
 30
0
 11
52.40387726278912
 21
611
 31
0
  0
LINE
  8
0
 10
55.103877262789126
 20
620
 30
0
 11
57.80387726278913
 21
611
 31
0
  0
TEXT
  8
0
 10
55.103877262789126
 20
590
 30
0
 40
9
  1
60.00
 50
90
  0
ENDBLK
  8
0
  0
BLOCK
  8
0
  2
*D75
 70
0
 10
0
 20
0
 30
0
  0
LINE
  8
0
 10
120.5
 20
0
 30
0
 11
120.5
 21
90.129436264601
 31
0
  0
LINE
  8
0
 10
0
 20
0
 30
0
 11
0
 21
90.129436264601
 31
0
  0
LINE
  8
0
 10
120.5
 20
81.091936264601
 30
0
 11
0
 21
81.091936264601
 31
0
  0
LINE
  8
0
 10
120.5
 20
81.091936264601
 30
0
 11
102.425
 21
86.514436264601
 31
0
  0
LINE
  8
0
 10
120.5
 20
81.091936264601
 30
0
 11
102.425
 21
75.669436264601
 31
0
  0
LINE
  8
0
 10
0
 20
81.091936264601
 30
0
 11
18.075
 21
75.669436264601
 31
0
  0
LINE
  8
0
 10
0
 20
81.091936264601
 30
0
 11
18.075
 21
86.514436264601
 31
0
  0
TEXT
  8
0
 10
60.25
 20
81.091936264601
 30
0
 40
18.075
  1
120.50
  0
ENDBLK
  8
0
  0
BLOCK
  8
0
  2
*D76
 70
0
 10
0
 20
0
 30
0
  0
LINE
  8
0
 10
-119.6291841050537
 20
-150.1311418476975
 30
0
 11
-119.6291841050537
 21
-173.82096453522456
 31
0
  0
LINE
  8
0
 10
-46.565268619766016
 20
-155.72612636684116
 30
0
 11
-46.565268619766016
 21
-173.82096453522456
 31
0
  0
LINE
  8
0
 10
-119.6291841050537
 20
-167.24521214154868
 30
0
 11
-46.565268619766016
 21
-167.24521214154868
 31
0
  0
LINE
  8
0
 10
-119.6291841050537
 20
-167.24521214154868
 30
0
 11
-106.47767931770191
 21
-171.1906635777542
 31
0
  0
LINE
  8
0
 10
-119.6291841050537
 20
-167.24521214154868
 30
0
 11
-106.47767931770191
 21
-163.29976070534315
 31
0
  0
LINE
  8
0
 10
-46.565268619766016
 20
-167.24521214154868
 30
0
 11
-59.7167734071178
 21
-163.29976070534315
 31
0
  0
LINE
  8
0
 10
-46.565268619766016
 20
-167.24521214154868
 30
0
 11
-59.7167734071178
 21
-171.1906635777542
 31
0
  0
TEXT
  8
0
 10
-83.09722636240986
 20
-167.24521214154868
 30
0
 40
13.151504787351781
  1
73.06
  0
ENDBLK
  8
0
  0
ENDSEC
  0
SECTION
  2
ENTITIES
  0
LINE
  8
TRACE
 10
30.46
 20
22.02
 30
0
 11
34.63
 21
22.02
 31
0
  0
LINE
  8
TRACE
 10
34.63
 20
22.02
 30
0
 11
38.8
 21
17.86
 31
0
  0
LINE
  8
TRACE
 10
38.8
 20
17.86
 30
0
 11
57.84
 21
16.07
 31
0
  0
LINE
  8
TRACE
 10
57.84
 20
16.07
 30
0
 11
58.44
 21
14.29
 31
0
  0
LINE
  8
TRACE
 10
58.44
 20
14.29
 30
0
 11
74.51
 21
11.31
 31
0
  0
LINE
  8
TRACE
 10
74.51
 20
11.31
 30
0
 11
81.65
 21
13.1
 31
0
  0
LINE
  8
TRACE
 10
81.65
 20
13.1
 30
0
 11
82.25
 21
10.12
 31
0
  0
LINE
  8
TRACE
 10
82.25
 20
10.12
 30
0
 11
96.53
 21
7.14
 31
0
  0
LINE
  8
TRACE
 10
96.53
 20
7.14
 30
0
 11
107.84
 21
7.74
 31
0
  0
LINE
  8
TRACE
 10
107.84
 20
7.74
 30
0
 11
107.25
 21
5.36
 31
0
  0
LINE
  8
TRACE
 10
107.25
 20
5.36
 30
0
 11
109.63
 21
8.33
 31
0
  0
LINE
  8
TRACE
 10
109.63
 20
8.33
 30
0
 11
109.63
 21
5.95
 31
0
  0
LINE
  8
TRACE
 10
109.63
 20
5.95
 30
0
 11
119.15
 21
5.95
 31
0
  0
LINE
  8
TRACE
 10
119.15
 20
5.95
 30
0
 11
120.94
 21
8.33
 31
0
  0
LINE
  8
TRACE
 10
120.94
 20
8.33
 30
0
 11
125.7
 21
6.55
 31
0
  0
LINE
  8
TRACE
 10
125.7
 20
6.55
 30
0
 11
122.13
 21
5.95
 31
0
  0
LINE
  8
TRACE
 10
122.13
 20
5.95
 30
0
 11
125.7
 21
5.36
 31
0
  0
LINE
  8
TRACE
 10
125.7
 20
5.36
 30
0
 11
122.72
 21
2.38
 31
0
  0
LINE
  8
TRACE
 10
122.72
 20
2.38
 30
0
 11
123.32
 21
-73.21
 31
0
  0
LINE
  8
TRACE
 10
123.32
 20
-73.21
 30
0
 11
125.7
 21
-73.81
 31
0
  0
LINE
  8
TRACE
 10
125.7
 20
-73.81
 30
0
 11
122.72
 21
-76.19
 31
0
  0
LINE
  8
TRACE
 10
122.72
 20
-76.19
 30
0
 11
116.18
 21
-76.19
 31
0
  0
LINE
  8
TRACE
 10
116.18
 20
-76.19
 30
0
 11
116.18
 21
-57.74
 31
0
  0
LINE
  8
TRACE
 10
116.18
 20
-57.74
 30
0
 11
111.41
 21
-57.14
 31
0
  0
LINE
  8
TRACE
 10
111.41
 20
-57.14
 30
0
 11
103.08
 21
-61.9
 31
0
  0
LINE
  8
TRACE
 10
103.08
 20
-61.9
 30
0
 11
104.87
 21
-67.26
 31
0
  0
LINE
  8
TRACE
 10
104.87
 20
-67.26
 30
0
 11
103.08
 21
-67.26
 31
0
  0
LINE
  8
TRACE
 10
103.08
 20
-67.26
 30
0
 11
104.87
 21
-71.43
 31
0
  0
LINE
  8
TRACE
 10
104.87
 20
-71.43
 30
0
 11
103.08
 21
-76.19
 31
0
  0
LINE
  8
TRACE
 10
103.08
 20
-76.19
 30
0
 11
98.32
 21
-76.19
 31
0
  0
LINE
  8
TRACE
 10
98.32
 20
-76.19
 30
0
 11
96.53
 21
-63.69
 31
0
  0
LINE
  8
TRACE
 10
96.53
 20
-63.69
 30
0
 11
90.58
 21
-66.67
 31
0
  0
LINE
  8
TRACE
 10
90.58
 20
-66.67
 30
0
 11
90.58
 21
-76.19
 31
0
  0
LINE
  8
TRACE
 10
90.58
 20
-76.19
 30
0
 11
89.39
 21
-72.62
 31
0
  0
LINE
  8
TRACE
 10
89.39
 20
-72.62
 30
0
 11
88.8
 21
-76.19
 31
0
  0
LINE
  8
TRACE
 10
88.8
 20
-76.19
 30
0
 11
88.2
 21
-72.62
 31
0
  0
LINE
  8
TRACE
 10
88.2
 20
-72.62
 30
0
 11
86.41
 21
-76.19
 31
0
  0
LINE
  8
TRACE
 10
86.41
 20
-76.19
 30
0
 11
85.82
 21
-68.45
 31
0
  0
LINE
  8
TRACE
 10
85.82
 20
-68.45
 30
0
 11
83.44
 21
-69.64
 31
0
  0
LINE
  8
TRACE
 10
83.44
 20
-69.64
 30
0
 11
83.44
 21
-76.19
 31
0
  0
LINE
  8
TRACE
 10
83.44
 20
-76.19
 30
0
 11
81.06
 21
-76.19
 31
0
  0
LINE
  8
TRACE
 10
81.06
 20
-76.19
 30
0
 11
80.46
 21
-72.62
 31
0
  0
LINE
  8
TRACE
 10
80.46
 20
-72.62
 30
0
 11
78.68
 21
-76.19
 31
0
  0
LINE
  8
TRACE
 10
78.68
 20
-76.19
 30
0
 11
78.08
 21
-72.02
 31
0
  0
LINE
  8
TRACE
 10
78.08
 20
-72.02
 30
0
 11
76.3
 21
-76.19
 31
0
  0
LINE
  8
TRACE
 10
76.3
 20
-76.19
 30
0
 11
72.13
 21
-74.4
 31
0
  0
LINE
  8
TRACE
 10
72.13
 20
-74.4
 30
0
 11
71.53
 21
-76.19
 31
0
  0
LINE
  8
TRACE
 10
71.53
 20
-76.19
 30
0
 11
54.27
 21
-76.19
 31
0
  0
LINE
  8
TRACE
 10
54.27
 20
-76.19
 30
0
 11
51.89
 21
-72.62
 31
0
  0
LINE
  8
TRACE
 10
51.89
 20
-72.62
 30
0
 11
53.68
 21
-70.83
 31
0
  0
LINE
  8
TRACE
 10
45.94
 20
-71.43
 30
0
 11
44.75
 21
-76.19
 31
0
  0
LINE
  8
TRACE
 10
44.75
 20
-76.19
 30
0
 11
42.96
 21
-76.19
 31
0
  0
LINE
  8
TRACE
 10
42.96
 20
-76.19
 30
0
 11
42.37
 21
-68.45
 31
0
  0
LINE
  8
TRACE
 10
42.37
 20
-68.45
 30
0
 11
33.44
 21
-69.05
 31
0
  0
LINE
  8
TRACE
 10
33.44
 20
-69.05
 30
0
 11
32.84
 21
-76.19
 31
0
  0
LINE
  8
TRACE
 10
32.84
 20
-76.19
 30
0
 11
32.84
 21
-71.43
 31
0
  0
LINE
  8
TRACE
 10
32.84
 20
-71.43
 30
0
 11
31.65
 21
-76.19
 31
0
  0
LINE
  8
TRACE
 10
31.65
 20
-76.19
 30
0
 11
31.65
 21
-72.02
 31
0
  0
LINE
  8
TRACE
 10
31.65
 20
-72.02
 30
0
 11
28.08
 21
-69.64
 31
0
  0
LINE
  8
TRACE
 10
28.08
 20
-69.64
 30
0
 11
22.72
 21
-72.02
 31
0
  0
LINE
  8
TRACE
 10
22.72
 20
-72.02
 30
0
 11
23.91
 21
-75
 31
0
  0
LINE
  8
TRACE
 10
23.91
 20
-75
 30
0
 11
22.13
 21
-76.19
 31
0
  0
LINE
  8
TRACE
 10
22.13
 20
-76.19
 30
0
 11
0.11
 21
-76.19
 31
0
  0
LINE
  8
TRACE
 10
0.11
 20
-76.19
 30
0
 11
-1.68
 21
-72.02
 31
0
  0
LINE
  8
TRACE
 10
-1.68
 20
-72.02
 30
0
 11
-2.87
 21
-76.19
 31
0
  0
LINE
  8
TRACE
 10
-2.87
 20
-76.19
 30
0
 11
-7.63
 21
-76.19
 31
0
  0
LINE
  8
TRACE
 10
-7.63
 20
-76.19
 30
0
 11
-8.82
 21
-70.83
 31
0
  0
LINE
  8
TRACE
 10
-8.82
 20
-70.83
 30
0
 11
-10.01
 21
-76.19
 31
0
  0
LINE
  8
TRACE
 10
-10.01
 20
-76.19
 30
0
 11
-12.39
 21
-72.62
 31
0
  0
LINE
  8
TRACE
 10
-12.39
 20
-72.62
 30
0
 11
-14.18
 21
-76.19
 31
0
  0
LINE
  8
TRACE
 10
-14.18
 20
-76.19
 30
0
 11
-14.18
 21
-72.02
 31
0
  0
LINE
  8
TRACE
 10
-14.18
 20
-72.02
 30
0
 11
-15.97
 21
-72.02
 31
0
  0
LINE
  8
TRACE
 10
-15.97
 20
-72.02
 30
0
 11
-14.18
 21
-70.24
 31
0
  0
LINE
  8
TRACE
 10
-14.18
 20
-70.24
 30
0
 11
-19.54
 21
-67.86
 31
0
  0
LINE
  8
TRACE
 10
-19.54
 20
-67.86
 30
0
 11
-21.32
 21
-68.45
 31
0
  0
LINE
  8
TRACE
 10
-21.32
 20
-68.45
 30
0
 11
-21.32
 21
-76.19
 31
0
  0
LINE
  8
TRACE
 10
-21.32
 20
-76.19
 30
0
 11
-51.08
 21
-76.19
 31
0
  0
LINE
  8
TRACE
 10
-51.08
 20
-76.19
 30
0
 11
-51.08
 21
-69.05
 31
0
  0
LINE
  8
TRACE
 10
-51.08
 20
-69.05
 30
0
 11
-49.3
 21
-68.45
 31
0
  0
LINE
  8
TRACE
 10
-49.3
 20
-68.45
 30
0
 11
-51.08
 21
-63.09
 31
0
  0
LINE
  8
TRACE
 10
-51.08
 20
-63.09
 30
0
 11
-48.7
 21
-64.28
 31
0
  0
LINE
  8
TRACE
 10
-48.7
 20
-64.28
 30
0
 11
-46.32
 21
-61.9
 31
0
  0
LINE
  8
TRACE
 10
-46.32
 20
-61.9
 30
0
 11
-46.32
 21
-2.38
 31
0
  0
LINE
  8
TRACE
 10
-46.32
 20
-2.38
 30
0
 11
-51.08
 21
-0.59
 31
0
  0
LINE
  8
TRACE
 10
-51.08
 20
-0.59
 30
0
 11
-46.92
 21
-0.59
 31
0
  0
LINE
  8
TRACE
 10
-46.92
 20
-0.59
 30
0
 11
-46.32
 21
4.17
 31
0
  0
LINE
  8
TRACE
 10
-46.32
 20
4.17
 30
0
 11
-42.75
 21
2.38
 31
0
  0
LINE
  8
TRACE
 10
-42.75
 20
2.38
 30
0
 11
-41.56
 21
4.17
 31
0
  0
LINE
  8
TRACE
 10
-41.56
 20
4.17
 30
0
 11
-35.01
 21
3.57
 31
0
  0
LINE
  8
TRACE
 10
-35.01
 20
3.57
 30
0
 11
-29.06
 21
4.76
 31
0
  0
LINE
  8
TRACE
 10
-29.06
 20
4.76
 30
0
 11
-27.87
 21
7.14
 31
0
  0
LINE
  8
TRACE
 10
-27.87
 20
7.14
 30
0
 11
-26.68
 21
5.36
 31
0
  0
LINE
  8
TRACE
 10
-26.68
 20
5.36
 30
0
 11
-19.54
 21
6.55
 31
0
  0
LINE
  8
TRACE
 10
-19.54
 20
6.55
 30
0
 11
-18.35
 21
8.33
 31
0
  0
LINE
  8
TRACE
 10
-18.35
 20
8.33
 30
0
 11
3.08
 21
11.31
 31
0
  0
LINE
  8
TRACE
 10
3.08
 20
11.31
 30
0
 11
5.46
 21
13.69
 31
0
  0
LINE
  8
TRACE
 10
5.46
 20
13.69
 30
0
 11
12.61
 21
13.1
 31
0
  0
LINE
  8
TRACE
 10
12.61
 20
13.1
 30
0
 11
26.89
 21
16.67
 31
0
  0
LINE
  8
TRACE
 10
26.89
 20
16.67
 30
0
 11
23.91
 21
18.45
 31
0
  0
LINE
  8
TRACE
 10
23.91
 20
18.45
 30
0
 11
30.46
 21
16.67
 31
0
  0
LINE
  8
TRACE
 10
30.46
 20
16.67
 30
0
 11
31.06
 21
18.45
 31
0
  0
LINE
  8
TRACE
 10
31.06
 20
18.45
 30
0
 11
26.89
 21
20.24
 31
0
  0
LINE
  8
TRACE
 10
26.89
 20
20.24
 30
0
 11
29.87
 21
21.43
 31
0
  0
LINE
  8
TRACE
 10
29.87
 20
21.43
 30
0
 11
30.46
 21
22.02
 31
0
  0
LINE
  8
TRACE
 10
19.15
 20
18.45
 30
0
 11
22.72
 21
17.26
 31
0
  0
LINE
  8
TRACE
 10
22.72
 20
17.26
 30
0
 11
13.8
 21
16.07
 31
0
  0
LINE
  8
TRACE
 10
13.8
 20
16.07
 30
0
 11
19.15
 21
17.86
 31
0
  0
LINE
  8
TRACE
 10
19.15
 20
17.86
 30
0
 11
19.15
 21
18.45
 31
0
  0
LINE
  8
TRACE
 10
32.25
 20
11.91
 30
0
 11
28.08
 21
11.31
 31
0
  0
LINE
  8
TRACE
 10
28.08
 20
11.31
 30
0
 11
29.27
 21
8.93
 31
0
  0
LINE
  8
TRACE
 10
29.27
 20
8.93
 30
0
 11
32.25
 21
11.31
 31
0
  0
LINE
  8
TRACE
 10
32.25
 20
11.31
 30
0
 11
32.25
 21
11.91
 31
0
  0
LINE
  8
TRACE
 10
17.96
 20
8.33
 30
0
 11
13.8
 21
8.93
 31
0
  0
LINE
  8
TRACE
 10
13.8
 20
8.93
 30
0
 11
13.2
 21
6.55
 31
0
  0
LINE
  8
TRACE
 10
13.2
 20
6.55
 30
0
 11
18.56
 21
7.74
 31
0
  0
LINE
  8
TRACE
 10
18.56
 20
7.74
 30
0
 11
17.96
 21
8.33
 31
0
  0
LINE
  8
TRACE
 10
62.01
 20
8.33
 30
0
 11
58.44
 21
7.74
 31
0
  0
LINE
  8
TRACE
 10
58.44
 20
7.74
 30
0
 11
62.01
 21
7.74
 31
0
  0
LINE
  8
TRACE
 10
62.01
 20
7.74
 30
0
 11
62.01
 21
8.33
 31
0
  0
LINE
  8
TRACE
 10
8.44
 20
7.14
 30
0
 11
0.7
 21
5.36
 31
0
  0
LINE
  8
TRACE
 10
0.7
 20
5.36
 30
0
 11
1.89
 21
3.57
 31
0
  0
LINE
  8
TRACE
 10
1.89
 20
3.57
 30
0
 11
8.44
 21
6.55
 31
0
  0
LINE
  8
TRACE
 10
8.44
 20
6.55
 30
0
 11
8.44
 21
7.14
 31
0
  0
LINE
  8
TRACE
 10
34.63
 20
7.14
 30
0
 11
30.46
 21
4.76
 31
0
  0
LINE
  8
TRACE
 10
30.46
 20
4.76
 30
0
 11
33.44
 21
1.79
 31
0
  0
LINE
  8
TRACE
 10
33.44
 20
1.79
 30
0
 11
35.82
 21
4.17
 31
0
  0
LINE
  8
TRACE
 10
35.82
 20
4.17
 30
0
 11
35.22
 21
7.14
 31
0
  0
LINE
  8
TRACE
 10
35.22
 20
7.14
 30
0
 11
34.63
 21
7.14
 31
0
  0
LINE
  8
TRACE
 10
42.96
 20
7.14
 30
0
 11
39.99
 21
7.14
 31
0
  0
LINE
  8
TRACE
 10
39.99
 20
7.14
 30
0
 11
40.58
 21
2.38
 31
0
  0
LINE
  8
TRACE
 10
40.58
 20
2.38
 30
0
 11
45.94
 21
2.98
 31
0
  0
LINE
  8
TRACE
 10
45.94
 20
2.98
 30
0
 11
45.94
 21
6.55
 31
0
  0
LINE
  8
TRACE
 10
45.94
 20
6.55
 30
0
 11
43.56
 21
7.14
 31
0
  0
LINE
  8
TRACE
 10
43.56
 20
7.14
 30
0
 11
42.96
 21
7.14
 31
0
  0
LINE
  8
TRACE
 10
69.75
 20
7.14
 30
0
 11
66.77
 21
5.95
 31
0
  0
LINE
  8
TRACE
 10
66.77
 20
5.95
 30
0
 11
77.49
 21
4.17
 31
0
  0
LINE
  8
TRACE
 10
77.49
 20
4.17
 30
0
 11
70.34
 21
7.14
 31
0
  0
LINE
  8
TRACE
 10
70.34
 20
7.14
 30
0
 11
69.75
 21
7.14
 31
0
  0
LINE
  8
TRACE
 10
26.3
 20
5.36
 30
0
 11
22.72
 21
4.17
 31
0
  0
LINE
  8
TRACE
 10
22.72
 20
4.17
 30
0
 11
23.91
 21
1.79
 31
0
  0
LINE
  8
TRACE
 10
23.91
 20
1.79
 30
0
 11
28.68
 21
3.57
 31
0
  0
LINE
  8
TRACE
 10
28.68
 20
3.57
 30
0
 11
26.89
 21
5.36
 31
0
  0
LINE
  8
TRACE
 10
26.89
 20
5.36
 30
0
 11
26.3
 21
5.36
 31
0
  0
LINE
  8
TRACE
 10
119.15
 20
5.36
 30
0
 11
113.79
 21
5.36
 31
0
  0
LINE
  8
TRACE
 10
113.79
 20
5.36
 30
0
 11
118.56
 21
4.76
 31
0
  0
LINE
  8
TRACE
 10
118.56
 20
4.76
 30
0
 11
119.15
 21
5.36
 31
0
  0
LINE
  8
TRACE
 10
51.89
 20
4.76
 30
0
 11
47.13
 21
3.57
 31
0
  0
LINE
  8
TRACE
 10
47.13
 20
3.57
 30
0
 11
52.49
 21
4.17
 31
0
  0
LINE
  8
TRACE
 10
52.49
 20
4.17
 30
0
 11
51.89
 21
4.76
 31
0
  0
LINE
  8
TRACE
 10
58.44
 20
4.76
 30
0
 11
55.46
 21
4.17
 31
0
  0
LINE
  8
TRACE
 10
55.46
 20
4.17
 30
0
 11
58.44
 21
2.98
 31
0
  0
LINE
  8
TRACE
 10
58.44
 20
2.98
 30
0
 11
59.03
 21
4.76
 31
0
  0
LINE
  8
TRACE
 10
59.03
 20
4.76
 30
0
 11
58.44
 21
4.76
 31
0
  0
LINE
  8
TRACE
 10
-10.61
 20
2.98
 30
0
 11
-13.59
 21
2.38
 31
0
  0
LINE
  8
TRACE
 10
-13.59
 20
2.38
 30
0
 11
-8.23
 21
2.38
 31
0
  0
LINE
  8
TRACE
 10
-8.23
 20
2.38
 30
0
 11
-10.01
 21
2.98
 31
0
  0
LINE
  8
TRACE
 10
-10.01
 20
2.98
 30
0
 11
-10.61
 21
2.98
 31
0
  0
LINE
  8
TRACE
 10
72.72
 20
1.79
 30
0
 11
72.13
 21
-2.38
 31
0
  0
LINE
  8
TRACE
 10
72.13
 20
-2.38
 30
0
 11
72.72
 21
1.19
 31
0
  0
LINE
  8
TRACE
 10
72.72
 20
1.19
 30
0
 11
72.72
 21
1.79
 31
0
  0
LINE
  8
TRACE
 10
-14.18
 20
1.19
 30
0
 11
-18.35
 21
2.38
 31
0
  0
LINE
  8
TRACE
 10
-18.35
 20
2.38
 30
0
 11
-21.92
 21
0.6
 31
0
  0
LINE
  8
TRACE
 10
-21.92
 20
0.6
 30
0
 11
-14.78
 21
0.6
 31
0
  0
LINE
  8
TRACE
 10
-14.78
 20
0.6
 30
0
 11
-14.18
 21
1.19
 31
0
  0
LINE
  8
TRACE
 10
57.84
 20
0.6
 30
0
 11
54.87
 21
-0.59
 31
0
  0
LINE
  8
TRACE
 10
54.87
 20
-0.59
 30
0
 11
58.44
 21
-1.79
 31
0
  0
LINE
  8
TRACE
 10
58.44
 20
-1.79
 30
0
 11
59.63
 21
0
 31
0
  0
LINE
  8
TRACE
 10
59.63
 20
0
 30
0
 11
57.84
 21
0
 31
0
  0
LINE
  8
TRACE
 10
57.84
 20
0
 30
0
 11
57.84
 21
0.6
 31
0
  0
LINE
  8
TRACE
 10
110.82
 20
-0.59
 30
0
 11
106.65
 21
-1.19
 31
0
  0
LINE
  8
TRACE
 10
106.65
 20
-1.19
 30
0
 11
110.82
 21
-1.19
 31
0
  0
LINE
  8
TRACE
 10
110.82
 20
-1.19
 30
0
 11
110.82
 21
-0.59
 31
0
  0
LINE
  8
TRACE
 10
-10.01
 20
-1.19
 30
0
 11
-12.39
 21
-2.38
 31
0
  0
LINE
  8
TRACE
 10
-12.39
 20
-2.38
 30
0
 11
-7.63
 21
-5.36
 31
0
  0
LINE
  8
TRACE
 10
-7.63
 20
-5.36
 30
0
 11
-7.04
 21
-1.79
 31
0
  0
LINE
  8
TRACE
 10
-7.04
 20
-1.79
 30
0
 11
-9.42
 21
-1.19
 31
0
  0
LINE
  8
TRACE
 10
-9.42
 20
-1.19
 30
0
 11
-10.01
 21
-1.19
 31
0
  0
LINE
  8
TRACE
 10
-1.09
 20
-1.19
 30
0
 11
-3.47
 21
-1.19
 31
0
  0
LINE
  8
TRACE
 10
-3.47
 20
-1.19
 30
0
 11
-2.28
 21
-5.95
 31
0
  0
LINE
  8
TRACE
 10
-2.28
 20
-5.95
 30
0
 11
1.3
 21
-4.76
 31
0
  0
LINE
  8
TRACE
 10
1.3
 20
-4.76
 30
0
 11
-0.49
 21
-1.79
 31
0
  0
LINE
  8
TRACE
 10
-0.49
 20
-1.79
 30
0
 11
-1.09
 21
-1.19
 31
0
  0
LINE
  8
TRACE
 10
79.27
 20
-1.19
 30
0
 11
77.49
 21
0
 31
0
  0
LINE
  8
TRACE
 10
77.49
 20
0
 30
0
 11
75.1
 21
-4.17
 31
0
  0
LINE
  8
TRACE
 10
75.1
 20
-4.17
 30
0
 11
78.08
 21
-2.98
 31
0
  0
LINE
  8
TRACE
 10
78.08
 20
-2.98
 30
0
 11
76.89
 21
-4.76
 31
0
  0
LINE
  8
TRACE
 10
76.89
 20
-4.76
 30
0
 11
78.68
 21
-5.36
 31
0
  0
LINE
  8
TRACE
 10
78.68
 20
-5.36
 30
0
 11
79.27
 21
-1.79
 31
0
  0
LINE
  8
TRACE
 10
79.27
 20
-1.79
 30
0
 11
79.27
 21
-1.19
 31
0
  0
LINE
  8
TRACE
 10
87.01
 20
-1.19
 30
0
 11
83.44
 21
-4.17
 31
0
  0
LINE
  8
TRACE
 10
83.44
 20
-4.17
 30
0
 11
86.41
 21
-4.76
 31
0
  0
LINE
  8
TRACE
 10
86.41
 20
-4.76
 30
0
 11
85.22
 21
-3.57
 31
0
  0
LINE
  8
TRACE
 10
85.22
 20
-3.57
 30
0
 11
87.6
 21
-1.79
 31
0
  0
LINE
  8
TRACE
 10
87.6
 20
-1.79
 30
0
 11
87.01
 21
-1.19
 31
0
  0
LINE
  8
TRACE
 10
32.84
 20
-4.76
 30
0
 11
32.25
 21
-9.52
 31
0
  0
LINE
  8
TRACE
 10
32.25
 20
-9.52
 30
0
 11
35.22
 21
-8.33
 31
0
  0
LINE
  8
TRACE
 10
35.22
 20
-8.33
 30
0
 11
33.44
 21
-5.36
 31
0
  0
LINE
  8
TRACE
 10
33.44
 20
-5.36
 30
0
 11
32.84
 21
-4.76
 31
0
  0
LINE
  8
TRACE
 10
107.84
 20
-4.76
 30
0
 11
102.49
 21
-8.33
 31
0
  0
LINE
  8
TRACE
 10
102.49
 20
-8.33
 30
0
 11
104.87
 21
-10.71
 31
0
  0
LINE
  8
TRACE
 10
104.87
 20
-10.71
 30
0
 11
108.44
 21
-4.76
 31
0
  0
LINE
  8
TRACE
 10
108.44
 20
-4.76
 30
0
 11
107.84
 21
-4.76
 31
0
  0
LINE
  8
TRACE
 10
44.75
 20
-5.36
 30
0
 11
41.18
 21
-4.76
 31
0
  0
LINE
  8
TRACE
 10
41.18
 20
-4.76
 30
0
 11
39.99
 21
-8.33
 31
0
  0
LINE
  8
TRACE
 10
39.99
 20
-8.33
 30
0
 11
44.15
 21
-9.52
 31
0
  0
LINE
  8
TRACE
 10
44.15
 20
-9.52
 30
0
 11
44.15
 21
-5.95
 31
0
  0
LINE
  8
TRACE
 10
44.15
 20
-5.95
 30
0
 11
44.75
 21
-5.36
 31
0
  0
LINE
  8
TRACE
 10
-28.47
 20
-5.95
 30
0
 11
-30.85
 21
-5.95
 31
0
  0
LINE
  8
TRACE
 10
-30.85
 20
-5.95
 30
0
 11
-26.68
 21
-10.12
 31
0
  0
LINE
  8
TRACE
 10
-26.68
 20
-10.12
 30
0
 11
-28.47
 21
-6.55
 31
0
  0
LINE
  8
TRACE
 10
-28.47
 20
-6.55
 30
0
 11
-28.47
 21
-5.95
 31
0
  0
LINE
  8
TRACE
 10
57.84
 20
-6.55
 30
0
 11
52.49
 21
-6.55
 31
0
  0
LINE
  8
TRACE
 10
52.49
 20
-6.55
 30
0
 11
57.25
 21
-7.14
 31
0
  0
LINE
  8
TRACE
 10
57.25
 20
-7.14
 30
0
 11
57.84
 21
-6.55
 31
0
  0
LINE
  8
TRACE
 10
9.63
 20
-9.52
 30
0
 11
6.06
 21
-10.12
 31
0
  0
LINE
  8
TRACE
 10
6.06
 20
-10.12
 30
0
 11
9.03
 21
-13.09
 31
0
  0
LINE
  8
TRACE
 10
9.03
 20
-13.09
 30
0
 11
9.63
 21
-10.12
 31
0
  0
LINE
  8
TRACE
 10
9.63
 20
-10.12
 30
0
 11
9.63
 21
-9.52
 31
0
  0
LINE
  8
TRACE
 10
3.08
 20
-10.12
 30
0
 11
-0.49
 21
-10.71
 31
0
  0
LINE
  8
TRACE
 10
-0.49
 20
-10.71
 30
0
 11
1.89
 21
-15.48
 31
0
  0
LINE
  8
TRACE
 10
1.89
 20
-15.48
 30
0
 11
5.46
 21
-14.29
 31
0
  0
LINE
  8
TRACE
 10
5.46
 20
-14.29
 30
0
 11
2.49
 21
-13.09
 31
0
  0
LINE
  8
TRACE
 10
2.49
 20
-13.09
 30
0
 11
3.68
 21
-10.71
 31
0
  0
LINE
  8
TRACE
 10
3.68
 20
-10.71
 30
0
 11
3.08
 21
-10.12
 31
0
  0
LINE
  8
TRACE
 10
75.1
 20
-10.12
 30
0
 11
72.13
 21
-11.31
 31
0
  0
LINE
  8
TRACE
 10
72.13
 20
-11.31
 30
0
 11
71.53
 21
-14.88
 31
0
  0
LINE
  8
TRACE
 10
71.53
 20
-14.88
 30
0
 11
74.51
 21
-14.29
 31
0
  0
LINE
  8
TRACE
 10
74.51
 20
-14.29
 30
0
 11
73.32
 21
-11.9
 31
0
  0
LINE
  8
TRACE
 10
73.32
 20
-11.9
 30
0
 11
76.3
 21
-11.31
 31
0
  0
LINE
  8
TRACE
 10
76.3
 20
-11.31
 30
0
 11
74.51
 21
-10.71
 31
0
  0
LINE
  8
TRACE
 10
74.51
 20
-10.71
 30
0
 11
75.1
 21
-10.12
 31
0
  0
LINE
  8
TRACE
 10
-21.92
 20
-15.48
 30
0
 11
-23.7
 21
-16.67
 31
0
  0
LINE
  8
TRACE
 10
-23.7
 20
-16.67
 30
0
 11
-19.54
 21
-19.64
 31
0
  0
LINE
  8
TRACE
 10
-19.54
 20
-19.64
 30
0
 11
-18.35
 21
-18.45
 31
0
  0
LINE
  8
TRACE
 10
-18.35
 20
-18.45
 30
0
 11
-21.32
 21
-15.48
 31
0
  0
LINE
  8
TRACE
 10
-21.32
 20
-15.48
 30
0
 11
-21.92
 21
-15.48
 31
0
  0
LINE
  8
TRACE
 10
34.03
 20
-15.48
 30
0
 11
32.25
 21
-16.07
 31
0
  0
LINE
  8
TRACE
 10
32.25
 20
-16.07
 30
0
 11
33.44
 21
-17.86
 31
0
  0
LINE
  8
TRACE
 10
33.44
 20
-17.86
 30
0
 11
34.63
 21
-15.48
 31
0
  0
LINE
  8
TRACE
 10
34.63
 20
-15.48
 30
0
 11
34.03
 21
-15.48
 31
0
  0
LINE
  8
TRACE
 10
58.44
 20
-18.45
 30
0
 11
56.65
 21
-18.45
 31
0
  0
LINE
  8
TRACE
 10
56.65
 20
-18.45
 30
0
 11
57.25
 21
-20.83
 31
0
  0
LINE
  8
TRACE
 10
57.25
 20
-20.83
 30
0
 11
60.22
 21
-20.24
 31
0
  0
LINE
  8
TRACE
 10
60.22
 20
-20.24
 30
0
 11
59.03
 21
-17.86
 31
0
  0
LINE
  8
TRACE
 10
59.03
 20
-17.86
 30
0
 11
58.44
 21
-18.45
 31
0
  0
LINE
  8
TRACE
 10
43.56
 20
-22.62
 30
0
 11
39.99
 21
-22.02
 31
0
  0
LINE
  8
TRACE
 10
39.99
 20
-22.02
 30
0
 11
42.96
 21
-23.21
 31
0
  0
LINE
  8
TRACE
 10
42.96
 20
-23.21
 30
0
 11
43.56
 21
-22.62
 31
0
  0
LINE
  8
TRACE
 10
31.65
 20
-23.21
 30
0
 11
27.49
 21
-23.81
 31
0
  0
LINE
  8
TRACE
 10
27.49
 20
-23.81
 30
0
 11
31.65
 21
-23.81
 31
0
  0
LINE
  8
TRACE
 10
31.65
 20
-23.81
 30
0
 11
31.65
 21
-23.21
 31
0
  0
LINE
  8
TRACE
 10
121.53
 20
-23.21
 30
0
 11
120.94
 21
-29.76
 31
0
  0
LINE
  8
TRACE
 10
120.94
 20
-29.76
 30
0
 11
121.53
 21
-23.81
 31
0
  0
LINE
  8
TRACE
 10
121.53
 20
-23.81
 30
0
 11
121.53
 21
-23.21
 31
0
  0
LINE
  8
TRACE
 10
53.68
 20
-23.81
 30
0
 11
50.1
 21
-23.21
 31
0
  0
LINE
  8
TRACE
 10
50.1
 20
-23.21
 30
0
 11
49.51
 21
-25.59
 31
0
  0
LINE
  8
TRACE
 10
49.51
 20
-25.59
 30
0
 11
53.68
 21
-24.4
 31
0
  0
LINE
  8
TRACE
 10
53.68
 20
-24.4
 30
0
 11
53.68
 21
-23.81
 31
0
  0
LINE
  8
TRACE
 10
57.25
 20
-24.4
 30
0
 11
54.87
 21
-26.19
 31
0
  0
LINE
  8
TRACE
 10
54.87
 20
-26.19
 30
0
 11
56.06
 21
-27.38
 31
0
  0
LINE
  8
TRACE
 10
56.06
 20
-27.38
 30
0
 11
57.84
 21
-24.4
 31
0
  0
LINE
  8
TRACE
 10
57.84
 20
-24.4
 30
0
 11
57.25
 21
-24.4
 31
0
  0
LINE
  8
TRACE
 10
16.18
 20
-25.59
 30
0
 11
12.61
 21
-26.79
 31
0
  0
LINE
  8
TRACE
 10
12.61
 20
-26.79
 30
0
 11
16.18
 21
-27.98
 31
0
  0
LINE
  8
TRACE
 10
16.18
 20
-27.98
 30
0
 11
16.18
 21
-26.19
 31
0
  0
LINE
  8
TRACE
 10
16.18
 20
-26.19
 30
0
 11
16.18
 21
-25.59
 31
0
  0
LINE
  8
TRACE
 10
-33.23
 20
-27.38
 30
0
 11
-39.18
 21
-31.55
 31
0
  0
LINE
  8
TRACE
 10
-39.18
 20
-31.55
 30
0
 11
-37.99
 21
-50
 31
0
  0
LINE
  8
TRACE
 10
-37.99
 20
-50
 30
0
 11
-26.68
 21
-48.81
 31
0
  0
LINE
  8
TRACE
 10
-26.68
 20
-48.81
 30
0
 11
-26.68
 21
-34.52
 31
0
  0
LINE
  8
TRACE
 10
-26.68
 20
-34.52
 30
0
 11
-28.47
 21
-32.74
 31
0
  0
LINE
  8
TRACE
 10
-28.47
 20
-32.74
 30
0
 11
-31.44
 21
-34.52
 31
0
  0
LINE
  8
TRACE
 10
-31.44
 20
-34.52
 30
0
 11
-32.63
 21
-33.33
 31
0
  0
LINE
  8
TRACE
 10
-32.63
 20
-33.33
 30
0
 11
-30.25
 21
-30.95
 31
0
  0
LINE
  8
TRACE
 10
-30.25
 20
-30.95
 30
0
 11
-33.23
 21
-27.98
 31
0
  0
LINE
  8
TRACE
 10
-33.23
 20
-27.98
 30
0
 11
-33.23
 21
-27.38
 31
0
  0
LINE
  8
TRACE
 10
110.22
 20
-27.98
 30
0
 11
103.68
 21
-32.14
 31
0
  0
LINE
  8
TRACE
 10
103.68
 20
-32.14
 30
0
 11
103.08
 21
-47.62
 31
0
  0
LINE
  8
TRACE
 10
103.08
 20
-47.62
 30
0
 11
114.99
 21
-49.4
 31
0
  0
LINE
  8
TRACE
 10
114.99
 20
-49.4
 30
0
 11
116.18
 21
-31.55
 31
0
  0
LINE
  8
TRACE
 10
116.18
 20
-31.55
 30
0
 11
110.22
 21
-28.57
 31
0
  0
LINE
  8
TRACE
 10
110.22
 20
-28.57
 30
0
 11
110.22
 21
-27.98
 31
0
  0
LINE
  8
TRACE
 10
118.56
 20
-33.33
 30
0
 11
117.96
 21
-38.69
 31
0
  0
LINE
  8
TRACE
 10
117.96
 20
-38.69
 30
0
 11
118.56
 21
-33.93
 31
0
  0
LINE
  8
TRACE
 10
118.56
 20
-33.93
 30
0
 11
118.56
 21
-33.33
 31
0
  0
LINE
  8
TRACE
 10
-40.37
 20
-34.52
 30
0
 11
-40.97
 21
-50
 31
0
  0
LINE
  8
TRACE
 10
-40.97
 20
-50
 30
0
 11
-40.37
 21
-35.12
 31
0
  0
LINE
  8
TRACE
 10
-40.37
 20
-35.12
 30
0
 11
-40.37
 21
-34.52
 31
0
  0
LINE
  8
TRACE
 10
94.75
 20
-41.07
 30
0
 11
90.58
 21
-43.45
 31
0
  0
LINE
  8
TRACE
 10
90.58
 20
-43.45
 30
0
 11
91.18
 21
-48.21
 31
0
  0
LINE
  8
TRACE
 10
91.18
 20
-48.21
 30
0
 11
94.15
 21
-49.4
 31
0
  0
LINE
  8
TRACE
 10
94.15
 20
-49.4
 30
0
 11
97.72
 21
-47.02
 31
0
  0
LINE
  8
TRACE
 10
97.72
 20
-47.02
 30
0
 11
95.94
 21
-43.45
 31
0
  0
LINE
  8
TRACE
 10
95.94
 20
-43.45
 30
0
 11
93.56
 21
-43.45
 31
0
  0
LINE
  8
TRACE
 10
93.56
 20
-43.45
 30
0
 11
95.94
 21
-42.86
 31
0
  0
LINE
  8
TRACE
 10
95.94
 20
-42.86
 30
0
 11
94.75
 21
-41.67
 31
0
  0
LINE
  8
TRACE
 10
94.75
 20
-41.67
 30
0
 11
94.75
 21
-41.07
 31
0
  0
LINE
  8
TRACE
 10
-15.97
 20
-42.26
 30
0
 11
-21.32
 21
-44.64
 31
0
  0
LINE
  8
TRACE
 10
-21.32
 20
-44.64
 30
0
 11
-18.94
 21
-47.02
 31
0
  0
LINE
  8
TRACE
 10
-18.94
 20
-47.02
 30
0
 11
-21.92
 21
-47.62
 31
0
  0
LINE
  8
TRACE
 10
-21.92
 20
-47.62
 30
0
 11
-20.73
 21
-49.4
 31
0
  0
LINE
  8
TRACE
 10
-20.73
 20
-49.4
 30
0
 11
-14.18
 21
-49.4
 31
0
  0
LINE
  8
TRACE
 10
-14.18
 20
-49.4
 30
0
 11
-15.97
 21
-42.86
 31
0
  0
LINE
  8
TRACE
 10
-15.97
 20
-42.86
 30
0
 11
-15.97
 21
-42.26
 31
0
  0
LINE
  8
TRACE
 10
63.2
 20
-46.43
 30
0
 11
58.44
 21
-46.43
 31
0
  0
LINE
  8
TRACE
 10
58.44
 20
-46.43
 30
0
 11
62.6
 21
-47.02
 31
0
  0
LINE
  8
TRACE
 10
62.6
 20
-47.02
 30
0
 11
63.2
 21
-46.43
 31
0
  0
LINE
  8
TRACE
 10
-27.87
 20
-52.38
 30
0
 11
-33.23
 21
-52.38
 31
0
  0
LINE
  8
TRACE
 10
-33.23
 20
-52.38
 30
0
 11
-28.47
 21
-52.98
 31
0
  0
LINE
  8
TRACE
 10
-28.47
 20
-52.98
 30
0
 11
-27.87
 21
-52.38
 31
0
  0
LINE
  8
TRACE
 10
-14.18
 20
-52.38
 30
0
 11
-18.94
 21
-52.38
 31
0
  0
LINE
  8
TRACE
 10
-18.94
 20
-52.38
 30
0
 11
-14.78
 21
-52.98
 31
0
  0
LINE
  8
TRACE
 10
-14.78
 20
-52.98
 30
0
 11
-14.18
 21
-52.38
 31
0
  0
LINE
  8
TRACE
 10
97.72
 20
-53.57
 30
0
 11
91.77
 21
-52.98
 31
0
  0
LINE
  8
TRACE
 10
91.77
 20
-52.98
 30
0
 11
91.18
 21
-58.33
 31
0
  0
LINE
  8
TRACE
 10
91.18
 20
-58.33
 30
0
 11
97.13
 21
-58.93
 31
0
  0
LINE
  8
TRACE
 10
97.13
 20
-58.93
 30
0
 11
97.72
 21
-54.17
 31
0
  0
LINE
  8
TRACE
 10
97.72
 20
-54.17
 30
0
 11
97.72
 21
-53.57
 31
0
  0
LINE
  8
TRACE
 10
-27.87
 20
-54.17
 30
0
 11
-30.85
 21
-55.36
 31
0
  0
LINE
  8
TRACE
 10
-30.85
 20
-55.36
 30
0
 11
-28.47
 21
-56.55
 31
0
  0
LINE
  8
TRACE
 10
-28.47
 20
-56.55
 30
0
 11
-27.28
 21
-54.76
 31
0
  0
LINE
  8
TRACE
 10
-27.28
 20
-54.76
 30
0
 11
-27.87
 21
-54.17
 31
0
  0
LINE
  8
TRACE
 10
-14.18
 20
-54.17
 30
0
 11
-20.73
 21
-53.57
 31
0
  0
LINE
  8
TRACE
 10
-20.73
 20
-53.57
 30
0
 11
-20.73
 21
-60.12
 31
0
  0
LINE
  8
TRACE
 10
-20.73
 20
-60.12
 30
0
 11
-17.75
 21
-61.31
 31
0
  0
LINE
  8
TRACE
 10
-17.75
 20
-61.31
 30
0
 11
-14.18
 21
-54.76
 31
0
  0
LINE
  8
TRACE
 10
-14.18
 20
-54.76
 30
0
 11
-14.18
 21
-54.17
 31
0
  0
LINE
  8
TRACE
 10
-7.04
 20
-54.17
 30
0
 11
-10.01
 21
-55.36
 31
0
  0
LINE
  8
TRACE
 10
-10.01
 20
-55.36
 30
0
 11
-9.42
 21
-64.88
 31
0
  0
LINE
  8
TRACE
 10
-9.42
 20
-64.88
 30
0
 11
-7.04
 21
-63.09
 31
0
  0
LINE
  8
TRACE
 10
-7.04
 20
-63.09
 30
0
 11
-7.04
 21
-54.76
 31
0
  0
LINE
  8
TRACE
 10
-7.04
 20
-54.76
 30
0
 11
-7.04
 21
-54.17
 31
0
  0
LINE
  8
TRACE
 10
85.22
 20
-54.17
 30
0
 11
83.44
 21
-54.17
 31
0
  0
LINE
  8
TRACE
 10
83.44
 20
-54.17
 30
0
 11
83.44
 21
-66.07
 31
0
  0
LINE
  8
TRACE
 10
83.44
 20
-66.07
 30
0
 11
86.41
 21
-64.88
 31
0
  0
LINE
  8
TRACE
 10
86.41
 20
-64.88
 30
0
 11
85.82
 21
-53.57
 31
0
  0
LINE
  8
TRACE
 10
85.82
 20
-53.57
 30
0
 11
85.22
 21
-54.17
 31
0
  0
LINE
  8
TRACE
 10
100.7
 20
-54.17
 30
0
 11
98.91
 21
-54.17
 31
0
  0
LINE
  8
TRACE
 10
98.91
 20
-54.17
 30
0
 11
99.51
 21
-57.74
 31
0
  0
LINE
  8
TRACE
 10
99.51
 20
-57.74
 30
0
 11
100.7
 21
-54.76
 31
0
  0
LINE
  8
TRACE
 10
100.7
 20
-54.76
 30
0
 11
100.7
 21
-54.17
 31
0
  0
LINE
  8
TRACE
 10
107.84
 20
-54.17
 30
0
 11
103.08
 21
-54.17
 31
0
  0
LINE
  8
TRACE
 10
103.08
 20
-54.17
 30
0
 11
107.84
 21
-54.76
 31
0
  0
LINE
  8
TRACE
 10
107.84
 20
-54.76
 30
0
 11
107.84
 21
-54.17
 31
0
  0
LINE
  8
TRACE
 10
85.22
 20
-54.76
 30
0
 11
83.44
 21
-54.17
 31
0
  0
LINE
  8
TRACE
 10
83.44
 20
-54.17
 30
0
 11
83.44
 21
-66.07
 31
0
  0
LINE
  8
TRACE
 10
83.44
 20
-66.07
 30
0
 11
86.41
 21
-64.88
 31
0
  0
LINE
  8
TRACE
 10
86.41
 20
-64.88
 30
0
 11
85.22
 21
-54.17
 31
0
  0
LINE
  8
TRACE
 10
85.22
 20
-54.17
 30
0
 11
85.22
 21
-54.76
 31
0
  0
LINE
  8
TRACE
 10
85.22
 20
-55.36
 30
0
 11
84.03
 21
-53.57
 31
0
  0
LINE
  8
TRACE
 10
84.03
 20
-53.57
 30
0
 11
83.44
 21
-66.07
 31
0
  0
LINE
  8
TRACE
 10
83.44
 20
-66.07
 30
0
 11
86.41
 21
-64.88
 31
0
  0
LINE
  8
TRACE
 10
86.41
 20
-64.88
 30
0
 11
85.22
 21
-54.76
 31
0
  0
LINE
  8
TRACE
 10
85.22
 20
-54.76
 30
0
 11
85.22
 21
-55.36
 31
0
  0
LINE
  8
TRACE
 10
85.22
 20
-55.95
 30
0
 11
84.03
 21
-53.57
 31
0
  0
LINE
  8
TRACE
 10
84.03
 20
-53.57
 30
0
 11
83.44
 21
-66.07
 31
0
  0
LINE
  8
TRACE
 10
83.44
 20
-66.07
 30
0
 11
86.41
 21
-64.88
 31
0
  0
LINE
  8
TRACE
 10
86.41
 20
-64.88
 30
0
 11
85.82
 21
-53.57
 31
0
  0
LINE
  8
TRACE
 10
85.82
 20
-53.57
 30
0
 11
85.22
 21
-55.36
 31
0
  0
LINE
  8
TRACE
 10
85.22
 20
-55.36
 30
0
 11
85.22
 21
-55.95
 31
0
  0
LINE
  8
TRACE
 10
85.22
 20
-56.55
 30
0
 11
84.03
 21
-53.57
 31
0
  0
LINE
  8
TRACE
 10
84.03
 20
-53.57
 30
0
 11
83.44
 21
-66.07
 31
0
  0
LINE
  8
TRACE
 10
83.44
 20
-66.07
 30
0
 11
86.41
 21
-64.88
 31
0
  0
LINE
  8
TRACE
 10
86.41
 20
-64.88
 30
0
 11
85.82
 21
-53.57
 31
0
  0
LINE
  8
TRACE
 10
85.82
 20
-53.57
 30
0
 11
85.22
 21
-55.95
 31
0
  0
LINE
  8
TRACE
 10
85.22
 20
-55.95
 30
0
 11
85.22
 21
-56.55
 31
0
  0
LINE
  8
TRACE
 10
78.08
 20
-58.33
 30
0
 11
76.89
 21
-69.64
 31
0
  0
LINE
  8
TRACE
 10
76.89
 20
-69.64
 30
0
 11
78.68
 21
-68.45
 31
0
  0
LINE
  8
TRACE
 10
78.68
 20
-68.45
 30
0
 11
78.08
 21
-58.93
 31
0
  0
LINE
  8
TRACE
 10
78.08
 20
-58.93
 30
0
 11
78.08
 21
-58.33
 31
0
  0
LINE
  8
TRACE
 10
118.56
 20
-58.33
 30
0
 11
117.96
 21
-63.69
 31
0
  0
LINE
  8
TRACE
 10
117.96
 20
-63.69
 30
0
 11
118.56
 21
-58.93
 31
0
  0
LINE
  8
TRACE
 10
118.56
 20
-58.93
 30
0
 11
118.56
 21
-58.33
 31
0
  0
LINE
  8
TRACE
 10
-37.39
 20
-59.52
 30
0
 11
-39.78
 21
-58.93
 31
0
  0
LINE
  8
TRACE
 10
-39.78
 20
-58.93
 30
0
 11
-39.18
 21
-71.43
 31
0
  0
LINE
  8
TRACE
 10
-39.18
 20
-71.43
 30
0
 11
-32.04
 21
-73.81
 31
0
  0
LINE
  8
TRACE
 10
-32.04
 20
-73.81
 30
0
 11
-27.28
 21
-72.02
 31
0
  0
LINE
  8
TRACE
 10
-27.28
 20
-72.02
 30
0
 11
-27.28
 21
-65.48
 31
0
  0
LINE
  8
TRACE
 10
-27.28
 20
-65.48
 30
0
 11
-36.2
 21
-62.5
 31
0
  0
LINE
  8
TRACE
 10
-36.2
 20
-62.5
 30
0
 11
-37.39
 21
-60.12
 31
0
  0
LINE
  8
TRACE
 10
-37.39
 20
-60.12
 30
0
 11
-37.39
 21
-59.52
 31
0
  0
LINE
  8
TRACE
 10
-40.37
 20
-61.31
 30
0
 11
-40.97
 21
-67.86
 31
0
  0
LINE
  8
TRACE
 10
-40.97
 20
-67.86
 30
0
 11
-40.37
 21
-61.9
 31
0
  0
LINE
  8
TRACE
 10
-40.37
 20
-61.9
 30
0
 11
-40.37
 21
-61.31
 31
0
  0
LINE
  8
TRACE
 10
0.11
 20
-61.9
 30
0
 11
-2.87
 21
-63.09
 31
0
  0
LINE
  8
TRACE
 10
-2.87
 20
-63.09
 30
0
 11
-2.28
 21
-67.86
 31
0
  0
LINE
  8
TRACE
 10
-2.28
 20
-67.86
 30
0
 11
0.11
 21
-67.26
 31
0
  0
LINE
  8
TRACE
 10
0.11
 20
-67.26
 30
0
 11
0.11
 21
-62.5
 31
0
  0
LINE
  8
TRACE
 10
0.11
 20
-62.5
 30
0
 11
0.11
 21
-61.9
 31
0
  0
LINE
  8
TRACE
 10
4.27
 20
-63.69
 30
0
 11
3.68
 21
-67.86
 31
0
  0
LINE
  8
TRACE
 10
3.68
 20
-67.86
 30
0
 11
4.27
 21
-64.28
 31
0
  0
LINE
  8
TRACE
 10
4.27
 20
-64.28
 30
0
 11
4.27
 21
-63.69
 31
0
  0
LINE
  8
TRACE
 10
32.84
 20
-65.48
 30
0
 11
30.46
 21
-67.86
 31
0
  0
LINE
  8
TRACE
 10
30.46
 20
-67.86
 30
0
 11
34.03
 21
-67.86
 31
0
  0
LINE
  8
TRACE
 10
34.03
 20
-67.86
 30
0
 11
33.44
 21
-66.07
 31
0
  0
LINE
  8
TRACE
 10
33.44
 20
-66.07
 30
0
 11
32.84
 21
-65.48
 31
0
  0
LINE
  8
TRACE
 10
73.32
 20
-67.86
 30
0
 11
71.53
 21
-67.26
 31
0
  0
LINE
  8
TRACE
 10
71.53
 20
-67.26
 30
0
 11
72.13
 21
-71.43
 31
0
  0
LINE
  8
TRACE
 10
72.13
 20
-71.43
 30
0
 11
73.32
 21
-68.45
 31
0
  0
LINE
  8
TRACE
 10
73.32
 20
-68.45
 30
0
 11
73.32
 21
-67.86
 31
0
  0
LINE
  8
TRACE
 10
53.08
 20
-68.45
 30
0
 11
48.32
 21
-68.45
 31
0
  0
LINE
  8
TRACE
 10
48.32
 20
-68.45
 30
0
 11
53.68
 21
-69.05
 31
0
  0
LINE
  8
TRACE
 10
53.68
 20
-69.05
 30
0
 11
53.08
 21
-68.45
 31
0
  0
ENDSEC
  0
EOF