  0
SECTION
  2
HEADER
  9
$ACADVER
  1
AC1009
  9
$EXTMIN
 10
0.0
 20
0.0
 30
0.0
  9
$EXTMAX
 10
300.0
 20
168.0
 30
0.0
  0
ENDSEC
  0
SECTION
  2
TABLES
  0
TABLE
  2
LTYPE
 70
1
  0
LTYPE
  2
CONTINUOUS
 70
0
  3
Solid line
 72
65
 73
0
 40
0.0
  0
ENDTAB
  0
TABLE
  2
LAYER
 70
2
  0
LAYER
  2
0
 70
0
 62
7
  6
CONTINUOUS
  0
LAYER
  2
TRACE
 70
0
 62
3
  6
CONTINUOUS
  0
ENDTAB
  0
ENDSEC
  0
SECTION
  2
ENTITIES
  0
LINE
  5
64
  8
TRACE
 10
146.000000
 20
159.000000
 30
0.0
 11
283.000000
 21
135.000000
 31
0.0
  0
LINE
  5
65
  8
TRACE
 10
284.000000
 20
130.000000
 30
0.0
 11
292.000000
 21
137.000000
 31
0.0
  0
LINE
  5
66
  8
TRACE
 10
292.000000
 20
137.000000
 30
0.0
 11
292.000000
 21
1.000000
 31
0.0
  0
LINE
  5
67
  8
TRACE
 10
292.000000
 20
1.000000
 30
0.0
 11
284.000000
 21
1.000000
 31
0.0
  0
LINE
  5
68
  8
TRACE
 10
284.000000
 20
1.000000
 30
0.0
 11
282.000000
 21
39.000000
 31
0.0
  0
LINE
  5
69
  8
TRACE
 10
282.000000
 20
39.000000
 30
0.0
 11
258.000000
 21
28.000000
 31
0.0
  0
LINE
  5
6A
  8
TRACE
 10
258.000000
 20
28.000000
 30
0.0
 11
258.000000
 21
1.000000
 31
0.0
  0
LINE
  5
6B
  8
TRACE
 10
253.000000
 20
1.000000
 30
0.0
 11
252.000000
 21
26.000000
 31
0.0
  0
LINE
  5
6C
  8
TRACE
 10
252.000000
 20
26.000000
 30
0.0
 11
238.000000
 21
19.000000
 31
0.0
  0
LINE
  5
6D
  8
TRACE
 10
238.000000
 20
19.000000
 30
0.0
 11
238.000000
 21
1.000000
 31
0.0
  0
LINE
  5
6E
  8
TRACE
 10
234.000000
 20
1.000000
 30
0.0
 11
233.000000
 21
17.000000
 31
0.0
  0
LINE
  5
6F
  8
TRACE
 10
233.000000
 20
17.000000
 30
0.0
 11
225.000000
 21
14.000000
 31
0.0
  0
LINE
  5
70
  8
TRACE
 10
225.000000
 20
14.000000
 30
0.0
 11
225.000000
 21
1.000000
 31
0.0
  0
LINE
  5
71
  8
TRACE
 10
221.000000
 20
1.000000
 30
0.0
 11
221.000000
 21
32.000000
 31
0.0
  0
LINE
  5
72
  8
TRACE
 10
221.000000
 20
32.000000
 30
0.0
 11
215.000000
 21
38.000000
 31
0.0
  0
LINE
  5
73
  8
TRACE
 10
215.000000
 20
38.000000
 30
0.0
 11
214.000000
 21
1.000000
 31
0.0
  0
LINE
  5
74
  8
TRACE
 10
214.000000
 20
1.000000
 30
0.0
 11
211.000000
 21
25.000000
 31
0.0
  0
LINE
  5
75
  8
TRACE
 10
207.000000
 20
29.000000
 30
0.0
 11
206.000000
 21
1.000000
 31
0.0
  0
LINE
  5
76
  8
TRACE
 10
206.000000
 20
1.000000
 30
0.0
 11
204.000000
 21
20.000000
 31
0.0
  0
LINE
  5
77
  8
TRACE
 10
201.000000
 20
23.000000
 30
0.0
 11
200.000000
 21
1.000000
 31
0.0
  0
LINE
  5
78
  8
TRACE
 10
194.000000
 20
1.000000
 30
0.0
 11
192.000000
 21
14.000000
 31
0.0
  0
LINE
  5
79
  8
TRACE
 10
192.000000
 20
14.000000
 30
0.0
 11
191.000000
 21
2.000000
 31
0.0
  0
LINE
  5
7A
  8
TRACE
 10
191.000000
 20
2.000000
 30
0.0
 11
189.000000
 21
11.000000
 31
0.0
  0
LINE
  5
7B
  8
TRACE
 10
189.000000
 20
11.000000
 30
0.0
 11
188.000000
 21
1.000000
 31
0.0
  0
LINE
  5
7C
  8
TRACE
 10
180.000000
 20
1.000000
 30
0.0
 11
178.000000
 21
12.000000
 31
0.0
  0
LINE
  5
7D
  8
TRACE
 10
178.000000
 20
12.000000
 30
0.0
 11
156.000000
 21
17.000000
 31
0.0
  0
LINE
  5
7E
  8
TRACE
 10
156.000000
 20
17.000000
 30
0.0
 11
125.000000
 21
13.000000
 31
0.0
  0
LINE
  5
7F
  8
TRACE
 10
114.000000
 20
1.000000
 30
0.0
 11
113.000000
 21
10.000000
 31
0.0
  0
LINE
  5
80
  8
TRACE
 10
113.000000
 20
10.000000
 30
0.0
 11
111.000000
 21
1.000000
 31
0.0
  0
LINE
  5
81
  8
TRACE
 10
111.000000
 20
1.000000
 30
0.0
 11
109.000000
 21
13.000000
 31
0.0
  0
LINE
  5
82
  8
TRACE
 10
109.000000
 20
13.000000
 30
0.0
 11
108.000000
 21
1.000000
 31
0.0
  0
LINE
  5
83
  8
TRACE
 10
108.000000
 20
1.000000
 30
0.0
 11
99.000000
 21
1.000000
 31
0.0
  0
LINE
  5
84
  8
TRACE
 10
102.000000
 20
5.000000
 30
0.0
 11
101.000000
 21
22.000000
 31
0.0
  0
LINE
  5
85
  8
TRACE
 10
97.000000
 20
18.000000
 30
0.0
 11
96.000000
 21
1.000000
 31
0.0
  0
LINE
  5
86
  8
TRACE
 10
96.000000
 20
1.000000
 30
0.0
 11
95.000000
 21
29.000000
 31
0.0
  0
LINE
  5
87
  8
TRACE
 10
90.000000
 20
24.000000
 30
0.0
 11
88.000000
 21
1.000000
 31
0.0
  0
LINE
  5
88
  8
TRACE
 10
88.000000
 20
1.000000
 30
0.0
 11
87.000000
 21
37.000000
 31
0.0
  0
LINE
  5
89
  8
TRACE
 10
87.000000
 20
37.000000
 30
0.0
 11
81.000000
 21
31.000000
 31
0.0
  0
LINE
  5
8A
  8
TRACE
 10
81.000000
 20
31.000000
 30
0.0
 11
81.000000
 21
1.000000
 31
0.0
  0
LINE
  5
8B
  8
TRACE
 10
77.000000
 20
1.000000
 30
0.0
 11
76.000000
 21
12.000000
 31
0.0
  0
LINE
  5
8C
  8
TRACE
 10
76.000000
 20
12.000000
 30
0.0
 11
68.000000
 21
12.000000
 31
0.0
  0
LINE
  5
8D
  8
TRACE
 10
68.000000
 20
12.000000
 30
0.0
 11
67.000000
 21
1.000000
 31
0.0
  0
LINE
  5
8E
  8
TRACE
 10
64.000000
 20
1.000000
 30
0.0
 11
64.000000
 21
13.000000
 31
0.0
  0
LINE
  5
8F
  8
TRACE
 10
64.000000
 20
13.000000
 30
0.0
 11
50.000000
 21
19.000000
 31
0.0
  0
LINE
  5
90
  8
TRACE
 10
49.000000
 20
29.000000
 30
0.0
 11
48.000000
 21
1.000000
 31
0.0
  0
LINE
  5
91
  8
TRACE
 10
44.000000
 20
1.000000
 30
0.0
 11
44.000000
 21
21.000000
 31
0.0
  0
LINE
  5
92
  8
TRACE
 10
44.000000
 20
21.000000
 30
0.0
 11
28.000000
 21
26.000000
 31
0.0
  0
LINE
  5
93
  8
TRACE
 10
34.000000
 20
31.000000
 30
0.0
 11
21.000000
 21
38.000000
 31
0.0
  0
LINE
  5
94
  8
TRACE
 10
21.000000
 20
38.000000
 30
0.0
 11
16.000000
 21
1.000000
 31
0.0
  0
LINE
  5
95
  8
TRACE
 10
16.000000
 20
1.000000
 30
0.0
 11
0.000000
 21
1.000000
 31
0.0
  0
LINE
  5
96
  8
TRACE
 10
5.000000
 20
11.000000
 30
0.0
 11
7.000000
 21
19.000000
 31
0.0
  0
LINE
  5
97
  8
TRACE
 10
7.000000
 20
19.000000
 30
0.0
 11
7.000000
 21
9.000000
 31
0.0
  0
LINE
  5
98
  8
TRACE
 10
10.000000
 20
9.000000
 30
0.0
 11
10.000000
 21
135.000000
 31
0.0
  0
LINE
  5
99
  8
TRACE
 10
10.000000
 20
135.000000
 30
0.0
 11
18.000000
 21
129.000000
 31
0.0
  0
LINE
  5
9A
  8
TRACE
 10
17.000000
 20
133.000000
 30
0.0
 11
145.000000
 21
158.000000
 31
0.0
  0
LINE
  5
9B
  8
TRACE
 10
154.000000
 20
155.000000
 30
0.0
 11
167.000000
 21
154.000000
 31
0.0
  0
LINE
  5
9C
  8
TRACE
 10
167.000000
 20
154.000000
 30
0.0
 11
159.000000
 21
157.000000
 31
0.0
  0
LINE
  5
9D
  8
TRACE
 10
168.000000
 20
152.000000
 30
0.0
 11
180.000000
 21
151.000000
 31
0.0
  0
LINE
  5
9E
  8
TRACE
 10
178.000000
 20
154.000000
 30
0.0
 11
170.000000
 21
155.000000
 31
0.0
  0
LINE
  5
9F
  8
TRACE
 10
134.000000
 20
154.000000
 30
0.0
 11
124.000000
 21
154.000000
 31
0.0
  0
LINE
  5
A0
  8
TRACE
 10
121.000000
 20
151.000000
 30
0.0
 11
134.000000
 21
153.000000
 31
0.0
  0
LINE
  5
A1
  8
TRACE
 10
180.000000
 20
151.000000
 30
0.0
 11
193.000000
 21
149.000000
 31
0.0
  0
LINE
  5
A2
  8
TRACE
 10
193.000000
 20
149.000000
 30
0.0
 11
185.000000
 21
152.000000
 31
0.0
  0
LINE
  5
A3
  8
TRACE
 10
120.000000
 20
153.000000
 30
0.0
 11
108.000000
 21
150.000000
 31
0.0
  0
LINE
  5
A4
  8
TRACE
 10
110.000000
 20
147.000000
 30
0.0
 11
120.000000
 21
149.000000
 31
0.0
  0
LINE
  5
A5
  8
TRACE
 10
194.000000
 20
147.000000
 30
0.0
 11
206.000000
 21
146.000000
 31
0.0
  0
LINE
  5
A6
  8
TRACE
 10
204.000000
 20
149.000000
 30
0.0
 11
196.000000
 21
150.000000
 31
0.0
  0
LINE
  5
A7
  8
TRACE
 10
104.000000
 20
150.000000
 30
0.0
 11
95.000000
 21
146.000000
 31
0.0
  0
LINE
  5
A8
  8
TRACE
 10
95.000000
 20
146.000000
 30
0.0
 11
107.000000
 21
147.000000
 31
0.0
  0
LINE
  5
A9
  8
TRACE
 10
206.000000
 20
146.000000
 30
0.0
 11
219.000000
 21
144.000000
 31
0.0
  0
LINE
  5
AA
  8
TRACE
 10
219.000000
 20
144.000000
 30
0.0
 11
211.000000
 21
147.000000
 31
0.0
  0
LINE
  5
AB
  8
TRACE
 10
94.000000
 20
148.000000
 30
0.0
 11
84.000000
 21
146.000000
 31
0.0
  0
LINE
  5
AC
  8
TRACE
 10
82.000000
 20
143.000000
 30
0.0
 11
94.000000
 21
144.000000
 31
0.0
  0
LINE
  5
AD
  8
TRACE
 10
219.000000
 20
144.000000
 30
0.0
 11
232.000000
 21
141.000000
 31
0.0
  0
LINE
  5
AE
  8
TRACE
 10
231.000000
 20
144.000000
 30
0.0
 11
223.000000
 21
145.000000
 31
0.0
  0
LINE
  5
AF
  8
TRACE
 10
148.000000
 20
144.000000
 30
0.0
 11
107.000000
 21
138.000000
 31
0.0
  0
LINE
  5
B0
  8
TRACE
 10
107.000000
 20
138.000000
 30
0.0
 11
106.000000
 21
125.000000
 31
0.0
  0
LINE
  5
B1
  8
TRACE
 10
125.000000
 20
129.000000
 30
0.0
 11
134.000000
 21
128.000000
 31
0.0
  0
LINE
  5
B2
  8
TRACE
 10
138.000000
 20
129.000000
 30
0.0
 11
147.000000
 21
131.000000
 31
0.0
  0
LINE
  5
B3
  8
TRACE
 10
147.000000
 20
131.000000
 30
0.0
 11
148.000000
 21
140.000000
 31
0.0
  0
LINE
  5
B4
  8
TRACE
 10
148.000000
 20
140.000000
 30
0.0
 11
149.000000
 21
131.000000
 31
0.0
  0
LINE
  5
B5
  8
TRACE
 10
149.000000
 20
131.000000
 30
0.0
 11
149.000000
 21
145.000000
 31
0.0
  0
LINE
  5
B6
  8
TRACE
 10
153.000000
 20
144.000000
 30
0.0
 11
152.000000
 21
131.000000
 31
0.0
  0
LINE
  5
B7
  8
TRACE
 10
153.000000
 20
133.000000
 30
0.0
 11
164.000000
 21
129.000000
 31
0.0
  0
LINE
  5
B8
  8
TRACE
 10
164.000000
 20
129.000000
 30
0.0
 11
165.000000
 21
139.000000
 31
0.0
  0
LINE
  5
B9
  8
TRACE
 10
165.000000
 20
139.000000
 30
0.0
 11
165.000000
 21
130.000000
 31
0.0
  0
LINE
  5
BA
  8
TRACE
 10
179.000000
 20
126.000000
 30
0.0
 11
195.000000
 21
125.000000
 31
0.0
  0
LINE
  5
BB
  8
TRACE
 10
195.000000
 20
125.000000
 30
0.0
 11
195.000000
 21
138.000000
 31
0.0
  0
LINE
  5
BC
  8
TRACE
 10
195.000000
 20
138.000000
 30
0.0
 11
154.000000
 21
145.000000
 31
0.0
  0
LINE
  5
BD
  8
TRACE
 10
142.000000
 20
145.000000
 30
0.0
 11
107.000000
 21
138.000000
 31
0.0
  0
LINE
  5
BE
  8
TRACE
 10
107.000000
 20
138.000000
 30
0.0
 11
106.000000
 21
125.000000
 31
0.0
  0
LINE
  5
BF
  8
TRACE
 10
125.000000
 20
129.000000
 30
0.0
 11
134.000000
 21
128.000000
 31
0.0
  0
LINE
  5
C0
  8
TRACE
 10
138.000000
 20
129.000000
 30
0.0
 11
147.000000
 21
131.000000
 31
0.0
  0
LINE
  5
C1
  8
TRACE
 10
147.000000
 20
131.000000
 30
0.0
 11
148.000000
 21
140.000000
 31
0.0
  0
LINE
  5
C2
  8
TRACE
 10
148.000000
 20
140.000000
 30
0.0
 11
149.000000
 21
131.000000
 31
0.0
  0
LINE
  5
C3
  8
TRACE
 10
149.000000
 20
131.000000
 30
0.0
 11
148.000000
 21
144.000000
 31
0.0
  0
LINE
  5
C4
  8
TRACE
 10
81.000000
 20
145.000000
 30
0.0
 11
69.000000
 21
142.000000
 31
0.0
  0
LINE
  5
C5
  8
TRACE
 10
69.000000
 20
142.000000
 30
0.0
 11
80.000000
 21
141.000000
 31
0.0
  0
LINE
  5
C6
  8
TRACE
 10
142.000000
 20
145.000000
 30
0.0
 11
107.000000
 21
138.000000
 31
0.0
  0
LINE
  5
C7
  8
TRACE
 10
107.000000
 20
138.000000
 30
0.0
 11
106.000000
 21
125.000000
 31
0.0
  0
LINE
  5
C8
  8
TRACE
 10
125.000000
 20
129.000000
 30
0.0
 11
134.000000
 21
128.000000
 31
0.0
  0
LINE
  5
C9
  8
TRACE
 10
138.000000
 20
129.000000
 30
0.0
 11
147.000000
 21
131.000000
 31
0.0
  0
LINE
  5
CA
  8
TRACE
 10
147.000000
 20
131.000000
 30
0.0
 11
148.000000
 21
140.000000
 31
0.0
  0
LINE
  5
CB
  8
TRACE
 10
148.000000
 20
140.000000
 30
0.0
 11
149.000000
 21
131.000000
 31
0.0
  0
LINE
  5
CC
  8
TRACE
 10
149.000000
 20
131.000000
 30
0.0
 11
150.000000
 21
144.000000
 31
0.0
  0
LINE
  5
CD
  8
TRACE
 10
233.000000
 20
141.000000
 30
0.0
 11
241.000000
 21
138.000000
 31
0.0
  0
LINE
  5
CE
  8
TRACE
 10
246.000000
 20
140.000000
 30
0.0
 11
238.000000
 21
142.000000
 31
0.0
  0
LINE
  5
CF
  8
TRACE
 10
65.000000
 20
142.000000
 30
0.0
 11
56.000000
 21
139.000000
 31
0.0
  0
LINE
  5
D0
  8
TRACE
 10
56.000000
 20
139.000000
 30
0.0
 11
68.000000
 21
139.000000
 31
0.0
  0
LINE
  5
D1
  8
TRACE
 10
246.000000
 20
138.000000
 30
0.0
 11
258.000000
 21
137.000000
 31
0.0
  0
LINE
  5
D2
  8
TRACE
 10
258.000000
 20
137.000000
 30
0.0
 11
250.000000
 21
140.000000
 31
0.0
  0
LINE
  5
D3
  8
TRACE
 10
55.000000
 20
140.000000
 30
0.0
 11
43.000000
 21
136.000000
 31
0.0
  0
LINE
  5
D4
  8
TRACE
 10
45.000000
 20
134.000000
 30
0.0
 11
56.000000
 21
137.000000
 31
0.0
  0
LINE
  5
D5
  8
TRACE
 10
259.000000
 20
136.000000
 30
0.0
 11
268.000000
 21
133.000000
 31
0.0
  0
LINE
  5
D6
  8
TRACE
 10
104.000000
 20
136.000000
 30
0.0
 11
87.000000
 21
133.000000
 31
0.0
  0
LINE
  5
D7
  8
TRACE
 10
87.000000
 20
133.000000
 30
0.0
 11
93.000000
 21
120.000000
 31
0.0
  0
LINE
  5
D8
  8
TRACE
 10
93.000000
 20
120.000000
 30
0.0
 11
103.000000
 21
123.000000
 31
0.0
  0
LINE
  5
D9
  8
TRACE
 10
103.000000
 20
123.000000
 30
0.0
 11
104.000000
 21
135.000000
 31
0.0
  0
LINE
  5
DA
  8
TRACE
 10
197.000000
 20
136.000000
 30
0.0
 11
197.000000
 21
125.000000
 31
0.0
  0
LINE
  5
DB
  8
TRACE
 10
197.000000
 20
125.000000
 30
0.0
 11
209.000000
 21
121.000000
 31
0.0
  0
LINE
  5
DC
  8
TRACE
 10
209.000000
 20
121.000000
 30
0.0
 11
214.000000
 21
134.000000
 31
0.0
  0
LINE
  5
DD
  8
TRACE
 10
214.000000
 20
134.000000
 30
0.0
 11
202.000000
 21
135.000000
 31
0.0
  0
LINE
  5
DE
  8
TRACE
 10
40.000000
 20
137.000000
 30
0.0
 11
30.000000
 21
134.000000
 31
0.0
  0
LINE
  5
DF
  8
TRACE
 10
30.000000
 20
134.000000
 30
0.0
 11
42.000000
 21
134.000000
 31
0.0
  0
LINE
  5
E0
  8
TRACE
 10
272.000000
 20
134.000000
 30
0.0
 11
283.000000
 21
132.000000
 31
0.0
  0
LINE
  5
E1
  8
TRACE
 10
19.000000
 20
131.000000
 30
0.0
 11
30.000000
 21
132.000000
 31
0.0
  0
LINE
  5
E2
  8
TRACE
 10
215.000000
 20
132.000000
 30
0.0
 11
212.000000
 21
120.000000
 31
0.0
  0
LINE
  5
E3
  8
TRACE
 10
212.000000
 20
120.000000
 30
0.0
 11
222.000000
 21
121.000000
 31
0.0
  0
LINE
  5
E4
  8
TRACE
 10
222.000000
 20
121.000000
 30
0.0
 11
223.000000
 21
132.000000
 31
0.0
  0
LINE
  5
E5
  8
TRACE
 10
86.000000
 20
132.000000
 30
0.0
 11
78.000000
 21
131.000000
 31
0.0
  0
LINE
  5
E6
  8
TRACE
 10
78.000000
 20
131.000000
 30
0.0
 11
82.000000
 21
118.000000
 31
0.0
  0
LINE
  5
E7
  8
TRACE
 10
82.000000
 20
118.000000
 30
0.0
 11
91.000000
 21
121.000000
 31
0.0
  0
LINE
  5
E8
  8
TRACE
 10
91.000000
 20
121.000000
 30
0.0
 11
86.000000
 21
131.000000
 31
0.0
  0
LINE
  5
E9
  8
TRACE
 10
225.000000
 20
129.000000
 30
0.0
 11
227.000000
 21
117.000000
 31
0.0
  0
LINE
  5
EA
  8
TRACE
 10
232.000000
 20
117.000000
 30
0.0
 11
239.000000
 21
128.000000
 31
0.0
  0
LINE
  5
EB
  8
TRACE
 10
239.000000
 20
128.000000
 30
0.0
 11
230.000000
 21
131.000000
 31
0.0
  0
LINE
  5
EC
  8
TRACE
 10
75.000000
 20
130.000000
 30
0.0
 11
63.000000
 21
128.000000
 31
0.0
  0
LINE
  5
ED
  8
TRACE
 10
63.000000
 20
128.000000
 30
0.0
 11
70.000000
 21
116.000000
 31
0.0
  0
LINE
  5
EE
  8
TRACE
 10
77.000000
 20
118.000000
 30
0.0
 11
76.000000
 21
129.000000
 31
0.0
  0
LINE
  5
EF
  8
TRACE
 10
240.000000
 20
129.000000
 30
0.0
 11
233.000000
 21
117.000000
 31
0.0
  0
LINE
  5
F0
  8
TRACE
 10
233.000000
 20
117.000000
 30
0.0
 11
242.000000
 21
114.000000
 31
0.0
  0
LINE
  5
F1
  8
TRACE
 10
242.000000
 20
114.000000
 30
0.0
 11
251.000000
 21
126.000000
 31
0.0
  0
LINE
  5
F2
  8
TRACE
 10
148.000000
 20
126.000000
 30
0.0
 11
108.000000
 21
119.000000
 31
0.0
  0
LINE
  5
F3
  8
TRACE
 10
108.000000
 20
119.000000
 30
0.0
 11
106.000000
 21
108.000000
 31
0.0
  0
LINE
  5
F4
  8
TRACE
 10
122.000000
 20
108.000000
 30
0.0
 11
147.000000
 21
113.000000
 31
0.0
  0
LINE
  5
F5
  8
TRACE
 10
150.000000
 20
115.000000
 30
0.0
 11
149.000000
 21
127.000000
 31
0.0
  0
LINE
  5
F6
  8
TRACE
 10
153.000000
 20
126.000000
 30
0.0
 11
152.000000
 21
114.000000
 31
0.0
  0
LINE
  5
F7
  8
TRACE
 10
155.000000
 20
113.000000
 30
0.0
 11
163.000000
 21
114.000000
 31
0.0
  0
LINE
  5
F8
  8
TRACE
 10
165.000000
 20
111.000000
 30
0.0
 11
173.000000
 21
112.000000
 31
0.0
  0
LINE
  5
F9
  8
TRACE
 10
175.000000
 20
109.000000
 30
0.0
 11
195.000000
 21
107.000000
 31
0.0
  0
LINE
  5
FA
  8
TRACE
 10
195.000000
 20
107.000000
 30
0.0
 11
195.000000
 21
118.000000
 31
0.0
  0
LINE
  5
FB
  8
TRACE
 10
192.000000
 20
120.000000
 30
0.0
 11
154.000000
 21
127.000000
 31
0.0
  0
LINE
  5
FC
  8
TRACE
 10
252.000000
 20
127.000000
 30
0.0
 11
245.000000
 21
118.000000
 31
0.0
  0
LINE
  5
FD
  8
TRACE
 10
254.000000
 20
112.000000
 30
0.0
 11
263.000000
 21
123.000000
 31
0.0
  0
LINE
  5
FE
  8
TRACE
 10
51.000000
 20
125.000000
 30
0.0
 11
39.000000
 21
123.000000
 31
0.0
  0
LINE
  5
FF
  8
TRACE
 10
39.000000
 20
123.000000
 30
0.0
 11
48.000000
 21
111.000000
 31
0.0
  0
LINE
  5
100
  8
TRACE
 10
48.000000
 20
111.000000
 30
0.0
 11
58.000000
 21
114.000000
 31
0.0
  0
LINE
  5
101
  8
TRACE
 10
58.000000
 20
114.000000
 30
0.0
 11
51.000000
 21
124.000000
 31
0.0
  0
LINE
  5
102
  8
TRACE
 10
264.000000
 20
125.000000
 30
0.0
 11
256.000000
 21
115.000000
 31
0.0
  0
LINE
  5
103
  8
TRACE
 10
264.000000
 20
111.000000
 30
0.0
 11
274.000000
 21
122.000000
 31
0.0
  0
LINE
  5
104
  8
TRACE
 10
38.000000
 20
122.000000
 30
0.0
 11
29.000000
 21
122.000000
 31
0.0
  0
LINE
  5
105
  8
TRACE
 10
32.000000
 20
116.000000
 30
0.0
 11
25.000000
 21
120.000000
 31
0.0
  0
LINE
  5
106
  8
TRACE
 10
25.000000
 20
120.000000
 30
0.0
 11
35.000000
 21
109.000000
 31
0.0
  0
LINE
  5
107
  8
TRACE
 10
38.000000
 20
109.000000
 30
0.0
 11
46.000000
 21
112.000000
 31
0.0
  0
LINE
  5
108
  8
TRACE
 10
46.000000
 20
112.000000
 30
0.0
 11
39.000000
 21
122.000000
 31
0.0
  0
LINE
  5
109
  8
TRACE
 10
274.000000
 20
122.000000
 30
0.0
 11
265.000000
 21
111.000000
 31
0.0
  0
LINE
  5
10A
  8
TRACE
 10
267.000000
 20
110.000000
 30
0.0
 11
276.000000
 21
120.000000
 31
0.0
  0
LINE
  5
10B
  8
TRACE
 10
278.000000
 20
122.000000
 30
0.0
 11
268.000000
 21
110.000000
 31
0.0
  0
LINE
  5
10C
  8
TRACE
 10
270.000000
 20
108.000000
 30
0.0
 11
281.000000
 21
120.000000
 31
0.0
  0
LINE
  5
10D
  8
TRACE
 10
21.000000
 20
120.000000
 30
0.0
 11
33.000000
 21
108.000000
 31
0.0
  0
LINE
  5
10E
  8
TRACE
 10
33.000000
 20
108.000000
 30
0.0
 11
27.000000
 21
117.000000
 31
0.0
  0
LINE
  5
10F
  8
TRACE
 10
104.000000
 20
117.000000
 30
0.0
 11
94.000000
 21
115.000000
 31
0.0
  0
LINE
  5
110
  8
TRACE
 10
94.000000
 20
115.000000
 30
0.0
 11
99.000000
 21
104.000000
 31
0.0
  0
LINE
  5
111
  8
TRACE
 10
104.000000
 20
106.000000
 30
0.0
 11
104.000000
 21
116.000000
 31
0.0
  0
LINE
  5
112
  8
TRACE
 10
197.000000
 20
117.000000
 30
0.0
 11
197.000000
 21
106.000000
 31
0.0
  0
LINE
  5
113
  8
TRACE
 10
202.000000
 20
104.000000
 30
0.0
 11
207.000000
 21
114.000000
 31
0.0
  0
LINE
  5
114
  8
TRACE
 10
27.000000
 20
104.000000
 30
0.0
 11
43.000000
 21
89.000000
 31
0.0
  0
LINE
  5
115
  8
TRACE
 10
43.000000
 20
89.000000
 30
0.0
 11
20.000000
 21
115.000000
 31
0.0
  0
LINE
  5
116
  8
TRACE
 10
68.000000
 20
116.000000
 30
0.0
 11
62.000000
 21
128.000000
 31
0.0
  0
LINE
  5
117
  8
TRACE
 10
62.000000
 20
128.000000
 30
0.0
 11
51.000000
 21
126.000000
 31
0.0
  0
LINE
  5
118
  8
TRACE
 10
51.000000
 20
126.000000
 30
0.0
 11
59.000000
 21
114.000000
 31
0.0
  0
LINE
  5
119
  8
TRACE
 10
59.000000
 20
114.000000
 30
0.0
 11
67.000000
 21
115.000000
 31
0.0
  0
LINE
  5
11A
  8
TRACE
 10
93.000000
 20
115.000000
 30
0.0
 11
84.000000
 21
113.000000
 31
0.0
  0
LINE
  5
11B
  8
TRACE
 10
87.000000
 20
107.000000
 30
0.0
 11
81.000000
 21
114.000000
 31
0.0
  0
LINE
  5
11C
  8
TRACE
 10
81.000000
 20
114.000000
 30
0.0
 11
79.000000
 21
101.000000
 31
0.0
  0
LINE
  5
11D
  8
TRACE
 10
89.000000
 20
102.000000
 30
0.0
 11
97.000000
 21
103.000000
 31
0.0
  0
LINE
  5
11E
  8
TRACE
 10
97.000000
 20
103.000000
 30
0.0
 11
94.000000
 21
114.000000
 31
0.0
  0
LINE
  5
11F
  8
TRACE
 10
209.000000
 20
116.000000
 30
0.0
 11
204.000000
 21
105.000000
 31
0.0
  0
LINE
  5
120
  8
TRACE
 10
204.000000
 20
105.000000
 30
0.0
 11
221.000000
 21
101.000000
 31
0.0
  0
LINE
  5
121
  8
TRACE
 10
221.000000
 20
101.000000
 30
0.0
 11
222.000000
 21
113.000000
 31
0.0
  0
LINE
  5
122
  8
TRACE
 10
283.000000
 20
114.000000
 30
0.0
 11
258.000000
 21
91.000000
 31
0.0
  0
LINE
  5
123
  8
TRACE
 10
260.000000
 20
90.000000
 30
0.0
 11
276.000000
 21
106.000000
 31
0.0
  0
LINE
  5
124
  8
TRACE
 10
282.000000
 20
100.000000
 30
0.0
 11
283.000000
 21
113.000000
 31
0.0
  0
LINE
  5
125
  8
TRACE
 10
228.000000
 20
110.000000
 30
0.0
 11
225.000000
 21
101.000000
 31
0.0
  0
LINE
  5
126
  8
TRACE
 10
229.000000
 20
99.000000
 30
0.0
 11
238.000000
 21
107.000000
 31
0.0
  0
LINE
  5
127
  8
TRACE
 10
238.000000
 20
107.000000
 30
0.0
 11
233.000000
 21
100.000000
 31
0.0
  0
LINE
  5
128
  8
TRACE
 10
251.000000
 20
96.000000
 30
0.0
 11
258.000000
 21
103.000000
 31
0.0
  0
LINE
  5
129
  8
TRACE
 10
258.000000
 20
103.000000
 30
0.0
 11
251.000000
 21
96.000000
 31
0.0
  0
LINE
  5
12A
  8
TRACE
 10
253.000000
 20
95.000000
 30
0.0
 11
262.000000
 21
104.000000
 31
0.0
  0
LINE
  5
12B
  8
TRACE
 10
259.000000
 20
105.000000
 30
0.0
 11
251.000000
 21
108.000000
 31
0.0
  0
LINE
  5
12C
  8
TRACE
 10
251.000000
 20
108.000000
 30
0.0
 11
245.000000
 21
101.000000
 31
0.0
  0
LINE
  5
12D
  8
TRACE
 10
245.000000
 20
101.000000
 30
0.0
 11
249.000000
 21
109.000000
 31
0.0
  0
LINE
  5
12E
  8
TRACE
 10
249.000000
 20
109.000000
 30
0.0
 11
230.000000
 21
112.000000
 31
0.0
  0
LINE
  5
12F
  8
TRACE
 10
73.000000
 20
111.000000
 30
0.0
 11
52.000000
 21
108.000000
 31
0.0
  0
LINE
  5
130
  8
TRACE
 10
52.000000
 20
108.000000
 30
0.0
 11
57.000000
 21
100.000000
 31
0.0
  0
LINE
  5
131
  8
TRACE
 10
57.000000
 20
100.000000
 30
0.0
 11
51.000000
 21
107.000000
 31
0.0
  0
LINE
  5
132
  8
TRACE
 10
51.000000
 20
107.000000
 30
0.0
 11
39.000000
 21
104.000000
 31
0.0
  0
LINE
  5
133
  8
TRACE
 10
39.000000
 20
104.000000
 30
0.0
 11
49.000000
 21
94.000000
 31
0.0
  0
LINE
  5
134
  8
TRACE
 10
49.000000
 20
94.000000
 30
0.0
 11
58.000000
 21
98.000000
 31
0.0
  0
LINE
  5
135
  8
TRACE
 10
58.000000
 20
98.000000
 30
0.0
 11
66.000000
 21
97.000000
 31
0.0
  0
LINE
  5
136
  8
TRACE
 10
68.000000
 20
100.000000
 30
0.0
 11
76.000000
 21
99.000000
 31
0.0
  0
LINE
  5
137
  8
TRACE
 10
76.000000
 20
99.000000
 30
0.0
 11
77.000000
 21
111.000000
 31
0.0
  0
LINE
  5
138
  8
TRACE
 10
148.000000
 20
106.000000
 30
0.0
 11
110.000000
 21
100.000000
 31
0.0
  0
LINE
  5
139
  8
TRACE
 10
107.000000
 20
93.000000
 30
0.0
 11
147.000000
 21
99.000000
 31
0.0
  0
LINE
  5
13A
  8
TRACE
 10
154.000000
 20
99.000000
 30
0.0
 11
162.000000
 21
100.000000
 31
0.0
  0
LINE
  5
13B
  8
TRACE
 10
164.000000
 20
97.000000
 30
0.0
 11
180.000000
 21
97.000000
 31
0.0
  0
LINE
  5
13C
  8
TRACE
 10
194.000000
 20
100.000000
 30
0.0
 11
154.000000
 21
107.000000
 31
0.0
  0
LINE
  5
13D
  8
TRACE
 10
264.000000
 20
106.000000
 30
0.0
 11
258.000000
 21
97.000000
 31
0.0
  0
LINE
  5
13E
  8
TRACE
 10
258.000000
 20
97.000000
 30
0.0
 11
267.000000
 21
104.000000
 31
0.0
  0
LINE
  5
13F
  8
TRACE
 10
44.000000
 20
98.000000
 30
0.0
 11
38.000000
 21
105.000000
 31
0.0
  0
LINE
  5
140
  8
TRACE
 10
35.000000
 20
104.000000
 30
0.0
 11
42.000000
 21
96.000000
 31
0.0
  0
LINE
  5
141
  8
TRACE
 10
101.000000
 20
97.000000
 30
0.0
 11
80.000000
 21
94.000000
 31
0.0
  0
LINE
  5
142
  8
TRACE
 10
79.000000
 20
87.000000
 30
0.0
 11
102.000000
 21
90.000000
 31
0.0
  0
LINE
  5
143
  8
TRACE
 10
198.000000
 20
92.000000
 30
0.0
 11
222.000000
 21
88.000000
 31
0.0
  0
LINE
  5
144
  8
TRACE
 10
221.000000
 20
95.000000
 30
0.0
 11
207.000000
 21
97.000000
 31
0.0
  0
LINE
  5
145
  8
TRACE
 10
149.000000
 20
96.000000
 30
0.0
 11
106.000000
 21
87.000000
 31
0.0
  0
LINE
  5
146
  8
TRACE
 10
109.000000
 20
81.000000
 30
0.0
 11
144.000000
 21
87.000000
 31
0.0
  0
LINE
  5
147
  8
TRACE
 10
154.000000
 20
88.000000
 30
0.0
 11
169.000000
 21
87.000000
 31
0.0
  0
LINE
  5
148
  8
TRACE
 10
177.000000
 20
86.000000
 30
0.0
 11
189.000000
 21
81.000000
 31
0.0
  0
LINE
  5
149
  8
TRACE
 10
194.000000
 20
89.000000
 30
0.0
 11
154.000000
 21
96.000000
 31
0.0
  0
LINE
  5
14A
  8
TRACE
 10
240.000000
 20
83.000000
 30
0.0
 11
247.000000
 21
88.000000
 31
0.0
  0
LINE
  5
14B
  8
TRACE
 10
247.000000
 20
88.000000
 30
0.0
 11
228.000000
 21
93.000000
 31
0.0
  0
LINE
  5
14C
  8
TRACE
 10
272.000000
 20
93.000000
 30
0.0
 11
263.000000
 21
86.000000
 31
0.0
  0
LINE
  5
14D
  8
TRACE
 10
263.000000
 20
86.000000
 30
0.0
 11
272.000000
 21
92.000000
 31
0.0
  0
LINE
  5
14E
  8
TRACE
 10
74.000000
 20
92.000000
 30
0.0
 11
54.000000
 21
88.000000
 31
0.0
  0
LINE
  5
14F
  8
TRACE
 10
54.000000
 20
88.000000
 30
0.0
 11
61.000000
 21
83.000000
 31
0.0
  0
LINE
  5
150
  8
TRACE
 10
61.000000
 20
83.000000
 30
0.0
 11
76.000000
 21
85.000000
 31
0.0
  0
LINE
  5
151
  8
TRACE
 10
76.000000
 20
85.000000
 30
0.0
 11
75.000000
 21
93.000000
 31
0.0
  0
LINE
  5
152
  8
TRACE
 10
248.000000
 20
89.000000
 30
0.0
 11
241.000000
 21
84.000000
 31
0.0
  0
LINE
  5
153
  8
TRACE
 10
274.000000
 20
88.000000
 30
0.0
 11
258.000000
 21
76.000000
 31
0.0
  0
LINE
  5
154
  8
TRACE
 10
258.000000
 20
76.000000
 30
0.0
 11
259.000000
 21
46.000000
 31
0.0
  0
LINE
  5
155
  8
TRACE
 10
259.000000
 20
46.000000
 30
0.0
 11
284.000000
 21
47.000000
 31
0.0
  0
LINE
  5
156
  8
TRACE
 10
284.000000
 20
47.000000
 30
0.0
 11
283.000000
 21
79.000000
 31
0.0
  0
LINE
  5
157
  8
TRACE
 10
283.000000
 20
79.000000
 30
0.0
 11
275.000000
 21
87.000000
 31
0.0
  0
LINE
  5
158
  8
TRACE
 10
30.000000
 20
87.000000
 30
0.0
 11
19.000000
 21
78.000000
 31
0.0
  0
LINE
  5
159
  8
TRACE
 10
19.000000
 20
78.000000
 30
0.0
 11
17.000000
 21
45.000000
 31
0.0
  0
LINE
  5
15A
  8
TRACE
 10
17.000000
 20
45.000000
 30
0.0
 11
44.000000
 21
46.000000
 31
0.0
  0
LINE
  5
15B
  8
TRACE
 10
44.000000
 20
46.000000
 30
0.0
 11
44.000000
 21
75.000000
 31
0.0
  0
LINE
  5
15C
  8
TRACE
 10
44.000000
 20
75.000000
 30
0.0
 11
31.000000
 21
86.000000
 31
0.0
  0
LINE
  5
15D
  8
TRACE
 10
104.000000
 20
87.000000
 30
0.0
 11
82.000000
 21
84.000000
 31
0.0
  0
LINE
  5
15E
  8
TRACE
 10
79.000000
 20
76.000000
 30
0.0
 11
98.000000
 21
78.000000
 31
0.0
  0
LINE
  5
15F
  8
TRACE
 10
198.000000
 20
80.000000
 30
0.0
 11
222.000000
 21
76.000000
 31
0.0
  0
LINE
  5
160
  8
TRACE
 10
222.000000
 20
76.000000
 30
0.0
 11
220.000000
 21
84.000000
 31
0.0
  0
LINE
  5
161
  8
TRACE
 10
220.000000
 20
84.000000
 30
0.0
 11
203.000000
 21
87.000000
 31
0.0
  0
LINE
  5
162
  8
TRACE
 10
253.000000
 20
84.000000
 30
0.0
 11
245.000000
 21
77.000000
 31
0.0
  0
LINE
  5
163
  8
TRACE
 10
245.000000
 20
77.000000
 30
0.0
 11
253.000000
 21
83.000000
 31
0.0
  0
LINE
  5
164
  8
TRACE
 10
49.000000
 20
82.000000
 30
0.0
 11
62.000000
 21
69.000000
 31
0.0
  0
LINE
  5
165
  8
TRACE
 10
63.000000
 20
71.000000
 30
0.0
 11
52.000000
 21
82.000000
 31
0.0
  0
LINE
  5
166
  8
TRACE
 10
61.000000
 20
83.000000
 30
0.0
 11
54.000000
 21
88.000000
 31
0.0
  0
LINE
  5
167
  8
TRACE
 10
151.000000
 20
82.000000
 30
0.0
 11
143.000000
 21
83.000000
 31
0.0
  0
LINE
  5
168
  8
TRACE
 10
143.000000
 20
83.000000
 30
0.0
 11
113.000000
 21
77.000000
 31
0.0
  0
LINE
  5
169
  8
TRACE
 10
116.000000
 20
72.000000
 30
0.0
 11
151.000000
 21
81.000000
 31
0.0
  0
LINE
  5
16A
  8
TRACE
 10
151.000000
 20
80.000000
 30
0.0
 11
187.000000
 21
72.000000
 31
0.0
  0
LINE
  5
16B
  8
TRACE
 10
191.000000
 20
75.000000
 30
0.0
 11
160.000000
 21
82.000000
 31
0.0
  0
LINE
  5
16C
  8
TRACE
 10
228.000000
 20
74.000000
 30
0.0
 11
239.000000
 21
79.000000
 31
0.0
  0
LINE
  5
16D
  8
TRACE
 10
239.000000
 20
79.000000
 30
0.0
 11
230.000000
 21
82.000000
 31
0.0
  0
LINE
  5
16E
  8
TRACE
 10
77.000000
 20
81.000000
 30
0.0
 11
62.000000
 21
79.000000
 31
0.0
  0
LINE
  5
16F
  8
TRACE
 10
62.000000
 20
79.000000
 30
0.0
 11
71.000000
 21
73.000000
 31
0.0
  0
LINE
  5
170
  8
TRACE
 10
151.000000
 20
76.000000
 30
0.0
 11
117.000000
 21
71.000000
 31
0.0
  0
LINE
  5
171
  8
TRACE
 10
120.000000
 20
65.000000
 30
0.0
 11
141.000000
 21
69.000000
 31
0.0
  0
LINE
  5
172
  8
TRACE
 10
141.000000
 20
69.000000
 30
0.0
 11
149.000000
 21
73.000000
 31
0.0
  0
LINE
  5
173
  8
TRACE
 10
152.000000
 20
71.000000
 30
0.0
 11
183.000000
 21
65.000000
 31
0.0
  0
LINE
  5
174
  8
TRACE
 10
186.000000
 20
71.000000
 30
0.0
 11
156.000000
 21
76.000000
 31
0.0
  0
LINE
  5
175
  8
TRACE
 10
197.000000
 20
71.000000
 30
0.0
 11
222.000000
 21
67.000000
 31
0.0
  0
LINE
  5
176
  8
TRACE
 10
220.000000
 20
71.000000
 30
0.0
 11
202.000000
 21
74.000000
 31
0.0
  0
LINE
  5
177
  8
TRACE
 10
104.000000
 20
73.000000
 30
0.0
 11
83.000000
 21
71.000000
 31
0.0
  0
LINE
  5
178
  8
TRACE
 10
79.000000
 20
67.000000
 30
0.0
 11
95.000000
 21
68.000000
 31
0.0
  0
LINE
  5
179
  8
TRACE
 10
95.000000
 20
68.000000
 30
0.0
 11
104.000000
 21
72.000000
 31
0.0
  0
LINE
  5
17A
  8
TRACE
 10
102.000000
 20
68.000000
 30
0.0
 11
82.000000
 21
64.000000
 31
0.0
  0
LINE
  5
17B
  8
TRACE
 10
84.000000
 20
58.000000
 30
0.0
 11
103.000000
 21
62.000000
 31
0.0
  0
LINE
  5
17C
  8
TRACE
 10
197.000000
 20
63.000000
 30
0.0
 11
222.000000
 21
60.000000
 31
0.0
  0
LINE
  5
17D
  8
TRACE
 10
221.000000
 20
64.000000
 30
0.0
 11
203.000000
 21
67.000000
 31
0.0
  0
LINE
  5
17E
  8
TRACE
 10
144.000000
 20
67.000000
 30
0.0
 11
117.000000
 21
60.000000
 31
0.0
  0
LINE
  5
17F
  8
TRACE
 10
119.000000
 20
58.000000
 30
0.0
 11
151.000000
 21
65.000000
 31
0.0
  0
LINE
  5
180
  8
TRACE
 10
159.000000
 20
66.000000
 30
0.0
 11
151.000000
 21
66.000000
 31
0.0
  0
LINE
  5
181
  8
TRACE
 10
151.000000
 20
66.000000
 30
0.0
 11
184.000000
 21
59.000000
 31
0.0
  0
LINE
  5
182
  8
TRACE
 10
183.000000
 20
62.000000
 30
0.0
 11
160.000000
 21
66.000000
 31
0.0
  0
LINE
  5
183
  8
TRACE
 10
246.000000
 20
63.000000
 30
0.0
 11
238.000000
 21
58.000000
 31
0.0
  0
LINE
  5
184
  8
TRACE
 10
238.000000
 20
58.000000
 30
0.0
 11
239.000000
 21
46.000000
 31
0.0
  0
LINE
  5
185
  8
TRACE
 10
239.000000
 20
46.000000
 30
0.0
 11
253.000000
 21
47.000000
 31
0.0
  0
LINE
  5
186
  8
TRACE
 10
253.000000
 20
47.000000
 30
0.0
 11
253.000000
 21
56.000000
 31
0.0
  0
LINE
  5
187
  8
TRACE
 10
253.000000
 20
56.000000
 30
0.0
 11
247.000000
 21
62.000000
 31
0.0
  0
LINE
  5
188
  8
TRACE
 10
59.000000
 20
62.000000
 30
0.0
 11
49.000000
 21
55.000000
 31
0.0
  0
LINE
  5
189
  8
TRACE
 10
49.000000
 20
55.000000
 30
0.0
 11
50.000000
 21
45.000000
 31
0.0
  0
LINE
  5
18A
  8
TRACE
 10
50.000000
 20
45.000000
 30
0.0
 11
64.000000
 21
46.000000
 31
0.0
  0
LINE
  5
18B
  8
TRACE
 10
64.000000
 20
46.000000
 30
0.0
 11
64.000000
 21
57.000000
 31
0.0
  0
LINE
  5
18C
  8
TRACE
 10
151.000000
 20
62.000000
 30
0.0
 11
131.000000
 21
59.000000
 31
0.0
  0
LINE
  5
18D
  8
TRACE
 10
131.000000
 20
59.000000
 30
0.0
 11
148.000000
 21
58.000000
 31
0.0
  0
LINE
  5
18E
  8
TRACE
 10
151.000000
 20
60.000000
 30
0.0
 11
171.000000
 21
59.000000
 31
0.0
  0
LINE
  5
18F
  8
TRACE
 10
171.000000
 20
59.000000
 30
0.0
 11
156.000000
 21
62.000000
 31
0.0
  0
LINE
  5
190
  8
TRACE
 10
184.000000
 20
59.000000
 30
0.0
 11
194.000000
 21
59.000000
 31
0.0
  0
LINE
  5
191
  8
TRACE
 10
132.000000
 20
57.000000
 30
0.0
 11
119.000000
 21
56.000000
 31
0.0
  0
LINE
  5
192
  8
TRACE
 10
119.000000
 20
56.000000
 30
0.0
 11
132.000000
 21
56.000000
 31
0.0
  0
LINE
  5
193
  8
TRACE
 10
181.000000
 20
57.000000
 30
0.0
 11
170.000000
 21
56.000000
 31
0.0
  0
LINE
  5
194
  8
TRACE
 10
170.000000
 20
56.000000
 30
0.0
 11
182.000000
 21
57.000000
 31
0.0
  0
LINE
  5
195
  8
TRACE
 10
87.000000
 20
53.000000
 30
0.0
 11
78.000000
 21
52.000000
 31
0.0
  0
LINE
  5
196
  8
TRACE
 10
78.000000
 20
52.000000
 30
0.0
 11
87.000000
 21
52.000000
 31
0.0
  0
LINE
  5
197
  8
TRACE
 10
211.000000
 20
52.000000
 30
0.0
 11
227.000000
 21
52.000000
 31
0.0
  0
LINE
  5
198
  8
TRACE
 10
227.000000
 20
52.000000
 30
0.0
 11
217.000000
 21
53.000000
 31
0.0
  0
LINE
  5
199
  8
TRACE
 10
192.000000
 20
52.000000
 30
0.0
 11
183.000000
 21
52.000000
 31
0.0
  0
LINE
  5
19A
  8
TRACE
 10
183.000000
 20
52.000000
 30
0.0
 11
191.000000
 21
51.000000
 31
0.0
  0
LINE
  5
19B
  8
TRACE
 10
86.000000
 20
49.000000
 30
0.0
 11
97.000000
 21
49.000000
 31
0.0
  0
LINE
  5
19C
  8
TRACE
 10
97.000000
 20
49.000000
 30
0.0
 11
89.000000
 21
50.000000
 31
0.0
  0
LINE
  5
19D
  8
TRACE
 10
149.000000
 20
50.000000
 30
0.0
 11
140.000000
 21
51.000000
 31
0.0
  0
LINE
  5
19E
  8
TRACE
 10
136.000000
 20
48.000000
 30
0.0
 11
149.000000
 21
49.000000
 31
0.0
  0
LINE
  5
19F
  8
TRACE
 10
153.000000
 20
50.000000
 30
0.0
 11
166.000000
 21
49.000000
 31
0.0
  0
LINE
  5
1A0
  8
TRACE
 10
166.000000
 20
49.000000
 30
0.0
 11
158.000000
 21
51.000000
 31
0.0
  0
LINE
  5
1A1
  8
TRACE
 10
176.000000
 20
49.000000
 30
0.0
 11
192.000000
 21
49.000000
 31
0.0
  0
LINE
  5
1A2
  8
TRACE
 10
192.000000
 20
49.000000
 30
0.0
 11
181.000000
 21
50.000000
 31
0.0
  0
LINE
  5
1A3
  8
TRACE
 10
213.000000
 20
50.000000
 30
0.0
 11
205.000000
 21
50.000000
 31
0.0
  0
LINE
  5
1A4
  8
TRACE
 10
205.000000
 20
50.000000
 30
0.0
 11
213.000000
 21
49.000000
 31
0.0
  0
LINE
  5
1A5
  8
TRACE
 10
113.000000
 20
48.000000
 30
0.0
 11
122.000000
 21
49.000000
 31
0.0
  0
LINE
  5
1A6
  8
TRACE
 10
122.000000
 20
49.000000
 30
0.0
 11
107.000000
 21
49.000000
 31
0.0
  0
LINE
  5
1A7
  8
TRACE
 10
168.000000
 20
47.000000
 30
0.0
 11
179.000000
 21
47.000000
 31
0.0
  0
LINE
  5
1A8
  8
TRACE
 10
133.000000
 20
47.000000
 30
0.0
 11
123.000000
 21
47.000000
 31
0.0
  0
LINE
  5
1A9
  8
TRACE
 10
123.000000
 20
47.000000
 30
0.0
 11
132.000000
 21
46.000000
 31
0.0
  0
LINE
  5
1AA
  8
TRACE
 10
59.000000
 20
43.000000
 30
0.0
 11
48.000000
 21
42.000000
 31
0.0
  0
LINE
  5
1AB
  8
TRACE
 10
48.000000
 20
42.000000
 30
0.0
 11
48.000000
 21
31.000000
 31
0.0
  0
LINE
  5
1AC
  8
TRACE
 10
48.000000
 20
31.000000
 30
0.0
 11
63.000000
 21
22.000000
 31
0.0
  0
LINE
  5
1AD
  8
TRACE
 10
63.000000
 20
22.000000
 30
0.0
 11
64.000000
 21
41.000000
 31
0.0
  0
LINE
  5
1AE
  8
TRACE
 10
42.000000
 20
41.000000
 30
0.0
 11
23.000000
 21
41.000000
 31
0.0
  0
LINE
  5
1AF
  8
TRACE
 10
23.000000
 20
41.000000
 30
0.0
 11
42.000000
 21
31.000000
 31
0.0
  0
LINE
  5
1B0
  8
TRACE
 10
42.000000
 20
31.000000
 30
0.0
 11
43.000000
 21
41.000000
 31
0.0
  0
LINE
  5
1B1
  8
TRACE
 10
68.000000
 20
40.000000
 30
0.0
 11
67.000000
 21
20.000000
 31
0.0
  0
LINE
  5
1B2
  8
TRACE
 10
67.000000
 20
20.000000
 30
0.0
 11
76.000000
 21
16.000000
 31
0.0
  0
LINE
  5
1B3
  8
TRACE
 10
76.000000
 20
16.000000
 30
0.0
 11
75.000000
 21
41.000000
 31
0.0
  0
LINE
  5
1B4
  8
TRACE
 10
141.000000
 20
41.000000
 30
0.0
 11
126.000000
 21
39.000000
 31
0.0
  0
LINE
  5
1B5
  8
TRACE
 10
126.000000
 20
39.000000
 30
0.0
 11
140.000000
 21
40.000000
 31
0.0
  0
LINE
  5
1B6
  8
TRACE
 10
169.000000
 20
41.000000
 30
0.0
 11
161.000000
 21
41.000000
 31
0.0
  0
LINE
  5
1B7
  8
TRACE
 10
161.000000
 20
41.000000
 30
0.0
 11
184.000000
 21
36.000000
 31
0.0
  0
LINE
  5
1B8
  8
TRACE
 10
184.000000
 20
33.000000
 30
0.0
 11
195.000000
 21
35.000000
 31
0.0
  0
LINE
  5
1B9
  8
TRACE
 10
195.000000
 20
35.000000
 30
0.0
 11
170.000000
 21
41.000000
 31
0.0
  0
LINE
  5
1BA
  8
TRACE
 10
234.000000
 20
41.000000
 30
0.0
 11
225.000000
 21
40.000000
 31
0.0
  0
LINE
  5
1BB
  8
TRACE
 10
225.000000
 20
40.000000
 30
0.0
 11
226.000000
 21
16.000000
 31
0.0
  0
LINE
  5
1BC
  8
TRACE
 10
226.000000
 20
16.000000
 30
0.0
 11
234.000000
 21
20.000000
 31
0.0
  0
LINE
  5
1BD
  8
TRACE
 10
234.000000
 20
20.000000
 30
0.0
 11
234.000000
 21
40.000000
 31
0.0
  0
LINE
  5
1BE
  8
TRACE
 10
253.000000
 20
41.000000
 30
0.0
 11
238.000000
 21
41.000000
 31
0.0
  0
LINE
  5
1BF
  8
TRACE
 10
238.000000
 20
41.000000
 30
0.0
 11
239.000000
 21
22.000000
 31
0.0
  0
LINE
  5
1C0
  8
TRACE
 10
239.000000
 20
22.000000
 30
0.0
 11
253.000000
 21
29.000000
 31
0.0
  0
LINE
  5
1C1
  8
TRACE
 10
253.000000
 20
29.000000
 30
0.0
 11
253.000000
 21
40.000000
 31
0.0
  0
LINE
  5
1C2
  8
TRACE
 10
278.000000
 20
41.000000
 30
0.0
 11
259.000000
 21
42.000000
 31
0.0
  0
LINE
  5
1C3
  8
TRACE
 10
259.000000
 20
42.000000
 30
0.0
 11
258.000000
 21
33.000000
 31
0.0
  0
LINE
  5
1C4
  8
TRACE
 10
258.000000
 20
33.000000
 30
0.0
 11
277.000000
 21
40.000000
 31
0.0
  0
LINE
  5
1C5
  8
TRACE
 10
124.000000
 20
40.000000
 30
0.0
 11
107.000000
 21
35.000000
 31
0.0
  0
LINE
  5
1C6
  8
TRACE
 10
107.000000
 20
35.000000
 30
0.0
 11
121.000000
 21
36.000000
 31
0.0
  0
LINE
  5
1C7
  8
TRACE
 10
151.000000
 20
37.000000
 30
0.0
 11
107.000000
 21
29.000000
 31
0.0
  0
LINE
  5
1C8
  8
TRACE
 10
107.000000
 20
29.000000
 30
0.0
 11
150.000000
 21
36.000000
 31
0.0
  0
LINE
  5
1C9
  8
TRACE
 10
151.000000
 20
37.000000
 30
0.0
 11
173.000000
 21
33.000000
 31
0.0
  0
LINE
  5
1CA
  8
TRACE
 10
173.000000
 20
33.000000
 30
0.0
 11
157.000000
 21
37.000000
 31
0.0
  0
LINE
  5
1CB
  8
TRACE
 10
185.000000
 20
27.000000
 30
0.0
 11
195.000000
 21
29.000000
 31
0.0
  0
LINE
  5
1CC
  8
TRACE
 10
195.000000
 20
29.000000
 30
0.0
 11
178.000000
 21
33.000000
 31
0.0
  0
LINE
  5
1CD
  8
TRACE
 10
151.000000
 20
32.000000
 30
0.0
 11
131.000000
 21
28.000000
 31
0.0
  0
LINE
  5
1CE
  8
TRACE
 10
131.000000
 20
28.000000
 30
0.0
 11
150.000000
 21
31.000000
 31
0.0
  0
LINE
  5
1CF
  8
TRACE
 10
151.000000
 20
32.000000
 30
0.0
 11
171.000000
 21
29.000000
 31
0.0
  0
LINE
  5
1D0
  8
TRACE
 10
171.000000
 20
29.000000
 30
0.0
 11
157.000000
 21
32.000000
 31
0.0
  0
LINE
  5
1D1
  8
TRACE
 10
127.000000
 20
28.000000
 30
0.0
 11
111.000000
 21
25.000000
 31
0.0
  0
LINE
  5
1D2
  8
TRACE
 10
111.000000
 20
25.000000
 30
0.0
 11
120.000000
 21
23.000000
 31
0.0
  0
LINE
  5
1D3
  8
TRACE
 10
118.000000
 20
25.000000
 30
0.0
 11
127.000000
 21
27.000000
 31
0.0
  0
LINE
  5
1D4
  8
TRACE
 10
151.000000
 20
28.000000
 30
0.0
 11
142.000000
 21
27.000000
 31
0.0
  0
LINE
  5
1D5
  8
TRACE
 10
142.000000
 20
27.000000
 30
0.0
 11
150.000000
 21
27.000000
 31
0.0
  0
LINE
  5
1D6
  8
TRACE
 10
171.000000
 20
28.000000
 30
0.0
 11
182.000000
 21
23.000000
 31
0.0
  0
LINE
  5
1D7
  8
TRACE
 10
182.000000
 20
23.000000
 30
0.0
 11
192.000000
 21
25.000000
 31
0.0
  0
LINE
  5
1D8
  8
TRACE
 10
192.000000
 20
25.000000
 30
0.0
 11
178.000000
 21
28.000000
 31
0.0
  0
LINE
  5
1D9
  8
TRACE
 10
143.000000
 20
26.000000
 30
0.0
 11
132.000000
 21
25.000000
 31
0.0
  0
LINE
  5
1DA
  8
TRACE
 10
159.000000
 20
25.000000
 30
0.0
 11
151.000000
 21
24.000000
 31
0.0
  0
LINE
  5
1DB
  8
TRACE
 10
18.000000
 20
24.000000
 30
0.0
 11
17.000000
 21
16.000000
 31
0.0
  0
LINE
  5
1DC
  8
TRACE
 10
132.000000
 20
24.000000
 30
0.0
 11
122.000000
 21
23.000000
 31
0.0
  0
LINE
  5
1DD
  8
TRACE
 10
122.000000
 20
23.000000
 30
0.0
 11
131.000000
 21
23.000000
 31
0.0
  0
LINE
  5
1DE
  8
TRACE
 10
150.000000
 20
24.000000
 30
0.0
 11
140.000000
 21
23.000000
 31
0.0
  0
LINE
  5
1DF
  8
TRACE
 10
140.000000
 20
23.000000
 30
0.0
 11
149.000000
 21
23.000000
 31
0.0
  0
LINE
  5
1E0
  8
TRACE
 10
172.000000
 20
18.000000
 30
0.0
 11
180.000000
 21
23.000000
 31
0.0
  0
LINE
  5
1E1
  8
TRACE
 10
187.000000
 20
22.000000
 30
0.0
 11
176.000000
 21
21.000000
 31
0.0
  0
LINE
  5
1E2
  8
TRACE
 10
176.000000
 20
21.000000
 30
0.0
 11
187.000000
 21
21.000000
 31
0.0
  0
LINE
  5
1E3
  8
TRACE
 10
24.000000
 20
8.000000
 30
0.0
 11
32.000000
 21
4.000000
 31
0.0
  0
LINE
  5
1E4
  8
TRACE
 10
42.000000
 20
3.000000
 30
0.0
 11
20.000000
 21
1.000000
 31
0.0
  0
LINE
  5
1E5
  8
TRACE
 10
20.000000
 20
1.000000
 30
0.0
 11
36.000000
 21
2.000000
 31
0.0
  0
LINE
  5
1E6
  8
TRACE
 10
36.000000
 20
2.000000
 30
0.0
 11
19.000000
 21
6.000000
 31
0.0
  0
ENDSEC
  0
EOF
